<?xml version="1.0" encoding="utf-8"?>
<!-- Generator: Adobe Illustrator 21.1.0, SVG Export Plug-In . SVG Version: 6.00 Build 0)  -->
<svg version="1.1" id="Layer_1" xmlns="http://www.w3.org/2000/svg" xmlns:xlink="http://www.w3.org/1999/xlink" x="0px" y="0px"
	 viewBox="0 0 24 18.4" style="enable-background:new 0 0 24 18.4;" xml:space="preserve">
<style type="text/css">
	.st0{fill:#56428E;}
</style>
<g transform="translate(0-240)">
	<path class="st0" d="M6.3,0H11c-0.6,0.9-0.9,1.9-0.9,3c1.4,0,2.8,0,4.2,0c0-1.1-0.3-2.1-0.9-3h4.8c-0.3,0.7-0.9,1.3-0.8,2.1
		c0,3.6,0,7.2,0,10.8c0.5,0,0.9,0,1.4,0c0.3-0.7,0.7-1.4,0.9-2.1c1.4,0,2.8,0,4.3,0.1c-1.4,1.2-2.1,2.9-3,4.5c-3.6,0-7.2,0-10.8,0
		c-0.2,1.3,0.6,2.2,1.6,3H5.6c0.5-0.7,1.6-1.1,1.5-2.2c0-3.5,0-7,0-10.5h3.1V8h4.1V5.5c-2.9,0-5.7,0-8.6,0C5,6.7,4.3,8,3.6,9.2
		c0.7,1.2,1.4,2.5,2.1,3.7h1.1v2.5H3.5C2.4,13.4,1.1,11.3,0,9.2v0C1.2,7.1,2.4,5.1,3.5,3C4.8,3,6,3,7.2,3C7.2,1.9,6.9,0.9,6.3,0
		 M10.2,10.5v2.5h4.1v-2.5H10.2z"/>
	<path class="st0" d="M17.7,3H21c0.9,1.4,1.5,3,2.8,4.2c0,0.1,0.1,0.3,0.1,0.3c-1.4,0.2-2.7,0-4.1,0.1c-0.2-0.8-0.5-1.4-0.9-2.1
		c-0.3,0-0.8,0-1.1,0L17.7,3z"/>
	<path class="st0" d="M14.4,15.8c1,0,1.9,0,2.9,0c0,1.2,0.8,2,1.7,2.7h-6.1C13.6,17.7,14.5,17,14.4,15.8"/>
</g>
</svg>
