<?xml version="1.0" encoding="utf-8"?>
<!-- Generator: Adobe Illustrator 21.1.0, SVG Export Plug-In . SVG Version: 6.00 Build 0)  -->
<svg version="1.1" id="Layer_1" xmlns="http://www.w3.org/2000/svg" xmlns:xlink="http://www.w3.org/1999/xlink" x="0px" y="0px"
	 viewBox="0 0 24 11.3" style="enable-background:new 0 0 24 11.3;" xml:space="preserve">
<style type="text/css">
	.st0{fill:#DE3F6B;}
</style>
<g>
	<path class="st0" d="M5.2,0h1c1.5,0.2,3,0.9,4,2c2.2,2.3,3.4,5.5,6.2,7.3c2,1.2,4.8,0.2,5.8-1.9c0.5,0,1,0,1.5,0
		c-0.7,2.1-2.7,3.7-4.9,3.9H18c-1.4-0.1-2.7-0.6-3.7-1.5c-1.5-1.3-2.5-3-3.6-4.6c-1-1.4-2-2.9-3.7-3.5c-2-0.8-4.5,0.4-5.3,2.5
		C1,5.8,1.6,7.9,3,9C4.1,9.8,5.7,10.1,7,9.6c1.5-0.5,2.6-1.7,3.4-3c0.3,0.5,0.6,0.9,1,1.4c-1.3,1.6-3.1,3-5.2,3.2H5.2
		c-2.7-0.2-5-2.5-5.2-5.2V5.2C0.2,2.5,2.5,0.2,5.2,0"/>
	<path class="st0" d="M17.9,0h0.8c2.7,0.2,5,2.5,5.3,5.2v1.4c-2.2,0-4.5,0-6.7,0c0-0.4,0-0.8,0-1.2c1.8,0,3.5,0,5.3,0
		c-0.1-0.7-0.3-1.5-0.7-2.1c-1-1.6-3.2-2.2-5-1.5c-1.4,0.5-2.4,1.7-3.3,2.9c-0.3-0.4-0.6-0.9-0.9-1.4C14,1.6,15.8,0.2,17.9,0"/>
</g>
</svg>
