<?xml version="1.0" encoding="utf-8"?>
<!-- Generator: Adobe Illustrator 21.1.0, SVG Export Plug-In . SVG Version: 6.00 Build 0)  -->
<svg version="1.1" id="Layer_1" xmlns="http://www.w3.org/2000/svg" xmlns:xlink="http://www.w3.org/1999/xlink" x="0px" y="0px"
	 viewBox="0 0 21.4 24.1" style="enable-background:new 0 0 21.4 24.1;" xml:space="preserve">
<style type="text/css">
	.st0{fill:#F5E902;}
	.st1{fill:#FFFFFF;}
</style>
<path class="st0" d="M11.6,0.3l8.8,5.1C21,5.7,21.3,6.3,21.3,7v10.1c0,0.7-0.3,1.3-0.9,1.6l-8.8,5.1c-0.6,0.3-1.3,0.3-1.9,0L1,18.7
	c-0.6-0.3-0.9-0.9-0.9-1.6V7c0-0.7,0.3-1.3,0.9-1.6l8.8-5.1C10.4,0,11,0,11.6,0.3z"/>
<path class="st1" d="M19.3,14.5c0-1.8-1-2.9-3-3.4l-1.8-0.5c-0.9-0.2-1.4-0.6-1.4-1.3c0-0.8,0.6-1.3,1.6-1.3c1.1,0,1.8,0.6,1.8,1.5
	H19c0-1.9-1.3-3.1-3.4-3.4V4.6h-1.6V6c-2.1,0.3-3.4,1.6-3.4,3.5c0,1.7,1,2.8,3,3.3l1.9,0.5c0.9,0.2,1.3,0.6,1.3,1.3
	c0,0.9-0.7,1.4-1.9,1.4c-1.3,0-2.1-0.6-2.1-1.8h-2.4c0,2.1,1.4,3.6,3.7,3.8v1.5h1.6V18C17.9,17.8,19.3,16.5,19.3,14.5z M4.8,7.7
	L2.9,4.6H2.1v4.5h0.8V6l1.9,3.1h0.8V4.6H4.8V7.7z M6.4,4.6v0.7h2.1L6.4,8.4v0.7h3.1V8.4H7.4l2.1-3.1V4.6H6.4z"/>
</svg>
