<?xml version="1.0" encoding="utf-8"?>
<!-- Generator: Adobe Illustrator 21.1.0, SVG Export Plug-In . SVG Version: 6.00 Build 0)  -->
<svg version="1.1" id="Layer_1" xmlns="http://www.w3.org/2000/svg" xmlns:xlink="http://www.w3.org/1999/xlink" x="0px" y="0px"
	 viewBox="0 0 15.6 24" style="enable-background:new 0 0 15.6 24;" xml:space="preserve">
<style type="text/css">
	.st0{fill:#01A64F;}
</style>
<path class="st0" d="M13.396,2.39C14.855,3.95,15.6,5.909,15.6,8.198c0,2.324-0.745,4.284-2.206,5.844
	C12.227,15.27,10.832,16,9.211,16.266v1.361h3.307v1.494H9.178v0.797h3.341v1.393H9.211V24H6.389v-2.688H3.113v-1.394h3.308v-0.797
	H3.114v-1.494H6.39v-1.394c-1.59-0.265-2.984-0.996-4.152-2.224C0.746,12.449,0,10.489,0,8.166c0-2.357,0.714-4.315,2.206-5.843
	C3.696,0.763,5.546,0,7.817,0C10.055,0,11.903,0.763,13.396,2.39z M10.346,11.254c0.616-0.797,0.941-1.826,0.941-3.088
	c0-1.228-0.324-2.256-1.006-3.054C9.634,4.283,8.79,3.884,7.817,3.884c-1.006,0-1.848,0.398-2.497,1.195
	c-0.65,0.797-0.974,1.792-0.974,3.054c0,1.294,0.325,2.323,0.974,3.12s1.492,1.195,2.496,1.195
	C8.855,12.449,9.73,12.05,10.346,11.254z"/>
</svg>
