<?xml version="1.0" encoding="utf-8"?>
<!-- Generator: Adobe Illustrator 21.1.0, SVG Export Plug-In . SVG Version: 6.00 Build 0)  -->
<svg version="1.1" id="Layer_1" xmlns="http://www.w3.org/2000/svg" xmlns:xlink="http://www.w3.org/1999/xlink" x="0px" y="0px"
	 viewBox="0 0 24 14.831" style="enable-background:new 0 0 24 14.831;" xml:space="preserve">
<style type="text/css">
	.st0{fill:#3F4B80;}
	.st1{fill:#313A62;}
	.st2{fill:#4B5897;}
	.st3{fill:#5161A4;}
	.st4{fill:#1F243E;}
	.st5{fill:#495692;}
	.st6{fill:#5D6CAC;}
	.st7{fill:#4F60A3;}
</style>
<title>polymath</title>
<g id="Group">
	<g id="Shape">
		<polygon class="st0" points="20.403,2.362 19.416,1.645 21.724,0.48 		"/>
		<polygon class="st1" points="14.535,0 17.409,1.478 17.755,3.862 		"/>
		<polygon class="st0" points="17.755,3.862 17.296,5.889 14.535,0 		"/>
		<polygon class="st2" points="17.296,5.889 12.895,0.334 14.54,0.011 		"/>
		<polygon class="st3" points="17.296,5.889 12.523,4.023 12.895,0.334 		"/>
		<polygon class="st2" points="12.895,0.334 12.523,4.023 7.604,4.714 		"/>
		<polygon class="st2" points="17.296,5.889 12.032,7.319 12.523,4.023 		"/>
		<polygon class="st0" points="12.032,7.319 17.296,5.889 14.923,6.995 		"/>
		<polygon class="st0" points="9.125,7.815 12.032,7.319 12.081,8.311 		"/>
		<polygon class="st1" points="12.081,8.311 12.032,7.319 14.923,6.995 		"/>
		<polygon class="st0" points="7.604,4.714 12.523,4.023 12.032,7.319 		"/>
		<polygon class="st2" points="7.604,4.714 12.032,7.319 9.125,7.815 		"/>
		<polygon class="st1" points="7.604,4.714 9.125,7.815 7.658,8.888 		"/>
		<polygon class="st3" points="5.107,5.55 5.695,9.082 4.077,6.65 		"/>
		<polygon class="st1" points="2.211,6.671 4.077,6.65 4.088,7.788 		"/>
		<polygon class="st0" points="2.362,7.443 2.211,6.671 4.088,7.788 		"/>
		<polygon class="st2" points="2.362,7.443 1.294,8.387 2.211,6.671 		"/>
		<polygon class="st1" points="1.294,8.387 1.219,8.958 0,8.759 		"/>
		<polygon class="st3" points="1.294,8.387 2.362,7.443 1.219,8.958 		"/>
		<polygon class="st0" points="4.077,6.65 5.695,9.082 4.088,9.4 		"/>
		<polygon class="st0" points="4.552,11.213 3.382,13.634 3.209,11.768 		"/>
		<polygon class="st4" points="3.209,11.768 3.382,13.634 2.707,13.958 		"/>
		<polygon class="st0" points="3.382,13.634 3.56,14.546 2.168,14.831 		"/>
		<polygon class="st1" points="2.707,13.958 3.382,13.634 2.168,14.831 		"/>
		<polygon class="st1" points="4.088,9.4 5.695,9.082 3.209,11.768 		"/>
		<polygon class="st2" points="5.695,9.082 6.79,10.328 3.209,11.768 		"/>
		<polygon class="st2" points="5.107,5.55 7.604,4.714 5.695,9.082 		"/>
		<polygon class="st0" points="5.695,9.082 7.604,4.714 7.658,8.888 		"/>
		<polygon class="st1" points="6.79,10.328 5.695,9.082 7.658,8.888 		"/>
		<polygon class="st2" points="14.923,6.995 17.237,6.979 15.759,9.233 		"/>
		<polygon class="st3" points="14.923,6.995 17.296,5.889 17.237,6.979 		"/>
		<polygon class="st0" points="14.47,8.991 14.923,6.995 15.759,9.233 		"/>
		<polygon class="st2" points="13.915,10.037 14.47,8.991 15.759,9.233 		"/>
		<polygon class="st0" points="12.793,10.787 13.143,9.071 14.47,8.991 		"/>
		<polygon class="st1" points="12.793,10.787 14.47,8.991 13.915,10.037 		"/>
		<polygon class="st5" points="19.416,1.645 21.616,0.102 21.724,0.48 		"/>
		<polygon class="st6" points="21.616,0.102 23.418,0.011 21.724,0.48 		"/>
		<polygon class="st7" points="20.462,3.624 19.459,2.918 22.851,2.923 		"/>
		<polygon class="st5" points="19.459,2.918 22.377,2.54 22.851,2.923 		"/>
		<polygon class="st0" points="22.377,2.54 23.714,1.37 22.851,2.923 		"/>
		<polygon class="st7" points="22.851,2.923 23.714,1.37 24,1.505 		"/>
		<polygon class="st1" points="23.714,1.37 23.951,0.696 24,1.505 		"/>
	</g>
	<polygon id="Shape-2" class="st1" points="17.755,3.862 18.078,6.698 17.296,5.889 	"/>
	<polygon id="Shape-3" class="st0" points="18.078,6.698 17.755,3.862 20.462,3.624 	"/>
	<polygon id="Shape-4" class="st2" points="20.462,3.624 17.755,3.862 17.409,1.478 	"/>
	<polygon id="Shape-5" class="st1" points="20.403,2.362 20.84,2.756 19.459,2.918 	"/>
	<polygon id="Shape-6" class="st0" points="17.409,1.478 20.403,2.362 19.459,2.918 	"/>
	<polygon id="Shape-7" class="st1" points="17.409,1.478 19.416,1.645 20.403,2.362 	"/>
	<polygon id="Shape-8" class="st0" points="20.338,8.111 20.462,3.624 21.541,4.503 	"/>
	<polygon id="Shape-9" class="st5" points="20.338,8.111 20.462,3.624 18.078,6.698 	"/>
	<polygon id="Shape-10" class="st1" points="21.541,4.503 21.196,3.382 20.462,3.624 	"/>
	<polygon id="Shape-11" class="st1" points="21.686,7.491 20.338,8.111 21.541,4.503 	"/>
</g>
</svg>
