<?xml version="1.0" encoding="utf-8"?>
<!-- Generator: Adobe Illustrator 21.1.0, SVG Export Plug-In . SVG Version: 6.00 Build 0)  -->
<svg version="1.1" id="Layer_1" xmlns="http://www.w3.org/2000/svg" xmlns:xlink="http://www.w3.org/1999/xlink" x="0px" y="0px"
	 viewBox="0 0 22.806 24" style="enable-background:new 0 0 22.806 24;" xml:space="preserve">
<style type="text/css">
	.st0{fill-rule:evenodd;clip-rule:evenodd;fill:#4EA5DB;}
	.st1{fill-rule:evenodd;clip-rule:evenodd;fill:#276EB2;}
</style>
<g>
	<path class="st0" d="M4.542,2.171h1.299l4.262,6.476L15.795,0h6.496l-7.64,11.608l-0.65-0.987l6.276-9.536H16.38l-6.276,9.536
		L4.542,2.171z M8.155,11.608l0.65,0.987L2.013,22.915h3.898l6.791-10.319l6.077,9.234H17.48l-4.778-7.26L6.496,24H0L8.155,11.608z"
		/>
	<path class="st1" d="M11.403,16.544L16.31,24h6.496L13.352,9.634l4.912-7.464h-1.299l-4.912,7.464l8.74,13.281h-3.898l-4.842-7.358
		L11.403,16.544z M4.027,21.829h1.299l5.427-8.247L2.529,1.085h3.898l4.327,6.575l0.65-0.987L7.012,0H0.515l8.939,13.583
		L4.027,21.829z"/>
</g>
</svg>
