<?xml version="1.0" encoding="utf-8"?>
<!-- Generator: Adobe Illustrator 21.1.0, SVG Export Plug-In . SVG Version: 6.00 Build 0)  -->
<svg version="1.1" id="Layer_1" xmlns="http://www.w3.org/2000/svg" xmlns:xlink="http://www.w3.org/1999/xlink" x="0px" y="0px"
	 viewBox="0 0 19.556 24" style="enable-background:new 0 0 19.556 24;" xml:space="preserve">
<style type="text/css">
	.st0{fill:#276EB2;}
</style>
<path class="st0" d="M9.84,0.053c-0.017-0.07-0.102-0.07-0.136,0L7.739,3.537c-0.017,0.035-0.017,0.07,0,0.088l2.033,3.625
	l5.388,9.607c0.017,0.035,0.017,0.07-0.017,0.106l-2.847,3.308l-3.033,3.554c-0.051,0.053-0.017,0.141,0.068,0.141h4.541
	c0.017,0,0.051-0.018,0.068-0.035l5.591-6.528c0.017-0.035,0.034-0.07,0.017-0.106L9.84,0.053z M7.603,23.974
	c0.013-0.009,0.025-0.018,0.034-0.026l3.016-3.519c0.051-0.053,0.017-0.141-0.068-0.141H7.265c-0.017,0-0.051-0.018-0.068-0.035
	l-2.813-3.273c-0.017-0.035-0.034-0.07-0.017-0.106l4.71-8.393c0.017-0.035,0.017-0.07,0-0.088L7.129,4.909
	c-0.034-0.053-0.119-0.053-0.153,0L0.013,17.331c-0.017,0.035-0.017,0.07,0,0.106l5.591,6.528C5.621,23.982,5.638,24,5.672,24H7.57
	C7.578,23.991,7.591,23.982,7.603,23.974z"/>
</svg>
