<?xml version="1.0" encoding="utf-8"?>
<!-- Generator: Adobe Illustrator 21.1.0, SVG Export Plug-In . SVG Version: 6.00 Build 0)  -->
<svg version="1.1" id="Layer_1" xmlns="http://www.w3.org/2000/svg" xmlns:xlink="http://www.w3.org/1999/xlink" x="0px" y="0px"
	 viewBox="0 0 24 15.36" style="enable-background:new 0 0 24 15.36;" xml:space="preserve">
<style type="text/css">
	.st0{fill:#1F5FFF;}
</style>
<g>
	<path class="st0" d="M8.448,1.728l-4.409,4.91C3.588,7.14,3.627,7.913,4.127,8.366c0.5,0.454,1.273,0.419,1.73-0.079l3.114-3.396
		c0.291-0.317,0.787-0.33,1.094-0.029l3.479,3.417c0.665,0.653,1.755,0.561,2.301-0.194l4.375-6.054
		c0.404-0.559,0.292-1.338-0.253-1.762c-0.571-0.444-1.397-0.326-1.822,0.259l-3.061,4.215c-0.272,0.375-0.812,0.422-1.145,0.1
		l-3.301-3.193C10.019,1.051,9.024,1.086,8.448,1.728z"/>
	<path class="st0" d="M8.786,7.864l-2.518,3.262c-0.278,0.361-0.809,0.398-1.135,0.079l-2.791-2.73
		c-0.53-0.519-1.376-0.525-1.914-0.013c-0.547,0.52-0.574,1.384-0.059,1.937l4.161,4.475c0.638,0.686,1.737,0.639,2.314-0.099
		l2.672-3.416c0.299-0.383,0.875-0.391,1.186-0.017l2.563,3.09c0.966,1.164,2.777,1.085,3.637-0.16l6.852-9.92
		c0.434-0.629,0.281-1.49-0.343-1.93c-0.626-0.442-1.492-0.295-1.937,0.329l-6.099,8.546c-0.288,0.403-0.877,0.429-1.198,0.052
		l-3.026-3.543C10.521,7.071,9.377,7.099,8.786,7.864z"/>
</g>
</svg>
