<?xml version="1.0" encoding="utf-8"?>
<!-- Generator: Adobe Illustrator 21.1.0, SVG Export Plug-In . SVG Version: 6.00 Build 0)  -->
<svg version="1.1" id="Layer_1" xmlns="http://www.w3.org/2000/svg" xmlns:xlink="http://www.w3.org/1999/xlink" x="0px" y="0px"
	 viewBox="0 0 24 19.5" style="enable-background:new 0 0 24 19.5;" xml:space="preserve">
<style type="text/css">
	.st0{fill:#008DE4;}
</style>
<g>
	<path class="st0" d="M15.7,0H7L6.3,4l7.9,0c3.9,0,5,1.4,5,3.7c0,1.2-0.5,3.2-0.8,3.9c-0.6,1.8-1.8,3.8-6.4,3.7l-7.7,0l-0.7,4.1h8.7
		c3.1,0,4.4-0.4,5.8-1c3.1-1.4,4.9-4.4,5.6-8.4C24.8,4.2,23.4,0,15.7,0"/>
	<path class="st0" d="M3.2,7.7c-2.3,0-2.6,1.5-2.8,2.4C0.1,11.3,0,11.8,0,11.8h8.9c2.3,0,2.6-1.5,2.8-2.4c0.3-1.2,0.4-1.7,0.4-1.7
		L3.2,7.7z"/>
</g>
</svg>
