<?xml version="1.0" encoding="utf-8"?>
<!-- Generator: Adobe Illustrator 21.1.0, SVG Export Plug-In . SVG Version: 6.00 Build 0)  -->
<svg version="1.1" id="Layer_1" xmlns="http://www.w3.org/2000/svg" xmlns:xlink="http://www.w3.org/1999/xlink" x="0px" y="0px"
	 viewBox="0 0 24 24.871" style="enable-background:new 0 0 24 24.871;" xml:space="preserve">
<style type="text/css">
	.st0{fill:#04FFCC;}
	.st1{fill:#7DF8FB;}
	.st2{fill:#2C398F;}
</style>
<title>di</title>
<g id="Layer_2">
	<g id="Layer_1-2">
		<path class="st0" d="M23.853,10.093c-0.17-0.817-0.469-1.601-0.887-2.323c-0.861-1.436-2.741-3.524-5.09-5.168
			c0,0-1.775-1.148-2.61-1.54C12.212-0.347,8.793-0.634,5.869,1.95c-4.907,4.359-7.36,10.44-4.907,16.496
			c0.052,0.131,1.409,3.837,9.553,6.316c3.576,0.104,5.664-0.104,7.961-1.436c3.002-1.723,4.75-4.855,5.377-8.039
			C24.036,14.322,24.062,11.059,23.853,10.093"/>
		<path class="st1" d="M14.355,1.506v5.821L7.621,6.909l-2.767,3.498L4.515,17.01l2.297,2.453l3.445,1.723l4.515,0.496l4.907-1.253
			V8.292l-0.94-5.037c0,0-2.636-2.062-4.359-2.558"/>
		<path class="st2" d="M22.235,15.94c-0.94-0.052-0.418-1.54-0.835-3.237c-0.496-1.879,0.235-3.184,1.201-3.132
			c0.453,0.071,0.883,0.25,1.253,0.522c-0.17-0.817-0.469-1.601-0.887-2.323c-0.861-1.436-2.741-3.524-5.09-5.168v15.739
			c0.001,0.878-0.71,1.59-1.588,1.591c-0.616,0.001-1.177-0.355-1.44-0.913c-2.908,1.802-6.725,0.906-8.528-2.002
			s-0.906-6.725,2.002-8.528c1.943-1.204,4.392-1.24,6.369-0.094V2.289c-0.009-0.476,0.203-0.929,0.574-1.227
			C12.212-0.347,8.793-0.634,5.869,1.95c-4.907,4.359-7.36,10.44-4.907,16.496c0.052,0.131,0.104,0.261,0.157,0.365
			c0.071-0.147,0.168-0.28,0.287-0.392c1.279-1.305,2.688,1.357,5.69,2.897c1.905,0.966,3.002,2.245,3.419,3.445
			c2.793,0.339,5.664-0.104,7.961-1.436c3.002-1.723,4.75-4.855,5.377-8.039C23.403,15.681,22.832,15.911,22.235,15.94z
			 M12.006,3.568c0.705-0.026,1.357,0.809,1.383,1.201c0.026,0.392-0.6,0.235-1.279,0.47c-0.757,0.261-1.305,0.026-1.331-0.365
			S11.272,3.594,12.006,3.568z"/>
		<path class="st2" d="M10.463,16.044c1.514,0.861,3.341,0.522,3.68-1.409c0.183-1.122,0.078-2.871-0.914-3.419
			C9.941,9.336,7.175,14.165,10.463,16.044"/>
	</g>
</g>
</svg>
