<?xml version="1.0" encoding="utf-8"?>
<!-- Generator: Adobe Illustrator 21.1.0, SVG Export Plug-In . SVG Version: 6.00 Build 0)  -->
<svg version="1.1" id="Layer_1" xmlns="http://www.w3.org/2000/svg" xmlns:xlink="http://www.w3.org/1999/xlink" x="0px" y="0px"
	 viewBox="0 0 21.4 24.1" style="enable-background:new 0 0 21.4 24.1;" xml:space="preserve">
<style type="text/css">
	.st0{fill:#94E469;}
	.st1{fill:#FFFFFF;}
</style>
<g>
	<path class="st0" d="M11.6,0.3l8.8,5.1C21,5.7,21.3,6.3,21.3,7v10.1c0,0.7-0.3,1.3-0.9,1.6l-8.8,5.1c-0.6,0.3-1.3,0.3-1.9,0L1,18.7
		c-0.6-0.3-0.9-0.9-0.9-1.6V7c0-0.7,0.3-1.3,0.9-1.6l8.8-5.1C10.4,0,11,0,11.6,0.3L11.6,0.3z"/>
</g>
<path class="st1" d="M3.2,9.8h1.1L3.4,4.6h2.4l0.8,5.2h1.9l0.9-5.2H12l0.9,5.2h1.9l0.8-5.2H18l-0.9,5.2h1.1v1.5h-1.3l-0.3,1.5h1.6
	v1.5h-1.8l-0.9,5.2h-2.9l-0.9-5.2H9.7l-0.9,5.2H5.9L5,14.4H3.2v-1.5h1.5l-0.3-1.5H3.2V9.8z M13.5,12.8h1l0.2-1.5h-1.4L13.5,12.8z
	 M7,12.8H8l0.3-1.5H6.8L7,12.8z M10,12.8h1.3l-0.3-1.5h-0.8L10,12.8z M14.2,14.4h-0.5l0.3,2.1L14.2,14.4z M7.5,16.4
	c0-0.5,0.1-1.2,0.3-2.1H7.2L7.5,16.4z M10.5,9.8h0.4l-0.2-1.9L10.5,9.8z"/>
</svg>
