<?xml version="1.0" encoding="utf-8"?>
<!-- Generator: Adobe Illustrator 21.1.0, SVG Export Plug-In . SVG Version: 6.00 Build 0)  -->
<svg version="1.1" id="Layer_1" xmlns="http://www.w3.org/2000/svg" xmlns:xlink="http://www.w3.org/1999/xlink" x="0px" y="0px"
	 viewBox="0 0 21.4 24.1" style="enable-background:new 0 0 21.4 24.1;" xml:space="preserve">
<style type="text/css">
	.st0{fill:#1697D5;}
	.st1{fill:#FFFFFF;}
</style>
<path class="st0" d="M11.6,0.3l8.8,5.1C21,5.7,21.3,6.3,21.3,7v10.1c0,0.7-0.3,1.3-0.9,1.6l-8.8,5.1c-0.6,0.3-1.3,0.3-1.9,0L1,18.7
	c-0.6-0.3-0.9-0.9-0.9-1.6V7c0-0.7,0.3-1.3,0.9-1.6l8.8-5.1C10.4,0,11,0,11.6,0.3z"/>
<path class="st1" d="M10.1,6.3c1.3,0,2.3,0.3,2.9,1c0.6,0.7,0.9,1.7,0.9,3.2V14h-2.6v-3.4c0-0.8-0.2-1.3-0.5-1.7
	C10.6,8.6,10,8.4,9.3,8.4H5.7v9.4H3.1V6.3H10.1z M7.5,17.8v-7.7H10v5.6h3.6c0.7,0,1.3-0.2,1.6-0.5c0.3-0.3,0.5-0.9,0.5-1.6V6.3h2.6
	v7.2c0,1.3-0.4,2.4-1.3,3.1c-0.8,0.7-2,1.1-3.6,1.1H7.5z"/>
</svg>
