<?xml version="1.0" encoding="utf-8"?>
<!-- Generator: Adobe Illustrator 21.1.0, SVG Export Plug-In . SVG Version: 6.00 Build 0)  -->
<svg version="1.1" id="Layer_1" xmlns="http://www.w3.org/2000/svg" xmlns:xlink="http://www.w3.org/1999/xlink" x="0px" y="0px"
	 viewBox="0 0 23.944 24" style="enable-background:new 0 0 23.944 24;" xml:space="preserve">
<style type="text/css">
	.st0{fill:#2B71FF;}
</style>
<path class="st0" d="M18.01,17.962L11.972,24l-2.995-2.995C12.207,20.814,15.325,19.764,18.01,17.962L18.01,17.962z M23.734,11.761
	l-0.74-0.736L11.972,0L0.947,11.026L0,11.972l0.342,0.294c0.386,0.322,0.784,0.628,1.193,0.915
	c4.359,3.071,9.765,3.997,14.756,2.776c2.036-0.493,3.97-1.34,5.716-2.502c0.434-0.286,0.855-0.597,1.269-0.923
	c0.227-0.183,0.449-0.37,0.668-0.561L23.734,11.761z M14.88,14.534c-3.289-2.021-7.076-3.083-10.934-3.067
	c5.028-2.192,11.197-2.49,16.853,0.764C18.996,13.376,16.984,14.16,14.88,14.534L14.88,14.534z"/>
</svg>
