<?xml version="1.0" encoding="utf-8"?>
<!-- Generator: Adobe Illustrator 21.1.0, SVG Export Plug-In . SVG Version: 6.00 Build 0)  -->
<svg version="1.1" id="Layer_1" xmlns="http://www.w3.org/2000/svg" xmlns:xlink="http://www.w3.org/1999/xlink" x="0px" y="0px"
	 viewBox="0 0 26.2 26.2" style="enable-background:new 0 0 26.2 26.2;" xml:space="preserve">
<style type="text/css">
	.st0{fill:#002352;stroke:#0066CC;stroke-width:2.2305;stroke-miterlimit:10;}
	.st1{fill:#FFFFFF;}
</style>
<circle class="st0" cx="13.1" cy="13.1" r="12"/>
<path class="st1" d="M6.4,10h8.5c0,0,2.9,0,0.9,3.7c0,0-1.5,3-5.1,2.9l2-5c0.1-0.2,0-0.4-0.2-0.5c0,0-0.1,0-0.1,0l-2.6,0l-3.3,8
	c0,0,1.1,0.1,1.7,0.1l-0.3,0.8h1.5c0.1,0,0.2-0.1,0.2-0.1L9.8,19l0.7-0.1L10,19.9h1.5c0.1,0,0.2-0.1,0.3-0.2l0.4-1.1
	c0,0,4.6-0.8,6.7-4.5c0,0,2.8-4.3-0.5-5.8c-0.6-0.3-1.3-0.5-2-0.5l0.4-0.9c0-0.1,0-0.2-0.1-0.2c0,0,0,0-0.1,0h-1.4l-0.4,1.1h-0.6
	l0.3-0.9c0-0.1,0-0.2-0.1-0.2c0,0,0,0-0.1,0h-1.4l-0.4,1.1H8C7.8,7.7,7.5,7.8,7.4,8L6.4,10z"/>
</svg>
