<svg xmlns="http://www.w3.org/2000/svg" viewBox="0 0 53.814 53.814"><path d="M50.697 24.419a1.904 1.904 0 00-.454-.883c-.283-.317-.638-.522-1.029-.674a5.045 5.045 0 00-1.277-.29c-.129-.014-.258-.026-.387-.041-.057-.005-.113.018-.17-.013h-3.815l-.188 1.005c-.152.835-.307 1.668-.461 2.503-.136.743-.273 1.483-.412 2.226l-.172.949c-.019.098-.02.1-.111.1h-4.194c-.03 0-.062.002-.101-.016.021-.107.039-.215.061-.322.066-.365.136-.73.204-1.1.016-.09.018-.09.104-.09h2.44c.133 0 .121.014.144-.115.092-.52.188-1.038.281-1.554.012-.068.012-.07-.06-.07-.162-.002-.327 0-.491 0h-1.976c-.111 0-.11 0-.09-.111.08-.427.157-.856.238-1.284.026-.14-.002-.122.146-.122.822-.002 1.646-.002 2.468-.002.024 0 .052-.002.075.002.055.005.07-.022.08-.07.043-.25.088-.497.133-.745.068-.362.136-.726.201-1.09.006-.029.014-.061.012-.093h-5.563c-.002.137-.039.269-.064.399-.073.43-.155.857-.235 1.287-.093.5-.187 1.004-.277 1.507l-.332 1.803-.25 1.36c-.014.072-.016.074-.093.074h-1.858c-.084 0-.088-.006-.071-.086a1387.22 1387.22 0 00.681-3.666c.117-.635.236-1.266.354-1.898.045-.237.089-.479.133-.717.004-.021.003-.044.004-.065h-2.904l-.414 2.242c-.129.698-.256 1.396-.384 2.095l-.375 2.018c-.014.076-.016.078-.089.078h-1.812c-.084 0-.084-.004-.067-.086.149-.811.3-1.613.448-2.421.154-.83.312-1.662.467-2.492.083-.444.165-.887.245-1.331.007-.032.018-.068.007-.103h-2.905c-.006.133-.042.262-.064.391-.071.396-.145.788-.218 1.183l-.279 1.508c-.097.53-.196 1.062-.292 1.593l-.31 1.674c-.023.125-.05.248-.068.373-.008.051-.031.062-.075.062-.019-.002-.038 0-.057 0-1.392 0-2.783 0-4.175-.002-.119 0-.133.03-.104-.129.081-.435.158-.869.236-1.304.017-.092.017-.092.117-.092h2.429c.026 0 .051-.002.076 0 .042.004.063-.014.07-.057.098-.551.198-1.101.297-1.65.001-.002 0-.005-.001-.01-.035-.021-.073-.012-.11-.012h-2.42c-.119 0-.121 0-.1-.113l.247-1.351c.009-.049.027-.07.081-.068.11.003.22 0 .332 0h2.23c.022 0 .044-.002.067.002.051.005.071-.021.08-.07.029-.178.063-.354.096-.531l.238-1.312c.005-.028.005-.056.008-.084H7.577c-.018.17-.056.335-.086.502l-.333 1.824-.292 1.603-.239 1.3c-.005.029-.012.056-.017.087-.03 0-.03-.022-.036-.037l-1.049-2.883c-.281-.772-.564-1.541-.847-2.313-.009-.025-.015-.054-.023-.081H1.637l-.129.678-.404 2.193-.409 2.206c-.129.703-.257 1.408-.387 2.111l-.267 1.449c-.011.031-.019.058-.041.078.001.028-.011.073.048.059.012-.006.025 0 .038 0h2.819c-.017-.051-.002-.098.007-.145l.289-1.64.317-1.769.292-1.661c.015-.08.03-.159.043-.24.032-.002.03.021.035.038a8628.747 8628.747 0 011.335 3.867c.164.479.33.955.494 1.435.011.037.03.069.028.11h10.328c.007-.139.042-.271.066-.401.103-.567.209-1.138.313-1.705l.312-1.684.274-1.49.263-1.415c.014-.078.008-.081.095-.081h1.424l.038.002c.038-.004.051.017.046.051-.016.091-.03.182-.047.272a2143.184 2143.184 0 01-.82 4.428c-.093.5-.184.998-.275 1.498l-.094.523h27.11c.006-.135.041-.264.063-.396.078-.437.158-.875.238-1.312.11-.602.223-1.203.334-1.805l.127-.699c.032.003.028.03.033.05.196.654.393 1.312.587 1.97.214.718.427 1.433.638 2.149a.245.245 0 01.008.039h2.888c-.103-.272-.201-.547-.306-.817-.32-.858-.644-1.715-.965-2.569-.041-.104-.039-.104.069-.127.269-.056.536-.119.788-.229a2.35 2.35 0 001.363-1.558c.073-.259.106-.523.116-.793a2.855 2.855 0 00-.062-.771zm-36.282.174c-.021.145-.05.289-.075.432l-.244 1.321c-.091.499-.185.998-.278 1.498l-.25 1.369c-.015.084-.015.086-.103.086H9.25c-.025 0-.051.004-.083-.014l.191-1.045.07-.373c.017-.094.016-.094.112-.094h2.534c.127 0 .129 0 .153-.13l.259-1.435c.007-.04.015-.078.021-.12.009-.061.008-.061-.054-.064H9.909c-.121 0-.121 0-.101-.115l.225-1.296c.017-.099.017-.101.117-.101h4.196c.078.002.083.007.069.081zm33.429 1.267c-.11.278-.31.471-.578.598a2.04 2.04 0 01-.629.163c-.176.024-.353.02-.527.021h-.391c-.098-.001-.098-.001-.08-.093l.105-.569c.096-.511.188-1.021.284-1.533.025-.146.025-.146.174-.146.202 0 .404-.003.604.018.193.02.38.056.561.13a.9.9 0 01.564.845c.006.193-.012.383-.087.566zm4.939 4.199c.036-.01.063-.016.091-.025a.379.379 0 00.131-.623.357.357 0 00-.267-.098c-.209-.007-.417.016-.624.022-.132.004-.132.004-.125.139 0 .013.002.024.003.037l.033.621c.008.162.013.323.021.483.004.113.006.109.117.105.079-.002.078-.012.076-.082-.006-.133-.014-.264-.019-.396-.002-.039-.022-.088.002-.119.025-.034.076-.01.115-.02a.358.358 0 01.391.149c.091.12.177.243.267.366.018.021.029.056.061.056.068 0 .14.021.216-.024-.155-.205-.271-.433-.489-.591zm-.128-.139c-.115.01-.232.004-.349.018h-.028c-.07 0-.066-.002-.075-.07-.009-.094-.001-.188-.016-.282-.014-.087-.004-.091.09-.095.104-.006.208 0 .312-.02a.369.369 0 01.168.018.207.207 0 01.043.389.449.449 0 01-.145.042z" fill="#fff"/><path d="M53.777 29.654a1.294 1.294 0 00-2.528.515c.075.526.375.875.869 1.062.059.021.123.025.178.059h.455c.104-.039.213-.057.312-.104a1.29 1.29 0 00.724-.868c.013-.05 0-.103.027-.146v-.342c-.03-.055-.021-.117-.037-.176zm-1.25 1.415c-.522-.002-1.061-.427-1.062-1.064a1.058 1.058 0 011.067-1.062c.611 0 1.074.521 1.058 1.062.023.546-.47 1.068-1.063 1.064z" fill="#fff"/></svg>