<svg xmlns="http://www.w3.org/2000/svg" xmlns:xlink="http://www.w3.org/1999/xlink" width="283.4pt" height="78" viewBox="0 0 283.4 78"><defs><symbol overflow="visible" id="a"><path d="M13.781 0v-17.063h5.938c4.11 0 7.265-.187 9.468-.625a13.744 13.744 0 004.688-2.156c1.578-1.078 2.844-2.593 3.844-4.484 1.015-1.89 1.515-4.235 1.515-7.016 0-3.593-.875-6.5-2.578-8.781-1.781-2.281-3.922-3.797-6.515-4.422-1.703-.437-5.313-.703-10.875-.703H4.609V0zm4.422-37.594c3.219 0 5.422.125 6.5.313a6.133 6.133 0 013.672 2.015c.938 1.078 1.453 2.407 1.453 4.11 0 1.328-.312 2.468-1.015 3.484-.688 1-1.641 1.766-2.844 2.266-1.203.453-3.594.703-7.203.703H13.78v-12.89zm0 0"/></symbol><symbol overflow="visible" id="b"><path d="M27.234-45.25h-9.672L0 0h9.672l3.781-10.297h18.14L35.517 0h9.859zm-11 27.313l6.141-16.75 6.25 16.75zm0 0"/></symbol><symbol overflow="visible" id="c"><path d="M25.656 0v-18.953l16.61-26.297H31.719L21.297-27.297 10.609-45.25H-.062l16.546 26.234V0zm0 0"/></symbol><symbol overflow="visible" id="d"><path d="M38.984 0v-7.64H13.781v-12.266h22.61v-7.64H13.78v-10.048h24.33v-7.656H4.61V0zm0 0"/></symbol><symbol overflow="visible" id="e"><path d="M13.781 0v-18.89h1.828c2.141 0 3.657.187 4.61.5 1.015.312 1.89.953 2.781 1.906.89.875 2.469 3.093 4.86 6.625L34.374 0h10.938l-5.5-8.844c-2.22-3.484-3.922-5.937-5.188-7.328-1.328-1.39-2.906-2.656-4.86-3.797 3.907-.562 6.891-1.953 8.907-4.172 1.953-2.203 2.969-5.047 2.969-8.406 0-2.719-.625-5.047-1.953-7.14-1.329-2.079-3.11-3.532-5.313-4.36-2.156-.812-5.688-1.203-10.547-1.203H4.61V0zm0-37.594h7.14c3.657 0 5.938.063 6.626.125 1.515.25 2.656.89 3.484 1.828.813.891 1.188 2.157 1.188 3.672 0 1.39-.313 2.516-.938 3.407-.578.89-1.453 1.515-2.531 1.89-1.078.39-3.86.578-8.219.578h-6.75zm0 0"/></symbol></defs><use xlink:href="#a" y="60" fill="#fff"/><use xlink:href="#b" x="37.47" y="60" fill="#fff"/><use xlink:href="#c" x="77.352" y="60" fill="#fff"/><g fill="#58b1dc"><use xlink:href="#d" x="119.432" y="60"/><use xlink:href="#d" x="161.578" y="60"/><use xlink:href="#e" x="203.724" y="60"/></g><path d="M265.57 38.836c0-1.004-.308-1.684-.918-2.023-.617-.344-1.597-.516-2.949-.516h-2.082V41.3h2.2c1.034 0 1.808-.102 2.324-.309.949-.375 1.425-1.094 1.425-2.156zm-3.55-4.2c1.714 0 2.972.165 3.773.497 1.43.594 2.144 1.762 2.144 3.504 0 1.23-.453 2.144-1.347 2.726-.477.309-1.145.528-2 .664 1.082.172 1.87.625 2.37 1.36.5.726.755 1.441.755 2.14v1.004c0 .324.008.668.031 1.032.024.363.067.601.121.718l.086.172h-2.281c-.012-.047-.02-.094-.035-.137-.012-.046-.02-.097-.032-.16l-.05-.441V46.62c0-1.59-.438-2.644-1.305-3.156-.516-.297-1.418-.45-2.71-.45h-1.919v5.438h-2.433V34.637zm.242-3.89c-2.985 0-5.532 1.063-7.645 3.188-2.101 2.117-3.152 4.668-3.152 7.664 0 3.015 1.043 5.586 3.137 7.715 2.101 2.12 4.652 3.183 7.66 3.183s5.554-1.062 7.66-3.184c2.105-2.128 3.156-4.699 3.156-7.714 0-2.996-1.05-5.547-3.156-7.664-2.11-2.125-4.668-3.188-7.66-3.188zm12.597 10.832c0 3.488-1.226 6.465-3.683 8.934-2.457 2.465-5.43 3.703-8.914 3.703-3.489 0-6.45-1.238-8.895-3.703-2.433-2.461-3.652-5.438-3.652-8.934 0-3.465 1.23-6.422 3.683-8.879 2.45-2.445 5.403-3.668 8.864-3.668 3.484 0 6.457 1.223 8.914 3.668 2.457 2.446 3.683 5.406 3.683 8.88" fill="#fff"/><use xlink:href="#f" x="275.219" y="60" fill="#fff"/></svg>