<svg xmlns="http://www.w3.org/2000/svg" viewBox="0 0 83.65 28.57"><g data-name="Слой 2"><path d="M60.08 6.86a3.43 3.43 0 10-3.43-3.43 3.42 3.42 0 003.43 3.43M33.79 8.71a24.3 24.3 0 01-4 6.81v-14L22.63 3v25.3h7.19v-7.84a27.22 27.22 0 013.11 7.82h8.61C40.69 24.74 37 18.22 37 18.22a31.28 31.28 0 005-9.51zm18.89-.26c-6.44.21-9.68 3.09-9.68 8.83v11h7v-9c0-3.43.45-4.9 4.53-5V8.55a10.16 10.16 0 00-1.84-.1M10.58 11.5c-.88-.05-2.91-.19-2.91-2 0-2.21 2.93-2.21 4-2.21a24.45 24.45 0 016.23 1.1c.61.26 1.23.49 1.85.72h.08V3h-.11a24.86 24.86 0 00-9.12-1.45C2.78 1.56 0 6.13 0 10.05c0 2.26 1 7.57 10 8.19.76 0 2.78.16 2.78 2.06 0 1.56-1.65 2.48-4.44 2.48a21.84 21.84 0 01-7.85-1.51v6.24a36.23 36.23 0 009.28 1.06c7.68 0 11.12-4.33 11.12-8.61 0-4.87-3.85-8-10.3-8.46m46 16.78h7V8.74h-7zM76.68 2.81v25.47h7V1.56zm-10.16 0l7-1.25v26.72h-7V2.81z" fill="#862565" data-name="Слой 1"/></g></svg>