<svg xmlns="http://www.w3.org/2000/svg" viewBox="0 0 86.6 37.4"><path d="M84.8 19.3c0-5.9-2.8-10.5-8.3-10.5-5.5 0-8.8 4.6-8.8 10.5 0 6.9 3.9 10.4 9.5 10.4 2.7 0 4.8-.6 6.4-1.5v-4.6c-1.6.8-3.4 1.3-5.6 1.3-2.2 0-4.2-.8-4.5-3.5h11.2c.1-.3.1-1.5.1-2.1zm-11.3-2.1c0-2.6 1.6-3.7 3-3.7s2.9 1.1 2.9 3.7h-5.9zM58.9 8.8c-2.3 0-3.7 1.1-4.5 1.8l-.3-1.4H49V36l5.7-1.2v-6.5c.8.6 2 1.4 4.1 1.4 4.1 0 7.9-3.3 7.9-10.6 0-6.7-3.8-10.3-7.8-10.3zm-1.4 15.9c-1.4 0-2.2-.5-2.7-1.1v-8.5c.6-.7 1.4-1.1 2.7-1.1 2.1 0 3.5 2.3 3.5 5.4 0 3-1.4 5.3-3.5 5.3zM41.1 7.5l5.8-1.2V1.6l-5.8 1.2v4.7zm0 1.7h5.8v20.1h-5.8V9.2zm-6.2 1.7l-.4-1.7h-5v20.1h5.7V15.7c1.4-1.8 3.7-1.4 4.4-1.2V9.2c-.7-.3-3.4-.8-4.7 1.7zM23.4 4.2l-5.6 1.2v18.4c0 3.4 2.6 5.9 6 5.9 1.9 0 3.3-.3 4-.8v-4.7c-.7.3-4.4 1.4-4.4-2v-8.1h4.4V9.2h-4.4v-5zM7.9 15c0-.9.7-1.2 2-1.2 2 0 3.9.5 5.7 1.5V9.9c-1.9-.8-3.8-1.1-5.7-1.1-4.8 0-7.9 2.5-7.9 6.5 0 6.3 8.7 5.3 8.7 8.1 0 1.1-.9 1.4-2.2 1.4-1.9 0-4.3-.8-6.3-1.8v5.5c2.1.9 4.3 1.3 6.3 1.3 4.8 0 8.1-2.4 8.1-6.5 0-6.9-8.7-5.7-8.7-8.3z" fill-rule="evenodd" clip-rule="evenodd" fill="#6772e5"/></svg>