<svg width="1020" height="477" viewBox="0 0 1020 477" fill="none" xmlns="http://www.w3.org/2000/svg">
<path d="M862.336 204.524V194.724H864.324L868.916 200.758V194.724H871.044V204.524H869.21L864.464 198.294V204.524H862.336ZM881.881 203.222C880.891 204.202 879.65 204.692 878.157 204.692C876.663 204.692 875.422 204.207 874.433 203.236C873.453 202.256 872.963 201.062 872.963 199.652V199.624C872.963 198.215 873.457 197.02 874.447 196.04C875.445 195.051 876.691 194.556 878.185 194.556C879.678 194.556 880.915 195.046 881.895 196.026C882.884 196.997 883.379 198.187 883.379 199.596V199.624C883.379 201.034 882.879 202.233 881.881 203.222ZM876.057 201.808C876.617 202.406 877.326 202.704 878.185 202.704C879.043 202.704 879.748 202.41 880.299 201.822C880.849 201.234 881.125 200.511 881.125 199.652V199.624C881.125 198.766 880.845 198.038 880.285 197.44C879.725 196.843 879.015 196.544 878.157 196.544C877.298 196.544 876.593 196.838 876.043 197.426C875.492 198.014 875.217 198.738 875.217 199.596V199.624C875.217 200.483 875.497 201.211 876.057 201.808ZM885.291 204.524V194.724H887.279L891.871 200.758V194.724H893.999V204.524H892.165L887.419 198.294V204.524H885.291ZM895.876 201.206V199.162H900.188V201.206H895.876ZM905.553 204.664C903.938 204.664 902.552 204.142 901.395 203.096L902.669 201.57C903.649 202.364 904.624 202.76 905.595 202.76C906.043 202.76 906.388 202.681 906.631 202.522C906.883 202.354 907.009 202.126 907.009 201.836V201.808C907.009 201.528 906.878 201.3 906.617 201.122C906.355 200.945 905.828 200.758 905.035 200.562C904.484 200.422 904.031 200.287 903.677 200.156C903.322 200.016 902.991 199.834 902.683 199.61C902.375 199.386 902.146 199.106 901.997 198.77C901.857 198.434 901.787 198.033 901.787 197.566V197.538C901.787 196.652 902.104 195.938 902.739 195.396C903.373 194.855 904.199 194.584 905.217 194.584C906.598 194.584 907.811 195 908.857 195.83L907.737 197.454C906.794 196.81 905.945 196.488 905.189 196.488C904.778 196.488 904.465 196.568 904.251 196.726C904.036 196.885 903.929 197.09 903.929 197.342V197.37C903.929 197.688 904.059 197.926 904.321 198.084C904.591 198.234 905.165 198.425 906.043 198.658C907.107 198.948 907.891 199.307 908.395 199.736C908.899 200.166 909.151 200.786 909.151 201.598V201.626C909.151 202.578 908.819 203.325 908.157 203.866C907.503 204.398 906.635 204.664 905.553 204.664ZM911.022 204.524V194.724H913.178V202.564H918.064V204.524H911.022ZM919.788 204.524V194.724H921.944V204.524H919.788ZM924.393 204.524V194.724H928.397C929.554 194.724 930.469 195.037 931.141 195.662C931.813 196.278 932.149 197.095 932.149 198.112V198.14C932.149 199.242 931.775 200.091 931.029 200.688C930.282 201.286 929.335 201.584 928.187 201.584H926.549V204.524H924.393ZM926.549 199.666H928.257C928.779 199.666 929.195 199.526 929.503 199.246C929.811 198.966 929.965 198.612 929.965 198.182V198.154C929.965 197.678 929.811 197.314 929.503 197.062C929.195 196.801 928.765 196.67 928.215 196.67H926.549V199.666ZM862.336 221.524V211.724H869.728V213.642H864.478V215.63H869.098V217.548H864.478V219.606H869.798V221.524H862.336ZM871.715 221.524V211.724H876.195C877.436 211.724 878.388 212.056 879.051 212.718C879.611 213.278 879.891 214.025 879.891 214.958V214.986C879.891 216.489 879.191 217.502 877.791 218.024L880.185 221.524H877.665L875.565 218.388H873.871V221.524H871.715ZM873.871 216.484H876.055C876.578 216.484 876.984 216.363 877.273 216.12C877.562 215.868 877.707 215.528 877.707 215.098V215.07C877.707 214.613 877.558 214.268 877.259 214.034C876.97 213.792 876.554 213.67 876.013 213.67H873.871V216.484ZM886.55 221.692C885.029 221.692 883.787 221.221 882.826 220.278C881.874 219.326 881.398 218.118 881.398 216.652V216.624C881.398 215.215 881.888 214.02 882.868 213.04C883.848 212.051 885.071 211.556 886.536 211.556C887.376 211.556 888.095 211.668 888.692 211.892C889.289 212.107 889.854 212.443 890.386 212.9L889.028 214.538C888.627 214.202 888.23 213.955 887.838 213.796C887.455 213.628 886.998 213.544 886.466 213.544C885.682 213.544 885.015 213.843 884.464 214.44C883.923 215.038 883.652 215.756 883.652 216.596V216.624C883.652 217.52 883.927 218.262 884.478 218.85C885.038 219.438 885.752 219.732 886.62 219.732C887.423 219.732 888.099 219.536 888.65 219.144V217.744H886.48V215.882H890.736V220.138C889.513 221.174 888.118 221.692 886.55 221.692ZM901.295 220.222C900.305 221.202 899.064 221.692 897.571 221.692C896.077 221.692 894.836 221.207 893.847 220.236C892.867 219.256 892.377 218.062 892.377 216.652V216.624C892.377 215.215 892.871 214.02 893.861 213.04C894.859 212.051 896.105 211.556 897.599 211.556C899.092 211.556 900.329 212.046 901.309 213.026C902.298 213.997 902.793 215.187 902.793 216.596V216.624C902.793 218.034 902.293 219.233 901.295 220.222ZM895.471 218.808C896.031 219.406 896.74 219.704 897.599 219.704C898.457 219.704 899.162 219.41 899.713 218.822C900.263 218.234 900.539 217.511 900.539 216.652V216.624C900.539 215.766 900.259 215.038 899.699 214.44C899.139 213.843 898.429 213.544 897.571 213.544C896.712 213.544 896.007 213.838 895.457 214.426C894.906 215.014 894.631 215.738 894.631 216.596V216.624C894.631 217.483 894.911 218.211 895.471 218.808ZM904.705 221.524V211.724H906.693L911.285 217.758V211.724H913.413V221.524H911.579L906.833 215.294V221.524H904.705ZM924.25 220.222C923.26 221.202 922.019 221.692 920.526 221.692C919.032 221.692 917.791 221.207 916.802 220.236C915.822 219.256 915.332 218.062 915.332 216.652V216.624C915.332 215.215 915.826 214.02 916.816 213.04C917.814 212.051 919.06 211.556 920.554 211.556C922.047 211.556 923.284 212.046 924.264 213.026C925.253 213.997 925.748 215.187 925.748 216.596V216.624C925.748 218.034 925.248 219.233 924.25 220.222ZM918.426 218.808C918.986 219.406 919.695 219.704 920.554 219.704C921.412 219.704 922.117 219.41 922.668 218.822C923.218 218.234 923.494 217.511 923.494 216.652V216.624C923.494 215.766 923.214 215.038 922.654 214.44C922.094 213.843 921.384 213.544 920.526 213.544C919.667 213.544 918.962 213.838 918.412 214.426C917.861 215.014 917.586 215.738 917.586 216.596V216.624C917.586 217.483 917.866 218.211 918.426 218.808ZM927.66 221.524V211.724H929.984L932.56 215.868L935.136 211.724H937.46V221.524H935.318V215.126L932.56 219.312H932.504L929.774 215.168V221.524H927.66ZM939.913 221.524V211.724H942.069V221.524H939.913ZM949.11 221.692C947.672 221.692 946.473 221.207 945.512 220.236C944.56 219.266 944.084 218.071 944.084 216.652V216.624C944.084 215.206 944.564 214.006 945.526 213.026C946.487 212.046 947.71 211.556 949.194 211.556C950.762 211.556 952.05 212.06 953.058 213.068L951.686 214.65C950.855 213.913 950.02 213.544 949.18 213.544C948.368 213.544 947.691 213.843 947.15 214.44C946.608 215.028 946.338 215.747 946.338 216.596V216.624C946.338 217.483 946.604 218.211 947.136 218.808C947.677 219.406 948.358 219.704 949.18 219.704C949.702 219.704 950.155 219.611 950.538 219.424C950.93 219.238 951.336 218.948 951.756 218.556L953.128 219.942C952.586 220.53 952.003 220.969 951.378 221.258C950.762 221.548 950.006 221.692 949.11 221.692ZM963.769 221.692C962.248 221.692 961.006 221.221 960.045 220.278C959.093 219.326 958.617 218.118 958.617 216.652V216.624C958.617 215.215 959.107 214.02 960.087 213.04C961.067 212.051 962.29 211.556 963.755 211.556C964.595 211.556 965.314 211.668 965.911 211.892C966.508 212.107 967.073 212.443 967.605 212.9L966.247 214.538C965.846 214.202 965.449 213.955 965.057 213.796C964.674 213.628 964.217 213.544 963.685 213.544C962.901 213.544 962.234 213.843 961.683 214.44C961.142 215.038 960.871 215.756 960.871 216.596V216.624C960.871 217.52 961.146 218.262 961.697 218.85C962.257 219.438 962.971 219.732 963.839 219.732C964.642 219.732 965.318 219.536 965.869 219.144V217.744H963.699V215.882H967.955V220.138C966.732 221.174 965.337 221.692 963.769 221.692ZM970.029 221.524V211.724H974.509C975.751 211.724 976.703 212.056 977.365 212.718C977.925 213.278 978.205 214.025 978.205 214.958V214.986C978.205 216.489 977.505 217.502 976.105 218.024L978.499 221.524H975.979L973.879 218.388H972.185V221.524H970.029ZM972.185 216.484H974.369C974.892 216.484 975.298 216.363 975.587 216.12C975.877 215.868 976.021 215.528 976.021 215.098V215.07C976.021 214.613 975.872 214.268 975.573 214.034C975.284 213.792 974.869 213.67 974.327 213.67H972.185V216.484ZM980.245 221.524V211.724H982.401V221.524H980.245ZM984.85 221.524V211.724H988.854C990.011 211.724 990.926 212.037 991.598 212.662C992.27 213.278 992.606 214.095 992.606 215.112V215.14C992.606 216.242 992.232 217.091 991.486 217.688C990.739 218.286 989.792 218.584 988.644 218.584H987.006V221.524H984.85ZM987.006 216.666H988.714C989.236 216.666 989.652 216.526 989.96 216.246C990.268 215.966 990.422 215.612 990.422 215.182V215.154C990.422 214.678 990.268 214.314 989.96 214.062C989.652 213.801 989.222 213.67 988.672 213.67H987.006V216.666Z" fill="white"/>
<path d="M870.168 173.84C868.129 173.84 866.479 173.092 865.218 171.596C863.971 170.1 863.348 168.208 863.348 165.92V165.876C863.348 163.603 863.986 161.711 865.262 160.2C866.538 158.675 868.188 157.912 870.212 157.912C872.221 157.912 873.857 158.668 875.118 160.178C876.394 161.674 877.032 163.559 877.032 165.832V165.876C877.032 168.15 876.394 170.049 875.118 171.574C873.842 173.085 872.192 173.84 870.168 173.84ZM867.748 169.396C868.379 170.32 869.2 170.782 870.212 170.782C871.224 170.782 872.031 170.328 872.632 169.418C873.248 168.509 873.556 167.343 873.556 165.92V165.876C873.556 164.468 873.241 163.302 872.61 162.378C871.979 161.44 871.165 160.97 870.168 160.97C869.171 160.97 868.364 161.425 867.748 162.334C867.132 163.244 866.824 164.41 866.824 165.832V165.876C866.824 167.299 867.132 168.472 867.748 169.396ZM886.986 173.576V170.254H879.462L878.912 167.856L887.36 158.066H890.22V167.504H892.288V170.254H890.22V173.576H886.986ZM882.894 167.504H886.986V162.708L882.894 167.504ZM894.762 173.576V170.056H898.326V173.576H894.762Z" fill="#F99D21"/>
<path d="M632.336 348.524V338.724H639.728V340.642H634.478V342.63H639.098V344.548H634.478V346.606H639.798V348.524H632.336ZM647.763 338.724H650.213L646.937 343.512L650.353 348.524H647.833L645.635 345.164L643.423 348.524H640.973L644.389 343.54L641.113 338.724H643.633L645.677 341.902L647.763 338.724ZM654.251 348.524V340.712H651.269V338.724H659.389V340.712H656.407V348.524H654.251ZM661.047 348.524V338.724H665.527C666.768 338.724 667.72 339.056 668.383 339.718C668.943 340.278 669.223 341.025 669.223 341.958V341.986C669.223 343.489 668.523 344.502 667.123 345.024L669.517 348.524H666.997L664.897 345.388H663.203V348.524H661.047ZM663.203 343.484H665.387C665.91 343.484 666.316 343.363 666.605 343.12C666.894 342.868 667.039 342.528 667.039 342.098V342.07C667.039 341.613 666.89 341.268 666.591 341.034C666.302 340.792 665.886 340.67 665.345 340.67H663.203V343.484ZM670.324 348.524L674.524 338.654H676.512L680.712 348.524H678.458L677.562 346.326H673.418L672.522 348.524H670.324ZM674.188 344.422H676.792L675.49 341.244L674.188 344.422ZM681.188 345.206V343.162H685.5V345.206H681.188ZM690.865 348.664C689.25 348.664 687.864 348.142 686.707 347.096L687.981 345.57C688.961 346.364 689.936 346.76 690.907 346.76C691.355 346.76 691.7 346.681 691.943 346.522C692.195 346.354 692.321 346.126 692.321 345.836V345.808C692.321 345.528 692.19 345.3 691.929 345.122C691.668 344.945 691.14 344.758 690.347 344.562C689.796 344.422 689.344 344.287 688.989 344.156C688.634 344.016 688.303 343.834 687.995 343.61C687.687 343.386 687.458 343.106 687.309 342.77C687.169 342.434 687.099 342.033 687.099 341.566V341.538C687.099 340.652 687.416 339.938 688.051 339.396C688.686 338.855 689.512 338.584 690.529 338.584C691.91 338.584 693.124 339 694.169 339.83L693.049 341.454C692.106 340.81 691.257 340.488 690.501 340.488C690.09 340.488 689.778 340.568 689.563 340.726C689.348 340.885 689.241 341.09 689.241 341.342V341.37C689.241 341.688 689.372 341.926 689.633 342.084C689.904 342.234 690.478 342.425 691.355 342.658C692.419 342.948 693.203 343.307 693.707 343.736C694.211 344.166 694.463 344.786 694.463 345.598V345.626C694.463 346.578 694.132 347.325 693.469 347.866C692.816 348.398 691.948 348.664 690.865 348.664ZM696.334 348.524V338.724H698.49V342.602H702.466V338.724H704.622V348.524H702.466V344.59H698.49V348.524H696.334ZM706.131 348.524L710.331 338.654H712.319L716.519 348.524H714.265L713.369 346.326H709.225L708.329 348.524H706.131ZM709.995 344.422H712.599L711.297 341.244L709.995 344.422ZM718.031 348.524V338.724H722.511C723.753 338.724 724.705 339.056 725.367 339.718C725.927 340.278 726.207 341.025 726.207 341.958V341.986C726.207 343.489 725.507 344.502 724.107 345.024L726.501 348.524H723.981L721.881 345.388H720.187V348.524H718.031ZM720.187 343.484H722.371C722.894 343.484 723.3 343.363 723.589 343.12C723.879 342.868 724.023 342.528 724.023 342.098V342.07C724.023 341.613 723.874 341.268 723.575 341.034C723.286 340.792 722.871 340.67 722.329 340.67H720.187V343.484ZM728.149 348.524V338.724H732.153C733.31 338.724 734.225 339.037 734.897 339.662C735.569 340.278 735.905 341.095 735.905 342.112V342.14C735.905 343.242 735.531 344.091 734.785 344.688C734.038 345.286 733.091 345.584 731.943 345.584H730.305V348.524H728.149ZM730.305 343.666H732.013C732.535 343.666 732.951 343.526 733.259 343.246C733.567 342.966 733.721 342.612 733.721 342.182V342.154C733.721 341.678 733.567 341.314 733.259 341.062C732.951 340.801 732.521 340.67 731.971 340.67H730.305V343.666ZM741.697 348.524V338.724H746.247C747.377 338.724 748.231 339.014 748.809 339.592C749.257 340.04 749.481 340.596 749.481 341.258V341.286C749.481 342.248 749.052 342.952 748.193 343.4C748.8 343.634 749.257 343.937 749.565 344.31C749.873 344.684 750.027 345.183 750.027 345.808V345.836C750.027 346.714 749.701 347.381 749.047 347.838C748.394 348.296 747.498 348.524 746.359 348.524H741.697ZM747.339 341.65V341.622C747.339 340.95 746.868 340.614 745.925 340.614H743.797V342.686H745.785C746.821 342.686 747.339 342.341 747.339 341.65ZM747.885 345.57V345.542C747.885 344.833 747.353 344.478 746.289 344.478H743.797V346.634H746.359C747.377 346.634 747.885 346.28 747.885 345.57ZM751.801 348.524V338.724H753.957V346.564H758.843V348.524H751.801ZM759.629 348.524L763.829 338.654H765.817L770.017 348.524H767.763L766.867 346.326H762.723L761.827 348.524H759.629ZM763.493 344.422H766.097L764.795 341.244L763.493 344.422ZM771.529 348.524V338.724H775.351C776.873 338.724 778.119 339.191 779.089 340.124C780.069 341.048 780.559 342.206 780.559 343.596V343.624C780.559 345.024 780.069 346.191 779.089 347.124C778.119 348.058 776.873 348.524 775.351 348.524H771.529ZM775.351 340.67H773.685V346.578H775.351C776.229 346.578 776.938 346.308 777.479 345.766C778.03 345.225 778.305 344.52 778.305 343.652V343.624C778.305 342.756 778.03 342.047 777.479 341.496C776.938 340.946 776.229 340.67 775.351 340.67ZM782.481 348.524V338.724H789.873V340.642H784.623V342.63H789.243V344.548H784.623V346.606H789.943V348.524H782.481ZM632.336 365.524V355.724H639.798V357.684H634.492V359.77H639.168V361.73H634.492V365.524H632.336ZM650.008 364.222C649.018 365.202 647.777 365.692 646.284 365.692C644.79 365.692 643.549 365.207 642.56 364.236C641.58 363.256 641.09 362.062 641.09 360.652V360.624C641.09 359.215 641.584 358.02 642.574 357.04C643.572 356.051 644.818 355.556 646.312 355.556C647.805 355.556 649.042 356.046 650.022 357.026C651.011 357.997 651.506 359.187 651.506 360.596V360.624C651.506 362.034 651.006 363.233 650.008 364.222ZM644.184 362.808C644.744 363.406 645.453 363.704 646.312 363.704C647.17 363.704 647.875 363.41 648.426 362.822C648.976 362.234 649.252 361.511 649.252 360.652V360.624C649.252 359.766 648.972 359.038 648.412 358.44C647.852 357.843 647.142 357.544 646.284 357.544C645.425 357.544 644.72 357.838 644.17 358.426C643.619 359.014 643.344 359.738 643.344 360.596V360.624C643.344 361.483 643.624 362.211 644.184 362.808ZM653.418 365.524V355.724H657.898C659.139 355.724 660.091 356.056 660.754 356.718C661.314 357.278 661.594 358.025 661.594 358.958V358.986C661.594 360.489 660.894 361.502 659.494 362.024L661.888 365.524H659.368L657.268 362.388H655.574V365.524H653.418ZM655.574 360.484H657.758C658.281 360.484 658.687 360.363 658.976 360.12C659.265 359.868 659.41 359.528 659.41 359.098V359.07C659.41 358.613 659.261 358.268 658.962 358.034C658.673 357.792 658.257 357.67 657.716 357.67H655.574V360.484ZM667.733 365.524V355.724H675.125V357.642H669.875V359.63H674.495V361.548H669.875V363.606H675.195V365.524H667.733ZM676.271 365.524L680.471 355.654H682.459L686.659 365.524H684.405L683.509 363.326H679.365L678.469 365.524H676.271ZM680.135 361.422H682.739L681.437 358.244L680.135 361.422ZM691.521 365.664C689.907 365.664 688.521 365.142 687.363 364.096L688.637 362.57C689.617 363.364 690.593 363.76 691.563 363.76C692.011 363.76 692.357 363.681 692.599 363.522C692.851 363.354 692.977 363.126 692.977 362.836V362.808C692.977 362.528 692.847 362.3 692.585 362.122C692.324 361.945 691.797 361.758 691.003 361.562C690.453 361.422 690 361.287 689.645 361.156C689.291 361.016 688.959 360.834 688.651 360.61C688.343 360.386 688.115 360.106 687.965 359.77C687.825 359.434 687.755 359.033 687.755 358.566V358.538C687.755 357.652 688.073 356.938 688.707 356.396C689.342 355.855 690.168 355.584 691.185 355.584C692.567 355.584 693.78 356 694.825 356.83L693.705 358.454C692.763 357.81 691.913 357.488 691.157 357.488C690.747 357.488 690.434 357.568 690.219 357.726C690.005 357.885 689.897 358.09 689.897 358.342V358.37C689.897 358.688 690.028 358.926 690.289 359.084C690.56 359.234 691.134 359.425 692.011 359.658C693.075 359.948 693.859 360.307 694.363 360.736C694.867 361.166 695.119 361.786 695.119 362.598V362.626C695.119 363.578 694.788 364.325 694.125 364.866C693.472 365.398 692.604 365.664 691.521 365.664ZM699.325 365.524V361.66L695.559 355.724H698.079L700.417 359.658L702.797 355.724H705.247L701.481 361.618V365.524H699.325ZM715.503 365.692C713.982 365.692 712.741 365.221 711.779 364.278C710.827 363.326 710.351 362.118 710.351 360.652V360.624C710.351 359.215 710.841 358.02 711.821 357.04C712.801 356.051 714.024 355.556 715.489 355.556C716.329 355.556 717.048 355.668 717.645 355.892C718.243 356.107 718.807 356.443 719.339 356.9L717.981 358.538C717.58 358.202 717.183 357.955 716.791 357.796C716.409 357.628 715.951 357.544 715.419 357.544C714.635 357.544 713.968 357.843 713.417 358.44C712.876 359.038 712.605 359.756 712.605 360.596V360.624C712.605 361.52 712.881 362.262 713.431 362.85C713.991 363.438 714.705 363.732 715.573 363.732C716.376 363.732 717.053 363.536 717.603 363.144V361.744H715.433V359.882H719.689V364.138C718.467 365.174 717.071 365.692 715.503 365.692ZM721.764 365.524V355.724H726.244C727.485 355.724 728.437 356.056 729.1 356.718C729.66 357.278 729.94 358.025 729.94 358.958V358.986C729.94 360.489 729.24 361.502 727.84 362.024L730.234 365.524H727.714L725.614 362.388H723.92V365.524H721.764ZM723.92 360.484H726.104C726.626 360.484 727.032 360.363 727.322 360.12C727.611 359.868 727.756 359.528 727.756 359.098V359.07C727.756 358.613 727.606 358.268 727.308 358.034C727.018 357.792 726.603 357.67 726.062 357.67H723.92V360.484ZM731.041 365.524L735.241 355.654H737.229L741.429 365.524H739.175L738.279 363.326H734.135L733.239 365.524H731.041ZM734.905 361.422H737.509L736.207 358.244L734.905 361.422ZM743.966 365.524V357.712H740.984V355.724H749.104V357.712H746.122V365.524H743.966ZM750.86 365.524V355.724H753.016V365.524H750.86ZM755.465 365.524V355.724H757.453L762.045 361.758V355.724H764.173V365.524H762.339L757.593 359.294V365.524H755.465ZM771.243 365.692C769.722 365.692 768.481 365.221 767.519 364.278C766.567 363.326 766.091 362.118 766.091 360.652V360.624C766.091 359.215 766.581 358.02 767.561 357.04C768.541 356.051 769.764 355.556 771.229 355.556C772.069 355.556 772.788 355.668 773.385 355.892C773.983 356.107 774.547 356.443 775.079 356.9L773.721 358.538C773.32 358.202 772.923 357.955 772.531 357.796C772.149 357.628 771.691 357.544 771.159 357.544C770.375 357.544 769.708 357.843 769.157 358.44C768.616 359.038 768.345 359.756 768.345 360.596V360.624C768.345 361.52 768.621 362.262 769.171 362.85C769.731 363.438 770.445 363.732 771.313 363.732C772.116 363.732 772.793 363.536 773.343 363.144V361.744H771.173V359.882H775.429V364.138C774.207 365.174 772.811 365.692 771.243 365.692Z" fill="white"/>
<path d="M639.168 314.788C637.129 314.788 635.479 314.04 634.218 312.544C632.971 311.048 632.348 309.156 632.348 306.868V306.824C632.348 304.551 632.986 302.659 634.262 301.148C635.538 299.623 637.188 298.86 639.212 298.86C641.221 298.86 642.857 299.616 644.118 301.126C645.394 302.622 646.032 304.507 646.032 306.78V306.824C646.032 309.098 645.394 310.997 644.118 312.522C642.842 314.033 641.192 314.788 639.168 314.788ZM636.748 310.344C637.379 311.268 638.2 311.73 639.212 311.73C640.224 311.73 641.031 311.276 641.632 310.366C642.248 309.457 642.556 308.291 642.556 306.868V306.824C642.556 305.416 642.241 304.25 641.61 303.326C640.979 302.388 640.165 301.918 639.168 301.918C638.171 301.918 637.364 302.373 636.748 303.282C636.132 304.192 635.824 305.358 635.824 306.78V306.824C635.824 308.247 636.132 309.42 636.748 310.344ZM653.858 314.788C651.335 314.788 649.333 313.901 647.852 312.126L650.184 309.904C651.254 311.136 652.494 311.752 653.902 311.752C654.562 311.752 655.09 311.584 655.486 311.246C655.882 310.909 656.08 310.454 656.08 309.882V309.838C656.08 309.208 655.816 308.724 655.288 308.386C654.76 308.049 654.019 307.88 653.066 307.88H651.658L651.13 305.724L654.804 302.028H648.754V299.124H659.16V301.676L655.266 305.394C658.023 305.864 659.402 307.301 659.402 309.706V309.75C659.402 311.232 658.896 312.442 657.884 313.38C656.886 314.319 655.544 314.788 653.858 314.788ZM662.044 314.524V311.004H665.608V314.524H662.044Z" fill="#F99D21"/>
<path d="M198.336 83.5245V73.7245H200.66L203.236 77.8685L205.812 73.7245H208.136V83.5245H205.994V77.1265L203.236 81.3125H203.18L200.45 77.1685V83.5245H198.336ZM209.65 83.5245L213.85 73.6545H215.838L220.038 83.5245H217.784L216.888 81.3265H212.744L211.848 83.5245H209.65ZM213.514 79.4225H216.118L214.816 76.2445L213.514 79.4225ZM221.551 83.5245V73.7245H225.373C226.894 73.7245 228.14 74.1911 229.111 75.1245C230.091 76.0485 230.581 77.2058 230.581 78.5965V78.6245C230.581 80.0245 230.091 81.1911 229.111 82.1245C228.14 83.0578 226.894 83.5245 225.373 83.5245H221.551ZM225.373 75.6705H223.707V81.5785H225.373C226.25 81.5785 226.959 81.3078 227.501 80.7665C228.051 80.2251 228.327 79.5205 228.327 78.6525V78.6245C228.327 77.7565 228.051 77.0471 227.501 76.4965C226.959 75.9458 226.25 75.6705 225.373 75.6705ZM232.502 83.5245V73.7245H239.894V75.6425H234.644V77.6305H239.264V79.5485H234.644V81.6065H239.964V83.5245H232.502ZM254.562 82.2225C253.573 83.2025 252.331 83.6925 250.838 83.6925C249.345 83.6925 248.103 83.2071 247.114 82.2365C246.134 81.2565 245.644 80.0618 245.644 78.6525V78.6245C245.644 77.2151 246.139 76.0205 247.128 75.0405C248.127 74.0511 249.373 73.5565 250.866 73.5565C252.359 73.5565 253.596 74.0465 254.576 75.0265C255.565 75.9971 256.06 77.1871 256.06 78.5965V78.6245C256.06 80.0338 255.561 81.2331 254.562 82.2225ZM248.738 80.8085C249.298 81.4058 250.007 81.7045 250.866 81.7045C251.725 81.7045 252.429 81.4105 252.98 80.8225C253.531 80.2345 253.806 79.5111 253.806 78.6525V78.6245C253.806 77.7658 253.526 77.0378 252.966 76.4405C252.406 75.8431 251.697 75.5445 250.838 75.5445C249.979 75.5445 249.275 75.8385 248.724 76.4265C248.173 77.0145 247.898 77.7378 247.898 78.5965V78.6245C247.898 79.4831 248.178 80.2111 248.738 80.8085ZM257.973 83.5245V73.7245H265.435V75.6845H260.129V77.7705H264.805V79.7305H260.129V83.5245H257.973ZM272.673 83.5245V75.8385L270.965 76.2585L270.517 74.4945L273.331 73.6545H274.801V83.5245H272.673ZM281.184 83.6925C279.886 83.6925 278.836 83.2165 278.034 82.2645C277.24 81.3125 276.844 80.1085 276.844 78.6525V78.6245C276.844 77.1778 277.25 75.9738 278.062 75.0125C278.874 74.0418 279.924 73.5565 281.212 73.5565C282.49 73.5565 283.531 74.0371 284.334 74.9985C285.146 75.9505 285.552 77.1498 285.552 78.5965V78.6245C285.552 80.0711 285.146 81.2798 284.334 82.2505C283.522 83.2118 282.472 83.6925 281.184 83.6925ZM279.644 80.8645C280.045 81.4525 280.568 81.7465 281.212 81.7465C281.856 81.7465 282.369 81.4571 282.752 80.8785C283.144 80.2998 283.34 79.5578 283.34 78.6525V78.6245C283.34 77.7285 283.139 76.9865 282.738 76.3985C282.336 75.8011 281.818 75.5025 281.184 75.5025C280.549 75.5025 280.036 75.7918 279.644 76.3705C279.252 76.9491 279.056 77.6911 279.056 78.5965V78.6245C279.056 79.5298 279.252 80.2765 279.644 80.8645ZM291.41 83.6925C290.113 83.6925 289.063 83.2165 288.26 82.2645C287.467 81.3125 287.07 80.1085 287.07 78.6525V78.6245C287.07 77.1778 287.476 75.9738 288.288 75.0125C289.1 74.0418 290.15 73.5565 291.438 73.5565C292.717 73.5565 293.758 74.0371 294.56 74.9985C295.372 75.9505 295.778 77.1498 295.778 78.5965V78.6245C295.778 80.0711 295.372 81.2798 294.56 82.2505C293.748 83.2118 292.698 83.6925 291.41 83.6925ZM289.87 80.8645C290.272 81.4525 290.794 81.7465 291.438 81.7465C292.082 81.7465 292.596 81.4571 292.978 80.8785C293.37 80.2998 293.566 79.5578 293.566 78.6525V78.6245C293.566 77.7285 293.366 76.9865 292.964 76.3985C292.563 75.8011 292.045 75.5025 291.41 75.5025C290.776 75.5025 290.262 75.7918 289.87 76.3705C289.478 76.9491 289.282 77.6911 289.282 78.5965V78.6245C289.282 79.5298 289.478 80.2765 289.87 80.8645ZM299.537 78.6245C298.846 78.6245 298.277 78.3865 297.829 77.9105C297.39 77.4345 297.171 76.8465 297.171 76.1465V76.1185C297.171 75.4185 297.395 74.8258 297.843 74.3405C298.291 73.8551 298.865 73.6125 299.565 73.6125C300.255 73.6125 300.82 73.8505 301.259 74.3265C301.707 74.8025 301.931 75.3905 301.931 76.0905V76.1185C301.931 76.8185 301.707 77.4111 301.259 77.8965C300.811 78.3818 300.237 78.6245 299.537 78.6245ZM299.537 74.8865C299.247 74.8865 299.023 75.0031 298.865 75.2365C298.715 75.4605 298.641 75.7451 298.641 76.0905V76.1185C298.641 76.4545 298.725 76.7438 298.893 76.9865C299.07 77.2291 299.294 77.3505 299.565 77.3505C299.854 77.3505 300.073 77.2338 300.223 77.0005C300.381 76.7671 300.461 76.4825 300.461 76.1465V76.1185C300.461 75.7825 300.372 75.4931 300.195 75.2505C300.027 75.0078 299.807 74.8865 299.537 74.8865ZM302.071 78.2465L305.305 73.7245H306.971L303.051 79.0025L299.817 83.5245H298.151L302.071 78.2465ZM305.557 83.6365C304.866 83.6365 304.297 83.3985 303.849 82.9225C303.41 82.4465 303.191 81.8585 303.191 81.1585V81.1305C303.191 80.4305 303.415 79.8378 303.863 79.3525C304.311 78.8671 304.885 78.6245 305.585 78.6245C306.275 78.6245 306.84 78.8625 307.279 79.3385C307.727 79.8145 307.951 80.4025 307.951 81.1025V81.1305C307.951 81.8305 307.727 82.4231 307.279 82.9085C306.831 83.3938 306.257 83.6365 305.557 83.6365ZM305.585 82.3625C305.874 82.3625 306.093 82.2458 306.243 82.0125C306.401 81.7791 306.481 81.4945 306.481 81.1585V81.1305C306.481 80.7945 306.392 80.5051 306.215 80.2625C306.047 80.0198 305.827 79.8985 305.557 79.8985C305.267 79.8985 305.043 80.0151 304.885 80.2485C304.735 80.4725 304.661 80.7571 304.661 81.1025V81.1305C304.661 81.4665 304.745 81.7558 304.913 81.9985C305.09 82.2411 305.314 82.3625 305.585 82.3625ZM201.822 100.664C200.207 100.664 198.821 100.142 197.664 99.0965L198.938 97.5705C199.918 98.3638 200.893 98.7605 201.864 98.7605C202.312 98.7605 202.657 98.6811 202.9 98.5225C203.152 98.3545 203.278 98.1258 203.278 97.8365V97.8085C203.278 97.5285 203.147 97.2998 202.886 97.1225C202.625 96.9451 202.097 96.7585 201.304 96.5625C200.753 96.4225 200.301 96.2871 199.946 96.1565C199.591 96.0165 199.26 95.8345 198.952 95.6105C198.644 95.3865 198.415 95.1065 198.266 94.7705C198.126 94.4345 198.056 94.0331 198.056 93.5665V93.5385C198.056 92.6518 198.373 91.9378 199.008 91.3965C199.643 90.8551 200.469 90.5845 201.486 90.5845C202.867 90.5845 204.081 90.9998 205.126 91.8305L204.006 93.4545C203.063 92.8105 202.214 92.4885 201.458 92.4885C201.047 92.4885 200.735 92.5678 200.52 92.7265C200.305 92.8851 200.198 93.0905 200.198 93.3425V93.3705C200.198 93.6878 200.329 93.9258 200.59 94.0845C200.861 94.2338 201.435 94.4251 202.312 94.6585C203.376 94.9478 204.16 95.3071 204.664 95.7365C205.168 96.1658 205.42 96.7865 205.42 97.5985V97.6265C205.42 98.5785 205.089 99.3251 204.426 99.8665C203.773 100.398 202.905 100.664 201.822 100.664ZM209.368 100.524V92.7125H206.386V90.7245H214.506V92.7125H211.524V100.524H209.368ZM214.066 100.524L218.266 90.6545H220.254L224.454 100.524H222.2L221.304 98.3265H217.16L216.264 100.524H214.066ZM217.93 96.4225H220.534L219.232 93.2445L217.93 96.4225ZM226.065 100.524V90.7245H228.221V100.524H226.065ZM230.67 100.524V90.7245H232.658L237.25 96.7585V90.7245H239.378V100.524H237.544L232.798 94.2945V100.524H230.67ZM241.731 100.524V90.7245H243.887V98.5645H248.773V100.524H241.731ZM250.398 100.524V90.7245H257.79V92.6425H252.54V94.6305H257.16V96.5485H252.54V98.6065H257.86V100.524H250.398ZM263.263 100.664C261.649 100.664 260.263 100.142 259.105 99.0965L260.379 97.5705C261.359 98.3638 262.335 98.7605 263.305 98.7605C263.753 98.7605 264.099 98.6811 264.341 98.5225C264.593 98.3545 264.719 98.1258 264.719 97.8365V97.8085C264.719 97.5285 264.589 97.2998 264.327 97.1225C264.066 96.9451 263.539 96.7585 262.745 96.5625C262.195 96.4225 261.742 96.2871 261.387 96.1565C261.033 96.0165 260.701 95.8345 260.393 95.6105C260.085 95.3865 259.857 95.1065 259.707 94.7705C259.567 94.4345 259.497 94.0331 259.497 93.5665V93.5385C259.497 92.6518 259.815 91.9378 260.449 91.3965C261.084 90.8551 261.91 90.5845 262.927 90.5845C264.309 90.5845 265.522 90.9998 266.567 91.8305L265.447 93.4545C264.505 92.8105 263.655 92.4885 262.899 92.4885C262.489 92.4885 262.176 92.5678 261.961 92.7265C261.747 92.8851 261.639 93.0905 261.639 93.3425V93.3705C261.639 93.6878 261.77 93.9258 262.031 94.0845C262.302 94.2338 262.876 94.4251 263.753 94.6585C264.817 94.9478 265.601 95.3071 266.105 95.7365C266.609 96.1658 266.861 96.7865 266.861 97.5985V97.6265C266.861 98.5785 266.53 99.3251 265.867 99.8665C265.214 100.398 264.346 100.664 263.263 100.664ZM272.082 100.664C270.467 100.664 269.081 100.142 267.924 99.0965L269.198 97.5705C270.178 98.3638 271.153 98.7605 272.124 98.7605C272.572 98.7605 272.917 98.6811 273.16 98.5225C273.412 98.3545 273.538 98.1258 273.538 97.8365V97.8085C273.538 97.5285 273.407 97.2998 273.146 97.1225C272.884 96.9451 272.357 96.7585 271.564 96.5625C271.013 96.4225 270.56 96.2871 270.206 96.1565C269.851 96.0165 269.52 95.8345 269.212 95.6105C268.904 95.3865 268.675 95.1065 268.526 94.7705C268.386 94.4345 268.316 94.0331 268.316 93.5665V93.5385C268.316 92.6518 268.633 91.9378 269.268 91.3965C269.902 90.8551 270.728 90.5845 271.746 90.5845C273.127 90.5845 274.34 90.9998 275.386 91.8305L274.266 93.4545C273.323 92.8105 272.474 92.4885 271.718 92.4885C271.307 92.4885 270.994 92.5678 270.78 92.7265C270.565 92.8851 270.458 93.0905 270.458 93.3425V93.3705C270.458 93.6878 270.588 93.9258 270.85 94.0845C271.12 94.2338 271.694 94.4251 272.572 94.6585C273.636 94.9478 274.42 95.3071 274.924 95.7365C275.428 96.1658 275.68 96.7865 275.68 97.5985V97.6265C275.68 98.5785 275.348 99.3251 274.686 99.8665C274.032 100.398 273.164 100.664 272.082 100.664ZM285.234 100.664C283.619 100.664 282.233 100.142 281.076 99.0965L282.35 97.5705C283.33 98.3638 284.305 98.7605 285.276 98.7605C285.724 98.7605 286.069 98.6811 286.312 98.5225C286.564 98.3545 286.69 98.1258 286.69 97.8365V97.8085C286.69 97.5285 286.559 97.2998 286.298 97.1225C286.037 96.9451 285.509 96.7585 284.716 96.5625C284.165 96.4225 283.713 96.2871 283.358 96.1565C283.003 96.0165 282.672 95.8345 282.364 95.6105C282.056 95.3865 281.827 95.1065 281.678 94.7705C281.538 94.4345 281.468 94.0331 281.468 93.5665V93.5385C281.468 92.6518 281.785 91.9378 282.42 91.3965C283.055 90.8551 283.881 90.5845 284.898 90.5845C286.279 90.5845 287.493 90.9998 288.538 91.8305L287.418 93.4545C286.475 92.8105 285.626 92.4885 284.87 92.4885C284.459 92.4885 284.147 92.5678 283.932 92.7265C283.717 92.8851 283.61 93.0905 283.61 93.3425V93.3705C283.61 93.6878 283.741 93.9258 284.002 94.0845C284.273 94.2338 284.847 94.4251 285.724 94.6585C286.788 94.9478 287.572 95.3071 288.076 95.7365C288.58 96.1658 288.832 96.7865 288.832 97.5985V97.6265C288.832 98.5785 288.501 99.3251 287.838 99.8665C287.185 100.398 286.317 100.664 285.234 100.664ZM292.78 100.524V92.7125H289.798V90.7245H297.918V92.7125H294.936V100.524H292.78ZM299.576 100.524V90.7245H306.968V92.6425H301.718V94.6305H306.338V96.5485H301.718V98.6065H307.038V100.524H299.576ZM308.955 100.524V90.7245H316.347V92.6425H311.097V94.6305H315.717V96.5485H311.097V98.6065H316.417V100.524H308.955ZM318.334 100.524V90.7245H320.49V98.5645H325.376V100.524H318.334Z" fill="white"/>
<path d="M205.168 52.7885C203.129 52.7885 201.479 52.0405 200.218 50.5445C198.971 49.0485 198.348 47.1565 198.348 44.8685V44.8245C198.348 42.5511 198.986 40.6591 200.262 39.1485C201.538 37.6231 203.188 36.8605 205.212 36.8605C207.221 36.8605 208.857 37.6158 210.118 39.1265C211.394 40.6225 212.032 42.5071 212.032 44.7805V44.8245C212.032 47.0978 211.394 48.9971 210.118 50.5225C208.842 52.0331 207.192 52.7885 205.168 52.7885ZM202.748 48.3445C203.379 49.2685 204.2 49.7305 205.212 49.7305C206.224 49.7305 207.031 49.2758 207.632 48.3665C208.248 47.4571 208.556 46.2911 208.556 44.8685V44.8245C208.556 43.4165 208.241 42.2505 207.61 41.3265C206.979 40.3878 206.165 39.9185 205.168 39.9185C204.171 39.9185 203.364 40.3731 202.748 41.2825C202.132 42.1918 201.824 43.3578 201.824 44.7805V44.8245C201.824 46.2471 202.132 47.4205 202.748 48.3445ZM214.093 52.5245V49.8405L219.219 45.6385C220.231 44.8171 220.928 44.1498 221.309 43.6365C221.691 43.1231 221.881 42.5585 221.881 41.9425C221.881 41.2971 221.691 40.8058 221.309 40.4685C220.943 40.1165 220.444 39.9405 219.813 39.9405C219.241 39.9405 218.721 40.1018 218.251 40.4245C217.797 40.7325 217.269 41.2605 216.667 42.0085L214.291 40.0945C215.113 38.9945 215.949 38.1878 216.799 37.6745C217.65 37.1611 218.728 36.9045 220.033 36.9045C221.617 36.9045 222.893 37.3371 223.861 38.2025C224.844 39.0678 225.335 40.2191 225.335 41.6565V41.7005C225.335 42.9031 225.042 43.9005 224.455 44.6925C223.869 45.4845 222.813 46.4745 221.287 47.6625L218.779 49.5985H225.489V52.5245H214.093ZM228.086 52.5245V49.0045H231.65V52.5245H228.086Z" fill="#F99D21"/>
<path d="M18.336 224.524V214.724H22.816C24.0573 214.724 25.0093 215.056 25.672 215.718C26.232 216.278 26.512 217.025 26.512 217.958V217.986C26.512 219.489 25.812 220.502 24.412 221.024L26.806 224.524H24.286L22.186 221.388H20.492V224.524H18.336ZM20.492 219.484H22.676C23.1986 219.484 23.6046 219.363 23.894 219.12C24.1833 218.868 24.328 218.528 24.328 218.098V218.07C24.328 217.613 24.1786 217.268 23.88 217.034C23.5906 216.792 23.1753 216.67 22.634 216.67H20.492V219.484ZM35.6912 223.558C34.9352 224.305 33.8852 224.678 32.5412 224.678C31.1972 224.678 30.1518 224.31 29.4052 223.572C28.6678 222.835 28.2992 221.752 28.2992 220.324V214.724H30.4552V220.268C30.4552 221.062 30.6372 221.664 31.0012 222.074C31.3745 222.485 31.8972 222.69 32.5692 222.69C33.2412 222.69 33.7592 222.494 34.1232 222.102C34.4965 221.701 34.6832 221.113 34.6832 220.338V214.724H36.8392V220.254C36.8392 221.71 36.4565 222.812 35.6912 223.558ZM39.0352 224.524V214.724H43.5852C44.7145 214.724 45.5685 215.014 46.1472 215.592C46.5952 216.04 46.8192 216.596 46.8192 217.258V217.286C46.8192 218.248 46.3899 218.952 45.5312 219.4C46.1379 219.634 46.5952 219.937 46.9032 220.31C47.2112 220.684 47.3652 221.183 47.3652 221.808V221.836C47.3652 222.714 47.0385 223.381 46.3852 223.838C45.7319 224.296 44.8359 224.524 43.6972 224.524H39.0352ZM44.6772 217.65V217.622C44.6772 216.95 44.2059 216.614 43.2632 216.614H41.1352V218.686H43.1232C44.1592 218.686 44.6772 218.341 44.6772 217.65ZM45.2232 221.57V221.542C45.2232 220.833 44.6912 220.478 43.6272 220.478H41.1352V222.634H43.6972C44.7145 222.634 45.2232 222.28 45.2232 221.57ZM49.1387 224.524V214.724H53.6887C54.818 214.724 55.672 215.014 56.2507 215.592C56.6987 216.04 56.9227 216.596 56.9227 217.258V217.286C56.9227 218.248 56.4934 218.952 55.6347 219.4C56.2414 219.634 56.6987 219.937 57.0067 220.31C57.3147 220.684 57.4687 221.183 57.4687 221.808V221.836C57.4687 222.714 57.142 223.381 56.4887 223.838C55.8354 224.296 54.9394 224.524 53.8007 224.524H49.1387ZM54.7807 217.65V217.622C54.7807 216.95 54.3094 216.614 53.3667 216.614H51.2387V218.686H53.2267C54.2627 218.686 54.7807 218.341 54.7807 217.65ZM55.3267 221.57V221.542C55.3267 220.833 54.7947 220.478 53.7307 220.478H51.2387V222.634H53.8007C54.818 222.634 55.3267 222.28 55.3267 221.57ZM59.2422 224.524V214.724H66.6342V216.642H61.3842V218.63H66.0042V220.548H61.3842V222.606H66.7042V224.524H59.2422ZM68.6211 224.524V214.724H73.1011C74.3425 214.724 75.2945 215.056 75.9571 215.718C76.5171 216.278 76.7971 217.025 76.7971 217.958V217.986C76.7971 219.489 76.0971 220.502 74.6971 221.024L77.0911 224.524H74.5711L72.4711 221.388H70.7771V224.524H68.6211ZM70.7771 219.484H72.9611C73.4838 219.484 73.8898 219.363 74.1791 219.12C74.4685 218.868 74.6131 218.528 74.6131 218.098V218.07C74.6131 217.613 74.4638 217.268 74.1651 217.034C73.8758 216.792 73.4605 216.67 72.9191 216.67H70.7771V219.484ZM82.9356 224.524V214.724H90.3976V216.684H85.0916V218.77H89.7676V220.73H85.0916V224.524H82.9356ZM100.607 223.222C99.6177 224.202 98.3764 224.692 96.8831 224.692C95.3897 224.692 94.1484 224.207 93.1591 223.236C92.1791 222.256 91.6891 221.062 91.6891 219.652V219.624C91.6891 218.215 92.1837 217.02 93.1731 216.04C94.1717 215.051 95.4177 214.556 96.9111 214.556C98.4044 214.556 99.6411 215.046 100.621 216.026C101.61 216.997 102.105 218.187 102.105 219.596V219.624C102.105 221.034 101.606 222.233 100.607 223.222ZM94.7831 221.808C95.3431 222.406 96.0524 222.704 96.9111 222.704C97.7697 222.704 98.4744 222.41 99.0251 221.822C99.5757 221.234 99.8511 220.511 99.8511 219.652V219.624C99.8511 218.766 99.5711 218.038 99.0111 217.44C98.4511 216.843 97.7417 216.544 96.8831 216.544C96.0244 216.544 95.3197 216.838 94.7691 217.426C94.2184 218.014 93.9431 218.738 93.9431 219.596V219.624C93.9431 220.483 94.2231 221.211 94.7831 221.808ZM112.502 223.222C111.512 224.202 110.271 224.692 108.778 224.692C107.284 224.692 106.043 224.207 105.054 223.236C104.074 222.256 103.584 221.062 103.584 219.652V219.624C103.584 218.215 104.078 217.02 105.068 216.04C106.066 215.051 107.312 214.556 108.806 214.556C110.299 214.556 111.536 215.046 112.516 216.026C113.505 216.997 114 218.187 114 219.596V219.624C114 221.034 113.5 222.233 112.502 223.222ZM106.678 221.808C107.238 222.406 107.947 222.704 108.806 222.704C109.664 222.704 110.369 222.41 110.92 221.822C111.47 221.234 111.746 220.511 111.746 219.652V219.624C111.746 218.766 111.466 218.038 110.906 217.44C110.346 216.843 109.636 216.544 108.778 216.544C107.919 216.544 107.214 216.838 106.664 217.426C106.113 218.014 105.838 218.738 105.838 219.596V219.624C105.838 220.483 106.118 221.211 106.678 221.808ZM117.77 224.524V216.712H114.788V214.724H122.908V216.712H119.926V224.524H117.77ZM131.046 224.524V216.712H128.064V214.724H136.184V216.712H133.202V224.524H131.046ZM137.842 224.524V214.724H139.998V218.602H143.974V214.724H146.13V224.524H143.974V220.59H139.998V224.524H137.842ZM147.639 224.524L151.839 214.654H153.827L158.027 224.524H155.773L154.877 222.326H150.733L149.837 224.524H147.639ZM151.503 220.422H154.107L152.805 217.244L151.503 220.422ZM160.563 224.524V216.712H157.581V214.724H165.701V216.712H162.719V224.524H160.563ZM18.336 241.524V231.724H22.34C23.4973 231.724 24.412 232.037 25.084 232.662C25.756 233.278 26.092 234.095 26.092 235.112V235.14C26.092 236.242 25.7186 237.091 24.972 237.688C24.2253 238.286 23.278 238.584 22.13 238.584H20.492V241.524H18.336ZM20.492 236.666H22.2C22.7226 236.666 23.138 236.526 23.446 236.246C23.754 235.966 23.908 235.612 23.908 235.182V235.154C23.908 234.678 23.754 234.314 23.446 234.062C23.138 233.801 22.7086 233.67 22.158 233.67H20.492V236.666ZM27.6875 241.524V231.724H32.1675C33.4089 231.724 34.3609 232.056 35.0235 232.718C35.5835 233.278 35.8635 234.025 35.8635 234.958V234.986C35.8635 236.489 35.1635 237.502 33.7635 238.024L36.1575 241.524H33.6375L31.5375 238.388H29.8435V241.524H27.6875ZM29.8435 236.484H32.0275C32.5502 236.484 32.9562 236.363 33.2455 236.12C33.5349 235.868 33.6795 235.528 33.6795 235.098V235.07C33.6795 234.613 33.5302 234.268 33.2315 234.034C32.9422 233.792 32.5269 233.67 31.9855 233.67H29.8435V236.484ZM37.8047 241.524V231.724H45.1967V233.642H39.9467V235.63H44.5667V237.548H39.9467V239.606H45.2667V241.524H37.8047ZM50.3056 241.594L46.3436 231.724H48.7236L51.2856 238.626L53.8476 231.724H56.1716L52.2096 241.594H50.3056ZM57.6836 241.524V231.724H65.0756V233.642H59.8256V235.63H64.4456V237.548H59.8256V239.606H65.1456V241.524H57.6836ZM67.0625 241.524V231.724H69.0505L73.6425 237.758V231.724H75.7705V241.524H73.9365L69.1905 235.294V241.524H67.0625ZM80.4051 241.524V233.712H77.4231V231.724H85.5431V233.712H82.5611V241.524H80.4051ZM90.4821 241.664C88.8675 241.664 87.4815 241.142 86.3241 240.096L87.5981 238.57C88.5781 239.364 89.5535 239.76 90.5241 239.76C90.9721 239.76 91.3175 239.681 91.5601 239.522C91.8121 239.354 91.9381 239.126 91.9381 238.836V238.808C91.9381 238.528 91.8075 238.3 91.5461 238.122C91.2848 237.945 90.7575 237.758 89.9641 237.562C89.4135 237.422 88.9608 237.287 88.6061 237.156C88.2515 237.016 87.9201 236.834 87.6121 236.61C87.3041 236.386 87.0755 236.106 86.9261 235.77C86.7861 235.434 86.7161 235.033 86.7161 234.566V234.538C86.7161 233.652 87.0335 232.938 87.6681 232.396C88.3028 231.855 89.1288 231.584 90.1461 231.584C91.5275 231.584 92.7408 232 93.7861 232.83L92.6661 234.454C91.7235 233.81 90.8741 233.488 90.1181 233.488C89.7075 233.488 89.3948 233.568 89.1801 233.726C88.9655 233.885 88.8581 234.09 88.8581 234.342V234.37C88.8581 234.688 88.9888 234.926 89.2501 235.084C89.5208 235.234 90.0948 235.425 90.9721 235.658C92.0361 235.948 92.8201 236.307 93.3241 236.736C93.8281 237.166 94.0801 237.786 94.0801 238.598V238.626C94.0801 239.578 93.7488 240.325 93.0861 240.866C92.4328 241.398 91.5648 241.664 90.4821 241.664ZM103.634 241.664C102.02 241.664 100.634 241.142 99.4765 240.096L100.75 238.57C101.73 239.364 102.706 239.76 103.676 239.76C104.124 239.76 104.47 239.681 104.712 239.522C104.964 239.354 105.09 239.126 105.09 238.836V238.808C105.09 238.528 104.96 238.3 104.698 238.122C104.437 237.945 103.91 237.758 103.116 237.562C102.566 237.422 102.113 237.287 101.758 237.156C101.404 237.016 101.072 236.834 100.764 236.61C100.456 236.386 100.228 236.106 100.078 235.77C99.9385 235.434 99.8685 235.033 99.8685 234.566V234.538C99.8685 233.652 100.186 232.938 100.82 232.396C101.455 231.855 102.281 231.584 103.298 231.584C104.68 231.584 105.893 232 106.938 232.83L105.818 234.454C104.876 233.81 104.026 233.488 103.27 233.488C102.86 233.488 102.547 233.568 102.332 233.726C102.118 233.885 102.01 234.09 102.01 234.342V234.37C102.01 234.688 102.141 234.926 102.402 235.084C102.673 235.234 103.247 235.425 104.124 235.658C105.188 235.948 105.972 236.307 106.476 236.736C106.98 237.166 107.232 237.786 107.232 238.598V238.626C107.232 239.578 106.901 240.325 106.238 240.866C105.585 241.398 104.717 241.664 103.634 241.664ZM109.104 241.524V231.724H111.26V239.564H116.146V241.524H109.104ZM117.87 241.524V231.724H120.026V241.524H117.87ZM122.475 241.524V231.724H126.297C127.818 231.724 129.064 232.191 130.035 233.124C131.015 234.048 131.505 235.206 131.505 236.596V236.624C131.505 238.024 131.015 239.191 130.035 240.124C129.064 241.058 127.818 241.524 126.297 241.524H122.475ZM126.297 233.67H124.631V239.578H126.297C127.174 239.578 127.883 239.308 128.425 238.766C128.975 238.225 129.251 237.52 129.251 236.652V236.624C129.251 235.756 128.975 235.047 128.425 234.496C127.883 233.946 127.174 233.67 126.297 233.67ZM133.524 241.524V231.724H135.68V241.524H133.524ZM138.129 241.524V231.724H140.117L144.709 237.758V231.724H146.837V241.524H145.003L140.257 235.294V241.524H138.129ZM153.907 241.692C152.386 241.692 151.145 241.221 150.183 240.278C149.231 239.326 148.755 238.118 148.755 236.652V236.624C148.755 235.215 149.245 234.02 150.225 233.04C151.205 232.051 152.428 231.556 153.893 231.556C154.733 231.556 155.452 231.668 156.049 231.892C156.647 232.107 157.211 232.443 157.743 232.9L156.385 234.538C155.984 234.202 155.587 233.955 155.195 233.796C154.813 233.628 154.355 233.544 153.823 233.544C153.039 233.544 152.372 233.843 151.821 234.44C151.28 235.038 151.009 235.756 151.009 236.596V236.624C151.009 237.52 151.285 238.262 151.835 238.85C152.395 239.438 153.109 239.732 153.977 239.732C154.78 239.732 155.457 239.536 156.007 239.144V237.744H153.837V235.882H158.093V240.138C156.871 241.174 155.475 241.692 153.907 241.692ZM17.496 258.524L21.696 248.654H23.684L27.884 258.524H25.63L24.734 256.326H20.59L19.694 258.524H17.496ZM21.36 254.422H23.964L22.662 251.244L21.36 254.422ZM29.3965 258.524V248.724H31.3845L35.9765 254.758V248.724H38.1045V258.524H36.2705L31.5245 252.294V258.524H29.3965ZM40.4571 258.524V248.724H44.2791C45.8004 248.724 47.0464 249.191 48.0171 250.124C48.9971 251.048 49.4871 252.206 49.4871 253.596V253.624C49.4871 255.024 48.9971 256.191 48.0171 257.124C47.0464 258.058 45.8004 258.524 44.2791 258.524H40.4571ZM44.2791 250.67H42.6131V256.578H44.2791C45.1564 256.578 45.8657 256.308 46.4071 255.766C46.9577 255.225 47.2331 254.52 47.2331 253.652V253.624C47.2331 252.756 46.9577 252.047 46.4071 251.496C45.8657 250.946 45.1564 250.67 44.2791 250.67ZM59.0915 258.664C57.4768 258.664 56.0908 258.142 54.9335 257.096L56.2075 255.57C57.1875 256.364 58.1628 256.76 59.1335 256.76C59.5815 256.76 59.9268 256.681 60.1695 256.522C60.4215 256.354 60.5475 256.126 60.5475 255.836V255.808C60.5475 255.528 60.4168 255.3 60.1555 255.122C59.8942 254.945 59.3668 254.758 58.5735 254.562C58.0228 254.422 57.5702 254.287 57.2155 254.156C56.8608 254.016 56.5295 253.834 56.2215 253.61C55.9135 253.386 55.6848 253.106 55.5355 252.77C55.3955 252.434 55.3255 252.033 55.3255 251.566V251.538C55.3255 250.652 55.6428 249.938 56.2775 249.396C56.9122 248.855 57.7382 248.584 58.7555 248.584C60.1368 248.584 61.3502 249 62.3955 249.83L61.2755 251.454C60.3328 250.81 59.4835 250.488 58.7275 250.488C58.3168 250.488 58.0042 250.568 57.7895 250.726C57.5748 250.885 57.4675 251.09 57.4675 251.342V251.37C57.4675 251.688 57.5982 251.926 57.8595 252.084C58.1302 252.234 58.7042 252.425 59.5815 252.658C60.6455 252.948 61.4295 253.307 61.9335 253.736C62.4375 254.166 62.6895 254.786 62.6895 255.598V255.626C62.6895 256.578 62.3582 257.325 61.6955 257.866C61.0422 258.398 60.1742 258.664 59.0915 258.664ZM69.1526 258.692C67.7152 258.692 66.5159 258.207 65.5546 257.236C64.6026 256.266 64.1266 255.071 64.1266 253.652V253.624C64.1266 252.206 64.6072 251.006 65.5686 250.026C66.5299 249.046 67.7526 248.556 69.2366 248.556C70.8046 248.556 72.0926 249.06 73.1006 250.068L71.7286 251.65C70.8979 250.913 70.0626 250.544 69.2226 250.544C68.4106 250.544 67.7339 250.843 67.1926 251.44C66.6512 252.028 66.3806 252.747 66.3806 253.596V253.624C66.3806 254.483 66.6466 255.211 67.1786 255.808C67.7199 256.406 68.4012 256.704 69.2226 256.704C69.7452 256.704 70.1979 256.611 70.5806 256.424C70.9726 256.238 71.3786 255.948 71.7986 255.556L73.1706 256.942C72.6292 257.53 72.0459 257.969 71.4206 258.258C70.8046 258.548 70.0486 258.692 69.1526 258.692ZM74.8965 258.524V248.724H79.3765C80.6179 248.724 81.5699 249.056 82.2325 249.718C82.7925 250.278 83.0725 251.025 83.0725 251.958V251.986C83.0725 253.489 82.3725 254.502 80.9725 255.024L83.3665 258.524H80.8465L78.7465 255.388H77.0525V258.524H74.8965ZM77.0525 253.484H79.2365C79.7592 253.484 80.1652 253.363 80.4545 253.12C80.7439 252.868 80.8885 252.528 80.8885 252.098V252.07C80.8885 251.613 80.7392 251.268 80.4405 251.034C80.1512 250.792 79.7359 250.67 79.1945 250.67H77.0525V253.484ZM84.1737 258.524L88.3737 248.654H90.3617L94.5617 258.524H92.3077L91.4117 256.326H87.2677L86.3717 258.524H84.1737ZM88.0377 254.422H90.6417L89.3397 251.244L88.0377 254.422ZM97.0984 258.524V250.712H94.1164V248.724H102.236V250.712H99.2544V258.524H97.0984ZM108.063 258.692C106.625 258.692 105.426 258.207 104.465 257.236C103.513 256.266 103.037 255.071 103.037 253.652V253.624C103.037 252.206 103.517 251.006 104.479 250.026C105.44 249.046 106.663 248.556 108.147 248.556C109.715 248.556 111.003 249.06 112.011 250.068L110.639 251.65C109.808 250.913 108.973 250.544 108.133 250.544C107.321 250.544 106.644 250.843 106.103 251.44C105.561 252.028 105.291 252.747 105.291 253.596V253.624C105.291 254.483 105.557 255.211 106.089 255.808C106.63 256.406 107.311 256.704 108.133 256.704C108.655 256.704 109.108 256.611 109.491 256.424C109.883 256.238 110.289 255.948 110.709 255.556L112.081 256.942C111.539 257.53 110.956 257.969 110.331 258.258C109.715 258.548 108.959 258.692 108.063 258.692ZM113.807 258.524V248.724H115.963V252.602H119.939V248.724H122.095V258.524H119.939V254.59H115.963V258.524H113.807ZM124.541 258.524V248.724H126.697V258.524H124.541ZM129.147 258.524V248.724H131.135L135.727 254.758V248.724H137.855V258.524H136.021L131.275 252.294V258.524H129.147ZM144.925 258.692C143.404 258.692 142.162 258.221 141.201 257.278C140.249 256.326 139.773 255.118 139.773 253.652V253.624C139.773 252.215 140.263 251.02 141.243 250.04C142.223 249.051 143.446 248.556 144.911 248.556C145.751 248.556 146.47 248.668 147.067 248.892C147.664 249.107 148.229 249.443 148.761 249.9L147.403 251.538C147.002 251.202 146.605 250.955 146.213 250.796C145.83 250.628 145.373 250.544 144.841 250.544C144.057 250.544 143.39 250.843 142.839 251.44C142.298 252.038 142.027 252.756 142.027 253.596V253.624C142.027 254.52 142.302 255.262 142.853 255.85C143.413 256.438 144.127 256.732 144.995 256.732C145.798 256.732 146.474 256.536 147.025 256.144V254.744H144.855V252.882H149.111V257.138C147.888 258.174 146.493 258.692 144.925 258.692Z" fill="white"/>
<path d="M25.168 193.788C23.1293 193.788 21.4793 193.04 20.218 191.544C18.9713 190.048 18.348 188.156 18.348 185.868V185.824C18.348 183.551 18.986 181.659 20.262 180.148C21.538 178.623 23.188 177.86 25.212 177.86C27.2213 177.86 28.8566 178.616 30.118 180.126C31.394 181.622 32.032 183.507 32.032 185.78V185.824C32.032 188.098 31.394 189.997 30.118 191.522C28.842 193.033 27.192 193.788 25.168 193.788ZM22.748 189.344C23.3786 190.268 24.2 190.73 25.212 190.73C26.224 190.73 27.0306 190.276 27.632 189.366C28.248 188.457 28.556 187.291 28.556 185.868V185.824C28.556 184.416 28.2406 183.25 27.61 182.326C26.9793 181.388 26.1653 180.918 25.168 180.918C24.1706 180.918 23.364 181.373 22.748 182.282C22.132 183.192 21.824 184.358 21.824 185.78V185.824C21.824 187.247 22.132 188.42 22.748 189.344ZM37.0389 193.524V181.446L34.3549 182.106L33.6509 179.334L38.0729 178.014H40.3829V193.524H37.0389ZM43.7681 193.524V190.004H47.3321V193.524H43.7681Z" fill="#F99D21"/>
</svg>
