<svg width="1021" height="475" viewBox="0 0 1021 475" fill="none" xmlns="http://www.w3.org/2000/svg">
<circle cx="740.855" cy="59.8873" r="43" transform="rotate(-125 740.855 59.8873)" fill="white" fill-opacity="0.3"/>
<circle cx="740.855" cy="59.8873" r="36" transform="rotate(-125 740.855 59.8873)" stroke="white" stroke-width="2"/>
<path d="M764.864 86.8254L841.066 196.03" stroke="white" stroke-width="2"/>
<circle cx="841.64" cy="196.849" r="4" transform="rotate(-125 841.64 196.849)" fill="white"/>
<circle cx="508.855" cy="201.887" r="43" transform="rotate(-125 508.855 201.887)" fill="white" fill-opacity="0.3"/>
<circle cx="508.855" cy="201.887" r="36" transform="rotate(-125 508.855 201.887)" stroke="white" stroke-width="2"/>
<path d="M532.864 228.825L609.066 338.03" stroke="white" stroke-width="2"/>
<circle cx="609.64" cy="338.849" r="4" transform="rotate(-125 609.64 338.849)" fill="white"/>
<circle cx="315.114" cy="260.15" r="43" transform="rotate(55 315.114 260.15)" fill="white" fill-opacity="0.3"/>
<circle cx="315.114" cy="260.15" r="36" transform="rotate(55 315.114 260.15)" stroke="white" stroke-width="2"/>
<path d="M291.105 233.212L214.903 124.008" stroke="white" stroke-width="2"/>
<circle cx="214.33" cy="123.189" r="4" transform="rotate(55 214.33 123.189)" fill="white"/>
<circle cx="135.026" cy="420.354" r="43" transform="rotate(55 135.026 420.354)" fill="white" fill-opacity="0.3"/>
<circle cx="135.026" cy="420.354" r="36" transform="rotate(55 135.026 420.354)" stroke="white" stroke-width="2"/>
<path d="M110.483 393.955L34.8148 284.212" stroke="white" stroke-width="2"/>
<circle cx="34.2412" cy="283.392" r="4" transform="rotate(55 34.2412 283.392)" fill="white"/>
</svg>
