<?xml version="1.0" encoding="utf-8"?>
<!-- Generator: Adobe Illustrator 21.1.0, SVG Export Plug-In . SVG Version: 6.00 Build 0)  -->
<svg version="1.1" id="Layer_1" xmlns="http://www.w3.org/2000/svg" xmlns:xlink="http://www.w3.org/1999/xlink" x="0px" y="0px"
	 viewBox="0 0 24 24" style="enable-background:new 0 0 24 24;" xml:space="preserve">
<style type="text/css">
	.st0{fill:#7F27FF;}
	.st1{fill:#FFFFFF;}
</style>
<g>
	<circle class="st0" cx="12" cy="12" r="12"/>
	<path class="st1" d="M11.532,10.5H6.015v5.417c-0.006,0.554,0.216,1.088,0.615,1.479S7.573,18.005,8.138,18h3.395L11.532,10.5z
		 M11.66,7.666h0.594c0.588-1.012,1.127-1.701,1.633-2.073c0.624-0.46,1.263-0.464,1.764,0.029c0.468,0.459,0.556,1.035,0.248,1.59
		c-0.087,0.155-0.203,0.306-0.347,0.454h2.181c0.509,0,1.018,0.418,1.018,1c0,0.5-0.427,1-1.018,1h-5.351V8.332h-0.849v1.333H6.268
		c-0.509,0-1.018-0.418-1.018-1c0-0.5,0.427-1,1.018-1h2.205C8.336,7.537,8.213,7.393,8.108,7.237
		C7.742,6.679,7.786,6.089,8.263,5.621c0.501-0.492,1.14-0.488,1.765-0.029C10.533,5.965,11.071,6.654,11.66,7.666L11.66,7.666z
		 M10.673,7.666C10.238,6.973,9.85,6.503,9.518,6.259C9.212,6.034,9.044,6.033,8.863,6.21C8.678,6.392,8.666,6.548,8.822,6.785
		c0.177,0.271,0.55,0.576,1.087,0.88H10.673z M13.24,7.666h0.915c0.512-0.294,0.851-0.591,0.998-0.855
		c0.127-0.228,0.101-0.401-0.102-0.6c-0.181-0.178-0.349-0.177-0.655,0.049C14.063,6.503,13.674,6.973,13.24,7.666L13.24,7.666z
		 M12.381,10.499h5.518v5.417c0.005,0.556-0.217,1.09-0.615,1.479c-0.402,0.393-0.945,0.611-1.508,0.604h-3.395V10.499z"/>
</g>
</svg>
