<?xml version="1.0" encoding="utf-8"?>
<!-- Generator: Adobe Illustrator 21.1.0, SVG Export Plug-In . SVG Version: 6.00 Build 0)  -->
<svg version="1.1" id="Warstwa_1" xmlns="http://www.w3.org/2000/svg" xmlns:xlink="http://www.w3.org/1999/xlink" x="0px" y="0px"
	 viewBox="0 0 24 21.4" style="enable-background:new 0 0 24 21.4;" xml:space="preserve">
<style type="text/css">
	.st0{fill:#E8B321;}
</style>
<path class="st0" d="M5.5,7C5.4,7,5.3,7.1,5.2,7.2c0,0,0,0.1-0.1,0.1c0,0,0-0.1,0-0.1c0-0.1,0-0.1,0.1-0.1c0.3-0.3,0.6-0.6,0.9-0.9
	C6.2,6,6.3,6,6.4,6c0.4,0.1,0.8,0.2,1.2,0.3c0,0,0.1,0,0.1,0C7.6,6.4,7.5,6.5,7.4,6.6C7.3,6.7,7.3,6.9,7.3,7.1c0,0.1,0,0.1,0,0.1
	C7,7.4,6.9,7.7,6.7,7.9c0,0.1,0,0.1,0,0.1C6.9,8.2,7,8.4,7.2,8.5c0,0,0.1,0.1,0,0.1c-0.2,0.3-0.1,0.6,0,0.8c0.1,0.2,0.2,0.3,0.4,0.3
	c0.1,0,0.1,0,0.1,0.1c0,0.1,0,0.2,0,0.2c0,0.2,0.2,0.3,0.3,0.4c0.1,0,0.1,0.1,0.1,0.2c0.1,0.4,0.5,0.6,0.9,0.7c0.3,0,0.6,0,0.9-0.2
	c0,0.3,0.1,0.6,0.2,0.9c0,0,0,0.1,0,0.1c0.3,0.6,0.6,1.1,1.1,1.4c0.4,0.3,0.9,0.5,1.4,0.3c0.4-0.1,0.7-0.4,0.9-0.8
	c0.2-0.3,0.4-0.7,0.6-1c0.2-0.3,0.5-0.5,0.8-0.7c0,0,0,0,0.1,0c0,0,0.1,0,0.1,0c0,0,0,0.1,0,0.1c-0.1,0.2-0.1,0.4,0,0.6
	c0.1,0.1,0.2,0.1,0.2,0c0.1-0.1,0.1-0.3,0.3-0.2c0.1,0,0.2-0.1,0.2-0.2c0-0.5,0.1-1,0.4-1.4c0,0,0.1-0.1,0.1-0.1c0,0,0,0,0.1,0
	c0,0,0,0,0,0.1c0,0.1,0,0.2,0,0.4c0,0,0,0.1,0,0.1c0,0.1,0,0.1,0.1,0.1c0.1,0,0.1-0.1,0.1-0.1c0-0.1,0.1-0.1,0.2-0.1c0,0,0,0,0.1,0
	c0.1,0,0.2-0.3,0.2-0.4c-0.1-0.4-0.1-0.8,0.1-1.2c0-0.1,0.1-0.1,0.1-0.2c0,0,0-0.1,0.1,0c0,0,0,0.1,0,0.1c0,0.1,0,0.2,0,0.2
	c0,0,0,0.1,0.1,0.1c0,0,0.1,0,0.1-0.1C17.9,8.9,18,8.9,18,8.9c0,0,0,0,0,0c0-0.1,0.1-0.3,0.1-0.4c-0.1-0.4-0.1-0.7,0-1.1
	c0,0,0,0,0-0.1c0,0,0-0.1,0.1-0.1c0.1,0,0,0.1,0,0.1c0,0.1,0,0.2,0,0.2c0,0,0,0.1,0.1,0.1c0.1,0,0.1,0,0.1-0.1c0,0,0-0.1,0-0.1
	c0,0,0-0.1,0.1-0.1c0.1,0,0.1,0,0.1-0.1c0,0,0,0,0,0c0.1-0.2,0.1-0.4,0-0.6c-0.1-0.4-0.2-0.7,0-1.1c0,0,0,0,0-0.1c0,0,0,0,0,0
	c0,0,0,0,0,0c0,0.1,0,0.2,0.1,0.2c0,0,0,0,0,0c0,0,0,0,0,0c0-0.1,0.1-0.1,0.1-0.1c0,0,0-0.1,0-0.1c0-0.2,0-0.3-0.1-0.5
	c-0.1-0.3-0.1-0.6,0-0.9c0-0.1,0.1-0.2,0.1-0.3C19.2,4,19.2,4,19.2,4.1c0,0.3,0.1,0.5,0.3,0.6C19.7,5,19.9,5.3,20,5.6
	c0,0.1,0.1,0.1,0.2,0.2c0.3,0.1,0.5,0.2,0.7,0.4c0.3,0.2,0.6,0.5,0.8,0.8c0,0,0,0.1,0.1,0.1c0-0.2,0.1-0.3,0-0.5c0-0.1,0-0.2,0-0.3
	c0-0.2,0.1-0.3,0.3-0.2c0.1,0,0.1,0,0.1-0.1c0-0.1,0.1-0.1,0.2-0.2c0.1-0.1,0.1,0,0.1,0.1c0,0.1,0,0.2,0,0.3c0,0,0,0.1,0,0.1
	c0.1,0.1,0.1,0.2,0,0.3c-0.1,0.1-0.1,0.3-0.1,0.4c0,0,0,0,0,0c0,0,0,0,0,0c0.1-0.1,0.1-0.2,0.2-0.4c0-0.1,0-0.1,0.1-0.2
	c0.1-0.1,0.2-0.2,0.3-0.1c0.1,0,0.1,0,0.2,0c0.2-0.1,0.4,0,0.5,0.2c-0.1,0-0.2,0-0.3,0.1c0,0-0.1,0.1,0,0.1c0.1,0.1,0,0.1,0,0.2
	c0,0-0.1,0.1-0.1,0.1c-0.1,0.1-0.2,0.1-0.2,0.3c0.1-0.1,0.3-0.2,0.5-0.2c0.2,0,0.3,0.1,0.3,0.2c0,0.1,0.1,0.1,0.1,0.1
	C24,7.5,24,7.7,24,7.9c-0.1-0.1-0.2-0.1-0.2-0.2c-0.1,0-0.1,0-0.2,0c-0.1,0.1-0.1,0.1-0.2,0.1c-0.2-0.1-0.4-0.1-0.5,0.1
	C22.7,7.9,22.6,8,22.5,8c0.2,0,0.3,0.1,0.5,0.1c0.2,0.1,0.3,0.2,0.3,0.4c0,0.1,0.1,0.1,0.1,0.2c0.1,0.2,0.1,0.3-0.1,0.5
	c0,0,0-0.1,0-0.1c0-0.1-0.1-0.1-0.2-0.1c-0.1,0-0.2,0-0.3-0.1c-0.1-0.3-0.4-0.5-0.7-0.6c-0.1,0-0.2-0.1-0.3-0.2c0,0.1,0,0.2,0,0.3
	c0,0.1-0.1,0.2-0.2,0.2c-0.1,0.1-0.1,0.1-0.1,0.2c0,0.1,0.1,0.1,0.1,0.2c-0.2,0-0.4-0.2-0.5-0.4c0,0,0-0.1-0.1-0.1
	c-0.1-0.1-0.1-0.3,0-0.4c0.1-0.1,0.1-0.2,0.2-0.3c0.1-0.1,0.1-0.1,0-0.1c-0.2-0.1-0.4-0.1-0.7-0.2c0,0.1,0,0.2,0,0.2
	c0.1,0.6,0.1,1.3,0,1.9c-0.1,0.8-0.3,1.7-0.7,2.4c-0.4,0.9-1,1.7-1.6,2.3c-0.9,0.9-1.9,1.5-3.1,1.9c-0.5,0.2-1.1,0.3-1.7,0.3
	c-0.2,0-0.3,0.2-0.3,0.3c-0.1,0.3-0.3,0.6-0.5,0.8c-0.1,0.1-0.2,0.2-0.4,0.2c0-0.1,0-0.1,0.1-0.2c0-0.1,0-0.2-0.1-0.3
	c-0.1-0.1-0.2-0.1-0.3,0c-0.1,0.1-0.2,0.1-0.2,0.2c0,0.3-0.2,0.5-0.5,0.6l0,0c0,0,0-0.1,0-0.1c0-0.1,0-0.1,0-0.2
	C11.3,18,11.2,18,11.1,18c-0.2,0.1-0.4,0.2-0.5,0.3c0,0-0.1,0-0.1,0.1c0.1,0,0.2,0.1,0.2,0.1c0.2,0.1,0.5,0.3,0.6,0.5
	c0.1,0.1,0.1,0.2,0.1,0.3c-0.1,0.1,0,0.3,0,0.4c0,0.3-0.1,0.6-0.3,0.7c0-0.1,0-0.2,0-0.2c0-0.1-0.1-0.3-0.1-0.4c0,0,0-0.1-0.1-0.1
	c-0.2,0-0.3,0-0.4-0.1c-0.1-0.1-0.2-0.3-0.3-0.5c0,0.2-0.2,0.3-0.3,0.4c-0.5,0.2-0.7,0.5-0.9,1c0,0.1-0.1,0.2-0.1,0.3
	C8.7,21,8.6,21.1,8.3,21c-0.1,0-0.1,0-0.1,0c0,0.1,0,0.2,0,0.3C8.1,21.3,8,21.1,8,20.9c0-0.1,0-0.2,0-0.2C7.9,20.4,8,20.2,8.1,20
	c0.1-0.1,0.2-0.2,0.3-0.3c0.1-0.1,0.2-0.3,0.3-0.4c0,0,0,0,0-0.1c0,0,0,0,0,0c-0.3,0.1-0.6,0-0.8,0c0,0-0.1,0-0.1,0
	c-0.2,0-0.4,0.1-0.5,0.2c0,0-0.1,0.1-0.1,0.1c-0.1,0.1-0.3,0.1-0.4,0c-0.1-0.1-0.1,0-0.1,0c0,0.1-0.1,0.2-0.1,0.3c0,0.1,0,0.1,0,0.2
	c-0.1-0.2-0.2-0.4-0.2-0.6c0,0,0-0.1,0-0.1c-0.1-0.1-0.1-0.2,0-0.2c0.1-0.2,0.2-0.3,0.4-0.4c0.3-0.1,0.6-0.3,0.9-0.3
	c0.2,0,0.3,0,0.5,0.1c0,0,0.1,0,0.1,0c0,0,0-0.1,0-0.1c-0.1-0.1-0.2-0.2-0.3-0.3C7.6,18.1,7.5,18,7.3,18c-0.1,0-0.1-0.1-0.2-0.1
	c-0.1,0-0.2-0.1-0.1-0.2c0-0.1,0-0.1-0.1-0.1c-0.2,0-0.3,0-0.5,0.1v0c0.1-0.3,0.4-0.5,0.7-0.4c0.1,0,0.1,0,0.2-0.1
	c0.1-0.1,0.2-0.1,0.4-0.1c0.3,0.1,0.6,0.3,0.8,0.6c0.1,0.1,0.2,0.3,0.4,0.3c0,0,0,0,0.1,0c0,0,0,0,0-0.1c0-0.2,0-0.4-0.1-0.6
	c0-0.1-0.1-0.2-0.2-0.3c0,0,0,0-0.1,0c-0.2-0.1-0.3-0.2-0.2-0.4c0-0.1,0-0.1-0.1-0.1c-0.2-0.1-0.3-0.1-0.5-0.1
	c0.1-0.2,0.3-0.2,0.5-0.2c0,0,0.1,0,0.1,0c0.1,0.1,0.2,0.2,0.4,0.1c0.1,0,0.2,0,0.3,0.1c0.1,0.1,0.2,0.3,0.2,0.5
	c0.1,0.2,0.3,0.4,0.3,0.7c0.1-0.2,0.1-0.3,0.2-0.5c0.1-0.3,0.2-0.6,0.3-0.9c0-0.1,0-0.1-0.1-0.1c-0.8-0.3-1.6-0.7-2.4-1.2
	C7.5,15,7.4,15,7.3,15c-0.1,0-0.2,0.1-0.1,0.2c0,0.1,0.1,0.1,0.1,0.1c0,0,0.1,0,0.1,0.1c0,0.1-0.1,0.1-0.1,0c-0.3,0-0.5-0.1-0.6-0.4
	c-0.2-0.3-0.3-0.7-0.3-1c0-0.1,0-0.2-0.1-0.2c-0.2-0.2-0.4-0.4-0.5-0.6c0,0,0-0.1-0.1-0.1c0,0,0,0,0,0.1c0,0.1,0,0.3,0,0.4
	c0,0,0,0,0,0c0,0.1,0.1,0.2,0,0.2c-0.1,0.1-0.1,0-0.2-0.1c-0.2-0.2-0.3-0.5-0.3-0.7C5.1,12.8,5,12.5,5,12.2c0,0,0-0.1,0-0.1
	c-0.1-0.3-0.2-0.6-0.3-1c-0.1,0.1-0.1,0.2-0.1,0.4c0,0.1,0,0.1,0,0.2c0,0,0,0.1,0,0.1c0,0-0.1,0-0.1,0c-0.1-0.1-0.1-0.1-0.1-0.2
	c-0.1-0.3-0.1-0.6-0.1-0.9c0-0.5,0.2-1,0.4-1.6c0,0,0-0.1,0-0.1c0,0,0,0,0,0C4.6,9,4.6,9.1,4.6,9.2c0,0,0,0.1-0.1,0.1
	c-0.1,0-0.1-0.1-0.1-0.1c0-0.1,0-0.2,0-0.3C4.7,8.3,5,7.7,5.4,7.2C5.4,7.1,5.5,7.1,5.5,7C5.5,7,5.5,7,5.5,7C5.5,7,5.5,7,5.5,7z
	 M15.5,5.1c-0.2-0.2-0.4-0.3-0.6-0.5C14,4.2,13.1,4,12.2,4.1c-0.4,0.1-0.9,0.2-1.3,0.4c0,0-0.1,0-0.1,0c-0.6-0.4-1.2-0.6-1.9-0.7
	c-0.5-0.1-1-0.1-1.5-0.2C7,3.5,6.6,3.3,6.1,3.1C5.9,3,5.9,3,6.1,2.8c0.2-0.2,0.3-0.3,0.5-0.5c0.1-0.1,0.1-0.2,0-0.2
	C6.6,2,6.5,2,6.4,2c0,0,0,0.1-0.1,0c0,0,0-0.1,0-0.1c0-0.2,0.2-0.3,0.3-0.4c0.3-0.2,0.6-0.2,0.9-0.1c0.1,0,0.1,0,0.2,0
	c0.2-0.1,0.4-0.2,0.6-0.3c0,0,0.1,0,0.1-0.1s0-0.1-0.1-0.1C8.2,1,8.1,0.9,8,1c0,0,0,0-0.1,0c0,0,0,0,0-0.1c0-0.1,0.1-0.2,0.2-0.2
	C8.5,0.5,9,0.6,9.3,0.8c0,0,0.1,0,0.1,0c0.2-0.1,0.5-0.1,0.7-0.2c0.1,0,0.1-0.1,0-0.1C10,0.4,9.9,0.4,9.8,0.4c0,0-0.1,0-0.1,0
	c0,0,0-0.1,0-0.1c0.1-0.1,0.3-0.2,0.4-0.2c0.3,0,0.6,0.1,0.8,0.3c0.1,0.1,0.2,0.1,0.3,0.1c0.1,0,0.2,0,0.3,0c0,0,0.1,0,0.1,0
	c0,0,0-0.1,0-0.1c0-0.1-0.2-0.2-0.3-0.2c0,0,0,0,0-0.1C11.7,0,11.8,0,12,0c0.3,0,0.6,0.2,0.8,0.5c0,0,0,0.1,0.1,0.1
	c0.1,0,0.2,0,0.3,0c0.1,0,0.2,0,0.2,0.1c0,0,0.1,0.1,0.1,0c0,0,0-0.1,0-0.1c0-0.2-0.1-0.2-0.3-0.3c0,0,0,0,0,0c0,0,0,0,0-0.1
	c0.1-0.1,0.1-0.1,0.2-0.1c0.4,0,0.9,0.2,1,0.8c0,0.1,0,0.1,0.1,0.1c0.1,0,0.2,0,0.3,0.1c0,0,0,0,0.1,0.1c0,0,0.1,0,0.1,0
	c0,0,0.1-0.1,0.1-0.1c0-0.1-0.1-0.3-0.2-0.3c0,0-0.1,0-0.1,0c0.1-0.1,0.2-0.1,0.3-0.1c0.5,0,0.7,0.3,0.9,0.7c0,0,0,0,0,0
	c0,0.1,0.1,0.2,0.2,0.3c0.1,0,0.2,0.1,0.2,0.2c0,0,0.1,0.1,0.1,0.1c0.1,0,0.1-0.1,0.1-0.2c0-0.2-0.1-0.3-0.3-0.4c0,0-0.1,0-0.1-0.1
	c0,0,0.1,0,0.1,0c0.3,0,0.4,0.2,0.6,0.4c0.1,0.1,0.2,0.3,0.3,0.5c0,0.1,0,0.1,0.1,0.1c0.1,0,0.1,0.1,0.1,0.1c0,0,0.1,0.1,0.2,0.1
	c0.1,0,0-0.1,0-0.2c0-0.1-0.1-0.2-0.1-0.3c0,0-0.1-0.1,0-0.1c0,0,0.1,0,0.1,0c0.2,0.1,0.4,0.2,0.5,0.4c0.1,0.2,0.2,0.4,0.3,0.5
	c0.2,0.3,0.2,0.7,0.1,1.1c-0.1,0.3-0.2,0.6-0.1,1c0,0.1,0,0.2-0.1,0.3c-0.1,0.1-0.1,0.2-0.2,0.3c-0.1,0.3-0.1,0.7-0.1,1.1
	c0,0.1,0,0.1-0.1,0.2c-0.3,0.2-0.4,0.5-0.4,0.8c0,0.2,0,0.3,0,0.5c0,0,0,0.1-0.1,0.1c-0.3,0.1-0.4,0.3-0.6,0.5
	c-0.1,0.1-0.1,0.3-0.2,0.5c0,0,0,0,0,0c0,0.1-0.1,0.1-0.1,0.1c-0.1,0,0-0.1,0-0.1c0.1-0.3,0.1-0.7,0.1-1c0-0.5-0.1-0.9-0.3-1.4
	c0,0,0-0.1,0-0.1c0.2-0.2,0.3-0.5,0.3-0.8c0-0.4,0.1-0.8,0-1.2c-0.1-0.3-0.3-0.5-0.5-0.5c-0.3,0-0.6,0.1-0.7,0.4
	c-0.1,0.2-0.1,0.3-0.1,0.5C15.5,5,15.5,5.1,15.5,5.1z M9.6,8c0-0.2-0.1-0.3-0.2-0.5C9.2,7.3,8.9,7.2,8.7,7.1C8.4,7.1,8.2,7,8,7
	c0,0,0,0-0.1,0c0,0,0-0.1,0-0.1c0.1-0.1,0.2-0.1,0.3-0.2c0.2,0,0.3-0.1,0.5-0.1c0.1,0,0.2-0.1,0.3-0.1c0.1-0.1,0.1-0.1,0-0.2
	C8.8,6.2,8.6,6.1,8.3,5.9C7.7,5.7,7.1,5.6,6.6,5.5C5.9,5.3,5.3,5.1,4.7,4.7c-0.4-0.3-0.7-0.6-1-1C3.7,3.6,3.7,3.5,3.7,3.3
	c0,0,0-0.1,0-0.1c0,0,0.1,0,0.1,0c0.2,0.1,0.3,0.2,0.4,0.4c0.6,0.6,1.3,0.9,2.2,1c0.6,0.1,1.1,0.1,1.7,0.2C8.7,5,9.2,5.1,9.7,5.4
	c0,0,0,0,0,0c0.1-0.1,0.3,0,0.5-0.2c0.1-0.1,0-0.1,0-0.1C10,5.1,9.9,5,9.7,4.9c-0.5-0.2-1-0.3-1.5-0.4c-0.5-0.1-1-0.1-1.4-0.2
	C6.3,4.2,5.9,4.1,5.6,3.9C5.3,3.7,5,3.5,4.8,3.2C4.7,3,4.6,2.9,4.6,2.7c0-0.1,0-0.1,0.1-0.2c0.1,0,0.1,0,0.1,0.1
	C5,2.8,5.1,3,5.3,3.2c0.6,0.5,1.3,0.8,2.1,1c0.5,0.1,1,0.1,1.4,0.2c0.5,0.1,1,0.3,1.5,0.5c0.2,0.1,0.3,0.2,0.4,0.3
	c0.1,0,0.1,0.1,0.2,0c0.1,0,0.3-0.1,0.4,0c0.1,0,0.2,0.1,0.3,0.2c0.1,0.3,0.1,0.6,0,0.9c0,0.1,0,0.2,0,0.2c0.1,0.2,0.1,0.2,0.3,0.2
	c0.3-0.1,0.6,0,0.9,0.2c0,0,0.1,0,0.1,0c0.2-0.1,0.5-0.2,0.7-0.3c0,0,0,0,0.1-0.1c0.1-0.2,0.2-0.3,0.3-0.4c0.1-0.1,0.3-0.2,0.5-0.2
	C14.7,5.9,15,6,15.3,6c0.1,0,0.2,0,0.3,0c0.3-0.1,0.5-0.3,0.5-0.6c0-0.1,0-0.3,0-0.4c0-0.1,0-0.2,0-0.3c0,0,0-0.1,0.1-0.1
	c0.1,0,0.1,0.1,0.1,0.1c0,0.1,0,0.2,0,0.3c0,0.3,0,0.6-0.1,0.9c0,0.1-0.1,0.2-0.2,0.2c-0.2,0.1-0.4,0.1-0.6,0.1c-0.2,0-0.4,0-0.7,0
	c-0.2,0-0.4,0.2-0.5,0.4c0,0.1,0,0.1,0,0.2c0,0,0,0,0,0C14.4,7,14.4,7.1,14.6,7c0.1,0,0.2,0.1,0.2,0.2c0.1,0.2,0.2,0.4,0.4,0.4
	c0,0,0.1,0,0.1,0c0.1,0,0.1,0,0.1,0c0,0.1-0.1,0.1-0.1,0.1c-0.2,0.1-0.3,0.1-0.5-0.1c0.1,0.2-0.1,0.3,0,0.5c0,0.1,0,0.1-0.1,0.1
	c-0.1-0.1-0.2-0.1-0.2-0.2c-0.1-0.1-0.1-0.1-0.2,0c-0.1,0.1-0.1,0.2-0.2,0.3c-0.1,0.1-0.1,0.1-0.2,0c-0.1-0.1-0.1-0.1-0.2-0.2
	c0-0.1-0.1-0.1-0.1,0c0,0.1-0.2,0.2-0.2,0.3c0,0.1-0.1,0-0.1,0c0,0,0-0.1,0-0.1c0,0,0-0.1-0.1-0.1c-0.1,0,0,0-0.1,0.1
	c-0.1,0.2-0.2,0.4-0.5,0.5c0,0,0,0,0,0c0,0,0,0,0,0c0,0,0-0.1,0-0.1c0-0.1,0.1-0.1,0.1-0.2c0-0.1,0-0.1-0.1-0.2
	c-0.1,0-0.1,0.1-0.1,0.1c-0.2,0.3-0.2,0.7-0.2,1c0.1,0.4,0.3,0.8,0.4,1.2c0.2,0.4,0.3,0.8,0.4,1.2c0.1,0.3,0.1,0.7,0,1
	c-0.1,0.4-0.7,0.7-1.2,0.5c-0.4-0.2-0.6-0.5-0.9-0.8c-0.2-0.2-0.3-0.4-0.4-0.7c0-0.1,0-0.1-0.1-0.1c0-0.1,0-0.1,0-0.2
	c0.1,0,0.1,0,0.1,0.1c0.1,0.1,0.2,0.3,0.3,0.4c0.2,0.3,0.4,0.5,0.7,0.7c0.2,0.1,0.4,0.2,0.7,0.1c0.3-0.1,0.4-0.4,0.3-0.8
	c-0.1-0.4-0.3-0.8-0.5-1.1c-0.3-0.4-0.5-0.9-0.6-1.4c-0.1-0.2-0.1-0.4-0.1-0.6c0-0.1,0-0.1-0.1-0.1c-0.3,0.1-0.5,0-0.8-0.1
	c0,0-0.1,0-0.1,0c0,0-0.1,0.1-0.1,0.1c0,0,0,0,0,0c0.1-0.3-0.1-0.4-0.3-0.5c-0.1,0-0.1,0-0.2,0c-0.1,0.1-0.1,0.3,0,0.5
	c0.2,0.3,0.4,0.4,0.7,0.6c0,0,0.1,0,0.1,0c0,0,0.1-0.1,0.1-0.1c0-0.1,0.1-0.1,0.2-0.1c0.1,0,0.1,0,0.1,0.1c0.1,0.3,0.1,0.6,0.2,0.9
	c0,0,0,0.1,0,0.1c-0.2,0.3-0.4,0.5-0.8,0.5c-0.1,0-0.1,0-0.2,0c0-0.1,0.1-0.1,0.1-0.1c0.2-0.1,0.3-0.3,0.3-0.5c0-0.1,0-0.1-0.1-0.1
	c-0.1,0-0.1,0-0.2,0c-0.1,0-0.2,0-0.3,0.1c-0.1,0.1-0.3,0.2-0.4,0.3c-0.4,0.2-0.9,0.1-1.1-0.3c0-0.1-0.1-0.1-0.1-0.2
	c0-0.1-0.1-0.1-0.1,0c0,0,0,0.1-0.1,0c0,0,0,0,0-0.1c0-0.2,0-0.3,0.1-0.4c0-0.1,0-0.1,0-0.1C8.4,9.2,8.3,9.2,8.2,9.1
	C8.1,9,8,9,7.9,9.1c0,0-0.1,0.1-0.1,0c0,0,0-0.1,0-0.1c0-0.2,0.2-0.4,0.4-0.5c0,0,0.1,0,0.1-0.1C8,8.5,7.8,8.2,7.5,8
	C7.5,8,7.5,7.9,7.5,7.9C8,7.4,8.7,7.3,9.3,7.7C9.4,7.8,9.5,7.9,9.6,8C9.6,8,9.6,8,9.6,8C9.6,8,9.6,8,9.6,8C9.6,8,9.6,8,9.6,8z
	 M9.9,7c0.1,0.2,0.2,0.3,0.4,0.4c0.1,0.1,0.2,0.1,0.4,0c0.2-0.1,0.3-0.2,0.5-0.3c0,0,0,0,0-0.1c-0.1-0.2-0.3-0.4-0.5-0.2
	C10.5,7,10.2,7,9.9,7z M13.7,7.3c-0.1,0-0.3,0-0.4,0c0,0-0.1,0-0.1,0.1c0,0,0,0.1,0.1,0.1c0.1,0,0.1,0,0.2,0.1
	c0.1,0,0.2,0.1,0.3,0.2c0,0,0.1,0,0.1,0c0.2,0,0.4,0,0.5-0.1c0.1,0,0.1-0.1,0-0.1c0-0.1-0.1-0.2-0.2-0.2C14,7.3,13.9,7.3,13.7,7.3z
	 M0.5,10.5c0.5,0.4,1.2,0.4,1.3,0c-0.4,0.1-0.9,0.1-1.2-0.2c-0.2-0.2-0.4-0.4-0.5-0.7c-0.2-0.6,0-1.3,0.5-1.6C0.5,8.5,0.5,9,0.9,9.4
	c0.2,0.2,0.5,0.4,0.9,0.4c0.7,0.1,1.3-0.5,1.5-0.9C3.1,9,3,9.1,2.9,9.2C2.2,9.7,1.4,9.4,1.1,8.9C0.8,8.6,0.9,8,1.3,7.8
	c0,0.1,0.1,0.2,0.1,0.3c0.3,0.3,0.6,0.4,1,0.3C2.9,8.3,3.3,8,3.5,7.5c0.2-0.4,0.3-0.8,0.5-1.3c0.1-0.3,0.3-0.6,0.5-0.9
	c0,0,0.1-0.1,0.1,0c0.2,0.2,0.5,0.3,0.8,0.4c0.1,0,0.1,0,0,0.1C4.9,6.3,4.5,6.8,4.2,7.5C3.8,8.2,3.6,9,3.3,9.9
	c-0.1,0.4-0.3,0.7-0.5,1c-0.3,0.4-0.8,0.5-1.3,0.5c-0.2,0-0.5,0-0.7-0.2C0.6,11,0.5,10.8,0.5,10.5z M12.8,9.3
	C12.9,9.3,12.9,9.3,12.8,9.3c0.2,0.3,0.5,0.2,0.7,0.2c0.1,0,0.1,0,0.1-0.1c0-0.1,0-0.3-0.1-0.4c0,0,0,0,0-0.1c0.1,0,0.2,0.1,0.3,0.2
	c0.1,0.1,0.1,0.2,0.2,0.2c0.1,0,0.1-0.1,0.2-0.1c0,0,0.1,0,0.1-0.1c0-0.1,0-0.2,0-0.3c0,0,0,0,0-0.1c0.2,0.1,0.3,0.2,0.4,0.3
	c0.1,0.1,0.1,0.1,0.2,0.2c0.2,0.1,0.4,0.4,0.3,0.6c-0.2-0.1-0.2-0.1-0.4-0.1c0.1,0.1,0.1,0.2,0.1,0.4c0,0.1-0.1,0.1-0.2,0
	c-0.1-0.1-0.2-0.1-0.4-0.1c-0.1,0-0.1,0-0.1,0.1c0.1,0.2,0,0.4-0.1,0.5c0,0,0,0.1-0.1,0.1c0,0,0,0-0.1-0.1c0,0,0,0,0,0
	c-0.1-0.3-0.3-0.4-0.6-0.2c-0.1,0.1-0.1,0.1-0.2-0.1C13,10,12.9,9.6,12.8,9.3z M1.6,7.4c0.1,0.1,0.1,0.1,0.2,0.2C2,7.6,2,7.6,2,7.5
	c0-0.1,0-0.2,0.2-0.3c0.2-0.1,0.3,0,0.4,0.1c0.1,0.1,0.2,0.3,0.2,0.4c0,0,0,0.1,0,0.1c0,0.1,0,0.2,0,0.2c0,0.1-0.1,0-0.2,0
	c-0.1,0-0.2,0-0.3,0C2.2,8,2.1,8,2,7.9C1.7,7.9,1.5,7.7,1.6,7.4z M6.4,17.7C6.4,17.7,6.4,17.7,6.4,17.7C6.4,17.7,6.4,17.7,6.4,17.7
	C6.4,17.7,6.4,17.7,6.4,17.7C6.4,17.7,6.4,17.7,6.4,17.7z M11.3,18.4C11.3,18.4,11.3,18.4,11.3,18.4C11.3,18.4,11.3,18.4,11.3,18.4
	C11.3,18.4,11.3,18.4,11.3,18.4C11.3,18.4,11.3,18.4,11.3,18.4z M9.6,8C9.6,8,9.6,8,9.6,8C9.6,8,9.6,8,9.6,8C9.6,8,9.6,8,9.6,8
	C9.6,8,9.6,8,9.6,8z"/>
</svg>
