<?xml version="1.0" encoding="utf-8"?>
<!-- Generator: Adobe Illustrator 21.1.0, SVG Export Plug-In . SVG Version: 6.00 Build 0)  -->
<svg version="1.1" id="Layer_1" xmlns="http://www.w3.org/2000/svg" xmlns:xlink="http://www.w3.org/1999/xlink" x="0px" y="0px"
	 viewBox="0 0 24 24" style="enable-background:new 0 0 24 24;" xml:space="preserve">
<style type="text/css">
	.st0{fill:url(#SVGID_1_);}
	.st1{fill:url(#SVGID_2_);}
	.st2{fill:#FFFFFF;}
	.st3{fill:#FC9965;}
	.st4{fill:#FF2D55;}
	.st5{fill:url(#SVGID_3_);}
	.st6{fill:#FFBC5B;}
	.st7{fill:#FFC95B;}
</style>
<g>
	
		<linearGradient id="SVGID_1_" gradientUnits="userSpaceOnUse" x1="-286.2313" y1="312.2737" x2="-286.2737" y2="312.2313" gradientTransform="matrix(400 0 0 -400 114513 124913)">
		<stop  offset="0" style="stop-color:#FF2D55"/>
		<stop  offset="1" style="stop-color:#FFBC5B"/>
	</linearGradient>
	<circle class="st0" cx="12" cy="12" r="12"/>
	
		<linearGradient id="SVGID_2_" gradientUnits="userSpaceOnUse" x1="-285.7396" y1="311.9013" x2="-285.7396" y2="311.8413" gradientTransform="matrix(125 0 0 -150 35729.6992 46793)">
		<stop  offset="0" style="stop-color:#A524B3"/>
		<stop  offset="1" style="stop-color:#FF2D55"/>
	</linearGradient>
	<path class="st1" d="M8.5,7.8v9H16L8.5,7.8z"/>
	<path class="st2" d="M1,16.8h7.5v-9L1,16.8z"/>
	<path class="st3" d="M2.4,19.2c0.7,0.9,1.5,1.7,2.4,2.4h14.4c0.9-0.7,1.7-1.5,2.4-2.4H2.4z"/>
	<path class="st4" d="M4.8,21.6c2,1.5,4.5,2.4,7.2,2.4s5.2-0.9,7.2-2.4H4.8z"/>
	
		<linearGradient id="SVGID_3_" gradientUnits="userSpaceOnUse" x1="-286.5905" y1="312.1855" x2="-286.5905" y2="312.1255" gradientTransform="matrix(91.7 0 0 -110 26299.1992 34353)">
		<stop  offset="0" style="stop-color:#A524B3"/>
		<stop  offset="1" style="stop-color:#FF2D55"/>
	</linearGradient>
	<path class="st5" d="M16.1,12.6v6.6h5.5L16.1,12.6z"/>
	<path class="st6" d="M16.1,16.8H1c0.4,0.9,0.8,1.7,1.4,2.4h13.7L16.1,16.8L16.1,16.8z"/>
	<path class="st2" d="M10.6,19.2h5.5v-6.6L10.6,19.2z"/>
	<circle class="st7" cx="16.1" cy="7.8" r="3"/>
	<circle class="st7" cx="8.5" cy="4.5" r="1.5"/>
</g>
</svg>
