<?xml version="1.0" encoding="utf-8"?>
<!-- Generator: Adobe Illustrator 21.1.0, SVG Export Plug-In . SVG Version: 6.00 Build 0)  -->
<svg version="1.1" id="Layer_1" xmlns="http://www.w3.org/2000/svg" xmlns:xlink="http://www.w3.org/1999/xlink" x="0px" y="0px"
	 viewBox="0 0 19.608 24" style="enable-background:new 0 0 19.608 24;" xml:space="preserve">
<style type="text/css">
	.st0{fill:#5E4778;}
	.st1{fill:#3D3144;}
</style>
<g>
	<g>
		<path class="st0" d="M9.794,0L0,2.047v13.575c0,1.988,2.036,3.866,4.241,5.327c1.728,1.133,3.536,2.127,5.404,2.991L9.804,24
			l0.159-0.06c0.397-0.149,9.645-4.084,9.645-8.318V2.047L9.794,0z M18.813,15.622c0,2.961-6.367,6.092-9.019,7.135l-0.129-0.05
			l-0.05-0.02l-0.089-0.04l-0.05-0.02l-0.089-0.04l-0.03-0.01l-0.109-0.05l-0.03-0.01l-0.119-0.05l-0.02-0.01L8.95,22.41H8.94
			l-0.149-0.06h-0.01c-1.321-0.586-3.039-1.451-4.549-2.465l-0.179-0.119l-0.179-0.129l-0.169-0.119l-0.01-0.01l-0.159-0.119
			l-0.01-0.01L3.367,19.26l-0.01-0.01L3.198,19.13l-0.02-0.01l-0.149-0.109l-0.02-0.01L2.87,18.892l-0.02-0.02l-0.129-0.109
			l-0.02-0.02l-0.119-0.109l-0.03-0.02l-0.109-0.109l-0.03-0.03l-0.109-0.109l-0.03-0.03l-0.109-0.099l-0.03-0.03l-0.099-0.099
			l-0.03-0.04l-0.089-0.099l-0.03-0.04l-0.089-0.099l-0.03-0.04L1.688,17.69l-0.04-0.04l-0.069-0.089l-0.04-0.05L1.47,17.421
			l-0.04-0.05l-0.06-0.089l-0.03-0.05l-0.06-0.089l-0.03-0.06c-0.02-0.03-0.03-0.06-0.05-0.08l-0.04-0.06
			c-0.017-0.024-0.031-0.051-0.04-0.08l-0.03-0.06c-0.01-0.03-0.03-0.05-0.04-0.08c-0.008-0.021-0.018-0.041-0.03-0.06
			c-0.012-0.026-0.021-0.052-0.03-0.08c-0.01-0.03-0.02-0.04-0.03-0.07c-0.008-0.024-0.018-0.047-0.03-0.07
			c-0.011-0.022-0.018-0.045-0.02-0.07c0-0.02-0.02-0.05-0.02-0.07c-0.002-0.024-0.009-0.048-0.02-0.07
			c-0.01-0.02-0.01-0.04-0.02-0.07c-0.01-0.03-0.01-0.05-0.02-0.08c-0.007-0.019-0.011-0.04-0.01-0.06c0-0.02-0.01-0.05-0.01-0.08
			s-0.01-0.04-0.01-0.06c-0.003-0.031-0.01-0.061-0.02-0.089c-0.01-0.03,0-0.03,0-0.05V2.773l8.97-1.441h0.079l8.97,1.441
			L18.813,15.622L18.813,15.622z"/>
		<path class="st0" d="M9.794,2.325L3,3.419L1.599,3.637v11.637c0,2.693,5.791,5.545,8.195,6.489c1.4-0.547,3.943-1.739,5.821-3.17
			c0.139-0.109,0.288-0.219,0.417-0.328c0.646-0.527,1.182-1.083,1.53-1.65c0.268-0.437,0.427-0.885,0.427-1.332V3.637L9.794,2.325z
			 M5.841,8.497h4.778v0.994H5.841V8.497z M15.158,8.964c0,2.355-1.639,3.876-3.904,3.876H8.115v4.969H6.874v-6.092h4.212
			c1.689,0,2.791-1.024,2.791-2.753c0-1.709-1.103-2.703-2.771-2.703H9.794l-3.139,0.01V5.138h4.589
			C13.519,5.138,15.157,6.609,15.158,8.964"/>
		<path class="st0" d="M9.794,0v1.332h0.04l8.97,1.441v12.839c0,2.961-6.367,6.092-9.019,7.135v1.242l0.159-0.06
			c0.397-0.149,9.645-4.084,9.645-8.318V2.047L9.794,0z"/>
		<path class="st0" d="M11.244,12.83H8.115v0.586c0.532,0.425,1.096,0.807,1.689,1.143c1.977,1.133,4.519,1.898,7.768,2.047
			c0.268-0.437,0.427-0.885,0.427-1.332V3.637L9.804,2.325L3,3.419C3.318,5.973,4.261,9.5,6.874,12.273v-0.557h4.212
			c1.689,0,2.791-1.024,2.791-2.753c0-1.709-1.103-2.703-2.771-2.703H9.794l-3.139,0.01V5.138h4.589
			c2.265,0,3.904,1.481,3.904,3.816C15.147,11.309,13.519,12.83,11.244,12.83 M9.794,8.497h0.814v0.994H5.841V8.497H9.794
			L9.794,8.497z"/>
	</g>
	<g>
		<path class="st1" d="M9.675,22.708l-0.05-0.02l-0.089-0.03l-0.05-0.02l-0.089-0.04l-0.03-0.01l-0.109-0.05l-0.03-0.01l-0.119-0.05
			l-0.02-0.01l-0.129-0.06H8.94l-0.149-0.06h-0.01c-1.311-0.586-3.03-1.451-4.539-2.474l-0.179-0.119l-0.179-0.139l-0.169-0.119
			l-0.01-0.01l-0.159-0.119l-0.01-0.01l-0.159-0.119l-0.01-0.01l-0.159-0.119l-0.02-0.01L3.04,18.99l-0.02-0.01l-0.139-0.109
			l-0.02-0.019l-0.129-0.109l-0.02-0.02l-0.119-0.109l-0.03-0.02l-0.109-0.109l-0.03-0.03l-0.109-0.109l-0.03-0.03l-0.109-0.099
			l-0.03-0.03l-0.099-0.099l-0.03-0.04l-0.089-0.099l-0.03-0.04l-0.089-0.099l-0.03-0.04l-0.089-0.08l-0.04-0.04L1.58,17.56
			l-0.04-0.05L1.47,17.421l-0.04-0.05l-0.06-0.089l-0.03-0.05l-0.06-0.089l-0.03-0.05c-0.02-0.03-0.03-0.06-0.05-0.08l-0.04-0.06
			l-0.04-0.08l-0.03-0.06c-0.01-0.03-0.03-0.05-0.04-0.08c-0.008-0.021-0.018-0.041-0.03-0.06c-0.012-0.026-0.021-0.052-0.03-0.08
			c-0.01-0.03-0.02-0.04-0.03-0.07c-0.008-0.024-0.018-0.047-0.03-0.07c-0.012-0.021-0.019-0.045-0.02-0.07
			c0-0.03-0.02-0.06-0.02-0.08c-0.002-0.024-0.009-0.048-0.02-0.07c-0.01-0.02-0.01-0.04-0.02-0.07c-0.01-0.03-0.01-0.05-0.02-0.08
			c-0.007-0.019-0.011-0.04-0.01-0.06c0-0.02-0.01-0.05-0.01-0.08s-0.01-0.04-0.01-0.06c-0.003-0.031-0.01-0.061-0.02-0.089
			c-0.01-0.03,0-0.03,0-0.05V2.773l8.97-1.441h0.04V0L0,2.047v13.575c0,1.988,2.036,3.866,4.241,5.327
			c1.728,1.133,3.536,2.127,5.404,2.991L9.804,24v-1.243L9.675,22.708"/>
		<path class="st1" d="M9.794,14.559c-0.592-0.336-1.157-0.718-1.689-1.143v4.392H6.864v-5.535C4.251,9.491,3.318,5.963,3,3.419
			L1.599,3.637v11.637c0,2.693,5.791,5.545,8.195,6.489c1.4-0.547,3.943-1.739,5.821-3.17c0.139-0.109,0.288-0.219,0.417-0.328
			c0.646-0.527,1.182-1.083,1.53-1.65C14.314,16.447,11.781,15.682,9.794,14.559"/>
	</g>
</g>
</svg>
