<?xml version="1.0" encoding="utf-8"?>
<!-- Generator: Adobe Illustrator 21.1.0, SVG Export Plug-In . SVG Version: 6.00 Build 0)  -->
<svg version="1.1" id="Layer_1" xmlns="http://www.w3.org/2000/svg" xmlns:xlink="http://www.w3.org/1999/xlink" x="0px" y="0px"
	 viewBox="0 0 24 24.001" style="enable-background:new 0 0 24 24.001;" xml:space="preserve">
<style type="text/css">
	.st0{fill:#377E96;}
	.st1{fill:#FFFFFF;}
</style>
<g>
	<circle class="st0" cx="12" cy="12" r="12"/>
	<path class="st1" d="M17.719,22.552l0.063-0.047c-0.174-0.319-0.456-0.486-0.773-0.562c-0.453-0.108-0.913-0.208-1.375-0.24
		c-1.027-0.074-2.056-0.092-3.084-0.154c-1.144-0.07-2.287-0.167-3.433-0.241c-0.1-0.007-0.243,0.03-0.3,0.101
		c-0.3,0.368-0.59,0.745-0.86,1.135c-0.132,0.191-0.214,0.416-0.316,0.622l0.079,0.045c-0.451-0.172-0.892-0.372-1.319-0.598
		c0.078,0.015,0.18,0.003,0.218-0.035c0.469-0.47,0.924-0.955,1.381-1.435c-0.341-0.273-0.675-0.515-0.979-0.79
		c-0.284-0.257-0.402-0.596-0.377-0.985c0.037-0.598,0.299-1.107,0.684-1.534c0.455-0.505,0.966-0.96,1.453-1.435
		c0.06-0.058,0.122-0.111,0.178-0.162c-0.019-0.033-0.021-0.043-0.026-0.046l-0.142-0.083c-1.566-0.903-2.347-2.275-2.367-4.065
		C6.404,10.51,7.056,9.269,8.21,8.289c1.125-0.955,2.45-1.29,3.904-1.257c1.076,0.025,2.082,0.263,3.019,0.797
		c0.052,0.03,0.184-0.005,0.232-0.056c0.443-0.464,0.892-0.924,1.308-1.414c0.516-0.607,0.952-1.267,1.133-2.064
		c0.141-0.621,0.081-1.204-0.369-1.689c-0.661-0.712-1.798-0.616-2.377,0.195c-0.114,0.159-0.18,0.352-0.292,0.515
		c-0.041,0.06-0.146,0.077-0.223,0.115c-0.018-0.068-0.06-0.137-0.05-0.199c0.026-0.171,0.058-0.345,0.115-0.507
		c0.285-0.817,0.814-1.375,1.702-1.5c0.289-0.04,0.589-0.007,0.89-0.007c-0.015-0.02-0.021-0.037-0.033-0.043
		c-0.056-0.03-0.113-0.058-0.17-0.085c-0.566-0.259-1.151-0.474-1.749-0.645c1.124,0.316,2.195,0.794,3.18,1.42
		c0.006,0.065,0.002,0.082,0.01,0.091c0.662,0.817,0.577,1.683,0.16,2.565c-0.354,0.746-0.87,1.378-1.427,1.979
		c-0.51,0.55-1.023,1.099-1.537,1.65c0.021,0.014,0.033,0.029,0.045,0.029c0.785,0.001,1.57,0.012,2.355-0.005
		c0.409-0.007,0.773-0.143,1.026-0.505c0.048-0.07,0.179-0.082,0.271-0.121l0.052,0.073c-0.218,0.627-0.432,1.255-0.661,1.876
		c-0.02,0.052-0.135,0.095-0.208,0.098c-0.278,0.012-0.555,0.005-0.833,0.005h-0.997l0.113,0.225c0.54,1.057,0.683,2.179,0.41,3.322
		c-0.403,1.687-1.507,2.778-3.112,3.345c-1.311,0.463-2.656,0.447-4.003,0.125c-0.119-0.028-0.304-0.052-0.367,0.011
		c-0.289,0.289-0.595,0.581-0.804,0.928c-0.43,0.714-0.18,1.21,0.639,1.383l0.023,0.003c0.804,0.062,1.607,0.139,2.412,0.183
		c1.138,0.062,2.278,0.087,3.416,0.155c0.689,0.041,1.369,0.163,1.99,0.492c0.799,0.422,1.366,1.045,1.614,1.955
		c0.059-0.041,0.117-0.083,0.175-0.125c-0.467,0.35-0.96,0.667-1.477,0.948L17.719,22.552z M14.081,23.82
		c-0.728,0.127-1.466,0.188-2.205,0.18C12.615,23.993,13.352,23.933,14.081,23.82z M24,12.037V12c0-1.035-0.131-2.039-0.377-2.997
		C23.868,9.996,23.994,11.015,24,12.037L24,12.037z M21.21,4.309c-0.695-0.832-1.5-1.567-2.392-2.184
		C19.731,2.785,20.531,3.512,21.21,4.309L21.21,4.309z M6.23,22.522c-0.592-0.325-1.155-0.7-1.684-1.12
		C5.08,21.808,5.663,22.156,6.23,22.522z M0,12.023c0.001-0.639,0.051-1.278,0.148-1.909C0.048,10.745-0.001,11.383,0,12.023
		L0,12.023z M2.187,5.091c0.471-0.655,1-1.265,1.582-1.823C3.182,3.821,2.652,4.431,2.187,5.091L2.187,5.091z M8.35,0.566
		C9.533,0.201,10.762,0.01,12,0C10.761-0.001,9.53,0.19,8.35,0.566z M14.675,12.492l-0.045-0.011
		c-0.026-0.363-0.041-0.727-0.08-1.089c-0.089-0.837-0.326-1.627-0.787-2.34C13.08,7.996,11.94,7.57,10.847,7.993
		C9.949,8.339,9.473,9.052,9.258,9.96c-0.204,0.859-0.188,1.73-0.084,2.597c0.1,0.825,0.335,1.61,0.81,2.308
		c0.61,0.896,1.462,1.288,2.52,1.111c1.005-0.167,1.636-0.817,1.894-1.783C14.546,13.641,14.586,13.06,14.675,12.492L14.675,12.492z
		"/>
</g>
</svg>
