<?xml version="1.0" encoding="utf-8"?>
<!-- Generator: Adobe Illustrator 21.1.0, SVG Export Plug-In . SVG Version: 6.00 Build 0)  -->
<svg version="1.1" id="Layer_1" xmlns="http://www.w3.org/2000/svg" xmlns:xlink="http://www.w3.org/1999/xlink" x="0px" y="0px"
	 viewBox="0 0 11.5 24" style="enable-background:new 0 0 11.5 24;" xml:space="preserve">
<style type="text/css">
	.st0{fill:#001D57;}
</style>
<path class="st0" d="M10.2,0l1.4,1.4L9,4c0.5,0.8,0.8,1.8,0.8,2.8c0,1.3-0.5,2.6-1.4,3.5c-0.7,0.7-1.5,1.2-2.5,1.4v2.3
	c1,0.2,1.8,0.7,2.5,1.4c0.9,0.9,1.4,2.2,1.4,3.5c0,1.3-0.5,2.6-1.4,3.5C7.5,23.5,6.2,24,4.9,24c-1.3,0-2.6-0.5-3.5-1.5
	C0.5,21.6,0,20.3,0,19c0-1.3,0.5-2.6,1.4-3.5c0.7-0.7,1.5-1.2,2.5-1.4v-2.3c-1-0.2-1.8-0.7-2.5-1.4C0.5,9.4,0,8.1,0,6.8
	c0-1.3,0.5-2.6,1.4-3.5c0.9-0.9,2.2-1.5,3.5-1.5c1,0,1.9,0.3,2.7,0.8L10.2,0L10.2,0z M4.9,15.9c-0.8,0-1.6,0.3-2.1,0.9
	c-0.6,0.6-0.9,1.4-0.9,2.2c0,0.8,0.3,1.6,0.9,2.2c0.5,0.6,1.3,0.9,2.1,0.9c0.8,0,1.6-0.3,2.1-0.9c0.6-0.6,0.9-1.4,0.9-2.2
	c0-0.8-0.3-1.6-0.9-2.2C6.5,16.2,5.7,15.9,4.9,15.9z M7,9c0.6-0.6,0.9-1.4,0.9-2.2C7.9,6,7.6,5.2,7,4.6C6.5,4.1,5.7,3.8,4.9,3.8
	c-0.8,0-1.6,0.3-2.1,0.9C2.2,5.2,1.9,6,1.9,6.8c0,0.8,0.3,1.6,0.9,2.2c0.5,0.6,1.3,0.9,2.1,0.9C5.7,9.9,6.4,9.6,7,9z"/>
</svg>
