<?xml version="1.0" encoding="utf-8"?>
<!-- Generator: Adobe Illustrator 21.1.0, SVG Export Plug-In . SVG Version: 6.00 Build 0)  -->
<svg version="1.1" id="Layer_1" xmlns="http://www.w3.org/2000/svg" xmlns:xlink="http://www.w3.org/1999/xlink" x="0px" y="0px"
	 viewBox="0 0 24 24" style="enable-background:new 0 0 24 24;" xml:space="preserve">
<style type="text/css">
	.st0{fill:#F3BA2F;}
</style>
<title>bi</title>
<g id="Layer_2">
	<g id="Layer_1-2">
		<path class="st0" d="M7.3,10.1L12,5.4l4.7,4.7l2.7-2.7L12,0L4.6,7.4L7.3,10.1 M0,12l2.7-2.7L5.4,12l-2.7,2.7L0,12z M7.3,13.9
			l4.7,4.7l4.7-4.7l2.7,2.7l0,0L12,24l-7.4-7.4l0,0L7.3,13.9 M18.6,12l2.7-2.7L24,12l-2.7,2.7L18.6,12z"/>
		<path class="st0" d="M14.8,12L14.8,12L12,9.2l-2,2l0,0l-0.2,0.2L9.3,12l0,0l0,0l2.7,2.7L14.8,12L14.8,12L14.8,12"/>
	</g>
</g>
</svg>
