<?xml version="1.0" encoding="utf-8"?>
<!-- Generator: Adobe Illustrator 21.1.0, SVG Export Plug-In . SVG Version: 6.00 Build 0)  -->
<svg version="1.1" id="Layer_1" xmlns="http://www.w3.org/2000/svg" xmlns:xlink="http://www.w3.org/1999/xlink" x="0px" y="0px"
	 viewBox="0 0 24 24" style="enable-background:new 0 0 24 24;" xml:space="preserve">
<style type="text/css">
	.st0{fill:#FFFFFF;}
	.st1{fill:#E1DED9;}
	.st2{fill:#438D5C;}
</style>
<g id="poe">
	<g id="Group">
		<g id="Vector" transform="translate(-110.56 -283.616)">
			<path id="path2_fill" class="st0" d="M129.9,288.9l-15.1,15.4l-0.3-6.2l9.1-9.2l3.8-3.9l2.4-0.8l1.8,0.5l1.7,1.4l-2,2.3
				L129.9,288.9z"/>
		</g>
		<g id="Shape" transform="translate(-101.969 -282.328)">
			<path id="path3_fill" class="st1" d="M122.7,288.1l-3,3.1h4.6l0.5-0.5c0.4-0.4,0.6-0.8,0.8-1.3c0.2-0.5,0.3-1,0.3-1.5
				c0-1.1-0.4-2-1.1-2.8l-2.1,2.2c0.1,0.1,0.2,0.3,0.2,0.5C122.9,287.8,122.8,288,122.7,288.1z"/>
		</g>
		<g id="Shape_1_" transform="translate(-109.362 -272.234)">
			<path id="path4_fill" class="st1" d="M117.7,291.1l-2.5,2.6h4.6l2.5-2.6H117.7z"/>
		</g>
		<g id="Shape_2_" transform="translate(-107.056 -274.811)">
			<path id="path5_fill" class="st1" d="M116.6,292.4h4.6l2.7-2.8h-4.6L116.6,292.4z"/>
		</g>
		<g id="Shape_3_" transform="translate(-104.571 -277.511)">
			<path id="path6_fill" class="st1" d="M125.6,287.9H121l-2.9,3h4.6L125.6,287.9z"/>
		</g>
	</g>
	<g id="Shape_4_" transform="translate(-113 -284)">
		<path id="path7_fill" class="st2" d="M135.5,285.6c-0.5-0.5-1-0.9-1.7-1.2c-0.6-0.3-1.3-0.4-2-0.4s-1.3,0.1-2,0.4
			s-1.2,0.7-1.7,1.2l-11.8,12.2c-0.1,0.1-0.2,0.3-0.2,0.5v6.3L113,308h1.8l2.4-2.5h6.1c0.1,0,0.2,0,0.2-0.1c0.1,0,0.1-0.1,0.2-0.2
			l11.8-12.2l0,0c1-1,1.5-2.3,1.5-3.7c0-0.7-0.1-1.4-0.4-2C136.4,286.6,136,286,135.5,285.6L135.5,285.6z M128.6,287l0.5-0.5
			c0.7-0.8,1.7-1.2,2.8-1.2s2,0.4,2.8,1.2c0,0,0,0,0,0c0.7,0.8,1.1,1.8,1.1,2.8c0,1.1-0.4,2.1-1.1,2.8l-0.5,0.5h-4.6l3-3.1
			c0.1-0.1,0.2-0.3,0.2-0.4s-0.1-0.3-0.2-0.5c0,0,0,0,0,0c-0.1-0.1-0.3-0.2-0.4-0.2s-0.3,0.1-0.4,0.2l-3,3.2L128.6,287L128.6,287z
			 M118.5,304.2l2.5-2.6h4.6l-2.5,2.6H118.5z M125.6,296.7l2.9-3h4.6l-2.9,3H125.6z M129.2,297.8l-2.7,2.8h-4.6l2.7-2.8H129.2
			L129.2,297.8z M124.7,291l2.9-3v4.8l-2.9,3V291L124.7,291z M121,294.9l2.7-2.8v4.8l-2.7,2.8V294.9L121,294.9z M117.5,298.5
			l2.5-2.6v4.8l-2.5,2.6"/>
	</g>
</g>
</svg>
