<?xml version="1.0" encoding="utf-8"?>
<!-- Generator: Adobe Illustrator 21.1.0, SVG Export Plug-In . SVG Version: 6.00 Build 0)  -->
<svg version="1.1" id="Calque_1" xmlns="http://www.w3.org/2000/svg" xmlns:xlink="http://www.w3.org/1999/xlink" x="0px" y="0px"
	 viewBox="0 0 23.616 24" style="enable-background:new 0 0 23.616 24;" xml:space="preserve">
<style type="text/css">
	.st0{fill:#202944;}
</style>
<title>fetch-fet-logo</title>
<path class="st0" d="M0,0v24h23.616V0H0z M8.256,2.784h2.208v2.304H8.256V2.784z M2.688,2.784h2.304v2.304H2.688L2.688,2.784z
	 M4.896,8.352v2.304H2.592V8.352H4.896z M4.32,21.024H3.36V20.16h0.864v0.864H4.32z M4.992,16.416H2.688v-2.208h2.304V16.416z
	 M9.888,21.024H9.024V20.16h0.864V21.024z M9.888,15.648H9.024v-0.864h0.864V15.648z M10.56,10.752H8.256V8.448h2.304L10.56,10.752z
	 M15.456,21.024h-0.864V20.16h0.864V21.024z M15.456,15.648h-0.864v-0.864h0.864V15.648z M15.456,9.984h-0.864V9.12h0.864V9.984z
	 M16.224,5.088H13.92V2.784h2.304L16.224,5.088z M21.12,21.024h-0.864V20.16h0.864V21.024z M21.12,15.648h-0.864v-0.864h0.864
	V15.648z M21.12,9.984h-0.864V9.12h0.864V9.984z M21.12,4.416h-0.864V3.552h0.864V4.416z"/>
</svg>
