<?xml version="1.0" encoding="utf-8"?>
<!-- Generator: Adobe Illustrator 21.1.0, SVG Export Plug-In . SVG Version: 6.00 Build 0)  -->
<svg version="1.1" id="Layer_1" xmlns="http://www.w3.org/2000/svg" xmlns:xlink="http://www.w3.org/1999/xlink" x="0px" y="0px"
	 viewBox="0 0 24 23.553" style="enable-background:new 0 0 24 23.553;" xml:space="preserve">
<style type="text/css">
	.st0{fill:#202944;}
</style>
<path class="st0" d="M0,11.776v11.776h24V0H0V11.776L0,11.776z M21.093,1.863c0.018,0.03-5.123,5.183-5.153,5.164
	c-0.023-0.014-0.026-5.152-0.003-5.175C15.966,1.824,21.075,1.834,21.093,1.863z M5.77,2.614C5.8,2.632,5.806,2.707,5.806,3.043
	V3.45L4.492,3.462c-1.134,0.01-1.317,0.017-1.336,0.047c-0.029,0.047-0.03,0.828,0,0.905l0.023,0.06l2.015,0.012L5.2,4.884
	c0.004,0.273-0.002,0.408-0.021,0.43c-0.022,0.027-0.202,0.033-1.01,0.033c-0.792,0-0.988,0.006-1.01,0.032
	C3.141,5.399,3.131,5.676,3.127,6.244L3.121,7.078H2.037L2.031,4.866c-0.004-1.614,0.001-2.22,0.021-2.243
	C2.084,2.584,5.709,2.575,5.77,2.614L5.77,2.614z M13.176,2.605c0.032,0.012,0.037,0.073,0.037,0.436v0.421h-1.246
	c-0.686,0-1.263,0.006-1.284,0.014c-0.032,0.012-0.037,0.074-0.037,0.447v0.433h0.998c0.889,0,1,0.004,1.013,0.037
	c0.019,0.049,0.019,0.748,0,0.797c-0.013,0.033-0.122,0.037-0.983,0.038c-0.533,0-0.983,0.009-0.999,0.019
	c-0.023,0.015-0.028,0.129-0.024,0.488l0.006,0.469l1.302,0.012c1.123,0.01,1.305,0.017,1.324,0.047
	c0.027,0.043,0.03,0.753,0.004,0.795c-0.015,0.023-0.409,0.028-1.89,0.024L9.527,7.078L9.521,4.864
	C9.515,2.803,9.518,2.648,9.555,2.62C9.597,2.589,13.096,2.575,13.176,2.605L13.176,2.605z M21.927,5.253v2.568l-0.06,0.023
	c-0.066,0.025-5.019,0.034-5.084,0.009c-0.02-0.008-0.037-0.026-0.037-0.041c0-0.041,5.104-5.126,5.145-5.126
	C21.924,2.685,21.927,2.952,21.927,5.253L21.927,5.253z M13.284,10.128c0.013,0.02,0.02,0.204,0.017,0.424l-0.006,0.389
	l-0.647,0.006c-0.405,0.004-0.656,0.015-0.671,0.031c-0.016,0.016-0.028,0.631-0.036,1.819l-0.012,1.795l-1.019,0.013l-0.014-0.053
	c-0.008-0.029-0.014-0.846-0.015-1.814s-0.003-1.763-0.006-1.766c-0.003-0.003-0.308-0.011-0.677-0.018L9.527,10.94l-0.006-0.407
	c-0.006-0.404-0.006-0.407,0.047-0.429C9.668,10.064,13.258,10.086,13.284,10.128L13.284,10.128z M19.337,10.115
	c0.522,0.085,0.889,0.269,1.313,0.659c0.108,0.099,0.099,0.129-0.098,0.336c-0.096,0.101-0.198,0.213-0.226,0.248
	c-0.105,0.133-0.125,0.13-0.324-0.051c-0.95-0.867-2.385-0.274-2.385,0.985c0,1.313,1.471,1.903,2.457,0.985
	c0.176-0.164,0.15-0.164,0.305,0c0.466,0.494,0.446,0.447,0.267,0.628c-1.169,1.188-3.232,0.789-3.836-0.74
	C16.17,11.543,17.588,9.829,19.337,10.115L19.337,10.115z M17.988,18.48c0.006,0.815,0.009,0.875,0.048,0.886
	c0.023,0.006,0.434,0.007,0.912,0.002l0.871-0.008l0.012-0.877c0.007-0.482,0.015-0.88,0.018-0.883
	c0.038-0.044,0.924,0.001,0.936,0.047c0.007,0.029,0.01,1.039,0.006,2.243l-0.006,2.19h-0.942l-0.024-1.814h-1.814l-0.024,1.814
	l-0.93,0.013v-4.501l0.93,0.013L17.988,18.48L17.988,18.48z"/>
</svg>
