<?xml version="1.0" encoding="utf-8"?>
<!-- Generator: Adobe Illustrator 21.1.0, SVG Export Plug-In . SVG Version: 6.00 Build 0)  -->
<svg version="1.1" id="Laag_1" xmlns="http://www.w3.org/2000/svg" xmlns:xlink="http://www.w3.org/1999/xlink" x="0px" y="0px"
	 viewBox="0 0 24 24" style="enable-background:new 0 0 24 24;" xml:space="preserve">
<style type="text/css">
	.st0{fill:#598282;}
	.st1{fill:#FBBB31;}
	.st2{fill:#326464;}
	.st3{fill:#FAAA00;}
</style>
<title>kmd</title>
<g id="Laag_3">
	<g id="Layer_1-2">
		<g id="Layer_1-3">
			<g id="_898344032">
				<path class="st0" d="M3.3,20l0.6,0.6c2.7,1.1,5.4,2.3,8.1,3.4v-4.9L7,17l-2.1-5L7,7L3.3,4L0,12L3.3,20z"/>
				<path class="st1" d="M12,0C9.3,1.1,6.6,2.2,3.9,3.4L3.3,4L7,7l5-2.1V0z"/>
				<polygon class="st0" points="12,7 8.4,8.5 7,12 8.4,15.6 12,17 				"/>
				<path class="st2" d="M12,24c2.7-1.1,5.4-2.2,8-3.4l0.6-0.6l3.3-8l-3.3-8L17,7l2.1,5L17,17l-5,2.1L12,24L12,24z"/>
				<path class="st3" d="M20.7,4l-0.6-0.6C17.4,2.2,14.7,1.1,12,0v4.9L17,7L20.7,4z"/>
				<polygon class="st2" points="12,17 15.6,15.6 17,12 15.6,8.5 12,7 				"/>
			</g>
		</g>
	</g>
</g>
</svg>
