<svg width="16" height="12" fill="none" xmlns="http://www.w3.org/2000/svg"><path d="M15.863 4.593l-2.51-2.51a.468.468 0 00-.332-.138h-2.042V1.91c0-.95-.773-1.724-1.724-1.724H1.724A1.73 1.73 0 000 1.911v6.277c0 .95.773 1.723 1.724 1.723h.331a2.356 2.356 0 002.305 1.883c1.136 0 2.087-.81 2.304-1.883h2.672a2.356 2.356 0 002.304 1.883c1.136 0 2.087-.81 2.305-1.883h1.586c.26 0 .469-.21.469-.468V4.924a.468.468 0 00-.137-.331zM4.36 10.857a1.415 1.415 0 111.414-1.414c0 .78-.634 1.414-1.414 1.414zm7.28 0a1.415 1.415 0 111.414-1.414c0 .78-.634 1.414-1.414 1.414zm-.66-6.402V2.882h1.847L14.4 4.455h-3.42z" fill="#4F71C9"/></svg>