<?xml version="1.0" encoding="utf-8"?>
<!-- Generator: Adobe Illustrator 21.1.0, SVG Export Plug-In . SVG Version: 6.00 Build 0)  -->
<svg version="1.1" id="Layer_1" xmlns="http://www.w3.org/2000/svg" xmlns:xlink="http://www.w3.org/1999/xlink" x="0px" y="0px"
	 viewBox="0 0 32 32" style="enable-background:new 0 0 32 32;" xml:space="preserve">
<style type="text/css">
	.st0{fill:#673398;}
	.st1{fill:#FFFFFF;}
</style>
<g>
	<circle class="st0" cx="16" cy="16" r="16"/>
	<g>
		<path class="st1" d="M27.7,13.5c-0.2-0.8-0.4-1.5-0.7-2.2c-0.3-0.7-0.7-1.4-1.1-2C25.5,8.6,25,8,24.5,7.5c-0.5-0.5-1.1-1-1.8-1.5
			c-0.6-0.4-1.3-0.8-2-1.1c-3-1.3-6.3-1.3-9.3,0C10,5.5,8.7,6.4,7.6,7.5C7.1,8,6.6,8.6,6.2,9.3c-0.4,0.6-0.8,1.3-1.1,2
			c-1.3,3-1.3,6.3,0,9.3c0.3,0.7,0.7,1.4,1.1,2c0.4,0.6,0.9,1.2,1.5,1.8c0.5,0.5,1.1,1,1.8,1.5c0.6,0.4,1.3,0.8,2,1.1
			c3,1.3,6.3,1.3,9.3,0c0.7-0.3,1.4-0.7,2-1.1c0.6-0.4,1.2-0.9,1.8-1.5c0.5-0.5,1-1.1,1.5-1.8c0.4-0.6,0.8-1.3,1.1-2
			C28,18.4,28.2,15.9,27.7,13.5z M16.1,26.4c-5.8,0-10.4-4.7-10.4-10.4S10.3,5.5,16.1,5.5c5.8,0,10.4,4.7,10.4,10.4
			S21.8,26.4,16.1,26.4z"/>
		<path class="st1" d="M16.2,25.5h0.3c0,0,0.1,0,0.1,0h0c0,0,0.1,0,0.1,0h0c0,0,0.1,0,0.1,0h0c0,0,0.1,0,0.1,0h0c0,0,0.1,0,0.1,0
			s0.1,0,0.1,0h0c0,0,0.1,0,0.1,0h0c0,0,0.1,0,0.1,0c0.1,0,0.2,0,0.3-0.1h0c0,0,0.1,0,0.1,0h0c0.1,0,0.2,0,0.3-0.1
			c-0.9,0-1.8-0.1-2.7-0.3c-1.3-0.3-2.6-0.8-3.7-1.7c-1.7-1.4-2.7-3.6-2.7-5.9c0-1.7,0.6-3.3,1.7-4.6c1.4-1.7,3.4-2.5,5.4-2.6h0.3
			V8.6h-0.3c-0.6,0-1.2,0.1-1.8,0.2c-0.6,0.1-1.2,0.3-1.8,0.6c-0.6,0.3-1.1,0.6-1.6,1c-0.5,0.4-1,0.8-1.4,1.3c-0.4,0.5-0.7,1-1,1.5
			c-0.3,0.5-0.5,1.1-0.7,1.6c-0.2,0.6-0.3,1.1-0.3,1.7l0,0.5v0.3c0,0.6,0.1,1.2,0.2,1.8C8,19.9,8.2,20.5,8.5,21
			c0.3,0.7,0.9,1.7,1.7,2.4c1.7,1.3,3.7,2,5.9,2C16,25.5,16.2,25.5,16.2,25.5z"/>
		<path class="st1" d="M18.9,23.9c-0.6,0-1.2-0.1-1.8-0.2c-2.5-0.5-4.7-2-5.5-4.3c-1-2.8,0.5-5.9,3.3-6.8c0.5-0.2,1.1-0.3,1.7-0.3
			c0.7,0,1.4,0.1,2.1,0.4l0.7-1.5c-0.2-0.1-0.4-0.2-0.6-0.2c-0.7-0.2-1.4-0.3-2.2-0.3c-0.7,0-1.5,0.1-2.2,0.4
			c-0.9,0.3-1.7,0.8-2.4,1.4c-0.3,0.3-0.6,0.6-0.9,1c-0.3,0.4-0.5,0.7-0.7,1.1c-0.4,0.8-0.6,1.7-0.7,2.6c-0.1,0.9,0.1,1.9,0.4,2.7
			c0.3,0.9,0.8,1.7,1.5,2.4c0.6,0.6,1.3,1.1,2.1,1.6c0.9,0.5,2,0.7,3.1,0.9c0.7,0.1,1.7,0.1,2.3,0.1c0.5-0.2,0.7-0.3,1-0.4
			c0.2-0.1,0.5-0.2,0.7-0.4s0.3-0.2,0.7-0.4c0,0,0.1,0,0.1-0.1C20.2,23.9,19.9,23.9,18.9,23.9z"/>
		<path class="st1" d="M21.9,22.1c-0.4,0-0.9,0.1-1.5,0.1c-1.1,0-2.4-0.1-3.6-0.5c-1.8-0.6-3.4-2.1-3.4-4c0-1.9,1.5-3.4,3.3-3.4
			c0,0,0,0,0,0c1.3,0,2.4,0.7,2.9,1.7l1.5-0.7c-0.2-0.4-0.5-0.8-0.9-1.2c-1.9-1.9-5.1-1.9-7,0c0,0,0,0,0,0c-0.9,0.9-1.5,2.2-1.5,3.5
			c0,0.7,0.1,1.4,0.4,2c0.3,0.6,0.6,1.1,1.1,1.6c0.8,0.9,1.9,1.5,3,1.9c1.1,0.4,2.8,0.5,4.3,0.4c0.4,0,0.8-0.1,1.3-0.2
			c0.5-0.4,1-0.9,1.5-1.5C23.1,22,22.4,22,21.9,22.1z"/>
	</g>
</g>
</svg>
