<?xml version="1.0" encoding="utf-8"?>
<!-- Generator: Adobe Illustrator 21.1.0, SVG Export Plug-In . SVG Version: 6.00 Build 0)  -->
<svg version="1.1" id="Layer_1" xmlns="http://www.w3.org/2000/svg" xmlns:xlink="http://www.w3.org/1999/xlink" x="0px" y="0px"
	 viewBox="0 0 23.936 24" style="enable-background:new 0 0 23.936 24;" xml:space="preserve">
<style type="text/css">
	.st0{fill:#05BCA9;}
	.st1{fill:#FFFFFF;}
</style>
<title>powr</title>
<path class="st0" d="M12.139,0.024c0.742,0.826,1.543,1.579,2.309,2.369c0.144,0.144,0.287,0.108,0.443,0.06
	c0.933-0.239,1.878-0.479,2.812-0.742c0.275-0.084,0.359-0.024,0.431,0.251c0.227,0.933,0.491,1.842,0.73,2.776
	c0.06,0.251,0.167,0.395,0.443,0.455c0.969,0.239,1.914,0.526,2.871,0.766c0.251,0.06,0.287,0.156,0.215,0.383
	c-0.263,0.933-0.502,1.866-0.778,2.8c-0.098,0.228-0.029,0.494,0.167,0.646c0.67,0.646,1.304,1.328,1.974,1.974
	c0.227,0.227,0.251,0.347,0,0.586c-0.694,0.658-1.364,1.352-2.046,2.01c-0.169,0.134-0.228,0.364-0.144,0.562
	c0.263,0.945,0.502,1.902,0.766,2.835c0.084,0.287,0,0.395-0.275,0.455c-0.933,0.227-1.842,0.491-2.776,0.718
	c-0.263,0.06-0.395,0.167-0.455,0.443c-0.227,0.921-0.514,1.842-0.742,2.764c-0.072,0.275-0.179,0.323-0.443,0.251
	c-0.921-0.263-1.842-0.491-2.764-0.766c-0.231-0.093-0.496-0.019-0.646,0.179c-0.67,0.694-1.364,1.352-2.022,2.046
	c-0.215,0.215-0.335,0.203-0.538-0.012c-0.658-0.682-1.328-1.34-1.986-2.022c-0.161-0.206-0.437-0.284-0.682-0.191
	c-0.921,0.263-1.854,0.479-2.776,0.742c-0.239,0.072-0.323,0.012-0.383-0.227c-0.239-0.945-0.502-1.866-0.742-2.812
	c-0.06-0.251-0.167-0.395-0.443-0.455c-0.933-0.227-1.842-0.502-2.776-0.73c-0.347-0.084-0.395-0.215-0.299-0.538
	c0.275-0.921,0.502-1.842,0.766-2.764c0.08-0.197,0.016-0.424-0.156-0.55c-0.694-0.682-1.364-1.376-2.058-2.058
	c-0.179-0.179-0.191-0.287,0-0.467c0.706-0.682,1.388-1.388,2.094-2.07c0.169-0.134,0.228-0.364,0.144-0.562
	c-0.263-0.933-0.479-1.878-0.754-2.8C1.527,6.006,1.611,5.898,1.922,5.826c0.945-0.227,1.866-0.491,2.812-0.73
	C4.928,5.066,5.079,4.91,5.104,4.714c0.239-0.933,0.514-1.866,0.754-2.8C5.93,1.639,6.037,1.591,6.301,1.663
	c0.933,0.263,1.866,0.502,2.8,0.766C9.299,2.51,9.527,2.452,9.662,2.285c0.706-0.718,1.424-1.424,2.142-2.13
	C11.86,0.125,11.893,0.064,11.888,0C11.97,0.018,12.055,0.026,12.139,0.024L12.139,0.024z M7.186,4.69
	C6.923,4.762,6.66,4.833,6.396,4.881c-0.132,0.01-0.23,0.126-0.22,0.257c0.001,0.01,0.002,0.02,0.004,0.03
	c0.012,0.191,0,0.383,0,0.61C6.564,5.408,6.899,5.073,7.234,4.75C7.243,4.725,7.26,4.704,7.282,4.69
	C7.25,4.684,7.218,4.684,7.186,4.69L7.186,4.69z M1.12,11.617c0.455-0.108,0.909-0.215,1.364-0.335
	C2.999,11.15,3.01,11.115,2.735,10.6l-1.651,0.969 M0.869,12.646c0.502,0.586,1.053,1.113,1.603,1.663
	c0.227-0.455,0.263-0.67,0.108-0.754c-0.562-0.311-1.089-0.694-1.699-0.921 M6.995,2.106c0.407,0.335,0.897,0.562,1.34,0.837
	c0.514,0.311,0.55,0.299,0.909-0.287C8.495,2.512,7.777,2.201,6.995,2.106 M6.911,21.978c0.778-0.096,1.496-0.371,2.369-0.574
	c-0.311-0.167-0.383-0.586-0.694-0.443C8.011,21.26,7.425,21.559,6.911,21.978c-0.036,0.012-0.072,0.024-0.12,0.036 M23.038,12.706
	c-0.419,0.227-0.849,0.455-1.268,0.682c-0.55,0.299-0.538,0.299-0.359,0.885c0.01,0.017,0.022,0.034,0.036,0.048
	c0.55-0.526,1.089-1.053,1.639-1.579 M2.006,17.216c0.263-0.371,0.538-0.742,0.802-1.125c0.491-0.706,0.491-0.706-0.132-1.304
	c-0.012-0.012-0.048-0.012-0.084-0.024l-0.646,2.405 M1.958,6.317c-0.036,0-0.06-0.012-0.096-0.012
	c0.012,0.036,0.012,0.06,0.024,0.096C2.137,7.358,2.376,8.303,2.628,9.26c0.041,0.025,0.086,0.045,0.132,0.06
	c0.479-0.514,0.957-1.029,1.448-1.531c0.12-0.132,0.012-0.156-0.06-0.203C3.405,7.166,2.675,6.736,1.958,6.317L1.958,6.317z
	 M12.773,14.5c0.132,0.06,0.191-0.06,0.275-0.156c0.467-0.55,0.921-1.113,1.388-1.651c0.116-0.112,0.145-0.287,0.072-0.431
	c-0.251-0.658-0.491-1.328-0.73-1.986c-0.04-0.157-0.174-0.272-0.335-0.287c-0.718-0.12-1.448-0.251-2.165-0.383
	c-0.122-0.035-0.253,0.013-0.323,0.12c-0.467,0.574-0.945,1.149-1.436,1.711c-0.101,0.096-0.126,0.248-0.06,0.371
	c0.251,0.682,0.502,1.376,0.754,2.058c0.048,0.12,0.096,0.215,0.251,0.239C11.23,14.237,11.984,14.369,12.773,14.5L12.773,14.5z
	 M7.581,16.163c0.347-1.292,0.682-2.548,1.029-3.805c0.06-0.203-0.036-0.227-0.203-0.227c-0.646,0-1.292,0.012-1.938-0.012
	c-0.263-0.012-0.299,0.084-0.299,0.311c0.012,0.634,0.012,1.268-0.012,1.902c-0.024,1.005-0.024,1.005,0.861,1.507
	C7.186,15.936,7.365,16.032,7.581,16.163L7.581,16.163z M10.409,14.991c-0.395,0.67-0.754,1.304-1.137,1.938
	c-0.096,0.156-0.048,0.227,0.096,0.311c0.79,0.455,1.567,0.909,2.345,1.376c0.122,0.091,0.287,0.101,0.419,0.024
	c0.359-0.203,0.706-0.419,1.065-0.61c0.144-0.084,0.132-0.132,0.024-0.239C12.283,16.869,11.366,15.948,10.409,14.991L10.409,14.991
	z M10.6,6.197c0.969,0.945,1.89,1.842,2.812,2.752c0.167,0.167,0.227,0.096,0.311-0.06c0.323-0.562,0.634-1.125,0.981-1.675
	c0.108-0.179,0.096-0.263-0.096-0.371c-0.778-0.443-1.543-0.897-2.309-1.364c-0.129-0.099-0.308-0.104-0.443-0.012
	c-0.388,0.239-0.782,0.455-1.261,0.73H10.6z M16.415,7.944c-0.347,1.292-0.694,2.56-1.041,3.828
	c-0.048,0.191,0.036,0.203,0.191,0.203c0.634,0,1.268-0.024,1.902,0.012c0.299,0.012,0.359-0.108,0.347-0.359
	c0-0.861,0-1.711,0.012-2.572c0.02-0.161-0.061-0.317-0.203-0.395c-0.388-0.251-0.782-0.479-1.213-0.718L16.415,7.944z
	 M17.755,14.752c0-0.287-0.012-0.479,0-0.658c0.024-0.227-0.048-0.263-0.275-0.203c-1.161,0.323-2.321,0.622-3.493,0.921
	c-0.179,0.048-0.251,0.108-0.132,0.299c0.335,0.55,0.658,1.113,0.957,1.687c0.12,0.215,0.215,0.203,0.407,0.096
	c0.598-0.347,1.196-0.718,1.819-1.029c0.55-0.251,0.916-0.55,0.713-1.113H17.755z M6.241,9.344c0,0.275,0.012,0.455,0,0.622
	c-0.036,0.275,0.06,0.299,0.311,0.227c1.137-0.311,2.273-0.622,3.41-0.909c0.239-0.06,0.275-0.12,0.144-0.335
	C9.782,8.423,9.471,7.884,9.184,7.334C9.076,7.131,8.993,7.059,8.765,7.202C8.167,7.561,7.581,7.92,6.947,8.231
	C6.408,8.483,6.037,8.782,6.241,9.344L6.241,9.344z M13.144,14.524c0.395,0.227,0.778,0.144,1.161,0.036
	c0.897-0.251,1.795-0.491,2.692-0.73c0.742-0.203,0.742-0.191,0.754-0.945c0-0.144,0.024-0.299,0.036-0.443
	c0.024-0.215-0.036-0.311-0.275-0.311c-0.562,0.012-1.125,0-1.675,0s-0.55,0-0.706,0.538c-0.048,0.167-0.012,0.443-0.215,0.479
	s-0.12-0.287-0.287-0.395L13.144,14.524z M12.701,14.68c-0.754-0.132-1.507-0.263-2.273-0.395c0,0.467,0.251,0.73,0.514,0.993
	c0.682,0.67,1.352,1.352,2.034,2.034c0.514,0.514,0.514,0.514,1.172,0.156c0.132-0.071,0.268-0.135,0.407-0.191
	c0.215-0.084,0.239-0.191,0.12-0.395c-0.287-0.479-0.586-0.957-0.826-1.46c-0.191-0.383-0.407-0.538-0.826-0.347
	c-0.156,0.072-0.383,0.215-0.514,0.06S12.701,14.883,12.701,14.68L12.701,14.68z M10.847,9.571
	c-0.395-0.191-0.754-0.144-1.125-0.036c-0.921,0.263-1.842,0.502-2.764,0.742c-0.706,0.191-0.706,0.191-0.718,0.945
	c0,0.156-0.024,0.323-0.036,0.479c-0.024,0.179,0.036,0.263,0.251,0.263c0.682-0.012,1.364,0,2.046,0.012
	c0.136,0.022,0.264-0.07,0.286-0.205c0.001-0.003,0.001-0.007,0.001-0.01c0.021-0.122,0.053-0.243,0.096-0.359
	c0.06-0.156,0.012-0.419,0.191-0.443c0.203-0.024,0.132,0.287,0.299,0.407C9.854,10.768,10.344,10.169,10.847,9.571L10.847,9.571z
	 M9.28,11.809c-0.306,0.216-0.516,0.542-0.586,0.909c-0.203,0.873-0.455,1.723-0.694,2.584c-0.084,0.299-0.263,0.622-0.203,0.885
	c0.06,0.287,0.479,0.323,0.73,0.502c0.096,0.06,0.179,0.132,0.275,0.191c0.156,0.12,0.251,0.096,0.347-0.084
	c0.215-0.395,0.443-0.778,0.67-1.161c0.144-0.251,0.371-0.491,0.395-0.742c0.024-0.299-0.359-0.431-0.526-0.658
	c-0.048-0.072-0.156-0.12-0.108-0.215s0.156-0.06,0.239-0.048c0.251,0.048,0.263-0.036,0.191-0.251
	C9.746,13.113,9.519,12.467,9.28,11.809z M13.934,10.146c0.263,0.706,0.514,1.412,0.79,2.154c0.287-0.227,0.467-0.443,0.55-0.778
	c0.227-0.933,0.502-1.866,0.742-2.8c0.072-0.275,0.239-0.574,0.179-0.826s-0.455-0.299-0.67-0.467
	c-0.075-0.048-0.146-0.1-0.215-0.156c-0.215-0.167-0.359-0.191-0.502,0.096c-0.239,0.479-0.526,0.921-0.802,1.388
	c-0.287,0.502-0.287,0.491,0.108,0.897c0.12,0.12,0.359,0.227,0.299,0.383C14.357,10.241,14.101,10.026,13.934,10.146L13.934,10.146
	z M13.575,9.811c-0.027-0.348-0.185-0.673-0.443-0.909c-0.682-0.646-1.34-1.328-2.005-1.998c-0.215-0.203-0.383-0.526-0.658-0.586
	c-0.239-0.048-0.467,0.239-0.718,0.347C9.643,6.712,9.536,6.772,9.416,6.82C9.213,6.903,9.201,6.999,9.308,7.19
	c0.287,0.467,0.55,0.945,0.814,1.424c0.311,0.538,0.299,0.526,0.897,0.383c0.144-0.036,0.335-0.191,0.455-0.048
	c0.132,0.167-0.144,0.251-0.179,0.395c-0.012,0.024,0,0.048,0,0.072C12.043,9.559,12.802,9.679,13.575,9.811L13.575,9.811z
	 M19.772,16.463c0.754,0.443,1.543,0.909,2.405,1.424c-0.287-1.065-0.55-2.046-0.802-3.015
	C20.825,15.398,20.311,15.924,19.772,16.463L19.772,16.463z M4.961,18.796c-0.203-0.754-0.383-1.424-0.562-2.106
	c-0.036-0.12-0.084-0.132-0.179-0.072c-0.766,0.431-1.519,0.861-2.357,1.34C2.927,18.233,3.896,18.496,4.961,18.796L4.961,18.796z
	 M19.629,7.561c0.826-0.467,1.627-0.921,2.5-1.412c-1.077-0.287-2.058-0.562-3.099-0.837C19.234,6.09,19.425,6.82,19.629,7.561z
	 M11.924,0.443c-0.036-0.024-0.06-0.048-0.096-0.072c-0.67,0.694-1.34,1.388-2.017,2.082C9.775,2.498,9.743,2.546,9.715,2.596
	c0.682,0.191,1.34,0.371,1.986,0.55c0.156,0.048,0.227,0,0.227-0.179L11.924,0.443z M12.067,23.653l0.108,0.072
	c0.646-0.682,1.304-1.352,1.95-2.034c0.084-0.084,0.227-0.179-0.024-0.239c-0.61-0.156-1.22-0.335-1.83-0.502
	c-0.132-0.036-0.215-0.024-0.215,0.144C12.067,21.954,12.067,22.803,12.067,23.653L12.067,23.653z M17.978,10.768v0.933
	c0,0.084-0.072,0.203,0.06,0.251s0.227-0.024,0.299-0.144c0.407-0.61,0.826-1.208,1.244-1.807c0.096-0.144,0.096-0.227-0.072-0.311
	c-0.431-0.227-0.849-0.467-1.256-0.718c-0.203-0.12-0.251-0.048-0.251,0.156 M6.013,13.268c0-0.299,0.012-0.598,0-0.897
	c0-0.084,0.084-0.215-0.084-0.239c-0.114-0.022-0.228,0.038-0.275,0.144c-0.407,0.61-0.826,1.208-1.244,1.807
	c-0.108,0.156-0.108,0.239,0.072,0.335c0.419,0.215,0.826,0.455,1.232,0.694c0.227,0.144,0.263,0.048,0.263-0.167 M6.193,7.43
	c0,0.239,0.012,0.467,0,0.706C6.181,8.339,6.205,8.447,6.444,8.303l2.261-1.292c0.072-0.048,0.203-0.06,0.167-0.203
	C8.837,6.664,8.734,6.664,8.614,6.652C8.088,6.616,7.55,6.556,7.023,6.52c-0.826-0.06-0.826-0.06-0.826,0.79L6.193,7.43z
	 M17.798,16.642c0-0.227-0.012-0.443,0-0.67c0.024-0.251-0.048-0.311-0.275-0.179c-0.742,0.431-1.484,0.849-2.237,1.268
	c-0.084,0.048-0.215,0.06-0.179,0.203s0.132,0.156,0.251,0.167c0.479,0.036,0.969,0.084,1.448,0.12
	C17.798,17.635,17.798,17.635,17.798,16.642L17.798,16.642z M11.768,18.867c-0.861-0.502-1.675-0.993-2.5-1.472
	c-0.072-0.036-0.144-0.12-0.227-0.036c-0.108,0.096-0.072,0.191-0.012,0.299c0.323,0.658,0.646,1.316,0.945,1.974
	c0.096,0.227,0.203,0.191,0.359,0.084C10.787,19.442,11.254,19.166,11.768,18.867L11.768,18.867z M12.223,5.228
	c0.849,0.502,1.651,0.981,2.465,1.448c0.084,0.048,0.167,0.179,0.287,0.048c0.096-0.108,0.036-0.215-0.012-0.311
	c-0.311-0.658-0.634-1.316-0.945-1.974c-0.06-0.132-0.12-0.191-0.275-0.096C13.264,4.63,12.761,4.917,12.223,5.228L12.223,5.228z
	 M15.214,19.789c-0.55-0.55-1.089-1.077-1.615-1.603c-0.057-0.067-0.157-0.078-0.227-0.024c-0.407,0.239-0.802,0.467-1.232,0.706
	c0.467,0.275,0.933,0.502,1.34,0.802c0.526,0.407,1.065,0.455,1.651,0.191C15.13,19.86,15.142,19.848,15.214,19.789L15.214,19.789z
	 M11.852,5.228c-0.538-0.311-1.065-0.562-1.507-0.909C9.818,3.912,9.339,4.068,8.765,4.295c0.562,0.562,1.101,1.089,1.627,1.627
	c0.096,0.096,0.167,0.06,0.263,0C11.038,5.695,11.421,5.48,11.852,5.228z M18.001,15.314c0.383-0.215,0.742-0.407,1.089-0.61
	c0.275-0.156,0.538-0.311,0.814-0.455c0.114-0.052,0.198-0.153,0.227-0.275c0.06-0.263,0.132-0.514,0.215-0.826
	c-0.383,0.096-0.718,0.167-1.053,0.275c-0.443,0.144-1.077,0.072-1.28,0.443 M3.68,10.959c0.766-0.203,1.496-0.395,2.225-0.586
	c0.078-0.015,0.131-0.089,0.12-0.167V8.77C5.511,9.057,5.08,9.368,4.602,9.559C3.968,9.811,3.728,10.265,3.68,10.959L3.68,10.959z
	 M17.846,8.518c0-0.646-0.06-1.22,0.012-1.783c0.084-0.658-0.299-0.993-0.754-1.364c-0.203,0.766-0.395,1.496-0.598,2.213
	c-0.037,0.082,0,0.178,0.083,0.215c0,0,0.001,0,0.001,0.001C16.989,8.016,17.379,8.255,17.846,8.518z M6.145,15.577
	c0,0.706,0.048,1.34-0.012,1.962s0.407,0.826,0.754,1.208c0.203-0.766,0.383-1.46,0.574-2.154c0.036-0.108,0.072-0.203-0.06-0.287
	C7.006,16.08,6.612,15.852,6.145,15.577z M4.53,11.952h0.742c0.406,0.004,0.738-0.322,0.742-0.727c0-0.001,0-0.002,0-0.002
	c0-0.144-0.012-0.299,0-0.443c0.024-0.215-0.06-0.239-0.263-0.191c-0.574,0.167-1.137,0.371-1.723,0.455
	c-0.455,0.072-0.538,0.347-0.622,0.694c-0.036,0.167,0.012,0.227,0.179,0.227C3.908,11.952,4.219,11.952,4.53,11.952L4.53,11.952z
	 M14.699,17.575c-0.335-0.072-0.538,0.167-0.802,0.287c-0.215,0.096-0.227,0.167-0.06,0.335c0.419,0.407,0.849,0.802,1.232,1.244
	c0.275,0.323,0.55,0.359,0.909,0.215c0.179-0.072,0.191-0.132,0.108-0.287c-0.287-0.479-0.562-0.957-0.826-1.448
	C15.13,17.671,14.986,17.503,14.699,17.575L14.699,17.575z M18.923,12.167c-0.479-0.156-0.718,0.096-0.885,0.443
	c-0.12,0.227-0.024,0.467-0.06,0.694s0.072,0.263,0.275,0.203c0.574-0.167,1.149-0.347,1.723-0.455
	c0.407-0.072,0.514-0.299,0.586-0.634c0.036-0.179,0-0.251-0.191-0.251C19.868,12.179,19.382,12.167,18.923,12.167L18.923,12.167z
	 M7.059,18.796c-0.036,0.191,0.132,0.251,0.215,0.371c0.203,0.275,0.347,0.299,0.526-0.048c0.213-0.436,0.457-0.856,0.73-1.256
	c0.227-0.311,0.156-0.574-0.024-0.837c-0.179-0.263-0.479-0.335-0.73-0.491c-0.072-0.048-0.108,0.012-0.12,0.072
	C7.449,17.336,7.258,18.066,7.059,18.796L7.059,18.796z M7.796,4.546c0.311,0.55,0.622,1.089,0.933,1.639
	c0.169,0.325,0.563,0.462,0.897,0.311c0.239-0.123,0.47-0.259,0.694-0.407C9.83,5.611,9.387,5.168,8.933,4.726
	C8.478,4.283,8.478,4.271,7.796,4.546L7.796,4.546z M5.523,12.12H3.621c-0.096,0-0.263-0.048-0.203,0.144
	c0.144,0.574,0.299,1.149,0.467,1.723c0.048,0.167,0.191,0.251,0.323,0.048C4.638,13.424,5.056,12.802,5.523,12.12z M8.825,17.695
	c-0.335,0.586-0.658,1.125-0.969,1.663c-0.048,0.084-0.132,0.179,0.036,0.227c0.574,0.156,1.149,0.323,1.723,0.455
	c0.191,0.048,0.311-0.036,0.191-0.275C9.495,19.095,9.172,18.425,8.825,17.695L8.825,17.695z M15.166,6.413
	c0.347-0.586,0.658-1.125,0.969-1.663c0.048-0.084,0.12-0.191-0.036-0.227c-0.574-0.156-1.149-0.323-1.723-0.455
	c-0.203-0.048-0.299,0.048-0.191,0.275C14.496,5.001,14.807,5.683,15.166,6.413L15.166,6.413z M18.456,11.976h1.902
	c0.108,0,0.251,0.024,0.191-0.167c-0.144-0.562-0.287-1.125-0.455-1.687c-0.06-0.191-0.191-0.275-0.347-0.06
	C19.353,10.684,18.935,11.294,18.456,11.976z M16.398,19.549c0.467-0.502,0.897-0.969,1.316-1.424
	c0.108-0.12,0.203-0.287-0.06-0.311c-0.754-0.072-1.519-0.12-2.357-0.191C15.68,18.269,16.003,18.855,16.398,19.549z M7.617,4.618
	C7.138,5.109,6.695,5.551,6.265,6.006C6.169,6.102,6.073,6.269,6.301,6.293c0.766,0.084,1.543,0.132,2.393,0.191
	C8.311,5.838,7.988,5.264,7.617,4.618L7.617,4.618z M0.57,12.12c-0.003,0.02-0.007,0.04-0.012,0.06
	c0.431,0.239,0.849,0.502,1.28,0.73c0.299,0.156,0.646,0.55,0.897,0.419c0.215-0.108,0.203-0.622,0.323-0.945
	c0.084-0.239,0-0.275-0.203-0.275C2.089,12.12,1.336,12.12,0.57,12.12L0.57,12.12z M6.241,2.213
	C6.219,2.227,6.194,2.235,6.169,2.237c0,0.502-0.012,0.993,0.012,1.496C6.193,4.068,6.013,4.546,6.277,4.69
	c0.227,0.12,0.646-0.132,0.981-0.215c0.012,0,0.024-0.012,0.036-0.012c0.156-0.024,0.179-0.096,0.096-0.227
	C7.006,3.553,6.624,2.883,6.241,2.213L6.241,2.213z M17.75,21.882c0.024-0.012,0.036-0.012,0.06-0.024v-2.512
	c-0.383,0.096-0.742,0.203-1.101,0.287c-0.179,0.036-0.191,0.108-0.108,0.251C16.989,20.554,17.367,21.224,17.75,21.882
	L17.75,21.882z M23.373,11.976c0.014-0.027,0.026-0.055,0.036-0.084c-0.67-0.383-1.34-0.754-2.01-1.149
	c-0.144-0.084-0.191-0.036-0.227,0.108c-0.072,0.299-0.144,0.598-0.239,0.897c-0.072,0.215,0.024,0.227,0.191,0.227L23.373,11.976z
	 M6.013,8.483V6.7c0-0.084,0.048-0.191-0.048-0.227C5.872,6.429,5.761,6.459,5.702,6.544C5.391,6.867,5.08,7.178,4.757,7.489
	C4.626,7.621,4.662,7.693,4.793,7.765C5.176,7.992,5.571,8.231,6.013,8.483L6.013,8.483z M17.966,15.613v1.783
	c0,0.084-0.06,0.203,0.084,0.251c0.101,0.014,0.201-0.027,0.263-0.108c0.299-0.311,0.61-0.622,0.921-0.921
	c0.12-0.12,0.108-0.191-0.036-0.275C18.803,16.116,18.425,15.876,17.966,15.613L17.966,15.613z M12.091,5.097
	c0.574-0.335,1.089-0.646,1.615-0.945c0.06-0.036,0.108-0.072,0.096-0.144c-0.024-0.12-0.12-0.144-0.215-0.167
	c-0.419-0.108-0.837-0.215-1.256-0.347c-0.179-0.06-0.251-0.012-0.239,0.179V5.097z M11.9,19.824V19.31
	c0.012-0.191-0.012-0.299-0.239-0.156c-0.443,0.275-0.897,0.526-1.34,0.79c-0.06,0.036-0.144,0.06-0.132,0.156
	s0.084,0.144,0.179,0.167c0.239,0.06,0.479,0.132,0.718,0.191C11.9,20.674,11.9,20.674,11.9,19.824L11.9,19.824z M20.406,17.049
	c-0.814-0.479-0.802-0.479-1.041,0.431c-0.06,0.239,0.024,0.287,0.215,0.299c0.73,0.048,1.472,0.108,2.261,0.167 M18.073,8.662
	c0.538,0.311,1.041,0.598,1.543,0.873c0.072,0.036,0.132,0.132,0.227,0.072c0.078-0.069,0.102-0.18,0.06-0.275
	c-0.108-0.431-0.239-0.861-0.347-1.292c-0.036-0.144-0.072-0.191-0.215-0.108C18.935,8.171,18.528,8.399,18.073,8.662L18.073,8.662z
	 M5.93,15.446c-0.562-0.311-1.053-0.598-1.543-0.873c-0.072-0.036-0.144-0.12-0.239-0.06s-0.084,0.179-0.06,0.275
	c0.108,0.431,0.239,0.861,0.347,1.292c0.036,0.144,0.072,0.179,0.215,0.096C5.056,15.924,5.475,15.697,5.93,15.446z M2.034,17.551
	c0.013,0.022,0.029,0.042,0.048,0.06c0.682-0.383,1.376-0.778,2.058-1.161c0.156-0.096,0.036-0.156-0.024-0.227
	c-0.172-0.158-0.336-0.326-0.491-0.502c-0.167-0.203-0.251-0.132-0.371,0.048C2.843,16.367,2.436,16.953,2.034,17.551L2.034,17.551z
	 M21.978,6.544c-0.108,0-0.132-0.012-0.156,0c-0.419,0.239-0.837,0.467-1.256,0.706c-0.885,0.502-0.873,0.491-0.12,1.184
	c0.12,0.108,0.167,0.108,0.251-0.024c0.402-0.598,0.821-1.208,1.275-1.866L21.978,6.544z M18.013,6.341v1.878
	c0,0.191,0.072,0.203,0.227,0.12c0.383-0.215,0.766-0.431,1.161-0.658C18.947,7.238,18.504,6.82,18.013,6.341L18.013,6.341z
	 M2.209,6.245c0.491,0.287,0.945,0.55,1.388,0.814C4.446,7.561,4.434,7.561,4.65,6.58c0.036-0.167,0-0.227-0.167-0.239
	C3.752,6.305,3.01,6.173,2.209,6.245z M5.882,8.626C5.427,8.363,5.032,8.124,4.626,7.884c-0.06-0.036-0.144-0.06-0.167,0.048
	C4.303,8.494,4.147,9.057,3.98,9.691C4.65,9.332,5.236,8.997,5.882,8.626L5.882,8.626z M5.978,17.755c0-0.622-0.012-1.22,0-1.807
	c0-0.251-0.072-0.275-0.275-0.156c-0.359,0.215-0.73,0.419-1.113,0.634c0.455,0.431,0.897,0.861,1.393,1.328H5.978z M18.109,15.481
	c0.443,0.263,0.814,0.491,1.196,0.706c0.072,0.048,0.179,0.144,0.227-0.024c0.156-0.562,0.311-1.125,0.479-1.759
	C19.341,14.776,18.755,15.111,18.109,15.481z M12.067,19.047v1.436c0,0.144,0.048,0.179,0.179,0.144
	c0.55-0.144,1.101-0.299,1.723-0.455C13.312,19.777,12.725,19.43,12.067,19.047z M10.021,3.936c0.658,0.383,1.256,0.742,1.902,1.113
	V3.625c0-0.167-0.072-0.179-0.203-0.144C11.17,3.625,10.632,3.769,10.021,3.936L10.021,3.936z M11.792,23.461
	c0.024,0,0.036-0.012,0.06-0.012v-0.814c0-0.275,0.012-0.538,0.012-0.814c0-0.957,0-0.945-0.909-0.682
	c-0.203,0.06-0.227,0.12-0.144,0.299C11.146,22.11,11.469,22.792,11.792,23.461L11.792,23.461z M2.927,10.301
	c0.275-0.191,0.694-0.239,0.814-0.538c0.215-0.526,0.323-1.101,0.491-1.699C4.197,8.077,4.165,8.093,4.135,8.112
	C3.8,8.447,3.465,8.77,3.13,9.105C2.652,9.595,2.652,9.595,2.927,10.301L2.927,10.301z M12.211,0.658
	c-0.036,0-0.06,0.012-0.096,0.012v1.627c0,0.981,0.048,1.005,0.981,0.634C13.252,2.871,13.24,2.8,13.18,2.68
	C12.857,2.022,12.534,1.34,12.211,0.658L12.211,0.658z M19.784,15.912c0.144,0.036,0.203-0.06,0.275-0.12
	c0.335-0.323,0.67-0.658,1.005-0.993c0.191-0.191,0.215-0.706,0.036-0.909c-0.022-0.025-0.051-0.041-0.084-0.048
	c-0.167-0.012-0.79,0.467-0.837,0.658C20.047,14.955,19.916,15.422,19.784,15.912z M5.966,19.011
	c-0.096-0.347,0.144-0.718-0.108-1.017c-0.347-0.419-0.754-0.778-1.137-1.161c0.048,0.479,0.191,0.909,0.263,1.364
	c0.072,0.538,0.359,0.802,0.885,0.837C5.87,19.035,5.882,19.023,5.966,19.011z M19.27,7.25c0.021-0.009,0.042-0.021,0.06-0.036
	c-0.144-0.55-0.287-1.101-0.431-1.639C18.827,5.3,18.42,5.037,18.145,5.097c-0.034,0.001-0.066,0.019-0.084,0.048
	c-0.072,0.096-0.024,0.873,0.06,0.969C18.504,6.485,18.887,6.867,19.27,7.25z M11.469,3.362V3.278
	C10.871,3.111,10.261,2.955,9.662,2.8C9.531,2.764,9.028,3.147,9.016,3.278c0,0.024,0.012,0.084,0.036,0.096
	c0.311,0.144,0.55,0.491,0.957,0.395C10.5,3.625,10.991,3.493,11.469,3.362L11.469,3.362z M12.522,20.746
	c0.002,0.028-0.002,0.057-0.012,0.084c0.586,0.156,1.184,0.323,1.771,0.479c0.156,0.036,0.658-0.311,0.682-0.467
	c-0.001-0.033-0.009-0.066-0.024-0.096c-0.311-0.144-0.538-0.479-0.921-0.395C13.52,20.459,13.012,20.614,12.522,20.746
	L12.522,20.746z M2.376,5.934c0.002,0.021-0.002,0.041-0.012,0.06C3.07,6.054,3.776,6.102,4.47,6.161
	c0.132,0.012,0.275,0.048,0.323-0.144c0.06-0.239,0.12-0.467,0.191-0.754C4.087,5.491,3.231,5.719,2.376,5.934z M21.627,18.161
	c-0.012-0.012-0.012-0.036-0.024-0.048c-0.694-0.06-1.376-0.108-2.07-0.156c-0.132-0.012-0.287-0.06-0.335,0.132
	c-0.06,0.239-0.12,0.491-0.191,0.778C19.916,18.616,20.765,18.389,21.627,18.161L21.627,18.161z M11.505,23.33
	c-0.227-0.491-0.467-0.981-0.694-1.472c-0.287-0.61-0.287-0.598-0.945-0.419c-0.227,0.06-0.239,0.12-0.072,0.263
	C10.356,22.229,10.931,22.768,11.505,23.33z M22.033,6.987c-0.036-0.012-0.072-0.036-0.108-0.048
	c-0.263,0.371-0.514,0.742-0.778,1.113c-0.479,0.694-0.479,0.694,0.156,1.268c0.012,0.012,0.048,0.012,0.084,0.024
	C21.615,8.554,21.818,7.765,22.033,6.987L22.033,6.987z M14.305,2.584c-0.191-0.335-1.46-1.579-1.759-1.699
	c0.203,0.443,0.395,0.837,0.586,1.244c0.359,0.754,0.371,0.754,1.161,0.479C14.293,2.599,14.298,2.59,14.305,2.584z M17.989,18.568
	c0.012,0.586-0.096,0.562,0.538,0.407c0.215-0.06,0.586-0.73,0.491-0.969c-0.096-0.239-0.371-0.12-0.562-0.132
	C18.085,17.838,17.989,18.006,17.989,18.568L17.989,18.568z M6.002,5.539V5.396c0.036-0.299-0.036-0.455-0.383-0.311
	C5.415,5.168,5.176,5.133,5.128,5.444C5.092,5.659,5.02,5.874,4.973,6.09C4.961,6.161,5.008,6.185,5.08,6.209
	C5.678,6.425,6.002,6.185,6.002,5.539L6.002,5.539z M21.315,9.631c-0.132-0.203-0.359-0.359-0.526-0.562
	c-0.132-0.156-0.239-0.203-0.347,0.024c-0.06,0.108-0.132,0.203-0.203,0.311c-0.127,0.152-0.107,0.378,0.044,0.506
	c0.009,0.007,0.018,0.014,0.027,0.021c0.212,0.15,0.436,0.282,0.67,0.395c0.084,0.048,0.144,0.024,0.167-0.06
	C21.208,10.05,21.256,9.858,21.315,9.631L21.315,9.631z M9.555,21.332c0.251-0.06,0.514-0.132,0.778-0.203
	c0.06-0.012,0.12-0.072,0.072-0.144c-0.167-0.239-0.144-0.634-0.538-0.682c-0.108-0.012-0.861,0.347-0.909,0.443
	c-0.015,0.021-0.02,0.047-0.012,0.072C8.945,20.901,9.435,21.32,9.555,21.332L9.555,21.332z M14.46,2.764
	c-0.275,0.072-0.526,0.132-0.778,0.203c-0.036,0.012-0.096,0.048-0.096,0.084c-0.06,0.215,0.431,0.814,0.634,0.742
	c0.28-0.124,0.548-0.272,0.802-0.443c0.024-0.025,0.033-0.062,0.024-0.096C14.855,3.099,14.723,2.847,14.46,2.764L14.46,2.764z
	 M17.989,21.499c0.024,0,0.06,0.012,0.084,0.012c0.215-0.778,0.419-1.567,0.646-2.393c-0.129,0.041-0.261,0.073-0.395,0.096
	c-0.287,0.024-0.359,0.167-0.347,0.443C18.001,20.267,17.989,20.889,17.989,21.499z M6.002,2.608
	c-0.024-0.012-0.06-0.012-0.084-0.024C5.702,3.362,5.487,4.152,5.272,4.953c0.73-0.096,0.73-0.096,0.73-0.754L6.002,2.608z
	 M3.829,14.56c0-0.275-0.538-0.778-0.837-0.766c-0.263,0.012-0.167,0.323-0.251,0.491c-0.012,0.024-0.012,0.048-0.024,0.072
	c-0.024,0.132,0.562,0.849,0.682,0.826c0.012,0,0.024-0.012,0.036-0.012C3.59,14.955,3.752,14.764,3.829,14.56L3.829,14.56z
	 M18.114,2.596h-0.072c0,0.598,0.036,1.196-0.012,1.795c-0.036,0.407,0.132,0.538,0.479,0.598c0.179,0.036,0.239,0.012,0.191-0.167
	c-0.196-0.742-0.388-1.484-0.591-2.225L18.114,2.596z M5.241,19.107c0.215,0.802,0.419,1.579,0.634,2.357
	c0.024,0,0.048-0.012,0.072-0.012v-1.627c0-0.598,0-0.598-0.574-0.73c-0.029-0.012-0.053,0-0.136,0.012L5.241,19.107z M17.085,2.177
	l-0.036-0.072c-0.646,0.167-1.28,0.323-1.914,0.502c-0.096,0.024-0.359-0.012-0.263,0.179c0.096,0.191,0.251,0.502,0.491,0.383
	c0.581-0.299,1.149-0.67,1.718-0.993H17.085z M0.917,11.426c0.455-0.251,0.873-0.479,1.28-0.718c0.55-0.311,0.55-0.311,0.383-0.921
	c0-0.012-0.036-0.024-0.072-0.06C1.982,10.277,1.467,10.827,0.917,11.426L0.917,11.426z M16.877,22.002
	c0.011-0.038,0.027-0.074,0.048-0.108l-1.292-0.754c-0.479-0.287-0.622-0.239-0.873,0.299C15.465,21.631,16.171,21.81,16.877,22.002
	L16.877,22.002z M23.026,11.474c0.012-0.012,0.012-0.036,0.024-0.048c-0.526-0.526-1.053-1.053-1.591-1.579
	c0,0.227-0.323,0.502-0.06,0.694C21.914,10.887,22.476,11.162,23.026,11.474L23.026,11.474z M23.074,12.215
	c-0.013-0.013-0.021-0.03-0.024-0.048h-1.926c-0.108,0-0.299-0.036-0.227,0.167c0.048,0.144-0.036,0.455,0.263,0.383
	C21.806,12.562,22.44,12.383,23.074,12.215z M0.977,11.868c0,0.024,0.012,0.06,0.012,0.084h1.95c0.144,0,0.227-0.06,0.167-0.191
	c-0.06-0.132,0.036-0.455-0.275-0.383C2.197,11.533,1.587,11.713,0.977,11.868z M6.109,21.452c0.012,0,0.024,0.012,0.036,0.012
	c0.132-0.502,0.275-1.017,0.407-1.519s0.144-0.514-0.383-0.622c-0.012,0-0.036,0.024-0.072,0.036
	C6.109,20.052,6.109,20.746,6.109,21.452L6.109,21.452z M17.882,2.704h-0.055c-0.156,0.598-0.323,1.184-0.479,1.783
	c-0.084,0.335,0.227,0.215,0.359,0.275c0.215,0.108,0.167-0.096,0.167-0.203C17.882,3.936,17.882,3.326,17.882,2.704L17.882,2.704z
	 M6.791,2.536C6.755,2.56,6.719,2.596,6.683,2.62c0.299,0.526,0.598,1.041,0.897,1.567c0.072,0.132,0.156,0.12,0.215,0.012
	C7.868,4.068,8.203,4.02,7.999,3.781C7.617,3.35,7.198,2.943,6.791,2.536z M6.36,21.368c0.144,0.012,0.156-0.084,0.203-0.156
	c0.263-0.443,0.514-0.873,0.766-1.316c0.048-0.084,0.215-0.239-0.024-0.275c-0.144-0.012-0.383-0.299-0.479,0.048
	C6.66,20.231,6.516,20.805,6.36,21.368L6.36,21.368z M17.619,2.764c-0.03-0.014-0.063-0.022-0.096-0.024
	c-0.299,0.514-0.598,1.017-0.897,1.531c-0.048,0.084-0.12,0.215,0.048,0.215c0.167,0,0.383,0.263,0.467-0.012
	C17.331,3.912,17.468,3.326,17.619,2.764L17.619,2.764z M17.188,21.535c0.057-0.114,0.038-0.252-0.048-0.347l-0.682-1.184
	c-0.048-0.084-0.108-0.299-0.239-0.096c-0.096,0.12-0.419,0.179-0.191,0.443C16.398,20.746,16.781,21.14,17.188,21.535z
	 M15.314,20.734c0.598,0.347,1.125,0.67,1.663,0.993c0.06-0.179-0.072-0.239-0.156-0.323c-0.275-0.287-0.574-0.55-0.837-0.849
	c-0.179-0.191-0.299-0.215-0.455,0C15.489,20.614,15.417,20.65,15.314,20.734L15.314,20.734z M22.888,12.562
	c-0.598,0.024-1.149,0.191-1.699,0.359c-0.215,0.072-0.048,0.275-0.036,0.407c0.012,0.084,0.048,0.179,0.167,0.108
	c0.522-0.287,1.036-0.586,1.563-0.873H22.888z M7.059,2.453c-0.012,0.024-0.024,0.06-0.036,0.084C7.346,2.859,7.681,3.17,7.98,3.505
	c0.203,0.227,0.347,0.215,0.502-0.012c0.036-0.06,0.12-0.084,0.108-0.191C8.083,3.051,7.617,2.668,7.059,2.453L7.059,2.453z
	 M3.302,12.502c-0.419,1.208-0.538,0.957,0.371,1.4c-0.136-0.491-0.256-0.945-0.376-1.4H3.302z M20.31,10.169
	c0.144,0.526,0.263,0.981,0.407,1.531C21.124,10.588,21.124,10.588,20.31,10.169z M9.471,20.195
	c-0.514-0.144-0.993-0.263-1.507-0.407C8.658,20.71,8.681,20.722,9.471,20.195z M16.063,4.319c-1.005-1.065-0.67-0.945-1.531-0.419
	C15.034,4.044,15.501,4.175,16.063,4.319z M17.81,18.472c-0.287,0.287-0.61,0.598-0.909,0.885
	C17.762,19.346,17.846,19.262,17.81,18.472z M6.181,18.329c-0.156,0.682-0.108,0.778,0.347,0.873
	c0.072,0.012,0.191,0.132,0.239-0.036c0.036-0.108,0.072-0.203-0.036-0.299C6.552,18.7,6.372,18.52,6.181,18.329L6.181,18.329z
	 M17.786,5.862c0.167-0.778,0.132-0.885-0.311-0.969c-0.084-0.012-0.191-0.084-0.251,0.06c-0.051,0.099-0.032,0.221,0.048,0.299
	C17.439,5.432,17.587,5.623,17.786,5.862L17.786,5.862z M9.507,3.876C8.849,3.398,8.837,3.398,8.55,3.709
	c-0.06,0.06-0.191,0.108-0.108,0.239C8.496,4.066,8.631,4.124,8.753,4.08C8.981,3.996,9.232,3.948,9.507,3.876L9.507,3.876z
	 M20.37,13.938c0.634-0.215,0.706-0.311,0.562-0.718c-0.024-0.084-0.024-0.203-0.167-0.191c-0.108,0.012-0.203,0.048-0.227,0.156
	C20.478,13.424,20.358,13.663,20.37,13.938L20.37,13.938z M3.657,10.146c-0.718,0.299-0.742,0.323-0.61,0.718
	c0.024,0.084,0.024,0.215,0.156,0.215c0.133,0.011,0.251-0.083,0.268-0.215C3.525,10.648,3.59,10.421,3.657,10.146z M3.92,14.859
	c-0.491,0.55-0.467,0.622,0.311,1.172C4.123,15.625,4.027,15.242,3.92,14.859L3.92,14.859z M14.484,20.219
	c0.658,0.479,0.658,0.479,0.945,0.167c0.06-0.072,0.191-0.12,0.12-0.239c-0.063-0.115-0.201-0.166-0.323-0.12
	C14.998,20.1,14.759,20.147,14.484,20.219z M10.392,20.447c0.215,0.658,0.359,0.694,1.137,0.299
	C11.146,20.65,10.799,20.554,10.392,20.447z M4.685,7.19c0.251-0.227,0.526-0.467,0.802-0.718C4.865,6.281,4.805,6.341,4.685,7.19z
	 M19.317,16.786c-0.299,0.311-0.586,0.538-0.814,0.861C19.174,17.767,19.102,17.898,19.317,16.786z"/>
<path class="st1" d="M16.303,7.621c-0.359-0.239-0.802-0.335-0.957-0.802c-0.062-0.134-0.058-0.289,0.012-0.419
	c0.311-0.514,0.61-1.029,0.897-1.543c0.12-0.203,0.191-0.167,0.347-0.036c0.263,0.227,0.359,0.455,0.239,0.802
	C16.638,6.281,16.482,6.951,16.303,7.621z M17.595,2.118c-0.012,0.275-0.203,0.467-0.323,0.682
	c-0.287,0.502-0.586,1.005-0.873,1.507c-0.323-0.335-0.61-0.646-0.921-0.969C16.159,2.943,16.853,2.477,17.595,2.118z M6.372,21.954
	c0.407-0.718,0.814-1.448,1.22-2.177c0.371,0.299,0.646,0.634,0.969,0.969c-0.742,0.419-1.424,0.873-2.165,1.232L6.372,21.954z"/>
<path class="st0" d="M13.563,3.613c-0.371-0.012-0.694-0.167-1.053-0.251C13.132,2.919,13.431,3.003,13.563,3.613z M19.844,8.159
	c0.072,0.06,0.156,0.12,0.227,0.191c0.407,0.407,0.407,0.407,0.036,0.885c-0.132-0.144-0.12-0.335-0.179-0.491
	c-0.051-0.177-0.091-0.357-0.12-0.538C19.817,8.189,19.829,8.173,19.844,8.159z M6.341,22.002c0.012-0.012,0.024-0.036,0.036-0.048
	l0.024,0.024 M1.886,6.401c-0.012-0.036-0.012-0.06-0.024-0.096c0.036,0,0.06,0.012,0.096,0.012
	C1.934,6.341,1.915,6.377,1.886,6.401z"/>
</svg>
