<svg width="30" height="40" viewBox="0 0 30 40" fill="none"
  xmlns="http://www.w3.org/2000/svg">
  <mask id="path-1-inside-1_735:25170" fill="white">
    <path fill-rule="evenodd" clip-rule="evenodd" d="M18.7847 0.0676805C18.4506 0.264639 17.5771 0.989948 16.818 1.7007C14.8566 3.53718 13.3317 5.60301 12.1267 8.05618C10.746 10.867 10.1775 13.6574 10.0032 18.4795L9.95117 19.9185L9.63043 19.8212C9.15174 19.6762 8.77791 19.4644 8.30823 19.0724C7.23482 18.1765 6.4675 16.7672 5.94544 14.7326C5.64842 13.5752 5.4958 13.3601 4.97162 13.3601C4.3736 13.3601 3.07247 14.4868 2.27712 15.6933C0.755563 18.0011 0.0212116 20.909 0.000773814 24.7065C-0.00940594 26.5972 0.0775135 27.3756 0.46082 28.829C1.69461 33.5063 5.18822 37.3802 9.68696 39.0591C11.5123 39.7404 12.9748 40 14.9869 40C16.9989 40 18.4614 39.7404 20.2867 39.0591C24.2658 37.5741 27.5502 34.292 29.0362 30.3157C29.8379 28.1709 30.1272 26.0967 29.9497 23.7675C29.6937 20.409 28.9565 17.9481 27.3241 15.0034C26.7113 13.8978 25.804 12.5529 24.0037 10.0812C22.365 7.83129 21.8138 6.98547 21.2452 5.84801C20.5026 4.36241 20.1409 3.03629 20.0112 1.32322C19.951 0.529518 19.9236 0.41668 19.7483 0.241398C19.5233 0.0165825 19.0241 -0.0734845 18.7847 0.0676805ZM18.5898 3.27926C18.8065 4.38221 19.1588 5.37913 19.7604 6.5914C20.4274 7.93567 20.9718 8.77343 22.8118 11.2865C25.0504 14.344 25.8932 15.6816 26.7179 17.4861C27.6389 19.5009 28.1306 21.5381 28.2923 24.0072C28.4518 26.445 28.053 28.5939 27.0507 30.6975C25.9966 32.9098 24.4273 34.7436 22.4156 36.1137C22.0349 36.373 20.4568 37.2267 20.3583 37.2267C20.3268 37.2267 20.3758 37.1218 20.4672 36.9935C20.7441 36.6048 21.3043 35.3437 21.4585 34.7618C21.5747 34.3234 21.6021 33.9485 21.5959 32.8838C21.5887 31.6683 21.5675 31.4756 21.3509 30.6506C21.0198 29.3894 20.4992 28.3483 19.3391 26.6266C17.9127 24.5097 17.7139 24.0815 17.5691 22.8125C17.509 22.2861 17.4604 22.1382 17.2878 21.9583C17.0081 21.6665 16.7098 21.6101 16.3495 21.781C15.8899 21.999 14.7595 23.1811 14.1834 24.0463C13.1018 25.6706 12.6579 27.0291 12.4974 29.206L12.4397 29.9885L12.2299 29.6755C12.0404 29.3928 11.7754 28.6734 11.665 28.1423C11.538 27.5305 10.8121 27.3316 10.2339 27.7502C9.45032 28.3174 8.86005 29.3844 8.51527 30.8569C8.30847 31.7401 8.30839 33.9816 8.5152 34.7618C8.66938 35.3437 9.22958 36.6048 9.50655 36.9935C9.59793 37.1218 9.65173 37.2267 9.62604 37.2267C9.4143 37.2267 7.68852 36.231 7.01995 35.723C4.38425 33.7207 2.61125 30.9486 1.91958 27.7482C1.3048 24.904 1.73227 20.6746 2.90138 18.034C3.259 17.226 4.25278 15.7077 4.4238 15.7077C4.45097 15.7077 4.53476 15.9277 4.61001 16.1967C4.79364 16.8535 5.40716 18.1204 5.89328 18.8467C7.02637 20.5396 8.63031 21.5388 10.3686 21.6345L11.1169 21.6757C11.1169 21.6757 11.3413 21.6756 11.4718 21.5191C11.6023 21.3626 11.6023 21.1906 11.6023 21.1906L11.652 19.5642C11.8261 13.8644 12.2665 11.5194 13.7024 8.64572C14.3304 7.38901 14.9768 6.36697 15.9171 5.14375C16.4297 4.47705 18.3514 2.4545 18.4134 2.51647C18.4315 2.53462 18.5109 2.87791 18.5898 3.27926ZM16.6523 25.5304C16.7611 25.7444 17.2999 26.5885 17.8495 27.4062C18.95 29.0434 19.4358 29.9785 19.679 30.9275C20.1646 32.822 20.0873 34.0703 19.3958 35.5052C19.0974 36.1243 18.9314 36.3538 18.4022 36.8783C17.3713 37.8997 16.334 38.3454 14.9869 38.3454C13.6398 38.3454 12.6024 37.8997 11.5715 36.8783C11.0428 36.3543 10.876 36.1238 10.5775 35.5052C10.0932 34.5017 9.93832 33.7127 10 32.5629C10.046 31.7061 10.2145 30.7693 10.4034 30.3203L10.4999 30.0911L10.6995 30.431C11.2256 31.3269 12.0408 31.9177 12.8987 32.0247C13.3892 32.086 13.8252 31.9377 13.9773 31.658C14.0393 31.544 14.0981 30.9598 14.1336 30.1059C14.1947 28.6355 14.2841 27.9579 14.531 27.0932C14.7196 26.4328 15.3034 25.294 15.7697 24.6768L16.1102 24.2261L16.2823 24.6838C16.377 24.9355 16.5435 25.3165 16.6523 25.5304Z"/>
  </mask>
  <path fill-rule="evenodd" clip-rule="evenodd" d="M18.7847 0.0676805C18.4506 0.264639 17.5771 0.989948 16.818 1.7007C14.8566 3.53718 13.3317 5.60301 12.1267 8.05618C10.746 10.867 10.1775 13.6574 10.0032 18.4795L9.95117 19.9185L9.63043 19.8212C9.15174 19.6762 8.77791 19.4644 8.30823 19.0724C7.23482 18.1765 6.4675 16.7672 5.94544 14.7326C5.64842 13.5752 5.4958 13.3601 4.97162 13.3601C4.3736 13.3601 3.07247 14.4868 2.27712 15.6933C0.755563 18.0011 0.0212116 20.909 0.000773814 24.7065C-0.00940594 26.5972 0.0775135 27.3756 0.46082 28.829C1.69461 33.5063 5.18822 37.3802 9.68696 39.0591C11.5123 39.7404 12.9748 40 14.9869 40C16.9989 40 18.4614 39.7404 20.2867 39.0591C24.2658 37.5741 27.5502 34.292 29.0362 30.3157C29.8379 28.1709 30.1272 26.0967 29.9497 23.7675C29.6937 20.409 28.9565 17.9481 27.3241 15.0034C26.7113 13.8978 25.804 12.5529 24.0037 10.0812C22.365 7.83129 21.8138 6.98547 21.2452 5.84801C20.5026 4.36241 20.1409 3.03629 20.0112 1.32322C19.951 0.529518 19.9236 0.41668 19.7483 0.241398C19.5233 0.0165825 19.0241 -0.0734845 18.7847 0.0676805ZM18.5898 3.27926C18.8065 4.38221 19.1588 5.37913 19.7604 6.5914C20.4274 7.93567 20.9718 8.77343 22.8118 11.2865C25.0504 14.344 25.8932 15.6816 26.7179 17.4861C27.6389 19.5009 28.1306 21.5381 28.2923 24.0072C28.4518 26.445 28.053 28.5939 27.0507 30.6975C25.9966 32.9098 24.4273 34.7436 22.4156 36.1137C22.0349 36.373 20.4568 37.2267 20.3583 37.2267C20.3268 37.2267 20.3758 37.1218 20.4672 36.9935C20.7441 36.6048 21.3043 35.3437 21.4585 34.7618C21.5747 34.3234 21.6021 33.9485 21.5959 32.8838C21.5887 31.6683 21.5675 31.4756 21.3509 30.6506C21.0198 29.3894 20.4992 28.3483 19.3391 26.6266C17.9127 24.5097 17.7139 24.0815 17.5691 22.8125C17.509 22.2861 17.4604 22.1382 17.2878 21.9583C17.0081 21.6665 16.7098 21.6101 16.3495 21.781C15.8899 21.999 14.7595 23.1811 14.1834 24.0463C13.1018 25.6706 12.6579 27.0291 12.4974 29.206L12.4397 29.9885L12.2299 29.6755C12.0404 29.3928 11.7754 28.6734 11.665 28.1423C11.538 27.5305 10.8121 27.3316 10.2339 27.7502C9.45032 28.3174 8.86005 29.3844 8.51527 30.8569C8.30847 31.7401 8.30839 33.9816 8.5152 34.7618C8.66938 35.3437 9.22958 36.6048 9.50655 36.9935C9.59793 37.1218 9.65173 37.2267 9.62604 37.2267C9.4143 37.2267 7.68852 36.231 7.01995 35.723C4.38425 33.7207 2.61125 30.9486 1.91958 27.7482C1.3048 24.904 1.73227 20.6746 2.90138 18.034C3.259 17.226 4.25278 15.7077 4.4238 15.7077C4.45097 15.7077 4.53476 15.9277 4.61001 16.1967C4.79364 16.8535 5.40716 18.1204 5.89328 18.8467C7.02637 20.5396 8.63031 21.5388 10.3686 21.6345L11.1169 21.6757C11.1169 21.6757 11.3413 21.6756 11.4718 21.5191C11.6023 21.3626 11.6023 21.1906 11.6023 21.1906L11.652 19.5642C11.8261 13.8644 12.2665 11.5194 13.7024 8.64572C14.3304 7.38901 14.9768 6.36697 15.9171 5.14375C16.4297 4.47705 18.3514 2.4545 18.4134 2.51647C18.4315 2.53462 18.5109 2.87791 18.5898 3.27926ZM16.6523 25.5304C16.7611 25.7444 17.2999 26.5885 17.8495 27.4062C18.95 29.0434 19.4358 29.9785 19.679 30.9275C20.1646 32.822 20.0873 34.0703 19.3958 35.5052C19.0974 36.1243 18.9314 36.3538 18.4022 36.8783C17.3713 37.8997 16.334 38.3454 14.9869 38.3454C13.6398 38.3454 12.6024 37.8997 11.5715 36.8783C11.0428 36.3543 10.876 36.1238 10.5775 35.5052C10.0932 34.5017 9.93832 33.7127 10 32.5629C10.046 31.7061 10.2145 30.7693 10.4034 30.3203L10.4999 30.0911L10.6995 30.431C11.2256 31.3269 12.0408 31.9177 12.8987 32.0247C13.3892 32.086 13.8252 31.9377 13.9773 31.658C14.0393 31.544 14.0981 30.9598 14.1336 30.1059C14.1947 28.6355 14.2841 27.9579 14.531 27.0932C14.7196 26.4328 15.3034 25.294 15.7697 24.6768L16.1102 24.2261L16.2823 24.6838C16.377 24.9355 16.5435 25.3165 16.6523 25.5304Z" fill="white" stroke="#1E2433" stroke-width="0.7" mask="url(#path-1-inside-1_735:25170)"/>
</svg>
