<svg width="28" height="43" viewBox="0 0 28 43" fill="none" xmlns="http://www.w3.org/2000/svg">
<mask id="path-1-inside-1_735:25213" fill="white">
<path fill-rule="evenodd" clip-rule="evenodd" d="M13.0447 0.0901449C11.3974 0.414872 9.97481 1.20172 8.78521 2.44597C8.45051 2.79601 8.13672 3.08247 8.08804 3.08247C8.03935 3.08247 7.89182 2.96552 7.76033 2.82249C7.25806 2.27654 6.54305 2.09467 5.98135 2.36996C5.59714 2.55822 3.03566 5.25021 2.88398 5.62513C2.64282 6.22128 2.7875 6.75739 3.34985 7.35059L3.68945 7.70878L2.98868 8.44366C1.7079 9.78654 1.02888 11.1051 0.719575 12.8495C0.590202 13.5788 0.609173 15.1063 0.756457 15.8288C1.0183 17.1132 1.63479 18.4587 2.38823 19.3899L2.66171 19.728L2.54129 20.1288C2.24689 21.1082 2.70714 22.2287 3.56846 22.6298C3.7812 22.7289 3.89812 22.8384 3.89812 22.9387C3.89812 23.0829 3.81076 23.0941 2.69721 23.0946C1.33184 23.0951 0.999407 23.1642 0.593703 23.5322C0.139637 23.9439 -0.0330501 24.3719 0.00513473 24.9912C0.0469834 25.6697 0.329828 26.1136 0.910825 26.4126C1.31718 26.6217 1.35846 26.6256 3.16984 26.6256H5.01493L5.32277 27.1091C6.05976 28.2666 7.55255 29.4665 8.92859 30.0072C9.32925 30.1647 9.58856 30.3117 9.56715 30.3694C9.44795 30.6901 7.72475 37.7425 7.72475 37.9095C7.72475 38.1934 8.00865 38.4812 8.28881 38.4812C8.78855 38.4812 8.79979 38.4512 9.82296 34.3612L10.7801 30.5354L11.4304 30.5649C11.788 30.5811 12.0901 30.6036 12.1018 30.6149C12.1135 30.6262 11.5192 33.0534 10.7812 36.0087C9.58701 40.7906 9.41612 41.4029 9.22886 41.5713C8.95912 41.8137 8.68678 41.8114 8.40858 41.5643C8.1513 41.3357 8.13762 41.1193 8.33139 40.3469C8.47794 39.7629 8.43658 39.4594 8.18582 39.2781C7.69739 38.9248 7.32149 39.2622 7.09417 40.258C6.84422 41.353 6.99248 41.9643 7.64838 42.5442C8.26381 43.0883 9.18147 43.1526 9.83737 42.6976C10.4035 42.305 10.5438 41.9939 11.0282 40.0567C11.2738 39.0746 11.4945 38.2045 11.5188 38.1231C11.5602 37.984 11.8249 37.9766 15.9703 37.997L20.3778 38.0188L20.4939 38.51C20.5988 38.9541 20.5961 39.0485 20.4657 39.4933C20.0814 40.8039 20.6752 42.1749 21.8788 42.7562C22.8336 43.2173 24.0587 42.9837 24.7951 42.1999C25.2635 41.7014 25.4939 41.1609 25.5358 40.4627C25.587 39.6052 25.3572 39.0151 24.721 38.3711L24.2384 37.8826L23.308 34.167C22.7962 32.1234 22.3618 30.4064 22.3425 30.3515C22.3217 30.2921 22.4792 30.1935 22.7304 30.1085C25.3111 29.2358 27.3431 26.7996 27.8796 23.9349C28.0464 23.0444 28.0381 21.2315 27.8656 20.8559C27.6469 20.3801 27.3229 20.2036 26.5752 20.1532L25.9216 20.1092L25.8809 19.2263C25.8324 18.175 25.6973 17.8692 25.1471 17.5659C24.8271 17.3894 24.6944 17.3678 24.0778 17.3915C23.2537 17.4232 23.0313 17.5569 23.0313 18.021C23.0313 18.4492 23.2471 18.5881 23.9898 18.6377L24.6189 18.6798L24.6429 19.3451C24.6601 19.8206 24.6368 20.0302 24.5615 20.0796C24.5035 20.1176 21.9051 20.1492 18.7871 20.15C14.0119 20.1511 13.1033 20.1326 13.0232 20.0328C12.9642 19.9595 12.9372 19.6799 12.9521 19.2971L12.9762 18.6798L16.9613 18.6579C20.9212 18.6362 20.9475 18.635 21.1339 18.4541C21.363 18.2318 21.3763 17.8855 21.1659 17.6171L21.0103 17.4185L16.9933 17.3947C12.5594 17.3684 12.5064 17.3737 12.086 17.8897C11.8116 18.2265 11.7152 18.6333 11.7147 19.4576L11.7142 20.1512H9.10714H6.49998L6.40505 19.936C6.31264 19.7266 6.50821 19.516 13.5678 12.2214C17.6549 7.99836 20.8628 4.61866 20.9107 4.48539C21.1697 3.76514 20.889 3.18102 19.8204 2.21617C18.6048 1.11873 17.6698 0.586652 16.3068 0.217194C15.475 -0.00831577 13.8627 -0.0711255 13.0447 0.0901449ZM16.0701 1.44715C17.2348 1.77423 18.3461 2.46825 19.2848 3.45479L19.8127 4.00965L12.6492 11.4116C6.10022 18.1787 5.46834 18.8085 5.28222 18.7537C5.07827 18.6936 4.03107 18.6817 3.6594 18.7354C3.40668 18.7718 2.97094 18.2086 2.5106 17.2504C1.49866 15.1442 1.64765 12.486 2.8887 10.5039C3.26388 9.90477 9.84291 3.05061 10.5337 2.5393C11.3449 1.9387 12.3529 1.49357 13.3019 1.31683C13.88 1.20912 15.4927 1.28504 16.0701 1.44715ZM6.92645 3.72882C7.05208 3.85309 7.15483 3.99544 7.15483 4.04514C7.15483 4.09483 6.5687 4.73991 5.85231 5.47866L4.54987 6.82179L4.24553 6.50741L3.94111 6.19311L5.24167 4.84804C5.95701 4.1082 6.57733 3.50289 6.62024 3.50289C6.66306 3.50289 6.8009 3.60454 6.92645 3.72882ZM16.4771 11.1719C16.2591 11.301 16.1324 11.4671 15.9452 11.8691C15.6371 12.531 15.7917 13.4711 16.3141 14.1123C16.5722 14.4292 16.5709 14.6683 16.3079 15.1877C16.1193 15.5602 16.109 15.6261 16.2064 15.8359C16.3403 16.1244 16.6789 16.262 16.9831 16.1515C17.3087 16.0333 17.6776 15.3672 17.7217 14.8177C17.7653 14.2737 17.6535 13.8957 17.285 13.3425C16.9642 12.8609 16.9271 12.483 17.1692 12.1634C17.4024 11.8555 17.38 11.4579 17.1175 11.2446C16.8767 11.0489 16.7156 11.0306 16.4771 11.1719ZM19.4349 11.199C19.3103 11.2689 19.1237 11.5187 18.9982 11.7836C18.8106 12.1796 18.7836 12.3283 18.8104 12.818C18.8382 13.326 18.8801 13.448 19.186 13.9108C19.3754 14.1973 19.5303 14.5085 19.5303 14.6024C19.5303 14.6962 19.4377 14.9561 19.3243 15.1799C19.1589 15.5067 19.134 15.6294 19.1983 15.8038C19.362 16.2484 19.9051 16.3345 20.2344 15.9681C20.9046 15.2226 20.9142 14.1447 20.2583 13.2924C19.9721 12.9204 19.9421 12.4796 20.1817 12.1634C20.4148 11.8555 20.3924 11.4579 20.1299 11.2446C19.8795 11.0411 19.7335 11.0316 19.4349 11.199ZM22.4571 11.1938C22.1147 11.3861 21.7936 12.0937 21.7949 12.6527C21.7962 13.2201 21.872 13.4455 22.255 14.0204C22.5985 14.5361 22.6076 14.6679 22.333 15.1518C22.1872 15.4086 22.1404 15.5801 22.1797 15.7133C22.4261 16.5477 23.3234 16.2648 23.6499 15.2497C23.8715 14.5605 23.7105 13.8413 23.1812 13.1561C22.9636 12.8743 22.9665 12.4935 23.1887 12.1713C23.4127 11.8463 23.4016 11.5292 23.1571 11.2767C22.932 11.0443 22.7597 11.0238 22.4571 11.1938ZM4.94702 20.0361C5.19144 20.2129 5.36062 20.6343 5.30583 20.9299C5.28222 21.0576 5.15456 21.2562 5.02209 21.3714C4.19041 22.094 3.15657 20.8653 3.95397 20.102C4.20637 19.8605 4.66239 19.8302 4.94702 20.0361ZM26.7753 22.3584C26.774 23.3385 26.6587 24.0369 26.3586 24.8809L26.1867 25.3644L15.9584 25.364L5.73002 25.3638L5.5899 25.0067C5.4037 24.532 5.22808 23.8112 5.15846 23.2359L5.1018 22.7676L5.3752 22.6474C5.71088 22.4998 6.21046 21.9894 6.34325 21.6582L6.44185 21.4125H16.6091H26.7765L26.7753 22.3584ZM4.21606 24.7127C4.27085 24.9092 4.33403 25.1363 4.35658 25.2172C4.39452 25.3534 4.29015 25.3644 2.95335 25.3644C1.36074 25.3644 1.21134 25.3204 1.21134 24.8516C1.21134 24.4201 1.42457 24.3554 2.8449 24.3554H4.11656L4.21606 24.7127ZM25.1869 26.915C24.7216 27.5451 23.615 28.3764 22.7421 28.7514C21.507 29.2823 21.6121 29.2742 15.9479 29.2742C10.8217 29.2742 10.7722 29.2726 10.1002 29.0828C9.72746 28.9775 9.13653 28.743 8.78701 28.5615C8.09308 28.2011 7.08293 27.4004 6.72388 26.926L6.49656 26.6256H15.9486H25.4007L25.1869 26.915ZM22.0001 34.0038C22.4811 35.9345 22.8733 37.5375 22.8716 37.5659C22.8699 37.5943 22.7029 37.641 22.5007 37.6696C22.2983 37.6982 22.0229 37.7804 21.8886 37.8521C21.6959 37.955 21.6367 37.9598 21.6083 37.8746C21.5885 37.8151 21.1846 36.2152 20.7108 34.3191C20.2369 32.4231 19.8306 30.8076 19.8078 30.7292C19.7654 30.5834 19.7988 30.5766 20.8774 30.5089L21.1254 30.4934L22.0001 34.0038ZM18.9132 32.1961C19.1335 33.0862 19.3297 33.862 19.3492 33.9198C19.3774 34.0027 18.6653 34.0249 15.9632 34.0249H12.5417L12.9431 32.4063C13.1639 31.5161 13.3613 30.7404 13.3817 30.6826C13.4104 30.6015 14.0024 30.5775 15.9658 30.5775H18.5128L18.9132 32.1961ZM19.7766 35.6434C19.826 35.8399 19.9005 36.1332 19.9421 36.2951C19.9838 36.4569 20.0181 36.6177 20.0183 36.6524C20.0186 36.6872 18.1827 36.7155 15.9384 36.7155H11.8581L11.9092 36.5263C11.9374 36.4222 12.0194 36.1007 12.0914 35.8116L12.2225 35.2861H15.9547H19.6869L19.7766 35.6434ZM23.5731 39.0396C24.5562 39.5213 24.5749 41.0368 23.6045 41.5668C22.6159 42.1067 21.4983 41.3444 21.5859 40.19C21.6617 39.1905 22.6792 38.6016 23.5731 39.0396Z"/>
</mask>
<path fill-rule="evenodd" clip-rule="evenodd" d="M13.0447 0.0901449C11.3974 0.414872 9.97481 1.20172 8.78521 2.44597C8.45051 2.79601 8.13672 3.08247 8.08804 3.08247C8.03935 3.08247 7.89182 2.96552 7.76033 2.82249C7.25806 2.27654 6.54305 2.09467 5.98135 2.36996C5.59714 2.55822 3.03566 5.25021 2.88398 5.62513C2.64282 6.22128 2.7875 6.75739 3.34985 7.35059L3.68945 7.70878L2.98868 8.44366C1.7079 9.78654 1.02888 11.1051 0.719575 12.8495C0.590202 13.5788 0.609173 15.1063 0.756457 15.8288C1.0183 17.1132 1.63479 18.4587 2.38823 19.3899L2.66171 19.728L2.54129 20.1288C2.24689 21.1082 2.70714 22.2287 3.56846 22.6298C3.7812 22.7289 3.89812 22.8384 3.89812 22.9387C3.89812 23.0829 3.81076 23.0941 2.69721 23.0946C1.33184 23.0951 0.999407 23.1642 0.593703 23.5322C0.139637 23.9439 -0.0330501 24.3719 0.00513473 24.9912C0.0469834 25.6697 0.329828 26.1136 0.910825 26.4126C1.31718 26.6217 1.35846 26.6256 3.16984 26.6256H5.01493L5.32277 27.1091C6.05976 28.2666 7.55255 29.4665 8.92859 30.0072C9.32925 30.1647 9.58856 30.3117 9.56715 30.3694C9.44795 30.6901 7.72475 37.7425 7.72475 37.9095C7.72475 38.1934 8.00865 38.4812 8.28881 38.4812C8.78855 38.4812 8.79979 38.4512 9.82296 34.3612L10.7801 30.5354L11.4304 30.5649C11.788 30.5811 12.0901 30.6036 12.1018 30.6149C12.1135 30.6262 11.5192 33.0534 10.7812 36.0087C9.58701 40.7906 9.41612 41.4029 9.22886 41.5713C8.95912 41.8137 8.68678 41.8114 8.40858 41.5643C8.1513 41.3357 8.13762 41.1193 8.33139 40.3469C8.47794 39.7629 8.43658 39.4594 8.18582 39.2781C7.69739 38.9248 7.32149 39.2622 7.09417 40.258C6.84422 41.353 6.99248 41.9643 7.64838 42.5442C8.26381 43.0883 9.18147 43.1526 9.83737 42.6976C10.4035 42.305 10.5438 41.9939 11.0282 40.0567C11.2738 39.0746 11.4945 38.2045 11.5188 38.1231C11.5602 37.984 11.8249 37.9766 15.9703 37.997L20.3778 38.0188L20.4939 38.51C20.5988 38.9541 20.5961 39.0485 20.4657 39.4933C20.0814 40.8039 20.6752 42.1749 21.8788 42.7562C22.8336 43.2173 24.0587 42.9837 24.7951 42.1999C25.2635 41.7014 25.4939 41.1609 25.5358 40.4627C25.587 39.6052 25.3572 39.0151 24.721 38.3711L24.2384 37.8826L23.308 34.167C22.7962 32.1234 22.3618 30.4064 22.3425 30.3515C22.3217 30.2921 22.4792 30.1935 22.7304 30.1085C25.3111 29.2358 27.3431 26.7996 27.8796 23.9349C28.0464 23.0444 28.0381 21.2315 27.8656 20.8559C27.6469 20.3801 27.3229 20.2036 26.5752 20.1532L25.9216 20.1092L25.8809 19.2263C25.8324 18.175 25.6973 17.8692 25.1471 17.5659C24.8271 17.3894 24.6944 17.3678 24.0778 17.3915C23.2537 17.4232 23.0313 17.5569 23.0313 18.021C23.0313 18.4492 23.2471 18.5881 23.9898 18.6377L24.6189 18.6798L24.6429 19.3451C24.6601 19.8206 24.6368 20.0302 24.5615 20.0796C24.5035 20.1176 21.9051 20.1492 18.7871 20.15C14.0119 20.1511 13.1033 20.1326 13.0232 20.0328C12.9642 19.9595 12.9372 19.6799 12.9521 19.2971L12.9762 18.6798L16.9613 18.6579C20.9212 18.6362 20.9475 18.635 21.1339 18.4541C21.363 18.2318 21.3763 17.8855 21.1659 17.6171L21.0103 17.4185L16.9933 17.3947C12.5594 17.3684 12.5064 17.3737 12.086 17.8897C11.8116 18.2265 11.7152 18.6333 11.7147 19.4576L11.7142 20.1512H9.10714H6.49998L6.40505 19.936C6.31264 19.7266 6.50821 19.516 13.5678 12.2214C17.6549 7.99836 20.8628 4.61866 20.9107 4.48539C21.1697 3.76514 20.889 3.18102 19.8204 2.21617C18.6048 1.11873 17.6698 0.586652 16.3068 0.217194C15.475 -0.00831577 13.8627 -0.0711255 13.0447 0.0901449ZM16.0701 1.44715C17.2348 1.77423 18.3461 2.46825 19.2848 3.45479L19.8127 4.00965L12.6492 11.4116C6.10022 18.1787 5.46834 18.8085 5.28222 18.7537C5.07827 18.6936 4.03107 18.6817 3.6594 18.7354C3.40668 18.7718 2.97094 18.2086 2.5106 17.2504C1.49866 15.1442 1.64765 12.486 2.8887 10.5039C3.26388 9.90477 9.84291 3.05061 10.5337 2.5393C11.3449 1.9387 12.3529 1.49357 13.3019 1.31683C13.88 1.20912 15.4927 1.28504 16.0701 1.44715ZM6.92645 3.72882C7.05208 3.85309 7.15483 3.99544 7.15483 4.04514C7.15483 4.09483 6.5687 4.73991 5.85231 5.47866L4.54987 6.82179L4.24553 6.50741L3.94111 6.19311L5.24167 4.84804C5.95701 4.1082 6.57733 3.50289 6.62024 3.50289C6.66306 3.50289 6.8009 3.60454 6.92645 3.72882ZM16.4771 11.1719C16.2591 11.301 16.1324 11.4671 15.9452 11.8691C15.6371 12.531 15.7917 13.4711 16.3141 14.1123C16.5722 14.4292 16.5709 14.6683 16.3079 15.1877C16.1193 15.5602 16.109 15.6261 16.2064 15.8359C16.3403 16.1244 16.6789 16.262 16.9831 16.1515C17.3087 16.0333 17.6776 15.3672 17.7217 14.8177C17.7653 14.2737 17.6535 13.8957 17.285 13.3425C16.9642 12.8609 16.9271 12.483 17.1692 12.1634C17.4024 11.8555 17.38 11.4579 17.1175 11.2446C16.8767 11.0489 16.7156 11.0306 16.4771 11.1719ZM19.4349 11.199C19.3103 11.2689 19.1237 11.5187 18.9982 11.7836C18.8106 12.1796 18.7836 12.3283 18.8104 12.818C18.8382 13.326 18.8801 13.448 19.186 13.9108C19.3754 14.1973 19.5303 14.5085 19.5303 14.6024C19.5303 14.6962 19.4377 14.9561 19.3243 15.1799C19.1589 15.5067 19.134 15.6294 19.1983 15.8038C19.362 16.2484 19.9051 16.3345 20.2344 15.9681C20.9046 15.2226 20.9142 14.1447 20.2583 13.2924C19.9721 12.9204 19.9421 12.4796 20.1817 12.1634C20.4148 11.8555 20.3924 11.4579 20.1299 11.2446C19.8795 11.0411 19.7335 11.0316 19.4349 11.199ZM22.4571 11.1938C22.1147 11.3861 21.7936 12.0937 21.7949 12.6527C21.7962 13.2201 21.872 13.4455 22.255 14.0204C22.5985 14.5361 22.6076 14.6679 22.333 15.1518C22.1872 15.4086 22.1404 15.5801 22.1797 15.7133C22.4261 16.5477 23.3234 16.2648 23.6499 15.2497C23.8715 14.5605 23.7105 13.8413 23.1812 13.1561C22.9636 12.8743 22.9665 12.4935 23.1887 12.1713C23.4127 11.8463 23.4016 11.5292 23.1571 11.2767C22.932 11.0443 22.7597 11.0238 22.4571 11.1938ZM4.94702 20.0361C5.19144 20.2129 5.36062 20.6343 5.30583 20.9299C5.28222 21.0576 5.15456 21.2562 5.02209 21.3714C4.19041 22.094 3.15657 20.8653 3.95397 20.102C4.20637 19.8605 4.66239 19.8302 4.94702 20.0361ZM26.7753 22.3584C26.774 23.3385 26.6587 24.0369 26.3586 24.8809L26.1867 25.3644L15.9584 25.364L5.73002 25.3638L5.5899 25.0067C5.4037 24.532 5.22808 23.8112 5.15846 23.2359L5.1018 22.7676L5.3752 22.6474C5.71088 22.4998 6.21046 21.9894 6.34325 21.6582L6.44185 21.4125H16.6091H26.7765L26.7753 22.3584ZM4.21606 24.7127C4.27085 24.9092 4.33403 25.1363 4.35658 25.2172C4.39452 25.3534 4.29015 25.3644 2.95335 25.3644C1.36074 25.3644 1.21134 25.3204 1.21134 24.8516C1.21134 24.4201 1.42457 24.3554 2.8449 24.3554H4.11656L4.21606 24.7127ZM25.1869 26.915C24.7216 27.5451 23.615 28.3764 22.7421 28.7514C21.507 29.2823 21.6121 29.2742 15.9479 29.2742C10.8217 29.2742 10.7722 29.2726 10.1002 29.0828C9.72746 28.9775 9.13653 28.743 8.78701 28.5615C8.09308 28.2011 7.08293 27.4004 6.72388 26.926L6.49656 26.6256H15.9486H25.4007L25.1869 26.915ZM22.0001 34.0038C22.4811 35.9345 22.8733 37.5375 22.8716 37.5659C22.8699 37.5943 22.7029 37.641 22.5007 37.6696C22.2983 37.6982 22.0229 37.7804 21.8886 37.8521C21.6959 37.955 21.6367 37.9598 21.6083 37.8746C21.5885 37.8151 21.1846 36.2152 20.7108 34.3191C20.2369 32.4231 19.8306 30.8076 19.8078 30.7292C19.7654 30.5834 19.7988 30.5766 20.8774 30.5089L21.1254 30.4934L22.0001 34.0038ZM18.9132 32.1961C19.1335 33.0862 19.3297 33.862 19.3492 33.9198C19.3774 34.0027 18.6653 34.0249 15.9632 34.0249H12.5417L12.9431 32.4063C13.1639 31.5161 13.3613 30.7404 13.3817 30.6826C13.4104 30.6015 14.0024 30.5775 15.9658 30.5775H18.5128L18.9132 32.1961ZM19.7766 35.6434C19.826 35.8399 19.9005 36.1332 19.9421 36.2951C19.9838 36.4569 20.0181 36.6177 20.0183 36.6524C20.0186 36.6872 18.1827 36.7155 15.9384 36.7155H11.8581L11.9092 36.5263C11.9374 36.4222 12.0194 36.1007 12.0914 35.8116L12.2225 35.2861H15.9547H19.6869L19.7766 35.6434ZM23.5731 39.0396C24.5562 39.5213 24.5749 41.0368 23.6045 41.5668C22.6159 42.1067 21.4983 41.3444 21.5859 40.19C21.6617 39.1905 22.6792 38.6016 23.5731 39.0396Z" fill="white" stroke="#1E2433" stroke-width="0.4" mask="url(#path-1-inside-1_735:25213)"/>
</svg>
