<svg width="39" height="39" viewBox="0 0 39 39" fill="none" xmlns="http://www.w3.org/2000/svg">
<mask id="path-1-inside-1_735:25212" fill="white">
<path fill-rule="evenodd" clip-rule="evenodd" d="M2.58984 0.0761292C1.68812 0.252311 0.720129 1.01343 0.33927 1.84579C0.0688594 2.43652 0 2.92018 0 4.2279C0 5.35083 0.00685546 5.40235 0.18365 5.60817L0.367377 5.822L1.82135 5.8457L3.27539 5.86932V12.5731C3.27539 19.8386 3.25612 19.4904 3.69045 20.0601L3.88477 20.315V23.1308V25.9467L3.14095 26.0229C2.57423 26.0809 2.27449 26.1564 1.88228 26.34C0.949102 26.7769 0.257309 27.6632 0.0744199 28.6563C0.0237656 28.9313 0.00289453 30.6249 0.0166055 33.3428C0.0377812 37.54 0.0403711 37.6029 0.20277 37.9035C0.396932 38.2628 0.770402 38.6304 1.14258 38.8285C1.39204 38.9612 1.6853 38.9717 5.70489 38.9918C10.48 39.0158 10.4323 39.02 11.0234 38.5139C11.1932 38.3685 11.4086 38.0745 11.5102 37.8497L11.6924 37.4463L11.7158 33.4837C11.7305 30.993 11.7093 29.2948 11.6586 28.9115C11.4224 27.1241 10.0416 25.9885 8.09326 25.9792L7.76953 25.9777V23.1492V20.3207L7.99477 20.0641C8.46346 19.53 8.45508 19.6692 8.45508 12.4378V5.8601H12.3375H16.2199L16.2413 12.585L16.2627 19.3099L16.4479 19.6727C16.5499 19.8722 16.6955 20.0918 16.7717 20.1608C16.9 20.2769 16.9099 20.4602 16.9076 22.6556L16.905 25.0252L16.3036 25.3162C15.0525 25.9215 13.965 27.1797 13.4507 28.6169C12.8362 30.3339 12.897 32.5698 13.6101 34.4744C14.4285 36.6603 15.816 38.1909 17.5195 38.7874C18.2247 39.0342 19.4781 39.0347 20.1855 38.7883C22.6242 37.939 24.4971 34.9639 24.6552 31.6883C24.7269 30.2021 24.5082 29.049 23.9404 27.9209C23.3621 26.7716 22.4243 25.8108 21.3949 25.3129L20.8001 25.0252L20.7975 22.6556C20.7951 20.4194 20.8031 20.2787 20.9403 20.1546C21.0202 20.0822 21.1658 19.8454 21.264 19.6284L21.4424 19.2337L21.4638 12.5469L21.4853 5.8601H25.7104H29.9355V12.5684C29.9355 19.8633 29.9153 19.5027 30.3576 20.0828L30.5464 20.3305L30.5266 23.966L30.5068 27.6015L30.126 27.7312C29.1713 28.0559 28.2378 28.666 27.5189 29.4348C26.9286 30.0662 26.5569 30.6995 26.2646 31.5723C25.8567 32.7904 25.9636 34.2681 26.5461 35.4629C27.1414 36.6841 28.1548 37.6761 29.4404 38.296C33.1794 40.099 37.8075 38.2323 38.8205 34.5125C39.0289 33.7472 39.0115 32.4248 38.7833 31.693C38.4641 30.6689 38.1274 30.1283 37.289 29.2926C36.4867 28.493 35.8711 28.0906 34.9058 27.7348L34.4297 27.5594V23.9497V20.34L34.6893 19.9998C34.8404 19.8017 34.9835 19.4976 35.0321 19.2715C35.0885 19.008 35.1152 16.7934 35.1152 12.3757V5.8681L36.8739 5.84501L38.6326 5.822L38.8163 5.60817C38.9931 5.40235 39 5.35083 39 4.2279C39 3.58627 38.9656 2.87667 38.9234 2.65088C38.6836 1.36518 37.6313 0.314797 36.337 0.0692709C35.8274 -0.0274308 3.08588 -0.0208012 2.58984 0.0761292ZM36.4294 1.43986C37.3188 1.77272 37.7051 2.47691 37.7051 3.76535V4.56465H36.3776H35.0503L34.863 4.15544C34.2404 2.79506 32.6166 2.21965 31.2986 2.89229C30.8717 3.11016 30.3606 3.66796 30.1571 4.13814L29.9736 4.56205L25.6912 4.56335L21.4088 4.56465L21.2038 4.1312C20.8271 3.33473 20.1781 2.83194 19.3045 2.66002C18.1629 2.4353 16.9639 3.06901 16.4863 4.14941L16.3027 4.56465H12.3451H8.38744L8.18246 4.10766C7.68795 3.00522 6.41771 2.39438 5.24375 2.69447C4.43945 2.89999 3.78696 3.44606 3.49042 4.16184L3.32353 4.56465H2.30923H1.29492V3.76741C1.29492 2.48209 1.67197 1.7875 2.55724 1.44169C2.92348 1.29858 3.33526 1.29492 19.4781 1.29149C35.8238 1.28799 36.0285 1.28974 36.4294 1.43986ZM6.30292 3.99602C6.95411 4.26822 7.15612 4.67682 7.15848 5.72674L7.16016 6.46972H5.86523H4.57031V5.66578C4.57031 4.79066 4.62942 4.59848 5.00944 4.23712C5.37865 3.88613 5.83606 3.80086 6.30292 3.99602ZM19.5833 4.1421C19.9918 4.41125 20.1294 4.77367 20.1705 5.68864L20.2055 6.46972H18.8528H17.5L17.534 5.64383C17.5686 4.80438 17.682 4.45979 18.0149 4.18348C18.4169 3.84963 19.1117 3.83134 19.5833 4.1421ZM33.0205 4.02216C33.6226 4.29877 33.812 4.71309 33.817 5.76484L33.8203 6.46972H32.5254H31.2305V5.6609C31.2305 4.96997 31.2548 4.80888 31.3972 4.55527C31.7359 3.95235 32.3964 3.7354 33.0205 4.02216ZM7.16016 8.4129V9.06063H5.86523H4.57031V8.4129V7.76518H5.86523H7.16016V8.4129ZM20.1696 8.43195L20.1917 9.06063H18.8556H17.5195V8.46373C17.5195 8.13537 17.5431 7.84313 17.5721 7.81418C17.601 7.78529 18.1923 7.77097 18.8861 7.78247L20.1475 7.80328L20.1696 8.43195ZM33.8043 8.43195L33.8265 9.06063H32.5284H31.2305V8.41107V7.76152L32.5063 7.7824L33.7822 7.80328L33.8043 8.43195ZM7.16016 13.6709V16.9096H5.86523H4.57031V13.6709V10.4323H5.86523H7.16016V13.6709ZM20.1673 13.6519L20.1475 16.8715L18.8335 16.8923L17.5195 16.9131V13.6727V10.4323H18.8534H20.1872L20.1673 13.6519ZM33.8203 13.6709V16.9096H32.5254H31.2305V13.6709V10.4323H32.5254H33.8203V13.6709ZM7.16016 18.63C7.16016 18.9981 7.13037 19.0848 6.93751 19.2777C6.71927 19.496 6.69863 19.5005 5.90416 19.5005C4.77064 19.5005 4.57679 19.3756 4.57275 18.6432L4.57031 18.205H5.86523H7.16016V18.63ZM20.1855 18.5123C20.1855 18.9413 20.0049 19.3336 19.7653 19.4247C19.6558 19.4664 19.2451 19.5005 18.8525 19.5005C18.46 19.5005 18.0492 19.4664 17.9398 19.4247C17.7002 19.3336 17.5195 18.9413 17.5195 18.5123V18.205H18.8525H20.1855V18.5123ZM33.8047 18.6737C33.7763 19.0671 33.7374 19.1712 33.5629 19.3215C33.373 19.4848 33.2846 19.5005 32.5555 19.5005C31.7259 19.5005 31.3741 19.4051 31.2778 19.1541C31.2518 19.0863 31.2305 18.845 31.2305 18.6179V18.205H32.5345H33.8386L33.8047 18.6737ZM6.47461 23.3868V25.9777H5.82715H5.17969V23.3868V20.7959H5.82715H6.47461V23.3868ZM19.5 22.7626V24.7294L18.8525 24.7249L18.2051 24.7204V22.7581V20.7959H18.8525H19.5V22.7626ZM33.1348 24.0617V27.3274L32.4873 27.3303L31.8398 27.3333V24.0646V20.7959H32.4873H33.1348V24.0617ZM19.38 26.058C20.7952 26.2549 21.8791 26.9489 22.5837 28.1093C23.8381 30.1752 23.5728 33.5347 21.9785 35.7697C21.314 36.7013 20.5042 37.3163 19.5814 37.5902C18.5731 37.8895 17.4931 37.5647 16.5299 36.6726C15.1462 35.391 14.3203 33.357 14.3203 31.2307C14.3203 28.4226 15.8474 26.4121 18.2459 26.0625C18.4958 26.0261 18.7234 25.9921 18.7518 25.987C18.7802 25.9819 19.0628 26.0138 19.38 26.058ZM9.21764 27.4704C9.65539 27.6731 10.0358 28.0536 10.2384 28.4916C10.3923 28.8242 10.3982 28.9653 10.4208 32.85C10.4367 35.5856 10.4176 36.9633 10.3609 37.174C10.2114 37.7295 10.3508 37.713 5.78701 37.713H1.74022L1.51757 37.4903L1.29492 37.2675V33.1605C1.29492 28.639 1.30155 28.565 1.75713 28.0139C2.02518 27.6897 2.45113 27.4467 2.92073 27.3501C3.09486 27.3142 4.50557 27.2909 6.05566 27.2981C8.73813 27.3107 8.89063 27.319 9.21764 27.4704ZM18.8303 27.9668L18.8525 28.6029L19.1691 28.6568C19.6227 28.734 20.0587 28.9778 20.3284 29.3051C20.5599 29.5861 20.7949 30.1432 20.7949 30.4111C20.7949 30.5345 20.8668 30.5499 21.4424 30.5499C22.0664 30.5499 22.0898 30.5436 22.0898 30.3754C22.0898 30.1103 21.8801 29.3615 21.7155 29.0386C21.2763 28.1774 20.1817 27.43 19.2621 27.3635L18.808 27.3306L18.8303 27.9668ZM34.1064 28.8438C35.728 29.3134 37.0216 30.5076 37.523 31.9978C37.7331 32.6219 37.7148 33.783 37.4846 34.4363C36.5066 37.2124 32.9293 38.5181 30.0498 37.15C27.4488 35.9143 26.5476 33.0954 28.0394 30.8607C29.2412 29.0601 31.8542 28.1915 34.1064 28.8438ZM5.17969 32.836V36.4175H5.82715H6.47461V32.836V29.2545H5.82715H5.17969V32.836ZM33.8203 30.5774C33.8203 31.1967 33.8298 31.2357 33.9813 31.2357C34.2318 31.2357 34.7271 31.5483 34.8823 31.8044C34.9595 31.9317 35.0462 32.1473 35.075 32.2835L35.1273 32.5312H35.7687C36.1234 32.5312 36.4102 32.4988 36.4102 32.4587C36.4102 32.2468 36.2209 31.5427 36.0992 31.302C35.7641 30.6391 34.9309 30.0506 34.2057 29.9647L33.8203 29.919V30.5774ZM2.58984 33.4837V36.4175H3.2373H3.88477V33.4837V30.5499H3.2373H2.58984V33.4837ZM7.76953 33.4837V36.4175H8.41699H9.06445V33.4837V30.5499H8.41699H7.76953V33.4837Z"/>
</mask>
<path fill-rule="evenodd" clip-rule="evenodd" d="M2.58984 0.0761292C1.68812 0.252311 0.720129 1.01343 0.33927 1.84579C0.0688594 2.43652 0 2.92018 0 4.2279C0 5.35083 0.00685546 5.40235 0.18365 5.60817L0.367377 5.822L1.82135 5.8457L3.27539 5.86932V12.5731C3.27539 19.8386 3.25612 19.4904 3.69045 20.0601L3.88477 20.315V23.1308V25.9467L3.14095 26.0229C2.57423 26.0809 2.27449 26.1564 1.88228 26.34C0.949102 26.7769 0.257309 27.6632 0.0744199 28.6563C0.0237656 28.9313 0.00289453 30.6249 0.0166055 33.3428C0.0377812 37.54 0.0403711 37.6029 0.20277 37.9035C0.396932 38.2628 0.770402 38.6304 1.14258 38.8285C1.39204 38.9612 1.6853 38.9717 5.70489 38.9918C10.48 39.0158 10.4323 39.02 11.0234 38.5139C11.1932 38.3685 11.4086 38.0745 11.5102 37.8497L11.6924 37.4463L11.7158 33.4837C11.7305 30.993 11.7093 29.2948 11.6586 28.9115C11.4224 27.1241 10.0416 25.9885 8.09326 25.9792L7.76953 25.9777V23.1492V20.3207L7.99477 20.0641C8.46346 19.53 8.45508 19.6692 8.45508 12.4378V5.8601H12.3375H16.2199L16.2413 12.585L16.2627 19.3099L16.4479 19.6727C16.5499 19.8722 16.6955 20.0918 16.7717 20.1608C16.9 20.2769 16.9099 20.4602 16.9076 22.6556L16.905 25.0252L16.3036 25.3162C15.0525 25.9215 13.965 27.1797 13.4507 28.6169C12.8362 30.3339 12.897 32.5698 13.6101 34.4744C14.4285 36.6603 15.816 38.1909 17.5195 38.7874C18.2247 39.0342 19.4781 39.0347 20.1855 38.7883C22.6242 37.939 24.4971 34.9639 24.6552 31.6883C24.7269 30.2021 24.5082 29.049 23.9404 27.9209C23.3621 26.7716 22.4243 25.8108 21.3949 25.3129L20.8001 25.0252L20.7975 22.6556C20.7951 20.4194 20.8031 20.2787 20.9403 20.1546C21.0202 20.0822 21.1658 19.8454 21.264 19.6284L21.4424 19.2337L21.4638 12.5469L21.4853 5.8601H25.7104H29.9355V12.5684C29.9355 19.8633 29.9153 19.5027 30.3576 20.0828L30.5464 20.3305L30.5266 23.966L30.5068 27.6015L30.126 27.7312C29.1713 28.0559 28.2378 28.666 27.5189 29.4348C26.9286 30.0662 26.5569 30.6995 26.2646 31.5723C25.8567 32.7904 25.9636 34.2681 26.5461 35.4629C27.1414 36.6841 28.1548 37.6761 29.4404 38.296C33.1794 40.099 37.8075 38.2323 38.8205 34.5125C39.0289 33.7472 39.0115 32.4248 38.7833 31.693C38.4641 30.6689 38.1274 30.1283 37.289 29.2926C36.4867 28.493 35.8711 28.0906 34.9058 27.7348L34.4297 27.5594V23.9497V20.34L34.6893 19.9998C34.8404 19.8017 34.9835 19.4976 35.0321 19.2715C35.0885 19.008 35.1152 16.7934 35.1152 12.3757V5.8681L36.8739 5.84501L38.6326 5.822L38.8163 5.60817C38.9931 5.40235 39 5.35083 39 4.2279C39 3.58627 38.9656 2.87667 38.9234 2.65088C38.6836 1.36518 37.6313 0.314797 36.337 0.0692709C35.8274 -0.0274308 3.08588 -0.0208012 2.58984 0.0761292ZM36.4294 1.43986C37.3188 1.77272 37.7051 2.47691 37.7051 3.76535V4.56465H36.3776H35.0503L34.863 4.15544C34.2404 2.79506 32.6166 2.21965 31.2986 2.89229C30.8717 3.11016 30.3606 3.66796 30.1571 4.13814L29.9736 4.56205L25.6912 4.56335L21.4088 4.56465L21.2038 4.1312C20.8271 3.33473 20.1781 2.83194 19.3045 2.66002C18.1629 2.4353 16.9639 3.06901 16.4863 4.14941L16.3027 4.56465H12.3451H8.38744L8.18246 4.10766C7.68795 3.00522 6.41771 2.39438 5.24375 2.69447C4.43945 2.89999 3.78696 3.44606 3.49042 4.16184L3.32353 4.56465H2.30923H1.29492V3.76741C1.29492 2.48209 1.67197 1.7875 2.55724 1.44169C2.92348 1.29858 3.33526 1.29492 19.4781 1.29149C35.8238 1.28799 36.0285 1.28974 36.4294 1.43986ZM6.30292 3.99602C6.95411 4.26822 7.15612 4.67682 7.15848 5.72674L7.16016 6.46972H5.86523H4.57031V5.66578C4.57031 4.79066 4.62942 4.59848 5.00944 4.23712C5.37865 3.88613 5.83606 3.80086 6.30292 3.99602ZM19.5833 4.1421C19.9918 4.41125 20.1294 4.77367 20.1705 5.68864L20.2055 6.46972H18.8528H17.5L17.534 5.64383C17.5686 4.80438 17.682 4.45979 18.0149 4.18348C18.4169 3.84963 19.1117 3.83134 19.5833 4.1421ZM33.0205 4.02216C33.6226 4.29877 33.812 4.71309 33.817 5.76484L33.8203 6.46972H32.5254H31.2305V5.6609C31.2305 4.96997 31.2548 4.80888 31.3972 4.55527C31.7359 3.95235 32.3964 3.7354 33.0205 4.02216ZM7.16016 8.4129V9.06063H5.86523H4.57031V8.4129V7.76518H5.86523H7.16016V8.4129ZM20.1696 8.43195L20.1917 9.06063H18.8556H17.5195V8.46373C17.5195 8.13537 17.5431 7.84313 17.5721 7.81418C17.601 7.78529 18.1923 7.77097 18.8861 7.78247L20.1475 7.80328L20.1696 8.43195ZM33.8043 8.43195L33.8265 9.06063H32.5284H31.2305V8.41107V7.76152L32.5063 7.7824L33.7822 7.80328L33.8043 8.43195ZM7.16016 13.6709V16.9096H5.86523H4.57031V13.6709V10.4323H5.86523H7.16016V13.6709ZM20.1673 13.6519L20.1475 16.8715L18.8335 16.8923L17.5195 16.9131V13.6727V10.4323H18.8534H20.1872L20.1673 13.6519ZM33.8203 13.6709V16.9096H32.5254H31.2305V13.6709V10.4323H32.5254H33.8203V13.6709ZM7.16016 18.63C7.16016 18.9981 7.13037 19.0848 6.93751 19.2777C6.71927 19.496 6.69863 19.5005 5.90416 19.5005C4.77064 19.5005 4.57679 19.3756 4.57275 18.6432L4.57031 18.205H5.86523H7.16016V18.63ZM20.1855 18.5123C20.1855 18.9413 20.0049 19.3336 19.7653 19.4247C19.6558 19.4664 19.2451 19.5005 18.8525 19.5005C18.46 19.5005 18.0492 19.4664 17.9398 19.4247C17.7002 19.3336 17.5195 18.9413 17.5195 18.5123V18.205H18.8525H20.1855V18.5123ZM33.8047 18.6737C33.7763 19.0671 33.7374 19.1712 33.5629 19.3215C33.373 19.4848 33.2846 19.5005 32.5555 19.5005C31.7259 19.5005 31.3741 19.4051 31.2778 19.1541C31.2518 19.0863 31.2305 18.845 31.2305 18.6179V18.205H32.5345H33.8386L33.8047 18.6737ZM6.47461 23.3868V25.9777H5.82715H5.17969V23.3868V20.7959H5.82715H6.47461V23.3868ZM19.5 22.7626V24.7294L18.8525 24.7249L18.2051 24.7204V22.7581V20.7959H18.8525H19.5V22.7626ZM33.1348 24.0617V27.3274L32.4873 27.3303L31.8398 27.3333V24.0646V20.7959H32.4873H33.1348V24.0617ZM19.38 26.058C20.7952 26.2549 21.8791 26.9489 22.5837 28.1093C23.8381 30.1752 23.5728 33.5347 21.9785 35.7697C21.314 36.7013 20.5042 37.3163 19.5814 37.5902C18.5731 37.8895 17.4931 37.5647 16.5299 36.6726C15.1462 35.391 14.3203 33.357 14.3203 31.2307C14.3203 28.4226 15.8474 26.4121 18.2459 26.0625C18.4958 26.0261 18.7234 25.9921 18.7518 25.987C18.7802 25.9819 19.0628 26.0138 19.38 26.058ZM9.21764 27.4704C9.65539 27.6731 10.0358 28.0536 10.2384 28.4916C10.3923 28.8242 10.3982 28.9653 10.4208 32.85C10.4367 35.5856 10.4176 36.9633 10.3609 37.174C10.2114 37.7295 10.3508 37.713 5.78701 37.713H1.74022L1.51757 37.4903L1.29492 37.2675V33.1605C1.29492 28.639 1.30155 28.565 1.75713 28.0139C2.02518 27.6897 2.45113 27.4467 2.92073 27.3501C3.09486 27.3142 4.50557 27.2909 6.05566 27.2981C8.73813 27.3107 8.89063 27.319 9.21764 27.4704ZM18.8303 27.9668L18.8525 28.6029L19.1691 28.6568C19.6227 28.734 20.0587 28.9778 20.3284 29.3051C20.5599 29.5861 20.7949 30.1432 20.7949 30.4111C20.7949 30.5345 20.8668 30.5499 21.4424 30.5499C22.0664 30.5499 22.0898 30.5436 22.0898 30.3754C22.0898 30.1103 21.8801 29.3615 21.7155 29.0386C21.2763 28.1774 20.1817 27.43 19.2621 27.3635L18.808 27.3306L18.8303 27.9668ZM34.1064 28.8438C35.728 29.3134 37.0216 30.5076 37.523 31.9978C37.7331 32.6219 37.7148 33.783 37.4846 34.4363C36.5066 37.2124 32.9293 38.5181 30.0498 37.15C27.4488 35.9143 26.5476 33.0954 28.0394 30.8607C29.2412 29.0601 31.8542 28.1915 34.1064 28.8438ZM5.17969 32.836V36.4175H5.82715H6.47461V32.836V29.2545H5.82715H5.17969V32.836ZM33.8203 30.5774C33.8203 31.1967 33.8298 31.2357 33.9813 31.2357C34.2318 31.2357 34.7271 31.5483 34.8823 31.8044C34.9595 31.9317 35.0462 32.1473 35.075 32.2835L35.1273 32.5312H35.7687C36.1234 32.5312 36.4102 32.4988 36.4102 32.4587C36.4102 32.2468 36.2209 31.5427 36.0992 31.302C35.7641 30.6391 34.9309 30.0506 34.2057 29.9647L33.8203 29.919V30.5774ZM2.58984 33.4837V36.4175H3.2373H3.88477V33.4837V30.5499H3.2373H2.58984V33.4837ZM7.76953 33.4837V36.4175H8.41699H9.06445V33.4837V30.5499H8.41699H7.76953V33.4837Z" fill="white" stroke="#1E2433" stroke-width="0.4" mask="url(#path-1-inside-1_735:25212)"/>
</svg>
