<svg width="39" height="39" viewBox="0 0 39 39" fill="none" xmlns="http://www.w3.org/2000/svg">
<mask id="path-1-inside-1_735:25174" fill="white">
<path fill-rule="evenodd" clip-rule="evenodd" d="M15.7844 0.186625C15.0166 0.576566 14.2553 1.66432 13.973 2.77485C13.8363 3.31248 13.8271 3.73184 13.9428 4.1496C14.1226 4.79902 14.4317 5.03403 15.496 5.33077C16.2857 5.55093 16.6136 5.72232 16.9923 6.11241C17.2717 6.40039 17.6679 7.05156 17.6679 7.22295C17.6679 7.26052 17.3631 7.40028 16.9905 7.53356C16.1842 7.82192 15.1809 8.40428 14.4881 8.9861C14.2118 9.218 13.895 9.4822 13.784 9.57311L13.5823 9.73848L13.2148 9.50979C12.7814 9.23994 11.931 8.89009 11.2541 8.703C10.8835 8.60058 10.4874 8.57033 9.55174 8.573C8.3821 8.57627 8.30193 8.58664 7.58412 8.82592C6.75155 9.10346 6.54152 9.25976 6.54152 9.60169C6.54152 9.8364 6.8257 10.2079 7.00532 10.2079C7.05463 10.2079 7.4077 10.0991 7.78988 9.96603C8.38149 9.76012 8.6217 9.71912 9.4052 9.69054C10.4818 9.65122 11.2505 9.80592 12.1428 10.2414C12.9506 10.6356 12.9274 10.5527 12.4438 11.3191C11.5511 12.7343 11.3872 13.2276 11.7202 13.4972C11.9397 13.6749 12.3496 13.6784 12.5036 13.5038C12.5683 13.4304 12.7423 13.1283 12.8901 12.8323C13.8029 11.0058 15.1821 9.61586 16.8587 8.83278C17.8488 8.37029 18.3216 8.26932 19.4969 8.26932C20.6722 8.26932 21.145 8.37029 22.1352 8.83278C23.4297 9.43747 24.6089 10.4513 25.3696 11.6138C26.079 12.6977 26.0322 12.6465 26.3127 12.6465C26.5821 12.6465 26.8715 12.4567 26.8939 12.2654C26.929 11.9641 26.8606 11.7841 26.5025 11.2354C26.2025 10.7759 26.1383 10.6277 26.2167 10.5747C26.2722 10.5371 26.553 10.3853 26.8407 10.2375C28.3179 9.47824 30.1109 9.45126 31.7227 10.1641C32.8109 10.6453 34.0651 11.7477 34.9868 13.0333C35.5744 13.8528 36.4486 15.5601 36.7984 16.571C37.1588 17.6128 37.4593 18.8467 37.6466 20.0538C37.8904 21.6256 37.8904 24.4714 37.6466 26.0431C37.3286 28.0932 36.8575 29.6191 36.0302 31.2786C34.6935 33.9603 32.8005 35.7393 30.7099 36.2784C30.1199 36.4305 28.8417 36.4878 28.3717 36.383C27.8295 36.2622 26.9694 35.9439 26.5693 35.716L26.1351 35.4687L26.5559 34.8596C27.2497 33.8557 27.598 33.2166 27.5908 32.9613C27.5755 32.4243 26.8378 32.2738 26.5472 32.7485C25.8256 33.927 25.101 34.9406 24.6206 35.4435C22.236 37.9392 19.1665 38.5473 16.4536 37.0614C15.199 36.3742 13.9568 35.1815 13.2471 33.9825C13.0174 33.5946 12.7558 33.2288 12.6657 33.1698C12.3897 32.989 11.9838 33.1725 11.8556 33.5362C11.8006 33.6923 12.0751 34.2889 12.5146 34.9683L12.8543 35.4934L12.4052 35.7328C11.4616 36.2357 10.6756 36.4331 9.62795 36.4305C6.99374 36.4236 4.59523 34.5699 2.96209 31.2786C2.13355 29.6089 1.66418 28.0871 1.34739 26.0431C1.12318 24.5966 1.10443 21.7092 1.31012 20.3051C1.80121 16.9537 3.0008 14.0684 4.69316 12.1684C5.21686 11.5805 5.2651 11.4655 5.12648 11.1359C5.01819 10.8783 4.76198 10.7695 4.44891 10.848C4.21533 10.9067 3.49052 11.7564 2.81241 12.7666C0.436316 16.3064 -0.543723 21.7263 0.296093 26.6832C1.19101 31.9655 4.03099 36.1117 7.53222 37.2476C8.34758 37.5121 8.74074 37.5732 9.63252 37.5743C10.8056 37.5757 11.6272 37.3737 12.7633 36.8044L13.6469 36.3616L14.0762 36.7559C17.3146 39.7307 21.6125 39.7495 24.8639 36.8031L25.3711 36.3434L25.73 36.5485C25.9275 36.6613 26.1232 36.7767 26.1652 36.8051C26.3795 36.95 27.4538 37.336 27.9545 37.4479C28.6092 37.5943 30.0102 37.6171 30.5884 37.4908C33.0189 36.9601 35.0196 35.3485 36.6165 32.6352C38.6606 29.1621 39.468 24.1974 38.733 19.6192C37.9318 14.6273 35.4613 10.6635 32.2029 9.14149C30.1044 8.16126 27.7021 8.31276 25.7014 9.55155L25.39 9.74435L24.8631 9.27645C24.1478 8.64128 23.1305 7.98538 22.3935 7.68406C22.0578 7.54682 21.7832 7.41559 21.7832 7.39235C21.7833 7.32575 22.4786 6.74446 22.9719 6.39864L23.4217 6.08338L23.4665 6.35253C23.5461 6.8314 23.9134 7.32034 24.3754 7.56275C24.754 7.76134 24.8509 7.77947 25.4031 7.75501C27.0636 7.68163 28.228 6.29271 27.6591 5.06406C27.3728 4.44573 26.7872 4.11149 25.9899 4.11149H25.567L25.7518 3.91275C26.0236 3.6202 26.8046 3.07731 27.3981 2.7683C28.0634 2.4218 28.1085 2.38171 28.1085 2.13519C28.1085 1.88996 27.8737 1.61722 27.6043 1.54963C26.9891 1.39524 24.7734 3.0245 24.0861 4.13664C23.8739 4.4801 23.7241 4.62519 23.4261 4.77577C22.8866 5.04843 22.2646 5.45164 21.8488 5.79814C21.4466 6.13344 21.4021 6.14853 21.4021 5.95017C21.4021 5.65053 21.0216 4.32601 20.766 3.73641C20.2694 2.59044 19.5059 1.62355 18.4681 0.826214C17.404 0.00868595 16.5402 -0.19722 15.7844 0.186625ZM16.4792 1.71842C16.4737 2.11385 16.4212 2.35657 16.2681 2.69583C16.0252 3.23391 15.6065 3.76529 15.3011 3.92327C15.0865 4.03422 15.0788 4.03171 15.0292 3.83395C14.9549 3.53782 15.1086 2.82172 15.3566 2.30909C15.5882 1.83029 16.2405 1.10756 16.3935 1.1603C16.4559 1.18179 16.4843 1.36628 16.4792 1.71842ZM18.3214 2.22305C19.1734 3.02001 19.7669 4.04794 20.0939 5.29267C20.2426 5.8591 20.4187 6.99662 20.3711 7.08349C20.3596 7.10445 20.0039 7.11077 19.5806 7.09751C19.0126 7.07968 18.8111 7.04745 18.8111 6.97437C18.8111 6.75566 18.263 5.80096 17.9113 5.40698C17.7054 5.17646 17.3097 4.85503 17.032 4.69263L16.5269 4.39749L16.7463 4.12056C17.1797 3.57341 17.6679 2.38933 17.6679 1.88554C17.6679 1.66218 17.7883 1.72429 18.3214 2.22305ZM26.5286 5.41338C26.8097 5.76049 26.5748 6.22855 25.9874 6.4913C25.2122 6.83796 24.5802 6.5874 24.5892 5.93691C24.5947 5.5347 24.6833 5.44379 25.2125 5.29679C25.7947 5.13508 26.3426 5.18362 26.5286 5.41338ZM10.0952 15.0962C9.91168 15.2028 9.40215 16.2994 9.29302 16.8224C9.17726 17.3775 9.1893 18.3083 9.31946 18.8572C9.92768 21.4234 12.4862 22.9773 15.0314 22.3264C15.917 22.0999 16.475 21.7718 17.1886 21.058C17.8605 20.3859 17.9877 20.1315 17.8101 19.815C17.6531 19.535 10.7071 15.0081 10.4393 15.0111C10.3284 15.0124 10.1735 15.0507 10.0952 15.0962ZM24.824 17.3167C22.664 18.7276 21.2486 19.6996 21.1823 19.8177C21.0066 20.1306 21.1353 20.3875 21.8053 21.0616C22.265 21.524 22.5775 21.7636 22.9832 21.9644C25.7375 23.3279 28.9776 21.817 29.679 18.842C29.9191 17.8238 29.7491 16.5991 29.2236 15.5623C29.0116 15.1439 28.8455 15.0088 28.5428 15.0088C28.4283 15.0088 27.0064 15.8913 24.824 17.3167ZM13.5286 18.2576C15.1137 19.2899 16.4276 20.1507 16.4486 20.1703C16.5216 20.2386 15.8545 20.7681 15.4481 20.9643C14.8502 21.2529 14.3088 21.358 13.6405 21.3153C11.787 21.1965 10.3519 19.6653 10.3519 17.8063C10.3519 17.3617 10.5389 16.3805 10.6237 16.3805C10.6363 16.3805 11.9435 17.2252 13.5286 18.2576ZM28.4817 16.6663C28.5333 16.8235 28.5951 17.2482 28.6188 17.6102C28.6728 18.4317 28.4887 19.108 28.0204 19.8093C27.266 20.9391 25.7771 21.5414 24.4304 21.2615C23.5645 21.0815 22.3158 20.29 22.6215 20.1148C22.6843 20.0787 23.9875 19.2267 25.5174 18.2214C27.0473 17.2161 28.319 16.3906 28.3433 16.3871C28.3677 16.3835 28.43 16.5091 28.4817 16.6663ZM6.44725 24.0423C6.15628 24.2027 6.11277 24.4634 6.29452 24.9567C6.86068 26.4936 8.27274 28.1287 10.0852 29.3461C12.4919 30.9628 16.3392 32.155 19.1494 32.155C20.1853 32.155 20.214 32.1236 20.2448 30.9616C20.264 30.2375 20.2932 30.0405 20.3928 29.9641C20.5223 29.8645 22.3393 29.8238 22.5771 29.9151C22.6717 29.9513 22.6977 30.0803 22.6977 30.5134C22.6977 31.385 22.8662 31.6977 23.336 31.6977C23.9082 31.6977 26.9831 30.5438 27.3268 30.2002C27.5412 29.9858 27.5462 29.7211 27.3408 29.46C27.1203 29.1796 26.8794 29.2021 26.0804 29.5774C25.3253 29.9322 23.9872 30.4075 23.8983 30.3526C23.8667 30.3331 23.8408 30.1977 23.8408 30.0518C23.8408 29.7101 23.5988 29.2381 23.3227 29.0415C22.954 28.7789 22.4847 28.7096 21.2763 28.7392C19.9392 28.7718 19.6367 28.8792 19.3097 29.4372C19.1442 29.7197 19.1159 29.8603 19.1159 30.4013V31.0347L18.4456 30.9871C15.619 30.7865 12.3234 29.61 10.2205 28.0509C9.20721 27.2996 8.16193 26.1578 7.75125 25.3537L7.60531 25.0679H8.89178H10.1782L10.2218 25.4906C10.2817 26.0714 10.5648 26.5339 10.9846 26.7371C11.2809 26.8806 11.45 26.8968 12.6444 26.8968C14.1423 26.8968 14.309 26.8518 14.7286 26.3335C14.9159 26.1021 14.9612 25.9666 14.987 25.5604L15.0184 25.0679H19.3048H23.5912L23.6419 25.4995C23.7045 26.0323 23.916 26.4218 24.2772 26.6695C24.5401 26.8499 24.6136 26.8599 25.8527 26.883C27.3947 26.9118 27.5718 26.8857 27.9225 26.5778C28.2791 26.2647 28.3552 26.1056 28.4074 25.5632L28.4514 25.106L29.8803 25.0853C30.6662 25.0738 31.3092 25.0942 31.3092 25.1305C31.3092 25.318 30.4259 26.4237 29.6977 27.1476C28.7942 28.0458 28.7219 28.203 29.0576 28.5387C29.4055 28.8865 29.6175 28.8075 30.4359 28.0252C31.328 27.1724 32.0402 26.2449 32.4933 25.3459C32.9314 24.4769 32.9366 24.2501 32.5231 24.0363C32.3482 23.9459 31.8834 23.9248 30.0592 23.9248C27.7688 23.9248 27.498 23.9547 27.3734 24.2209C27.3417 24.2885 27.2969 24.6526 27.2739 25.0298L27.2321 25.7156L26.0895 25.7368C24.7194 25.7623 24.7553 25.7856 24.7553 24.8683C24.7553 23.834 25.2731 23.9248 19.3759 23.9248C14.2715 23.9248 14.0948 23.9345 13.9607 24.2209C13.929 24.2885 13.8843 24.6526 13.8612 25.0298L13.8194 25.7156L12.6768 25.7368C11.3079 25.7622 11.3426 25.7847 11.3426 24.8746C11.3426 23.917 11.4764 23.9667 8.83897 23.9451C7.0118 23.9302 6.62184 23.9461 6.44725 24.0423Z"/>
</mask>
<path fill-rule="evenodd" clip-rule="evenodd" d="M15.7844 0.186625C15.0166 0.576566 14.2553 1.66432 13.973 2.77485C13.8363 3.31248 13.8271 3.73184 13.9428 4.1496C14.1226 4.79902 14.4317 5.03403 15.496 5.33077C16.2857 5.55093 16.6136 5.72232 16.9923 6.11241C17.2717 6.40039 17.6679 7.05156 17.6679 7.22295C17.6679 7.26052 17.3631 7.40028 16.9905 7.53356C16.1842 7.82192 15.1809 8.40428 14.4881 8.9861C14.2118 9.218 13.895 9.4822 13.784 9.57311L13.5823 9.73848L13.2148 9.50979C12.7814 9.23994 11.931 8.89009 11.2541 8.703C10.8835 8.60058 10.4874 8.57033 9.55174 8.573C8.3821 8.57627 8.30193 8.58664 7.58412 8.82592C6.75155 9.10346 6.54152 9.25976 6.54152 9.60169C6.54152 9.8364 6.8257 10.2079 7.00532 10.2079C7.05463 10.2079 7.4077 10.0991 7.78988 9.96603C8.38149 9.76012 8.6217 9.71912 9.4052 9.69054C10.4818 9.65122 11.2505 9.80592 12.1428 10.2414C12.9506 10.6356 12.9274 10.5527 12.4438 11.3191C11.5511 12.7343 11.3872 13.2276 11.7202 13.4972C11.9397 13.6749 12.3496 13.6784 12.5036 13.5038C12.5683 13.4304 12.7423 13.1283 12.8901 12.8323C13.8029 11.0058 15.1821 9.61586 16.8587 8.83278C17.8488 8.37029 18.3216 8.26932 19.4969 8.26932C20.6722 8.26932 21.145 8.37029 22.1352 8.83278C23.4297 9.43747 24.6089 10.4513 25.3696 11.6138C26.079 12.6977 26.0322 12.6465 26.3127 12.6465C26.5821 12.6465 26.8715 12.4567 26.8939 12.2654C26.929 11.9641 26.8606 11.7841 26.5025 11.2354C26.2025 10.7759 26.1383 10.6277 26.2167 10.5747C26.2722 10.5371 26.553 10.3853 26.8407 10.2375C28.3179 9.47824 30.1109 9.45126 31.7227 10.1641C32.8109 10.6453 34.0651 11.7477 34.9868 13.0333C35.5744 13.8528 36.4486 15.5601 36.7984 16.571C37.1588 17.6128 37.4593 18.8467 37.6466 20.0538C37.8904 21.6256 37.8904 24.4714 37.6466 26.0431C37.3286 28.0932 36.8575 29.6191 36.0302 31.2786C34.6935 33.9603 32.8005 35.7393 30.7099 36.2784C30.1199 36.4305 28.8417 36.4878 28.3717 36.383C27.8295 36.2622 26.9694 35.9439 26.5693 35.716L26.1351 35.4687L26.5559 34.8596C27.2497 33.8557 27.598 33.2166 27.5908 32.9613C27.5755 32.4243 26.8378 32.2738 26.5472 32.7485C25.8256 33.927 25.101 34.9406 24.6206 35.4435C22.236 37.9392 19.1665 38.5473 16.4536 37.0614C15.199 36.3742 13.9568 35.1815 13.2471 33.9825C13.0174 33.5946 12.7558 33.2288 12.6657 33.1698C12.3897 32.989 11.9838 33.1725 11.8556 33.5362C11.8006 33.6923 12.0751 34.2889 12.5146 34.9683L12.8543 35.4934L12.4052 35.7328C11.4616 36.2357 10.6756 36.4331 9.62795 36.4305C6.99374 36.4236 4.59523 34.5699 2.96209 31.2786C2.13355 29.6089 1.66418 28.0871 1.34739 26.0431C1.12318 24.5966 1.10443 21.7092 1.31012 20.3051C1.80121 16.9537 3.0008 14.0684 4.69316 12.1684C5.21686 11.5805 5.2651 11.4655 5.12648 11.1359C5.01819 10.8783 4.76198 10.7695 4.44891 10.848C4.21533 10.9067 3.49052 11.7564 2.81241 12.7666C0.436316 16.3064 -0.543723 21.7263 0.296093 26.6832C1.19101 31.9655 4.03099 36.1117 7.53222 37.2476C8.34758 37.5121 8.74074 37.5732 9.63252 37.5743C10.8056 37.5757 11.6272 37.3737 12.7633 36.8044L13.6469 36.3616L14.0762 36.7559C17.3146 39.7307 21.6125 39.7495 24.8639 36.8031L25.3711 36.3434L25.73 36.5485C25.9275 36.6613 26.1232 36.7767 26.1652 36.8051C26.3795 36.95 27.4538 37.336 27.9545 37.4479C28.6092 37.5943 30.0102 37.6171 30.5884 37.4908C33.0189 36.9601 35.0196 35.3485 36.6165 32.6352C38.6606 29.1621 39.468 24.1974 38.733 19.6192C37.9318 14.6273 35.4613 10.6635 32.2029 9.14149C30.1044 8.16126 27.7021 8.31276 25.7014 9.55155L25.39 9.74435L24.8631 9.27645C24.1478 8.64128 23.1305 7.98538 22.3935 7.68406C22.0578 7.54682 21.7832 7.41559 21.7832 7.39235C21.7833 7.32575 22.4786 6.74446 22.9719 6.39864L23.4217 6.08338L23.4665 6.35253C23.5461 6.8314 23.9134 7.32034 24.3754 7.56275C24.754 7.76134 24.8509 7.77947 25.4031 7.75501C27.0636 7.68163 28.228 6.29271 27.6591 5.06406C27.3728 4.44573 26.7872 4.11149 25.9899 4.11149H25.567L25.7518 3.91275C26.0236 3.6202 26.8046 3.07731 27.3981 2.7683C28.0634 2.4218 28.1085 2.38171 28.1085 2.13519C28.1085 1.88996 27.8737 1.61722 27.6043 1.54963C26.9891 1.39524 24.7734 3.0245 24.0861 4.13664C23.8739 4.4801 23.7241 4.62519 23.4261 4.77577C22.8866 5.04843 22.2646 5.45164 21.8488 5.79814C21.4466 6.13344 21.4021 6.14853 21.4021 5.95017C21.4021 5.65053 21.0216 4.32601 20.766 3.73641C20.2694 2.59044 19.5059 1.62355 18.4681 0.826214C17.404 0.00868595 16.5402 -0.19722 15.7844 0.186625ZM16.4792 1.71842C16.4737 2.11385 16.4212 2.35657 16.2681 2.69583C16.0252 3.23391 15.6065 3.76529 15.3011 3.92327C15.0865 4.03422 15.0788 4.03171 15.0292 3.83395C14.9549 3.53782 15.1086 2.82172 15.3566 2.30909C15.5882 1.83029 16.2405 1.10756 16.3935 1.1603C16.4559 1.18179 16.4843 1.36628 16.4792 1.71842ZM18.3214 2.22305C19.1734 3.02001 19.7669 4.04794 20.0939 5.29267C20.2426 5.8591 20.4187 6.99662 20.3711 7.08349C20.3596 7.10445 20.0039 7.11077 19.5806 7.09751C19.0126 7.07968 18.8111 7.04745 18.8111 6.97437C18.8111 6.75566 18.263 5.80096 17.9113 5.40698C17.7054 5.17646 17.3097 4.85503 17.032 4.69263L16.5269 4.39749L16.7463 4.12056C17.1797 3.57341 17.6679 2.38933 17.6679 1.88554C17.6679 1.66218 17.7883 1.72429 18.3214 2.22305ZM26.5286 5.41338C26.8097 5.76049 26.5748 6.22855 25.9874 6.4913C25.2122 6.83796 24.5802 6.5874 24.5892 5.93691C24.5947 5.5347 24.6833 5.44379 25.2125 5.29679C25.7947 5.13508 26.3426 5.18362 26.5286 5.41338ZM10.0952 15.0962C9.91168 15.2028 9.40215 16.2994 9.29302 16.8224C9.17726 17.3775 9.1893 18.3083 9.31946 18.8572C9.92768 21.4234 12.4862 22.9773 15.0314 22.3264C15.917 22.0999 16.475 21.7718 17.1886 21.058C17.8605 20.3859 17.9877 20.1315 17.8101 19.815C17.6531 19.535 10.7071 15.0081 10.4393 15.0111C10.3284 15.0124 10.1735 15.0507 10.0952 15.0962ZM24.824 17.3167C22.664 18.7276 21.2486 19.6996 21.1823 19.8177C21.0066 20.1306 21.1353 20.3875 21.8053 21.0616C22.265 21.524 22.5775 21.7636 22.9832 21.9644C25.7375 23.3279 28.9776 21.817 29.679 18.842C29.9191 17.8238 29.7491 16.5991 29.2236 15.5623C29.0116 15.1439 28.8455 15.0088 28.5428 15.0088C28.4283 15.0088 27.0064 15.8913 24.824 17.3167ZM13.5286 18.2576C15.1137 19.2899 16.4276 20.1507 16.4486 20.1703C16.5216 20.2386 15.8545 20.7681 15.4481 20.9643C14.8502 21.2529 14.3088 21.358 13.6405 21.3153C11.787 21.1965 10.3519 19.6653 10.3519 17.8063C10.3519 17.3617 10.5389 16.3805 10.6237 16.3805C10.6363 16.3805 11.9435 17.2252 13.5286 18.2576ZM28.4817 16.6663C28.5333 16.8235 28.5951 17.2482 28.6188 17.6102C28.6728 18.4317 28.4887 19.108 28.0204 19.8093C27.266 20.9391 25.7771 21.5414 24.4304 21.2615C23.5645 21.0815 22.3158 20.29 22.6215 20.1148C22.6843 20.0787 23.9875 19.2267 25.5174 18.2214C27.0473 17.2161 28.319 16.3906 28.3433 16.3871C28.3677 16.3835 28.43 16.5091 28.4817 16.6663ZM6.44725 24.0423C6.15628 24.2027 6.11277 24.4634 6.29452 24.9567C6.86068 26.4936 8.27274 28.1287 10.0852 29.3461C12.4919 30.9628 16.3392 32.155 19.1494 32.155C20.1853 32.155 20.214 32.1236 20.2448 30.9616C20.264 30.2375 20.2932 30.0405 20.3928 29.9641C20.5223 29.8645 22.3393 29.8238 22.5771 29.9151C22.6717 29.9513 22.6977 30.0803 22.6977 30.5134C22.6977 31.385 22.8662 31.6977 23.336 31.6977C23.9082 31.6977 26.9831 30.5438 27.3268 30.2002C27.5412 29.9858 27.5462 29.7211 27.3408 29.46C27.1203 29.1796 26.8794 29.2021 26.0804 29.5774C25.3253 29.9322 23.9872 30.4075 23.8983 30.3526C23.8667 30.3331 23.8408 30.1977 23.8408 30.0518C23.8408 29.7101 23.5988 29.2381 23.3227 29.0415C22.954 28.7789 22.4847 28.7096 21.2763 28.7392C19.9392 28.7718 19.6367 28.8792 19.3097 29.4372C19.1442 29.7197 19.1159 29.8603 19.1159 30.4013V31.0347L18.4456 30.9871C15.619 30.7865 12.3234 29.61 10.2205 28.0509C9.20721 27.2996 8.16193 26.1578 7.75125 25.3537L7.60531 25.0679H8.89178H10.1782L10.2218 25.4906C10.2817 26.0714 10.5648 26.5339 10.9846 26.7371C11.2809 26.8806 11.45 26.8968 12.6444 26.8968C14.1423 26.8968 14.309 26.8518 14.7286 26.3335C14.9159 26.1021 14.9612 25.9666 14.987 25.5604L15.0184 25.0679H19.3048H23.5912L23.6419 25.4995C23.7045 26.0323 23.916 26.4218 24.2772 26.6695C24.5401 26.8499 24.6136 26.8599 25.8527 26.883C27.3947 26.9118 27.5718 26.8857 27.9225 26.5778C28.2791 26.2647 28.3552 26.1056 28.4074 25.5632L28.4514 25.106L29.8803 25.0853C30.6662 25.0738 31.3092 25.0942 31.3092 25.1305C31.3092 25.318 30.4259 26.4237 29.6977 27.1476C28.7942 28.0458 28.7219 28.203 29.0576 28.5387C29.4055 28.8865 29.6175 28.8075 30.4359 28.0252C31.328 27.1724 32.0402 26.2449 32.4933 25.3459C32.9314 24.4769 32.9366 24.2501 32.5231 24.0363C32.3482 23.9459 31.8834 23.9248 30.0592 23.9248C27.7688 23.9248 27.498 23.9547 27.3734 24.2209C27.3417 24.2885 27.2969 24.6526 27.2739 25.0298L27.2321 25.7156L26.0895 25.7368C24.7194 25.7623 24.7553 25.7856 24.7553 24.8683C24.7553 23.834 25.2731 23.9248 19.3759 23.9248C14.2715 23.9248 14.0948 23.9345 13.9607 24.2209C13.929 24.2885 13.8843 24.6526 13.8612 25.0298L13.8194 25.7156L12.6768 25.7368C11.3079 25.7622 11.3426 25.7847 11.3426 24.8746C11.3426 23.917 11.4764 23.9667 8.83897 23.9451C7.0118 23.9302 6.62184 23.9461 6.44725 24.0423Z" fill="white" stroke="#1E2433" stroke-width="0.2" mask="url(#path-1-inside-1_735:25174)"/>
</svg>
