<svg width="20" height="39" viewBox="0 0 20 39" fill="none" xmlns="http://www.w3.org/2000/svg">
<mask id="path-1-inside-1_735:25211" fill="white">
<path fill-rule="evenodd" clip-rule="evenodd" d="M3.6128 0.0612547C3.12392 0.178133 2.41247 0.598581 2.06619 0.975268C1.5686 1.51661 1.27837 2.21583 1.23042 2.98849L1.19039 3.63467L3.6887 4.13335C5.0628 4.40764 6.31211 4.69657 6.465 4.77543C6.83677 4.96739 7.13133 5.2908 7.32518 5.72038C7.45013 5.99718 7.48545 6.24102 7.48678 6.83619L7.48851 7.59775L7.06972 7.79011C6.55674 8.0256 6.14533 8.42668 5.85996 8.96959L5.64413 9.38021L5.62247 14.9383L5.60088 20.4963L4.91132 20.783C2.62006 21.7354 0.870879 23.7638 0.215144 26.2289C0.0365135 26.9002 0.00629709 27.1769 0.000489261 28.1909C-0.00461221 29.0773 0.0294497 29.5247 0.13713 29.9859C0.32557 30.7929 2.54965 37.025 2.80543 37.4626C3.38174 38.4488 4.65036 39.0957 5.79725 38.9884C6.80797 38.8937 7.55969 38.4602 8.25797 37.5692C8.86818 36.7905 9.34803 36.4944 10 36.4944C10.652 36.4944 11.1318 36.7905 11.742 37.5692C12.4403 38.4602 13.192 38.8937 14.2028 38.9884C15.3496 39.0957 16.6183 38.4488 17.1946 37.4626C17.4503 37.025 19.6744 30.7929 19.8629 29.9859C19.9706 29.5247 20.0046 29.0773 19.9995 28.1909C19.9937 27.1761 19.9635 26.8998 19.784 26.2233C19.1241 23.736 17.237 21.5924 14.9285 20.7077L14.3992 20.5049L14.3775 14.9425L14.3559 9.38021L14.14 8.96959C13.8547 8.42668 13.4433 8.0256 12.9303 7.79011L12.5115 7.59775V7.12079C12.5115 6.47273 12.6406 6.08911 12.9942 5.6863C13.5025 5.1071 13.6732 5.0594 15.4154 5.00927C16.874 4.96724 16.9647 4.95535 17.3467 4.75686C17.9376 4.44975 18.1842 4.21103 18.4814 3.65836C18.7249 3.20548 18.7481 3.10442 18.7481 2.49343C18.7481 1.88243 18.7249 1.78137 18.4814 1.3285C18.1854 0.777952 17.9412 0.540811 17.3467 0.226301L16.9459 0.0141886L10.4317 0.00128081C6.66113 -0.00611755 3.78916 0.019147 3.6128 0.0612547ZM16.9549 1.43578C17.3668 1.74415 17.4952 1.99569 17.4952 2.49343C17.4952 2.99109 17.3668 3.24247 16.9551 3.55108C16.7584 3.6985 16.5965 3.71699 15.1896 3.75288L13.6406 3.79239L13.0479 4.0862C11.9447 4.63297 11.3462 5.55816 11.2739 6.82824L11.234 7.53061H9.99882H8.76364L8.73068 6.60456C8.70093 5.76791 8.67393 5.62742 8.4508 5.14921C8.15162 4.50822 7.60702 3.93965 7.01281 3.64812C6.71002 3.49961 5.97321 3.31315 4.58083 3.03296C3.48213 2.81187 2.57139 2.62062 2.55695 2.60795C2.54243 2.59527 2.59102 2.45714 2.66495 2.30099C2.83047 1.95122 3.39179 1.44459 3.73814 1.33236C3.91261 1.27585 6.05523 1.25279 10.3671 1.26113C16.6698 1.27333 16.7405 1.27522 16.9549 1.43578ZM12.5599 8.99155C12.6791 9.08081 12.8493 9.2516 12.9383 9.37108C13.095 9.58146 13.1008 9.69526 13.1222 12.967L13.1442 16.3457H10.0024H6.86063V13.0845C6.86063 10.9656 6.88999 9.74572 6.94438 9.60176C6.99037 9.47993 7.10519 9.29599 7.19945 9.19312C7.55177 8.80833 7.6815 8.79117 10.0925 8.81085C12.2281 8.82832 12.3544 8.83761 12.5599 8.99155ZM9.37213 10.1521C8.98693 10.2738 8.32994 10.9561 8.21182 11.357C7.99442 12.0949 8.1477 12.6833 8.70234 13.2395C9.49637 14.0357 10.5036 14.0357 11.2977 13.2395C12.0646 12.4704 12.0875 11.492 11.3577 10.6779C10.8498 10.1114 10.1159 9.91698 9.37213 10.1521ZM10.4352 11.5017C10.8246 11.8921 10.5487 12.5678 10 12.5678C9.84711 12.5678 9.68622 12.4964 9.56481 12.3746C9.44331 12.2528 9.37213 12.0915 9.37213 11.9382C9.37213 11.7848 9.44331 11.6235 9.56481 11.5017C9.68622 11.3799 9.84711 11.3085 10 11.3085C10.1529 11.3085 10.3138 11.3799 10.4352 11.5017ZM8.11638 21.619V25.633H7.93328C7.83258 25.633 7.55004 25.5927 7.3054 25.5434L6.86063 25.4539V21.5294V17.605H7.48851H8.11638V21.619ZM10.6279 21.6977V25.7904H10H9.37213V21.6977V17.605H10H10.6279V21.6977ZM13.1394 21.5294V25.4539L12.6946 25.5434C12.45 25.5927 12.1674 25.633 12.0667 25.633H11.8836V21.619V17.605H12.5115H13.1394V21.5294ZM5.56729 24.9886C5.54477 25.0111 5.38717 24.9175 5.21702 24.7804C4.93094 24.5498 4.86313 24.5311 4.31453 24.5311C3.63431 24.5311 3.60982 24.5654 3.88444 25.1342C4.39199 26.1857 6.51954 26.914 9.41137 27.0262C12.6552 27.152 15.5337 26.3397 16.1156 25.1342C16.3914 24.5628 16.3676 24.5306 15.6705 24.5343C15.1123 24.5373 15.0399 24.5567 14.7905 24.7705C14.6411 24.8985 14.4909 25.0033 14.457 25.0033C14.4229 25.0033 14.3951 24.2945 14.3951 23.4282V21.853L14.6894 21.9756C15.6713 22.3847 16.8461 23.3393 17.5018 24.2607C18.5455 25.7275 19 27.7307 18.6774 29.4423C18.5563 30.0841 16.4683 36.1389 16.1727 36.705C16.0234 36.991 15.6084 37.3817 15.2584 37.5658C15.0678 37.666 14.8156 37.7101 14.4344 37.71C13.7456 37.7096 13.3616 37.5223 12.8896 36.9559C12.1042 36.0135 11.9314 35.8582 11.3468 35.5685C10.7864 35.2907 10.7122 35.2745 10 35.2745C9.28776 35.2745 9.21359 35.2907 8.65321 35.5685C8.06858 35.8582 7.89576 36.0135 7.11037 36.9559C6.63837 37.5223 6.25442 37.7096 5.56565 37.71C5.18437 37.7101 4.9322 37.666 4.74156 37.5658C4.3927 37.3822 3.97665 36.9912 3.82848 36.7074C3.67543 36.4142 1.5628 30.4801 1.39044 29.8592C1.1856 29.1212 1.20883 27.3741 1.43463 26.5381C1.95647 24.6059 3.19205 23.071 4.96752 22.1495L5.56565 21.839L5.58699 23.3933C5.59869 24.2481 5.58982 24.966 5.56729 24.9886Z"/>
</mask>
<path fill-rule="evenodd" clip-rule="evenodd" d="M3.6128 0.0612547C3.12392 0.178133 2.41247 0.598581 2.06619 0.975268C1.5686 1.51661 1.27837 2.21583 1.23042 2.98849L1.19039 3.63467L3.6887 4.13335C5.0628 4.40764 6.31211 4.69657 6.465 4.77543C6.83677 4.96739 7.13133 5.2908 7.32518 5.72038C7.45013 5.99718 7.48545 6.24102 7.48678 6.83619L7.48851 7.59775L7.06972 7.79011C6.55674 8.0256 6.14533 8.42668 5.85996 8.96959L5.64413 9.38021L5.62247 14.9383L5.60088 20.4963L4.91132 20.783C2.62006 21.7354 0.870879 23.7638 0.215144 26.2289C0.0365135 26.9002 0.00629709 27.1769 0.000489261 28.1909C-0.00461221 29.0773 0.0294497 29.5247 0.13713 29.9859C0.32557 30.7929 2.54965 37.025 2.80543 37.4626C3.38174 38.4488 4.65036 39.0957 5.79725 38.9884C6.80797 38.8937 7.55969 38.4602 8.25797 37.5692C8.86818 36.7905 9.34803 36.4944 10 36.4944C10.652 36.4944 11.1318 36.7905 11.742 37.5692C12.4403 38.4602 13.192 38.8937 14.2028 38.9884C15.3496 39.0957 16.6183 38.4488 17.1946 37.4626C17.4503 37.025 19.6744 30.7929 19.8629 29.9859C19.9706 29.5247 20.0046 29.0773 19.9995 28.1909C19.9937 27.1761 19.9635 26.8998 19.784 26.2233C19.1241 23.736 17.237 21.5924 14.9285 20.7077L14.3992 20.5049L14.3775 14.9425L14.3559 9.38021L14.14 8.96959C13.8547 8.42668 13.4433 8.0256 12.9303 7.79011L12.5115 7.59775V7.12079C12.5115 6.47273 12.6406 6.08911 12.9942 5.6863C13.5025 5.1071 13.6732 5.0594 15.4154 5.00927C16.874 4.96724 16.9647 4.95535 17.3467 4.75686C17.9376 4.44975 18.1842 4.21103 18.4814 3.65836C18.7249 3.20548 18.7481 3.10442 18.7481 2.49343C18.7481 1.88243 18.7249 1.78137 18.4814 1.3285C18.1854 0.777952 17.9412 0.540811 17.3467 0.226301L16.9459 0.0141886L10.4317 0.00128081C6.66113 -0.00611755 3.78916 0.019147 3.6128 0.0612547ZM16.9549 1.43578C17.3668 1.74415 17.4952 1.99569 17.4952 2.49343C17.4952 2.99109 17.3668 3.24247 16.9551 3.55108C16.7584 3.6985 16.5965 3.71699 15.1896 3.75288L13.6406 3.79239L13.0479 4.0862C11.9447 4.63297 11.3462 5.55816 11.2739 6.82824L11.234 7.53061H9.99882H8.76364L8.73068 6.60456C8.70093 5.76791 8.67393 5.62742 8.4508 5.14921C8.15162 4.50822 7.60702 3.93965 7.01281 3.64812C6.71002 3.49961 5.97321 3.31315 4.58083 3.03296C3.48213 2.81187 2.57139 2.62062 2.55695 2.60795C2.54243 2.59527 2.59102 2.45714 2.66495 2.30099C2.83047 1.95122 3.39179 1.44459 3.73814 1.33236C3.91261 1.27585 6.05523 1.25279 10.3671 1.26113C16.6698 1.27333 16.7405 1.27522 16.9549 1.43578ZM12.5599 8.99155C12.6791 9.08081 12.8493 9.2516 12.9383 9.37108C13.095 9.58146 13.1008 9.69526 13.1222 12.967L13.1442 16.3457H10.0024H6.86063V13.0845C6.86063 10.9656 6.88999 9.74572 6.94438 9.60176C6.99037 9.47993 7.10519 9.29599 7.19945 9.19312C7.55177 8.80833 7.6815 8.79117 10.0925 8.81085C12.2281 8.82832 12.3544 8.83761 12.5599 8.99155ZM9.37213 10.1521C8.98693 10.2738 8.32994 10.9561 8.21182 11.357C7.99442 12.0949 8.1477 12.6833 8.70234 13.2395C9.49637 14.0357 10.5036 14.0357 11.2977 13.2395C12.0646 12.4704 12.0875 11.492 11.3577 10.6779C10.8498 10.1114 10.1159 9.91698 9.37213 10.1521ZM10.4352 11.5017C10.8246 11.8921 10.5487 12.5678 10 12.5678C9.84711 12.5678 9.68622 12.4964 9.56481 12.3746C9.44331 12.2528 9.37213 12.0915 9.37213 11.9382C9.37213 11.7848 9.44331 11.6235 9.56481 11.5017C9.68622 11.3799 9.84711 11.3085 10 11.3085C10.1529 11.3085 10.3138 11.3799 10.4352 11.5017ZM8.11638 21.619V25.633H7.93328C7.83258 25.633 7.55004 25.5927 7.3054 25.5434L6.86063 25.4539V21.5294V17.605H7.48851H8.11638V21.619ZM10.6279 21.6977V25.7904H10H9.37213V21.6977V17.605H10H10.6279V21.6977ZM13.1394 21.5294V25.4539L12.6946 25.5434C12.45 25.5927 12.1674 25.633 12.0667 25.633H11.8836V21.619V17.605H12.5115H13.1394V21.5294ZM5.56729 24.9886C5.54477 25.0111 5.38717 24.9175 5.21702 24.7804C4.93094 24.5498 4.86313 24.5311 4.31453 24.5311C3.63431 24.5311 3.60982 24.5654 3.88444 25.1342C4.39199 26.1857 6.51954 26.914 9.41137 27.0262C12.6552 27.152 15.5337 26.3397 16.1156 25.1342C16.3914 24.5628 16.3676 24.5306 15.6705 24.5343C15.1123 24.5373 15.0399 24.5567 14.7905 24.7705C14.6411 24.8985 14.4909 25.0033 14.457 25.0033C14.4229 25.0033 14.3951 24.2945 14.3951 23.4282V21.853L14.6894 21.9756C15.6713 22.3847 16.8461 23.3393 17.5018 24.2607C18.5455 25.7275 19 27.7307 18.6774 29.4423C18.5563 30.0841 16.4683 36.1389 16.1727 36.705C16.0234 36.991 15.6084 37.3817 15.2584 37.5658C15.0678 37.666 14.8156 37.7101 14.4344 37.71C13.7456 37.7096 13.3616 37.5223 12.8896 36.9559C12.1042 36.0135 11.9314 35.8582 11.3468 35.5685C10.7864 35.2907 10.7122 35.2745 10 35.2745C9.28776 35.2745 9.21359 35.2907 8.65321 35.5685C8.06858 35.8582 7.89576 36.0135 7.11037 36.9559C6.63837 37.5223 6.25442 37.7096 5.56565 37.71C5.18437 37.7101 4.9322 37.666 4.74156 37.5658C4.3927 37.3822 3.97665 36.9912 3.82848 36.7074C3.67543 36.4142 1.5628 30.4801 1.39044 29.8592C1.1856 29.1212 1.20883 27.3741 1.43463 26.5381C1.95647 24.6059 3.19205 23.071 4.96752 22.1495L5.56565 21.839L5.58699 23.3933C5.59869 24.2481 5.58982 24.966 5.56729 24.9886Z" fill="white" stroke="#1E2433" stroke-width="0.4" mask="url(#path-1-inside-1_735:25211)"/>
</svg>
