<svg width="33" height="39" viewBox="0 0 33 39" fill="none"
  xmlns="http://www.w3.org/2000/svg">
  <mask id="path-1-inside-1_735:25215" fill="white">
    <path fill-rule="evenodd" clip-rule="evenodd" d="M15.387 0.0848102C14.7921 0.221165 14.1031 0.500199 13.5572 0.825727C13.1308 1.07999 12.2153 1.91306 11.9951 2.2472C11.8847 2.41457 11.7157 2.44171 8.12469 2.86967C6.05942 3.11578 4.30855 3.34131 4.23379 3.37088C4.15903 3.40038 4.04799 3.52134 3.98692 3.63955C3.88707 3.83307 3.90251 4.07727 4.14131 6.08837C4.28718 7.31693 4.40681 8.38215 4.40711 8.45555C4.40757 8.56241 4.34133 8.58893 4.07393 8.58893C3.86813 8.58893 3.67823 8.64008 3.57883 8.72231C3.49015 8.79571 2.95102 9.62741 2.38093 10.5706L1.34427 12.2855L0.673791 25.2045C0.305015 32.3099 0.00187123 38.2204 4.59819e-05 38.339C-0.00215953 38.4785 0.0750335 38.6329 0.219 38.7772L0.4413 39H16.5H32.5587L32.781 38.7772C32.925 38.6329 33.0022 38.4785 33 38.339C32.9981 38.2204 32.695 32.3099 32.3262 25.2045L31.6557 12.2855L30.6191 10.5706C30.049 9.62741 29.5098 8.79571 29.4212 8.72231C29.2942 8.61721 29.1153 8.58893 28.5787 8.58893C27.9653 8.58893 27.9016 8.57567 27.9379 8.45555C28.0784 7.99108 28.3641 6.62929 28.3641 6.42434C28.3641 6.2328 28.1546 5.85933 28.0379 5.84279C28.0291 5.84157 26.6701 5.52313 25.0178 5.1351L22.0138 4.42971L21.852 3.92705C21.277 2.14057 19.8907 0.781445 18.0591 0.208284C17.3711 -0.00695649 16.053 -0.067931 15.387 0.0848102ZM17.6368 1.47328C18.3602 1.67686 18.9418 2.0254 19.5123 2.59734C19.9759 3.06205 20.4547 3.77598 20.4547 4.0025C20.4547 4.03985 20.1211 3.99046 19.7132 3.89282C18.3193 3.55914 18.23 3.61257 17.9149 4.96903C17.4249 7.07951 17.4773 6.9382 17.155 7.01457C16.9927 7.05306 16.8428 7.0539 16.8104 7.01648C16.7787 6.98004 16.6399 5.95559 16.5018 4.73991C16.3637 3.52423 16.2052 2.43896 16.1496 2.32822C15.9887 2.00825 15.7119 1.95604 14.8149 2.07632C14.3823 2.13432 13.9941 2.18218 13.9523 2.18272C13.796 2.1847 14.5829 1.74324 15.0211 1.58311C15.9098 1.25842 16.748 1.22321 17.6368 1.47328ZM15.2366 5.2925C15.3532 6.33005 15.463 7.23263 15.4806 7.29825C15.5071 7.3968 14.9676 7.54878 12.3749 8.17293C9.60086 8.84076 9.21277 8.95211 9.02788 9.13382C8.91289 9.24693 8.81874 9.40386 8.81874 9.48267C8.81874 9.5614 8.93852 10.1147 9.08492 10.7123C9.23132 11.3098 9.3511 11.814 9.3511 11.8326C9.3511 11.8511 8.63622 11.8663 7.76245 11.8663H6.17388L6.13068 11.6186C6.0001 10.8697 5.30437 4.61621 5.34689 4.57353C5.39503 4.52528 14.308 3.43148 14.7927 3.41433L15.0247 3.40609L15.2366 5.2925ZM23.104 6.045C25.1814 6.53219 26.8928 6.94125 26.9072 6.95398C26.9216 6.9667 26.6787 8.06867 26.3676 9.40271L25.8019 11.8282L23.8921 11.8486L21.9823 11.8689L21.9057 11.5818C21.8636 11.4239 21.5864 10.2829 21.2898 9.04624C20.9932 7.8096 20.6992 6.71907 20.6366 6.62288C20.4439 6.32685 20.2122 6.28951 19.5403 6.44629C18.8418 6.60932 18.8696 6.6427 19.0546 5.86078C19.211 5.20012 19.2241 5.15911 19.2799 5.15911C19.3057 5.15911 21.0265 5.55773 23.104 6.045ZM20.0836 9.6784C20.3214 10.6759 20.5371 11.5762 20.5629 11.6791L20.6097 11.8663H15.6678H10.7259L10.6498 11.5805C10.608 11.4233 10.5088 11.0134 10.4294 10.6697L10.2849 10.0447L12.4988 9.50675C13.7165 9.21087 15.7566 8.71462 17.0324 8.40403C18.3081 8.09336 19.4193 7.84497 19.5015 7.85206C19.6323 7.86326 19.7058 8.09397 20.0836 9.6784ZM4.68744 10.6858C4.73817 11.1045 4.78144 11.5415 4.7838 11.6567L4.78798 11.8663H3.98943C3.55023 11.8663 3.19089 11.851 3.19089 11.8322C3.19089 11.8136 3.45091 11.3658 3.76873 10.8373C4.49221 9.63427 4.55891 9.62321 4.68744 10.6858ZM29.2337 10.8414C29.5502 11.3677 29.8091 11.8136 29.8091 11.8322C29.8091 11.851 29.2079 11.8663 28.4731 11.8663C27.2366 11.8663 27.1399 11.8564 27.1757 11.7329C27.197 11.6595 27.305 11.2137 27.4157 10.7421L27.6168 9.88464H28.1376H28.6584L29.2337 10.8414ZM30.4177 13.486C30.4178 13.6222 30.6915 19.067 31.0259 25.5856C31.3604 32.1042 31.6341 37.4976 31.6342 37.5709C31.6344 37.6975 30.863 37.7043 16.5 37.7043C2.13696 37.7043 1.36564 37.6975 1.36579 37.5709C1.36587 37.4976 1.63958 32.1042 1.97405 25.5856C2.30853 19.067 2.58224 13.6222 2.58232 13.486L2.58247 13.2382H16.5H30.4175L30.4177 13.486ZM10.7961 14.6875C9.75996 15.1717 9.30099 16.334 9.75821 17.3159C9.93868 17.7034 10.4278 18.2138 10.7026 18.3012C10.8463 18.3469 10.856 18.4361 10.8921 20.043C10.9333 21.8795 10.9947 22.2475 11.4085 23.1385C12.177 24.7929 13.6121 25.9377 15.3752 26.3027C18.2612 26.9001 21.0653 25.18 21.9065 22.2959C22.0443 21.8232 22.0755 21.4745 22.1078 20.043C22.144 18.4362 22.1537 18.3469 22.2974 18.3012C22.5426 18.2232 23.0391 17.7318 23.2082 17.3996C23.8901 16.0599 22.7919 14.4179 21.3043 14.5531C20.319 14.6426 19.5878 15.3554 19.4881 16.3233C19.4119 17.0638 19.84 17.8836 20.4847 18.2315L20.7589 18.3795V19.9086C20.7589 21.6337 20.6945 22.0117 20.2591 22.8421C19.7655 23.7834 18.8254 24.5657 17.7798 24.9052C15.8726 25.5243 13.6756 24.6248 12.7409 22.8421C12.3055 22.0117 12.2411 21.6337 12.2411 19.9086V18.3795L12.5153 18.2315C12.897 18.0255 13.2775 17.555 13.4269 17.1043C13.7264 16.2005 13.3019 15.1943 12.4312 14.7445C11.9785 14.5106 11.2307 14.4845 10.7961 14.6875ZM11.8563 15.9417C12.0918 16.0637 12.2534 16.4137 12.1888 16.6617C12.1479 16.818 12.1478 16.818 11.9561 16.6668C11.7105 16.4732 11.4015 16.4742 11.1541 16.6693C10.9627 16.8201 10.9584 16.8202 10.9126 16.6758C10.8331 16.4248 10.9578 16.1265 11.2054 15.9752C11.4911 15.8005 11.5757 15.7962 11.8563 15.9417ZM21.7407 15.9404C21.9878 16.0685 22.1644 16.4328 22.0912 16.6636L22.0408 16.8229L21.8459 16.6693C21.6161 16.4881 21.2383 16.4698 21.0117 16.6289C20.8709 16.7277 20.845 16.728 20.8079 16.631C20.7364 16.4444 20.9156 16.0611 21.1282 15.9452C21.3853 15.8053 21.4785 15.8046 21.7407 15.9404Z"/>
  </mask>
  <path fill-rule="evenodd" clip-rule="evenodd" d="M15.387 0.0848102C14.7921 0.221165 14.1031 0.500199 13.5572 0.825727C13.1308 1.07999 12.2153 1.91306 11.9951 2.2472C11.8847 2.41457 11.7157 2.44171 8.12469 2.86967C6.05942 3.11578 4.30855 3.34131 4.23379 3.37088C4.15903 3.40038 4.04799 3.52134 3.98692 3.63955C3.88707 3.83307 3.90251 4.07727 4.14131 6.08837C4.28718 7.31693 4.40681 8.38215 4.40711 8.45555C4.40757 8.56241 4.34133 8.58893 4.07393 8.58893C3.86813 8.58893 3.67823 8.64008 3.57883 8.72231C3.49015 8.79571 2.95102 9.62741 2.38093 10.5706L1.34427 12.2855L0.673791 25.2045C0.305015 32.3099 0.00187123 38.2204 4.59819e-05 38.339C-0.00215953 38.4785 0.0750335 38.6329 0.219 38.7772L0.4413 39H16.5H32.5587L32.781 38.7772C32.925 38.6329 33.0022 38.4785 33 38.339C32.9981 38.2204 32.695 32.3099 32.3262 25.2045L31.6557 12.2855L30.6191 10.5706C30.049 9.62741 29.5098 8.79571 29.4212 8.72231C29.2942 8.61721 29.1153 8.58893 28.5787 8.58893C27.9653 8.58893 27.9016 8.57567 27.9379 8.45555C28.0784 7.99108 28.3641 6.62929 28.3641 6.42434C28.3641 6.2328 28.1546 5.85933 28.0379 5.84279C28.0291 5.84157 26.6701 5.52313 25.0178 5.1351L22.0138 4.42971L21.852 3.92705C21.277 2.14057 19.8907 0.781445 18.0591 0.208284C17.3711 -0.00695649 16.053 -0.067931 15.387 0.0848102ZM17.6368 1.47328C18.3602 1.67686 18.9418 2.0254 19.5123 2.59734C19.9759 3.06205 20.4547 3.77598 20.4547 4.0025C20.4547 4.03985 20.1211 3.99046 19.7132 3.89282C18.3193 3.55914 18.23 3.61257 17.9149 4.96903C17.4249 7.07951 17.4773 6.9382 17.155 7.01457C16.9927 7.05306 16.8428 7.0539 16.8104 7.01648C16.7787 6.98004 16.6399 5.95559 16.5018 4.73991C16.3637 3.52423 16.2052 2.43896 16.1496 2.32822C15.9887 2.00825 15.7119 1.95604 14.8149 2.07632C14.3823 2.13432 13.9941 2.18218 13.9523 2.18272C13.796 2.1847 14.5829 1.74324 15.0211 1.58311C15.9098 1.25842 16.748 1.22321 17.6368 1.47328ZM15.2366 5.2925C15.3532 6.33005 15.463 7.23263 15.4806 7.29825C15.5071 7.3968 14.9676 7.54878 12.3749 8.17293C9.60086 8.84076 9.21277 8.95211 9.02788 9.13382C8.91289 9.24693 8.81874 9.40386 8.81874 9.48267C8.81874 9.5614 8.93852 10.1147 9.08492 10.7123C9.23132 11.3098 9.3511 11.814 9.3511 11.8326C9.3511 11.8511 8.63622 11.8663 7.76245 11.8663H6.17388L6.13068 11.6186C6.0001 10.8697 5.30437 4.61621 5.34689 4.57353C5.39503 4.52528 14.308 3.43148 14.7927 3.41433L15.0247 3.40609L15.2366 5.2925ZM23.104 6.045C25.1814 6.53219 26.8928 6.94125 26.9072 6.95398C26.9216 6.9667 26.6787 8.06867 26.3676 9.40271L25.8019 11.8282L23.8921 11.8486L21.9823 11.8689L21.9057 11.5818C21.8636 11.4239 21.5864 10.2829 21.2898 9.04624C20.9932 7.8096 20.6992 6.71907 20.6366 6.62288C20.4439 6.32685 20.2122 6.28951 19.5403 6.44629C18.8418 6.60932 18.8696 6.6427 19.0546 5.86078C19.211 5.20012 19.2241 5.15911 19.2799 5.15911C19.3057 5.15911 21.0265 5.55773 23.104 6.045ZM20.0836 9.6784C20.3214 10.6759 20.5371 11.5762 20.5629 11.6791L20.6097 11.8663H15.6678H10.7259L10.6498 11.5805C10.608 11.4233 10.5088 11.0134 10.4294 10.6697L10.2849 10.0447L12.4988 9.50675C13.7165 9.21087 15.7566 8.71462 17.0324 8.40403C18.3081 8.09336 19.4193 7.84497 19.5015 7.85206C19.6323 7.86326 19.7058 8.09397 20.0836 9.6784ZM4.68744 10.6858C4.73817 11.1045 4.78144 11.5415 4.7838 11.6567L4.78798 11.8663H3.98943C3.55023 11.8663 3.19089 11.851 3.19089 11.8322C3.19089 11.8136 3.45091 11.3658 3.76873 10.8373C4.49221 9.63427 4.55891 9.62321 4.68744 10.6858ZM29.2337 10.8414C29.5502 11.3677 29.8091 11.8136 29.8091 11.8322C29.8091 11.851 29.2079 11.8663 28.4731 11.8663C27.2366 11.8663 27.1399 11.8564 27.1757 11.7329C27.197 11.6595 27.305 11.2137 27.4157 10.7421L27.6168 9.88464H28.1376H28.6584L29.2337 10.8414ZM30.4177 13.486C30.4178 13.6222 30.6915 19.067 31.0259 25.5856C31.3604 32.1042 31.6341 37.4976 31.6342 37.5709C31.6344 37.6975 30.863 37.7043 16.5 37.7043C2.13696 37.7043 1.36564 37.6975 1.36579 37.5709C1.36587 37.4976 1.63958 32.1042 1.97405 25.5856C2.30853 19.067 2.58224 13.6222 2.58232 13.486L2.58247 13.2382H16.5H30.4175L30.4177 13.486ZM10.7961 14.6875C9.75996 15.1717 9.30099 16.334 9.75821 17.3159C9.93868 17.7034 10.4278 18.2138 10.7026 18.3012C10.8463 18.3469 10.856 18.4361 10.8921 20.043C10.9333 21.8795 10.9947 22.2475 11.4085 23.1385C12.177 24.7929 13.6121 25.9377 15.3752 26.3027C18.2612 26.9001 21.0653 25.18 21.9065 22.2959C22.0443 21.8232 22.0755 21.4745 22.1078 20.043C22.144 18.4362 22.1537 18.3469 22.2974 18.3012C22.5426 18.2232 23.0391 17.7318 23.2082 17.3996C23.8901 16.0599 22.7919 14.4179 21.3043 14.5531C20.319 14.6426 19.5878 15.3554 19.4881 16.3233C19.4119 17.0638 19.84 17.8836 20.4847 18.2315L20.7589 18.3795V19.9086C20.7589 21.6337 20.6945 22.0117 20.2591 22.8421C19.7655 23.7834 18.8254 24.5657 17.7798 24.9052C15.8726 25.5243 13.6756 24.6248 12.7409 22.8421C12.3055 22.0117 12.2411 21.6337 12.2411 19.9086V18.3795L12.5153 18.2315C12.897 18.0255 13.2775 17.555 13.4269 17.1043C13.7264 16.2005 13.3019 15.1943 12.4312 14.7445C11.9785 14.5106 11.2307 14.4845 10.7961 14.6875ZM11.8563 15.9417C12.0918 16.0637 12.2534 16.4137 12.1888 16.6617C12.1479 16.818 12.1478 16.818 11.9561 16.6668C11.7105 16.4732 11.4015 16.4742 11.1541 16.6693C10.9627 16.8201 10.9584 16.8202 10.9126 16.6758C10.8331 16.4248 10.9578 16.1265 11.2054 15.9752C11.4911 15.8005 11.5757 15.7962 11.8563 15.9417ZM21.7407 15.9404C21.9878 16.0685 22.1644 16.4328 22.0912 16.6636L22.0408 16.8229L21.8459 16.6693C21.6161 16.4881 21.2383 16.4698 21.0117 16.6289C20.8709 16.7277 20.845 16.728 20.8079 16.631C20.7364 16.4444 20.9156 16.0611 21.1282 15.9452C21.3853 15.8053 21.4785 15.8046 21.7407 15.9404Z" fill="#F99D21" stroke="#1E2433" stroke-width="0.5" mask="url(#path-1-inside-1_735:25215)"/>
</svg>
