<?xml version="1.0" encoding="utf-8"?>
<!-- Generator: Adobe Illustrator 21.1.0, SVG Export Plug-In . SVG Version: 6.00 Build 0)  -->
<svg version="1.1" id="_ÎÓÈ_1" xmlns="http://www.w3.org/2000/svg" xmlns:xlink="http://www.w3.org/1999/xlink" x="0px" y="0px"
	 viewBox="0 0 24 21.249" style="enable-background:new 0 0 24 21.249;" xml:space="preserve">
<style type="text/css">
	.st0{fill:#4BC0C8;}
	.st1{fill:#02819B;}
</style>
<title>rgb-logo-only</title>
<path class="st0" d="M18.214,21.249L1.813,9.735C-0.109,8.389-0.576,5.74,0.771,3.818C1.055,3.412,1.407,3.06,1.813,2.776L5.786,0
	l16.401,11.515c1.922,1.348,2.387,3.998,1.04,5.92c-0.284,0.404-0.635,0.756-1.04,1.04L18.214,21.249z M5.784,1.851L2.688,4.018
	C1.451,4.883,1.15,6.586,2.016,7.823c0.183,0.262,0.411,0.489,0.672,0.672l15.531,10.903l3.097-2.165
	c1.236-0.867,1.536-2.571,0.669-3.807c-0.183-0.26-0.409-0.487-0.669-0.669L5.784,1.851z"/>
<path class="st1" d="M5.769,19.387l-3.092-2.171c-1.236-0.867-1.536-2.571-0.669-3.807c0.183-0.26,0.409-0.487,0.669-0.669
	l8.004-5.596l-1.32-0.924l-7.55,5.278c-1.922,1.346-2.389,3.996-1.042,5.918c0.284,0.405,0.637,0.758,1.042,1.042l3.962,2.782
	l4.901-3.43l-1.32-0.927L5.769,19.387z"/>
<path class="st1" d="M22.195,2.792l-3.964-2.782l-4.906,3.433l1.32,0.927l3.584-2.503l3.094,2.171
	c1.236,0.867,1.536,2.571,0.669,3.807c-0.183,0.26-0.409,0.487-0.669,0.669l-8.006,5.592l1.32,0.927l7.551-5.283
	c1.922-1.346,2.389-3.996,1.042-5.918c-0.284-0.405-0.637-0.758-1.042-1.042L22.195,2.792z"/>
<rect x="2.503" y="8.513" transform="matrix(0.8194 -0.5733 0.5733 0.8194 -4.1757 5.2917)" class="st1" width="7.613" height="1.517"/>
<path class="st1" d="M20.516,9.069l-3.038,2.127l0.869,1.242l3.151-2.207C21.167,9.851,20.841,9.461,20.516,9.069z"/>
</svg>
