<?xml version="1.0" encoding="utf-8"?>
<!-- Generator: Adobe Illustrator 21.1.0, SVG Export Plug-In . SVG Version: 6.00 Build 0)  -->
<svg version="1.1" id="Layer_1" xmlns="http://www.w3.org/2000/svg" xmlns:xlink="http://www.w3.org/1999/xlink" x="0px" y="0px"
	 viewBox="0 0 24 20.954" style="enable-background:new 0 0 24 20.954;" xml:space="preserve">
<style type="text/css">
	.st0{fill:#37BDE9;}
</style>
<path class="st0" d="M5.815,10.148c0.117-0.199,0.33-0.321,0.56-0.321h11.421v1.299H7.482l4.893,8.78l-1.135,0.633l-5.431-9.746
	C5.696,10.592,5.699,10.347,5.815,10.148z"/>
<path class="st0" d="M11.979,0c0.232,0,0.447,0.123,0.563,0.324l11.37,19.655c0.116,0.201,0.117,0.449,0.001,0.65
	c-0.116,0.201-0.331,0.325-0.563,0.325H0.65c-0.232,0-0.446-0.124-0.563-0.325c-0.116-0.201-0.116-0.448,0-0.649l11.33-19.655
	C11.533,0.124,11.747,0,11.979,0z M11.981,1.949L1.774,19.655h20.45L11.981,1.949z"/>
</svg>
