<?xml version="1.0" encoding="utf-8"?>
<!-- Generator: Adobe Illustrator 21.1.0, SVG Export Plug-In . SVG Version: 6.00 Build 0)  -->
<svg version="1.1" id="Layer_1" xmlns="http://www.w3.org/2000/svg" xmlns:xlink="http://www.w3.org/1999/xlink" x="0px" y="0px"
	 viewBox="0 0 24 24" style="enable-background:new 0 0 24 24;" xml:space="preserve">
<style type="text/css">
	.st0{fill:#00206B;}
	.st1{fill:#EBA809;}
</style>
<path class="st0" d="M11.4,0h1.3c1.3,0.1,2.6,0.3,3.8,0.8c3,1.2,5.5,3.6,6.7,6.6c1.7,4,0.9,8.8-1.8,12.2c-1.9,2.3-4.6,3.9-7.6,4.3
	c-2.8,0.4-5.7-0.2-8-1.7c-1.8-1.1-3.3-2.8-4.3-4.7c-1.3-2.4-1.6-5.3-1.1-7.9C0.8,6.6,2.6,3.9,5,2.2C6.9,0.9,9.1,0.1,11.4,0
	 M10.6,0.5C7,1,3.6,3.3,1.9,6.5c-1.2,2.1-1.6,4.7-1.3,7.1c0.4,2.9,2,5.7,4.3,7.5c1.8,1.4,4,2.3,6.2,2.4c2.6,0.2,5.2-0.5,7.3-1.9
	c2.6-1.7,4.4-4.5,5-7.6c0.3-1.8,0.2-3.7-0.4-5.4c-0.8-2.5-2.5-4.8-4.8-6.2C16,0.9,13.3,0.2,10.6,0.5z"/>
<path class="st0" d="M10.9,5.3c2.1-0.3,4.3,0.3,5.8,1.8c1.3,1.3,2.1,3.1,2.1,4.9c0,1.8-0.8,3.6-2.1,4.9c-1.4,1.4-3.6,2.1-5.6,1.9
	c-1.9-0.2-3.7-1.3-4.7-2.9c-1.2-1.7-1.5-3.9-0.9-5.9C6.2,7.5,8.4,5.6,10.9,5.3 M11.3,5.7c0,0.6,0,1.2,0,1.8c0.3,0,0.6,0,0.9,0
	c0-0.6,0-1.2,0-1.8C11.9,5.6,11.6,5.7,11.3,5.7 M13.5,7.5c0.8,0.1,1.6,0.2,2.3,0.8c1,0.9,0.8,2.7-0.3,3.3c0.7,0.2,1.4,0.6,1.6,1.4
	c0.2,1,0,2.1-0.7,2.8c-0.8,0.6-1.8,0.7-2.8,0.8c0,0.6,0,1.1,0,1.7c2-0.5,3.7-2,4.4-3.9c0.7-1.8,0.5-3.9-0.5-5.5
	c-0.9-1.5-2.3-2.6-4-3C13.5,6.4,13.5,6.9,13.5,7.5 M7.5,7.5c0.9,0,1.7,0,2.6,0c0-0.5,0-1.1,0-1.6C9.1,6.2,8.3,6.8,7.5,7.5 M7.4,7.5
	C7.2,7.8,6.8,8.4,6.5,8.8c-1,1.7-1.1,4-0.3,5.8c0.7,1.6,2.2,2.9,3.9,3.5c0-0.5,0-1.1,0-1.6c-0.9,0-1.7,0-2.6,0c0-0.5,0.1-1,0.3-1.4
	c0.4,0,0.9,0.1,1.3-0.1c0.2-0.2,0.2-0.5,0.2-0.8c0-1.6,0-3.2,0-4.7c0-0.3-0.1-0.5-0.4-0.6C8.4,8.8,8,8.8,7.5,8.8
	C7.5,8.4,7.5,8.1,7.5,7.7C7.5,7.7,7.5,7.6,7.4,7.5L7.4,7.5L7.4,7.5z M11.4,8.9v2.3c0.8,0,1.6,0.1,2.3-0.4c0.6-0.4,0.5-1.3-0.1-1.6
	C12.9,8.8,12.1,8.9,11.4,8.9 M11.4,12.5v2.6c1-0.1,2,0.1,2.9-0.5c0.6-0.4,0.5-1.4-0.1-1.7C13.3,12.3,12.3,12.5,11.4,12.5 M11.3,16.5
	c0,0.6,0,1.2,0,1.8c0.3,0,0.6,0,0.9,0c0-0.6,0-1.2,0-1.8H11.3L11.3,16.5z"/>
<path class="st1" d="M10.7,1.2c2.1-0.2,4.3,0.1,6.2,1.1c2.4,1.2,4.4,3.3,5.3,5.9c1,2.5,1,5.4-0.1,8c-1.5,4-5.6,6.8-9.9,6.8
	c-2.5,0.1-5-0.8-7-2.3c-2.1-1.6-3.5-4.1-4-6.7c-0.5-2.6,0.1-5.4,1.4-7.6C4.4,3.5,7.4,1.5,10.7,1.2 M10.3,4.7C8.6,5.1,7.1,6.1,6,7.5
	C4.8,9,4.3,11,4.6,12.9c0.2,2,1.3,3.9,3,5.1c1.5,1.2,3.5,1.7,5.5,1.4c2.4-0.3,4.5-1.8,5.6-3.9c0.8-1.5,1.1-3.3,0.7-5
	c-0.4-2-1.7-3.9-3.4-5C14.3,4.6,12.2,4.3,10.3,4.7L10.3,4.7z"/>
</svg>
