<?xml version="1.0" encoding="utf-8"?>
<!-- Generator: Adobe Illustrator 21.1.0, SVG Export Plug-In . SVG Version: 6.00 Build 0)  -->
<svg version="1.1" id="Layer_1" xmlns="http://www.w3.org/2000/svg" xmlns:xlink="http://www.w3.org/1999/xlink" x="0px" y="0px"
	 viewBox="0 0 11.259 24" style="enable-background:new 0 0 11.259 24;" xml:space="preserve">
<style type="text/css">
	.st0{fill:#B48AFF;}
	.st1{fill:#6916FF;}
</style>
<g>
	<path class="st0" d="M6.849,0.521c-0.142-0.103-0.185-0.296-0.1-0.449c0.118-0.075,0.268-0.075,0.386,0
		c0.872,0.362,1.661,0.897,2.32,1.574c0.375,0.348,0.689,0.753,0.928,1.2C10.634,3.301,10.841,3.777,11,4.27
		c0.152,0.511,0.231,1.042,0.233,1.574c-0.078,0.526-0.155,3.074-1.624,4.274c-0.387,0.233-0.888,0.136-1.16-0.225
		C8.233,9.641,8.202,9.279,8.372,8.994C9.646,7.021,9.705,4.501,8.526,2.47C8.031,1.77,7.47,1.118,6.849,0.521z M4.567,23.509
		c0.155,0.15,0.155,0.299,0.078,0.375c-0.077,0.075-0.233,0.15-0.309,0.074c-0.872-0.362-1.661-0.897-2.32-1.574
		c-0.374-0.346-0.687-0.751-0.928-1.2c-0.252-0.453-0.459-0.93-0.619-1.424c-0.153-0.511-0.231-1.041-0.233-1.575
		c0.078-0.525,0.155-3.074,1.624-4.274c0.387-0.232,0.887-0.135,1.159,0.225c0.233,0.255,0.233,0.646,0,0.901
		c-1.274,1.972-1.333,4.492-0.155,6.522C3.367,22.261,3.938,22.914,4.567,23.509z"/>
	<path class="st1" d="M11.24,17.323c-0.112-1.439-0.681-2.805-1.624-3.898c-0.955-0.96-2.05-1.769-3.247-2.4
		C5.324,10.448,4.34,9.767,3.43,8.994C2.683,8.291,2.17,7.375,1.962,6.37C1.777,5.332,1.909,4.263,2.341,3.302
		c0.517-1.07,1.258-2.016,2.172-2.774C4.619,0.434,4.65,0.282,4.591,0.153C4.51,0.009,4.328-0.043,4.183,0.038
		C4.163,0.05,4.144,0.063,4.127,0.079c-1.232,0.538-2.28,1.423-3.016,2.548C0.288,3.81-0.097,5.241,0.021,6.677
		c0.062,0.725,0.245,1.435,0.542,2.099c0.321,0.658,0.738,1.264,1.237,1.8c0.983,0.939,2.104,1.723,3.324,2.323
		c1.049,0.544,2.035,1.199,2.938,1.95c0.794,0.697,1.315,1.654,1.47,2.699c0.218,1.087,0.082,2.214-0.387,3.224
		c-0.526,1.063-1.294,1.987-2.243,2.699c-0.123,0.07-0.165,0.227-0.094,0.35c0.005,0.009,0.011,0.017,0.017,0.025
		c0.043,0.079,0.124,0.136,0.214,0.15c0.09,0.014,0.184-0.012,0.251-0.074c1.15-0.664,2.15-1.557,2.938-2.625
		C10.994,20.112,11.348,18.719,11.24,17.323z"/>
</g>
</svg>
