<svg width="24" height="14" viewBox="0 0 24 14" fill="none">
  <path d="M0.0888977 6.71612C0.277901 6.4411 4.81997 0 12.0001 0C18.1612 0 23.6513 6.40411 23.8823 6.67712C24.0392 6.86312 24.0392 7.13612 23.8823 7.32311C23.6513 7.59612 18.1612 14.0002 12.0001 14.0002C5.83895 14.0002 0.348919 7.59612 0.117914 7.32311C-0.0271187 7.15112 -0.0401039 6.90212 0.0888977 6.71612ZM12.0001 13.0002C16.9391 13.0002 21.6352 8.29016 22.8282 7.00014C21.6372 5.70913 16.9461 1.00005 12.0001 1.00005C6.22099 1.00005 2.14191 5.70313 1.1459 6.97314C2.29595 8.22214 7.019 13.0002 12.0001 13.0002Z" fill="white"/>
  <path d="M12.0001 3C14.2061 3 16.0001 4.79403 16.0001 7.00004C16.0001 9.20606 14.2061 11.0001 12.0001 11.0001C9.79406 11.0001 8.00003 9.20606 8.00003 7.00004C8.00003 4.79403 9.79406 3 12.0001 3ZM12.0001 10.0001C13.6541 10.0001 15.0001 8.6541 15.0001 7.00009C15.0001 5.34608 13.6541 4.00005 12.0001 4.00005C10.3461 4.00005 9.00003 5.34608 9.00003 7.00009C9.00003 8.6541 10.3461 10.0001 12.0001 10.0001Z" fill="white"/>
</svg>