<svg width="25" height="25" viewBox="0 0 25 25" fill="#ffffff" xmlns="http://www.w3.org/2000/svg">
<path fill-rule="evenodd" clip-rule="evenodd" d="M23.7744 3.86182C23.9453 3.87914 24.1039 3.96098 24.2198 4.09172C24.3317 4.22674 24.3636 4.4138 24.3034 4.58012L22.9672 10.3558C22.6689 11.6567 21.6099 12.6232 20.3226 12.7695L8.60284 14.0339L8.38012 14.5511C8.21819 15.0085 8.2695 15.5173 8.51929 15.9304C8.77191 16.3486 9.21123 16.6077 9.68849 16.62H20.5175C20.825 16.62 21.0742 16.8773 21.0742 17.1947C21.0742 17.5121 20.825 17.7694 20.5175 17.7694H9.68854C8.84342 17.7432 8.06399 17.2926 7.60069 16.5626C7.13291 15.8192 7.03967 14.8891 7.35015 14.0626L7.6285 13.4018L4.09309 2.39634C3.89525 1.80563 3.3622 1.40441 2.75685 1.3906H0.891719C0.584221 1.3906 0.334961 1.13331 0.334961 0.815907C0.334961 0.498502 0.584221 0.241211 0.891719 0.241211H2.75685C3.83946 0.253036 4.79793 0.966278 5.15093 2.02278L5.65201 3.6032L23.7744 3.86182ZM20.1834 11.6202C21.012 11.5524 21.7008 10.9347 21.8815 10.0972L23.0785 5.01121L6.01391 4.7526L8.60284 12.8558L20.1834 11.6202ZM7.99085 19.177C6.60707 19.177 5.48535 20.3334 5.48535 21.7598C5.48535 23.1862 6.60712 24.3425 7.99085 24.3425C9.37462 24.3425 10.4963 23.1862 10.4963 21.7598C10.4964 20.3334 9.37462 19.177 7.99085 19.177ZM7.99085 23.1947C7.22209 23.1947 6.59892 22.5523 6.59892 21.7598C6.59892 20.9674 7.22209 20.325 7.99085 20.325C8.7596 20.325 9.38277 20.9674 9.38277 21.7598C9.38283 22.5523 8.7596 23.1947 7.99085 23.1947ZM18.5689 19.177C17.1852 19.177 16.0635 20.3334 16.0635 21.7598C16.0635 23.1862 17.1852 24.3425 18.5689 24.3425C19.9526 24.3425 21.0743 23.1862 21.0743 21.7598C21.0743 20.3334 19.9527 19.177 18.5689 19.177ZM18.5689 23.1947C17.8002 23.1947 17.177 22.5523 17.177 21.7598C17.177 20.9674 17.8002 20.325 18.5689 20.325C19.3376 20.325 19.9608 20.9674 19.9608 21.7598C19.9609 22.5523 19.3376 23.1947 18.5689 23.1947Z" fill="white"/>
</svg>
