<?xml version="1.0" encoding="utf-8"?>
<!-- Generator: Adobe Illustrator 21.1.0, SVG Export Plug-In . SVG Version: 6.00 Build 0)  -->
<svg version="1.1" id="Layer_1" xmlns="http://www.w3.org/2000/svg" xmlns:xlink="http://www.w3.org/1999/xlink" x="0px" y="0px"
	 viewBox="0 0 98.9 98.9" style="enable-background:new 0 0 98.9 98.9;" xml:space="preserve">
<style type="text/css">
	.st0{fill:#00B6D0;}
</style>
<title>cindicator</title>
<g id="Group">
	<path id="Shape" class="st0" d="M49.5,98.9C22.1,98.9,0,76.8,0,49.5S22.2,0,49.5,0c27.3,0,49.4,22.1,49.4,49.4
		C98.9,76.8,76.8,98.9,49.5,98.9C49.5,98.9,49.5,98.9,49.5,98.9z M49.5,95.1C74.6,95.1,95,74.6,95,49.5C95,24.3,74.6,3.9,49.4,3.9
		C24.3,3.9,3.9,24.3,3.9,49.5C3.9,74.6,24.3,95,49.5,95.1L49.5,95.1z"/>
	<circle id="Oval" class="st0" cx="49.5" cy="49.5" r="4.3"/>
</g>
</svg>
