<?xml version="1.0" encoding="utf-8"?>
<!-- Generator: Adobe Illustrator 21.1.0, SVG Export Plug-In . SVG Version: 6.00 Build 0)  -->
<svg version="1.1" id="Layer_1" xmlns="http://www.w3.org/2000/svg" xmlns:xlink="http://www.w3.org/1999/xlink" x="0px" y="0px"
	 viewBox="0 0 1953 2500" style="enable-background:new 0 0 1953 2500;" xml:space="preserve">
<style type="text/css">
	.st0{fill:#00B6D0;}
</style>
<path class="st0" d="M1139.8,2467.4c-1.5,0-3-0.5-4.4-1.5c-1-1-2-2.5-2.5-4l-32.6-128.9c-0.5-1.5-0.5-3,0-4c0.5-1.5,1-2.5,2.5-3.5
	c1-1,2.5-1.5,3.5-1.5c1.5,0,2.5,0,4,0.5l205.5,109.7c1.5,0.5,2.5,1.5,3,3c0.5,1.5,1,3,0.5,4.4c-0.5,1.5-1,3-2,4c-1,1-2.5,1.5-4,2
	l-172.9,19.8L1139.8,2467.4L1139.8,2467.4z M1118,2343.8l27.7,108.2l144.3-16.8L1118,2343.8z M1203,2041c-1.5,0-3-0.5-4.4-1.5
	l-296.9-252c-1-1-2-2.5-2.5-4c-0.5-1.5,0-3,0.5-4.4c0.5-1.5,1.5-2.5,3-3.5s3-1,4.4-0.5l387.8,63.2c1,0,2,0.5,3,1.5
	c1,0.5,1.5,1.5,2,2.5c0.5,1,1,2,1,3c0,1-0.5,2.5-1,3L1209,2037c-0.5,1-1,2-2,2.5l-3,1.5H1203L1203,2041z M930.3,1794l270.7,229.7
	l83-171.9L930.3,1794L930.3,1794z M210,1140.3c-1,0-2.5-0.5-3.5-1s-2-1.5-2.5-2.5c-0.5-1-1-2.5-1-3.5c0-1,0.5-2.5,1-3.5l138.8-263.8
	c0.5-1.5,1.5-2.5,2.5-3s2.5-1,4-0.5c1.5,0,2.5,0.5,3.5,1.5s2,2,2.5,3l90.4,247.5c0.5,1,0.5,2,0.5,3.5c0,1-0.5,2-1,3
	s-1.5,1.5-2.5,2.5c-1,0.5-2,1-3,1l-229.2,16.3H210V1140.3z M347.8,886.4L222.3,1125l208-14.8L347.8,886.4L347.8,886.4z"/>
<path class="st0" d="M349.3,876h-1.5l-233.7-45.9c-1.5-0.5-2.5-1-3.5-2s-1.5-2.5-1.5-4s0-3,1-4.4c1-1.5,2-2.5,3-3l183.3-78.1
	L330,377c0-2,1-3.5,2.5-4.4s3-2,4.4-2s3.5,0.5,4.4,2c1.5,1.5,2,3,2,4.4l15.3,200.6v2.5l-48.9,163l45,123.5c0.5,1,0.5,2.5,0.5,3.5
	c0,1.5-0.5,2.5-1.5,3.5c-0.5,1-1.5,1.5-2.5,1.5C351.3,876,350.3,876,349.3,876 M139.8,820.7l198.6,39l-39.5-107.2L139.8,820.7
	L139.8,820.7z M336.5,457l-20.8,218.4l29.6-98.3L336.5,457L336.5,457z"/>
<path class="st0" d="M210,1140.8c-1.5,0-3-0.5-4-1.5c-1-1-2-2-2.5-3.5l-93.4-310.8c-0.5-1.5-0.5-3,0-4c0.5-1.5,1-2.5,2-3.5
	c1-1,2-1.5,3.5-1.5c1.5,0,2.5,0,4,0.5l181.3,91.4c1.5,1,3,2,3.5,4c0.5,1.5,0.5,3.5,0,5.4l-87.4,218.9c-0.5,1.5-1.5,2.5-3,3.5
	C212.9,1140.3,211.5,1140.8,210,1140.8 M127.5,836.5l83.5,275.7l77.6-194.7L127.5,836.5L127.5,836.5z M302.4,750
	c-1.5,0-3.5-0.5-4.4-2c-1-1-1.5-2-2-3.5c-0.5-1.5-0.5-3,0-4l50.4-165c0-1,0.5-2,1.5-2.5c0.5-1,1.5-1.5,2.5-1.5L507.9,502
	c1.5-0.5,3-1,4.4-0.5c1.5,0.5,2.5,1,3.5,2.5c1,1.5,1.5,2.5,1.5,4.4c0,1.5-0.5,3-1,4.4L394.3,711c-0.5,1.5-1.5,2-3,2.5l-85,37.5
	C304.8,750,303.8,750,302.4,750L302.4,750z M358.2,583l-44,147.7l70.2-30.6l108.7-176.4L358.2,583z"/>
<path class="st0" d="M297.4,921.5c-1,0-2,0-3-0.5l-181.3-91.4c-1.5-1-2.5-2-3.5-3.5c-0.5-1.5-1-3.5,0-4.9c0.5-1.5,1.5-3,3-4
	c1.5-1,3-1.5,4.4-1l233.7,45.9c1.5,0,2.5,1,3.5,2s1.5,2,2,3.5s0.5,2.5,0,4s-1,2.5-2,3.5L302.4,921
	C300.9,921,298.9,921.9,297.4,921.5 M165,839.9l131.4,66.2L334,873L165,839.9L165,839.9z"/>
<path class="st0" d="M929.3,2221.8h-2.5L672.9,2122c-1-0.5-2-1-2.5-2c-1-1-1.5-1.5-1.5-3c-0.5-1-0.5-2,0-3.5s0.5-2,1.5-3
	l153.7-216.9c1-1.5,2-2,3.5-2.5c1.5-0.5,3-0.5,4.4,0l372.5,134.9c1,0.5,2.5,1,3,2c1,1,1.5,2.5,1.5,3.5c0,1.5,0,3-0.5,4
	c-0.5,1-1.5,2-2.5,3l-272.7,180.8C931.8,2221.3,930.8,2221.8,929.3,2221.8 M686.7,2111.6l242.1,95.4l256.9-170.9l-353.7-128
	L686.7,2111.6z M629.4,1711.9h-2l-330-97.3c-1-0.5-2-1-2.5-2l-1-1c-1-1.5-1-3-1-4.4c0-1.5,1-3,1.5-4L495.5,1374c0.5-0.5,1.5-1,2-1.5
	c1-0.5,1.5-0.5,2.5-0.5l148.7-8.4c1,0,2,0,3,0.5c1,0.5,1.5,1,2.5,1.5c1.5,1.5,2,3,2,4.9v212.9L636.3,1706c0,1-0.5,2-1,3
	c-0.5,1-1,1.5-2,2C632.4,1711.4,630.9,1711.9,629.4,1711.9 M339.4,1612.1l285.1,83.5l17.3-105.7L339.4,1612.1z M503.9,1385.4
	l-187.7,213.9l327.1-24.2v-197.6L503.9,1385.4z M210,1140.3c-1,0-2,0-3-0.5c-1.5-1-3-2-3.5-4c-0.5-1.5-0.5-3.5,0-5.4L291,911.6
	c0.5-1,1-1.5,1.5-2.5l51.9-45.9c1.5-1,3-1.5,4.4-1.5c1.5,0,3,0.5,4.4,1.5c1.5,1,2,2.5,2.5,4c0.5,1.5,0,3.5-0.5,4.9l-139.3,264.3
	c-0.5,1-1.5,2.5-2.5,3C212.4,1139.8,211,1140.3,210,1140.3 M303.3,919.5l-38,94.9l60.8-114.6L303.3,919.5z"/>
<path class="st0" d="M788.5,2412.5c-2,0-3.5-1-4.9-2l-210.5-218.9c-0.5-1-1-1.5-1.5-2.5c-0.5-1-0.5-2-0.5-3c0-1,0.5-2,1-3
	c0.5-1,1-1.5,2-2.5l91.9-68.7c0-1.5,0-3,1-4.4c1-1.5,2-2.5,4-3c1.5-0.5,3-0.5,4.4,0L931.3,2208c1,0.5,2,1,3,2c1,1,1.5,2,1.5,3.5v3.5
	c-0.5,1-1,2.5-2,3l-63.2,63.2l-75.6,126c-0.5,1-1.5,1.5-2,2.5c-1,0.5-2,1-3,1L788.5,2412.5L788.5,2412.5z M589.4,2187.7L788,2394.2
	l68.7-114.6L676.9,2123L589.4,2187.7L589.4,2187.7z M710,2133.4l155.6,135.4l51.9-51.4L710,2133.4z"/>
<path class="st0" d="M1030.6,2500h-2.5l-241.6-87.4c-1.5-0.5-3-1.5-3.5-3c-1-1.5-1-3-1-4.4c0-1.5,1-3,2-4.4c1-1,2.5-1.5,4-2
	l193.7-18.3c1.5,0,3,0,4,1c1.5,1,2,2,3,3l47.9,105.7c0.5,1.5,1,3,0.5,4c0,1.5-1,2.5-1.5,3.5c-0.5,0.5-1.5,1.5-2.5,1.5
	C1032.1,2500,1031.6,2500,1030.6,2500 M821.1,2409.5l196.1,71.1l-39-85L821.1,2409.5L821.1,2409.5z M1139.8,2467.4
	c-1.5,0-2.5-0.5-3.5-1.5l-274.7-182.3c-1-0.5-1.5-1.5-2-2c-0.5-1-1-2-1-3c0-1,0-2,0.5-3l1.5-3l64.2-63.7c1-1,2.5-2,4-2s3,0.5,4.4,1
	l177.4,117.1c1.5,1,2.5,2.5,3,4l32.6,128.9v3.5c0,1-0.5,2-1.5,3c-0.5,1-1.5,1.5-2.5,2C1141.8,2466.9,1140.3,2467.4,1139.8,2467.4
	L1139.8,2467.4z M876.9,2277.1l252.5,167l-27.7-108.7l-170.9-112.2L876.9,2277.1L876.9,2277.1z"/>
<path class="st0" d="M788.5,2412.5c-1,0-2.5-0.5-3.5-1c-1-0.5-2-1.5-2.5-3c-0.5-1-1-2.5-1-3.5c0-1.5,0.5-2.5,1-3.5l76.6-127
	c0.5-1,1-1.5,2-2.5c1-0.5,1.5-1,3-1h3c1,0.5,2,1,2.5,1.5l117.1,109.2c1,1,1.5,2,2,3.5c0.5,1.5,0,3,0,4c-0.5,1.5-1,2.5-2,3
	c-1,1-2.5,1.5-3.5,1.5L788.5,2412.5L788.5,2412.5z M866.6,2289l-64.7,107.7l164.5-15.3L866.6,2289L866.6,2289z"/>
<path class="st0" d="M1139.8,2467.4c-1,0-2,0-3-0.5l-157.1-73.1c-0.5-0.5-1.5-0.5-1.5-1l-117.1-109.7c-1.5-1-2-3-2-4.4
	c0-2,0.5-3.5,1.5-4.9c1-1.5,2.5-2.5,4-3c1.5-0.5,3.5,0,4.9,1l274.7,182.3c1.5,1,2,2,3,3.5c0.5,1.5,0.5,3,0,4.4c-0.5,1.5-1.5,3-2.5,4
	c-1,1-2.5,1.5-4,1.5H1139.8L1139.8,2467.4z M986.1,2380.9l72.1,33.6L932.8,2332L986.1,2380.9L986.1,2380.9z"/>
<path class="st0" d="M1030.6,2500c-1.5,0-2.5-0.5-4-1c-1-1-2-2-2.5-3l-47.9-105.7c-0.5-1.5-0.5-3-0.5-4c0.5-1.5,1-3,2-4
	c1-1,2-1.5,3.5-2c1.5,0,3,0,4,0.5l157.6,73.1c1.5,0.5,2.5,1.5,3,3c1,1.5,1,3,1,4.4s-0.5,3-1.5,4c-1,1-2,2-3.5,2.5l-109.2,32.1
	H1030.6z M996.5,2401.6l37.5,82.5l86-25.7L996.5,2401.6z M157.6,1697.6h-2c-1,0-1.5-0.5-2.5-1.5c-0.5-0.5-1.5-1.5-1.5-2l-19.8-40
	c-0.5-1-0.5-2-0.5-3s0-2,0.5-3c0.5-1,1-2,2-2.5c1-0.5,1.5-1.5,3-1.5l161.6-42.5c1.5-0.5,3.5,0,4.9,0.5c1.5,1,2.5,2,3.5,3.5
	c0.5,1.5,0.5,3.5,0,4.9c-0.5,1.5-1.5,3-3,4l-141.8,83C159.6,1697.6,158.6,1698.1,157.6,1697.6 M147.7,1655.6l12.4,25.2l90.4-52.9
	C250.5,1628,147.7,1655.6,147.7,1655.6z"/>
<path class="st0" d="M524.2,1889.3c-1,0-2,0-3-0.5l-367.1-191.7c-1-0.5-2-1.5-3-2.5c-0.5-1-1-2.5-1-3.5c0-1.5,0.5-2.5,1-3.5
	c0.5-1,1.5-2,2.5-2.5l142.3-82.5c1.5-1,3.5-1,4.9-1l330.5,96.3l3,1.5c1,1,1.5,1.5,2,3c0.5,1,0.5,2,0.5,3s-0.5,2-1,3l-105.2,178.4
	c-0.5,1-1.5,2-2.5,2.5C527.2,1889.8,525.2,1889.3,524.2,1889.3 M171.9,1690.2l349.8,182.3l96.8-164.5l-318.2-92.9L171.9,1690.2
	L171.9,1690.2z"/>
<path class="st0" d="M295.4,2090.9H294c-1,0-2-1-3-1.5c-1-1-1.5-2-2-3l-138.3-393.8c-0.5-1.5-0.5-3,0-4.4c0.5-1.5,1.5-2.5,2.5-3.5
	s2.5-1.5,4-1.5s3,0.5,4,1.5l306.3,238.6c1,0.5,1.5,1.5,2,2.5s1,2,1,3s0,2-0.5,3s-1,2-1.5,2.5l-168.5,154.1
	C298.9,2089.9,296.9,2090.9,295.4,2090.9 M171.4,1710.5l127,361.2l154.1-141.8L171.4,1710.5z"/>
<path class="st0" d="M463.4,1936.2c-1.5,0-3-0.5-4-1.5l-306.3-238.6c-1.5-1-2.5-2.5-2.5-4.4c-0.5-2,0-3.5,1-4.9c1-1.5,2.5-2.5,4-3
	c1.5-0.5,3.5,0,4.9,0.5L527.7,1876c1,0.5,2,1.5,2.5,2.5c0.5,1,1,2,1,3.5c0,1.5,0,2.5-0.5,3.5c-0.5,1-1.5,2-2.5,3l-61.3,46.9
	C465.9,1935.7,464.4,1936.2,463.4,1936.2 M222.3,1732.7l240.6,187.7l47.9-36.6L222.3,1732.7z"/>
<path class="st0" d="M578.5,2194.6c-1.5,0-2.5-0.5-3.5-1c-1-0.5-2-2-2.5-3L457,1932.8c-0.5-1.5-1-3-0.5-4.9c0.5-1.5,1.5-3,2.5-4
	l61.3-46.9l3-1.5c1,0,2.5,0,3.5,0.5c1,0.5,2,1,3,2c0.5,1,1,2,1.5,3.5l54.3,304.8c0,1.5,0,3.5-1,4.9s-2,2.5-4,3
	C580,2194.1,579.5,2194.6,578.5,2194.6 M471.8,1931.3l90.4,202.1l-42.5-239.1L471.8,1931.3L471.8,1931.3z"/>
<path class="st0" d="M1106.2,2339.9c-2,0-3.5-1-4.9-2c-1-1-1.5-2-2-3.5s0-2.5,0-4l95.4-299.4c0.5-1,0.5-1.5,1.5-2.5
	c0.5-0.5,1.5-1.5,2-1.5c1-0.5,1.5-0.5,2.5-1c1,0,2,0,3,0.5l392.8,127.5c1.5,0.5,2.5,1.5,3.5,2.5c1,1,1.5,2.5,1.5,4.4
	c0,1.5-0.5,3-1.5,4c-1,1.5-2,2-3.5,2.5l-488.1,171.9C1107.7,2339.4,1107.2,2339.9,1106.2,2339.9 M1206,2042l-88.9,279.6l455-160.1
	L1206,2042z M579,2193.6h-2l-283.6-102.8c-1-0.5-2-1-3-2c-1-1-1.5-2-1.5-3.5v-3.5c0.5-1,1-2.5,2-3l167.5-154.6c1-1,2-1.5,3-1.5h3
	c1,0,2,0.5,3,1.5c1,0.5,1.5,1.5,2,2.5l115.1,256.9c0.5,1.5,1,3,0.5,4c0,1.5-1,2.5-2,4c-0.5,0.5-1.5,1.5-2,1.5
	C580.5,2193.6,580,2193.6,579,2193.6 M308.8,2081l256.9,93.4l-105.2-233.7L308.8,2081z"/>
<path class="st0" d="M1567.1,2372c-1.5,0-3-0.5-4-1.5c-1-0.5-2-1.5-2.5-3c-0.5-1-0.5-2.5-0.5-4l26.2-198.1L1199.1,2040
	c-1.5-0.5-3-1.5-3.5-3c-1-1.5-1.5-3-1-4.4c0-1.5,1-3,2-4.4c1-1,2.5-2,4-2l303.8-34.1c1.5,0,2.5,0,4,0.5c1,0.5,2,1.5,3,3l87,158.1
	l347.3-14.3c1.5,0,3,0.5,4,1.5c1.5,1,2,2.5,2.5,4c0,1.5,0,3-0.5,4.4c-0.5,1.5-1.5,3-3,3.5l-378.9,218.9
	C1569.6,2372,1568.6,2372,1567.1,2372 M1600.7,2167.5l-24.7,184.3l341.9-197.6L1600.7,2167.5z M1235.1,2036.5l344.9,111.7
	l-78.6-141.8L1235.1,2036.5z"/>
<path class="st0" d="M1312.7,2447.1c-1.5,0-2.5-0.5-3.5-1s-2-1.5-2.5-3c-0.5-1.5-1-3-0.5-4.4c0.5-1.5,1-3,2.5-4l128-107.7
	c1-1,1.5-1.5,3-1.5c1-0.5,2,0,3,0l127,32.1c1.5,0.5,3,1,4,2.5c1,1,1.5,3,1.5,4.4c0,1.5-0.5,3-1.5,4.4c-1,1.5-2,2-3.5,2.5
	l-254.9,75.1C1313.7,2447.1,1313.2,2447.1,1312.7,2447.1 M1442.1,2340.4l-99.3,83.5l197.6-58.3L1442.1,2340.4z M1106.2,2340.4
	c-1.5,0-2.5-0.5-3.5-1.5l-177.4-118.6c-1-0.5-2-1.5-2.5-2.5c-0.5-1-1-2.5-1-3.5c0-1.5,0-2.5,1-3.5c0.5-1,1.5-2,2.5-2.5l272.2-180.8
	c1-1,2.5-1.5,4-1.5c1.5,0,3,0.5,4,1.5c1,1,2,2,2.5,3.5c0.5,1.5,0.5,3,0,4.4l-95.4,298.9l-1.5,3c-0.5,1-1.5,1.5-2.5,1.5
	c-1,0.5-1.5,0.5-2.5,0.5V2340.4z M942.2,2214.4l160.6,107.7l86.5-271.2L942.2,2214.4z M1594.3,2168c-1.5,0-2.5-0.5-3.5-1
	c-1-0.5-2-1.5-2.5-2.5l-89.4-161.6c-0.5-1.5-1-3-1-4c0-1.5,0.5-3,1.5-4c1-1,2-2,3.5-2.5c1.5-0.5,3-0.5,4,0l441.2,145.7
	c1.5,0.5,3,1.5,3.5,3c1,1.5,1.5,3,1,4.9c0,1.5-1,3-2,4.4c-1,1-3,2-4.4,2l-351.8,14.8V2168z M1519.7,2011.3l78.6,141.8l308.8-12.8
	L1519.7,2011.3z"/>
<path class="st0" d="M1567.1,2372h-1.5l-127-32.1c-1.5,0-2.5-1-3.5-1.5c-1-1-1.5-2-2-3.5c-0.5-1.5-0.5-2.5,0-4c0.5-1.5,1-2.5,2-3.5
	l154.1-171.9c1-1,2.5-2,4-2c1.5-0.5,3,0,4.4,0.5s2.5,1.5,3,3s1,3,0.5,4.4l-27.2,204c0,1-0.5,2-1,3c-0.5,1-1,1.5-2,2
	C1570.1,2371.5,1568.6,2372,1567.1,2372 M1453.5,2328.5l108.2,27.7l23.2-173.9L1453.5,2328.5z"/>
<path class="st0" d="M1312.7,2447.1c-1,0-2-0.5-3-0.5l-208-107.7c-1.5-1-2.5-2-3-3.5c-0.5-1.5-1-3-0.5-4.9c0.5-1.5,1-3,2.5-4
	s2.5-1.5,4.4-1.5h1l487.1-171.4c1.5-0.5,3-0.5,4.4,0c1.5,0.5,3,1.5,3.5,3c1,1.5,1.5,3,1,4.4c0,1.5-1,3-1.5,4.4l-154.1,171.9
	l-0.5,0.5l-128.9,107.7C1315.7,2446.6,1314.2,2447.1,1312.7,2447.1 M1133.9,2339.9l178.4,91.9l109.7-91.9H1133.9z M1148.2,2325.6
	h289.5l133.4-149.2L1148.2,2325.6L1148.2,2325.6z M1203.5,2041.5h-2.5l-374-135.9c-1-0.5-2-1-2.5-2c-1-1-1.5-1.5-1.5-3
	c-0.5-1-0.5-2,0-3.5c0-1,0.5-2,1-3l76.6-116.6c0.5-1,1.5-1.5,2-2c1-0.5,1.5-1,2.5-1h3c1,0,1.5,0.5,2.5,1l296.9,252c1,1,1.5,2,2,3.5
	c0,1.5,0,2.5-0.5,4c-0.5,1.5-1.5,2.5-2.5,3c-1,1-2.5,1.5-3.5,1.5L1203.5,2041.5L1203.5,2041.5z M841.4,1895.2l327.6,119.1
	L907.6,1793L841.4,1895.2L841.4,1895.2z"/>
<path class="st0" d="M829.5,1906.1c-1,0-1.5,0-2.5-0.5c-1-0.5-1.5-1-2-1.5l-200.6-194.7c-1-1-2-2.5-2-4s0-3,1-4.4
	c0.5-1.5,2-2.5,3.5-3c1.5-0.5,3-0.5,4.4-0.5l277.2,78.6l3,1.5c1,1,1.5,1.5,2,3c0.5,1,0.5,2.5,0.5,3.5c0,1-0.5,2-1,3L835,1903.1
	c-0.5,1-1.5,1.5-2,2c-1,0.5-2,0.5-3,1L829.5,1906.1L829.5,1906.1z M654.1,1718.9l174.4,169.5l66.7-100.8L654.1,1718.9z"/>
<path class="st0" d="M675.9,2121.5h-2c-1.5-0.5-2.5-1-3.5-2.5c-1-1.5-1.5-2.5-1.5-4l-46.4-410.6c0-1.5,0-3,0.5-4.4
	c0.5-1.5,1.5-2.5,3-3c1.5-0.5,3-1,4-0.5c1.5,0,3,1,4,2l200.6,195.2c1,1.5,2,3,2,4.4c0,1.5-0.5,3.5-1.5,4.9l-154.1,215.4
	c-0.5,1-1.5,1.5-2.5,2C677.8,2121.5,676.9,2121.5,675.9,2121.5 M637.8,1721.8l42.5,374l139.8-196.1L637.8,1721.8L637.8,1721.8z"/>
<path class="st0" d="M675.9,2121.5c-1,0-2,0-3-1c-1-0.5-2-1.5-2.5-2.5l-151.7-232.2c-0.5-1-1-2.5-1-4c0-1.5,0.5-3,1-4L624,1699.6
	c0.5-1.5,2-2.5,3-3c1.5-0.5,3-0.5,4-0.5c1.5,0.5,2.5,1,3.5,2c1,1,1.5,2.5,1.5,4l46.9,411.1c0,1.5,0,3-1,4.4c-1,1.5-2,2.5-3.5,3
	C677.8,2121.5,676.9,2121.5,675.9,2121.5 M532.6,1881.9l133.4,204l-41.5-361.6L532.6,1881.9L532.6,1881.9z"/>
<path class="st0" d="M578.5,2194.1h-2.5c-1-0.5-2-1-3-2c-1-1-1.5-2-1.5-3l-54.8-304.8v-2c0-1.5,0.5-3,1-4c1-1,2-2,3-2.5
	c1.5-0.5,3-0.5,4.4,0c1.5,0.5,3,1.5,3.5,3l152.2,232.2c1,1,1,2.5,1,4c0,1-0.5,2.5-1,3.5c-0.5,1-1,2-2,2.5l-95.8,72.6
	C581.5,2194.1,580,2194.6,578.5,2194.1 M537,1914.5l46.9,260.9l83-62.3L537,1914.5L537,1914.5z M137.8,1658.1h-2c-1-0.5-2-1-2.5-2
	c-0.5-0.5-0.5-0.5-1-1.5v-1L0.5,1271.2c-0.5-1.5-0.5-3,0-4.4s1.5-3,2.5-3.5l130.4-106.7c1.5-1,3-1.5,4.4-1.5c1.5,0,3,0.5,4.4,1.5
	l195.2,186.8l0.5,1c0.5,0.5,1,1.5,1.5,2.5v3l-33.1,258.9c0,1.5-1,3-2,4c-1,1-2,2-3.5,2.5l-161.1,43H137.8L137.8,1658.1z
	 M322.1,1378.5l-168.5,260.4l140.3-36.6L322.1,1378.5L322.1,1378.5z M15.3,1271.2l124.5,364.1l184.3-285.1l-186.8-178.8
	C137.3,1171.4,15.3,1271.2,15.3,1271.2z"/>
<path class="st0" d="M299.4,1614.6c-1,0-2,0-3-0.5c-1.5-0.5-2.5-1.5-3-3c-0.5-1.5-1-3-0.5-4.4l33.1-258.9c0-1,0.5-2,1-2.5
	c0.5-1,1-1.5,2-2c1.5-1,3.5-1.5,5.4-1.5l168,30.1c1,0,2.5,1,3,1.5c1,1,1.5,2,2,3c0.5,1.5,0.5,2.5,0,4s-1,2.5-1.5,3.5l-201.6,229.2
	c-0.5,0.5-1.5,1-2,1.5H299.4 M338.4,1356.7L308.8,1586l177.9-202.6L338.4,1356.7z"/>
<path class="st0" d="M501,1386.4h-1l-168.5-30.1c-1.5-0.5-2.5-1-3.5-2L132.9,1167c-1-1-2-3-2-4.4c0-1.5,0.5-3.5,1.5-4.9
	c1-1.5,2.5-2.5,4-3c1.5-0.5,3.5,0,4.9,1l363.6,216.9c1.5,1,2.5,2,3,3.5c0.5,1.5,0.5,3,0,4.9c-0.5,1.5-1.5,2.5-2.5,3.5
	C503.9,1385.9,502.5,1386.4,501,1386.4 M336,1342.4l128.5,22.7l-277.2-165.5L336,1342.4z"/>
<path class="st0" d="M501,1386.4c-1,0-2.5-0.5-3.5-1l-363.6-216.9c-1-0.5-2-1.5-2.5-3c-0.5-1-1-2.5-1-4s0.5-2.5,1.5-4c1-1,2-2,3-2.5
	l71.6-29.1h2l229.7-16.3h3l200.6,73.6c1,0.5,2,1,3,2c0.5,1,1.5,2,1.5,3c0,1,0.5,2,0,3.5c0,1-0.5,2-1.5,3l-138.3,188.7
	c-0.5,1-1.5,1.5-2.5,2S502,1386.4,501,1386.4 M153.7,1163l345.8,206.5l129.4-176.4l-190.7-69.7l-227.8,16.3L153.7,1163L153.7,1163z"
	/>
<path class="st0" d="M1203,2041.5c-1,0-2.5-0.5-3.5-1c-1-0.5-2-1.5-2.5-2.5c-0.5-1-1-2-1-3.5s0-2.5,0.5-3.5l91.4-188.7
	c0.5-1,1-1.5,2-2.5c1-0.5,1.5-1,2.5-1.5l267.3-67.2c1.5-0.5,3,0,4.4,0.5c1.5,0.5,2.5,2,3,3.5c0.5,1.5,1,3,0.5,4.4
	c-0.5,1.5-1.5,3-2.5,4L1206.5,2039C1206,2041,1204.5,2041.5,1203,2041.5 M1298.9,1851.8l-77.6,161.1l305.8-218.9L1298.9,1851.8
	L1298.9,1851.8z M137.8,1169c-1.5,0-2.5-0.5-3.5-1c-1-0.5-1.5-1.5-2.5-2.5c-0.5-1-1-2-1-3l-21.7-337.9c0-1.5,0.5-3.5,1.5-4.9
	c1-1.5,2.5-2.5,4-2.5c1.5-0.5,3.5,0,4.9,1s2.5,2.5,3,4l93.9,309.3c0.5,1.5,0.5,3.5-0.5,5.4c-1,1.5-2,3-4,3.5l-71.6,28.7
	C139.8,1169,138.8,1169.5,137.8,1169 M127,882.4l17.3,269.8l57.3-23.7C201.6,1128.5,127,882.4,127,882.4z"/>
<path class="st0" d="M1201.5,2040c-1.5,0-3-0.5-4-1.5c-1-1-2-2-2.5-3.5c-0.5-1.5-0.5-3,0-4.4c0.5-1.5,1.5-3,2.5-3.5l359.7-254.4
	c1-1,2.5-1,4-1s3,0.5,4,1.5c1,1,2,2,2.5,3.5c0.5,1.5,0.5,3,0,4l-56.8,221.3c-0.5,1.5-1,2.5-2,3.5c-1,1-2.5,1.5-4,2l-302.4,33.1h-1
	L1201.5,2040z M1549.9,1794.9l-321.6,227.8l270.7-29.6L1549.9,1794.9L1549.9,1794.9z M780.1,1640.8c-1.5,0-2.5-0.5-3.5-1
	c-1-0.5-2-1.5-2.5-3L643.3,1374c-0.5-1.5-1-3-0.5-4.4c0-1.5,1-3,2-4c1.5-1,2.5-1.5,4-1.5s3,0.5,4,1.5l173.9,118.6c1.5,1,2,2,3,3.5
	c0.5,1.5,0.5,3,0,4.4L786,1636.8c-0.5,1.5-1,2.5-2.5,3.5c-1,1-2.5,1.5-3.5,1.5V1640.8L780.1,1640.8z M667.5,1390.8l111.2,224.3
	l37.1-123L667.5,1390.8z"/>
<path class="st0" d="M823.6,1496c-1.5,0-2.5-0.5-4-1l-173.9-118.6c-1-0.5-1.5-1.5-2-2c-0.5-1-0.5-2-1-3l-9.4-179.8
	c0-1.5,0.5-3,1-4.4c1-1.5,2-2.5,3.5-3c1.5-0.5,3-0.5,4.4,0c1.5,0.5,2.5,1.5,3.5,3l183.8,298.4c1,1.5,1,3,1,4.4c0,1.5-1,3-2,4.4
	c-1,0.5-1.5,1-2.5,1.5C825.6,1496,824.6,1496.5,823.6,1496 M656.1,1366.6l144.3,98.3l-152.2-248L656.1,1366.6z"/>
<path class="st0" d="M501,1385.9c-1.5,0-2.5-0.5-3.5-1c-1-0.5-2-1.5-2.5-3c-0.5-1.5-1-2.5-0.5-4c0-1.5,0.5-2.5,1.5-4l138.8-189.2
	c1-1,2-2,3.5-2.5s3-0.5,4,0c1.5,0.5,2.5,1.5,3.5,2.5c1,1,1.5,2.5,1.5,4l9.4,180.3c0,1,0,2-0.5,3c-0.5,1-0.5,1.5-1.5,2.5
	c-0.5,0.5-1.5,1.5-2,1.5c-1,0.5-1.5,0.5-2.5,0.5L501,1385.9L501,1385.9z M634.4,1209.5l-119.1,162.1l127-7.4L634.4,1209.5z"/>
<path class="st0" d="M640.3,1197.6h-2.5l-201.6-74.1c-1.5-0.5-2.5-1.5-3-2.5c-1-1-1.5-2.5-1.5-4s0.5-3,1-4c1-1.5,2-2,3-3L673.4,999
	c1-0.5,2-1,3.5-1s2.5,0.5,3.5,1c1,0.5,1.5,1.5,2.5,2.5c0.5,1,1,2,1,3.5v1.5l-36.1,184.8c0,1-0.5,2-1,3c-0.5,1-1.5,1.5-2,2
	C642.8,1196.6,641.3,1197.6,640.3,1197.6 M457,1116.1l177.9,65.2l31.6-164L457,1116.1z"/>
<path class="st0" d="M639.8,1198.1c-1,0-2,0-3-0.5c-1.5-0.5-2.5-2-3-3.5s-1-3-0.5-4.4c0,0,6.4-32.1,12.8-63.2l23.2-121.5
	c0-1.5,1-3,2-4s2.5-1.5,4-2l119.1-8.4c1.5,0,2.5,0.5,3.5,1c1,0.5,2,1.5,2.5,3s1,2.5,1,4s-0.5,3-1.5,4l-155.1,194.7
	C642.8,1197.6,641.3,1198.1,639.8,1198.1 M681.8,1012.4L658.6,1129l-6.9,35.6l127.5-159.1L681.8,1012.4L681.8,1012.4z"/>
<path class="st0" d="M676.4,1012.9c-1,0-2,0-3-0.5c-1-0.5-1.5-1-2.5-2c-0.5-1-1.5-2-1.5-3v-3.5l32.1-129.4c0.5-1.5,1-2.5,2-3.5
	s2-1.5,3.5-2c1.5,0,2.5,0,4,0.5c1,0.5,2,1.5,3,2.5l86.5,120.5c0.5,1,1,2.5,1.5,3.5c0,1.5,0,2.5-0.5,3.5s-1.5,2-2.5,3
	c-1,0.5-2,1-3.5,1.5L676.4,1012.9L676.4,1012.9z M711.4,892.8L685.3,998l96.8-6.9L711.4,892.8L711.4,892.8z"/>
<path class="st0" d="M439.7,1123.5c-1,0-2.5,0-3.5-1c-1-0.5-2-1.5-2.5-2.5c-1-1.5-1.5-3-1-4.9c0.5-1.5,1-3,2.5-4.4L704,870.1
	c1-1,2.5-1.5,4-1.5s3,0,4,1c1.5,1,2,2,3,3.5c0.5,1.5,0.5,3,0.5,4.4l-32.1,128.9c0,1-0.5,2-1.5,3c-0.5,1-1.5,1.5-2.5,2l-236.7,111.2
	C441.7,1123,440.7,1123.5,439.7,1123.5 M696.6,896.8l-216.4,193.2l190.2-89.4L696.6,896.8z"/>
<path class="st0" d="M439.7,1123.5h-2.5c-1-0.5-2-1-3-2s-1.5-2-1.5-3.5l-8.9-50.4v-3c0-1,0.5-2,1.5-2.5l327.6-448.1
	c1-1,2.5-1.5,3.5-2c1.5,0,3,0,4,0.5c1.5,0.5,2.5,1.5,3,3c0.5,1.5,1,3,1,4.4L713.9,878c0,1.5-1,3-2,4L444.6,1122
	c-0.5,0.5-1.5,1-2.5,1.5L439.7,1123.5 M438.2,1067.7l5.9,35.1L702.1,872l44-224.8L438.2,1067.7z"/>
<path class="st0" d="M780.1,1640.8h-2.5l-130.4-51.9c-1.5-0.5-2.5-1.5-3-2.5c-1-1-1.5-2.5-1.5-4v-211.9c0-1.5,0.5-3,1.5-4.4
	c1-1.5,2.5-2,4-2.5c1.5-0.5,3,0,4.4,0.5c1.5,0.5,2.5,2,3,3L786,1630.4c0.5,1.5,1,3,0.5,4c0,1.5-1,3-2,4c-0.5,1-1.5,1.5-2,2
	C782.1,1640.8,781.1,1640.8,780.1,1640.8 M656.1,1577.1l109.7,43.5l-109.2-220.8v177.4L656.1,1577.1z M794.4,1005.4c-1,0-2-0.5-3-1
	c-1-0.5-2-1.5-2.5-2L703,880c-0.5-1-1-1.5-1.5-2.5v-3l48.9-253.9c0-1,1-2.5,1.5-3.5c1-1,2-1.5,3-2h0.5l274.7-85
	c1.5-0.5,3.5-0.5,4.9,0.5c1.5,0.5,3,2,3.5,3.5c0.5,1.5,1,3.5,0,4.9c-0.5,1.5-1.5,3-3,4L817.2,672.4L800.9,999c0,1.5-0.5,3-1.5,4
	s-2,2-3.5,2.5C795.9,1005.9,794.9,1005.9,794.4,1005.4L794.4,1005.4z M715.9,874.5l72.6,103.8l15.3-306.8l-42-36.6L715.9,874.5z
	 M771.7,625.5l39.5,34.1l165.5-97.3L771.7,625.5L771.7,625.5z"/>
<path class="st0" d="M629.4,1711.9c-1.5,0-3-0.5-4.4-1.5c-1-1-1.5-2-2-3c-0.5-1-0.5-2.5-0.5-3.5l20.3-123c0-1,0.5-2,1-3
	c0.5-1,1.5-1.5,2-2c1-0.5,2-0.5,3-0.5s2,0,3,0.5l129.9,51.4c1.5,0.5,2.5,1.5,3,2.5c1,1.5,1,2.5,1,4c0,1.5-0.5,3-1,4
	c-0.5,1-2,2-3,2.5l-150.7,70.2C631.4,1711,630.4,1711.4,629.4,1711.9 M654.6,1591.4l-16.3,100.8l124-57.8L654.6,1591.4L654.6,1591.4
	z"/>
<path class="st0" d="M906.1,1790h-2l-276.2-78.6c-1.5-0.5-2.5-1-3.5-2.5c-1-1-1.5-2.5-1.5-4c0-1.5,0-3,1-4.4c1-1,2-2.5,3-3
	l150.7-70.2c1.5-0.5,3-1,4.4-0.5c1.5,0.5,3,1,4,2l126,149.2c1,1,1.5,2.5,1.5,4c0,1.5,0,3-1,4.4c-0.5,1-1.5,1.5-2.5,2.5
	S907.1,1790,906.1,1790 M649.7,1702.6l236.2,67.2l-107.7-127.5L649.7,1702.6L649.7,1702.6z M430.8,1073.6c-1,0-2,0-3-0.5
	c-1-0.5-1.5-1-2.5-2l-1.5-3v-3l85.5-361.2l1.5-3c1-1,2-1.5,3-2l241.1-82.5c1.5-0.5,3-0.5,4.4,0c1.5,0.5,2.5,1.5,3.5,2.5
	s1.5,3,1.5,4.4s-0.5,3-1.5,4.4l-327.1,443.2c-0.5,1-1.5,1.5-2,2C432.8,1073.1,431.8,1073.6,430.8,1073.6 M522.2,711l-76.6,324.1
	l293.5-397.7L522.2,711L522.2,711z"/>
<path class="st0" d="M430.8,1073.6c-1.5,0-3-1-4.4-2c-1-1-2-2.5-2-4.4L381.9,706v-3c0-1,1-2,1.5-2.5c0.5-1,1.5-1.5,2.5-1.5
	c1-0.5,2-0.5,3-0.5h128c1,0,2,0,3,0.5s1.5,1,2.5,2l1.5,3v3l-85.5,360.7c-0.5,1.5-1,3-2.5,4.4
	C434.3,1072.6,432.8,1073.6,430.8,1073.6 M395.7,712.5l37.1,314.7l74.6-314.7H395.7z"/>
<path class="st0" d="M439.2,1123.5c-1.5,0-3-0.5-4-1.5c-1-1-2-2-2.5-3.5l-136.4-373c-0.5-1.5-0.5-3.5,0-5.4s2-3,3.5-4l84-36.6
	l108.7-175.9l-137.3,60.8c-1.5,0.5-3.5,1-4.9,0c-1.5-0.5-3-1.5-4-3.5c-1-1.5-1-3.5-1-4.9c0.5-1.5,1.5-3.5,2.5-4.4l307.8-240.1l3-1.5
	h3c1,0.5,2,1,2.5,1.5c1,1,1.5,1.5,2,2.5l35.1,87c0.5,1,0.5,2,0.5,3s0,2-0.5,3s-1,1.5-1.5,2.5c-0.5,0.5-1.5,1-2.5,1.5l-180.8,80.5
	l5.9,192.2c0,2-0.5,4-2,5.4s-3,2-4.9,2H396.2l49.9,403.1c0,1.5,0,3.5-1,4.9c-1,1.5-2.5,2.5-4,3L439.2,1123.5L439.2,1123.5z
	 M311.3,746.6l113.6,310.3l-42-341.9L311.3,746.6z M401.2,697.6h108.2l-5.4-167L401.2,697.6z M658.1,349.3L402.2,548.4L686.7,422
	L658.1,349.3L658.1,349.3z"/>
<path class="st0" d="M516.3,712.5c-1.5,0-3-0.5-4-1.5c-1-0.5-1.5-1.5-2-2.5s-1-2-1-3l-6.4-197.1c0-1,0-2.5,1-3.5
	c0.5-1,1.5-2,2.5-2.5s2-1,3.5-1c1.5,0,2.5,0.5,3.5,1l247.5,115.6c1.5,0.5,2.5,1.5,3,3c0.5,1.5,1,2.5,1,4c0,1-0.5,2-1.5,3
	c-0.5,1-1.5,1.5-2.5,2l-242.1,82C517.8,712.5,517.3,712.5,516.3,712.5 M517.3,518.8l5.9,176.9l215.9-73.1L517.3,518.8L517.3,518.8z"
	/>
<path class="st0" d="M757.9,630.9c-1,0-2,0-3-0.5l-248-115.6c-1-0.5-2-1.5-3-2.5c-0.5-1-1-2.5-1.5-3.5c0-1.5,0.5-3,1-4
	c1-1,2-2,3-2.5L685.3,422l-31.1-80c-0.5-2-0.5-4,0-5.4L771.2,61.8c0.5-1.5,2-3,3.5-3.5c1.5-0.5,3.5-0.5,4.9,0s3,1.5,4,3.5
	c1,1.5,1,3.5,0.5,4.9l-82.5,357.7l62.7,197.1c0.5,1.5,0.5,3,0,4c-0.5,1.5-1,2.5-2,3.5C760.8,630,759.4,630.9,757.9,630.9
	 M526.2,508.4L746,610.7l-55.8-176.4L526.2,508.4L526.2,508.4z M668,339l25.2,62.7l60.8-263.8L668,339L668,339z"/>
<path class="st0" d="M337.4,384.4c-1.5,0-3-0.5-4-1.5c-1-1-2-2-2.5-3.5c-0.5-1.5-0.5-3,0-4.4s1.5-3,3-3.5L774.7,58.3c1-1,2.5-1,4-1
	s3,0.5,4,1.5s2,2.5,2.5,4c0.5,1.5,0,3-0.5,4.4L667,341.4c-0.5,1-1,2-2,3c-1,0.5-2,1-3.5,1.5l-323.1,38.5H337.4L337.4,384.4z
	 M761.8,84.5L364.1,367.1l292-34.6L761.8,84.5L761.8,84.5z"/>
<path class="st0" d="M352.8,585c-2,0-3.5-0.5-4.9-2c-1-1.5-1.5-3-1.5-4.4c0-1.5,0.5-3.5,1.5-4.4l87-116.1c0.5-1,1.5-1.5,2-2
	l220.3-123.5c0.5-0.5,1.5-1,2.5-1h2.5c1,0,1.5,0.5,2.5,1l2,2c0.5,1,1,1.5,1,2.5v3c0,1-0.5,2-1,2.5c-0.5,1-1,1.5-2,2L356.7,584
	C355.7,585,354.2,585,352.8,585 M444.6,467.9L389.8,541l192.7-150.2L444.6,467.9z"/>
<path class="st0" d="M439.7,469.4c-1.5,0-3-0.5-4.4-1.5l-102.3-85c-1-1-1.5-2-2-3.5c-0.5-1.5-0.5-2.5,0-4s1-2.5,2-3.5
	c1-1,2-1.5,3.5-1.5L660.1,332c1.5,0,3,0.5,4.4,1.5c1.5,1,2.5,2,3,4c0.5,1.5,0.5,3.5,0,4.9s-1.5,3-3,3.5L443.2,468.4
	C442.2,468.9,440.7,469.4,439.7,469.4 M354.2,382.4l86,71.1l185.3-103.3L354.2,382.4z"/>
<path class="st0" d="M352.8,586.5h-2c-1.5-0.5-2.5-1.5-3.5-2.5s-1.5-2.5-1.5-4l-15.3-201.6c0-1.5,0-3,1-4c0.5-1.5,1.5-2.5,3-3
	c1-0.5,2.5-1,4-1s2.5,0.5,3.5,1.5l102.3,85c1.5,1,2.5,3,2.5,4.4c0,2-0.5,4-1.5,5.4l-87,117.1c-0.5,1-1.5,1.5-2.5,1.5
	C354.7,586.5,353.7,586.5,352.8,586.5 M345.3,393.3l12.8,167l71.6-97.3L345.3,393.3L345.3,393.3z M1497,446.7c-1.5,0-2.5-0.5-4-1.5
	L1208,248.1c-1-1-2-2-2.5-3.5c-0.5-1.5-0.5-3-0.5-4.4c0.5-1.5,1.5-3,2.5-3.5c1-1,2.5-1.5,4-1.5l398.7-30.6c1.5,0,2.5,0,3.5,0.5
	c1,0.5,2,1.5,2.5,2.5c0.5,1,1,2.5,1,3.5s-0.5,2.5-1,3.5l-113.1,228.3c-0.5,1-1,1.5-2,2.5c-0.5,0.5-1.5,1-2.5,1.5L1497,446.7
	L1497,446.7z M1232.2,248.1l262.3,181.3l104.2-210L1232.2,248.1L1232.2,248.1z"/>
<path class="st0" d="M1211.9,249.5c-2,0-3.5-0.5-4.9-2L1093.8,128c-1-1-1.5-2-2-3.5c-0.5-1.5,0-2.5,0-4c0.5-1.5,1.5-2.5,2.5-3
	c1-1,2.5-1.5,3.5-1.5l525.7-42.5c1,0,2,0,3,0.5s2,1,2.5,2c0.5,1,1,1.5,1.5,2.5c0.5,1,0.5,2,0.5,3L1617,212.5c0,1.5-1,3-2,4.4
	c-1,1-2.5,2-4.4,2L1211.9,249.5L1211.9,249.5z M1114.1,129l100.3,106.2l389.8-30.6L1616.1,88C1616.1,88,1114.1,129,1114.1,129z"/>
<path class="st0" d="M1458,695.2c-1.5,0-3-0.5-4-1c-1-1-2-2-2.5-3c-0.5-1.5-0.5-3-0.5-4s1-3,2-3.5l247-267.3c1-1,2-1.5,3-2
	c1-0.5,2.5-0.5,3.5-0.5s2,1,3,1.5c1,1,1.5,1.5,2,3l76.6,191.2c0.5,1,0.5,2,0.5,3s0,2-0.5,3c-0.5,1-1,1.5-2,2.5l-3,1.5l-323.1,76.1
	L1458,695.2L1458,695.2z M1703.5,433.8l-224.8,242.6l293-69.2L1703.5,433.8z M1390.3,521.3h-1.5l-206-38c-1.5-0.5-3-1.5-4.4-3
	c-1-1.5-1.5-3.5-1-4.9l27.7-234.2c0-1,0.5-2.5,1.5-3.5c0.5-1,1.5-2,2.5-2.5c1-0.5,2-1,3.5-1c1,0,2.5,0.5,3.5,1l284.6,197.1
	c1,0.5,1.5,1.5,2.5,2.5c0.5,1,1,2,1,3.5c0,1-0.5,2.5-1,3.5c-0.5,1-1.5,2-2.5,2.5l-107.2,76.1c-1,0.5-2.5,1-4,0.5h1V521.3z
	 M1191.7,470.4l196.6,36.6l95.8-67.7l-266.8-184.8L1191.7,470.4z M1098.8,130c-1.5,0-3-0.5-4-1.5c-1-1-2-2.5-2.5-4
	c-0.5-1.5,0-3,0.5-4.4c0.5-1.5,1.5-2.5,3-3.5L1296.4,1c0.5-0.5,1.5-0.5,2.5-1h2.5l325.1,73.1c1.5,0,3,1.5,4.4,2.5
	c1,1.5,1.5,3,1.5,4.9c0,1.5-1,3.5-2,4.4c-1,1-3,2-4.4,2L1098.8,130L1098.8,130z M1300.8,14.9l-170.9,98.8l447.6-36.6L1300.8,14.9z"
	/>
<path class="st0" d="M1458,695.7c-1,0-2.5,0-3.5-1c-1-0.5-2-1.5-2.5-2.5c-0.5-1-1-2-1-3.5s0-2.5,0.5-3.5l238.1-522.2
	c0.5-1.5,2-2.5,3-3.5c1.5-0.5,3-1,4.4-0.5c1.5,0.5,3,1,4,2.5c1,1,1.5,3,1.5,4.4l9.4,255.9c0,1,0,2-0.5,3c0,1-0.5,1.5-1.5,2.5
	l-247.5,267.3C1461.4,695.2,1459.9,695.7,1458,695.7 M1690.2,195.2l-208,457l216.4-233.7L1690.2,195.2L1690.2,195.2z"/>
<path class="st0" d="M1458,695.7h-2c-1.5-0.5-3-1.5-4-3c-1-1.5-1.5-3-1-4.9l39-249c0-1,0.5-1.5,0.5-2l113.6-228.3
	c0.5-1.5,1.5-2.5,3-3l85.5-45c1-0.5,2.5-1,4-0.5c1.5,0,3,1,3.5,2c1,1,1.5,2.5,2,4c0,1.5,0,3-0.5,4.4l-237.6,521.2
	c-0.5,1.5-1.5,2-2.5,3C1460.4,695.2,1458.9,695.7,1458,695.7 M1503.4,441.7l-30.6,198.6l209-458.5l-66.2,35.1L1503.4,441.7
	L1503.4,441.7z"/>
<path class="st0" d="M1458,695.7c-1.5,0-3-0.5-4-1c-1-1-2-2-2.5-3l-68.2-174.9c-0.5-1.5-0.5-3-0.5-4.9c0.5-1.5,1.5-3,3-4l107.2-75.1
	c1-1,2.5-1,4-1s2.5,0.5,4,1c1,1,2,2,2.5,3c0.5,1.5,0.5,2.5,0.5,4l-39,249.5c0,1.5-1,3-2,4c-1,1-2.5,2-4,2L1458,695.7z M1398.2,516.8
	l57.3,145.7l32.6-208L1398.2,516.8L1398.2,516.8z M1033.1,545c-1,0-2.5-0.5-3.5-1l-161.6-97.8c-1.5-1-2.5-2-3-3.5
	c-0.5-1.5-0.5-3,0-4.9c0.5-1.5,1.5-3,2.5-4c1.5-1,3-1.5,4.4-1l312.7,36.6c1.5,0,3,1,4,2c1,1,1.5,2.5,2,4c0,1.5,0,3-1,4.4
	c-1,1.5-2,2.5-3.5,3L1035,545L1033.1,545 M902.6,450.6l130.9,79.5l122.5-50.4L902.6,450.6L902.6,450.6z"/>
<path class="st0" d="M757.4,630h-1c-1.5,0-2.5-0.5-3.5-1.5c-1-1-1.5-2-2-3l-63.2-199.6c-0.5-1.5-0.5-3,0-4c0.5-1.5,1-2.5,2-3.5
	l130.4-115.1c1-1,2-1.5,3-1.5c1-0.5,2,0,3.5,0l3,1.5c1,0.5,1.5,1.5,2,3l45.9,128.9l159.6,97.3c1,1,2,2,2.5,3c0.5,1.5,1,2.5,0.5,4
	c0,1.5-0.5,2.5-1.5,3.5c-1,1-2,2-3,2.5l-273.2,84C760.4,630.5,758.9,630.5,757.4,630 M873.5,449.1l-99.8,161.1l242.1-74.1
	L873.5,449.1z M701.6,425.9l58.3,180.8l103.8-167.5l-41.5-118.1L701.6,425.9z M1781.6,619.1h-0.5c-1.5,0-2.5-0.5-3.5-1.5
	c-1-0.5-2-2-2.5-3l-76.6-191.2c-0.5-1.5-0.5-3,0-4.4c0.5-1.5,1.5-3,2.5-4c1.5-1,3-1.5,4.4-1.5c1.5,0,3,0.5,4.4,1.5l128,111.7
	c1,1,2,3,2.5,4.4c0.5,1.5,0,3.5-1,4.9l-51.9,80c-0.5,1-1.5,2-2.5,2.5C1784,619.1,1782.6,619.1,1781.6,619.1 M1722.3,444.7
	l60.8,152.7l40.5-64.2L1722.3,444.7L1722.3,444.7z"/>
<path class="st0" d="M1832.9,539.1c-1.5,0-3-0.5-4.4-1.5L1701,426.4c-1-1-1.5-2-2-3.5c-0.5-1.5-0.5-2.5,0-4c0.5-1.5,1-2.5,2-3
	c1-1,2-1.5,3.5-1.5l201.1-19.8c1.5,0,2.5,0,3.5,1c1,0.5,2,1.5,3,2.5c0.5,1,1,2.5,1,3.5c0,1.5-0.5,2.5-1,4l-73.6,130.9
	c-0.5,1-1,1.5-2,2.5c-1,0.5-2,1-3,1L1832.9,539.1L1832.9,539.1z M1722.3,426.4l108.7,94.9l62.7-111.7L1722.3,426.4z"/>
<path class="st0" d="M1705.5,427.9h-1c-1.5,0-3-1-4-2.5c-1-1.5-1.5-3-2-4.4l-9.4-255.4c0-1,0-2,0.5-3c0.5-1,1-2,2-2.5l3-1.5
	c1-0.5,2,0,3.5,0l87,26.7c1,0.5,1.5,0.5,2.5,1.5c1,0.5,1.5,1.5,2,2.5c0.5,1,0.5,2,0.5,3c0,1,0,2-0.5,3l-77.6,228.7
	c-0.5,1.5-1.5,2.5-2.5,3.5C1708.4,427.4,1707,427.9,1705.5,427.9 M1703.5,175.4l7.4,208.5l63.2-186.3L1703.5,175.4L1703.5,175.4z"/>
<path class="st0" d="M1705.5,427.9c-1,0-2,0-3-0.5s-1.5-1-2.5-2c-0.5-1-1-2-1.5-3.5c0-1,0-2.5,0.5-3.5l75.6-221.3l-80.5-24.2
	c-1.5-0.5-2.5-1-3.5-2L1619,86c-1-1.5-1.5-3-1.5-4.4c0-2,0.5-3.5,1.5-4.4c1-1.5,2.5-2,4.4-2.5c1.5,0,3.5,0,4.4,1L1787,187.8
	c1,1,2,2,2.5,3.5l123,207.5c0.5,1,1,2.5,1,3.5c0,1.5,0,2.5-0.5,3.5c-0.5,1-1.5,2-2.5,2.5l-3,1.5L1706,429.4L1705.5,427.9
	L1705.5,427.9z M1785,209l-69.7,204l179.8-17.8L1785,209z M1700,159.6l43.5,13.3l-79-55.8L1700,159.6L1700,159.6z"/>
<path class="st0" d="M1610.6,218.4c-1.5,0-2.5-0.5-4-1.5c-1-0.5-2-1.5-2.5-3c-0.5-1-1-2.5-0.5-4l13.8-130.9c0-1.5,0.5-3,1.5-4
	c1-1,2-2,3-2.5c1.5-0.5,2.5-0.5,4,0c1.5,0.5,2.5,1,3.5,2.5l71.6,85c0.5,1,1.5,2,1.5,3v3.5c0,1-0.5,2-1,3c-0.5,1-1.5,1.5-2.5,2
	l-85,45.9C1613.1,217.9,1612.1,218.4,1610.6,218.4 M1629.4,96.9l-10.9,101.8l66.2-35.1L1629.4,96.9L1629.4,96.9z M1184.3,484.2h-0.5
	l-313.2-36.6c-1.5,0-2.5-0.5-3.5-1.5s-2-2-2-3l-46.4-131.4c-0.5-1-0.5-2-0.5-3c0-1,0-2,0.5-3s1-2,2-2.5l3-1.5l233.7-42
	c1.5,0,3,0,4,0.5c1.5,0.5,2.5,1.5,3,3l126.5,209c0.5,1,1,2.5,1,3.5c0,1.5-0.5,2.5-1,3.5s-1.5,2-2.5,2.5c-1,0.5-2,1-3.5,1
	L1184.3,484.2L1184.3,484.2z M876,433.3l294.5,34.6l-116.1-192.2l-220.8,39.5L876,433.3L876,433.3z"/>
<path class="st0" d="M1184.3,484.2c-1,0-2.5-0.5-3.5-1s-2-1.5-2.5-2.5l-126-209.5c-0.5-1-1-2-1-3v-3l41-144.3c0.5-1.5,1-2.5,2-3
	c1-1,2-1.5,3-2c1.5-0.5,2.5-0.5,3.5,0c1,0.5,2,1,3,2l113.6,119.1c1,1,1.5,1.5,1.5,3c0.5,1,0.5,2,0.5,3l-28.7,234.2c0,1.5-1,3-1.5,4
	c-1,1-2,2-3.5,2L1184.3,484.2z M1065.2,266.3l114.1,189.2l25.7-211l-102.8-108.2L1065.2,266.3L1065.2,266.3z"/>
<path class="st0" d="M824.1,316.2c-1,0-2,0-3-0.5c-1-0.5-2-1.5-2.5-2c-0.5-1-1-2-1-3s0-2,0.5-3.5l38-116.1c0-1,1-2,1.5-3
	c1-1,1.5-1.5,3-1.5l236.7-70.2c1.5-0.5,2.5-0.5,3.5,0c1,0,2.5,1,3,2c1,1,1.5,2,1.5,3v3.5l-41,144.8c-0.5,1.5-1,2.5-2,3.5
	c-1,1-2,1.5-3.5,1.5l-233.7,41.5H824.1z M867.6,199.1l-33.1,101.3l217.9-39l36.6-128L867.6,199.1L867.6,199.1z"/>
<path class="st0" d="M862.1,200.6c-1,0-2.5-0.5-3-1c-1-0.5-2-1.5-2.5-2.5l-84-128.9c-1-1-1-2.5-1-4c0-1.5,0.5-3,1-4
	c0.5-1,1.5-2,3-2.5s2.5-1,4-0.5l321.1,58.3c1.5,0.5,3,1,4,2.5c1,1.5,1.5,3,2,4.4c0,1.5-0.5,3-1.5,4.4s-2,2.5-4,2.5l-237.1,70.2
	C863.6,200.6,862.6,200.6,862.1,200.6 M792.5,74.6l72.6,110.7l203.6-60.8C1068.6,124.5,792.5,74.6,792.5,74.6z"/>
<path class="st0" d="M823.6,320.2c-1.5,0-3-0.5-4-2c-1-1-2-2.5-2.5-4L771.7,65.7c0-1.5,0-3,1-4.4c0.5-1.5,2-2.5,3.5-3s3-0.5,4.4,0
	c1.5,0.5,3,1.5,3.5,3l84.5,128.9c0.5,1,1,2,1,3s0,2-0.5,3.5l-39,118.6c-0.5,1.5-1.5,3-2.5,3.5C826.6,319.7,825.1,320.2,823.6,320.2
	 M791,96.9l35.1,188.2l29.1-90.4L791,96.9z"/>
<path class="st0" d="M694.6,430.9c-1.5,0-2.5-0.5-3.5-1c-1-1-2-2-2.5-3.5c-0.5-1.5-0.5-3,0-4.4l83.5-359.7c0.5-1.5,1-3,2.5-4
	s3-1.5,4.4-1.5c1.5,0,3,0.5,4.4,1.5c1,1,2,2.5,2.5,4l44,249c0,1.5,0,2.5-0.5,4c-0.5,1-1,2.5-2,3L699.1,429.4
	C698.1,430.4,696.1,430.9,694.6,430.9 M777.1,98.4L706,405.2l110.2-94.9L777.1,98.4L777.1,98.4z M1946.1,2153.1
	c-1.5,0-3-0.5-4.4-1.5l-293-240.1c-0.5-0.5-1.5-1.5-2-2.5c-0.5-1-0.5-2-0.5-3l-9.4-190.7c0-1,0-2,0.5-3c0.5-1,1-2,1.5-2.5
	c1-0.5,1.5-1,2.5-1.5c1-0.5,2-0.5,3-0.5l203.1,29.1c1.5,0,2.5,1,3.5,1.5c1,1,2,2.5,2,3.5l99.3,401.7c0.5,1.5,0.5,3,0,4.4
	c-0.5,1.5-1.5,2.5-2.5,3.5C1949,2152.6,1947.6,2153.1,1946.1,2153.1 M1660,1902.2l274.2,225.3l-92.9-377l-190.2-27.7L1660,1902.2z"
	/>
<path class="st0" d="M1504.4,2007.4c-1,0-2,0-3-1c-1-0.5-1.5-1-2.5-2l-1.5-3v-3.5l57.3-221.3c0.5-1.5,1-3,2.5-4l83-63.7
	c1-1,2-1.5,3.5-1.5c1,0,2.5,0,3.5,0.5c1,0.5,2,1.5,3,2.5c0.5,1,1,2.5,1,3.5l9.4,190.7c0,1.5,0,2.5-0.5,3.5c-0.5,1-1.5,2-2.5,3
	l-149.2,94.4C1506.9,2006.9,1505.4,2007.4,1504.4,2007.4 M1567.1,1783.1l-51.9,202.1l130.9-83l-8.4-173.4L1567.1,1783.1z"/>
<path class="st0" d="M1946.1,2153.1h-2l-441.7-145.7c-1.5-0.5-2.5-1-3-2c-0.5-1-1.5-2.5-1.5-4c0-1.5,0-3,0.5-4c0.5-1,1.5-2,2.5-3
	l148.7-93.9c1-1,2.5-1,4-1c1.5,0,3,0.5,4,1l292.5,240.1c1.5,1,2,2.5,2.5,4c0.5,1.5,0,3.5-0.5,4.9c-0.5,1-1.5,2-2.5,2.5
	S1947.6,2153.1,1946.1,2153.1 M1521.2,1997.5l391.3,129.9l-259.4-212.9L1521.2,1997.5L1521.2,1997.5z M1846.8,1751.5h-1l-203.1-29.1
	c-1,0-2-0.5-3-1c-1-0.5-1.5-1-2-2c-0.5-1-1-2-1-3v-3l11.9-48.4c0-1,0.5-2,1.5-3l2-2c1-0.5,2-0.5,3-0.5c1,0,2,0,3,0.5l190.7,77.6
	c1.5,0.5,3,2,3.5,3.5c0.5,1.5,1,3.5,0.5,4.9c-0.5,1.5-1,3-2.5,3.5C1849.7,1750.5,1848.3,1751,1846.8,1751.5 M1652.6,1709l137.8,19.8
	l-129.4-52.4L1652.6,1709L1652.6,1709z"/>
<path class="st0" d="M1561.2,1786c-1,0-2,0-3-0.5c-1-0.5-1.5-1-2.5-2c-1-1.5-2-3-2-4.4c0-2,0.5-3.5,2-4.9l94.9-112.2
	c1-1,2.5-2,4-2.5c1.5,0,3,0,4.4,0.5c1.5,1,2.5,2,3,3.5c0.5,1.5,0.5,3,0.5,4.4l-11.9,48.9c-0.5,1.5-1.5,3-2.5,4l-83.5,63.7
	C1564.2,1785.6,1562.7,1786,1561.2,1786 M1642.2,1693.7l-33.1,39l29.1-22.2L1642.2,1693.7L1642.2,1693.7z"/>
<path class="st0" d="M1030.6,2499.5h-2.5l-241.6-87c-1-0.5-2-1-2.5-2l-209-218.4l-282.6-102.3c-1-0.5-2-1-2.5-1.5
	c-0.5-0.5-1.5-1.5-1.5-2.5l-137.3-392.8l-19.3-39.5L0.5,1271.2c-0.5-1.5-0.5-3,0-4.4s1.5-3,2.5-3.5l127.5-104.2l-20.8-335.5
	c0-1.5,0.5-3,1-4.4c0.5-1.5,2-2,3-3l182.8-78.1L331,376.5c0-1,0.5-2,1-3c0.5-1,1-1.5,2-2.5L774.7,58.3c1.5-1,3.5-1.5,4.9-1
	l318.7,58.3L1296.9,1c1.5-1,3-1,4.9-1l325.1,73.1c1,0,1.5,0.5,2.5,1l158.1,112.2c1,0.5,1.5,1.5,2,2l123.5,208c0.5,1,1,2.5,1,3.5
	c0,1.5-0.5,2.5-1,3.5l-125.5,211.9c-1,1.5-2.5,3-4.4,3.5l-323.1,76.1c-1.5,0.5-3.5,0-4.9-0.5c-1.5-0.5-2.5-2-3-3.5l-66.7-170
	l-200.6-37.1l-150.2,61.8L817.7,672.9l-16.3,324.6c0,1.5-0.5,3-1.5,4.4l-152.2,188.7l182.3,294c0.5,1,1,2,1,3v3l-42.5,141.8
	L910,1776.2l384.9,62.3l262.8-65.7l93.4-109.7c1-1,2.5-1.5,3.5-2c1.5-0.5,3,0,4,0l190.7,77.1c1,0.5,2,1,2.5,2c1,1,1.5,2,1.5,3
	l99.3,401.2c0.5,1.5,0,3-0.5,4.4c-0.5,1.5-1.5,2.5-3,3.5l-378.4,219.4l-255.4,75.6l-174.4,20.8l-108.2,32.1h-2V2499.5z
	 M792.5,2399.2l238.1,85l107.2-31.1l174.4-20.8l253-74.6l373-215.9l-96.8-392.8l-182.8-74.1l-92.4,108.2c-1,1-2,2-3.5,2.5
	l-266.8,67.2h-2.5l-388.8-63.2c-1.5-0.5-3-1-4-2.5l-125.5-148.2c-1-1-1.5-2-1.5-3v-3.5l42.5-142.3l-181.8-295.9c-1-1-1.5-2.5-1.5-4
	s0.5-3,1.5-4.4L788,995.1l16.3-326.6c0-1,0.5-2.5,1-3.5c0.5-1,1.5-2,2.5-2.5l221.3-130.9l152.2-62.3c1-0.5,2.5-0.5,3.5,0l206,38
	c1,0,2,1,3,1.5c1,1,1.5,1.5,2,3l66.2,168.5l314.2-74.1l121.5-205l-119.6-203.6L1622.5,87l-321.6-72.6L1101.7,129c-1.5,0.5-3,1-4.4,1
	L779.6,72.2L343.9,381.5l-34.1,362.1c0,1.5-0.5,2.5-1.5,3.5c-1,1-1.5,2-3,2.5l-181.8,78.1l21.2,334c0,1,0,2.5-0.5,3.5
	c-0.5,1-1,2-2,2.5L15.8,1271.2l128.5,377l20.3,39.5L301.9,2078l280.6,101.8c1,0.5,2,1,2.5,2L792.5,2399.2L792.5,2399.2z"/>
</svg>
