<?xml version="1.0" encoding="utf-8"?>
<!-- Generator: Adobe Illustrator 21.1.0, SVG Export Plug-In . SVG Version: 6.00 Build 0)  -->
<svg version="1.1" id="Layer_1" xmlns="http://www.w3.org/2000/svg" xmlns:xlink="http://www.w3.org/1999/xlink" x="0px" y="0px"
	 viewBox="0 0 20 24" style="enable-background:new 0 0 20 24;" xml:space="preserve">
<style type="text/css">
	.st0{fill:#00B6D0;}
</style>
<path class="st0" d="M11.4,23.6l1.7-0.2l-2-1L11.4,23.6L11.4,23.6z M13.1,23.4l-1.7,0.2l0,0l-0.3-1.3L13.1,23.4L13.1,23.4z
	 M12.9,17.7l-3.8-0.6l2.9,2.4L12.9,17.7z M9,17.1l3.9,0.6L12,19.5C12,19.5,9,17.1,9,17.1z M3.5,8.3l-1.4,2.5l2.3-0.2L3.5,8.3
	L3.5,8.3z M2.1,10.9l1.4-2.6l0.9,2.4C4.4,10.7,2.1,10.9,2.1,10.9z"/>
<path class="st0" d="M1.2,7.9L3,7.1l0,0l0.5,1.2L1.2,7.9z M3.5,8.3L3,7.1L1.2,7.9L3.5,8.3L3.5,8.3z M3.6,5.5L3,7.2l0.3-3.6h0
	L3.6,5.5L3.6,5.5z M3.4,3.7L3.1,7.1l0.5-1.5L3.4,3.7L3.4,3.7z"/>
<path class="st0" d="M3.1,7.1l0.8-0.3l1.2-1.9L3.6,5.5L3.1,7.1L3.1,7.1z M5.1,4.9L5.1,4.9L3.9,6.8L3,7.1l0.5-1.6L5.1,4.9L5.1,4.9z
	 M1.2,7.9L3,8.8l0,0l-0.9,2.1C2.1,10.9,1.2,7.9,1.2,7.9z M2.1,10.8L3,8.8L1.2,7.9L2.1,10.8z"/>
<path class="st0" d="M3,8.8l0.5-0.4L1.2,7.9L3,8.8L3,8.8z M3.5,8.3L3,8.8l0,0L1.1,7.9L3.5,8.3L3.5,8.3z"/>
<path class="st0" d="M2.1,10.9L2.1,10.9L3,8.8l0.5-0.5L2.1,10.9L2.1,10.9z M3.5,8.4L3,8.8l-0.8,2C2.2,10.7,3.5,8.4,3.5,8.4z
	 M6.5,15.2v-2L5,13.2l-2,2.2L6.5,15.2L6.5,15.2z M5,13.2l1.5-0.1l0,0v2l0,0L3,15.4L5,13.2L5,13.2z M3,15.4l3.5-0.3l-0.2,1.2l0,0
	C6.3,16.3,3,15.4,3,15.4z M3.1,15.4l3.2,0.9l0.2-1.2C6.5,15.2,3.1,15.4,3.1,15.4z M6.8,20.3l1.5-2.1l3.7,1.3l-2.7,1.7L6.8,20.3
	L6.8,20.3z M9.3,21.2l2.7-1.7l-3.7-1.3l-1.5,2.1C6.8,20.3,9.3,21.2,9.3,21.2z"/>
<path class="st0" d="M7.9,23l0.8-1.2l-1.9-1.6l-1,0.7L7.9,23L7.9,23z M6.8,20.3L6.8,20.3l1.9,1.6l0,0l-0.8,1.2L5.8,21
	C5.8,21,6.8,20.3,6.8,20.3z M6.7,20.2l2.6,1l-0.6,0.6h0L6.7,20.2L6.7,20.2z M8.7,21.8l0.6-0.6l-2.5-1L8.7,21.8z"/>
<path class="st0" d="M11.1,22.3l0.3,1.3l-2.8-1.8l0.6-0.6l0,0L11.1,22.3L11.1,22.3z M9.3,21.2l-0.6,0.6l2.7,1.7l-0.3-1.2L9.3,21.2
	L9.3,21.2z M7.9,23.1l2.4,0.8l-0.5-1L7.9,23.1z M9.8,22.9l0.5,1L7.9,23L9.8,22.9L9.8,22.9z"/>
<path class="st0" d="M9.8,22.9l-2,0.2l0.8-1.2L9.8,22.9L9.8,22.9z M8.7,21.8L7.9,23l1.9-0.2L8.7,21.8z"/>
<path class="st0" d="M11.3,23.5l-2.6-1.6l1.1,1L11.3,23.5L11.3,23.5z M9.8,22.9L9.8,22.9L9.8,22.9C9.8,22.9,9.8,22.9,9.8,22.9z
	 M9.8,22.9l-1.2-1l0,0l2.7,1.7l0,0L9.8,22.9L9.8,22.9z"/>
<path class="st0" d="M9.8,22.9l1.6,0.7l-1.1,0.3l0,0C10.3,23.9,9.8,22.9,9.8,22.9z M10.3,23.9l1.1-0.3l-1.5-0.7L10.3,23.9L10.3,23.9
	z M3.1,15.4l-1.5,0.8l0,0l-0.2-0.4L3.1,15.4L3.1,15.4z M1.4,15.8l0.2,0.4L3,15.4L1.4,15.8L1.4,15.8z"/>
<path class="st0" d="M3,15.4l3.3,0.9L5.3,18l-3.7-1.8C1.6,16.2,3,15.4,3,15.4z M1.6,16.2L5.3,18l1-1.7L3,15.4
	C3,15.4,1.6,16.2,1.6,16.2z"/>
<path class="st0" d="M3,20l-1.4-3.8l3.1,2.3C4.7,18.5,3,20,3,20z M4.6,18.5l-3-2.3L3,20L4.6,18.5L4.6,18.5z"/>
<path class="st0" d="M1.7,16.2l3,2.2L5.2,18L1.7,16.2L1.7,16.2z M4.6,18.5l-3.1-2.3l0,0L5.3,18L4.6,18.5L4.6,18.5z"/>
<path class="st0" d="M5.3,18l0.6,3l-1.2-2.5l0,0C4.6,18.5,5.3,18,5.3,18z M4.7,18.5l1.1,2.4l-0.5-2.9L4.7,18.5L4.7,18.5z"/>
<path class="st0" d="M5.8,20.9l-1.1-2.4L3,20L5.8,20.9z M4.6,18.5L5.8,21L3,20L4.6,18.5L4.6,18.5z M12,19.5l-0.9,2.8l4.8-1.6
	L12,19.5L12,19.5z M11,22.4l1-2.9l3.9,1.2L11,22.4L11,22.4z"/>
<path class="st0" d="M15.9,20.7l-4-1.2l3.1-0.3L15.9,20.7L15.9,20.7z M15,19.2l-3,0.3l3.9,1.2L15,19.2L15,19.2z M15.9,20.7
	L15.9,20.7l3.5-0.1l-3.8,2.1C15.6,22.7,15.9,20.7,15.9,20.7z M15.7,22.6l3.7-2.1l-3.5,0.1L15.7,22.6L15.7,22.6z"/>
<path class="st0" d="M19.4,20.6L15,19.2l0.9,1.5L19.4,20.6L19.4,20.6z M15,19.1l4.4,1.4l-3.5,0.1L15,19.1L15,19.1z M9.3,21.2
	l1.7,1.1l0.9-2.8L9.3,21.2z M11.1,22.4l-1.8-1.1l2.7-1.7L11.1,22.4z M13.1,23.4l1.3-1.1l1.3,0.3L13.1,23.4z M15.6,22.7l-1.2-0.3
	l-1.2,1C13.1,23.4,15.6,22.7,15.6,22.7z"/>
<path class="st0" d="M14.4,22.3l1.2,0.3l0.3-1.9L14.4,22.3L14.4,22.3z M15.7,22.7L15.7,22.7l-1.3-0.3l1.6-1.7L15.7,22.7z"/>
<path class="st0" d="M15.9,20.7l-1.6,1.7l-3.4,0C11,22.4,15.9,20.7,15.9,20.7z M11.1,22.3h3.3l1.5-1.6L11.1,22.3z M14.4,22.4h-3.3
	l2,1L14.4,22.4L14.4,22.4z M11,22.3h3.4l-1.3,1L11,22.3z M12.1,19.5l-3.8-1.3l0.8-1.1L12.1,19.5z M9.1,17.1l-0.8,1.1l3.7,1.3
	L9.1,17.1L9.1,17.1z"/>
<path class="st0" d="M8.3,18.2L9,17.1l-2.7-0.7L8.3,18.2L8.3,18.2z M9.1,17.1l-0.8,1.1l-2-1.9L9.1,17.1L9.1,17.1z"/>
<path class="st0" d="M8.3,18.2l-2-1.9l0.5,3.9L8.3,18.2z M6.3,16.3l2,1.9l-1.5,2.1C6.8,20.3,6.3,16.3,6.3,16.3z"/>
<path class="st0" d="M6.8,20.3L5.2,18l1.1-1.7L6.8,20.3z M6.8,20.2l-0.5-3.9l-1,1.7L6.8,20.2L6.8,20.2z"/>
<path class="st0" d="M5.3,18.1l0.5,2.9l1-0.7L5.3,18.1L5.3,18.1z M6.8,20.3l-1,0.7l-0.6-3L6.8,20.3C6.8,20.3,6.8,20.3,6.8,20.3z
	 M5.3,18.1l0.5,2.9l1-0.7L5.3,18.1L5.3,18.1z M6.8,20.3l-1,0.7l-0.6-3L6.8,20.3C6.8,20.3,6.8,20.3,6.8,20.3z M1.4,11.1l2,1.8l-2,2.9
	l-1.3-3.7L1.4,11.1L1.4,11.1z M0.1,12.2l1.3,3.6l1.9-2.9l-1.9-1.8L0.1,12.2L0.1,12.2z M3.3,13l-1.9,2.8L3,15.4C3,15.4,3.3,13,3.3,13
	z M3,15.4L3,15.4L3,15.4L3,15.4L3,15.4z M3,15.4l-1.6,0.4l2-2.9L3,15.4L3,15.4z"/>
<path class="st0" d="M3,15.4l0.3-2.5l0,0L5,13.2L3,15.4z M5,13.2l-1.7-0.3L3,15.4L5,13.2z"/>
<path class="st0" d="M3.3,12.9L5,13.2l-3.5-2L3.3,12.9L3.3,12.9z M5.1,13.2l-1.7-0.3l-2-1.8L5.1,13.2L5.1,13.2z"/>
<path class="st0" d="M2.1,10.9l2.3-0.2l2,0.7L5,13.2l-3.6-2.1L2.1,10.9L2.1,10.9z M2.1,10.9l-0.7,0.3L5,13.2l1.4-1.8l-2-0.7
	L2.1,10.9L2.1,10.9z"/>
<path class="st0" d="M1.4,11.1L1.2,7.8l1,3l0,0L1.4,11.1L1.4,11.1z M2.1,10.9L1.2,8l0.2,3.2L2.1,10.9z M15.6,17.1l-2.6,0.6L12,19.5
	L15.6,17.1z M12.9,17.7l2.7-0.7L12,19.5L12.9,17.7z"/>
<path class="st0" d="M12,19.5l3-0.3l0.6-2.1L12,19.5z M15,19.2L15,19.2L15,19.2C15,19.2,15,19.2,15,19.2z M15,19.2l-3,0.3l3.6-2.5
	L15,19.2z M6.5,13.2l1.3,2.5l0.4-1.4L6.5,13.2L6.5,13.2z M8.2,14.3l-0.4,1.4l-1.3-2.6L8.2,14.3C8.2,14.3,8.2,14.3,8.2,14.3z"/>
<path class="st0" d="M8.3,14.3l-1.8-1.2l-0.1-1.8L8.3,14.3L8.3,14.3z M6.4,11.4l0.1,1.7l1.7,1.1L6.4,11.4z"/>
<path class="st0" d="M6.5,13.1l-0.1-1.7L5,13.2L6.5,13.1L6.5,13.1z M6.4,11.4l0.1,1.7l0,0L5,13.2L6.4,11.4z"/>
<path class="st0" d="M4.4,10.7l2,0.7l0.1-0.6l0.2-1.2L4.4,10.7L4.4,10.7z M6.8,9.6L6.8,9.6L6.8,9.6z M6.8,9.6l-0.2,1.2l-0.1,0.6
	l-2-0.7L6.8,9.6L6.8,9.6L6.8,9.6z"/>
<path class="st0" d="M6.8,9.6L6.8,9.6L8,9.6l-1.6,1.9l0,0l0,0l0,0c-0.1,0.7-0.1,0.5,0,0.3l0.2-0.9l0,0l0,0L6.8,9.6L6.8,9.6z
	 M6.5,10.8L6.5,10.8L6.5,10.8c-0.2,1-0.2,1.2-0.3,1.4l0.1-0.8l1.5-1.8L6.8,9.6L6.5,10.8L6.5,10.8z"/>
<path class="st0" d="M7.9,9.6L7.1,8.4L6.8,9.6L7.9,9.6L7.9,9.6z M7.1,8.4L8,9.6L6.8,9.6C6.8,9.6,7.1,8.4,7.1,8.4z"/>
<path class="st0" d="M6.8,9.6l-2.4,1.1l2.7-2.3L6.8,9.6L6.8,9.6z M7.1,8.4l-2.6,2.3l2.3-1L7.1,8.4L7.1,8.4z"/>
<path class="st0" d="M4.4,10.7l2.7-2.3L7.6,6l-3.2,4.3L4.4,10.7z M7.6,5.9L7.6,5.9L7.1,8.4l-2.7,2.3l-0.1-0.5L7.6,5.9L7.6,5.9z"/>
<path class="st0" d="M8.1,6.4L8,9.6L7.1,8.4L7.6,6L8.1,6.4z M7.6,6L7.1,8.4l0.8,1.2l0.2-3.1C8.1,6.4,7.6,6,7.6,6z M8.1,6.4L7.6,6
	l2.8-0.8L8.1,6.4L8.1,6.4z M10.3,5.2L7.6,6l0.5,0.4L10.3,5.2L10.3,5.2z M6.5,15.2L6.5,15.2l0-2.1l1.3,2.6L6.5,15.2L6.5,15.2z
	 M7.8,15.6l-1.3-2.5v2L7.8,15.6L7.8,15.6z"/>
<path class="st0" d="M6.3,16.3l1.5-0.7l-1.3-0.5L6.3,16.3L6.3,16.3z M7.8,15.7l-1.5,0.7l0.2-1.2L7.8,15.7L7.8,15.7z"/>
<path class="st0" d="M9.1,17.1l-2.8-0.8l1.5-0.7l0,0L9.1,17.1L9.1,17.1z M7.8,15.7l-1.5,0.7L9,17.1L7.8,15.7L7.8,15.7z M4.3,10.2
	L7.6,6L5.2,6.8C5.2,6.8,4.3,10.2,4.3,10.2z M7.6,6l-3.3,4.3l0.9-3.5C5.2,6.8,7.6,6,7.6,6z"/>
<path class="st0" d="M5.2,6.8l-0.9,3.5L3.9,6.8H5.2L5.2,6.8z M3.9,6.8l0.4,3.4l0.8-3.4C5.2,6.8,3.9,6.8,3.9,6.8z"/>
<path class="st0" d="M3.1,7.1l1.3,3.5L3.9,6.8C3.9,6.8,3.1,7.1,3.1,7.1z M3,7.1l0.9-0.4l0.5,4L3,7.1C3,7.1,3,7.1,3,7.1z M3.5,5.6
	l3.1-2.3L7,4.1l0,0L3.5,5.6L3.5,5.6z M3.6,5.5L7,4.1L6.6,3.3L3.6,5.5L3.6,5.5z M5.2,6.8L5.1,4.9L3.9,6.8H5.2z M5.2,6.8H3.9l1.2-1.9
	L5.2,6.8L5.2,6.8L5.2,6.8z"/>
<path class="st0" d="M5.2,6.8L5.1,4.9L7.6,6L5.2,6.8z M5.2,6.8L7.6,6L5.1,4.9C5.1,4.9,5.2,6.8,5.2,6.8z"/>
<path class="st0" d="M5.1,4.9L7.6,6L6.9,4.1C6.9,4.1,5.1,4.9,5.1,4.9z M7,4.1L7.6,6L5.1,4.9L7,4.1L7,4.1z M7.8,0.7L6.6,3.3L7,4.1
	L7.8,0.7L7.8,0.7z M6.6,3.3l1.2-2.6l0,0L7,4.1L6.6,3.3L6.6,3.3z"/>
<path class="st0" d="M3.4,3.6l4.4-3L6.6,3.3C6.6,3.3,3.4,3.6,3.4,3.6z M6.6,3.3l1.2-2.6l-4.3,3L6.6,3.3z"/>
<path class="st0" d="M6.5,3.3L4.4,4.4L3.6,5.5L6.5,3.3L6.5,3.3z M3.5,5.5l0.9-1.1l2.2-1.2l0,0L3.5,5.5L3.5,5.5L3.5,5.5z"/>
<path class="st0" d="M6.6,3.3L3.4,3.6l1,0.8L6.6,3.3z M4.4,4.4l-1-0.8l3.3-0.4L4.4,4.4z"/>
<path class="st0" d="M3.5,5.6l-0.2-2l1,0.8l0,0L3.5,5.6z M4.4,4.4l-1-0.8l0.2,1.9C3.6,5.5,4.4,4.4,4.4,4.4z M16.1,2L15,4.2l-2.9-1.9
	L16.1,2L16.1,2z M16.1,2l-3.9,0.3l2.8,1.9L16.1,2z"/>
<path class="st0" d="M16.2,0.8L11,1.2l1.1,1.1l4-0.3C16.1,2,16.2,0.8,16.2,0.8z M16.1,2L16.1,2l-4,0.3L11,1.2l5.3-0.4L16.1,2L16.1,2
	z"/>
<path class="st0" d="M16.3,0.8l-5.3,0.4l2-1.1L16.3,0.8L16.3,0.8z M13,0.1l-2,1.1l5.2-0.4C16.2,0.8,13,0.1,13,0.1z M17.8,5.9
	l-3.3,0.7L17,4C17,4,17.8,5.9,17.8,5.9z M17,4.1l-2.4,2.5l3.2-0.7L17,4.1L17,4.1z M15,4.2l-1.1,0.7l-2.1-0.4l0,0l0.3-2.3L15,4.2z
	 M12.1,2.3l-0.3,2.2l2,0.4l1.1-0.7L12.1,2.3L12.1,2.3z"/>
<path class="st0" d="M14.5,6.6l2.4-5.1L17,4L14.5,6.6z M17,4l-0.1-2.4l-2.3,4.9L17,4z"/>
<path class="st0" d="M16.9,1.6L16.1,2L15,4.2l-0.4,2.3L16.9,1.6z M14.6,6.6l0.4-2.4L16.1,2l0.9-0.4L14.6,6.6
	C14.5,6.7,14.6,6.6,14.6,6.6z"/>
<path class="st0" d="M15,4.2l-0.4,2.4l-0.7-1.7l0,0L15,4.2L15,4.2z M13.9,4.9l0.7,1.6l0.4-2.3L13.9,4.9z M11.8,4.6L8.7,4.2l1.6,0.9
	L11.8,4.6z M8.7,4.2l3.2,0.4l-1.5,0.6L8.7,4.2L8.7,4.2z"/>
<path class="st0" d="M10.3,5.2L7.6,6l1.1-1.8l0,0L10.3,5.2L10.3,5.2z M8.7,4.2L7.6,6l2.7-0.8L8.7,4.2L8.7,4.2z M7.6,6L6.9,4.1L8.2,3
	l0.5,1.3L7.6,6L7.6,6z M8.7,4.2L8.2,3L7,4.1L7.6,6C7.6,6,8.7,4.2,8.7,4.2z M18.3,5.1l-1.2-1l0.7,1.8L18.3,5.1L18.3,5.1z M17,4
	l1.3,1.1l0,0l-0.5,0.8C17.8,5.9,17,4,17,4z"/>
<path class="st0" d="M19,3.9L17,4l1.3,1L19,3.9z M17,4l2-0.2l-0.7,1.3L17,4L17,4z"/>
<path class="st0" d="M17.8,1.9l-0.9-0.3L17,4C17,4,17.8,1.9,17.8,1.9z M17.8,1.9L17,4.1l-0.1-2.5L17.8,1.9L17.8,1.9L17.8,1.9z"/>
<path class="st0" d="M17.8,1.8l1.2,2L17,4C17,4,17.8,1.8,17.8,1.8z M17,4l2-0.2l-1.2-2L17,4z M17.8,1.9L17.8,1.9l-0.9-0.3l-0.8-0.9
	C16.2,0.7,17.8,1.9,17.8,1.9z M16.3,0.8l0.7,0.8l0.8,0.2C17.8,1.8,16.3,0.8,16.3,0.8z"/>
<path class="st0" d="M16.9,1.6l-0.7-0.8L16.1,2L16.9,1.6L16.9,1.6z M16.2,0.8l0.7,0.8L16.1,2C16.1,2,16.2,0.8,16.2,0.8z M8.3,3
	l0.5,1.2l3.1,0.3l-1.2-2L8.3,3L8.3,3z M11.8,4.6L8.7,4.2L8.2,3l2.3-0.4L11.8,4.6L11.8,4.6z"/>
<path class="st0" d="M10.6,2.6L11,1.2l1.1,1.2l-0.3,2.3L10.6,2.6L10.6,2.6z M11.8,4.6l0.3-2.2L11,1.2l-0.4,1.4
	C10.6,2.6,11.8,4.6,11.8,4.6z"/>
<path class="st0" d="M11,1.2L8.6,1.9L8.3,3l2.3-0.4C10.6,2.6,11,1.2,11,1.2z M10.6,2.6L8.2,3l0.4-1.1l0,0L11,1.2L10.6,2.6L10.6,2.6
	L10.6,2.6z"/>
<path class="st0" d="M7.8,0.6L11,1.2L8.6,1.9l0,0C8.6,1.9,7.8,0.6,7.8,0.6z M8.6,1.9l2.3-0.7L7.8,0.6L8.6,1.9L8.6,1.9z"/>
<path class="st0" d="M7.8,0.7L8.2,3l0.4-1.1L7.8,0.7L7.8,0.7z M8.6,1.9L8.2,3L7.8,0.6C7.8,0.6,8.6,1.9,8.6,1.9z"/>
<path class="st0" d="M7.8,0.6L8.2,3L6.9,4.1C6.9,4.1,7.8,0.6,7.8,0.6z M7.8,0.7L7,4.1l1.3-1L7.8,0.7L7.8,0.7z M16.4,16.4l0.1,1.8
	l2.9,2.3l-1-3.8C18.4,16.7,16.4,16.4,16.4,16.4z M19.4,20.6l-2.9-2.3l-0.1-1.8l2,0.3L19.4,20.6L19.4,20.6z"/>
<path class="st0" d="M15.6,17l0.8-0.6l0.1,1.8l0,0L15,19.2L15.6,17z M15,19.2l1.5-0.9l-0.1-1.8l-0.8,0.6L15,19.2L15,19.2z"/>
<path class="st0" d="M15,19.2l1.5-0.9l3,2.3C19.5,20.6,15,19.2,15,19.2z M19.4,20.5l-2.9-2.3L15,19.2C15,19.2,19.4,20.5,19.4,20.5z
	 M18.5,16.7l-2.1-0.3l0.1-0.5L18.5,16.7z M16.5,16l-0.1,0.4l2,0.3L16.5,16L16.5,16z"/>
<path class="st0" d="M16.4,16.4l0.1-0.4l-0.9,1L16.4,16.4z M16.5,15.9L16.5,15.9l-0.1,0.5l-0.9,0.7L16.5,15.9L16.5,15.9z"/>
</svg>
