<?xml version="1.0" encoding="utf-8"?>
<!-- Generator: Adobe Illustrator 21.1.0, SVG Export Plug-In . SVG Version: 6.00 Build 0)  -->
<svg version="1.1" id="Layer_1" xmlns="http://www.w3.org/2000/svg" xmlns:xlink="http://www.w3.org/1999/xlink" x="0px" y="0px"
	 viewBox="0 0 20.799 24" style="enable-background:new 0 0 20.799 24;" xml:space="preserve">
<style type="text/css">
	.st0{fill:#3BC988;}
</style>
<g>
	<path class="st0" d="M0.004,1.413v9.149c0,0.311,0.249,0.564,0.556,0.564l4.09-0.02c0.425,0,0.691-0.47,0.478-0.846L4.597,9.324
		C4.368,8.919,3.857,8.78,3.461,9.013L3.404,9.046C3.011,9.279,2.509,9.14,2.28,8.739C2.162,8.531,2.137,8.282,2.211,8.057
		l0.85-2.595c0.135-0.405,0.543-0.646,0.956-0.56l2.635,0.543c0.229,0.049,0.429,0.192,0.548,0.4c0.229,0.4,0.094,0.911-0.302,1.14
		L6.84,7.019C6.444,7.252,6.305,7.771,6.538,8.175l0.523,0.919c0.213,0.376,0.744,0.376,0.96,0.004l2.047-3.571
		c0.155-0.27,0.065-0.617-0.2-0.772L2.084,0.191C1.16-0.352,0.004,0.326,0.004,1.413z"/>
	<path class="st0" d="M20.107,10.786L12.319,6.21c-0.266-0.155-0.605-0.061-0.76,0.208l-2.031,3.616
		c-0.212,0.376,0.057,0.846,0.482,0.846h1.336c0.306,0,0.556-0.253,0.556-0.564V9.695c0-0.31,0.249-0.564,0.556-0.564h0.388
		c0.159,0,0.311,0.069,0.417,0.192l2.023,2.325c0.184,0.212,0.184,0.535,0,0.748l-2.023,2.329c-0.106,0.123-0.257,0.192-0.417,0.192
		h-0.388c-0.306,0-0.556-0.253-0.556-0.564v-0.625c0-0.311-0.249-0.564-0.556-0.564h-1.324c-0.425,0-0.691,0.466-0.482,0.846
		l2.014,3.588c0.151,0.27,0.49,0.364,0.76,0.208l7.788-4.576C21.031,12.686,21.031,11.33,20.107,10.786z"/>
	<path d="M2.08,23.809l7.788-4.576c0.266-0.155,0.355-0.503,0.2-0.772l-2.063-3.596c-0.212-0.376-0.748-0.372-0.96,0.004
		l-0.67,1.181c-0.151,0.27-0.061,0.613,0.204,0.772l0.527,0.31c0.266,0.155,0.355,0.503,0.204,0.772l-0.192,0.343
		c-0.078,0.139-0.212,0.237-0.368,0.27L3.759,19.13c-0.274,0.057-0.548-0.102-0.637-0.372l-0.968-2.946
		c-0.049-0.155-0.033-0.323,0.045-0.462l0.192-0.343c0.151-0.27,0.49-0.364,0.756-0.208l0.531,0.31
		c0.266,0.155,0.605,0.061,0.756-0.208l0.662-1.165c0.212-0.376-0.053-0.846-0.478-0.846l-4.061-0.02
		C0.249,12.874,0,13.128,0,13.438v9.149C0,23.674,1.156,24.352,2.08,23.809z"/>
</g>
</svg>
