<svg width="9" height="12" viewBox="0 0 9 12" fill="none" xmlns="http://www.w3.org/2000/svg">
    <path fill-rule="evenodd" clip-rule="evenodd"
          d="M0.44387 8.61941C0.16845 8.45101 0 8.15101 0 7.82891V6.03011C0 5.96121 0.0184503 5.8948 0.0528703 5.8358C0.15984 5.6514 0.39714 5.58871 0.58157 5.69691L4.64146 8.06371C4.87876 8.20261 5.02516 8.45591 5.02516 8.73131V10.5953C5.02516 10.6801 5.00176 10.7649 4.95746 10.8375C4.82346 11.0563 4.53826 11.1252 4.31936 10.9912L0.44387 8.61941ZM6.49566 5.20386C6.73296 5.3428 6.87926 5.59611 6.87926 5.87151V9.65351C6.87926 9.76541 6.81896 9.86861 6.72186 9.92271L5.83296 10.4231C5.82186 10.4293 5.80956 10.4342 5.79726 10.4379V8.3379C5.79726 8.0662 5.65466 7.81411 5.42106 7.67391L1.85537 5.54071V3.17024C1.85537 3.10139 1.87382 3.035 1.90824 2.97598C2.01521 2.79155 2.25251 2.72885 2.43694 2.83704L6.49566 5.20386ZM8.27236 2.4104C8.51086 2.54811 8.65716 2.80385 8.65716 3.07926V8.60351C8.65716 8.71661 8.59446 8.82111 8.49486 8.87521L7.65266 9.3301V5.48421C7.65266 5.21247 7.50996 4.96165 7.27766 4.82148L3.63328 2.6354V0.386615C3.63328 0.317765 3.65172 0.251365 3.68492 0.192355C3.79189 0.00792521 4.02919 -0.0547749 4.21362 0.0521851L8.27236 2.4104Z"
          fill="black"/>
</svg>
