<?xml version="1.0" encoding="utf-8"?>
<!-- Generator: Adobe Illustrator 21.1.0, SVG Export Plug-In . SVG Version: 6.00 Build 0)  -->
<svg version="1.1" id="Layer_1" xmlns="http://www.w3.org/2000/svg" xmlns:xlink="http://www.w3.org/1999/xlink" x="0px" y="0px"
	 viewBox="0 0 24 24" style="enable-background:new 0 0 24 24;" xml:space="preserve">
<style type="text/css">
	.st0{fill:#FFD800;}
	.st1{fill:#FFFFFF;}
</style>
<g>
	<circle class="st0" cx="12" cy="12" r="12"/>
	<path class="st1" d="M17.8,9.7c0,0,0.1,0,0.2,0c1.3,0,2.3,1.1,2.3,2.4c0,1.2-0.9,2.1-2,2.4H18c-0.4,0-0.8-0.1-1.2-0.3
		c-0.1-0.1-0.3-0.1-0.4-0.1c-0.2,0-0.3,0-0.5,0.1c-0.3,0.2-0.4,0.5-0.4,0.8v0.4c-0.1,1.1-0.9,2-2,2.1h-0.3c-0.4,0-0.8-0.1-1.2-0.3
		c-0.2-0.1-0.3-0.1-0.5-0.1c-0.2,0-0.3,0-0.5,0.1c-0.3,0.2-0.4,0.5-0.4,0.8v0.4c-0.1,1.1-1,2-2.1,2.1H8.3c-1.3,0-2.3-1.1-2.3-2.4
		c0-1.2,0.9-2.2,2-2.3h0.3c0.4,0,0.8,0.1,1.2,0.3C9.7,16,9.8,16.1,10,16c0.2,0,0.3,0,0.5-0.1c0.3-0.2,0.4-0.5,0.4-0.8
		c-0.1-1.2,0.8-2.4,2-2.5h0.3c0.4,0,0.8,0.1,1.2,0.3c0.2,0.1,0.3,0.1,0.5,0.1c0.2,0,0.3,0,0.5-0.1c0.3-0.2,0.4-0.5,0.4-0.8
		C15.6,10.9,16.5,9.8,17.8,9.7z M12.9,6.7c0.1,0,0.1,0,0.3,0c1.3,0,2.3,1.1,2.3,2.4c0,1.2-0.9,2.2-2,2.3h-0.3
		c-0.4,0-0.8-0.1-1.2-0.3c-0.1-0.1-0.3-0.1-0.4-0.1c-0.2,0-0.3,0-0.5,0.1c-0.3,0.2-0.4,0.5-0.4,0.8v0.4c-0.1,1.1-1,2-2.1,2.1H8.4
		c-1.3,0-2.3-1.1-2.3-2.4c0-1.2,0.8-2.1,2-2.3h0.3c0.4,0,0.8,0.1,1.2,0.3c0.1,0.1,0.3,0.1,0.4,0.1c0.2,0,0.3,0,0.5-0.1
		c0.3-0.2,0.4-0.5,0.4-0.8C10.8,8,11.7,6.8,12.9,6.7z M8.3,3.8c1.3,0,2.3,1,2.3,2.3s-1,2.3-2.3,2.3C7,8.4,6,7.3,6,6.1S7,3.8,8.3,3.8
		z"/>
</g>
</svg>
