<svg width="71" height="72" viewBox="0 0 71 72" fill="none" xmlns="http://www.w3.org/2000/svg">
<path d="M47.2106 34.5926L32.4677 23.7247C31.9267 23.3269 31.2084 23.267 30.6154 23.5761C30.0176 23.8828 29.6443 24.5057 29.6443 25.179V46.9076C29.6443 47.5881 30.0176 48.2086 30.6154 48.5153C30.8682 48.6447 31.1446 48.7094 31.4234 48.7094C31.7873 48.7094 32.1558 48.592 32.4677 48.3596L47.2106 37.5012C47.6761 37.1538 47.9478 36.6171 47.9478 36.0469C47.9502 35.4671 47.6714 34.9328 47.2106 34.5926Z" fill="white" fill-opacity="0.3"/>
<path d="M35.5012 0.00488281C15.8912 0.00488281 0 16.1199 0 36.0061C0 55.8851 15.8912 71.9953 35.5012 71.9953C55.1065 71.9953 71 55.8827 71 36.0061C71.0024 16.1199 55.1065 0.00488281 35.5012 0.00488281ZM35.5012 65.9887C19.1705 65.9887 5.93025 52.5691 5.93025 36.0061C5.93025 19.4502 19.1705 6.01387 35.5012 6.01387C51.8295 6.01387 65.0674 19.4478 65.0674 36.0061C65.0697 52.5691 51.8295 65.9887 35.5012 65.9887Z" fill="white" fill-opacity="0.3"/>
</svg>
