<svg width="40" height="40" viewBox="0 0 40 40" fill="none" xmlns="http://www.w3.org/2000/svg">
<path d="M5.12 39.68C3.08 36.4 1.7 33 0.98 29.48C0.3 25.96 0.26 22.5 0.86 19.1C1.46 15.66 2.7 12.36 4.58 9.2C6.5 6.04 9.06 3.2 12.26 0.679998L17.42 3.79999C17.9 4.07999 18.22 4.39999 18.38 4.76C18.58 5.11999 18.66 5.49999 18.62 5.9C18.62 6.26 18.54 6.61999 18.38 6.97999C18.22 7.33999 18.02 7.64 17.78 7.88C17.02 8.76 16.24 10 15.44 11.6C14.68 13.16 14.12 14.96 13.76 17C13.44 19 13.46 21.18 13.82 23.54C14.18 25.9 15.12 28.28 16.64 30.68C17.44 31.92 17.66 33.02 17.3 33.98C16.94 34.9 16.2 35.54 15.08 35.9L5.12 39.68ZM25.76 39.68C23.72 36.4 22.34 33 21.62 29.48C20.94 25.96 20.9 22.5 21.5 19.1C22.1 15.66 23.34 12.36 25.22 9.2C27.14 6.04 29.7 3.2 32.9 0.679998L38.06 3.79999C38.54 4.07999 38.86 4.39999 39.02 4.76C39.22 5.11999 39.3 5.49999 39.26 5.9C39.26 6.26 39.18 6.61999 39.02 6.97999C38.86 7.33999 38.66 7.64 38.42 7.88C37.66 8.76 36.88 10 36.08 11.6C35.32 13.16 34.76 14.96 34.4 17C34.08 19 34.1 21.18 34.46 23.54C34.82 25.9 35.76 28.28 37.28 30.68C38.08 31.92 38.3 33.02 37.94 33.98C37.58 34.9 36.84 35.54 35.72 35.9L25.76 39.68Z" fill="#E50006"/>
</svg>
