<?xml version="1.0" encoding="utf-8"?>
<!-- Generator: Adobe Illustrator 21.1.0, SVG Export Plug-In . SVG Version: 6.00 Build 0)  -->
<svg version="1.1" id="Layer_1" xmlns="http://www.w3.org/2000/svg" xmlns:xlink="http://www.w3.org/1999/xlink" x="0px" y="0px"
	 viewBox="0 0 24 23.6" style="enable-background:new 0 0 24 23.6;" xml:space="preserve">
<style type="text/css">
	.st0{fill:#2E9F2B;}
</style>
<g>
	<path class="st0" d="M2.674,13.85c0-1.5,0.283-2.908,0.85-4.225c0.567-1.317,1.342-2.467,2.325-3.45s2.133-1.758,3.45-2.325
		s2.725-0.851,4.225-0.85c1.25,0,2.442,0.2,3.575,0.601c1.134,0.417,2.159,0.983,3.075,1.7s1.708,1.567,2.375,2.55
		c0.65,1,1.133,2.075,1.45,3.225c-0.117-1.55-0.517-3-1.2-4.35c-0.667-1.35-1.538-2.521-2.612-3.513S17.884,1.433,16.5,0.85
		C15.1,0.283,13.617,0,12.05,0c-1.667,0-3.233,0.317-4.7,0.95C5.9,1.584,4.63,2.442,3.538,3.525S1.584,5.883,0.95,7.35
		C0.317,8.8,0,10.35,0,12c0,1.383,0.217,2.7,0.65,3.95c0.45,1.233,1.067,2.358,1.85,3.375c0.783,1.017,1.708,1.892,2.775,2.625
		c1.083,0.733,2.258,1.283,3.525,1.65c-0.917-0.433-1.75-0.991-2.5-1.675c-0.75-0.667-1.392-1.421-1.925-2.262
		s-0.95-1.754-1.25-2.737c-0.3-0.983-0.45-2.009-0.45-3.075L2.674,13.85z M13.524,5.799c-1.116,0-2.158,0.208-3.125,0.625
		C9.415,6.858,8.561,7.437,7.837,8.162S6.533,9.733,6.099,10.7c-0.417,0.983-0.625,2.033-0.625,3.15
		c0,0.417,0.029,0.825,0.087,1.225s0.154,0.791,0.288,1.175V16c0-1.116,0.208-2.158,0.625-3.125
		c0.417-0.983,0.987-1.838,1.712-2.562c0.725-0.725,1.579-1.295,2.562-1.712c0.983-0.433,2.025-0.65,3.125-0.65
		c0.9,0,1.759,0.142,2.575,0.425s1.562,0.679,2.238,1.187s1.263,1.113,1.762,1.812c0.484,0.683,0.85,1.442,1.1,2.275
		c-0.016-1.1-0.241-2.133-0.675-3.1c-0.433-0.95-1.012-1.779-1.738-2.487C18.411,7.355,17.565,6.8,16.598,6.4
		c-0.966-0.4-1.991-0.601-3.075-0.601l0,0L13.524,5.799z"/>
	<path d="M15.999,16.674v-0.075c0.2-0.033,0.387-0.104,0.562-0.212c0.175-0.108,0.321-0.254,0.437-0.437
		c0.117-0.166,0.204-0.362,0.262-0.588c0.058-0.225,0.087-0.463,0.087-0.713c0-0.4-0.071-0.742-0.212-1.025
		c-0.142-0.283-0.362-0.516-0.662-0.7c-0.283-0.183-0.658-0.325-1.125-0.425c-0.467-0.1-1.025-0.15-1.675-0.15h-2.8v9.05h3.375
		c0.5,0,0.954-0.058,1.362-0.175c0.408-0.117,0.762-0.283,1.062-0.5c0.3-0.25,0.521-0.534,0.662-0.85
		c0.142-0.316,0.212-0.675,0.212-1.075c0-0.283-0.029-0.542-0.087-0.775c-0.058-0.234-0.146-0.442-0.262-0.625
		c-0.1-0.183-0.25-0.334-0.45-0.45c-0.2-0.117-0.45-0.208-0.75-0.275l0,0L15.999,16.674z M12.849,13.95h1.001
		c0.267,0,0.5,0.021,0.7,0.063c0.2,0.042,0.367,0.105,0.5,0.188c0.117,0.083,0.204,0.187,0.262,0.313
		c0.058,0.125,0.087,0.271,0.087,0.437c0,0.183-0.029,0.346-0.087,0.487c-0.058,0.142-0.146,0.246-0.262,0.313
		c-0.134,0.083-0.292,0.146-0.475,0.188c-0.183,0.042-0.399,0.063-0.65,0.063H12.8v-2.05h0.05L12.849,13.95z M15.274,19.524
		c-0.117,0.1-0.275,0.18-0.475,0.238c-0.2,0.058-0.425,0.087-0.675,0.087h-1.25v-2.375h1.2c0.55,0,0.954,0.092,1.213,0.275
		c0.259,0.183,0.388,0.467,0.387,0.85c-0.016,0.217-0.058,0.4-0.125,0.55c-0.067,0.15-0.159,0.275-0.275,0.375l0,0V19.524z"/>
</g>
</svg>
