<?xml version="1.0" encoding="utf-8"?>
<!-- Generator: Adobe Illustrator 21.1.0, SVG Export Plug-In . SVG Version: 6.00 Build 0)  -->
<svg version="1.1" id="Layer_1" xmlns="http://www.w3.org/2000/svg" xmlns:xlink="http://www.w3.org/1999/xlink" x="0px" y="0px"
	 viewBox="0 0 24.5 24" style="enable-background:new 0 0 24.5 24;" xml:space="preserve">
<style type="text/css">
	.st0{fill:#2B5EBA;}
</style>
<circle class="st0" cx="19.3" cy="12" r="5.1"/>
<circle class="st0" cx="12.9" cy="2.5" r="2.5"/>
<circle class="st0" cx="12.9" cy="21.5" r="2.5"/>
<path class="st0" d="M11.7,15.7c0.1,0,0.3,0.1,0.5,0.1c0.9,0,1.5-0.7,1.5-1.5c0-0.9-0.7-1.5-1.5-1.5c-0.5,0-1,0.3-1.3,0.7v0
	c0,0.1-0.1,0.1-0.1,0.2c-1.7,3-5.1,1-5.1,1c-0.6-0.3-1.2-0.5-1.9-0.5c-2.1,0-3.7,1.7-3.7,3.7s1.7,3.7,3.7,3.7c1.4,0,2.7-0.8,3.3-2v0
	c0.1-0.2,0.2-0.4,0.3-0.7C9.1,14.8,11.7,15.7,11.7,15.7L11.7,15.7z M10.9,10.2c0.1,0.1,0.2,0.3,0.3,0.4c0.6,0.6,1.6,0.6,2.2,0
	c0.6-0.6,0.6-1.6,0-2.2C12.9,8,12.4,7.9,11.9,8h0c-0.1,0-0.2,0-0.2,0.1C8.3,9,7.3,5.2,7.3,5.2c-0.2-0.6-0.5-1.2-1-1.7
	C4.9,2,2.5,2,1.1,3.4s-1.5,3.8,0,5.3c1,1,2.5,1.3,3.8,0.9h0c0.2-0.1,0.4-0.2,0.7-0.3C9.7,7.7,10.9,10.2,10.9,10.2z"/>
</svg>
