<?xml version="1.0" encoding="utf-8"?>
<!-- Generator: Adobe Illustrator 21.1.0, SVG Export Plug-In . SVG Version: 6.00 Build 0)  -->
<svg version="1.1" id="Layer_1" xmlns="http://www.w3.org/2000/svg" xmlns:xlink="http://www.w3.org/1999/xlink" x="0px" y="0px"
	 viewBox="0 0 21.6 24" style="enable-background:new 0 0 21.6 24;" xml:space="preserve">
<style type="text/css">
	.st0{fill:#0092B5;}
</style>
<path class="st0" d="M5.712,9.122l5.138-9.046c0.01-0.017,0.029-0.028,0.096,0l4.889,8.881c-0.501,0.409-0.576,1.147-0.167,1.648
	c0.058,0.071,0.124,0.135,0.197,0.19l-4.516,8.146c-0.326-0.156-0.704-0.159-1.032-0.007L5.67,10.656
	c0.396-0.429,0.413-1.084,0.041-1.534L5.712,9.122z M5.22,10.963l4.666,8.31c-0.101,0.126-0.174,0.271-0.216,0.427
	c-3.767-0.902-6.107-1.46-7.022-1.675C2.26,17.481,1.921,16.903,1.634,16.3l2.99-5.263c0.201,0.026,0.406,0.001,0.595-0.072V10.963z
	 M4.573,8.704l-3.704-6.6C3.393,0.763,6.526,0.06,10.27,0L5.276,8.791C5.056,8.692,4.811,8.662,4.573,8.704z M4.069,8.915
	c-0.525,0.379-0.644,1.112-0.265,1.637c0.083,0.115,0.187,0.215,0.305,0.293L1.362,15.68c-0.457-1.131-0.728-2.328-0.804-3.545
	L0.002,3.277C-0.019,2.931,0.13,2.596,0.4,2.38L4.069,8.915z M11.989,19.712c-0.04-0.155-0.112-0.3-0.21-0.426l4.582-8.264
	c0.198,0.04,0.402,0.03,0.595-0.029l2.969,5.393c-0.252,0.518-0.542,1.018-0.869,1.494L11.989,19.712z M11.1,21.152
	c0.444-0.1,0.791-0.444,0.896-0.887l6.547-1.698c-0.791,0.984-1.738,1.832-2.803,2.51l-4.348,2.777
	c-0.091,0.058-0.189,0.103-0.293,0.132V21.152z M10.555,21.152V24c-0.124-0.028-0.241-0.077-0.348-0.145l-4.348-2.777
	c-1.017-0.648-1.926-1.45-2.695-2.378c1.188,0.282,3.352,0.798,6.491,1.549c0.096,0.448,0.449,0.802,0.9,0.905V21.152z
	 M16.999,8.752c-0.218-0.075-0.453-0.087-0.677-0.034l-4.796-8.714c3.638,0.08,6.696,0.775,9.169,2.082L16.999,8.752z M17.458,9.041
	l3.708-6.686c0.291,0.215,0.453,0.562,0.432,0.923l-0.556,8.86c-0.078,1.248-0.362,2.474-0.84,3.63l-2.777-5.044
	c0.473-0.439,0.501-1.179,0.062-1.652C17.478,9.061,17.468,9.051,17.458,9.041z M10.8,5.681c-0.353,0.006-0.639,0.288-0.649,0.641
	v2.345L6.687,10.8l0.371,0.8l3.092-1.013v2.345l-0.866,0.64v0.64l1.516-0.427l1.516,0.426v-0.64l-0.866-0.64v-2.345l3.04,1.068
	l0.424-0.854l-3.463-2.134V6.322c-0.011-0.352-0.296-0.633-0.648-0.64L10.8,5.681z"/>
</svg>
