<?xml version="1.0" encoding="utf-8"?>
<!-- Generator: Adobe Illustrator 21.1.0, SVG Export Plug-In . SVG Version: 6.00 Build 0)  -->
<svg version="1.1" id="Layer_1" xmlns="http://www.w3.org/2000/svg" xmlns:xlink="http://www.w3.org/1999/xlink" x="0px" y="0px"
	 viewBox="0 0 21.4 24.1" style="enable-background:new 0 0 21.4 24.1;" xml:space="preserve">
<style type="text/css">
	.st0{fill:#C9132A;stroke:#E31E24;stroke-width:0.1277;stroke-linecap:round;stroke-linejoin:round;stroke-miterlimit:22.9256;}
	.st1{fill:#FFFFFF;}
</style>
<path class="st0" d="M11.6,0.3l8.8,5.1C21,5.7,21.3,6.3,21.3,7v10.1c0,0.7-0.3,1.3-0.9,1.6l-8.8,5.1c-0.6,0.3-1.3,0.3-1.9,0L1,18.7
	c-0.6-0.3-0.9-0.9-0.9-1.6V7c0-0.7,0.3-1.3,0.9-1.6l8.8-5.1C10.4,0,11,0,11.6,0.3z"/>
<path class="st1" d="M9.8,17.9c1.1-1,1.3-2.5,0.5-4.7H14v-2H9.6c-0.5-1.1-0.7-2-0.7-2.6c0-1.6,1.2-2.5,3.1-2.5
	c1.2,0,2.4,0.2,3.7,0.7V4.4l-0.6-0.2C14.7,4.1,14.5,4,14.4,4l-0.6-0.1c-0.6-0.1-1.1-0.2-1.8-0.2c-3.7,0-6,1.7-6,4.8
	c0,0.8,0.2,1.7,0.6,2.7H5.1v2h2.4c0.4,1,0.6,1.8,0.6,2.4c0,1.5-1.2,2.2-3.2,2.2v2.5h11.5v-2.5H9.8z"/>
</svg>
