<?xml version="1.0" encoding="utf-8"?>
<!-- Generator: Adobe Illustrator 21.1.0, SVG Export Plug-In . SVG Version: 6.00 Build 0)  -->
<svg version="1.1" id="Layer_1" xmlns="http://www.w3.org/2000/svg" xmlns:xlink="http://www.w3.org/1999/xlink" x="0px" y="0px"
	 viewBox="0 0 18.1 28" style="enable-background:new 0 0 18.1 28;" xml:space="preserve">
<style type="text/css">
	.st0{fill:#282E5B;}
	.st1{fill:#059BDC;}
</style>
<path class="st0" d="M11.9,8.6c0-4-1.9-7.5-3.4-8.6c0,0-0.1-0.1-0.1,0.1C8.3,7.9,4.3,10,2.2,12.8c-5,6.5-0.3,13.7,4.4,15
	c2.7,0.7-0.6-1.3-1-5.6C5,17,11.9,13,11.9,8.6"/>
<path class="st1" d="M14.5,11.3c0,0-0.1,0-0.1,0c0,0,0,0,0,0c-0.1,1-1.2,3.1-2.5,5c-4.5,6.5-2,9.6-0.5,11.3c0.8,1,0,0,2.1-1
	c0.2-0.1,4.1-2.2,4.5-6.9C18.5,15,15.6,12.1,14.5,11.3"/>
</svg>
