<svg width="512" height="512" fill="none" xmlns="http://www.w3.org/2000/svg"><path d="M504 352v32c0 6.365-2.529 12.47-7.029 16.971A24.005 24.005 0 01480 408H168a24.005 24.005 0 01-16.971-7.029A24.005 24.005 0 01144 384v-32c0-6.365 2.529-12.47 7.029-16.971A24.005 24.005 0 01168 328h312c6.365 0 12.47 2.529 16.971 7.029A24.005 24.005 0 01504 352zm-81.6 72l50.96 76.4a8 8 0 0014.64-5.68L476.08 424H422.4zm-250.48 0L160 494.72a7.998 7.998 0 0014.56 5.68L225.6 424h-53.68z" fill="#EBEBEB"/><path d="M344 126.24v-.96a117.276 117.276 0 00-72.399-108.353A117.28 117.28 0 00226.72 8h-37.44A117.278 117.278 0 0072 125.28v.96c0 30.48 10.16 45.28 29.44 107.36a40.002 40.002 0 001.28 77.2L88 398.72a7.998 7.998 0 004.995 8.697 7.997 7.997 0 009.565-3.017l61.68-92.4h87.52l61.6 92.4a8 8 0 0014.64-5.68l-14.64-88a40.003 40.003 0 0022.341-62.546 40.008 40.008 0 00-21.061-14.654c19.28-62.16 29.36-76.8 29.36-107.28zM216 24a110.48 110.48 0 0160.88 13.36L249.04 232H216V24zm-16 0v208h-33.04L139.12 37.36A109.92 109.92 0 01200 24zM88 126.24a102.16 102.16 0 0136.4-78.72L150.8 232h-33.04C96 163.36 88 152.88 88 126.24zm22 238.32l8.8-52.56h26.24L110 364.56zM270.96 312h26.24l8.8 52.56L270.96 312zM328 272c0 6.365-2.529 12.47-7.029 16.971A24.005 24.005 0 01304 296H112a24.002 24.002 0 010-48h192c6.365 0 12.47 2.529 16.971 7.029A24.005 24.005 0 01328 272zm0-145.76c0 26.64-8 37.6-29.76 105.76H265.2l26.4-184.48a100.643 100.643 0 0136.4 78.72z" fill="#7B9600"/></svg>