<svg xmlns="http://www.w3.org/2000/svg" width="150" height="50"><g fill="none" fill-rule="evenodd"><path fill="#009848" d="M0 50h150V0H0z"/><path fill="#FFF" d="M13.633 4.564h-1.487v6.06c0 2.33-1.312 3.044-2.961 3.044-1.995 0-2.962-1.042-2.962-3.044v-6.06H4.738v6.348c0 2.816 1.938 4.119 4.447 4.119 2.826 0 4.448-1.579 4.448-4.119V4.564zm10.823 0h-1.395v7.998l-6.213-7.998h-1.249v10.331h1.395V6.943l6.162 7.952h1.3zm2.386 10.331h1.486V4.563h-1.486zM37.151 4.564h-7.43v1.28h3.035v9.051h1.483V5.844h2.912zm7.252 0h-5.862v10.331h5.999v-1.28h-4.514v-3.396h4.227V8.938h-4.227V5.844h4.377zm3.474 9.05v-7.77h1.757c2.819 0 4.175 1.81 4.175 3.885 0 2.182-1.472 3.886-4.175 3.886h-1.757zm1.969-9.051h-3.452v10.332h3.452c3.624 0 5.493-2.525 5.493-5.166 0-2.438-1.674-5.166-5.493-5.166zm33.905.001h-1.484v10.331h5.757v-1.28h-4.273zm18.294 4.59V5.82h1.511c1.414 0 2.03.697 2.03 1.667 0 .867-.507 1.667-2.03 1.667h-1.511zm1.677-4.59h-3.16v10.331h1.483v-4.484h1.846l2.817 4.484h1.772c-.712-.984-3.095-4.856-3.095-4.856.245-.098 1.731-.614 1.731-2.581 0-1.79-1.302-2.895-3.394-2.895zM65.64 4.426c-3.288 0-5.666 2.303-5.666 5.455 0 2.163 1.696 5.15 5.575 5.15 1.786 0 2.855-.373 2.958-.407v-1.48c-.09.037-1.198.523-2.823.523-2.484 0-4.18-1.606-4.18-3.924 0-2.272 1.757-3.954 4.12-3.954 1.415 0 2.774.562 2.883.607V4.911c-.094-.032-1.343-.484-2.867-.484m9.235 9.246a3.927 3.927 0 0 1-3.944-3.944 3.927 3.927 0 0 1 3.944-3.943 3.925 3.925 0 0 1 3.944 3.943 3.926 3.926 0 0 1-3.944 3.944m0-9.244c-3.044 0-5.46 2.373-5.46 5.3 0 2.929 2.415 5.3 5.46 5.3 3.043 0 5.46-2.371 5.46-5.3 0-2.927-2.417-5.3-5.46-5.3m18.543 9.244a3.924 3.924 0 0 1-3.941-3.944 3.923 3.923 0 0 1 3.941-3.943 3.924 3.924 0 0 1 3.943 3.943 3.925 3.925 0 0 1-3.943 3.944m0-9.244c-3.041 0-5.459 2.373-5.459 5.3 0 2.929 2.418 5.3 5.46 5.3s5.46-2.371 5.46-5.3c0-2.927-2.418-5.3-5.46-5.3m19.205-.004c-2.077 0-3.329 1.222-3.329 2.76 0 1.383.778 2.164 1.88 2.694.255.124 1.098.521 1.46.694.575.275 1.608.782 1.608 1.69 0 .69-.704 1.434-2.144 1.434-1.414 0-2.102-.588-2.283-.728l-.681 1.294c.121.09.958.767 3.023.767 1.85 0 3.57-.855 3.57-2.864 0-1.752-1.59-2.508-2.534-2.951l-1.131-.537c-.693-.33-1.285-.774-1.285-1.55 0-.709.604-1.369 1.849-1.369 1.185 0 1.89.446 2.037.537l.45-1.258c-.055-.036-.944-.613-2.49-.613M22.41 19.676h-5.518v10.337h1.486v-4.806h4.032v-1.28h-4.032v-2.97h4.032zM9.75 28.79a3.926 3.926 0 0 1-3.946-3.945 3.926 3.926 0 0 1 3.945-3.944 3.928 3.928 0 0 1 3.946 3.944c0 2.18-1.74 3.945-3.946 3.945m0-9.247c-3.044 0-5.462 2.373-5.462 5.302 0 2.929 2.418 5.301 5.462 5.301 3.046 0 5.463-2.372 5.463-5.301 0-2.929-2.417-5.302-5.463-5.302m42.659.133h-1.395v8.003l-6.215-8.003h-1.251v10.337h1.395v-7.958l6.167 7.958h1.299zm45.306 0h-1.395v8.003l-6.217-8.003h-1.25v10.337h1.396v-7.958l6.164 7.958h1.302zm-29.22 0H61.06v1.281h3.037v9.056h1.485v-9.056h2.912zm8.319 0h-7.437v1.281h3.037v9.056h1.485v-9.056h2.915zm-35.129 0h-5.866v10.337h6.002v-1.281h-4.517v-3.397h4.229v-1.281h-4.229v-3.097h4.381zm18.471 0H54.29v10.337h6.002v-1.281h-4.517v-3.397h4.229v-1.281h-4.229v-3.097h4.38zM82.09 28.79a3.927 3.927 0 0 1-3.944-3.945 3.927 3.927 0 0 1 3.944-3.944 3.926 3.926 0 0 1 3.945 3.944 3.927 3.927 0 0 1-3.945 3.945m0-9.247c-3.045 0-5.463 2.373-5.463 5.302 0 2.929 2.418 5.301 5.463 5.301 3.047 0 5.464-2.372 5.464-5.301 0-2.929-2.417-5.302-5.464-5.302m-53.481 9.19V25.41h1.957c1.508 0 2.12.733 2.12 1.674 0 .771-.44 1.648-2.12 1.648h-1.957zm0-4.606v-3.17h1.647c1.166 0 1.895.568 1.895 1.573 0 1.06-.788 1.597-1.895 1.597H28.61zm1.89-4.45h-3.375v10.336h3.548c2.632 0 3.545-1.486 3.545-2.759 0-2.18-1.754-2.586-1.93-2.633v-.03c.125-.056 1.395-.52 1.395-2.279 0-1.395-1.017-2.635-3.183-2.635zm69.534 8.297a1.024 1.024 0 1 0-.001 2.048 1.024 1.024 0 0 0 .001-2.048"/></g></svg>