<?xml version="1.0" encoding="utf-8"?>
<!-- Generator: Adobe Illustrator 21.1.0, SVG Export Plug-In . SVG Version: 6.00 Build 0)  -->
<svg version="1.1" id="Layer_1" xmlns="http://www.w3.org/2000/svg" xmlns:xlink="http://www.w3.org/1999/xlink" x="0px" y="0px"
	 viewBox="0 0 24 23.894" style="enable-background:new 0 0 24 23.894;" xml:space="preserve">
<style type="text/css">
	.st0{fill:#99F4FF;}
</style>
<path class="st0" d="M11.363,0.016c-0.372,0.011-0.575,0.026-0.624,0.047c-0.044,0.019-0.224,0.037-0.456,0.046
	c-0.334,0.013-0.404,0.023-0.54,0.076c-0.086,0.033-0.383,0.126-0.66,0.207C4.461,1.731,1.239,5.126,0.252,9.701
	c-0.021,0.097-0.059,0.272-0.084,0.388c-0.025,0.116-0.061,0.365-0.08,0.553s-0.045,0.371-0.06,0.407
	c-0.041,0.103-0.035,1.737,0.007,1.873c0.018,0.058,0.04,0.212,0.049,0.341c0.009,0.129,0.037,0.336,0.062,0.458
	c0.025,0.123,0.056,0.292,0.069,0.376s0.053,0.259,0.088,0.388c0.454,1.672,0.811,2.525,1.605,3.832
	c0.149,0.246,0.334,0.552,0.41,0.681c0.236,0.4,1.831,1.971,2.526,2.49c1.224,0.912,2.849,1.683,4.393,2.084
	c0.058,0.015,0.128,0.042,0.156,0.06c0.028,0.018,0.131,0.044,0.23,0.058c0.099,0.014,0.223,0.04,0.276,0.058
	c0.053,0.017,0.118,0.031,0.144,0.031c0.026,0,0.161,0.011,0.3,0.025c0.139,0.014,0.33,0.025,0.425,0.026
	c0.095,0,0.26,0.018,0.367,0.039c0.172,0.034,0.198,0.034,0.234,0.003c0.034-0.029,0.161-0.037,0.705-0.047
	c0.618-0.011,0.671-0.015,0.771-0.062c0.107-0.051,0.249-0.082,0.545-0.119c0.683-0.086,1.976-0.58,2.771-1.058
	c0.535-0.321,1.227-0.933,1.692-1.495c0.39-0.472,0.415-0.487,1.163-0.721c1.65-0.517,3.076-1.518,4.012-2.818
	c0.27-0.375,0.676-1.08,0.751-1.305c0.017-0.05,0.049-0.127,0.073-0.173c0.023-0.045,0.05-0.137,0.058-0.205
	c0.009-0.067,0.031-0.135,0.05-0.15c0.051-0.041,0.05-1.742-0.001-1.784c-0.019-0.015-0.042-0.085-0.051-0.155
	c-0.01-0.076-0.039-0.157-0.074-0.203c-0.032-0.042-0.057-0.091-0.057-0.109s-0.031-0.077-0.068-0.131
	c-0.038-0.054-0.121-0.177-0.186-0.273c-0.722-1.076-2.195-1.502-3.56-1.03c-1.559,0.539-2.201,1.718-2.533,4.65
	c-0.178,1.572-0.356,2.123-0.723,2.229c-0.339,0.098-1.285,0.144-1.64,0.079c-0.086-0.016-0.329-0.039-0.54-0.051
	c-1.119-0.066-2.74-0.51-3.851-1.056c-2.177-1.069-3.733-2.984-3.993-4.915c-0.02-0.149-0.053-0.376-0.073-0.505
	C6.459,11.472,6.88,9.851,7.538,8.898c0.395-0.571,1.598-1.596,2.217-1.889c2.521-1.192,5.296-0.529,7.046,1.682
	c1.158,1.464,2.726,1.783,4.471,0.911c1.21-0.605,1.844-2.333,1.367-3.729c-0.561-1.643-3.333-4.051-5.721-4.97
	c-0.576-0.222-1.826-0.586-2.159-0.629c-0.112-0.015-0.242-0.046-0.288-0.069c-0.046-0.024-0.154-0.051-0.24-0.06
	c-0.086-0.009-0.215-0.038-0.288-0.064C13.74,0.008,12.614-0.02,11.363,0.016L11.363,0.016z M12.935,1.895
	c0.086,0.011,0.296,0.038,0.468,0.058c0.509,0.061,0.655,0.084,1.005,0.159c2.415,0.511,4.747,2.004,6.063,3.881
	c0.643,0.917,0.353,1.875-0.658,2.178c-0.576,0.173-1.017-0.054-1.642-0.842c-1.118-1.409-2.931-2.447-4.662-2.668
	c-0.153-0.02-0.358-0.055-0.456-0.078c-0.697-0.166-2.499,0.044-3.453,0.401c-2.984,1.118-4.856,3.688-4.959,6.809
	c-0.05,1.508,0.457,3.246,1.221,4.186c0.089,0.109,0.259,0.35,0.377,0.534c1.021,1.585,2.445,2.665,4.639,3.518
	c0.771,0.3,2.236,0.663,2.941,0.729c0.858,0.08,1.119,0.252,0.764,0.501c-0.295,0.207-1.159,0.514-1.6,0.57
	c-0.112,0.014-0.328,0.049-0.48,0.077c-1.731,0.322-4.489-0.483-6.367-1.857C1.075,16.351,0.562,9.091,5.056,4.786
	C6.774,3.14,8.817,2.218,11.447,1.9C11.682,1.872,12.734,1.868,12.935,1.895L12.935,1.895z M21.302,13.685
	c1.064,0.329,1.073,1.523,0.022,2.892c-0.519,0.676-1.416,1.399-1.736,1.399c-0.227,0-0.257-0.147-0.15-0.752
	c0.042-0.239,0.091-0.551,0.11-0.694c0.018-0.142,0.049-0.338,0.069-0.435c0.019-0.097,0.052-0.306,0.072-0.465
	C19.897,14.014,20.401,13.406,21.302,13.685L21.302,13.685z"/>
</svg>
