<?xml version="1.0" encoding="utf-8"?>
<!-- Generator: Adobe Illustrator 21.1.0, SVG Export Plug-In . SVG Version: 6.00 Build 0)  -->
<svg version="1.1" id="Layer_1" xmlns="http://www.w3.org/2000/svg" xmlns:xlink="http://www.w3.org/1999/xlink" x="0px" y="0px"
	 viewBox="0 0 24 24" style="enable-background:new 0 0 24 24;" xml:space="preserve">
<style type="text/css">
	.st0{fill:#322A3F;}
	.st1{fill:#F4AE95;}
</style>
<title>agrello-dlt-logo</title>
<path class="st0" d="M0.337,0h23.327C23.849,0,24,0.151,24,0.337v23.327C24,23.849,23.849,24,23.663,24H0.337
	C0.151,24,0,23.849,0,23.663V0.337C0,0.151,0.151,0,0.337,0z"/>
<path class="st1" d="M11.854,6.392L7.24,16.014H14.9c0.222,0,0.422,0.132,0.51,0.336l0.008,0.019
	c0.058,0.134,0.049,0.287-0.023,0.414c-0.13,0.227-0.371,0.366-0.633,0.366H6.621c-0.126,0-0.248-0.037-0.353-0.107l-0.043-0.028
	c-0.264-0.177-0.358-0.521-0.22-0.807L11.45,5.002c0.057-0.117,0.138-0.221,0.238-0.304c0.195-0.163,0.477-0.165,0.675-0.006
	c0.043,0.034,0.078,0.077,0.102,0.126l5.523,11.282c0.075,0.153,0.09,0.329,0.044,0.493c-0.053,0.186-0.222,0.313-0.415,0.313
	h-0.063c-0.258,0-0.492-0.149-0.602-0.382L12.189,6.394c-0.043-0.093-0.153-0.133-0.245-0.09
	C11.904,6.322,11.873,6.353,11.854,6.392L11.854,6.392z"/>
</svg>
