<?xml version="1.0" encoding="utf-8"?>
<!-- Generator: Adobe Illustrator 21.1.0, SVG Export Plug-In . SVG Version: 6.00 Build 0)  -->
<svg version="1.1" id="Layer_1" xmlns="http://www.w3.org/2000/svg" xmlns:xlink="http://www.w3.org/1999/xlink" x="0px" y="0px"
	 viewBox="0 0 14.5 24" style="enable-background:new 0 0 14.5 24;" xml:space="preserve">
<style type="text/css">
	.st0{fill:#384182;}
	.st1{fill:#F79534;}
	.st2{fill:#F0513A;}
</style>
<path class="st0" d="M6.3,19.5L0,24L4,5.6L6.3,19.5z M6.4,19.4l3.8,0L4.2,5.7L6.4,19.4z M10.6,19.1l2.9-10.9l-1.1-1.4L10.6,19.1z
	 M9.2,2L4.4,5.3L11.4,3L9.2,2z M8.6,2l-3,0.1L5.2,3.4L8.6,2z"/>
<path class="st1" d="M12.2,6.5L4.5,5.4l7-2.2L12.2,6.5z M10.4,2.4l0.4-1.2l-2.2-1L10.4,2.4z M11.1,1.1l0.5,1.8l3-0.8L11.1,1.1z"/>
<path class="st2" d="M10.4,19.4L4.2,5.5l8.1,1.1L10.4,19.4z M9,2L5.2,3.5L4.2,5.2L9,2z M6.6,0.9L5.7,2l3.2-0.1L6.6,0.9z M8.3,0.1
	L6.8,0.8l3.5,1.5L8.3,0.1z M10,0H8.4l2.5,1L10,0z M11,1.3l-0.4,1.2l0.8,0.4L11,1.3z"/>
</svg>
