<?xml version="1.0" encoding="utf-8"?>
<!-- Generator: Adobe Illustrator 21.1.0, SVG Export Plug-In . SVG Version: 6.00 Build 0)  -->
<svg version="1.1" id="Layer_1" xmlns="http://www.w3.org/2000/svg" xmlns:xlink="http://www.w3.org/1999/xlink" x="0px" y="0px"
	 viewBox="0 0 23.8 24" style="enable-background:new 0 0 23.8 24;" xml:space="preserve">
<style type="text/css">
	.st0{fill:url(#SVGID_1_);}
	.st1{fill:url(#SVGID_2_);}
	.st2{fill:url(#SVGID_3_);}
	.st3{fill:url(#SVGID_4_);}
	.st4{fill:#692CC2;}
	.st5{fill:#FFFFFF;}
	.st6{fill:url(#SVGID_5_);}
	.st7{fill:url(#SVGID_6_);}
	.st8{fill:url(#SVGID_7_);}
	.st9{fill:url(#SVGID_8_);}
	.st10{fill:url(#SVGID_9_);}
</style>
<g>
	
		<radialGradient id="SVGID_1_" cx="6.2302" cy="24.8047" r="12.8626" gradientTransform="matrix(1 0 0 -1 0 29.372)" gradientUnits="userSpaceOnUse">
		<stop  offset="0" style="stop-color:#21FFE3"/>
		<stop  offset="1" style="stop-color:#8549DF"/>
	</radialGradient>
	<circle class="st0" cx="11.9" cy="11.9" r="11.9"/>
	
		<linearGradient id="SVGID_2_" gradientUnits="userSpaceOnUse" x1="12.7564" y1="7.6963" x2="12.0562" y2="22.5746" gradientTransform="matrix(1 0 0 -1 0 29.372)">
		<stop  offset="0" style="stop-color:#21FFE3"/>
		<stop  offset="1" style="stop-color:#8549DF"/>
	</linearGradient>
	<ellipse class="st1" cx="12.4" cy="13.5" rx="8.7" ry="8.2"/>
	
		<radialGradient id="SVGID_3_" cx="12.0016" cy="14.2067" r="11.1522" gradientTransform="matrix(1 0 0 -1 0 29.372)" gradientUnits="userSpaceOnUse">
		<stop  offset="0" style="stop-color:#21FFE3"/>
		<stop  offset="0.1916" style="stop-color:#23FCE3;stop-opacity:0.8084"/>
		<stop  offset="0.3419" style="stop-color:#28F2E3;stop-opacity:0.6581"/>
		<stop  offset="0.478" style="stop-color:#31E1E2;stop-opacity:0.522"/>
		<stop  offset="0.6059" style="stop-color:#3ECAE2;stop-opacity:0.3941"/>
		<stop  offset="0.728" style="stop-color:#4FACE1;stop-opacity:0.272"/>
		<stop  offset="0.8458" style="stop-color:#6386E0;stop-opacity:0.1542"/>
		<stop  offset="0.958" style="stop-color:#7B5BDF;stop-opacity:4.200000e-02"/>
		<stop  offset="1" style="stop-color:#8549DF;stop-opacity:0"/>
	</radialGradient>
	<ellipse class="st2" cx="12" cy="15.2" rx="9.4" ry="8.8"/>
	<g>
		
			<linearGradient id="SVGID_4_" gradientUnits="userSpaceOnUse" x1="3.8743" y1="23.1473" x2="19.1313" y2="14.1796" gradientTransform="matrix(1 0 0 -1 0 29.372)">
			<stop  offset="0" style="stop-color:#21FFE3"/>
			<stop  offset="1" style="stop-color:#F8FFFB"/>
		</linearGradient>
		<path class="st3" d="M9.4,20.1c0,0-1.1-0.1-1.6-0.4c-0.1-0.1-2.2-1.3-3.1-2.8c-0.7-1.3-1.9-3.6-2-4.7c-0.1-1,0-3.2,0.3-3.9
			c0,0,0.1-0.1,0.1-0.2c0.2-0.5,0.7-1.6,1.7-2.5C6,4.3,7.5,3.7,9.4,3.7c0,0,1.3,0,2.8,0c0.9,0,1.6,0,2.2,0c2,0,3.6,0.2,4.3,0.3
			l0.1,0c0.5,0.1,0.7,0.1,0.8,0.5c0,0.3,0.3,2.7,0.3,2.7l0,0.1l-1.8,1.1h2l0.2,3.7l-2.1,1.6h1.9l-0.7,3.9l-3.6,2.1L9.4,20.1
			L9.4,20.1z"/>
		<path class="st4" d="M12.2,3.8c0.7,0,1.5,0,2.2,0c2.1,0,3.7,0.2,4.3,0.3c0.6,0.1,0.8,0.1,0.8,0.4c0,0.3,0.3,2.7,0.3,2.7l-2.1,1.3
			H20l0.2,3.5l-2.3,1.7H20l-0.6,3.7l-3.6,2L9.4,20c0,0-1-0.1-1.6-0.4c-0.5-0.3-2.3-1.4-3-2.8c-0.7-1.3-1.9-3.6-2-4.7s0-3.2,0.3-3.8
			s1.7-4.5,6.2-4.5C9.4,3.8,10.7,3.8,12.2,3.8 M12.2,3.6c-1.5,0-2.8,0-2.8,0C7.5,3.6,6,4.2,4.7,5.4C3.8,6.4,3.3,7.5,3,8
			C3,8.1,3,8.1,2.9,8.2c-0.4,0.7-0.4,2.9-0.4,3.9c0.1,1.1,1.3,3.5,2,4.8c0.9,1.6,3,2.8,3.1,2.8c0.5,0.3,1.6,0.4,1.6,0.4l0,0l0,0
			l6.4-0.4l0,0l0,0l3.6-2l0.1,0l0-0.1l0.6-3.7l0-0.2H20h-1.5l1.8-1.3l0.1-0.1l0-0.1l-0.2-3.5l0-0.2H20h-1.5L20,7.5l0.1-0.1l0-0.1
			c0,0-0.3-2.4-0.3-2.7c-0.1-0.5-0.3-0.5-0.8-0.6c0,0-0.1,0-0.1,0c-0.8-0.1-2.3-0.3-4.3-0.3C13.8,3.6,13.1,3.6,12.2,3.6L12.2,3.6z"
			/>
	</g>
	<path class="st5" d="M2.9,12.1c0,0,0.1,1.3,0.6,2.5s1.8,3.1,2.3,3.6c0.7,0.7,2,1.6,2.9,1.7s3.1-0.1,3.6-0.1c0.3,0,3.1-0.3,3.4-0.3
		c0.4-0.1,3.5-1.9,3.6-2c0.1-0.1,0.1-0.7,0.1-0.7l-2.5,0.6l-7.7,0.4c-0.3,0-0.6,0-0.9-0.1c-0.4,0-0.7-0.1-1.2-0.2
		c-0.5-0.1-1-0.4-1.5-0.8c-0.7-0.5-1.5-1.3-1.9-2.4C3.4,13.5,2.9,12.1,2.9,12.1z"/>
	
		<linearGradient id="SVGID_5_" gradientUnits="userSpaceOnUse" x1="6.5988" y1="21.5754" x2="19.4559" y2="21.5754" gradientTransform="matrix(1 0 0 -1 0 29.372)">
		<stop  offset="0" style="stop-color:#692CC2"/>
		<stop  offset="0.5189" style="stop-color:#3E5BDE"/>
		<stop  offset="1" style="stop-color:#229EE7"/>
	</linearGradient>
	<path class="st6" d="M6.6,8.6l0.9-1.3c0,0,0-0.3,1.7-0.4s10.2,0.3,10.2,0.3l-1.7,1.4H6.6L6.6,8.6z"/>
	
		<linearGradient id="SVGID_6_" gradientUnits="userSpaceOnUse" x1="6.5988" y1="16.2721" x2="19.7515" y2="16.2721" gradientTransform="matrix(1 0 0 -1 0 29.372)">
		<stop  offset="0" style="stop-color:#692CC2"/>
		<stop  offset="0.5189" style="stop-color:#3E5BDE"/>
		<stop  offset="1" style="stop-color:#229EE7"/>
	</linearGradient>
	<path class="st7" d="M19.8,12.1l-2.2,1.7l-9.6,0.3c0,0-0.8-0.7-1-1c-0.1-0.3-0.3-0.6-0.3-0.6s10-0.1,11-0.1
		C18.6,12.3,19.8,12.1,19.8,12.1z"/>
	
		<linearGradient id="SVGID_7_" gradientUnits="userSpaceOnUse" x1="5.1578" y1="11.1181" x2="18.6431" y2="11.1181" gradientTransform="matrix(1 0 0 -1 0 29.372)">
		<stop  offset="0" style="stop-color:#677CF4"/>
		<stop  offset="0.2764" style="stop-color:#374CD7"/>
		<stop  offset="0.3631" style="stop-color:#3752D8"/>
		<stop  offset="0.4747" style="stop-color:#3562DB"/>
		<stop  offset="0.5999" style="stop-color:#337CE1"/>
		<stop  offset="0.7351" style="stop-color:#30A1E9"/>
		<stop  offset="0.8766" style="stop-color:#2DD0F2"/>
		<stop  offset="1" style="stop-color:#29FFFC"/>
	</linearGradient>
	<path class="st8" d="M18.6,17.6c0,0-2.8,1.7-3,1.7s-5.6,0.4-6.1,0.4c-0.7,0-1.5-0.2-2.1-0.6C6.9,18.8,6,18,5.9,17.6
		c-0.2-0.3-0.7-0.9-0.7-0.9s1.3,0.8,2.1,1.1c0.9,0.3,2.8,0.2,3.6,0.2C11.8,17.9,18.6,17.6,18.6,17.6z"/>
	<path class="st5" d="M17.6,3c0,0-2-0.6-3.2-0.6c-1.3,0-2.9,0.1-3.7,0.4S9.4,3.3,9.4,3.3S10,3.9,9.9,4.5S9.2,5.9,8.5,6.1
		S7,6.4,6.5,6.3C5.9,6.2,4.6,5.4,4.6,5.4l-1-0.7c0,0,1-1.4,2.6-2.1s3.3-1.5,5.4-1.5s3.6,0.5,4.4,0.9C17,2.5,17.6,3,17.6,3z"/>
	
		<linearGradient id="SVGID_8_" gradientUnits="userSpaceOnUse" x1="3.4983" y1="22.5578" x2="1.2113" y2="16.7365" gradientTransform="matrix(1 0 0 -1 0 29.372)">
		<stop  offset="0" style="stop-color:#F8FFFB"/>
		<stop  offset="1" style="stop-color:#F8FFFB;stop-opacity:0"/>
	</linearGradient>
	<path class="st9" d="M3.6,4.7c0,0-0.7,0.9-0.9,1.4C2.5,6.5,1.9,7.7,1.8,8.9c-0.1,1.2-0.1,2.1,0,2.8c0.1,0.6,0.4,1.5,0.4,1.5
		S2.9,10,3,9.2c0.1-0.8,0.7-2.4,1.1-3c0.5-0.6,0.9-1.3,0.9-1.3L3.6,4.7z"/>
	
		<linearGradient id="SVGID_9_" gradientUnits="userSpaceOnUse" x1="4.5364" y1="22.2419" x2="4.155" y2="17.0113" gradientTransform="matrix(1 0 0 -1 0 29.372)">
		<stop  offset="0" style="stop-color:#F8FFFB"/>
		<stop  offset="1" style="stop-color:#F8FFFB;stop-opacity:0"/>
	</linearGradient>
	<path class="st10" d="M5.1,4.9c0,0-0.8,1.1-1,1.4c-0.2,0.3-0.9,1.5-1,2.1c0,0.6-0.2,1.9-0.2,1.9s1.3-2.4,1.7-2.8C5,7.1,6,5.7,6,5.7
		L5.1,4.9z"/>
</g>
</svg>
