<?xml version="1.0" encoding="utf-8"?>
<!-- Generator: Adobe Illustrator 21.1.0, SVG Export Plug-In . SVG Version: 6.00 Build 0)  -->
<svg version="1.1" id="Layer_1" xmlns="http://www.w3.org/2000/svg" xmlns:xlink="http://www.w3.org/1999/xlink" x="0px" y="0px"
	 viewBox="0 0 17.684 24" style="enable-background:new 0 0 17.684 24;" xml:space="preserve">
<style type="text/css">
	.st0{fill:#786DBC;}
</style>
<path class="st0" d="M9.87,6.379L8.069,4.574C7.565,4.091,7.547,3.29,8.03,2.786c0.483-0.505,1.284-0.523,1.788-0.04l0,0L9.86,2.788
	l4.019,4.019c0.494,0.494,0.494,1.293,0,1.787l-4.023,4.019c-0.505,0.482-1.305,0.463-1.786-0.042c-0.466-0.488-0.466-1.256,0-1.744
	L9.956,8.94c-3.424-0.604-6.689,1.681-7.293,5.105c-0.604,3.424,1.681,6.689,5.105,7.293s6.689-1.681,7.293-5.105
	c0.062-0.353,0.094-0.711,0.096-1.07V1.262C15.157,0.565,15.723-0.001,16.421,0c0.697,0.001,1.262,0.565,1.262,1.262v14.07
	c-0.096,4.883-4.133,8.763-9.016,8.666c-4.883-0.096-8.763-4.133-8.666-9.016C0.098,10.1,4.135,6.22,9.017,6.316
	c0.285,0.006,0.569,0.025,0.852,0.058C9.869,6.374,9.87,6.379,9.87,6.379z"/>
</svg>
