<?xml version="1.0" encoding="utf-8"?>
<!-- Generator: Adobe Illustrator 21.1.0, SVG Export Plug-In . SVG Version: 6.00 Build 0)  -->
<svg version="1.1" id="Layer_1" xmlns="http://www.w3.org/2000/svg" xmlns:xlink="http://www.w3.org/1999/xlink" x="0px" y="0px"
	 viewBox="0 0 21.4 24.1" style="enable-background:new 0 0 21.4 24.1;" xml:space="preserve">
<style type="text/css">
	.st0{fill:#003399;}
	.st1{fill:#FFFFFF;}
</style>
<path class="st0" d="M11.6,0.3l8.8,5.1C21,5.7,21.3,6.3,21.3,7v10.1c0,0.7-0.3,1.3-0.9,1.6l-8.8,5.1c-0.6,0.3-1.3,0.3-1.9,0L1,18.7
	c-0.6-0.3-0.9-0.9-0.9-1.6V7c0-0.7,0.3-1.3,0.9-1.6l8.8-5.1C10.4,0,11,0,11.6,0.3z"/>
<path class="st1" d="M9.4,8.9c0.8-1.6,2.3-2.4,4.6-2.4c0.7,0,1.4,0,1.9,0.1v-3c-0.8-0.1-1.7-0.2-2.5-0.1C9.3,3.6,6.6,5.6,5.6,8.9
	H3.8v2.2h1.4c0,0.2,0,0.5,0,0.9c0,0.3,0,0.6,0,0.7H3.8v2.2h1.8c1,3.6,4,5.7,8.2,5.7c0.5,0,1.2,0,2.1-0.1v-3
	c-0.6,0.1-1.2,0.1-1.9,0.1c-2.3,0-3.9-0.9-4.6-2.6h4.5l0.3-2.2H8.8c0-0.2,0-0.4,0-0.7c0-0.2,0-0.5,0-0.9h5.4l0.3-2.2L9.4,8.9
	L9.4,8.9z"/>
</svg>
