<?xml version="1.0" encoding="utf-8"?>
<!-- Generator: Adobe Illustrator 21.1.0, SVG Export Plug-In . SVG Version: 6.00 Build 0)  -->
<svg version="1.1" id="Layer_1" xmlns="http://www.w3.org/2000/svg" xmlns:xlink="http://www.w3.org/1999/xlink" x="0px" y="0px"
	 viewBox="0 0 24 24" style="enable-background:new 0 0 24 24;" xml:space="preserve">
<style type="text/css">
	.st0{fill:#2E3148;}
	.st1{fill:#1B1E36;}
	.st2{fill:#6F7390;}
	.st3{fill:#B7B9C8;}
</style>
<title>cosmos-atom-logo</title>
<circle class="st0" cx="12" cy="12" r="12"/>
<circle class="st1" cx="12" cy="12" r="7"/>
<path class="st2" d="M12,1.5c-1.3,0-2.3,4.7-2.3,10.5s1.1,10.5,2.3,10.5s2.3-4.7,2.3-10.5S13.3,1.5,12,1.5z M12.2,21.9
	c-0.1,0.2-0.3,0-0.3,0c-0.6-0.7-0.9-2-0.9-2c-1-3.4-0.8-10.6-0.8-10.6c0.5-5.7,1.4-7.1,1.7-7.4C12,2,12.1,2,12.1,2
	c0.4,0.3,0.8,1.6,0.8,1.6c1.1,4,1,7.9,1,7.9c0.1,3.3-0.5,7-0.5,7C12.9,21.3,12.2,21.9,12.2,21.9z"/>
<path class="st2" d="M21.1,6.8c-0.6-1.1-5.2,0.3-10.3,3.2s-8.6,6.1-7.9,7.3s5.2-0.3,10.3-3.2S21.8,7.9,21.1,6.8L21.1,6.8z M3.5,17.1
	c-0.2,0-0.2-0.2-0.2-0.2c0.3-0.9,1.3-1.8,1.3-1.8c2.4-2.6,8.8-5.9,8.8-5.9c5.2-2.4,6.8-2.3,7.2-2.2c0.1,0,0.1,0.1,0.1,0.2
	c0,0.5-1,1.5-1,1.5c-3,3-6.3,4.8-6.3,4.8c-2.8,1.7-6.4,3-6.4,3C4.4,17.4,3.5,17.1,3.5,17.1L3.5,17.1L3.5,17.1z"/>
<path class="st2" d="M21.1,17.3c0.6-1.1-2.9-4.4-7.9-7.3S3.6,5.6,2.9,6.8s2.9,4.4,7.9,7.3S20.5,18.4,21.1,17.3z M3.4,7.2
	C3.3,7,3.5,6.9,3.5,6.9c0.9-0.2,2.2,0.2,2.2,0.2c3.4,0.8,9.5,4.6,9.5,4.6c4.7,3.3,5.4,4.7,5.5,5.2c0,0.1,0,0.2-0.1,0.2
	c-0.5,0.2-1.8-0.1-1.8-0.1c-4.1-1.1-7.3-3.1-7.3-3.1c-2.9-1.6-5.8-4-5.8-4C3.5,8.1,3.4,7.2,3.4,7.2L3.4,7.2z"/>
<circle class="st3" cx="12" cy="12" r="1.2"/>
<ellipse class="st3" cx="17.1" cy="7.3" rx="0.7" ry="0.7"/>
<ellipse class="st3" cx="5.3" cy="9.8" rx="0.7" ry="0.7"/>
<ellipse class="st3" cx="10.5" cy="18.9" rx="0.7" ry="0.7"/>
</svg>
