<?xml version="1.0" encoding="utf-8"?>
<!-- Generator: Adobe Illustrator 21.1.0, SVG Export Plug-In . SVG Version: 6.00 Build 0)  -->
<svg version="1.1" id="Layer_1" xmlns="http://www.w3.org/2000/svg" xmlns:xlink="http://www.w3.org/1999/xlink" x="0px" y="0px"
	 viewBox="0 0 24 24" style="enable-background:new 0 0 24 24;" xml:space="preserve">
<style type="text/css">
	.st0{fill:#FE5D86;}
	.st1{fill:#FFFFFF;}
</style>
<g>
	<circle class="st0" cx="12" cy="12" r="12"/>
	<path class="st1" d="M6,6.779C6,6.349,6.354,6,6.79,6h5.691c3.357,0,4.541,0.396,5.357,1.201c0.51,0.518,0.777,1.228,0.735,1.954
		c0,1.388-0.748,2.33-2.765,2.743c1.949,0.34,2.938,1.132,2.938,2.726c0.037,0.751-0.24,1.484-0.765,2.022
		C17.182,17.433,15.878,18,12.365,18H6.79C6.357,18.003,6.003,17.654,6,17.221V6.779z M10.321,11.251c0-0.287,0.236-0.52,0.527-0.52
		h1.832c1.045,0,1.828-0.051,2.19-0.426c0.171-0.179,0.258-0.421,0.242-0.668c0.023-0.24-0.058-0.478-0.225-0.656
		c-0.368-0.362-1.149-0.425-2.207-0.425H9.27v6.924h3.375c1.149,0,2-0.086,2.398-0.482c0.183-0.188,0.278-0.442,0.26-0.703
		c0.016-0.265-0.077-0.525-0.26-0.72c-0.402-0.395-1.253-0.425-2.398-0.425H10.86c-0.145,0.004-0.284-0.052-0.387-0.154
		c-0.102-0.101-0.157-0.239-0.153-0.382L10.321,11.251z"/>
</g>
</svg>
