<?xml version="1.0" encoding="utf-8"?>
<!-- Generator: Adobe Illustrator 21.1.0, SVG Export Plug-In . SVG Version: 6.00 Build 0)  -->
<svg version="1.1" id="Laag_1" xmlns="http://www.w3.org/2000/svg" xmlns:xlink="http://www.w3.org/1999/xlink" x="0px" y="0px"
	 viewBox="0 0 24 18.5" style="enable-background:new 0 0 24 18.5;" xml:space="preserve">
<style type="text/css">
	.st0{fill:url(#_Pad__1_);}
	.st1{fill:#4971FA;}
	.st2{fill:url(#_Pad_3_1_);}
</style>
<title>dcr</title>
<g id="Laag_3">
	<g id="Layer_1-2">
		
			<linearGradient id="_Pad__1_" gradientUnits="userSpaceOnUse" x1="-7592.6401" y1="-860.734" x2="-7579.2168" y2="-860.734" gradientTransform="matrix(1 0 0 -1 7603.2002 -851.4853)">
			<stop  offset="0" style="stop-color:#62D0C9"/>
			<stop  offset="1" style="stop-color:#7DE2AC"/>
		</linearGradient>
		<path id="_Pad_" class="st0" d="M10.6,11.5h5.9c2.2,0,4-1.8,4-4s-1.8-4-4-4h-1.9L10.6,0h5.9C20.6,0,24,3.3,24,7.5
			c0,3.1-1.8,5.8-4.7,7l4.7,4.1h-5.3L10.6,11.5z"/>
		<path id="_Pad_2" class="st1" d="M13.5,7H7.5c-2.2,0-4,1.8-4,4s1.8,4,4,4h1.9l4,3.5H7.5c-4.1,0-7.5-3.3-7.5-7.5
			c0-3.1,1.8-5.9,4.7-7L0,0h5.4L13.5,7z"/>
		
			<linearGradient id="_Pad_3_1_" gradientUnits="userSpaceOnUse" x1="-7603.1582" y1="-860.7574" x2="-7589.7349" y2="-860.7574" gradientTransform="matrix(1 0 0 -1 7603.2002 -851.4853)">
			<stop  offset="0" style="stop-color:#3268FB"/>
			<stop  offset="1" style="stop-color:#4795FA"/>
		</linearGradient>
		<path id="_Pad_3" class="st2" d="M13.5,7H7.5c-2.2,0-4,1.8-4,4s1.8,4,4,4h1.9l4,3.5H7.5c-4.1,0-7.5-3.3-7.5-7.5
			c0-3.1,1.8-5.9,4.7-7L0,0h5.4L13.5,7z"/>
	</g>
</g>
</svg>
