<svg width="158" height="150" viewBox="0 0 158 150" fill="none" xmlns="http://www.w3.org/2000/svg">
<path d="M149.654 76.75C149.654 76.75 148.629 103.511 126.196 120.904C103.762 138.296 72.8564 138.948 47.8242 140.133C22.792 141.318 3.66435 126.732 0.908417 105.215C-1.84752 83.6981 17.3006 77.7879 27.8462 53.5738C38.3919 29.3597 37.5074 21.3088 59.5548 6.74004C81.6023 -7.82872 115.879 2.07954 133.716 28.1852C151.552 54.2908 149.654 76.75 149.654 76.75Z" fill="#D2E558"/>
<path opacity="0.7" d="M149.654 76.75C149.654 76.75 148.629 103.511 126.196 120.904C103.762 138.296 72.8564 138.948 47.8242 140.133C22.792 141.318 3.66435 126.732 0.908417 105.215C-1.84752 83.6981 17.3006 77.7879 27.8462 53.5738C38.3919 29.3597 37.5074 21.3088 59.5548 6.74004C81.6023 -7.82872 115.879 2.07954 133.716 28.1852C151.552 54.2908 149.654 76.75 149.654 76.75Z" fill="white"/>
<path d="M78.5356 150C121.91 150 157.071 142.988 157.071 134.339C157.071 125.689 121.91 118.677 78.5356 118.677C35.1616 118.677 0 125.689 0 134.339C0 142.988 35.1616 150 78.5356 150Z" fill="#D2E558"/>
<path opacity="0.5" d="M78.5356 150C121.91 150 157.071 142.988 157.071 134.339C157.071 125.689 121.91 118.677 78.5356 118.677C35.1616 118.677 0 125.689 0 134.339C0 142.988 35.1616 150 78.5356 150Z" fill="white"/>
<path d="M111.002 1.91217H112.495C118.11 1.91217 123.496 4.14242 127.467 8.1123C131.437 12.0822 133.668 17.4665 133.668 23.0808V102.634H89.8292V23.0808C89.8292 17.4665 92.06 12.0822 96.0307 8.1123C100.001 4.14242 105.387 1.91217 111.002 1.91217V1.91217Z" stroke="#263238" stroke-width="0.4" stroke-linecap="round" stroke-linejoin="round"/>
<path d="M94.7777 102.408V24.5318C94.7777 20.0323 96.5655 15.717 99.7479 12.5353C102.93 9.35367 107.246 7.56623 111.747 7.56623V7.56623C113.977 7.56443 116.185 8.00194 118.245 8.85374C120.305 9.70553 122.178 10.9549 123.755 12.5305C125.332 14.1061 126.583 15.977 127.437 18.0362C128.291 20.0955 128.73 22.3027 128.73 24.5318V102.408" stroke="#263238" stroke-width="0.4" stroke-linecap="round" stroke-linejoin="round"/>
<path d="M111.747 1.91217V102.524" stroke="#263238" stroke-width="0.4" stroke-linecap="round" stroke-linejoin="round"/>
<path d="M90.0648 21.2916H133.371" stroke="#263238" stroke-width="0.4" stroke-linecap="round" stroke-linejoin="round"/>
<path d="M90.0648 34.9591H133.371" stroke="#263238" stroke-width="0.4" stroke-linecap="round" stroke-linejoin="round"/>
<path d="M90.0648 48.6265H133.371" stroke="#263238" stroke-width="0.4" stroke-linecap="round" stroke-linejoin="round"/>
<path d="M90.0648 62.2903H133.371" stroke="#263238" stroke-width="0.4" stroke-linecap="round" stroke-linejoin="round"/>
<path d="M90.0648 75.9578H133.371" stroke="#263238" stroke-width="0.4" stroke-linecap="round" stroke-linejoin="round"/>
<path d="M90.0648 89.6252H133.371" stroke="#263238" stroke-width="0.4" stroke-linecap="round" stroke-linejoin="round"/>
<path d="M95.8534 8.75098L99.7807 12.3257" stroke="#263238" stroke-width="0.4" stroke-linecap="round" stroke-linejoin="round"/>
<path d="M127.473 8.75098L123.546 12.3257" stroke="#263238" stroke-width="0.4" stroke-linecap="round" stroke-linejoin="round"/>
<path d="M144.576 120.146C144.576 120.146 152.406 106.325 154.23 99.9502C156.054 93.5757 149.193 98.5845 149.193 98.5845C149.193 98.5845 157.338 85.1288 157.969 76.2755C158.601 67.4223 149.258 78.3924 149.258 78.3924C149.258 78.3924 152.468 66.9852 153.168 57.1077C153.868 47.2302 149.411 52.0477 149.411 52.0477C149.411 52.0477 149.039 33.1975 146.508 35.0685C143.978 36.9395 142.861 43.0272 142.861 43.0272C142.861 43.0272 141.444 24.4398 139.378 29.4281C137.312 34.4164 140.58 60.662 140.58 60.662C140.58 60.662 135.734 46.9673 134.546 54.0724C133.357 61.1775 142.216 80.9736 142.216 80.9736C142.216 80.9736 137.715 81.6803 137.158 84.7293C136.601 87.7783 143.756 102.972 143.756 102.972C143.756 102.972 137.817 95.02 136.748 100.418C135.679 105.816 141.693 122.334 141.693 122.334L144.576 120.146Z" fill="#D2E558"/>
<path d="M153.373 92.7015C152.28 88.8604 149.36 91.3904 149.36 91.3904C149.36 91.3904 155.558 71.6353 152.929 70.0784C150.299 68.5215 148.09 75.5413 148.09 75.5413C148.09 75.5413 151.269 45.3044 149.456 46.8852C147.642 48.466 146.591 58.3196 146.591 58.3196C146.591 58.3196 144.439 30.797 142.049 35.42C139.658 40.0429 142.472 67.9684 142.472 67.9684C142.472 67.9684 137.992 53.9698 137.558 60.0882C137.124 66.2066 141.847 86.4055 141.847 86.4055C141.847 86.4055 136.492 84.6574 136.615 87.7439C136.738 90.8305 139.832 105.089 139.832 105.089C139.832 105.089 136.523 103.484 137.326 106.622C138.128 109.759 141.905 119.254 141.905 119.254L145.921 120.565C145.921 120.565 151.727 111.053 149.336 111.224C148.651 111.259 147.981 111.437 147.369 111.747C146.758 112.057 146.218 112.492 145.785 113.023C145.785 113.023 154.469 96.5357 153.373 92.7015Z" stroke="#263238" stroke-width="0.4" stroke-linecap="round" stroke-linejoin="round"/>
<path d="M143.903 118.886C143.903 118.886 145.665 87.3752 144.927 67.4324" stroke="#263238" stroke-width="0.4" stroke-linecap="round" stroke-linejoin="round"/>
<path d="M147.202 133.41H139.733L138.856 117.363H148.076L147.202 133.41Z" fill="#263238" stroke="#263238" stroke-width="0.4" stroke-linecap="round" stroke-linejoin="round"/>
<path d="M83.9486 17.7783H63.3833V45.953H83.9486V17.7783Z" stroke="#263238" stroke-width="0.4" stroke-linecap="round" stroke-linejoin="round"/>
<path d="M80.8923 21.9641H66.4398V41.7636H80.8923V21.9641Z" stroke="#263238" stroke-width="0.4" stroke-linecap="round" stroke-linejoin="round"/>
<path d="M32.6409 47.0456C33.6715 47.2526 34.6467 47.6749 35.5027 48.285C36.6979 49.2068 41.0589 56.3051 42.6743 57.845C44.2896 59.3848 46.2054 61.2798 45.5395 62.8059C44.8735 64.3321 43.832 67.0055 40.9565 65.8788C38.081 64.7521 37.3092 63.2942 36.5443 61.9592C35.7793 60.6242 33.3 58.62 33.3 58.62" fill="#D2E558"/>
<path d="M32.6409 47.0456C33.6715 47.2526 34.6467 47.6749 35.5027 48.285C36.6979 49.2068 41.0589 56.3051 42.6743 57.845C44.2896 59.3848 46.2054 61.2798 45.5395 62.8059C44.8735 64.3321 43.832 67.0055 40.9565 65.8788C38.081 64.7521 37.3092 63.2942 36.5443 61.9592C35.7793 60.6242 33.3 58.62 33.3 58.62" stroke="#263238" stroke-width="0.4" stroke-linecap="round" stroke-linejoin="round"/>
<path d="M44.4775 61.6692C42.4524 59.4772 40.6629 61.116 39.4677 63.0007C38.1392 65.1005 36.9576 67.2925 35.7828 69.4879C35.7828 69.4879 34.0139 71.1677 33.9251 71.9632C33.8363 72.7588 35.2501 74.879 35.9741 74.7937C36.6981 74.7083 38.0982 74.261 38.187 73.8206C38.2758 73.3802 37.5689 73.4792 37.5689 73.4792L38.0982 72.6836L37.7567 70.7955C40.0824 68.8153 43.6818 65.7322 44.6893 64.7215C45.6147 63.7758 45.2869 62.5466 44.4775 61.6692Z" fill="white" stroke="#263238" stroke-width="0.4" stroke-linecap="round" stroke-linejoin="round"/>
<path d="M19.9132 74.4727C19.9132 74.4727 18.9774 78.4777 19.377 79.6829C19.7766 80.8882 21.2314 83.8586 21.2314 83.8586L24.2571 122.344L27.5287 122.262L29.0108 81.7554L29.6733 81.6769L30.8515 122.262L34.2222 122.396L36.4932 83.1552C36.4932 83.1552 36.8347 78.0816 36.8347 77.5456C36.8347 77.0095 35.9502 72.0827 35.9502 72.0827L19.9132 74.4727Z" fill="#263238" stroke="#263238" stroke-width="0.4" stroke-linecap="round" stroke-linejoin="round"/>
<path d="M24.2572 122.344C24.2572 122.344 20.3743 125.557 20.2923 126.65C20.2104 127.742 23.4137 127.24 24.7626 125.626C26.1116 124.011 27.4025 124.444 27.4639 123.348L27.5288 122.252L24.2572 122.344Z" fill="white" stroke="#263238" stroke-width="0.4" stroke-linecap="round" stroke-linejoin="round"/>
<path d="M34.1095 122.344C34.1095 122.344 37.9924 125.554 38.0778 126.65C38.1632 127.746 34.953 127.24 33.6041 125.626C32.2551 124.011 30.9677 124.444 30.9028 123.348L30.8379 122.252L34.1095 122.344Z" fill="white" stroke="#263238" stroke-width="0.4" stroke-linecap="round" stroke-linejoin="round"/>
<path d="M33.9763 51.9109L33.5938 47.428C31.1111 46.3764 26.7023 46.233 25.3977 46.7451C25.3977 46.7451 17.8607 50.5623 17.0958 51.3271C16.3308 52.0919 13.7456 63.5503 13.7456 65.4657C13.7456 67.3811 14.7975 68.7092 16.703 69.0916C18.6086 69.474 19.8551 67.0875 19.8551 67.0875C19.8551 67.0875 18.8033 72.8917 18.9945 73.5746C19.1858 74.2575 19.5409 75.2305 20.3025 75.3261C21.064 75.4217 35.0247 74.814 35.5984 74.5272C36.1722 74.2404 36.5512 73.6702 36.5512 72.3352C36.5512 71.0002 34.6422 57.4523 34.6422 57.4523" fill="#D2E558"/>
<path d="M33.9763 51.9109L33.5938 47.428C31.1111 46.3764 26.7023 46.233 25.3977 46.7451C25.3977 46.7451 17.8607 50.5623 17.0958 51.3271C16.3308 52.0919 13.7456 63.5503 13.7456 65.4657C13.7456 67.3811 14.7975 68.7092 16.703 69.0916C18.6086 69.474 19.8551 67.0875 19.8551 67.0875C19.8551 67.0875 18.8033 72.8917 18.9945 73.5746C19.1858 74.2575 19.5409 75.2305 20.3025 75.3261C21.064 75.4217 35.0247 74.814 35.5984 74.5272C36.1722 74.2404 36.5512 73.6702 36.5512 72.3352C36.5512 71.0002 34.6422 57.4523 34.6422 57.4523" stroke="#263238" stroke-width="0.4" stroke-linecap="round" stroke-linejoin="round"/>
<path d="M20.2173 59.781L20.1387 56.2062" stroke="#263238" stroke-width="0.4" stroke-linecap="round" stroke-linejoin="round"/>
<path d="M27.0574 54.2976C28.9812 54.2976 30.5408 52.5886 30.5408 50.4804C30.5408 48.3722 28.9812 46.6632 27.0574 46.6632C25.1336 46.6632 23.5741 48.3722 23.5741 50.4804C23.5741 52.5886 25.1336 54.2976 27.0574 54.2976Z" fill="white" stroke="#263238" stroke-width="0.4" stroke-linecap="round" stroke-linejoin="round"/>
<path d="M24.8139 43.802C24.8139 43.802 24.8139 50.6715 25.4969 51.9109C26.1799 53.1503 28.6456 53.5327 28.8368 51.9109C29.0281 50.2891 28.9325 44.3756 28.9325 44.3756L24.8139 43.802Z" fill="white" stroke="#263238" stroke-width="0.4" stroke-linecap="round" stroke-linejoin="round"/>
<path d="M28.9426 47.1174C28.9426 45.6151 28.9187 44.386 28.9187 44.386L24.8207 43.8124C24.8207 43.8124 24.8207 44.9049 24.8651 46.298C25.4321 46.7461 26.097 47.054 26.8056 47.1964C27.5142 47.3388 28.2465 47.3117 28.9426 47.1174Z" fill="#263238" stroke="#263238" stroke-width="0.4" stroke-linecap="round" stroke-linejoin="round"/>
<path d="M31.6849 30.9234C31.6849 30.9234 32.3679 37.8885 32.5455 39.8927C32.7231 41.8969 31.9718 44.3757 29.3968 45.3283C26.8219 46.2809 24.7216 44.9493 23.3829 43.1363C22.0442 41.3233 21.6754 41.2277 21.6754 41.2277C21.4626 41.2793 21.2416 41.2881 21.0253 41.2536C20.809 41.219 20.6017 41.1419 20.4155 41.0266C20.2293 40.9112 20.0679 40.7601 19.9406 40.5818C19.8134 40.4036 19.7228 40.2019 19.6742 39.9883C19.1961 38.3665 20.5314 37.6973 21.5798 37.4105C21.5798 37.4105 19.8723 33.5012 19.8723 32.4496C19.8723 31.398 21.6823 29.206 25.5003 28.2534C29.3183 27.3008 31.6849 30.9234 31.6849 30.9234Z" fill="white" stroke="#263238" stroke-width="0.4" stroke-linecap="round" stroke-linejoin="round"/>
<path d="M28.6317 35.0273L28.7274 36.5535C28.7274 36.5535 30.9232 36.7447 30.1583 37.4105C29.564 37.8653 28.8811 38.1909 28.1536 38.3665" stroke="#263238" stroke-width="0.4" stroke-linecap="round" stroke-linejoin="round"/>
<path d="M25.1007 40.3674C25.4612 40.7167 25.9038 40.9699 26.3877 41.1035C26.8717 41.2371 27.3815 41.247 27.8703 41.1322" stroke="#263238" stroke-width="0.4" stroke-linecap="round" stroke-linejoin="round"/>
<path d="M26.2482 36.2667C26.2482 36.714 26.0331 37.0759 25.7701 37.0759C25.5072 37.0759 25.292 36.714 25.292 36.2667C25.292 35.8194 25.5072 35.4541 25.7701 35.4541C26.0331 35.4541 26.2482 35.8194 26.2482 36.2667Z" fill="#263238"/>
<path d="M29.8713 36.2189C30.1354 36.2189 30.3494 35.8551 30.3494 35.4064C30.3494 34.9576 30.1354 34.5938 29.8713 34.5938C29.6073 34.5938 29.3932 34.9576 29.3932 35.4064C29.3932 35.8551 29.6073 36.2189 29.8713 36.2189Z" fill="#263238"/>
<path d="M23.9565 34.8362C23.9565 34.8362 24.8137 33.6891 26.7227 33.7847" stroke="#263238" stroke-width="0.4" stroke-linecap="round" stroke-linejoin="round"/>
<path d="M28.345 32.7362C28.4558 32.3117 28.7258 31.9461 29.0991 31.7153C29.4723 31.4845 29.9202 31.4063 30.3496 31.4968" stroke="#263238" stroke-width="0.4" stroke-linecap="round" stroke-linejoin="round"/>
<path d="M20.6168 37.4105C20.6168 37.4105 22.0477 38.9367 22.5258 38.1753C23.0039 37.414 22.5258 36.0756 22.6214 35.0274C22.717 33.9792 23.861 34.0714 23.4786 33.2144C23.0961 32.3574 21.771 33.31 21.771 32.354C21.771 31.398 24.3494 29.8752 26.8287 29.8752C29.308 29.8752 31.982 32.2652 34.1779 31.2102C36.3737 30.1552 35.5131 27.871 34.2735 26.8228C33.0338 25.7746 30.5511 25.8668 30.5511 25.8668C30.5511 25.8668 33.6041 24.9142 32.5557 23.9582C31.5073 23.0022 28.8333 22.9101 27.4024 23.4837C25.9715 24.0573 24.4348 24.8357 24.4348 24.8357C24.4348 24.8357 25.6744 22.8315 23.9567 23.6919C23.2829 24.0078 22.6812 24.4587 22.1889 25.0167C21.6967 25.5746 21.3243 26.2277 21.0949 26.9355C20.6168 28.1749 20.2343 29.0319 20.2343 29.0319C20.2343 29.0319 19.0902 28.1749 18.2331 28.5573C17.3759 28.9397 18.9161 29.2402 18.9161 29.2402C18.9161 29.2402 16.9114 30.3874 17.2086 31.9135C17.5057 33.4397 19.3088 35.6317 19.7869 35.9185C20.265 36.2053 20.6168 37.4105 20.6168 37.4105Z" fill="#263238" stroke="#263238" stroke-width="0.4" stroke-linecap="round" stroke-linejoin="round"/>
<path d="M30.3494 53.3417V49.3367C30.3494 48.9543 32.8321 48.7631 32.8321 48.7631L32.9243 49.3367L31.8759 49.9069L32.5862 51.4911C32.5862 51.4911 36.1686 49.1455 36.5511 49.6235C36.7031 49.8538 36.776 50.1273 36.7587 50.4026C36.7415 50.678 36.635 50.9402 36.4555 51.1497C36.2661 51.367 36.1356 51.6291 36.0764 51.9111C36.0764 51.9111 36.1686 54.4889 35.5027 54.7723C34.8367 55.0557 31.3022 56.0151 31.3022 56.0151C28.5053 59.3269 25.6776 62.6729 22.3138 65.4351C20.9478 66.5618 19.312 68.4636 17.5635 67.3949C15.8833 66.3706 15.9243 63.7928 16.9898 62.4066C18.8988 59.9244 21.4293 59.4464 23.9633 58.0397C26.2522 56.704 28.3929 55.1292 30.3494 53.3417Z" fill="white" stroke="#263238" stroke-width="0.4" stroke-linecap="round" stroke-linejoin="round"/>
<path d="M32.5863 51.491L33.2693 45.2429C33.2836 45.0601 33.3652 44.8891 33.4983 44.763C33.6314 44.6368 33.8065 44.5645 33.9899 44.56L36.2711 44.3961C36.3712 44.3938 36.4707 44.4117 36.5636 44.4487C36.6566 44.4858 36.7412 44.5411 36.8123 44.6116C36.8834 44.682 36.9395 44.7661 36.9774 44.8587C37.0153 44.9513 37.0341 45.0506 37.0327 45.1507L36.5545 49.6371L32.5863 51.491Z" fill="#263238" stroke="#263238" stroke-width="0.4" stroke-linecap="round" stroke-linejoin="round"/>
<path d="M127.125 102.419C127.125 102.419 129.037 97.6386 127.808 87.7371C127.272 83.3873 127.654 74.4521 121.705 74.1619C115.357 73.8546 112.765 74.4829 106.402 74.5546C83.4533 74.8175 66.5762 77.105 52.5848 75.7564C41.3391 74.6707 31.6369 72.8884 27.655 76.8865C23.6731 80.8847 24.0043 89.3999 24.3527 91.0524C24.701 92.7049 27.3033 103.996 27.3033 103.996L126.517 103.549L127.125 102.419Z" fill="#999999" stroke="#263238" stroke-width="0.4" stroke-linecap="round" stroke-linejoin="round"/>
<path d="M28.6078 99.5641C28.6078 99.5641 26.6954 91.9161 23.5638 89.83C20.4322 87.7439 16.3512 90.0041 12.9772 93.3057C9.6031 96.6074 8.62982 100.52 10.0232 107.038C11.4165 113.556 15.4872 123.201 16.7166 127.548C17.946 131.894 17.9324 134.154 22.0168 135.544C26.1011 136.933 30.0148 137.022 32.5351 133.543C35.0554 130.064 34.3621 114.082 32.3609 108.079C30.3597 102.077 28.6078 99.5641 28.6078 99.5641Z" fill="#B2B2B2" stroke="#263238" stroke-width="0.4" stroke-linecap="round" stroke-linejoin="round"/>
<path d="M28.2595 133.284C26.5212 129.996 21.3065 106.437 21.3918 103.214C21.4772 99.991 18.8715 94.6101 15.6546 94.1731C13.0045 93.8316 10.8735 96.3514 10.2212 97.2459C9.19674 99.7964 9.12161 102.886 10.0061 107.031C11.396 113.549 11.2219 123.396 12.4376 127.742C13.6534 132.089 13.6431 134.356 17.7412 135.745C20.4288 136.66 27.3033 136.807 29.4923 135.95C29.1432 135.034 28.7313 134.143 28.2595 133.284Z" fill="#8A8A8A" stroke="#263238" stroke-width="0.4" stroke-linecap="round" stroke-linejoin="round"/>
<path d="M121.9 99.4173C121.9 99.4173 123.922 91.7693 127.224 89.6831C130.526 87.597 134.846 89.8573 138.425 93.1589C142.004 96.4605 143.018 100.373 141.55 106.891C140.081 113.409 135.765 123.054 134.477 127.401C133.19 131.747 133.193 134.007 128.877 135.397C124.56 136.787 120.431 136.875 117.768 133.4C115.104 129.924 115.842 113.938 117.952 107.932C120.063 101.927 121.9 99.4173 121.9 99.4173Z" fill="#B2B2B2" stroke="#263238" stroke-width="0.4" stroke-linecap="round" stroke-linejoin="round"/>
<path d="M122.262 133.622C124.096 130.276 129.604 106.434 129.515 103.18C129.427 99.9262 132.176 94.4872 135.56 94.0297C138.36 93.6644 140.597 96.2319 141.297 97.1435C142.393 99.7247 142.462 102.852 141.53 107.045C140.058 113.645 137.814 123.41 136.526 127.811C135.239 132.212 135.242 134.496 130.926 135.906C128.088 136.831 123.259 137.186 120.944 136.316C121.32 135.388 121.761 134.488 122.262 133.622Z" fill="#8A8A8A" stroke="#263238" stroke-width="0.4" stroke-linecap="round" stroke-linejoin="round"/>
<path d="M129.56 114.239C129.56 114.239 127.388 127.732 125.994 132.252C124.601 136.773 125.038 136.773 122.692 136.947C120.346 137.121 31.3022 136.872 28.519 136.438C25.7357 136.005 24.2604 133.915 23.4784 130.976C22.6964 128.036 21.9143 114.611 21.9143 114.611L125.82 114.269L129.56 114.239Z" fill="#999999" stroke="#263238" stroke-width="0.4" stroke-linecap="round" stroke-linejoin="round"/>
<path d="M21.9176 116.735C22.1157 117.216 22.4349 117.638 22.8442 117.959C23.2535 118.28 23.739 118.49 24.2535 118.568C26.0908 118.91 73.1603 119.405 74.6595 119.405C76.1587 119.405 114.551 119.405 120.728 118.903C126.906 118.401 130.048 117.585 129.56 114.239C129.071 110.893 129.239 113.556 129.239 113.556L20.917 114.898L21.9176 116.735Z" fill="#263238"/>
<path d="M28.8674 99.1272C28.8674 99.1272 22.1808 103.648 20.2615 105.734C18.3422 107.82 19.3941 109.469 19.5785 111.036C19.7629 112.603 20.5347 116.076 22.792 117.291C25.0494 118.507 53.1312 117.974 69.4756 118.51C85.82 119.046 120.954 118.411 125.315 117.363C129.676 116.315 130.694 110.93 130.953 107.888C131.213 104.846 128.095 100.588 126.356 100.069C124.618 99.5505 110.159 99.472 94.0775 99.8203C77.9961 100.169 70.6265 101.568 52.2843 101.22C33.9421 100.872 33.0406 98.3453 28.8674 99.1272Z" fill="#B2B2B2"/>
<path d="M19.5683 111.036C19.7391 112.6 20.5245 116.076 22.7819 117.291C25.0392 118.507 53.121 117.974 69.4654 118.51C85.8098 119.046 120.954 118.411 125.315 117.363C129.676 116.315 132.268 112.149 132.527 109.107C132.557 108.647 132.507 108.184 132.377 107.741C131.762 108.353 130.584 107.69 129.188 107.492C126.09 107.045 93.5004 109.073 69.1102 109.073C42.6232 109.073 33.9934 109.073 20.8865 106.553C18.9365 106.178 20.2752 105.724 20.2752 105.724C18.3491 107.82 19.3941 109.469 19.5683 111.036Z" fill="#999999"/>
<path d="M28.8674 99.1272C28.8674 99.1272 22.1808 103.648 20.2615 105.734C18.3422 107.82 19.3941 109.469 19.5785 111.036C19.7629 112.603 20.5347 116.076 22.792 117.291C25.0494 118.507 53.1312 117.974 69.4756 118.51C85.82 119.046 120.954 118.411 125.315 117.363C129.676 116.315 130.694 110.93 130.953 107.888C131.213 104.846 128.095 100.588 126.356 100.069C124.618 99.5505 110.159 99.472 94.0775 99.8203C77.9961 100.169 70.6265 101.568 52.2843 101.22C33.9421 100.872 33.0406 98.3453 28.8674 99.1272Z" stroke="#263238" stroke-width="0.4" stroke-linecap="round" stroke-linejoin="round"/>
<path d="M76.1862 76.0978L76.0496 100.725C76.0496 100.725 74.9738 107.461 75.1138 108.394C75.2539 109.326 75.247 118.486 75.247 118.486" stroke="#263238" stroke-width="0.4" stroke-linecap="round" stroke-linejoin="round"/>
<path d="M119.851 82.3735C120.899 82.2121 121.972 82.3992 122.904 82.9061C124.27 83.746 126.493 86.4945 126.493 86.4945L128.86 79.9289C128.86 79.9289 127.791 77.9452 127.791 77.2589C127.791 76.5726 127.716 75.8932 127.716 75.5791C127.716 75.2649 128.399 74.9679 128.399 75.2752C128.447 75.6863 128.523 76.0936 128.628 76.4941L129.413 77.4159L129.871 73.6022C129.871 73.6022 130.25 73.1447 130.403 73.5237C130.557 73.9026 130.492 75.8693 130.492 75.8693H130.871L131.233 72.7793C131.233 72.7793 131.343 72.6325 131.708 72.6701C131.752 72.6686 131.795 72.678 131.835 72.6976C131.874 72.7172 131.908 72.7464 131.933 72.7823C131.958 72.8183 131.974 72.86 131.978 72.9036C131.983 72.9472 131.977 72.9914 131.961 73.032L131.708 75.9444L131.926 75.9785L132.534 73.2915C132.534 73.2915 132.79 73.0388 132.971 73.1822C133.091 73.3113 133.155 73.4812 133.152 73.6568L132.763 76.4531L133.627 74.8552C133.627 74.8552 133.989 74.7118 133.989 75.002C133.727 75.9668 133.401 76.9134 133.016 77.8359C132.944 77.9452 131.561 80.4888 131.561 80.4888C131.561 80.4888 130.434 87.2184 129.925 88.6831C129.416 90.1478 128.324 91.4453 126.76 91.5204C125.195 91.5955 123.413 89.8132 123.413 89.8132L119.851 82.3735Z" fill="white" stroke="#263238" stroke-width="0.4" stroke-linecap="round" stroke-linejoin="round"/>
<path d="M130.26 79.5771C130.26 79.5771 130.526 78.3924 130.851 78.0168C131.146 77.7347 131.494 77.5142 131.875 77.3681" stroke="#263238" stroke-width="0.4" stroke-linecap="round" stroke-linejoin="round"/>
<path d="M114.728 79.7753C114.728 79.7753 114.578 81.9127 114.424 82.5068C114.271 83.1008 113.355 82.9643 112.515 82.9643C111.675 82.9643 111.371 84.33 111.218 85.5591C111.064 86.7883 109.234 100.367 109.537 102.289C109.841 104.211 113.052 106.26 116.562 106.489C120.073 106.717 125.035 106.181 127.022 104.655C129.01 103.129 129.235 101.924 128.778 100.381C128.32 98.8373 127.098 97.2531 126.486 96.5668C125.875 95.8805 125.264 95.0406 125.264 95.0406C125.264 95.0406 121.828 83.6676 120.988 82.8277C120.148 81.9878 118.471 82.3702 118.471 82.3702L117.935 79.5432L114.728 79.7753Z" fill="#D2E558" stroke="#263238" stroke-width="0.4" stroke-linecap="round" stroke-linejoin="round"/>
<path d="M111.539 100.974C111.539 100.974 115.149 93.0294 124.366 95.5116" stroke="#263238" stroke-width="0.4" stroke-linecap="round" stroke-linejoin="round"/>
<path d="M113.878 96.6451C113.878 96.6451 116.484 94.5077 119.288 94.576" stroke="#263238" stroke-width="0.4" stroke-linecap="round" stroke-linejoin="round"/>
<path d="M119.144 82.2916C118.92 82.3005 118.698 82.3279 118.478 82.3735L117.942 79.5465L114.735 79.7753C114.735 79.7753 114.585 81.9126 114.431 82.5067C114.356 82.8106 114.09 82.9232 113.748 82.9642C114.005 83.6471 114.944 85.74 117.105 85.8664C119.021 85.9961 119.189 83.5617 119.144 82.2916Z" fill="white" stroke="#263238" stroke-width="0.4" stroke-linecap="round" stroke-linejoin="round"/>
<path d="M114.582 81.513C115.159 81.6432 115.748 81.7141 116.34 81.7247C117.007 81.7396 117.67 81.6367 118.301 81.4208L117.959 79.5361L114.752 79.7649C114.752 79.7649 114.67 80.7106 114.582 81.513Z" fill="#263238" stroke="#263238" stroke-width="0.4" stroke-linecap="round" stroke-linejoin="round"/>
<path d="M122.829 66.9544C122.829 66.9544 125.349 65.1209 128.402 65.5887C131.455 66.0564 131.227 70.8569 130.082 72.1543C128.938 73.4518 126.189 72.6118 126.189 72.0007C126.189 71.3895 126.647 69.3307 125.506 68.245C125.203 67.9396 124.824 67.7217 124.407 67.6141C123.991 67.5065 123.553 67.5134 123.14 67.6338L122.829 66.9544Z" fill="#263238" stroke="#263238" stroke-width="0.4" stroke-linecap="round" stroke-linejoin="round"/>
<path d="M110.63 72.5267C110.548 73.2063 110.523 73.8915 110.555 74.5753C110.63 75.3401 109.561 75.8727 110.248 77.1701C110.934 78.4675 112.539 80.6834 116.357 80.7585C120.175 80.8337 122.692 77.2486 122.692 73.889C122.692 70.5293 118.485 67.9447 116.262 67.9447C114.039 67.9447 111.607 69.8533 111.139 70.6181C110.846 71.2146 110.673 71.8632 110.63 72.5267Z" fill="white" stroke="#263238" stroke-width="0.4" stroke-linecap="round" stroke-linejoin="round"/>
<path d="M115.043 75.3673C115.068 75.5004 115.052 75.6382 114.996 75.7617C114.94 75.8852 114.847 75.9884 114.731 76.0574C114.614 76.1264 114.479 76.1577 114.344 76.1471C114.208 76.1365 114.08 76.0845 113.975 75.9982C113.871 75.9118 113.795 75.7954 113.76 75.6647C113.724 75.5339 113.729 75.3954 113.775 75.2678C113.82 75.1402 113.904 75.0298 114.015 74.9517C114.126 74.8736 114.258 74.8315 114.394 74.8312C114.551 74.8178 114.706 74.8665 114.828 74.9667C114.949 75.067 115.026 75.2108 115.043 75.3673Z" stroke="#263238" stroke-width="0.4" stroke-linecap="round" stroke-linejoin="round"/>
<path d="M113.209 76.5725C113.209 76.5725 114.127 77.6412 115.958 76.6476" stroke="#263238" stroke-width="0.4" stroke-linecap="round" stroke-linejoin="round"/>
<path d="M112.751 74.589C113.004 74.589 113.209 74.2466 113.209 73.8242C113.209 73.4018 113.004 73.0594 112.751 73.0594C112.498 73.0594 112.293 73.4018 112.293 73.8242C112.293 74.2466 112.498 74.589 112.751 74.589Z" fill="#263238"/>
<path d="M116.494 73.8991C116.494 74.3224 116.286 74.6639 116.033 74.6639C115.78 74.6639 115.575 74.3224 115.575 73.8991C115.575 73.4757 115.78 73.1377 116.033 73.1377C116.286 73.1377 116.494 73.4791 116.494 73.8991Z" fill="#263238"/>
<path d="M111.996 72.5266C112.19 72.3249 112.432 72.1767 112.699 72.0965C112.967 72.0163 113.251 72.0069 113.523 72.0691" stroke="#263238" stroke-width="0.4" stroke-linecap="round" stroke-linejoin="round"/>
<path d="M115.411 71.9906C115.411 71.9906 116.859 71.6868 117.317 72.9842" stroke="#263238" stroke-width="0.4" stroke-linecap="round" stroke-linejoin="round"/>
<path d="M115.346 68.4056C115.346 68.4056 117.484 73.1378 119.393 74.3567C121.302 75.5756 123.133 74.7391 123.44 74.0528C124.248 72.4686 124.412 70.6336 123.898 68.9314C123.133 66.3365 121.531 64.6567 119.011 64.8103C116.491 64.964 113.591 67.0228 113.591 67.0228L115.346 68.4056Z" fill="#263238" stroke="#263238" stroke-width="0.4" stroke-linecap="round" stroke-linejoin="round"/>
<path d="M116.262 68.6344C116.262 68.6344 111.314 72.373 110.385 73.1378C109.456 73.9026 108.247 73.4417 107.407 70.6932C106.567 67.9447 108.325 65.6571 110.692 65.6571C113.059 65.6571 115.729 67.173 115.729 67.173" fill="#263238"/>
<path d="M116.262 68.6344C116.262 68.6344 111.314 72.373 110.385 73.1378C109.456 73.9026 108.247 73.4417 107.407 70.6932C106.567 67.9447 108.325 65.6571 110.692 65.6571C113.059 65.6571 115.729 67.173 115.729 67.173" stroke="#263238" stroke-width="0.4" stroke-linecap="round" stroke-linejoin="round"/>
<path d="M120.493 75.2613C120.493 75.2613 121.712 73.2128 122.86 73.3527C124.007 73.4927 123.392 76.33 122.781 77.0163C122.17 77.7025 121.026 76.9412 121.026 76.9412" fill="white"/>
<path d="M120.493 75.2613C120.493 75.2613 121.712 73.2128 122.86 73.3527C124.007 73.4927 123.392 76.33 122.781 77.0163C122.17 77.7025 121.026 76.9412 121.026 76.9412" stroke="#263238" stroke-width="0.4" stroke-linecap="round" stroke-linejoin="round"/>
<path d="M113.591 84.2036C113.541 84.0068 113.45 83.8229 113.323 83.6639C113.197 83.5048 113.039 83.3741 112.859 83.2804C112.679 83.1866 112.481 83.1319 112.278 83.1198C112.075 83.1076 111.872 83.1384 111.682 83.21C110.156 83.6709 109.633 87.0272 109.24 89.1645C108.848 91.3019 106.416 103.44 106.416 103.44C106.416 103.44 103.896 103.819 102.827 104.123C101.758 104.426 102.598 104.58 104.125 104.734C105.651 104.887 106.566 105.038 106.566 105.038C106.566 105.038 104.89 105.877 106.416 105.877C107.943 105.877 108.858 104.884 109.012 104.512C109.165 104.14 113.287 88.7104 113.591 86.9555C113.895 85.2005 113.591 84.2036 113.591 84.2036Z" fill="white" stroke="#263238" stroke-width="0.4" stroke-linecap="round" stroke-linejoin="round"/>
<path d="M128.105 97.9016C128.105 97.9016 125.902 96.4301 123.631 97.9665C121.36 99.5029 123.095 103.709 123.563 105.181C124.031 106.652 125.834 110.855 126.705 112.993C127.576 115.13 128.307 118.456 128.508 119.07C128.71 119.685 130.311 120.074 130.977 119.941C132.551 119.443 134.074 118.793 135.523 118.002C136.322 117.469 136.523 116.533 136.055 116.332C135.588 116.131 130.977 116.199 130.977 116.199C130.977 116.199 130.11 113.467 129.977 111.391C129.843 109.316 129.041 103.31 128.976 101.306C128.911 99.3015 128.389 98.3148 128.105 97.9016Z" fill="white" stroke="#263238" stroke-width="0.4" stroke-linecap="round" stroke-linejoin="round"/>
<path d="M130.513 116.813C130.507 117.047 130.46 117.278 130.376 117.496C129.637 117.625 128.889 117.699 128.139 117.718C128.313 118.401 128.44 118.899 128.508 119.084C128.706 119.685 130.311 120.088 130.977 119.954C132.551 119.456 134.074 118.807 135.523 118.015C136.322 117.483 136.523 116.547 136.055 116.346C135.587 116.144 130.977 116.212 130.977 116.212C130.977 116.212 130.513 116.482 130.513 116.813Z" fill="#263238" stroke="#263238" stroke-width="0.4" stroke-linecap="round" stroke-linejoin="round"/>
<path d="M124.567 118.886C124.567 118.886 124.017 118.886 122.795 110.507C122.259 106.84 122.661 100.851 121.258 98.8472C119.854 96.843 115.452 97.4474 115.452 101.753C115.452 106.058 119.458 115.478 120.575 118.182C121.692 120.886 121.978 122.59 122.965 122.792C123.952 122.993 127.876 121.989 129.379 120.989C130.882 119.988 131.182 118.599 130.181 118.599C129.181 118.599 124.567 118.886 124.567 118.886Z" fill="white" stroke="#263238" stroke-width="0.4" stroke-linecap="round" stroke-linejoin="round"/>
<path d="M123.884 119.302C123.816 119.473 123.79 119.657 123.807 119.84C123.825 120.023 123.887 120.199 123.987 120.354C124.174 120.559 123.515 120.661 121.504 120.695C121.965 121.924 122.32 122.672 122.962 122.802C123.966 123.003 127.873 121.999 129.376 120.999C130.878 119.999 131.179 118.609 130.178 118.609C129.177 118.609 124.567 118.91 124.567 118.91C124.433 118.927 124.304 118.97 124.186 119.038C124.069 119.105 123.966 119.195 123.884 119.302Z" fill="#263238" stroke="#263238" stroke-width="0.4" stroke-linecap="round" stroke-linejoin="round"/>
<path d="M90.9254 54.5401C90.8606 52.9881 90.2146 51.517 89.1154 50.4191C87.3054 48.7119 83.286 48.3091 81.3769 50.921C79.4679 53.5329 79.4679 55.6464 80.1714 56.1483L80.8749 56.6502C80.8749 56.6502 79.97 58.3573 80.974 59.1631C81.978 59.9688 82.7839 60.7712 82.9854 59.8664C83.1869 58.9616 81.6775 57.053 83.9894 55.5439C86.3014 54.0348 90.9254 54.5401 90.9254 54.5401Z" fill="#263238" stroke="#263238" stroke-width="0.4" stroke-linecap="round" stroke-linejoin="round"/>
<path d="M89.8192 52.4232C89.8192 52.4232 92.8346 49.9103 94.5422 52.0203C96.2497 54.1304 92.7356 56.8447 92.2336 57.1418C91.7316 57.4388 89.7201 53.3246 89.7201 53.3246C89.7201 53.3246 89.2181 52.9251 89.8192 52.4232Z" fill="#263238" stroke="#263238" stroke-width="0.4" stroke-linecap="round" stroke-linejoin="round"/>
<path d="M92.5681 57.6505C92.5681 57.6505 93.7053 55.9775 94.3064 57.3808C94.9074 58.7841 93.6234 60.7268 93.036 61.1365C92.4486 61.5462 92.5681 57.6505 92.5681 57.6505Z" fill="white" stroke="#263238" stroke-width="0.4" stroke-linecap="round" stroke-linejoin="round"/>
<path d="M82.3334 59.3202C82.3334 59.3202 81.2611 56.8483 80.5268 57.917C79.7926 58.9856 80.5951 61.7956 81.9987 61.7956C82.1807 61.507 82.3156 61.1912 82.3983 60.8601" fill="white"/>
<path d="M82.3334 59.3202C82.3334 59.3202 81.2611 56.8483 80.5268 57.917C79.7926 58.9856 80.5951 61.7956 81.9987 61.7956C82.1807 61.507 82.3156 61.1912 82.3983 60.8601" stroke="#263238" stroke-width="0.4" stroke-linecap="round" stroke-linejoin="round"/>
<path d="M98.6265 83.5616C97.4551 80.4683 99.1626 72.3662 96.4955 71.0858C93.8283 69.8054 90.0991 69.3787 90.0991 69.3787L87.0051 69.4913L83.9111 69.3787C83.9111 69.3787 80.1784 69.8054 77.5113 71.0858C74.8442 72.3662 76.5517 80.4683 75.3803 83.5616C74.209 86.655 73.2459 90.7009 73.6728 93.2616C74.0997 95.8223 75.592 96.7783 76.7668 97.0993C77.5728 97.3178 83.4296 97.2358 87.0119 97.1641C90.5841 97.2358 96.4408 97.3178 97.257 97.0993C98.4284 96.7783 99.9208 95.8189 100.348 93.2616C100.775 90.7043 99.8012 86.6345 98.6265 83.5616Z" fill="#D2E558" stroke="#263238" stroke-width="0.4" stroke-linecap="round" stroke-linejoin="round"/>
<path d="M80.1647 84.6268C80.1647 84.6268 87.6198 80.953 93.5414 83.6025" stroke="#263238" stroke-width="0.4" stroke-linecap="round" stroke-linejoin="round"/>
<path d="M84.9663 81.0555C84.9663 81.0555 88.5384 80.5433 90.9904 81.8715" stroke="#263238" stroke-width="0.4" stroke-linecap="round" stroke-linejoin="round"/>
<path d="M85.359 67.412C85.359 67.412 83.2861 68.0949 82.9514 69.0201C82.6167 69.9454 81.9474 72.4959 82.0157 73.6328C82.084 74.7698 82.7499 75.3707 83.0846 74.8381C83.4192 74.3055 86.6294 72.8988 87.0323 72.6973C87.4353 72.4959 89.9078 73.2334 90.3757 73.766C90.8435 74.2986 92.1822 75.7736 92.3837 75.2376C92.5852 74.7015 92.3837 72.2944 91.7007 70.1571C91.0177 68.0198 90.4303 67.6817 89.2248 67.3471C88.0193 67.0125 85.359 67.412 85.359 67.412Z" fill="white" stroke="#263238" stroke-width="0.4" stroke-linecap="round" stroke-linejoin="round"/>
<path d="M84.6078 67.2787C84.6078 67.2787 84.7409 70.6247 85.2908 72.3626C85.8406 74.1005 87.2954 76.4427 87.9647 76.1183C88.6341 75.794 89.3717 72.7041 89.703 71.4374C89.9633 70.1789 90.1424 68.905 90.2392 67.6236C90.2392 67.6236 85.4752 67.9479 84.6078 67.2787Z" fill="white" stroke="#263238" stroke-width="0.4" stroke-linecap="round" stroke-linejoin="round"/>
<path d="M90.2255 67.6134C90.2255 67.6134 85.4752 67.9548 84.6078 67.272C84.6078 67.272 84.6453 68.1836 84.7546 69.3035C86.3458 69.8166 88.0369 69.9407 89.6859 69.6654C89.802 69.6415 89.9079 69.6108 90.0274 69.5834C90.1401 68.5626 90.2255 67.6134 90.2255 67.6134Z" fill="#263238" stroke="#263238" stroke-width="0.4" stroke-linecap="round" stroke-linejoin="round"/>
<path d="M82.248 56.0047C82.248 56.0047 81.1108 64.9945 82.248 66.5446C83.3852 68.0947 87.309 68.9346 89.6859 68.402C92.0628 67.8693 93.2 66.3534 93.3058 63.3386C93.4117 60.3238 92.5819 55.3833 91.5471 54.6629C90.5123 53.9425 87.9306 53.007 85.6562 53.7308C83.3817 54.4546 82.5553 55.1784 82.248 56.0047Z" fill="white" stroke="#263238" stroke-width="0.4" stroke-linecap="round" stroke-linejoin="round"/>
<path d="M85.6595 53.1744C85.6595 53.1744 84.9765 55.7624 83.3441 56.5887C81.7117 57.4149 82.1181 55.2229 82.5279 54.0006" fill="#263238"/>
<path d="M85.6595 53.1744C85.6595 53.1744 84.9765 55.7624 83.3441 56.5887C81.7117 57.4149 82.1181 55.2229 82.5279 54.0006" stroke="#263238" stroke-width="0.4" stroke-linecap="round" stroke-linejoin="round"/>
<path d="M84.7102 59.2246C84.7102 59.2246 85.8747 58.2003 86.7592 59.088" stroke="#263238" stroke-width="0.4" stroke-linecap="round" stroke-linejoin="round"/>
<path d="M89.1735 59.0164C89.1735 59.0164 90.1331 57.7121 91.1645 59.0881" stroke="#263238" stroke-width="0.4" stroke-linecap="round" stroke-linejoin="round"/>
<path d="M88.4872 57.316L88.8868 61.7307C88.8868 61.7307 87.6847 62.3316 87.1485 61.1946" fill="white"/>
<path d="M88.4872 57.316L88.8868 61.7307C88.8868 61.7307 87.6847 62.3316 87.1485 61.1946" stroke="#263238" stroke-width="0.4" stroke-linecap="round" stroke-linejoin="round"/>
<path d="M84.5394 57.316C85.2404 56.8429 86.094 56.6515 86.9299 56.78" stroke="#263238" stroke-width="0.4" stroke-linecap="round" stroke-linejoin="round"/>
<path d="M88.6205 56.8483C88.9559 56.627 89.3463 56.5034 89.748 56.4913C90.1497 56.4793 90.5468 56.5792 90.8949 56.78" stroke="#263238" stroke-width="0.4" stroke-linecap="round" stroke-linejoin="round"/>
<path d="M87.5517 61.6624C87.5517 61.6624 84.782 62.1882 84.9835 62.6559C85.185 63.1237 86.0354 63.6802 86.8379 63.6187C87.6404 63.5573 88.221 62.5945 88.221 62.5945C88.221 62.5945 89.5153 64.5064 91.2331 62.8574C91.7829 62.3316 88.8869 61.7272 88.8869 61.7272C88.8869 61.7272 87.9512 62.1301 87.5517 61.6624Z" fill="#263238"/>
<path d="M98.4421 94.4634C98.4421 94.4634 98.2372 92.664 91.8067 91.1822C85.3761 89.7004 80.6771 91.073 78.529 92.664C76.3809 94.2551 75.0559 95.3101 74.2397 98.1679C73.4235 101.026 73.2152 106.632 79.6525 108.114C86.0899 109.595 96.294 109.374 99.2549 106.471C104.032 101.794 99.3607 95.5115 98.4421 94.4634Z" fill="#263238" stroke="#263238" stroke-width="0.4" stroke-linecap="round" stroke-linejoin="round"/>
<path d="M91.4345 93.3742C91.4345 93.3742 89.4469 93.1898 88.8766 93.0635C88.3063 92.9371 86.3392 94.0161 85.2601 94.5863C84.4395 95.0831 83.8121 95.8439 83.4809 96.7441C83.4809 96.9353 83.293 97.8844 83.6106 98.0142C83.9282 98.1439 85.5128 97.7581 85.9568 97.7581C86.4007 97.7581 88.8766 96.9967 89.5118 97.0753C90.147 97.1538 92.4385 95.8529 92.4385 95.8529L91.4345 93.3742Z" fill="white" stroke="#263238" stroke-width="0.4" stroke-linecap="round" stroke-linejoin="round"/>
<path d="M88.815 96.1092C88.815 96.1092 87.0358 96.3004 86.5918 96.6794C86.1099 97.0364 85.6006 97.3549 85.0687 97.632" stroke="#263238" stroke-width="0.4" stroke-linecap="round" stroke-linejoin="round"/>
<path d="M88.0534 95.1701C87.284 95.3895 86.5391 95.6869 85.8302 96.0578C85.1649 96.5684 84.5487 97.14 83.9895 97.765" stroke="#263238" stroke-width="0.4" stroke-linecap="round" stroke-linejoin="round"/>
<path d="M87.671 94.3337C87.671 94.3337 85.1951 95.2214 84.7511 95.5389C84.3008 95.9114 83.8764 96.3141 83.4807 96.7442" stroke="#263238" stroke-width="0.4" stroke-linecap="round" stroke-linejoin="round"/>
<path d="M96.417 70.659C96.417 70.659 99.511 71.1916 101.003 72.7895C102.496 74.3874 104.309 82.4895 105.163 85.5829C106.017 88.6762 106.444 93.3196 106.017 94.2791C105.59 95.2385 103.681 95.853 102.093 95.853C100.505 95.853 92.1618 96.034 92.1618 96.034L90.9905 93.4733L99.3607 89.5776L97.2571 77.3749" fill="#D2E558"/>
<path d="M96.417 70.659C96.417 70.659 99.511 71.1916 101.003 72.7895C102.496 74.3874 104.309 82.4895 105.163 85.5829C106.017 88.6762 106.444 93.3196 106.017 94.2791C105.59 95.2385 103.681 95.853 102.093 95.853C100.505 95.853 92.1618 96.034 92.1618 96.034L90.9905 93.4733L99.3607 89.5776L97.2571 77.3749" stroke="#263238" stroke-width="0.4" stroke-linecap="round" stroke-linejoin="round"/>
<path d="M78.7919 70.659C78.7919 70.659 75.6979 71.1916 74.2055 72.7895C72.7132 74.3874 70.8998 82.4895 70.0494 85.5829C69.1991 88.6762 68.7073 92.6095 69.1342 93.5689C69.5611 94.5283 71.8013 96.0203 73.3996 96.0203C74.9978 96.0203 82.7909 95.8394 82.7909 95.8394L83.795 93.3743L75.9609 89.0927L77.9382 77.3749" fill="#D2E558"/>
<path d="M78.7919 70.659C78.7919 70.659 75.6979 71.1916 74.2055 72.7895C72.7132 74.3874 70.8998 82.4895 70.0494 85.5829C69.1991 88.6762 68.7073 92.6095 69.1342 93.5689C69.5611 94.5283 71.8013 96.0203 73.3996 96.0203C74.9978 96.0203 82.7909 95.8394 82.7909 95.8394L83.795 93.3743L75.9609 89.0927L77.9382 77.3749" stroke="#263238" stroke-width="0.4" stroke-linecap="round" stroke-linejoin="round"/>
<path d="M83.795 93.3742C83.795 93.3742 85.7792 93.1898 86.3495 93.0635C86.9198 92.9371 88.8903 94.0161 89.9694 94.5863C90.7895 95.0828 91.4158 95.8439 91.7453 96.7441C91.7453 96.9353 91.9365 97.8844 91.6189 98.0142C91.3013 98.1439 89.7133 97.7581 89.2693 97.7581C88.8254 97.7581 86.3495 96.9967 85.7143 97.0753C85.0791 97.1538 82.791 95.8529 82.791 95.8529L83.795 93.3742Z" fill="white" stroke="#263238" stroke-width="0.4" stroke-linecap="round" stroke-linejoin="round"/>
<path d="M86.4143 96.1092C86.4143 96.1092 88.1902 96.3004 88.6341 96.6794C89.1165 97.0356 89.6258 97.3541 90.1572 97.632" stroke="#263238" stroke-width="0.4" stroke-linecap="round" stroke-linejoin="round"/>
<path d="M87.1758 95.1701C87.9443 95.3891 88.6881 95.6865 89.3956 96.0578C90.0617 96.5675 90.6781 97.1391 91.2363 97.765" stroke="#263238" stroke-width="0.4" stroke-linecap="round" stroke-linejoin="round"/>
<path d="M87.5549 94.3337C87.5549 94.3337 90.0308 95.2214 90.4747 95.5389C90.9251 95.9114 91.3495 96.3141 91.7451 96.7442" stroke="#263238" stroke-width="0.4" stroke-linecap="round" stroke-linejoin="round"/>
<path d="M85.1678 99.735C85.1678 99.735 80.0624 95.0404 75.7765 94.938C71.4906 94.8355 68.9464 97.8982 69.1376 102.593C69.3289 107.287 74.1339 138.719 74.1339 138.719L79.0344 138.617L80.2673 102.9" fill="#263238"/>
<path d="M85.1678 99.735C85.1678 99.735 80.0624 95.0404 75.7765 94.938C71.4906 94.8355 68.9464 97.8982 69.1376 102.593C69.3289 107.287 74.1339 138.719 74.1339 138.719L79.0344 138.617L80.2673 102.9" stroke="#263238" stroke-width="0.4" stroke-linecap="round" stroke-linejoin="round"/>
<path d="M74.1338 138.719C74.1338 138.719 71.4769 140.556 70.7632 142.7C70.0494 144.844 74.1338 144.233 75.8857 142.499C77.0492 141.297 78.1082 139.998 79.0515 138.617L74.1338 138.719Z" fill="white" stroke="#263238" stroke-width="0.4" stroke-linecap="round" stroke-linejoin="round"/>
<path d="M89.3445 99.735C89.3445 99.735 94.45 95.0404 98.7393 94.938C103.029 94.8355 105.569 97.8982 105.375 102.593C105.18 107.287 98.5242 138.719 98.5242 138.719L93.6236 138.617L94.2383 102.9" fill="#263238"/>
<path d="M89.3445 99.735C89.3445 99.735 94.45 95.0404 98.7393 94.938C103.029 94.8355 105.569 97.8982 105.375 102.593C105.18 107.287 98.5242 138.719 98.5242 138.719L93.6236 138.617L94.2383 102.9" stroke="#263238" stroke-width="0.4" stroke-linecap="round" stroke-linejoin="round"/>
<path d="M98.5241 138.719C98.5241 138.719 101.181 140.556 101.895 142.7C102.609 144.844 98.5241 144.233 96.7893 142.499C95.6258 141.297 94.5668 139.998 93.6235 138.617L98.5241 138.719Z" fill="white" stroke="#263238" stroke-width="0.4" stroke-linecap="round" stroke-linejoin="round"/>
<path d="M60.5041 59.4804C60.5041 59.4804 63.1986 58.5825 63.6118 56.9948C64.025 55.4072 62.5087 50.0843 57.9463 48.2167C53.3838 46.3491 45.9185 47.6636 43.3606 50.5691C40.8028 53.4747 43.5006 56.1652 43.5689 56.7866C43.6372 57.408 41.5643 57.8108 41.2194 60.4501C40.8745 63.0893 44.2622 65.7695 47.9231 66.5958C51.584 67.4221 53.3872 66.3875 53.3872 65.0047C53.3872 63.622 52.5573 62.3792 54.1487 61.3446C55.7401 60.3101 57.533 58.3742 58.2946 58.4425C59.0561 58.5108 60.5041 59.4804 60.5041 59.4804Z" fill="#263238"/>
<path d="M54.6883 50.9209C52.8607 53.8622 50.0929 56.1 46.8337 57.2715C41.4823 59.1118 39.6451 57.7734 39.6451 57.7734" stroke="#636363" stroke-width="0.4" stroke-linecap="round" stroke-linejoin="round"/>
<path d="M52.1785 49.7601C52.1785 49.7601 47.1652 56.4453 40.9771 56.278" stroke="#636363" stroke-width="0.4" stroke-linecap="round" stroke-linejoin="round"/>
<path d="M56.6931 50.9209C56.6931 50.9209 48.1555 63.7928 37.9684 63.7928" stroke="#636363" stroke-width="0.4" stroke-linecap="round" stroke-linejoin="round"/>
<path d="M53.1824 48.7357C53.1824 48.7357 61.6721 53.1914 63.6119 56.9812" stroke="#636363" stroke-width="0.4" stroke-linecap="round" stroke-linejoin="round"/>
<path d="M60.5041 59.4804C60.5041 59.4804 63.1986 58.5825 63.6118 56.9948C64.025 55.4072 62.5087 50.0843 57.9463 48.2167C53.3838 46.3491 45.9185 47.6636 43.3606 50.5691C40.8028 53.4747 43.5006 56.1652 43.5689 56.7866C43.6372 57.408 41.5643 57.8108 41.2194 60.4501C40.8745 63.0893 44.2622 65.7695 47.9231 66.5958C51.584 67.4221 53.3872 66.3875 53.3872 65.0047C53.3872 63.622 52.5573 62.3792 54.1487 61.3446C55.7401 60.3101 57.533 58.3742 58.2946 58.4425C59.0561 58.5108 60.5041 59.4804 60.5041 59.4804Z" stroke="#263238" stroke-width="0.4" stroke-linecap="round" stroke-linejoin="round"/>
<path d="M58.9128 72.8167C58.9128 72.8167 62.9221 73.9229 64.7867 76.5485C66.6513 79.1741 68.2427 85.4632 68.8847 88.1571C69.5268 90.8509 68.6901 93.8077 66.8357 94.774C64.9813 95.7402 61.9112 92.0425 61.1531 90.6461C60.395 89.2496 60.3915 84.2204 59.7871 80.8334C59.1826 77.4465 57.9225 73.2332 57.9225 73.2332C57.9225 73.2332 57.3248 72.5401 58.9128 72.8167Z" fill="white" stroke="#263238" stroke-width="0.4" stroke-linecap="round" stroke-linejoin="round"/>
<path d="M50.8943 64.1C50.8943 64.1 51.3109 68.2484 50.8943 69.1464C50.4776 70.0443 48.9613 71.0788 46.4035 71.9085C43.8456 72.7382 42.1176 73.4313 40.7345 75.7803C39.3514 78.1293 37.8386 90.0554 36.1037 93.1932C34.3348 96.3958 33.9215 102.944 38.1152 106.195C41.5302 108.855 53.5238 108.534 57.8063 107.902C62.0888 107.27 65.8999 107.878 67.0747 104.908C68.2495 101.937 65.8248 96.9148 64.65 95.3954C63.4753 93.876 61.1121 92.3738 61.1121 92.3738C61.1121 92.3738 62.5873 89.813 62.7 87.6757C62.9084 83.8039 58.8991 72.8167 58.8991 72.8167C58.8991 72.8167 56.4813 71.7924 55.928 70.4677C55.3748 69.1429 55.5865 67.289 55.5865 67.289L50.8943 64.1Z" fill="#D2E558" stroke="#263238" stroke-width="0.4" stroke-linecap="round" stroke-linejoin="round"/>
<path d="M44.3988 96.3992C44.3988 96.3992 51.4474 96.7065 55.2791 99.7691" stroke="#263238" stroke-width="0.4" stroke-linecap="round" stroke-linejoin="round"/>
<path d="M48.9614 90.0246C48.9614 90.0246 53.1073 90.646 56.9765 89.1949" stroke="#263238" stroke-width="0.4" stroke-linecap="round" stroke-linejoin="round"/>
<path d="M53.7287 90.646C53.7287 90.646 56.4948 90.2329 58.0828 89.2632" stroke="#263238" stroke-width="0.4" stroke-linecap="round" stroke-linejoin="round"/>
<path d="M42.6026 84.9271C44.1223 84.0291 45.9869 79.8842 46.3352 76.5655C46.6084 73.9297 45.9664 72.6049 45.6932 72.1747C43.5212 72.9122 41.9844 73.6839 40.7345 75.8075C39.8808 77.2586 38.7641 82.2742 37.7566 86.6957C39.1192 86.7025 41.2263 85.7226 42.6026 84.9271Z" fill="white" stroke="#263238" stroke-width="0.4" stroke-linecap="round" stroke-linejoin="round"/>
<path d="M55.9417 70.4677C55.3884 69.1566 55.6002 67.289 55.6002 67.289L50.8942 64.1C50.8942 64.1 51.3109 68.2484 50.8942 69.1464C50.5732 69.8292 49.5863 70.6213 47.9641 71.3247C48.251 72.5914 49.0911 75.8384 50.4127 77.1597C52.069 78.819 55.2484 79.1639 56.3549 76.9548C57.4614 74.7458 56.9081 71.7037 56.9081 71.7037L56.9354 71.632C56.5163 71.3284 56.1756 70.9293 55.9417 70.4677Z" fill="white" stroke="#263238" stroke-width="0.4" stroke-linecap="round" stroke-linejoin="round"/>
<path d="M55.5967 67.289L51.5158 64.5302L50.9591 64.8341C51.0001 65.3565 51.0513 66.0905 51.0718 66.8212C51.9768 67.8455 53.2882 69.1122 54.5039 69.3444C54.8829 69.4171 55.2697 69.4412 55.6548 69.4161C55.5509 68.7119 55.5314 67.9978 55.5967 67.289Z" fill="#263238"/>
<path d="M57.393 54.7823C57.393 54.7823 55.8733 57.3396 53.452 58.6507C52.1439 59.3897 50.7521 59.9697 49.3062 60.3784C49.3062 60.3784 49.3745 61.208 49.0296 61.208C48.6846 61.208 47.9231 59.9652 47.4416 59.8969C46.9601 59.8287 45.4369 61.8294 45.9868 62.6591C46.5009 63.404 47.2231 63.9811 48.0631 64.3185C48.7461 64.595 49.5145 63.6971 49.5145 63.6971C49.5145 63.6971 54.8351 70.1842 57.8779 68.5351C60.9207 66.886 60.709 58.3776 60.709 58.3776C60.709 58.3776 60.0192 56.51 57.393 54.7823Z" fill="white" stroke="#263238" stroke-width="0.4" stroke-linecap="round" stroke-linejoin="round"/>
<path d="M55.3545 60.1736C55.3545 60.6106 55.153 60.9657 54.9037 60.9657C54.6544 60.9657 54.4563 60.6243 54.4563 60.1736C54.4563 59.7229 54.6578 59.3781 54.9037 59.3781C55.1496 59.3781 55.3545 59.7331 55.3545 60.1736Z" fill="#263238"/>
<path d="M59.64 59.7569C59.64 60.1973 59.4385 60.5524 59.1892 60.5524C58.9399 60.5524 58.7418 60.211 58.7418 59.7569C58.7418 59.3028 58.9399 58.9648 59.1892 58.9648C59.4385 58.9648 59.64 59.3199 59.64 59.7569Z" fill="#263238"/>
<path d="M58.0146 58.9991L57.6014 60.3102C57.6014 60.3102 58.7045 60.6516 58.7045 61.2798C58.7045 61.9081 57.68 62.1778 57.4614 62.1778" stroke="#263238" stroke-width="0.4" stroke-linecap="round" stroke-linejoin="round"/>
<path d="M56.6316 64.1819C56.8549 64.3008 57.1042 64.3631 57.3573 64.3631C57.6104 64.3631 57.8596 64.3008 58.083 64.1819" stroke="#263238" stroke-width="0.4" stroke-linecap="round" stroke-linejoin="round"/>
<path d="M54.0053 58.5143C54.0053 58.5143 54.6268 57.408 55.8016 57.6846" stroke="#263238" stroke-width="0.4" stroke-linecap="round" stroke-linejoin="round"/>
<path d="M58.6362 57.8928C58.7444 57.8353 58.8631 57.8004 58.9851 57.7902C59.1072 57.78 59.23 57.7946 59.3462 57.8332C59.4625 57.8719 59.5696 57.9337 59.6613 58.0149C59.7529 58.0962 59.8271 58.1952 59.8793 58.3059" stroke="#263238" stroke-width="0.4" stroke-linecap="round" stroke-linejoin="round"/>
<path d="M56.4233 95.583C56.4233 95.583 58.7763 95.9688 58.9163 96.2659C59.0563 96.5629 59.8383 98.253 59.6266 98.7481C59.4149 99.2431 58.988 98.5364 58.848 98.0379C58.708 97.5394 57.1405 96.4093 57.1405 96.4093" fill="white"/>
<path d="M56.4233 95.583C56.4233 95.583 58.7763 95.9688 58.9163 96.2659C59.0563 96.5629 59.8383 98.253 59.6266 98.7481C59.4149 99.2431 58.988 98.5364 58.848 98.0379C58.708 97.5394 57.1405 96.4093 57.1405 96.4093" stroke="#263238" stroke-width="0.4" stroke-linecap="round" stroke-linejoin="round"/>
<path d="M56.0099 95.6241C56.0099 95.6241 58.0043 96.2421 58.199 96.4947C58.6122 97.0308 59.425 98.3623 59.2235 98.8574C59.022 99.3525 58.7454 99.0554 57.7141 97.4439C57.4367 97.0895 57.1088 96.7777 56.7408 96.5186" fill="white"/>
<path d="M56.0099 95.6241C56.0099 95.6241 58.0043 96.2421 58.199 96.4947C58.6122 97.0308 59.425 98.3623 59.2235 98.8574C59.022 99.3525 58.7454 99.0554 57.7141 97.4439C57.4367 97.0895 57.1088 96.7777 56.7408 96.5186" stroke="#263238" stroke-width="0.4" stroke-linecap="round" stroke-linejoin="round"/>
<path d="M45.3346 72.1578C45.3346 72.1578 40.6765 73.049 38.0503 75.0327C35.4241 77.0164 33.7917 87.5768 33.5151 90.1306C33.2385 92.6845 32.9482 95.0916 34.222 95.5935C35.4958 96.0954 44.9999 96.5154 46.9123 96.5154C48.8247 96.5154 54.1454 97.2187 54.5688 97.2187C54.9923 97.2187 57.475 98.779 57.9019 99.2058C58.3288 99.6326 58.3902 98.8371 58.1853 98.0689C57.9087 97.0446 56.4778 95.4467 54.7123 94.8799C52.9467 94.3131 49.9619 94.5965 48.0461 93.5347C46.1303 92.4728 41.5268 90.0487 40.8165 89.9155C40.5132 89.8452 40.2049 89.7984 39.8944 89.7756C39.8944 89.7756 43.5826 81.554 43.9344 80.3487" fill="white"/>
<path d="M45.3346 72.1578C45.3346 72.1578 40.6765 73.049 38.0503 75.0327C35.4241 77.0164 33.7917 87.5768 33.5151 90.1306C33.2385 92.6845 32.9482 95.0916 34.222 95.5935C35.4958 96.0954 44.9999 96.5154 46.9123 96.5154C48.8247 96.5154 54.1454 97.2187 54.5688 97.2187C54.9923 97.2187 57.475 98.779 57.9019 99.2058C58.3288 99.6326 58.3902 98.8371 58.1853 98.0689C57.9087 97.0446 56.4778 95.4467 54.7123 94.8799C52.9467 94.3131 49.9619 94.5965 48.0461 93.5347C46.1303 92.4728 41.5268 90.0487 40.8165 89.9155C40.5132 89.8452 40.2049 89.7984 39.8944 89.7756C39.8944 89.7756 43.5826 81.554 43.9344 80.3487" stroke="#263238" stroke-width="0.4" stroke-linecap="round" stroke-linejoin="round"/>
<path d="M56.2013 96.9317C56.2013 96.9317 57.9088 98.1369 57.9088 99.2022" stroke="#263238" stroke-width="0.4" stroke-linecap="round" stroke-linejoin="round"/>
<path d="M66.5761 90.0487C65.0539 89.6685 63.4437 89.8912 62.0819 90.6701C59.8724 91.9846 58.6259 93.2274 57.3009 93.5722C55.9758 93.9171 53.7765 93.7122 52.1168 94.4019C50.9641 94.8567 49.7876 95.2488 48.5925 95.5764C47.7627 95.853 47.831 96.4744 48.4525 96.4744C49.074 96.4744 49.9039 96.4061 49.9039 96.4061C49.9039 96.4061 48.8008 98.1337 48.8008 98.6868C48.8008 99.2399 50.4571 99.3082 51.0787 99.1682C51.7002 99.0282 52.7384 97.7172 53.0833 97.5806C53.4282 97.444 54.743 97.6489 55.7095 96.9592C56.6759 96.2695 57.0925 95.9349 57.0925 95.9349C57.0925 95.9349 61.0335 97.1777 63.9226 96.488C66.8117 95.7983 67.826 95.1428 68.6559 92.1723" fill="white"/>
<path d="M66.5761 90.0487C65.0539 89.6685 63.4437 89.8912 62.0819 90.6701C59.8724 91.9846 58.6259 93.2274 57.3009 93.5722C55.9758 93.9171 53.7765 93.7122 52.1168 94.4019C50.9641 94.8567 49.7876 95.2488 48.5925 95.5764C47.7627 95.853 47.831 96.4744 48.4525 96.4744C49.074 96.4744 49.9039 96.4061 49.9039 96.4061C49.9039 96.4061 48.8008 98.1337 48.8008 98.6868C48.8008 99.2399 50.4571 99.3082 51.0787 99.1682C51.7002 99.0282 52.7384 97.7172 53.0833 97.5806C53.4282 97.444 54.743 97.6489 55.7095 96.9592C56.6759 96.2695 57.0925 95.9349 57.0925 95.9349C57.0925 95.9349 61.0335 97.1777 63.9226 96.488C66.8117 95.7983 67.826 95.1428 68.6559 92.1723" stroke="#263238" stroke-width="0.4" stroke-linecap="round" stroke-linejoin="round"/>
<path d="M49.9176 96.4094C50.3107 95.9444 50.778 95.5475 51.3007 95.2349" stroke="#263238" stroke-width="0.4" stroke-linecap="round" stroke-linejoin="round"/>
<path d="M49.296 98.8949C49.296 98.8949 50.5425 96.5458 52.1988 95.5796" stroke="#263238" stroke-width="0.4" stroke-linecap="round" stroke-linejoin="round"/>
<path d="M50.259 99.0725C50.259 99.0725 50.761 97.1639 53.0286 95.9996" stroke="#263238" stroke-width="0.4" stroke-linecap="round" stroke-linejoin="round"/>
<path d="M51.0922 99.1714C51.2484 98.5538 51.561 97.9868 52.0001 97.5251C52.4391 97.0634 52.9898 96.7226 53.5989 96.5356" stroke="#263238" stroke-width="0.4" stroke-linecap="round" stroke-linejoin="round"/>
<path d="M64.9573 101.145C64.9573 101.145 61.8838 99.7179 58.9196 102.46C55.9553 105.201 55.9826 106.557 52.0348 112.166C48.0871 117.776 42.3771 128.074 41.1716 128.842C39.9661 129.61 36.1242 131.143 35.366 133.448C34.6079 135.752 35.7076 136.411 37.3399 135.752C38.9723 135.093 41.7283 130.375 42.1688 130.047C42.6093 129.719 51.9358 122.259 56.8739 119.405C61.8121 116.55 64.3085 113.87 66.2824 108.933C68.2563 103.996 66.7127 101.473 64.9573 101.145Z" fill="white" stroke="#263238" stroke-width="0.4" stroke-linecap="round" stroke-linejoin="round"/>
<path d="M42.0836 130.122C41.5808 129.879 41.1587 129.496 40.8678 129.019C39.4267 129.832 36.0868 131.31 35.356 133.458C34.5876 135.763 35.6975 136.421 37.3299 135.763C38.9144 135.117 41.4689 130.802 42.0836 130.122Z" fill="#263238" stroke="#263238" stroke-width="0.4" stroke-linecap="round" stroke-linejoin="round"/>
<path d="M42.7733 132.594C42.7733 132.594 48.3057 123.594 51.8163 117.998C55.327 112.402 56.9765 109.005 56.9765 106.259C56.9765 106.259 57.1199 102.22 53.9029 102.2C51.9256 102.2 48.1964 103.408 45.4541 108.687C42.7118 113.965 40.7345 131.177 40.4067 132.164C40.0789 133.15 40.0652 139.296 40.9531 140.723C41.841 142.15 43.3675 141.16 43.4768 138.087C43.5451 136.23 43.3074 134.374 42.7733 132.594Z" fill="white" stroke="#263238" stroke-width="0.4" stroke-linecap="round" stroke-linejoin="round"/>
<path d="M40.3281 132.519C40.0822 134.171 40.154 139.405 40.9531 140.713C41.8342 142.137 43.3675 141.15 43.4768 138.077C43.5435 136.225 43.3059 134.373 42.7733 132.597C42.7733 132.597 41.52 134.11 40.3281 132.519Z" fill="#263238" stroke="#263238" stroke-width="0.4" stroke-linecap="round" stroke-linejoin="round"/>
</svg>
