<svg width="145" height="147" viewBox="0 0 145 147" fill="none" xmlns="http://www.w3.org/2000/svg">
<path d="M105.982 112.636C105.982 112.636 122.986 111.577 134.688 90.6663C146.391 69.7557 144.28 37.8579 129.727 20.1389C115.173 2.41985 92.514 -3.61003 70.8971 2.06233C60.3634 4.82657 53.3394 11.9901 47.2703 20.6272C41.9816 28.1526 36.0346 35.4076 28.0296 40.1687C20.1075 44.8863 11.9587 48.6446 7.97363 57.6087C-1.76661 79.4087 5.35763 104.793 28.3828 113.347C53.1999 122.56 94.6417 117.598 105.982 112.636Z" fill="#D2E558"/>
<path opacity="0.7" d="M105.982 112.636C105.982 112.636 122.986 111.577 134.688 90.6663C146.391 69.7557 144.28 37.8579 129.727 20.1389C115.173 2.41985 92.514 -3.61003 70.8971 2.06233C60.3634 4.82657 53.3394 11.9901 47.2703 20.6272C41.9816 28.1526 36.0346 35.4076 28.0296 40.1687C20.1075 44.8863 11.9587 48.6446 7.97363 57.6087C-1.76661 79.4087 5.35763 104.793 28.3828 113.347C53.1999 122.56 94.6417 117.598 105.982 112.636Z" fill="white"/>
<path d="M22.9676 38.852H124.913C125.656 38.852 126.368 39.1469 126.892 39.6719C127.417 40.1968 127.712 40.9088 127.712 41.6511V112.545H20.1685V41.6555C20.1679 41.2875 20.2399 40.9231 20.3803 40.583C20.5208 40.2429 20.7268 39.9338 20.9868 39.6734C21.2468 39.413 21.5556 39.2065 21.8955 39.0655C22.2353 38.9246 22.5997 38.852 22.9676 38.852Z" fill="#263238"/>
<path d="M127.935 112.763H19.9505V41.6555C19.9505 40.8549 20.2683 40.0871 20.8339 39.5205C21.3996 38.954 22.167 38.6352 22.9676 38.634H124.913C125.714 38.6352 126.482 38.9539 127.048 39.5203C127.615 40.0867 127.934 40.8545 127.935 41.6555V112.763ZM20.3865 112.327H127.499V41.6555C127.498 40.9702 127.225 40.3132 126.74 39.8286C126.255 39.344 125.599 39.0712 124.913 39.07H22.9676C22.2827 39.0712 21.6262 39.3441 21.1422 39.8288C20.6583 40.3136 20.3865 40.9706 20.3865 41.6555V112.327Z" fill="#263238"/>
<path d="M140.648 146.335H7.23241C5.75873 146.335 4.51612 144.22 5.17012 142.899L20.1685 113.761H127.717L142.794 142.799C143.452 144.115 142.144 146.335 140.648 146.335Z" fill="#263238"/>
<path d="M140.648 146.553H7.2324C6.8191 146.527 6.41927 146.396 6.07065 146.172C5.72203 145.949 5.43611 145.64 5.23988 145.275C4.99251 144.918 4.83788 144.506 4.78993 144.074C4.74197 143.642 4.80221 143.206 4.9652 142.803L20.0246 113.543H127.847L127.908 113.657L142.985 142.698C143.147 143.11 143.204 143.556 143.151 143.995C143.098 144.434 142.936 144.853 142.68 145.214C142.479 145.588 142.188 145.906 141.833 146.14C141.479 146.373 141.071 146.515 140.648 146.553ZM20.3124 113.979L5.36196 143.008C5.23286 143.344 5.18879 143.706 5.23367 144.063C5.27856 144.42 5.411 144.76 5.6192 145.053C5.77786 145.352 6.00842 145.606 6.29007 145.793C6.57172 145.981 6.89558 146.095 7.2324 146.125H140.648C140.997 146.088 141.332 145.965 141.621 145.767C141.911 145.57 142.148 145.303 142.31 144.992C142.524 144.694 142.663 144.347 142.713 143.983C142.763 143.619 142.724 143.249 142.597 142.903L127.581 113.979H20.3124Z" fill="#263238"/>
<path d="M140.648 145.118H7.2324C6.89475 145.119 6.56263 145.033 6.26749 144.869C5.97235 144.705 5.72395 144.468 5.54582 144.181C5.36769 143.894 5.26572 143.567 5.24957 143.229C5.23342 142.892 5.30361 142.556 5.45352 142.254L20.1685 112.545H127.717L142.427 142.254C142.577 142.556 142.647 142.892 142.631 143.229C142.615 143.567 142.513 143.894 142.335 144.181C142.157 144.468 141.908 144.705 141.613 144.869C141.318 145.033 140.986 145.119 140.648 145.118Z" fill="white"/>
<path d="M140.648 145.336H7.2324C6.85623 145.34 6.48548 145.246 6.15554 145.066C5.8256 144.885 5.54745 144.623 5.34764 144.304C5.14783 143.985 5.03302 143.621 5.01415 143.245C4.99529 142.869 5.073 142.495 5.23988 142.158L19.9549 112.449C19.972 112.411 19.9997 112.38 20.0346 112.358C20.0695 112.337 20.11 112.326 20.1511 112.327H127.717C127.757 112.326 127.797 112.337 127.831 112.359C127.865 112.38 127.892 112.412 127.909 112.449L142.624 142.158C142.79 142.494 142.867 142.866 142.849 143.241C142.831 143.615 142.718 143.978 142.52 144.297C142.323 144.615 142.047 144.877 141.719 145.059C141.392 145.241 141.023 145.337 140.648 145.336ZM20.3124 112.763L5.64972 142.35C5.51612 142.619 5.45347 142.918 5.46772 143.218C5.48196 143.518 5.57263 143.81 5.73112 144.066C5.88961 144.321 6.11069 144.532 6.37341 144.678C6.63613 144.824 6.9318 144.9 7.2324 144.9H140.648C140.949 144.9 141.245 144.824 141.507 144.678C141.77 144.532 141.991 144.321 142.15 144.066C142.308 143.81 142.399 143.518 142.413 143.218C142.427 142.918 142.365 142.619 142.231 142.35L127.581 112.763H20.3124Z" fill="#263238"/>
<path d="M121.203 44.6857H26.6824V106.707H121.203V44.6857Z" fill="white"/>
<path d="M121.416 106.925H26.4644V44.472H121.416V106.925ZM26.9004 106.489H120.98V44.908H26.9004V106.489Z" fill="#263238"/>
<path d="M119.093 72.9516H29.137V104.474H119.093V72.9516Z" fill="#D2E558"/>
<path opacity="0.46" d="M40.6344 91.9089V91.1241C40.6344 91.0084 40.5884 90.8975 40.5067 90.8158C40.4249 90.734 40.314 90.6881 40.1984 90.6881H39.5967C39.5052 90.2883 39.3475 89.9066 39.1302 89.5588L39.5662 89.1228C39.6422 89.042 39.6845 88.9352 39.6845 88.8242C39.6845 88.7132 39.6422 88.6064 39.5662 88.5255L39.0037 87.9631C38.9226 87.8858 38.8149 87.8427 38.7029 87.8427C38.5909 87.8427 38.4831 87.8858 38.402 87.9631L37.966 88.3991C37.6171 88.181 37.2338 88.0233 36.8324 87.9325V87.3178C36.8324 87.2021 36.7865 87.0913 36.7047 87.0095C36.623 86.9277 36.5121 86.8818 36.3964 86.8818H35.6029C35.4873 86.8818 35.3764 86.9277 35.2946 87.0095C35.2129 87.0913 35.1669 87.2021 35.1669 87.3178V87.9325C34.7671 88.024 34.3855 88.1817 34.0377 88.3991L33.6017 87.9631C33.5208 87.887 33.414 87.8447 33.303 87.8447C33.192 87.8447 33.0852 87.887 33.0044 87.9631L32.4637 88.5081C32.3877 88.5889 32.3454 88.6957 32.3454 88.8067C32.3454 88.9177 32.3877 89.0245 32.4637 89.1054L32.8997 89.5414C32.6824 89.8892 32.5247 90.2708 32.4332 90.6706H31.8359C31.7203 90.6706 31.6094 90.7166 31.5276 90.7983C31.4458 90.8801 31.3999 90.991 31.3999 91.1066V91.9001C31.3999 92.0158 31.4458 92.1267 31.5276 92.2085C31.6094 92.2902 31.7203 92.3361 31.8359 92.3361H32.4506C32.5414 92.7375 32.6991 93.1208 32.9172 93.4697L32.4812 93.9057C32.4051 93.9866 32.3628 94.0934 32.3628 94.2044C32.3628 94.3154 32.4051 94.4222 32.4812 94.5031L33.0436 95.0655C33.1245 95.1415 33.2313 95.1839 33.3423 95.1839C33.4533 95.1839 33.5601 95.1415 33.6409 95.0655L34.0769 94.6295C34.4247 94.8469 34.8064 95.0045 35.2062 95.096V95.7108C35.2062 95.8264 35.2521 95.9373 35.3339 96.0191C35.4156 96.1009 35.5265 96.1468 35.6422 96.1468H36.4357C36.5513 96.1468 36.6622 96.1009 36.744 96.0191C36.8258 95.9373 36.8717 95.8264 36.8717 95.7108V95.096C37.2731 95.0053 37.6563 94.8476 38.0053 94.6295L38.4413 95.0655C38.5224 95.1428 38.6301 95.1859 38.7421 95.1859C38.8541 95.1859 38.9619 95.1428 39.043 95.0655L39.6054 94.5031C39.6814 94.4222 39.7238 94.3154 39.7238 94.2044C39.7238 94.0934 39.6814 93.9866 39.6054 93.9057L39.1694 93.4697C39.3875 93.1208 39.5452 92.7375 39.6359 92.3361H40.2507C40.3555 92.3235 40.4522 92.2732 40.5228 92.1946C40.5934 92.116 40.633 92.0145 40.6344 91.9089ZM36.1959 93.3041C35.8235 93.3418 35.4485 93.2633 35.1224 93.0795C34.7964 92.8956 34.5352 92.6154 34.3747 92.2772C34.2142 91.939 34.1622 91.5595 34.226 91.1906C34.2897 90.8218 34.4661 90.4817 34.7307 90.217C34.9954 89.9523 35.3355 89.776 35.7044 89.7123C36.0732 89.6485 36.4528 89.7004 36.7909 89.8609C37.1291 90.0214 37.4093 90.2826 37.5932 90.6087C37.777 90.9348 37.8555 91.3097 37.8178 91.6821C37.7757 92.098 37.5913 92.4865 37.2958 92.782C37.0002 93.0776 36.6117 93.262 36.1959 93.3041Z" fill="white"/>
<path opacity="0.46" d="M48.1205 97.4679V96.6743C48.1205 96.5587 48.0745 96.4478 47.9928 96.366C47.911 96.2843 47.8001 96.2383 47.6845 96.2383H47.0959C47.0036 95.8367 46.8445 95.4535 46.625 95.1047L47.061 94.6687C47.1383 94.5877 47.1814 94.4799 47.1814 94.3679C47.1814 94.2559 47.1383 94.1481 47.061 94.0671L46.4986 93.5046C46.4175 93.4273 46.3097 93.3842 46.1977 93.3842C46.0857 93.3842 45.978 93.4273 45.8969 93.5046L45.4609 93.9406C45.1115 93.7233 44.7284 93.5656 44.3273 93.4741V92.8681C44.3273 92.7524 44.2813 92.6415 44.1996 92.5598C44.1178 92.478 44.0069 92.4321 43.8913 92.4321H43.0934C42.9778 92.4321 42.8669 92.478 42.7851 92.5598C42.7033 92.6415 42.6574 92.7524 42.6574 92.8681V93.4828C42.2563 93.5743 41.8731 93.732 41.5238 93.9493L41.0878 93.5133C41.0067 93.436 40.899 93.3929 40.7869 93.3929C40.6749 93.3929 40.5672 93.436 40.4861 93.5133L39.9237 94.0758C39.8464 94.1569 39.8032 94.2646 39.8032 94.3766C39.8032 94.4886 39.8464 94.5964 39.9237 94.6775L40.3597 95.1135C40.1384 95.4613 39.9791 95.8448 39.8888 96.2471H39.2784C39.1628 96.2471 39.0519 96.293 38.9701 96.3748C38.8883 96.4565 38.8424 96.5674 38.8424 96.6831V97.4766C38.8424 97.5922 38.8883 97.7031 38.9701 97.7849C39.0519 97.8666 39.1628 97.9126 39.2784 97.9126H39.8888C39.9791 98.3134 40.1384 98.6955 40.3597 99.0418L39.9237 99.4778C39.8464 99.5589 39.8032 99.6666 39.8032 99.7787C39.8032 99.8907 39.8464 99.9984 39.9237 100.079L40.4861 100.638C40.5672 100.715 40.6749 100.758 40.7869 100.758C40.899 100.758 41.0067 100.715 41.0878 100.638L41.5238 100.202C41.8731 100.419 42.2563 100.577 42.6574 100.668V101.283C42.6574 101.398 42.7033 101.509 42.7851 101.591C42.8669 101.673 42.9778 101.719 43.0934 101.719H43.8913C44.0069 101.719 44.1178 101.673 44.1996 101.591C44.2813 101.509 44.3273 101.398 44.3273 101.283V100.668C44.7284 100.577 45.1115 100.419 45.4609 100.202L45.8969 100.638C45.978 100.715 46.0857 100.758 46.1977 100.758C46.3097 100.758 46.4175 100.715 46.4986 100.638L47.061 100.079C47.1383 99.9984 47.1814 99.8907 47.1814 99.7787C47.1814 99.6666 47.1383 99.5589 47.061 99.4778L46.625 99.0418C46.8445 98.6946 47.0037 98.3128 47.0959 97.9126H47.7063C47.8196 97.9069 47.9263 97.8573 48.0036 97.7743C48.081 97.6912 48.1229 97.5813 48.1205 97.4679ZM43.682 98.8805C43.3084 98.919 42.9321 98.841 42.6048 98.657C42.2774 98.473 42.015 98.1922 41.8536 97.8531C41.6923 97.514 41.6399 97.1333 41.7037 96.7632C41.7674 96.3932 41.9442 96.0519 42.2098 95.7864C42.4753 95.5208 42.8166 95.344 43.1866 95.2803C43.5567 95.2165 43.9374 95.2689 44.2765 95.4302C44.6156 95.5916 44.8965 95.854 45.0804 96.1813C45.2644 96.5087 45.3425 96.885 45.3039 97.2586C45.261 97.6741 45.0764 98.0622 44.781 98.3576C44.4856 98.653 44.0975 98.8376 43.682 98.8805Z" fill="white"/>
<path d="M48.9707 75.9861H32.6643C32.6146 75.9861 32.5669 75.9664 32.5317 75.9312C32.4966 75.8961 32.4768 75.8484 32.4768 75.7987C32.4768 75.7485 32.4964 75.7004 32.5314 75.6645C32.5665 75.6287 32.6142 75.608 32.6643 75.6068H48.9707C49.0216 75.6068 49.0704 75.627 49.1063 75.663C49.1423 75.699 49.1625 75.7478 49.1625 75.7987C49.1614 75.8488 49.1407 75.8965 49.1048 75.9315C49.069 75.9665 49.0208 75.9862 48.9707 75.9861Z" fill="#263238"/>
<path d="M48.9707 78.3405H32.6643C32.6142 78.3394 32.5665 78.3187 32.5314 78.2828C32.4964 78.247 32.4768 78.1988 32.4768 78.1487C32.4768 78.099 32.4966 78.0513 32.5317 78.0161C32.5669 77.981 32.6146 77.9612 32.6643 77.9612H48.9707C49.0208 77.9612 49.069 77.9808 49.1048 78.0159C49.1407 78.0509 49.1614 78.0986 49.1625 78.1487C49.1625 78.1996 49.1423 78.2484 49.1063 78.2844C49.0704 78.3203 49.0216 78.3405 48.9707 78.3405Z" fill="#263238"/>
<path d="M48.9707 80.6906H32.6643C32.6146 80.6906 32.5669 80.6708 32.5317 80.6357C32.4966 80.6005 32.4768 80.5528 32.4768 80.5031C32.4768 80.453 32.4964 80.4048 32.5314 80.369C32.5665 80.3331 32.6142 80.3124 32.6643 80.3113H48.9707C49.0216 80.3113 49.0704 80.3315 49.1063 80.3675C49.1423 80.4034 49.1625 80.4522 49.1625 80.5031C49.1614 80.5532 49.1407 80.6009 49.1048 80.6359C49.069 80.671 49.0208 80.6906 48.9707 80.6906Z" fill="#263238"/>
<path d="M48.9707 83.045H32.6643C32.6142 83.0438 32.5665 83.0231 32.5314 82.9873C32.4964 82.9514 32.4768 82.9033 32.4768 82.8531C32.4768 82.8034 32.4966 82.7557 32.5317 82.7206C32.5669 82.6854 32.6146 82.6657 32.6643 82.6657H48.9707C49.0208 82.6657 49.069 82.6853 49.1048 82.7203C49.1407 82.7553 49.1614 82.803 49.1625 82.8531C49.1625 82.904 49.1423 82.9528 49.1063 82.9888C49.0704 83.0248 49.0216 83.045 48.9707 83.045Z" fill="#263238"/>
<path d="M117.366 47.6113H30.8636C29.91 47.6113 29.137 48.3843 29.137 49.3378V49.534C29.137 50.4876 29.91 51.2606 30.8636 51.2606H117.366C118.32 51.2606 119.093 50.4876 119.093 49.534V49.3378C119.093 48.3843 118.32 47.6113 117.366 47.6113Z" fill="#D2E558"/>
<path d="M117.366 59.6449H30.8636C29.91 59.6449 29.137 60.4179 29.137 61.3714V61.5676C29.137 62.5212 29.91 63.2942 30.8636 63.2942H117.366C118.32 63.2942 119.093 62.5212 119.093 61.5676V61.3714C119.093 60.4179 118.32 59.6449 117.366 59.6449Z" fill="#D2E558"/>
<path d="M69.454 122.856L69.6414 118.884H63.9604L63.581 122.856H69.454Z" fill="#263238"/>
<path d="M69.6632 123.074H63.3412L63.7772 118.666H69.8812L69.6632 123.074ZM63.8209 122.638H69.2447L69.4147 119.102H64.1566L63.8209 122.638Z" fill="white"/>
<path d="M81.1998 122.856L81.008 118.884H75.3225L75.3269 122.856H81.1998Z" fill="#263238"/>
<path d="M81.4309 123.074H75.1089V118.666H81.2129L81.4309 123.074ZM75.5449 122.638H80.9687L80.7987 119.102H75.5405L75.5449 122.638Z" fill="white"/>
<path d="M111.785 127.098H117.863L116.437 122.856H110.564L111.785 127.098Z" fill="#263238"/>
<path d="M118.164 127.312H111.624L110.272 122.634H116.594L118.164 127.312ZM111.951 126.876H117.558L116.28 123.07H110.852L111.951 126.876Z" fill="white"/>
<path d="M63.581 122.856L63.9604 118.884H58.2749L57.7081 122.856H63.581Z" fill="#263238"/>
<path d="M63.7816 123.074H57.4596L58.0874 118.666H64.1914L63.7816 123.074ZM57.961 122.638H63.3848L63.7206 119.102H58.4886L57.961 122.638Z" fill="white"/>
<path d="M51.8352 122.856L52.5938 118.884H46.9084L45.9623 122.856H51.8352Z" fill="#263238"/>
<path d="M52.0183 123.074H45.6876L46.7383 118.666H52.8423L52.0183 123.074ZM46.2413 122.638H51.6564L52.3279 119.102H47.0959L46.2413 122.638Z" fill="white"/>
<path d="M104.691 122.856L103.737 118.884H98.0556L98.8186 122.856H104.691Z" fill="#263238"/>
<path d="M104.966 123.074H98.6354L97.7896 118.666H103.894L104.966 123.074ZM98.9973 122.638H104.412L103.567 119.102H98.3346L98.9973 122.638Z" fill="white"/>
<path d="M110.564 122.856L109.418 118.884H103.737L104.691 122.856H110.564Z" fill="#263238"/>
<path d="M110.852 123.074H104.517L103.462 118.666H109.566L110.852 123.074ZM104.862 122.638H110.272L109.256 119.102H104.024L104.862 122.638Z" fill="white"/>
<path d="M45.9623 122.856L46.9084 118.884H41.2273L40.0894 122.856H45.9623Z" fill="#263238"/>
<path d="M46.1367 123.074H39.8016L41.0616 118.666H47.1874L46.1367 123.074ZM40.3815 122.638H45.7879L46.6294 119.102H41.3974L40.3815 122.638Z" fill="white"/>
<path d="M87.0727 122.856L86.689 118.884H81.008L81.1998 122.856H87.0727Z" fill="#263238"/>
<path d="M87.3125 123.074H80.9905L80.7769 118.666H86.8809L87.3125 123.074ZM81.4091 122.638H86.8329L86.4928 119.102H81.2347L81.4091 122.638Z" fill="white"/>
<path d="M116.437 122.856L115.103 118.884H109.418L110.564 122.856H116.437Z" fill="#263238"/>
<path d="M116.738 123.074H110.399L109.13 118.666H115.26L116.738 123.074ZM110.726 122.638H116.132L114.946 119.102H109.714L110.726 122.638Z" fill="white"/>
<path d="M98.8186 122.856L98.0556 118.884H92.3701L92.9456 122.856H98.8186Z" fill="#263238"/>
<path d="M99.0802 123.074H92.7582L92.1216 118.666H98.2256L99.0802 123.074ZM93.1331 122.638H98.5439L97.8637 119.102H92.6317L93.1331 122.638Z" fill="white"/>
<path d="M92.9456 122.856L92.3701 118.884H86.689L87.0727 122.856H92.9456Z" fill="#263238"/>
<path d="M93.1985 123.074H86.8765L86.4405 118.666H92.5445L93.1985 123.074ZM87.2689 122.638H92.6928L92.1826 119.102H86.9288L87.2689 122.638Z" fill="white"/>
<path d="M75.3269 122.856L75.3225 118.884H69.6414L69.4539 122.856H75.3269Z" fill="#263238"/>
<path d="M75.5449 123.074H69.2272L69.4322 118.666H75.5362L75.5449 123.074ZM69.685 122.638H75.1089V119.102H69.8507L69.685 122.638Z" fill="white"/>
<path d="M34.2208 122.856H28.3479L26.726 127.098H32.7994L34.2208 122.856Z" fill="#263238"/>
<path d="M32.9564 127.312H26.4164L28.204 122.634H34.5304L32.9564 127.312ZM27.0399 126.876H32.6425L33.9156 123.07H28.4961L27.0399 126.876Z" fill="white"/>
<path d="M35.5462 118.884H29.8608L28.3479 122.856H34.2208L35.5462 118.884Z" fill="#263238"/>
<path d="M34.3734 123.074H28.0296L29.7126 118.666H35.8471L34.3734 123.074ZM28.6618 122.638H34.0595L35.241 119.102H30.009L28.6618 122.638Z" fill="white"/>
<path d="M40.0894 122.856L41.2273 118.884H35.5462L34.2208 122.856H40.0894Z" fill="#263238"/>
<path d="M40.255 123.074H33.9156L35.3893 118.666H41.4933L40.255 123.074ZM34.5216 122.638H39.928L40.9395 119.102H35.7075L34.5216 122.638Z" fill="white"/>
<path d="M24.9863 131.646L23.1202 136.533H29.6472L31.2822 131.646H24.9863Z" fill="#263238"/>
<path d="M29.8041 136.751H22.802L24.8599 131.428H31.6048L29.8041 136.751ZM23.4342 136.315H29.4902L30.9639 131.864H25.1389L23.4342 136.315Z" fill="white"/>
<path d="M32.7994 127.098H26.726L24.9863 131.646H31.2822L32.7994 127.098Z" fill="#263238"/>
<path d="M31.4391 131.864H24.668L26.5734 126.876H33.1134L31.4391 131.864ZM25.3046 131.428H31.1252L32.4986 127.316H26.8742L25.3046 131.428Z" fill="white"/>
<path d="M31.2822 131.646L29.6472 136.533H36.1741L37.5736 131.646H31.2822Z" fill="#263238"/>
<path d="M36.3398 136.751H29.3638L31.1426 131.428H37.8788L36.3398 136.751ZM29.948 136.315H36.0084L37.2859 131.864H31.4391L29.948 136.315Z" fill="white"/>
<path d="M57.7081 122.856L58.2749 118.884H52.5938L51.8352 122.856H57.7081Z" fill="#263238"/>
<path d="M57.9 123.074H51.5736L52.4107 118.666H58.5147L57.9 123.074ZM52.1012 122.638H57.5206L58.022 119.102H52.7639L52.1012 122.638Z" fill="white"/>
<path d="M57.1021 127.098L57.7081 122.856H51.8352L51.0286 127.098H57.1021Z" fill="#263238"/>
<path d="M57.2939 127.312H50.7539L51.6477 122.634H57.9523L57.2939 127.312ZM51.2902 126.876H56.9146L57.4596 123.07H52.0183L51.2902 126.876Z" fill="white"/>
<path d="M51.0286 127.098L51.8352 122.856H45.9623L44.9508 127.098H51.0286Z" fill="#263238"/>
<path d="M51.2073 127.312H44.6674L45.7879 122.638H52.0968L51.2073 127.312ZM45.2298 126.876H50.8455L51.5736 123.07H46.1367L45.2298 126.876Z" fill="white"/>
<path d="M63.1799 127.098L63.581 122.856H57.7081L57.1021 127.098H63.1799Z" fill="#263238"/>
<path d="M63.3761 127.312H56.8361L57.5032 122.634H63.8034L63.3761 127.312ZM57.355 126.876H62.9794L63.3412 123.07H57.9L57.355 126.876Z" fill="white"/>
<path d="M40.0893 122.856H34.2208L32.7994 127.098H38.8773L40.0893 122.856Z" fill="#263238"/>
<path d="M39.0386 127.312H32.4986L34.0595 122.634H40.3815L39.0386 127.312ZM33.1046 126.876H38.7116L39.8016 123.07H34.3734L33.1046 126.876Z" fill="white"/>
<path d="M113.098 131.646H119.389L117.863 127.098H111.785L113.098 131.646Z" fill="#263238"/>
<path d="M119.694 131.864H112.932L111.497 126.876H118.037L119.694 131.864ZM113.259 131.428H119.088L117.728 127.312H112.06L113.259 131.428Z" fill="white"/>
<path d="M44.9507 127.098L45.9623 122.856H40.0893L38.8773 127.098H44.9507Z" fill="#263238"/>
<path d="M45.1251 127.312H38.5851L39.928 122.634H46.2239L45.1251 127.312ZM39.165 126.876H44.7807L45.6876 123.07H40.255L39.165 126.876Z" fill="white"/>
<path d="M32.7994 127.098L31.2822 131.646H37.5736L38.8773 127.098H32.7994Z" fill="#263238"/>
<path d="M37.7393 131.864H30.9639L32.6425 126.876H39.1825L37.7393 131.864ZM31.583 131.428H37.4079L38.5851 127.316H32.9564L31.583 131.428Z" fill="white"/>
<path d="M99.6339 127.098L98.8185 122.856H92.9456L93.5604 127.098H99.6339Z" fill="#263238"/>
<path d="M99.8998 127.312H93.3598L92.684 122.634H98.9799L99.8998 127.312ZM93.7479 126.876H99.3723L98.6354 123.07H93.1985L93.7479 126.876Z" fill="white"/>
<path d="M93.5604 127.098L92.9456 122.856H87.0727L87.4826 127.098H93.5604Z" fill="#263238"/>
<path d="M93.8089 127.312H87.2689L86.8329 122.634H93.1331L93.8089 127.312ZM87.6788 126.876H93.3119L92.7625 123.07H87.3125L87.6788 126.876Z" fill="white"/>
<path d="M111.785 127.098L110.564 122.856H104.691L105.712 127.098H111.785Z" fill="#263238"/>
<path d="M112.06 127.312H105.52L104.395 122.634H110.708L112.06 127.312ZM105.864 126.876H111.48L110.381 123.07H104.966L105.864 126.876Z" fill="white"/>
<path d="M75.3312 127.098L75.3269 122.856H69.454L69.2534 127.098H75.3312Z" fill="#263238"/>
<path d="M75.5492 127.312H69.0092L69.2272 122.634H75.5275L75.5492 127.312ZM69.4845 126.876H75.1132V123.07H69.6632L69.4845 126.876Z" fill="white"/>
<path d="M87.4826 127.098L87.0727 122.856H81.1998L81.4047 127.098H87.4826Z" fill="#263238"/>
<path d="M87.7224 127.312H81.1824L80.9513 122.634H87.2515L87.7224 127.312ZM81.6184 126.876H87.2471L86.8809 123.07H81.4309L81.6184 126.876Z" fill="white"/>
<path d="M81.4047 127.098L81.1998 122.856H75.3269L75.3312 127.098H81.4047Z" fill="#263238"/>
<path d="M81.6358 127.312H75.0958V122.638H81.4091L81.6358 127.312ZM75.5318 126.876H81.1606L80.9731 123.07H75.5449L75.5318 126.876Z" fill="white"/>
<path d="M69.2534 127.098L69.4539 122.856H63.581L63.1799 127.098H69.2534Z" fill="#263238"/>
<path d="M69.4627 127.312H62.9227L63.3587 122.634H69.6589L69.4627 127.312ZM63.4197 126.876H69.0485L69.2272 123.07H63.7816L63.4197 126.876Z" fill="white"/>
<path d="M87.4826 127.098L87.9229 131.646H94.2144L93.5604 127.098H87.4826Z" fill="#263238"/>
<path d="M94.4673 131.864H87.7224L87.2428 126.876H93.7479L94.4673 131.864ZM88.1191 131.428H93.9659L93.3686 127.312H87.7224L88.1191 131.428Z" fill="white"/>
<path d="M93.5604 127.098L94.2144 131.646H100.51L99.6339 127.098H93.5604Z" fill="#263238"/>
<path d="M100.772 131.864H94.0269L93.3119 126.876H99.817L100.772 131.864ZM94.4062 131.428H100.244L99.4551 127.312H93.8089L94.4062 131.428Z" fill="white"/>
<path d="M38.8773 127.098L37.5736 131.646H43.8651L44.9508 127.098H38.8773Z" fill="#263238"/>
<path d="M44.0439 131.864H37.2859L38.7116 126.876H45.2298L44.0439 131.864ZM37.8658 131.428H43.6951L44.6761 127.316H39.0386L37.8658 131.428Z" fill="white"/>
<path d="M99.6339 127.098L100.51 131.646H106.802L105.712 127.098H99.6339Z" fill="#263238"/>
<path d="M107.081 131.864H100.331L99.3723 126.876H105.882L107.081 131.864ZM100.689 131.428H106.527L105.52 127.312H99.8998L100.689 131.428Z" fill="white"/>
<path d="M75.3312 127.098L75.3356 131.646H81.6271L81.4047 127.098H75.3312Z" fill="#263238"/>
<path d="M81.8582 131.864H75.1176V126.876H81.6184L81.8582 131.864ZM75.5536 131.428H81.4004L81.1998 127.316H75.5318L75.5536 131.428Z" fill="white"/>
<path d="M105.712 127.098L106.802 131.646H113.098L111.785 127.098H105.712Z" fill="#263238"/>
<path d="M113.368 131.864H106.632L105.433 126.876H111.951L113.368 131.864ZM106.959 131.428H112.788L111.624 127.312H105.986L106.959 131.428Z" fill="white"/>
<path d="M81.4047 127.098L81.6271 131.646H87.9229L87.4826 127.098H81.4047Z" fill="#263238"/>
<path d="M88.1627 131.864H81.4222L81.178 126.876H87.6787L88.1627 131.864ZM81.8364 131.428H87.6831L87.2863 127.316H81.6184L81.8364 131.428Z" fill="white"/>
<path d="M51.0286 127.098L50.1609 131.646H56.4568L57.1021 127.098H51.0286Z" fill="#263238"/>
<path d="M56.6443 131.864H49.8994L50.8455 126.876H57.355L56.6443 131.864ZM50.4226 131.428H56.2519L56.8405 127.316H51.2074L50.4226 131.428Z" fill="white"/>
<path d="M44.9508 127.098L43.8651 131.646H50.161L51.0286 127.098H44.9508Z" fill="#263238"/>
<path d="M50.3397 131.864H43.6079L44.7807 126.876H51.2902L50.3397 131.864ZM44.1442 131.428H49.9822L50.7626 127.316H45.1252L44.1442 131.428Z" fill="white"/>
<path d="M69.2534 127.098L69.0441 131.646H75.3356L75.3312 127.098H69.2534Z" fill="#263238"/>
<path d="M75.5536 131.864H68.813L69.0485 126.88H75.5492L75.5536 131.864ZM69.2708 131.428H75.1176V127.312H69.4496L69.2708 131.428Z" fill="white"/>
<path d="M63.1799 127.098L62.7483 131.646H69.0441L69.2534 127.098H63.1799Z" fill="#263238"/>
<path d="M69.249 131.864H62.5085L62.9793 126.876H69.4845L69.249 131.864ZM62.9881 131.428H68.8348L69.0267 127.316H63.3587L62.9881 131.428Z" fill="white"/>
<path d="M57.1021 127.098L56.4568 131.646H62.7483L63.1799 127.098H57.1021Z" fill="#263238"/>
<path d="M62.9445 131.864H56.2039L56.9146 126.876H63.4197L62.9445 131.864ZM56.7053 131.428H62.5477L62.9401 127.316H57.2721L56.7053 131.428Z" fill="white"/>
<path d="M105.712 127.098L104.691 122.856H98.8186L99.6339 127.098H105.712Z" fill="#263238"/>
<path d="M105.986 127.312H99.4464L98.5439 122.638H104.853L105.986 127.312ZM99.8126 126.876H105.433L104.517 123.07H99.0802L99.8126 126.876Z" fill="white"/>
<path d="M35.5462 118.884L36.9022 114.821H31.413L29.8608 118.884H35.5462Z" fill="#263238"/>
<path d="M35.7032 119.102H29.5469L31.2647 114.603H37.2074L35.7032 119.102ZM30.1791 118.666H35.4111L36.6231 115.039H31.5656L30.1791 118.666Z" fill="white"/>
<path d="M29.8608 118.884H24.6157L22.924 122.856H28.3479L29.8608 118.884Z" fill="#263238"/>
<path d="M28.4961 123.074H22.597L24.4718 118.666H30.1791L28.4961 123.074ZM23.2641 122.638H28.204L29.5556 119.102H24.7596L23.2641 122.638Z" fill="white"/>
<path d="M31.413 114.821H26.3466L24.6157 118.884H29.8608L31.413 114.821Z" fill="#263238"/>
<path d="M30.0134 119.102H24.2887L26.2028 114.603H31.7312L30.0134 119.102ZM24.9471 118.666H29.7126L31.099 115.039H26.4949L24.9471 118.666Z" fill="white"/>
<path d="M28.3479 122.856H22.924L21.1146 127.098H26.726L28.3479 122.856Z" fill="#263238"/>
<path d="M26.8742 127.312H20.7702L22.7627 122.634H28.6444L26.8742 127.312ZM21.446 126.876H26.5733L28.0296 123.07H23.0679L21.446 126.876Z" fill="white"/>
<path d="M26.726 127.098H21.1146L19.1788 131.646H24.9863L26.726 127.098Z" fill="#263238"/>
<path d="M25.1389 131.864H18.8474L20.9708 126.876H27.0399L25.1389 131.864ZM19.5058 131.428H24.8599L26.4295 127.316H21.2585L19.5058 131.428Z" fill="white"/>
<path d="M24.9863 131.646H19.1788L17.0947 136.533H23.1202L24.9863 131.646Z" fill="#263238"/>
<path d="M23.2685 136.751H16.7634L19.0349 131.428H25.2959L23.2685 136.751ZM17.4261 136.315H22.9676L24.668 131.864H19.3227L17.4261 136.315Z" fill="white"/>
<path d="M122.31 122.856L123.937 127.098H129.312L127.503 122.856H122.31Z" fill="#263238"/>
<path d="M129.644 127.312H123.788L121.992 122.634H127.66L129.644 127.312ZM124.089 126.876H128.981L127.359 123.07H122.624L124.089 126.876Z" fill="white"/>
<path d="M125.685 131.646H131.253L129.312 127.098H123.937L125.685 131.646Z" fill="#263238"/>
<path d="M131.58 131.864H125.532L123.623 126.876H129.456L131.58 131.864ZM125.833 131.428H130.921L129.177 127.316H124.268L125.833 131.428Z" fill="white"/>
<path d="M127.56 136.533H133.332L131.253 131.646H125.685L127.56 136.533Z" fill="#263238"/>
<path d="M133.664 136.751H127.411L125.367 131.428H131.396L133.664 136.751ZM127.708 136.315H132.988L131.091 131.864H126.012L127.708 136.315Z" fill="white"/>
<path d="M81.008 118.884L80.8074 114.821H75.3181L75.3225 118.884H81.008Z" fill="#263238"/>
<path d="M81.2347 119.102H75.1045V114.603H81.0167L81.2347 119.102ZM75.5405 118.666H80.7725L80.5938 115.039H75.5362L75.5405 118.666Z" fill="white"/>
<path d="M122.31 122.856H127.503L125.811 118.884H120.784L122.31 122.856Z" fill="#263238"/>
<path d="M127.834 123.074H122.166L120.475 118.666H125.964L127.834 123.074ZM122.458 122.638H127.172L125.667 119.102H121.103L122.458 122.638Z" fill="white"/>
<path d="M119.389 131.646H125.685L123.937 127.098H117.863L119.389 131.646Z" fill="#263238"/>
<path d="M126.012 131.864H119.232L117.558 126.876H124.098L126.012 131.864ZM119.555 131.428H125.375L123.788 127.312H118.164L119.555 131.428Z" fill="white"/>
<path d="M41.2273 118.884L42.3914 114.821H36.9022L35.5462 118.884H41.2273Z" fill="#263238"/>
<path d="M41.393 119.102H35.241L36.7452 114.603H42.6792L41.393 119.102ZM35.8471 118.666H41.0791L42.1211 115.039H37.0679L35.8471 118.666Z" fill="white"/>
<path d="M115.103 118.884L116.437 122.856H122.31L120.784 118.884H115.103Z" fill="#263238"/>
<path d="M122.624 123.074H116.28L114.798 118.666H120.932L122.624 123.074ZM116.594 122.638H121.992L120.636 119.102H115.404L116.594 122.638Z" fill="white"/>
<path d="M125.811 118.884L124.08 114.821H119.223L120.784 118.884H125.811Z" fill="#263238"/>
<path d="M126.143 119.102H120.636L118.892 114.603H124.224L126.143 119.102ZM120.932 118.666H125.48L123.936 115.039H119.542L120.932 118.666Z" fill="white"/>
<path d="M120.784 118.884L119.223 114.821H113.738L115.103 118.884H120.784Z" fill="#263238"/>
<path d="M121.103 119.102H114.946L113.433 114.603H119.376L121.103 119.102ZM115.26 118.666H120.466L119.075 115.039H114.039L115.26 118.666Z" fill="white"/>
<path d="M100.51 131.646L101.452 136.533H107.979L106.802 131.646H100.51Z" fill="#263238"/>
<path d="M108.254 136.751H101.278L100.253 131.428H106.985L108.254 136.751ZM101.631 136.315H107.7L106.632 131.864H100.772L101.631 136.315Z" fill="white"/>
<path d="M121.033 136.533H127.56L125.685 131.646H119.389L121.033 136.533Z" fill="#263238"/>
<path d="M127.878 136.751H120.876L119.088 131.428H125.833L127.878 136.751ZM121.19 136.315H127.241L125.532 131.864H119.694L121.19 136.315Z" fill="white"/>
<path d="M115.103 118.884L113.738 114.821H108.249L109.418 118.884H115.103Z" fill="#263238"/>
<path d="M115.404 119.102H109.256L107.948 114.603H113.887L115.404 119.102ZM109.583 118.666H114.815L113.599 115.039H108.537L109.583 118.666Z" fill="white"/>
<path d="M113.098 131.646L114.506 136.533H121.033L119.389 131.646H113.098Z" fill="#263238"/>
<path d="M121.334 136.751H114.358L112.823 131.428H119.563L121.334 136.751ZM114.667 136.315H120.728L119.232 131.864H113.368L114.667 136.315Z" fill="white"/>
<path d="M106.802 131.646L107.979 136.533H114.506L113.098 131.646H106.802Z" fill="#263238"/>
<path d="M114.794 136.751H107.818L106.54 131.428H113.272L114.794 136.751ZM108.149 136.315H114.214L112.932 131.864H107.081L108.149 136.315Z" fill="white"/>
<path d="M117.863 127.098H123.937L122.31 122.856H116.437L117.863 127.098Z" fill="#263238"/>
<path d="M124.268 127.312H117.728L116.154 122.634H122.48L124.268 127.312ZM118.033 126.876H123.636L122.171 123.07H116.738L118.033 126.876Z" fill="white"/>
<path d="M63.9604 118.884L64.344 114.821H58.8548L58.2749 118.884H63.9604Z" fill="#263238"/>
<path d="M64.1566 119.102H58.022L58.6673 114.603H64.5838L64.1566 119.102ZM58.5278 118.666H63.7598L64.1042 115.039H59.0466L58.5278 118.666Z" fill="white"/>
<path d="M109.418 118.884L108.249 114.821H102.76L103.737 118.884H109.418Z" fill="#263238"/>
<path d="M109.71 119.102H103.567L102.468 114.603H108.393L109.71 119.102ZM103.907 118.666H109.139L108.092 115.039H103.039L103.907 118.666Z" fill="white"/>
<path d="M58.2749 118.884L58.8548 114.821H53.3656L52.5938 118.884H58.2749Z" fill="#263238"/>
<path d="M58.4668 119.102H52.3279L53.1999 114.603H59.1208L58.4668 119.102ZM52.8554 118.666H58.0874L58.6063 115.039H53.5487L52.8554 118.666Z" fill="white"/>
<path d="M75.3225 118.884L75.3182 114.821H69.8333L69.6414 118.884H75.3225Z" fill="#263238"/>
<path d="M75.5405 119.102H69.4147L69.624 114.603H75.5361L75.5405 119.102ZM69.8725 118.666H75.1045V115.039H70.0382L69.8725 118.666Z" fill="white"/>
<path d="M52.5938 118.884L53.3655 114.821H47.8807L46.9084 118.884H52.5938Z" fill="#263238"/>
<path d="M52.7639 119.102H46.6337L47.7063 114.603H53.6359L52.7639 119.102ZM47.1787 118.666H52.4107L53.104 115.039H48.0507L47.1787 118.666Z" fill="white"/>
<path d="M46.9084 118.884L47.8807 114.821H42.3915L41.2273 118.884H46.9084Z" fill="#263238"/>
<path d="M47.0959 119.102H40.9396L42.2476 114.603H48.1771L47.0959 119.102ZM41.5282 118.666H46.7601L47.6321 115.039H42.5571L41.5282 118.666Z" fill="white"/>
<path d="M69.6414 118.884L69.8333 114.821H64.344L63.9604 118.884H69.6414Z" fill="#263238"/>
<path d="M69.8507 119.102H63.7206L64.1566 114.603H70.0731L69.8507 119.102ZM64.1827 118.666H69.4147L69.5848 115.039H64.5359L64.1827 118.666Z" fill="white"/>
<path d="M103.737 118.884L102.76 114.821H97.2707L98.0555 118.884H103.737Z" fill="#263238"/>
<path d="M104.011 119.102H97.8724L97.0004 114.603H102.926L104.011 119.102ZM98.2343 118.666H103.466L102.594 115.039H97.5367L98.2343 118.666Z" fill="white"/>
<path d="M98.0556 118.884L97.2708 114.821H91.7859L92.3701 118.884H98.0556Z" fill="#263238"/>
<path d="M98.3172 119.102H92.1826L91.533 114.603H97.4539L98.3172 119.102ZM92.562 118.666H97.7939L97.0963 115.039H92.0388L92.562 118.666Z" fill="white"/>
<path d="M86.689 118.884L86.2966 114.821H80.8074L81.008 118.884H86.689Z" fill="#263238"/>
<path d="M86.9288 119.102H80.7987L80.5807 114.603H86.4928L86.9288 119.102ZM81.2129 118.666H86.4449L86.0917 115.039H81.0341L81.2129 118.666Z" fill="white"/>
<path d="M100.51 131.646H94.2144H87.9229H81.6271H75.3356H69.0441H62.7483H56.4568H50.161H43.8651H37.5736L36.1741 136.533H42.701H49.2279H55.7592H62.2861H68.813H75.34H81.8669H88.3938H94.9207H101.452L100.51 131.646Z" fill="#263238"/>
<path d="M101.714 136.751H35.8776L37.3992 131.428H100.689L101.714 136.751ZM36.4618 136.315H101.186L100.314 131.864H37.7393L36.4618 136.315Z" fill="white"/>
<path d="M92.3701 118.884L91.7859 114.821H86.2966L86.689 118.884H92.3701Z" fill="#263238"/>
<path d="M92.623 119.102H86.4928L86.0568 114.603H91.9733L92.623 119.102ZM86.8852 118.666H92.1172L91.5897 115.039H86.5321L86.8852 118.666Z" fill="white"/>
<path d="M82.4643 80.3025C88.8864 80.3025 94.0925 73.6754 94.0925 65.5003C94.0925 57.3253 88.8864 50.6981 82.4643 50.6981C76.0423 50.6981 70.8362 57.3253 70.8362 65.5003C70.8362 73.6754 76.0423 80.3025 82.4643 80.3025Z" fill="#263238"/>
<path d="M82.4643 80.5162C75.9243 80.5162 70.6138 73.78 70.6138 65.5003C70.6138 57.2207 75.9287 50.4801 82.4643 50.4801C89 50.4801 94.3104 57.2163 94.3104 65.5003C94.3104 73.7843 88.9956 80.5162 82.4643 80.5162ZM82.4643 50.9161C76.1685 50.9161 71.0498 57.4561 71.0498 65.5003C71.0498 73.5445 76.1685 80.0802 82.4643 80.0802C88.7602 80.0802 93.8744 73.5402 93.8744 65.5003C93.8744 57.4605 88.7558 50.9161 82.4643 50.9161Z" fill="#263238"/>
<path d="M56.252 103.197C55.1838 103.197 53.9717 102.251 53.3265 101.667C52.4196 100.842 51.4822 99.6871 51.4822 99.1726C51.4822 98.4358 60.2022 72.1406 61.2093 69.154C61.2206 69.1191 61.2405 69.0877 61.2672 69.0625C61.2939 69.0374 61.3265 69.0194 61.3619 69.0101C61.3968 69.0013 61.4332 69.0011 61.4681 69.0095C61.503 69.0178 61.5354 69.0345 61.5625 69.0581L64.863 72.0709C64.8888 72.0943 64.9085 72.1235 64.9207 72.1561C64.9328 72.1887 64.937 72.2238 64.9328 72.2583L61.6802 100.825C61.6763 100.858 61.6648 100.89 61.6466 100.918C61.6285 100.946 61.6042 100.969 61.5756 100.986C61.4404 101.069 58.2576 103.005 56.4221 103.188L56.252 103.197ZM61.5189 69.6249C58.7721 77.9089 51.9923 98.4009 51.9269 99.1988C51.9269 99.4473 52.5896 100.42 53.6273 101.357C54.665 102.294 55.6983 102.835 56.3872 102.77C57.9611 102.613 60.7472 101.004 61.266 100.686L64.4968 72.3455L61.5189 69.6249Z" fill="#263238"/>
<path d="M80.6898 65.3608L61.4012 69.2194L64.488 107.221H102.106L107.12 67.676L84.1603 65.169L80.6898 65.3608Z" fill="#D2E558"/>
<path d="M102.106 107.439H64.488C64.4336 107.439 64.3811 107.419 64.3414 107.381C64.3017 107.344 64.2777 107.293 64.2744 107.239L61.1832 69.2369C61.1789 69.1837 61.1943 69.1308 61.2265 69.0882C61.2586 69.0456 61.3052 69.0163 61.3576 69.0058L80.668 65.1472L84.156 64.951L107.146 67.4623C107.204 67.4686 107.257 67.4967 107.295 67.5408C107.312 67.5642 107.325 67.5909 107.333 67.6193C107.34 67.6477 107.342 67.6774 107.338 67.7065L102.324 107.256C102.316 107.308 102.289 107.355 102.249 107.388C102.209 107.422 102.158 107.44 102.106 107.439ZM64.693 107.003H101.914L106.876 67.8722L84.156 65.4001L80.7334 65.5919L61.6497 69.4113L64.693 107.003Z" fill="#263238"/>
<path opacity="0.3" d="M64.488 107.221H102.106L103.052 99.7787L102.982 99.4168L93.9049 101.396L97.8638 84.7323L76.0813 94.3025L70.8013 99.5825H74.1018L64.3878 105.974L64.488 107.221Z" fill="black"/>
<path d="M78.6406 63.2201C78.6406 63.2201 75.5101 64.9335 74.7166 66.4726C73.9231 68.0117 70.64 79.4436 70.64 79.4436L76.0421 80.6034L70.8362 83.1104L78.7147 105.678L91.2541 104.906L99.416 81.1789L94.3977 79.0599L98.8361 77.1284C98.8361 77.1284 94.5939 69.0276 92.2961 65.557C89.9984 62.0865 78.6406 63.2201 78.6406 63.2201Z" fill="#D2E558"/>
<path d="M78.7322 105.896C78.6874 105.896 78.6436 105.882 78.607 105.856C78.5703 105.83 78.5425 105.794 78.5272 105.752L70.64 83.1801C70.6231 83.1296 70.6254 83.0747 70.6463 83.0257C70.6671 82.9767 70.7052 82.937 70.7534 82.9142L75.388 80.6819L70.592 79.6573C70.5626 79.6509 70.5347 79.6388 70.51 79.6216C70.4853 79.6044 70.4643 79.5824 70.4482 79.557C70.4329 79.5309 70.4231 79.502 70.4193 79.472C70.4156 79.442 70.418 79.4116 70.4264 79.3826C70.5615 78.9161 73.7487 67.9201 74.5204 66.3767C75.2921 64.8333 78.3834 63.1023 78.5142 63.0282C78.5396 63.0143 78.568 63.0069 78.597 63.0064C79.0635 62.9584 90.0638 61.8946 92.4225 65.4349C94.7203 68.875 98.9625 76.9497 98.9931 77.0282C99.0059 77.0555 99.0125 77.0852 99.0125 77.1154C99.0125 77.1455 99.0059 77.1753 98.9931 77.2026C98.9841 77.2311 98.9689 77.2573 98.9485 77.2791C98.9281 77.301 98.9031 77.318 98.8753 77.329L94.9034 79.073L99.4508 80.9958C99.5019 81.018 99.5427 81.0585 99.5653 81.1094C99.5879 81.1602 99.5906 81.2177 99.5729 81.2705L91.4415 104.998C91.4271 105.038 91.4013 105.073 91.3672 105.098C91.3331 105.124 91.2922 105.139 91.2497 105.141L78.7104 105.913L78.7322 105.896ZM71.1196 83.2237L78.8848 105.46L91.0927 104.71L99.1108 81.3097L94.2843 79.2692C94.2445 79.2529 94.2104 79.2251 94.1863 79.1894C94.1623 79.1537 94.1493 79.1117 94.1491 79.0687C94.1495 79.0262 94.162 78.9848 94.1852 78.9493C94.2084 78.9137 94.2412 78.8856 94.2799 78.8681L98.5047 77.0325C97.8246 75.7245 94.1447 68.8009 92.065 65.6965C89.9199 62.4788 79.4603 63.3857 78.6886 63.4555C78.331 63.656 75.6017 65.1995 74.9128 66.5947C74.2239 67.9899 71.3856 77.6953 70.9147 79.3041L76.09 80.4115C76.1343 80.4212 76.1745 80.4445 76.205 80.4781C76.2355 80.5117 76.2547 80.554 76.26 80.599C76.2642 80.644 76.2548 80.6893 76.233 80.7289C76.2113 80.7685 76.1782 80.8007 76.138 80.8214L71.1196 83.2237Z" fill="#263238"/>
<path d="M78.1523 107.609L77.991 67.8722L88.407 66.9043L91.4634 107.221L78.1523 107.609Z" fill="white"/>
<path d="M78.1523 107.827C78.0956 107.827 78.0411 107.805 77.9997 107.766C77.9587 107.724 77.9354 107.668 77.9343 107.609L77.773 67.8722C77.7717 67.8177 77.7913 67.7647 77.8278 67.7242C77.8642 67.6837 77.9148 67.6586 77.9692 67.6542L88.3852 66.7081C88.414 66.7039 88.4433 66.706 88.4711 66.7143C88.499 66.7226 88.5247 66.7368 88.5465 66.756C88.5917 66.7946 88.6199 66.8494 88.625 66.9086L91.677 107.226C91.6787 107.255 91.6745 107.284 91.6648 107.312C91.6551 107.34 91.64 107.365 91.6203 107.387C91.6006 107.409 91.5764 107.427 91.5493 107.439C91.5223 107.451 91.493 107.457 91.4634 107.457L78.1566 107.845L78.1523 107.827ZM78.209 68.0684L78.3703 107.383L91.2279 107.012L88.2065 67.1441L78.209 68.0684Z" fill="#263238"/>
<path d="M76.4475 57.4518C76.4475 57.4518 77.7948 64.9771 77.991 66.9042C78.1872 68.8314 83.1663 82.5349 84.6574 80.2982C86.2837 77.8609 88.2152 70.1873 88.5814 68.4477C88.9476 66.7081 88.9695 59.1914 88.9695 59.1914C88.9695 59.1914 83.9685 62.662 76.4475 57.4518Z" fill="white"/>
<path d="M84.265 80.7647C84.2091 80.7636 84.1536 80.7563 84.0993 80.7429C82.0501 80.2328 77.9604 68.7878 77.773 66.9261C77.5855 65.0643 76.247 57.5695 76.2295 57.491C76.2216 57.4484 76.2265 57.4043 76.2437 57.3645C76.261 57.3247 76.2897 57.2909 76.3262 57.2675C76.3627 57.2441 76.4054 57.2322 76.4487 57.2331C76.4921 57.2341 76.5342 57.248 76.5696 57.273C83.8857 62.3393 88.8125 59.0432 88.8605 59.017C88.8948 58.9967 88.9339 58.9859 88.9738 58.9859C89.0137 58.9859 89.0529 58.9967 89.0872 59.017C89.1224 59.0363 89.1519 59.0647 89.1726 59.0992C89.1933 59.1336 89.2044 59.173 89.2049 59.2132C89.2049 59.5184 89.2049 66.7778 88.8125 68.5174C88.3765 70.4097 86.4886 77.9699 84.8405 80.4421C84.7796 80.54 84.6948 80.6209 84.5942 80.6773C84.4936 80.7337 84.3804 80.7638 84.265 80.7647ZM76.744 57.9227C77.0492 59.6667 78.052 65.2387 78.1959 66.8824C78.3834 68.7616 82.5166 79.9014 84.1952 80.32C84.2737 80.32 84.3653 80.32 84.4699 80.1804C86.0613 77.7868 87.9885 70.1524 88.3939 68.4084C88.7209 66.9391 88.7689 61.1185 88.7733 59.5751C87.5176 60.216 82.9832 62.0167 76.744 57.9227Z" fill="#263238"/>
<path d="M88.9084 64.1923C88.9869 61.7246 88.9869 59.1914 88.9869 59.1914C88.9869 59.1914 83.9685 62.6794 76.4475 57.4474C76.4475 57.4474 77.0013 60.5474 77.4503 63.2767C78.4793 64.5847 80.4369 66.6645 82.8524 67.0525C85.3332 67.4536 87.3388 66.1369 88.9084 64.1923Z" fill="#D2E558"/>
<path opacity="0.5" d="M88.9084 64.1923C88.9869 61.7246 88.9869 59.1914 88.9869 59.1914C88.9869 59.1914 83.9685 62.6794 76.4475 57.4474C76.4475 57.4474 77.0013 60.5474 77.4503 63.2767C78.4793 64.5847 80.4369 66.6645 82.8524 67.0525C85.3332 67.4536 87.3388 66.1369 88.9084 64.1923Z" fill="white"/>
<path d="M93.0373 49.9308C93.0373 49.9308 95.1563 47.2276 95.1563 50.3145C95.1563 53.4013 93.0373 53.8025 93.0373 53.8025V49.9308Z" fill="white"/>
<path d="M93.0373 54.0074C92.9859 54.0081 92.9361 53.9894 92.8978 53.9551C92.8725 53.9357 92.8522 53.9105 92.8385 53.8817C92.8249 53.8529 92.8183 53.8212 92.8193 53.7894V49.9308C92.8184 49.8821 92.8337 49.8345 92.8629 49.7956C93.0504 49.5602 94.0096 48.4004 94.7421 48.6533C95.1781 48.8015 95.3743 49.3465 95.3743 50.3145C95.3743 53.5452 93.0984 53.9987 93.0766 54.003L93.0373 54.0074ZM93.2553 50.0049V53.4929C93.7829 53.2836 94.9383 52.5642 94.9383 50.3145C94.9383 49.2942 94.7028 49.1024 94.6025 49.0675C94.2799 48.9585 93.6303 49.5471 93.2553 50.0049Z" fill="#263238"/>
<path d="M72.009 43.5652C72.009 43.5652 74.516 54.9317 74.516 56.4882C74.516 59.7626 80.6898 63.4337 83.3886 64.2054C86.0875 64.9771 92.6493 58.9952 93.0373 57.4518C93.4254 55.9083 93.6128 42.4054 92.8411 39.7066C92.0694 37.0077 87.644 35.2681 84.7402 35.2681C81.8365 35.2681 73.3606 36.8115 72.009 43.5652Z" fill="white"/>
<path d="M83.9206 64.4932C83.7216 64.4952 83.5234 64.4688 83.332 64.4147C80.716 63.6648 74.2981 59.9588 74.2981 56.4882C74.2981 54.9753 71.8216 43.7265 71.7954 43.6131C71.7911 43.5828 71.7911 43.5519 71.7954 43.5216C73.1775 36.6066 81.8234 35.0501 84.7403 35.0501C87.6571 35.0501 92.2395 36.7941 93.0504 39.6455C93.8614 42.497 93.6259 55.9912 93.2466 57.5215C92.9632 58.6595 89.7848 61.8031 86.9246 63.4555C85.7125 64.14 84.7054 64.4932 83.9206 64.4932ZM72.2314 43.5652C72.4276 44.459 74.7341 54.9666 74.7341 56.4926C74.7341 59.6143 80.7901 63.2375 83.4541 64.0005C84.1735 64.2054 85.2983 63.8828 86.711 63.0675C89.545 61.4325 92.5926 58.3412 92.815 57.3995C93.1769 55.9476 93.3949 42.4621 92.6231 39.7676C91.8776 37.1516 87.4522 35.4861 84.7315 35.4861C81.9193 35.4861 73.5874 36.9729 72.2314 43.5608V43.5652Z" fill="#263238"/>
<path d="M84.7402 35.2681C81.8496 35.2681 73.3606 36.8115 72.009 43.5521C72.009 43.5521 73.5089 50.3537 74.189 54.1556C74.189 52.4116 74.4942 49.0719 76.369 47.6156C78.9589 45.6013 83.2797 45.3092 85.7256 44.1581C88.1716 43.0071 88.7471 39.9856 88.7471 39.9856C88.7471 39.9856 88.891 45.3092 90.0551 46.6085C91.2192 47.9077 92.3615 48.7885 92.5054 51.0687C92.6493 53.349 93.0809 55.6729 91.9299 57.5477C90.7789 59.4225 86.0265 63.0151 83.8682 63.7345C83.5369 63.8479 83.2143 63.9438 82.9091 64.0354C83.0791 64.0964 83.2448 64.1531 83.3974 64.1967C86.1006 64.9684 92.658 58.9865 93.0461 57.4431C93.4341 55.8996 93.6216 42.3967 92.8499 39.6979C92.0781 36.999 87.644 35.2681 84.7402 35.2681Z" fill="#D2E558"/>
<path d="M80.7334 63.0631C79.6827 62.0036 76.8094 59.0693 75.5014 57.5564C75.1235 57.1254 74.785 56.6614 74.4899 56.1699C74.4899 56.2964 74.4899 56.4097 74.4899 56.4882C74.5161 58.908 77.882 61.5414 80.7334 63.0631Z" fill="#D2E558"/>
<g opacity="0.5">
<path opacity="0.5" d="M84.7402 35.2681C81.8496 35.2681 73.3606 36.8115 72.009 43.5521C72.009 43.5521 73.5089 50.3537 74.189 54.1556C74.189 52.4116 74.4942 49.0719 76.369 47.6156C78.9589 45.6013 83.2797 45.3092 85.7256 44.1581C88.1716 43.0071 88.7471 39.9856 88.7471 39.9856C88.7471 39.9856 88.891 45.3092 90.0551 46.6085C91.2192 47.9077 92.3615 48.7885 92.5054 51.0687C92.6493 53.349 93.0809 55.6729 91.9299 57.5477C90.7789 59.4225 86.0265 63.0151 83.8682 63.7345C83.5369 63.8479 83.2143 63.9438 82.9091 64.0354C83.0791 64.0964 83.2448 64.1531 83.3974 64.1967C86.1006 64.9684 92.658 58.9865 93.0461 57.4431C93.4341 55.8996 93.6216 42.3967 92.8499 39.6979C92.0781 36.999 87.644 35.2681 84.7402 35.2681Z" fill="white"/>
<path opacity="0.5" d="M80.7334 63.0631C79.6827 62.0036 76.8094 59.0693 75.5014 57.5564C75.1235 57.1254 74.785 56.6614 74.4899 56.1699C74.4899 56.2964 74.4899 56.4097 74.4899 56.4882C74.5161 58.908 77.882 61.5414 80.7334 63.0631Z" fill="white"/>
</g>
<path d="M81.9978 50.5455C81.9978 51.0862 81.758 51.5222 81.4572 51.5222C81.1563 51.5222 80.9122 51.0862 80.9122 50.5455C80.9122 50.0049 81.1563 49.5689 81.4572 49.5689C81.758 49.5689 81.9978 50.0049 81.9978 50.5455Z" fill="#263238"/>
<path d="M88.3503 50.5455C88.3503 51.0862 88.1062 51.5222 87.8053 51.5222C87.5045 51.5222 87.2603 51.0862 87.2603 50.5455C87.2603 50.0049 87.5045 49.5689 87.8053 49.5689C88.1062 49.5689 88.3503 50.0049 88.3503 50.5455Z" fill="#263238"/>
<path d="M85.3986 54.6745C85.3548 54.6752 85.3118 54.662 85.2759 54.637C85.2399 54.612 85.2127 54.5763 85.1981 54.535C85.1764 54.4817 85.1766 54.4221 85.1986 54.369C85.2207 54.316 85.2628 54.2737 85.3158 54.2516C86.1878 53.9115 87.4173 53.24 87.4958 52.8215C87.5307 52.6601 87.4653 52.6035 86.9115 52.4814C86.5092 52.4266 86.1302 52.2605 85.8172 52.0018C85.1675 51.3521 85.6995 49.5297 85.7649 49.3247C85.7816 49.2669 85.8207 49.2181 85.8734 49.1891C85.8995 49.1747 85.9282 49.1656 85.9578 49.1624C85.9875 49.1591 86.0174 49.1617 86.0461 49.17C86.0747 49.1783 86.1014 49.1921 86.1247 49.2107C86.148 49.2294 86.1673 49.2524 86.1817 49.2785C86.1961 49.3046 86.2052 49.3333 86.2085 49.3629C86.2117 49.3926 86.2092 49.4226 86.2009 49.4512C85.9916 50.1313 85.791 51.3434 86.1442 51.6966C86.3993 51.8888 86.6996 52.0119 87.0162 52.0541C87.4522 52.1544 88.0582 52.2895 87.9318 52.9261C87.7748 53.7284 85.8651 54.5262 85.4858 54.6701C85.4574 54.678 85.4277 54.6794 85.3986 54.6745Z" fill="#263238"/>
<path d="M83.4671 57.5782C83.0196 57.6044 82.5728 57.5151 82.1697 57.3188C81.7665 57.1226 81.4206 56.8261 81.1651 56.4577C81.1489 56.4341 81.1376 56.4075 81.1319 56.3794C81.1262 56.3513 81.1261 56.3224 81.1318 56.2944C81.1375 56.2663 81.1488 56.2397 81.165 56.216C81.1812 56.1924 81.202 56.1723 81.2261 56.1569C81.2742 56.1253 81.3327 56.114 81.3891 56.1255C81.4454 56.1369 81.495 56.1701 81.5269 56.2179C82.5733 57.7919 85.0149 56.8675 85.0149 56.8588C85.0687 56.8374 85.1288 56.8383 85.1819 56.8612C85.2351 56.8841 85.2769 56.9271 85.2983 56.9809C85.3197 57.0347 85.3189 57.0947 85.296 57.1479C85.2731 57.201 85.23 57.2429 85.1762 57.2643C84.6277 57.4624 84.0502 57.5685 83.4671 57.5782Z" fill="#263238"/>
<path d="M79.4646 49.0283C79.4386 49.0324 79.4122 49.0324 79.3862 49.0283C79.3591 49.0181 79.3344 49.0027 79.3134 48.9829C79.2923 48.9631 79.2755 48.9394 79.2637 48.913C79.2519 48.8866 79.2455 48.8582 79.2448 48.8293C79.2442 48.8005 79.2492 48.7718 79.2597 48.7449C79.4856 48.2111 79.9022 47.7806 80.4282 47.5372C80.7505 47.4122 81.0948 47.354 81.4403 47.3659C81.7858 47.3779 82.1253 47.4599 82.4382 47.6069C82.4919 47.6283 82.535 47.6702 82.5579 47.7233C82.5808 47.7765 82.5816 47.8365 82.5603 47.8903C82.5389 47.9441 82.497 47.9872 82.4438 48.01C82.3907 48.0329 82.3306 48.0338 82.2769 48.0124C82.0175 47.8871 81.7355 47.8156 81.4477 47.8021C81.16 47.7886 80.8726 47.8335 80.6026 47.9339C80.1843 48.1339 79.8517 48.4773 79.6652 48.9018C79.6485 48.9407 79.6204 48.9736 79.5845 48.9962C79.5487 49.0188 79.5069 49.0299 79.4646 49.0283Z" fill="#263238"/>
<path d="M88.782 48.3132C88.7486 48.3128 88.7158 48.3052 88.6857 48.2909C88.6556 48.2766 88.6289 48.2559 88.6076 48.2304C88.1716 47.6854 87.7748 47.4194 87.3824 47.4369C87.1928 47.469 87.0121 47.5408 86.8521 47.6475C86.6921 47.7542 86.5564 47.8933 86.4537 48.056C86.4224 48.1043 86.3735 48.1386 86.3174 48.1516C86.2613 48.1646 86.2023 48.1553 86.1529 48.1257C86.1281 48.111 86.1065 48.0914 86.0894 48.0681C86.0724 48.0448 86.0602 48.0183 86.0537 47.9902C86.0472 47.9621 86.0464 47.933 86.0515 47.9045C86.0566 47.8761 86.0673 47.849 86.0831 47.8249C86.2217 47.6024 86.4077 47.4132 86.6277 47.2708C86.8478 47.1284 87.0965 47.0362 87.3562 47.0009C87.9143 46.9703 88.4419 47.2973 88.952 47.9644C88.9872 48.0101 89.0028 48.0679 88.9954 48.1251C88.9881 48.1823 88.9583 48.2343 88.9128 48.2696C88.8752 48.2982 88.8292 48.3135 88.782 48.3132Z" fill="#263238"/>
<path d="M93.8091 36.8115C91.8994 34.6315 89.8851 34.7623 88.6817 35.2332C87.0511 32.4864 81.6621 30.3064 74.7297 32.9529C66.6288 36.0398 67.5924 44.3369 67.9804 45.8803C68.3684 47.4238 71.0673 51.4742 72.8026 51.6661C72.8026 51.6661 74.346 50.3145 74.346 48.9672C74.346 47.62 78.0128 44.9168 81.6752 43.757C83.9816 43.0289 86.5148 41.6904 87.9797 39.9813C87.9526 41.1035 88.2412 42.2108 88.8125 43.1771C89.9722 44.9211 91.7075 45.8803 91.7075 46.4602C91.7075 47.0401 92.6711 49.1591 93.4515 49.1591C94.232 49.1591 94.2233 46.0722 94.4151 44.7206C94.6069 43.369 96.5079 39.8984 93.8091 36.8115Z" fill="#263238"/>
<path d="M72.7808 51.8841H72.7546C70.858 51.6704 68.1374 47.4848 67.745 45.9327C67.7232 45.8367 65.5911 36.1968 74.6338 32.7524C81.3089 30.2061 86.8418 31.9807 88.7733 34.9673C89.7586 34.6359 91.9125 34.3133 93.9704 36.6677C96.2245 39.2444 95.37 42.0741 94.8424 43.7701C94.7359 44.0913 94.6499 44.419 94.5852 44.7511C94.5372 45.0781 94.5023 45.5185 94.4631 45.9806C94.2974 48.0342 94.1317 49.3771 93.4036 49.3771C92.4444 49.3771 91.4503 47.075 91.4503 46.4602C91.4503 46.2771 91.0143 45.8673 90.5783 45.4749C89.8315 44.8322 89.1667 44.1 88.5989 43.2949C88.0747 42.4577 87.7744 41.4998 87.7269 40.5132C86.3404 41.9215 84.1299 43.1902 81.6839 43.9619C77.9866 45.1304 74.5073 47.7682 74.5073 48.9629C74.5073 50.3929 72.9552 51.7663 72.8898 51.8274C72.8596 51.8563 72.8218 51.876 72.7808 51.8841ZM80.777 31.9807C78.7252 32.0055 76.6951 32.4044 74.7864 33.1579C66.0969 36.4715 68.1461 45.7321 68.1679 45.828C68.5516 47.3627 71.1153 51.1211 72.711 51.435C73.0075 51.1559 74.1062 50.0398 74.1062 48.9672C74.1062 47.4543 77.882 44.7206 81.588 43.5477C84.1822 42.7324 86.5017 41.3416 87.7923 39.8374C87.822 39.8037 87.8613 39.7799 87.9049 39.769C87.9485 39.7581 87.9943 39.7607 88.0364 39.7763C88.0777 39.7923 88.1132 39.8204 88.1381 39.857C88.1631 39.8936 88.1763 39.937 88.1759 39.9813C88.1485 41.0618 88.4249 42.1283 88.9738 43.0594C89.5231 43.8333 90.166 44.5362 90.8879 45.1522C91.4983 45.7147 91.9037 46.0853 91.9037 46.4602C91.9037 47.0227 92.8455 48.9411 93.421 48.9411C93.8047 48.9411 93.9748 46.8439 94.0489 45.9457C94.0838 45.4749 94.123 45.0301 94.171 44.6901C94.2377 44.3356 94.328 43.9861 94.4413 43.6437C94.9558 41.9345 95.7493 39.3491 93.6434 36.9554C91.7076 34.7449 89.7543 35.0545 88.7602 35.4381C88.7117 35.4564 88.6583 35.4567 88.6096 35.4391C88.5608 35.4216 88.5199 35.3872 88.4942 35.3422C87.4696 33.6244 84.6836 31.9807 80.777 31.9807Z" fill="#263238"/>
<path d="M71.1588 46.8483H71.1196C71.063 46.8377 71.013 46.8051 70.9803 46.7578C70.9476 46.7104 70.935 46.652 70.9452 46.5954C71.0716 45.9196 71.5469 45.3441 72.4015 44.8252C72.4511 44.7969 72.5099 44.7893 72.5652 44.8039C72.6204 44.8185 72.6677 44.8543 72.6969 44.9034C72.7261 44.9526 72.7347 45.0113 72.7211 45.0668C72.7074 45.1223 72.6725 45.1702 72.6238 45.2002C71.887 45.6362 71.4771 46.1289 71.3725 46.6782C71.3623 46.727 71.3354 46.7708 71.2964 46.8018C71.2574 46.8329 71.2087 46.8493 71.1588 46.8483Z" fill="white"/>
<path d="M73.9187 44.5593C73.8746 44.559 73.8315 44.5456 73.795 44.5207C73.7585 44.4959 73.7303 44.4607 73.7138 44.4197C73.694 44.366 73.6961 44.3065 73.7198 44.2543C73.7434 44.202 73.7867 44.1612 73.8402 44.1407C75.3535 43.6041 76.9002 43.1672 78.4706 42.8327C79.639 42.5624 80.7465 42.3008 81.6665 42.0087C85.1196 40.9099 87.0554 37.9015 87.0772 37.8754C87.0919 37.8506 87.1115 37.829 87.1348 37.8119C87.1581 37.7949 87.1846 37.7827 87.2127 37.7762C87.2408 37.7697 87.27 37.7689 87.2984 37.774C87.3268 37.779 87.3539 37.7898 87.3781 37.8056C87.4266 37.8369 87.4607 37.8861 87.4729 37.9425C87.4852 37.9989 87.4746 38.0579 87.4435 38.1065C86.0678 40.1186 84.0802 41.6338 81.7755 42.4272C80.8424 42.7237 79.7263 42.9853 78.5491 43.26C76.9989 43.5825 75.4711 44.0048 73.9754 44.5244C73.9582 44.5385 73.9391 44.5502 73.9187 44.5593Z" fill="white"/>
<path d="M70.5092 40.6701C70.4654 40.6705 70.4226 40.6567 70.3871 40.6309C70.3393 40.5989 70.3061 40.5494 70.2947 40.4931C70.2833 40.4367 70.2945 40.3781 70.3261 40.3301C70.7621 39.6543 71.9393 39.7022 73.6964 39.772C75.1213 39.8518 76.5497 39.8431 77.9735 39.7458C81.9368 39.4275 85.4771 37.0426 85.512 37.0165C85.5601 36.9849 85.6186 36.9736 85.675 36.9851C85.7313 36.9965 85.7809 37.0297 85.8128 37.0775C85.8292 37.1008 85.8408 37.1272 85.8468 37.1551C85.8529 37.183 85.8533 37.2118 85.848 37.2399C85.8427 37.2679 85.8318 37.2946 85.8161 37.3184C85.8003 37.3422 85.7799 37.3626 85.7562 37.3783C85.6079 37.4786 82.085 39.8548 78.0084 40.1818C76.5672 40.2813 75.1212 40.29 73.6789 40.208C72.1268 40.1469 71.0063 40.099 70.688 40.5742C70.6685 40.6038 70.6419 40.628 70.6107 40.6448C70.5795 40.6615 70.5446 40.6702 70.5092 40.6701Z" fill="white"/>
<path d="M93.9311 42.9461C93.9025 42.9449 93.8744 42.9382 93.8483 42.9262C93.8223 42.9142 93.7989 42.8971 93.7795 42.8761C93.76 42.855 93.745 42.8303 93.7351 42.8035C93.7252 42.7766 93.7207 42.748 93.7219 42.7193C93.7415 42.1804 93.7021 41.6409 93.6041 41.1105C93.5978 41.0824 93.5972 41.0533 93.6024 41.025C93.6076 40.9966 93.6184 40.9696 93.6343 40.9456C93.6502 40.9216 93.6708 40.901 93.6948 40.8851C93.7188 40.8693 93.7458 40.8584 93.7742 40.8532C93.8025 40.8476 93.8317 40.8476 93.8601 40.8533C93.8885 40.859 93.9154 40.8703 93.9393 40.8866C93.9633 40.9028 93.9837 40.9236 93.9996 40.9478C94.0154 40.9721 94.0262 40.9992 94.0314 41.0276C94.1344 41.5912 94.1768 42.1642 94.1579 42.7368C94.1567 42.7654 94.15 42.7935 94.138 42.8196C94.126 42.8456 94.1089 42.869 94.0879 42.8884C94.0668 42.9079 94.0421 42.923 94.0152 42.9328C93.9883 42.9427 93.9598 42.9472 93.9311 42.9461Z" fill="white"/>
<path d="M93.5736 40.4129C93.5281 40.4132 93.4837 40.399 93.4469 40.3723C93.41 40.3457 93.3826 40.308 93.3687 40.2646C93.0871 39.4889 92.6356 38.786 92.0471 38.2073C91.4587 37.6287 90.7483 37.189 89.9679 36.9205C89.9122 36.9043 89.8651 36.8669 89.8366 36.8164C89.8081 36.7659 89.8005 36.7063 89.8153 36.6502C89.8233 36.6227 89.8367 36.5971 89.8546 36.5748C89.8725 36.5524 89.8946 36.5339 89.9198 36.5201C89.9449 36.5063 89.9724 36.4977 90.0009 36.4945C90.0293 36.4914 90.0581 36.494 90.0856 36.502C90.9365 36.7834 91.7116 37.2559 92.3517 37.8831C92.9918 38.5104 93.4799 39.2758 93.7785 40.1208C93.7881 40.148 93.7923 40.1768 93.7907 40.2056C93.7891 40.2344 93.7818 40.2625 93.7692 40.2885C93.7566 40.3145 93.739 40.3377 93.7174 40.3568C93.6958 40.3759 93.6707 40.3905 93.6434 40.3998C93.6211 40.4084 93.5975 40.4128 93.5736 40.4129Z" fill="white"/>
<path d="M79.5518 60.2029C78.9844 60.2251 78.4202 60.1083 77.9081 59.8629C76.247 58.9909 73.2952 55.0669 73.1731 54.8837C73.1385 54.8375 73.1236 54.7793 73.1317 54.7221C73.1399 54.6649 73.1705 54.6132 73.2167 54.5785C73.263 54.5438 73.3211 54.5289 73.3784 54.5371C73.4356 54.5453 73.4873 54.5759 73.5219 54.6221C73.5525 54.6614 76.5347 58.6464 78.113 59.4792C79.6914 60.3119 82.6518 59.1522 82.6823 59.1391C82.7092 59.1288 82.7379 59.1239 82.7667 59.1247C82.7955 59.1254 82.8239 59.1319 82.8502 59.1436C82.8765 59.1554 82.9003 59.1722 82.9201 59.1931C82.9399 59.214 82.9554 59.2386 82.9657 59.2655C82.976 59.2924 82.9809 59.3211 82.9801 59.3499C82.9794 59.3787 82.9729 59.4071 82.9612 59.4334C82.9494 59.4597 82.9326 59.4835 82.9117 59.5033C82.8908 59.5231 82.8662 59.5386 82.8393 59.5489C81.7847 59.9386 80.6752 60.1593 79.5518 60.2029Z" fill="#263238"/>
<path d="M83.8421 59.3789C83.8421 59.7757 83.3538 60.1027 82.7564 60.1027C82.1591 60.1027 81.6708 59.7757 81.6708 59.3789C81.6708 58.9821 82.1548 58.6551 82.7564 58.6551C83.3581 58.6551 83.8421 58.9778 83.8421 59.3789Z" fill="#263238"/>
<path d="M71.6472 49.2332C71.6472 49.2332 68.0676 39.9638 71.6472 34.4353C71.6472 34.4353 66.1143 40.1251 70.9975 50.5368L71.6472 49.2332Z" fill="white"/>
<path d="M74.128 52.2372C74.455 54.4172 73.8621 56.3007 72.7982 56.4621C71.7344 56.6234 70.6182 54.9884 70.2869 52.8127C69.9555 50.6371 70.5572 48.7492 71.6167 48.5879C72.6761 48.4266 73.8185 50.0616 74.128 52.2372Z" fill="white"/>
<path d="M72.6674 56.68C71.5294 56.68 70.4176 55.0538 70.0863 52.8389C69.9163 51.8501 69.9684 50.8359 70.2389 49.8697C70.5136 48.9977 70.9975 48.4527 71.5992 48.3655C72.7938 48.1868 74.0103 49.8654 74.3591 52.1936C74.5269 53.1825 74.4748 54.1963 74.2065 55.1628C73.9274 56.0348 73.4478 56.5798 72.8462 56.667C72.787 56.6756 72.7272 56.68 72.6674 56.68ZM71.7954 48.7885C71.7563 48.7841 71.7168 48.7841 71.6777 48.7885C71.2417 48.8495 70.8929 49.2899 70.6705 49.9918C70.4211 50.8948 70.375 51.8418 70.5354 52.7648C70.8362 54.7791 71.8695 56.3705 72.7982 56.2266C73.2342 56.1656 73.5874 55.7252 73.8097 55.0232C74.057 54.1199 74.1031 53.1734 73.9449 52.2503C73.6353 50.3319 72.6718 48.7972 71.778 48.7972L71.7954 48.7885Z" fill="#263238"/>
<path d="M72.2048 56.397C73.1478 56.2552 73.6472 54.3779 73.3204 52.2038C72.9935 50.0298 71.9641 48.3823 71.0212 48.5241C70.0782 48.6659 69.5788 50.5432 69.9056 52.7172C70.2325 54.8913 71.2619 56.5387 72.2048 56.397Z" fill="white"/>
<path d="M72.0832 56.6277C71.5861 56.6277 71.076 56.2484 70.6356 55.5465C70.1358 54.6891 69.8127 53.7403 69.6852 52.7561C69.332 50.4235 69.9075 48.4745 70.9932 48.3132C72.0788 48.1519 73.1732 49.8479 73.5438 52.1762C73.7091 53.1548 73.6795 54.1564 73.4566 55.1235C73.2211 55.9955 72.7895 56.5362 72.2401 56.619L72.0832 56.6277ZM71.124 48.7361H71.0498C70.3435 48.8408 69.7854 50.4801 70.1168 52.6601C70.233 53.5809 70.5293 54.4698 70.9888 55.2761C71.3725 55.8822 71.791 56.2005 72.1529 56.1481C72.5148 56.0958 72.8287 55.6642 73.0249 54.9709C73.2339 54.0623 73.2606 53.1213 73.1034 52.2023C72.7851 50.1401 71.8259 48.7361 71.124 48.7361Z" fill="#263238"/>
<path d="M107.12 67.676L112.147 107.417L102.106 107.221L107.12 67.676Z" fill="#D2E558"/>
<path d="M112.147 107.635L102.119 107.439C102.089 107.439 102.058 107.432 102.031 107.419C102.003 107.407 101.978 107.388 101.958 107.365C101.938 107.342 101.924 107.314 101.916 107.285C101.908 107.256 101.906 107.225 101.91 107.195L106.92 67.6498C106.926 67.5967 106.952 67.5477 106.992 67.5123C107.032 67.4769 107.084 67.4576 107.138 67.458C107.19 67.4587 107.241 67.4785 107.28 67.5138C107.32 67.549 107.345 67.5974 107.351 67.6498L112.378 107.387C112.383 107.418 112.381 107.45 112.372 107.48C112.363 107.51 112.347 107.538 112.326 107.561C112.304 107.587 112.276 107.606 112.245 107.619C112.214 107.632 112.181 107.638 112.147 107.635ZM102.355 107.008L111.899 107.195L107.103 69.4113L102.355 107.008Z" fill="#263238"/>
<path opacity="0.3" d="M109.858 89.3495L104.631 92.4887L104.718 86.6158L102.106 107.221L112.147 107.417L111.323 100.925L106.941 101.069L110.83 97.0275L110.8 96.7615L105.455 98.5927L110.29 92.7373L109.858 89.3495Z" fill="black"/>
<path d="M71.1981 55.9563C71.1981 55.9563 72.6805 55.4375 73.0031 56.0086C73.3258 56.5798 73.7007 59.0606 73.692 59.4138C73.6833 59.7669 73.5612 60.0896 72.8898 59.8498C72.2183 59.61 71.1458 57.4256 71.1458 57.4256L71.1981 55.9563Z" fill="white"/>
<path d="M73.2865 60.1681C73.1252 60.1636 72.9658 60.1312 72.8156 60.0721C72.1006 59.8062 71.1414 57.9183 70.9583 57.539C70.9517 57.5059 70.9517 57.4718 70.9583 57.4387L71.0019 55.9737C71.0028 55.9297 71.017 55.8869 71.0427 55.8511C71.0684 55.8153 71.1043 55.7881 71.1458 55.7732C71.4248 55.6773 72.82 55.2282 73.2124 55.9258C73.5568 56.5318 73.9449 59.0781 73.9318 59.4443C73.938 59.562 73.9168 59.6796 73.8699 59.7878C73.823 59.896 73.7516 59.9918 73.6615 60.0678C73.5501 60.1397 73.4189 60.1748 73.2865 60.1681ZM71.3725 57.3951C71.778 58.2104 72.5453 59.5053 72.9639 59.6623C73.2647 59.7713 73.3694 59.7233 73.3999 59.7059C73.4304 59.6885 73.4784 59.5795 73.4827 59.4312C73.4827 59.1304 73.1208 56.6757 72.82 56.1394C72.6761 55.8778 71.948 55.9781 71.4204 56.1394L71.3725 57.3951Z" fill="#263238"/>
<path d="M64.7104 63.8217C64.7104 63.8217 66.0838 54.9927 66.1143 54.0335C66.1448 53.0743 67.4223 52.2895 68.0327 52.0541C68.6431 51.8187 72.1311 51.932 72.5017 51.9451C72.8723 51.9582 74.3635 51.8797 74.3504 52.3811C74.3373 52.8825 74.2065 53.0961 72.9595 53.2967C71.7126 53.4973 68.7303 53.6542 68.7303 53.6542L67.9499 54.8314L71.6515 55.5377C71.6515 55.5377 72.5235 55.9214 72.3666 56.5187C72.2096 57.1161 71.778 59.7364 71.7693 60.0939C71.7605 60.4515 71.3769 60.6825 70.4918 61.2581C69.9634 61.5998 69.3693 61.827 68.7478 61.9251C68.7478 61.9251 68.8175 63.7258 68.3118 63.9482L67.0517 64.5106L66.8773 74.8133L61.1875 74.168L64.7104 63.8217Z" fill="white"/>
<path d="M66.873 74.9921H66.8468L61.1788 74.3468C61.1462 74.343 61.1148 74.3321 61.0869 74.3147C61.059 74.2974 61.0353 74.2741 61.0175 74.2465C61.0035 74.2172 60.9963 74.1852 60.9963 74.1528C60.9963 74.1203 61.0035 74.0883 61.0175 74.059L64.5404 63.752C64.6101 63.316 65.9094 54.923 65.9356 54.0117C65.9661 52.913 67.3657 52.0541 67.9979 51.8317C68.6301 51.6094 71.3812 51.6748 72.5453 51.7097H72.7415C73.4653 51.7097 74.1934 51.7315 74.4855 52.0279C74.527 52.0697 74.5596 52.1194 74.5813 52.1741C74.603 52.2288 74.6135 52.2874 74.612 52.3462C74.612 53.0351 74.2545 53.2749 73.038 53.4755C71.9131 53.6586 69.4541 53.7981 68.896 53.8286L68.3597 54.6396L71.7387 55.2849H71.7867C71.8259 55.2849 72.8069 55.7514 72.6238 56.5144C72.4712 57.1553 72.0396 59.7321 72.0309 60.0503C72.0309 60.4863 71.6254 60.761 70.7708 61.3147L70.6574 61.3889C70.1525 61.7112 69.5923 61.9374 69.005 62.0559C69.005 62.6489 68.9614 63.861 68.4382 64.0964L67.309 64.6022L67.1346 74.7653C67.1337 74.7958 67.1267 74.8258 67.114 74.8535C67.1012 74.8813 67.083 74.9061 67.0604 74.9267C67.0366 74.9516 67.0072 74.9706 66.9746 74.9819C66.942 74.9933 66.9072 74.9968 66.873 74.9921ZM61.484 73.9631L66.6593 74.5561L66.8294 64.4932C66.8309 64.4521 66.844 64.4123 66.8671 64.3784C66.8902 64.3445 66.9225 64.3177 66.9602 64.3013L68.2159 63.7389C68.4339 63.6386 68.5516 62.7012 68.5211 61.9208C68.5185 61.8657 68.5368 61.8118 68.5724 61.7697C68.608 61.7276 68.6582 61.7006 68.7129 61.6941C69.3049 61.6025 69.8709 61.3871 70.3741 61.0619L70.4918 60.9877C71.2373 60.4994 71.5425 60.2945 71.5513 60.0765C71.5513 59.6754 72.0265 57.0245 72.1573 56.4533C72.2445 56.0871 71.7213 55.7906 71.5861 55.7339L67.9107 55.032C67.8752 55.025 67.8419 55.0094 67.8138 54.9866C67.7857 54.9638 67.7635 54.9345 67.7493 54.9012C67.7332 54.8694 67.7249 54.8343 67.7249 54.7987C67.7249 54.7631 67.7332 54.728 67.7493 54.6963L68.5254 53.5191C68.5455 53.4911 68.5716 53.468 68.6018 53.4514C68.6319 53.4348 68.6654 53.4251 68.6998 53.4231C68.726 53.4231 71.6821 53.2705 72.9029 53.07C74.1237 52.8694 74.1019 52.6819 74.1106 52.3593C74.0713 52.2939 73.8359 52.1718 72.7067 52.1718H72.4712C70.7272 52.1195 68.5167 52.1151 68.0851 52.2677C67.4965 52.477 66.3411 53.2357 66.3105 54.051C66.28 55.0102 64.9633 63.5035 64.9066 63.8653C64.9066 63.8653 64.9066 63.8915 64.9066 63.9002L61.484 73.9631Z" fill="#263238"/>
<path d="M72.0701 57.2163H72.0309L67.5401 56.4097C67.4822 56.3993 67.4309 56.3664 67.3974 56.3181C67.3639 56.2699 67.3509 56.2103 67.3613 56.1525C67.3717 56.0947 67.4046 56.0434 67.4529 56.0098C67.5011 55.9763 67.5607 55.9633 67.6185 55.9737L72.1093 56.7847C72.1671 56.7899 72.2205 56.8179 72.2577 56.8624C72.2949 56.907 72.3129 56.9645 72.3077 57.0223C72.3025 57.0801 72.2745 57.1335 72.23 57.1707C72.1854 57.2079 72.1279 57.2259 72.0701 57.2207V57.2163Z" fill="#263238"/>
<path d="M71.56 59.2307H71.512L67.8147 58.3325C67.7569 58.3192 67.7067 58.2835 67.6753 58.2332C67.6438 58.1829 67.6336 58.1222 67.6469 58.0644C67.6602 58.0065 67.6959 57.9564 67.7462 57.9249C67.7965 57.8934 67.8572 57.8832 67.915 57.8965L71.6166 58.7947C71.6446 58.8007 71.671 58.8124 71.6942 58.8291C71.7174 58.8458 71.737 58.867 71.7517 58.8915C71.7664 58.916 71.7759 58.9433 71.7797 58.9716C71.7835 58.9999 71.7814 59.0288 71.7736 59.0563C71.7643 59.1059 71.7378 59.1506 71.6987 59.1825C71.6596 59.2145 71.6104 59.2315 71.56 59.2307Z" fill="#263238"/>
<path d="M68.739 62.1213C68.7024 62.1221 68.6662 62.1133 68.6341 62.0957C68.6019 62.0781 68.575 62.0523 68.5559 62.0211C68.399 61.7769 68.0458 61.1796 68.1635 60.8526C68.182 60.8005 68.2126 60.7536 68.2528 60.7157C68.293 60.6778 68.3416 60.65 68.3946 60.6346C68.739 60.5299 69.5413 60.325 69.5413 60.325L69.6503 60.761C69.6503 60.761 68.9352 60.9441 68.5734 61.0488C68.6457 61.3169 68.7637 61.5706 68.9222 61.7987C68.9533 61.8473 68.9639 61.9062 68.9516 61.9626C68.9394 62.019 68.9053 62.0683 68.8568 62.0995C68.8199 62.1165 68.7795 62.124 68.739 62.1213Z" fill="#263238"/>
<path d="M61.6976 68.8314L67.8452 71.1509C67.8452 71.1509 63.5637 98.0259 62.5348 100.136C61.5058 102.246 59.0991 104.697 55.9948 104.993C52.8904 105.29 50.645 101.941 50.5535 98.4227C50.4619 94.9042 61.6976 68.8314 61.6976 68.8314Z" fill="#D2E558"/>
<path d="M55.598 105.229C54.5256 105.218 53.4954 104.809 52.7073 104.082C51.2947 102.826 50.3791 100.664 50.3224 98.414C50.2265 94.9042 61.0393 69.7949 61.4971 68.7267C61.5201 68.6756 61.5619 68.6352 61.6139 68.6141C61.6659 68.593 61.724 68.5927 61.7761 68.6134L67.9237 70.9285C67.9709 70.9452 68.0107 70.978 68.0361 71.021C68.0616 71.064 68.0712 71.1146 68.0633 71.164C67.8889 72.2627 63.7643 98.1 62.7266 100.21C61.6192 102.477 59.1078 104.897 55.9991 105.194C55.8683 105.224 55.7332 105.229 55.598 105.229ZM61.8154 69.1104C60.7951 71.491 50.6712 95.1614 50.7584 98.4183C50.8107 100.533 51.6697 102.578 52.9995 103.755C53.393 104.124 53.8602 104.406 54.3704 104.582C54.8807 104.758 55.4224 104.824 55.9599 104.775C58.8985 104.496 61.2791 102.194 62.3386 100.04C63.3021 98.0739 67.2305 73.6187 67.6055 71.2904L61.8154 69.1104Z" fill="#263238"/>
<path opacity="0.3" d="M56.6095 91.3333C55.1099 92.0981 53.544 92.7256 51.9312 93.2081C51.3775 94.817 50.9546 96.1817 50.7279 97.1583L53.636 96.7921C55.708 96.5533 57.7521 96.1153 59.74 95.4841C59.74 95.4841 54.944 98.4532 50.6669 98.9503H50.5666C50.85 102.255 53.0125 105.29 55.9773 105.006C59.0947 104.71 61.4971 102.255 62.5173 100.149C63.0231 99.1116 64.3136 92.1094 65.4952 85.2511C62.7562 87.5863 59.7777 89.6251 56.6095 91.3333Z" fill="black"/>
<path d="M122.406 22.6721V21.4774C122.406 21.3086 122.339 21.1467 122.22 21.0273C122.101 20.9079 121.939 20.8409 121.77 20.8409H120.85C120.71 20.2389 120.471 19.6643 120.144 19.1405L120.793 18.4865C120.912 18.3664 120.979 18.2042 120.979 18.0352C120.979 17.8662 120.912 17.704 120.793 17.5839L119.952 16.7425C119.832 16.6234 119.669 16.5567 119.5 16.5567C119.331 16.5567 119.169 16.6234 119.049 16.7425L118.395 17.3921C117.871 17.0643 117.297 16.8256 116.695 16.6858V15.7658C116.695 15.597 116.628 15.4351 116.508 15.3157C116.389 15.1963 116.227 15.1293 116.058 15.1293H114.864C114.695 15.1293 114.533 15.1963 114.413 15.3157C114.294 15.4351 114.227 15.597 114.227 15.7658V16.6858C113.625 16.8256 113.05 17.0643 112.527 17.3921L111.873 16.7425C111.753 16.6234 111.59 16.5567 111.421 16.5567C111.252 16.5567 111.09 16.6234 110.97 16.7425L110.129 17.5839C110.01 17.704 109.943 17.8662 109.943 18.0352C109.943 18.2042 110.01 18.3664 110.129 18.4865L110.778 19.1405C110.45 19.6636 110.213 20.2385 110.076 20.8409H109.152C108.983 20.8409 108.821 20.9079 108.702 21.0273C108.582 21.1467 108.515 21.3086 108.515 21.4774V22.6721C108.515 22.8409 108.582 23.0028 108.702 23.1222C108.821 23.2416 108.983 23.3086 109.152 23.3086H110.076C110.213 23.9109 110.45 24.4859 110.778 25.009L110.129 25.663C110.01 25.7831 109.943 25.9452 109.943 26.1143C109.943 26.2833 110.01 26.4455 110.129 26.5655L110.97 27.407C111.09 27.526 111.252 27.5928 111.421 27.5928C111.59 27.5928 111.753 27.526 111.873 27.407L112.527 26.7574C113.053 27.09 113.633 27.3303 114.24 27.4681V28.3924C114.24 28.5612 114.307 28.7231 114.427 28.8425C114.546 28.9619 114.708 29.0289 114.877 29.0289H116.071C116.24 29.0289 116.402 28.9619 116.521 28.8425C116.641 28.7231 116.708 28.5612 116.708 28.3924V27.4681C117.31 27.3316 117.885 27.0943 118.408 26.7661L119.062 27.4157C119.182 27.5348 119.344 27.6015 119.513 27.6015C119.683 27.6015 119.845 27.5348 119.965 27.4157L120.78 26.5961C120.899 26.476 120.966 26.3138 120.966 26.1448C120.966 25.9758 120.899 25.8136 120.78 25.6935L120.13 25.0395C120.458 24.5157 120.697 23.9411 120.837 23.3391H121.757C121.844 23.341 121.931 23.3249 122.012 23.2919C122.092 23.2588 122.166 23.2094 122.227 23.1468C122.288 23.0843 122.335 23.0098 122.366 22.9282C122.397 22.8465 122.411 22.7593 122.406 22.6721ZM115.74 24.791C115.179 24.851 114.612 24.7353 114.119 24.4601C113.627 24.1848 113.231 23.7635 112.988 23.2541C112.744 22.7448 112.665 22.1724 112.76 21.616C112.855 21.0595 113.121 20.5463 113.52 20.1471C113.919 19.7479 114.433 19.4823 114.989 19.387C115.545 19.2916 116.118 19.3711 116.627 19.6146C117.137 19.858 117.558 20.2535 117.833 20.7464C118.108 21.2393 118.224 21.8055 118.164 22.3669C118.1 22.9892 117.824 23.5706 117.383 24.0142C116.942 24.4577 116.362 24.7366 115.74 24.8041V24.791Z" fill="#263238"/>
<path d="M10.7904 74.7566V73.8584C10.7904 73.7301 10.7394 73.607 10.6486 73.5162C10.5578 73.4255 10.4347 73.3745 10.3064 73.3745H9.60007C9.4951 72.9207 9.31533 72.4875 9.06815 72.0927L9.56083 71.6043C9.60565 71.5598 9.64122 71.5068 9.66549 71.4484C9.68976 71.39 9.70226 71.3275 9.70226 71.2642C9.70226 71.201 9.68976 71.1385 9.66549 71.0801C9.64122 71.0217 9.60565 70.9687 9.56083 70.9242L8.92427 70.2876C8.8797 70.2428 8.82671 70.2072 8.76835 70.1829C8.70998 70.1587 8.6474 70.1462 8.58419 70.1462C8.52098 70.1462 8.4584 70.1587 8.40003 70.1829C8.34167 70.2072 8.28868 70.2428 8.24411 70.2876L7.75143 70.7759C7.35716 70.5286 6.9237 70.3502 6.46959 70.2484V69.5508C6.46959 69.4236 6.41906 69.3016 6.32912 69.2116C6.23918 69.1217 6.11719 69.0712 5.98999 69.0712H5.10491C4.97731 69.0712 4.85486 69.1215 4.76423 69.2114C4.67359 69.3012 4.6221 69.4232 4.62095 69.5508V70.2484C4.16684 70.3502 3.73337 70.5286 3.33911 70.7759L2.84643 70.2876C2.80186 70.2428 2.74887 70.2072 2.69051 70.1829C2.63214 70.1587 2.56956 70.1462 2.50635 70.1462C2.44314 70.1462 2.38055 70.1587 2.32219 70.1829C2.26383 70.2072 2.21084 70.2428 2.16627 70.2876L1.53407 70.9242C1.48872 70.9684 1.45268 71.0213 1.42807 71.0797C1.40347 71.1381 1.39079 71.2009 1.39079 71.2642C1.39079 71.3276 1.40347 71.3904 1.42807 71.4488C1.45268 71.5072 1.48872 71.5601 1.53407 71.6043L2.02239 72.0927C1.7752 72.4875 1.59544 72.9207 1.49047 73.3745H0.797226C0.669629 73.3756 0.547651 73.4271 0.457832 73.5178C0.368013 73.6084 0.317622 73.7308 0.317627 73.8584V74.7566C0.317627 74.8838 0.368156 75.0058 0.458098 75.0957C0.548041 75.1857 0.670029 75.2362 0.797226 75.2362H1.49047C1.59386 75.6905 1.77373 76.124 2.02239 76.5181L1.53407 77.0107C1.48872 77.055 1.45268 77.1079 1.42807 77.1663C1.40347 77.2247 1.39079 77.2874 1.39079 77.3508C1.39079 77.4142 1.40347 77.4769 1.42807 77.5353C1.45268 77.5937 1.48872 77.6466 1.53407 77.6909L2.18807 78.3274C2.23264 78.3723 2.28563 78.4078 2.34399 78.4321C2.40235 78.4564 2.46494 78.4689 2.52815 78.4689C2.59136 78.4689 2.65394 78.4564 2.7123 78.4321C2.77067 78.4078 2.82366 78.3723 2.86823 78.3274L3.36091 77.8348C3.75496 78.0834 4.18841 78.2633 4.64275 78.3667V79.0599C4.64275 79.1883 4.69374 79.3114 4.7845 79.4021C4.87526 79.4929 4.99835 79.5439 5.12671 79.5439H6.02487C6.15247 79.5427 6.27445 79.4913 6.36426 79.4006C6.45408 79.31 6.50448 79.1875 6.50447 79.0599V78.3667C6.9588 78.2633 7.39226 78.0834 7.78631 77.8348L8.27899 78.3274C8.32356 78.3723 8.37655 78.4078 8.43491 78.4321C8.49328 78.4564 8.55586 78.4689 8.61907 78.4689C8.68228 78.4689 8.74486 78.4564 8.80323 78.4321C8.86159 78.4078 8.91458 78.3723 8.95915 78.3274L9.59571 77.6909C9.64053 77.6463 9.6761 77.5933 9.70037 77.535C9.72464 77.4766 9.73713 77.414 9.73713 77.3508C9.73713 77.2876 9.72464 77.225 9.70037 77.1666C9.6761 77.1083 9.64053 77.0553 9.59571 77.0107L9.10303 76.5181C9.35169 76.124 9.53156 75.6905 9.63495 75.2362H10.3282C10.452 75.2306 10.5689 75.1778 10.6549 75.0886C10.7409 74.9993 10.7894 74.8805 10.7904 74.7566ZM5.76327 76.3524C5.34044 76.396 4.91446 76.3077 4.54386 76.0995C4.17326 75.8913 3.87622 75.5735 3.69356 75.1896C3.51091 74.8058 3.45159 74.3748 3.52376 73.9559C3.59593 73.537 3.79606 73.1508 4.09663 72.8502C4.39721 72.5496 4.78348 72.3495 5.20239 72.2773C5.6213 72.2051 6.05227 72.2644 6.43611 72.4471C6.81994 72.6298 7.13779 72.9268 7.34599 73.2974C7.55418 73.668 7.64251 74.094 7.59883 74.5168C7.55025 74.9871 7.34125 75.4262 7.00697 75.7605C6.67269 76.0948 6.23351 76.3038 5.76327 76.3524Z" fill="#263238"/>
<path d="M144.464 62.7841V61.8859C144.464 61.7576 144.413 61.6345 144.322 61.5437C144.231 61.4529 144.108 61.402 143.98 61.402H143.286C143.183 60.9476 143.003 60.5142 142.754 60.1201L143.247 59.6318C143.292 59.5872 143.328 59.5342 143.352 59.4759C143.376 59.4175 143.389 59.3549 143.389 59.2917C143.389 59.2285 143.376 59.1659 143.352 59.1076C143.328 59.0492 143.292 58.9962 143.247 58.9516L142.611 58.3151C142.566 58.2702 142.513 58.2347 142.455 58.2104C142.396 58.1861 142.334 58.1736 142.27 58.1736C142.207 58.1736 142.145 58.1861 142.086 58.2104C142.028 58.2347 141.975 58.2702 141.93 58.3151L141.438 58.8034C141.043 58.5565 140.61 58.3767 140.156 58.2715V57.5521C140.156 57.4891 140.143 57.4267 140.119 57.3685C140.095 57.3103 140.06 57.2575 140.015 57.2129C139.971 57.1684 139.918 57.1331 139.86 57.109C139.802 57.0849 139.739 57.0725 139.676 57.0725H138.774C138.647 57.0725 138.525 57.123 138.435 57.2129C138.345 57.3029 138.294 57.4249 138.294 57.5521V58.2453C137.84 58.3506 137.407 58.5303 137.012 58.7772L136.52 58.2889C136.475 58.2441 136.422 58.2085 136.364 58.1842C136.305 58.16 136.243 58.1475 136.18 58.1475C136.116 58.1475 136.054 58.16 135.995 58.1842C135.937 58.2085 135.884 58.2441 135.839 58.2889L135.207 58.9255C135.162 58.9697 135.126 59.0226 135.101 59.081C135.077 59.1394 135.064 59.2022 135.064 59.2655C135.064 59.3289 135.077 59.3917 135.101 59.4501C135.126 59.5085 135.162 59.5614 135.207 59.6056L135.696 60.094C135.447 60.488 135.267 60.9215 135.164 61.3758H134.47C134.343 61.3769 134.221 61.4284 134.131 61.5191C134.041 61.6097 133.991 61.7322 133.991 61.8598V62.7841C133.991 62.9113 134.041 63.0333 134.131 63.1232C134.221 63.2131 134.343 63.2637 134.47 63.2637H135.168C135.271 63.718 135.451 64.1515 135.7 64.5455L135.212 65.0382C135.166 65.0825 135.13 65.1354 135.106 65.1938C135.081 65.2522 135.068 65.3149 135.068 65.3783C135.068 65.4417 135.081 65.5044 135.106 65.5628C135.13 65.6212 135.166 65.6741 135.212 65.7184L135.844 66.3549C135.888 66.3997 135.941 66.4353 136 66.4596C136.058 66.4839 136.121 66.4963 136.184 66.4963C136.247 66.4963 136.31 66.4839 136.368 66.4596C136.426 66.4353 136.479 66.3997 136.524 66.3549L137.017 65.8622C137.411 66.1109 137.844 66.2908 138.299 66.3942V67.0874C138.299 67.215 138.349 67.3374 138.439 67.4281C138.529 67.5187 138.651 67.5702 138.778 67.5714H139.681C139.808 67.5702 139.93 67.5187 140.02 67.4281C140.11 67.3374 140.16 67.215 140.16 67.0874V66.3942C140.615 66.2908 141.048 66.1109 141.442 65.8622L141.935 66.3549C141.979 66.3997 142.032 66.4353 142.091 66.4596C142.149 66.4839 142.212 66.4963 142.275 66.4963C142.338 66.4963 142.401 66.4839 142.459 66.4596C142.517 66.4353 142.57 66.3997 142.615 66.3549L143.251 65.7184C143.296 65.6738 143.332 65.6208 143.356 65.5624C143.38 65.5041 143.393 65.4415 143.393 65.3783C143.393 65.3151 143.38 65.2525 143.356 65.1941C143.332 65.1358 143.296 65.0828 143.251 65.0382L142.754 64.5281C143.003 64.134 143.183 63.7006 143.286 63.2462H143.98C144.104 63.2464 144.224 63.1984 144.314 63.1123C144.405 63.0262 144.458 62.9086 144.464 62.7841ZM139.436 64.3798C139.014 64.4235 138.588 64.3352 138.217 64.127C137.846 63.9188 137.549 63.6009 137.367 63.2171C137.184 62.8333 137.125 62.4023 137.197 61.9834C137.269 61.5645 137.469 61.1782 137.77 60.8776C138.07 60.5771 138.457 60.3769 138.876 60.3048C139.295 60.2326 139.725 60.2919 140.109 60.4746C140.493 60.6572 140.811 60.9543 141.019 61.3249C141.227 61.6955 141.316 62.1214 141.272 62.5443C141.222 63.0129 141.012 63.4501 140.678 63.7826C140.344 64.1151 139.905 64.3229 139.436 64.3711V64.3798Z" fill="#263238"/>
<path d="M70.9845 4.27286V3.8107C70.9845 3.77827 70.978 3.74616 70.9655 3.71625C70.953 3.68634 70.9346 3.65922 70.9115 3.63649C70.8883 3.61376 70.8609 3.59587 70.8308 3.58386C70.8006 3.57185 70.7684 3.56596 70.736 3.56654H70.3828C70.328 3.33349 70.2352 3.11106 70.1081 2.90818L70.361 2.65966C70.4068 2.61317 70.4325 2.55052 70.4325 2.48526C70.4325 2.42 70.4068 2.35736 70.361 2.31086L70.034 1.98386C69.9883 1.93833 69.9263 1.91277 69.8618 1.91277C69.7973 1.91277 69.7353 1.93833 69.6896 1.98386L69.4367 2.23674C69.2338 2.10965 69.0114 2.01685 68.7783 1.96206V1.6089C68.7783 1.54374 68.7528 1.48118 68.7071 1.43469C68.6614 1.38821 68.5993 1.36153 68.5342 1.36038H68.072C68.0069 1.36153 67.9448 1.38821 67.8991 1.43469C67.8534 1.48118 67.8279 1.54374 67.8279 1.6089V1.96206C67.5946 2.01631 67.3721 2.10915 67.1695 2.23674L66.9166 1.98386C66.8701 1.93806 66.8075 1.91239 66.7422 1.91239C66.677 1.91239 66.6143 1.93806 66.5678 1.98386L66.2452 2.31086C66.1994 2.35736 66.1737 2.42 66.1737 2.48526C66.1737 2.55052 66.1994 2.61317 66.2452 2.65966L66.4937 2.90818C66.3681 3.11134 66.2768 3.33376 66.2234 3.56654H65.8659C65.8011 3.56654 65.739 3.59226 65.6932 3.63805C65.6474 3.68384 65.6217 3.74594 65.6217 3.8107V4.27286C65.6217 4.33802 65.6473 4.40058 65.6929 4.44707C65.7386 4.49355 65.8007 4.52024 65.8659 4.52138H66.2234C66.2761 4.75302 66.3675 4.97411 66.4937 5.17538L66.2452 5.42826C66.1994 5.47475 66.1737 5.5374 66.1737 5.60266C66.1737 5.66792 66.1994 5.73057 66.2452 5.77706L66.5678 6.10406C66.6143 6.14986 66.677 6.17553 66.7422 6.17553C66.8075 6.17553 66.8701 6.14986 66.9166 6.10406L67.1695 5.85118C67.3714 5.97924 67.5942 6.07074 67.8279 6.1215V6.47902C67.8279 6.54378 67.8536 6.60588 67.8994 6.65167C67.9452 6.69746 68.0073 6.72318 68.072 6.72318H68.5342C68.5989 6.72318 68.661 6.69746 68.7068 6.65167C68.7526 6.60588 68.7783 6.54378 68.7783 6.47902V6.10406C69.0117 6.05245 69.2344 5.961 69.4367 5.83374L69.6896 6.08662C69.7353 6.13215 69.7973 6.1577 69.8618 6.1577C69.9263 6.1577 69.9883 6.13215 70.034 6.08662L70.361 5.75962C70.4068 5.71313 70.4325 5.65048 70.4325 5.58522C70.4325 5.51996 70.4068 5.45732 70.361 5.41082L70.1081 5.15794C70.2357 4.95689 70.3286 4.7358 70.3828 4.50394H70.736C70.799 4.5041 70.8597 4.48032 70.9058 4.43742C70.952 4.39452 70.9801 4.3357 70.9845 4.27286ZM68.4121 5.09254C68.195 5.11947 67.975 5.07827 67.7823 4.97464C67.5897 4.87101 67.434 4.71008 67.3369 4.51411C67.2397 4.31814 67.2059 4.09682 67.24 3.88077C67.2742 3.66472 67.3746 3.46462 67.5274 3.30815C67.6803 3.15168 67.878 3.04658 68.0932 3.0074C68.3084 2.96821 68.5304 2.99687 68.7286 3.08941C68.9268 3.18195 69.0913 3.3338 69.1994 3.52395C69.3076 3.7141 69.3539 3.93314 69.3321 4.15078C69.3074 4.38851 69.2031 4.61092 69.0361 4.78189C68.8691 4.95286 68.6492 5.06234 68.4121 5.09254Z" fill="#263238"/>
<path d="M14.8975 34.8016H11.9327V37.7664H14.8975V34.8016ZM12.5343 35.4033H14.2783V37.1691H12.5343V35.4033Z" fill="#263238"/>
<path d="M134.658 92.7416H131.68V95.7064H134.645L134.658 92.7416ZM132.29 93.3433H134.056V95.1091H132.29V93.3433Z" fill="#263238"/>
<path d="M90.1773 7.81317H87.2081V10.778H90.1729L90.1773 7.81317ZM87.8098 8.41049H89.5756V10.1545H87.8098V8.41049Z" fill="#263238"/>
<path d="M13.1535 82.1468H10.1887V85.116H13.1535V82.1468ZM10.786 82.7485H12.53V84.4925H10.786V82.7485Z" fill="#263238"/>
<path opacity="0.9" d="M99.7213 28.3401C99.3684 28.3392 99.0232 28.443 98.7293 28.6385C98.4355 28.8339 98.2063 29.1121 98.0706 29.4379C97.935 29.7636 97.8991 30.1223 97.9674 30.4685C98.0357 30.8147 98.2052 31.1329 98.4544 31.3827C98.7036 31.6325 99.0214 31.8028 99.3674 31.8719C99.7134 31.9411 100.072 31.906 100.398 31.7712C100.724 31.6364 101.003 31.4078 101.199 31.1145C101.395 30.8211 101.5 30.4762 101.5 30.1233C101.5 29.6511 101.313 29.1982 100.979 28.8639C100.646 28.5296 100.193 28.3412 99.7213 28.3401ZM99.7213 31.1915C99.51 31.1915 99.3035 31.1289 99.1278 31.0115C98.9521 30.8941 98.8152 30.7273 98.7344 30.5321C98.6535 30.3369 98.6324 30.1221 98.6736 29.9149C98.7148 29.7077 98.8165 29.5174 98.9659 29.368C99.1153 29.2186 99.3056 29.1168 99.5128 29.0756C99.7201 29.0344 99.9348 29.0556 100.13 29.1364C100.325 29.2173 100.492 29.3542 100.609 29.5298C100.727 29.7055 100.789 29.912 100.789 30.1233C100.785 30.4036 100.67 30.6708 100.47 30.8674C100.271 31.064 100.002 31.1741 99.7213 31.1741V31.1915Z" fill="#263238"/>
<path d="M68.0239 36.7025L64.0301 31.1741C64.7626 31.1718 65.4643 30.8798 65.9822 30.3619C66.5001 29.844 66.7921 29.1422 66.7944 28.4098V13.3591C66.7909 12.627 66.4986 11.9259 65.981 11.4083C65.4633 10.8906 64.7622 10.5983 64.0301 10.5948H29.3245C28.5921 10.5971 27.8904 10.8891 27.3725 11.407C26.8546 11.9249 26.5626 12.6267 26.5603 13.3591V28.4098C26.5615 29.1426 26.8531 29.845 27.3712 30.3632C27.8893 30.8813 28.5918 31.1729 29.3245 31.1741H59.3344L68.0239 36.7025Z" fill="#263238"/>
<path d="M38.0925 20.2697C38.0925 19.9351 37.9933 19.608 37.8074 19.3298C37.6215 19.0516 37.3573 18.8348 37.0482 18.7068C36.7391 18.5787 36.399 18.5452 36.0708 18.6105C35.7426 18.6758 35.4412 18.8369 35.2046 19.0735C34.968 19.3101 34.8069 19.6115 34.7417 19.9397C34.6764 20.2678 34.7099 20.6079 34.8379 20.9171C34.966 21.2262 35.1828 21.4904 35.461 21.6763C35.7392 21.8621 36.0663 21.9614 36.4008 21.9614C36.623 21.9614 36.843 21.9176 37.0482 21.8326C37.2535 21.7476 37.4399 21.623 37.597 21.4659C37.7541 21.3088 37.8787 21.1223 37.9637 20.9171C38.0488 20.7118 38.0925 20.4918 38.0925 20.2697Z" fill="#D2E558"/>
<path d="M48.0726 20.2697C48.0726 19.9349 47.9732 19.6077 47.7872 19.3294C47.6011 19.0511 47.3366 18.8343 47.0272 18.7064C46.7179 18.5785 46.3775 18.5452 46.0492 18.6108C45.721 18.6765 45.4195 18.838 45.1831 19.075C44.9467 19.3121 44.786 19.6139 44.7212 19.9423C44.6564 20.2708 44.6905 20.6111 44.8192 20.9201C44.9479 21.2291 45.1654 21.493 45.4442 21.6784C45.723 21.8638 46.0505 21.9622 46.3852 21.9614C46.6072 21.9614 46.827 21.9176 47.032 21.8325C47.237 21.7475 47.4232 21.6228 47.5799 21.4656C47.7366 21.3085 47.8608 21.122 47.9454 20.9167C48.0299 20.7115 48.0731 20.4916 48.0726 20.2697Z" fill="#D2E558"/>
<path d="M58.057 20.2697C58.057 19.9351 57.9577 19.608 57.7719 19.3298C57.586 19.0516 57.3218 18.8348 57.0127 18.7068C56.7035 18.5787 56.3634 18.5452 56.0352 18.6105C55.7071 18.6758 55.4057 18.8369 55.1691 19.0735C54.9325 19.3101 54.7714 19.6115 54.7061 19.9397C54.6408 20.2678 54.6743 20.6079 54.8024 20.9171C54.9304 21.2262 55.1472 21.4904 55.4254 21.6763C55.7036 21.8621 56.0307 21.9614 56.3653 21.9614C56.5874 21.9614 56.8074 21.9176 57.0127 21.8326C57.2179 21.7476 57.4044 21.623 57.5615 21.4659C57.7186 21.3088 57.8432 21.1223 57.9282 20.9171C58.0132 20.7118 58.057 20.4918 58.057 20.2697Z" fill="#D2E558"/>
</svg>
