<?xml version="1.0" encoding="utf-8"?>
<!-- Generator: Adobe Illustrator 21.1.0, SVG Export Plug-In . SVG Version: 6.00 Build 0)  -->
<svg version="1.1" id="Layer_1" xmlns="http://www.w3.org/2000/svg" xmlns:xlink="http://www.w3.org/1999/xlink" x="0px" y="0px"
	 viewBox="0 0 20.4 24" style="enable-background:new 0 0 20.4 24;" xml:space="preserve">
<style type="text/css">
	.st0{fill:#F0B90B;}
</style>
<path class="st0" d="M2.3,12l0,4.6L6.3,19v2.7L0,18v-7.4L2.3,12z M2.3,7.4v2.7L0,8.7V6l2.3-1.4L4.6,6L2.3,7.4z M7.9,6l2.3-1.4
	L12.5,6l-2.3,1.4L7.9,6z"/>
<path class="st0" d="M4,15.7V13l2.3,1.4V17L4,15.7L4,15.7z M7.9,19.9l2.3,1.4l2.3-1.4v2.7L10.2,24l-2.3-1.4L7.9,19.9z M15.8,6
	l2.3-1.4L20.4,6v2.7l-2.3,1.4V7.4L15.8,6z M18.1,16.6l0-4.6l2.3-1.4V18l-6.3,3.7V19L18.1,16.6L18.1,16.6z"/>
<path class="st0" d="M16.4,15.7L14.2,17v-2.7l2.3-1.4V15.7z"/>
<path class="st0" d="M16.4,8.3l0,2.7l-4,2.3V18l-2.3,1.3L7.9,18v-4.7L4,11V8.3L6.3,7l3.9,2.3l4-2.3L16.4,8.3L16.4,8.3z M4,3.7
	L10.2,0l6.3,3.7L14.2,5l-4-2.3L6.3,5L4,3.7z"/>
</svg>
