<?xml version="1.0" encoding="utf-8"?>
<!-- Generator: Adobe Illustrator 21.1.0, SVG Export Plug-In . SVG Version: 6.00 Build 0)  -->
<svg version="1.1" id="Layer_1" xmlns="http://www.w3.org/2000/svg" xmlns:xlink="http://www.w3.org/1999/xlink" x="0px" y="0px"
	 viewBox="0 0 21.4 24.1" style="enable-background:new 0 0 21.4 24.1;" xml:space="preserve">
<style type="text/css">
	.st0{fill:#11457E;}
	.st1{fill:#FFFFFF;}
</style>
<path class="st0" d="M11.6,0.3l8.8,5.1C21,5.7,21.3,6.3,21.3,7v10.1c0,0.7-0.3,1.3-0.9,1.6l-8.8,5.1c-0.6,0.3-1.3,0.3-1.9,0L1,18.7
	c-0.6-0.3-0.9-0.9-0.9-1.6V7c0-0.7,0.3-1.3,0.9-1.6l8.8-5.1C10.4,0,11,0,11.6,0.3z"/>
<path class="st1" d="M8.6,6.6l-4.5,5.7V6.6H2v11.6h2.1v-2.7l1.6-2l2.8,4.7h2.6l-3.9-6.5l4.1-5.1C11.2,6.6,8.6,6.6,8.6,6.6z M15,8.8
	h1.2l2.1-2.1l-1-1l-1.8,1.9l-1.8-1.9l-1,1L15,8.8z M15.8,9.7c-1.2,0-2.1,0.4-2.9,1.2c-0.7,0.8-1.1,1.8-1.1,3.2s0.4,2.4,1,3.2
	c0.7,0.8,1.6,1.2,2.8,1.2c2.1,0,3.5-1.2,3.7-3.1h-2.1c-0.1,0.8-0.8,1.4-1.6,1.4c-1.1,0-1.8-0.9-1.8-2.6s0.7-2.7,1.8-2.7
	c0.8,0,1.5,0.6,1.6,1.4h2.1c-0.1-0.9-0.5-1.7-1.1-2.2C17.6,10,16.8,9.7,15.8,9.7z"/>
</svg>
