<svg width="17" height="17" fill="none" xmlns="http://www.w3.org/2000/svg"><path d="M1 16H.5v.5H1V16zm15-.01v.5h.5v-.5H16zM5.5 4.499a2.999 2.999 0 013-2.998v-1a4 4 0 00-4 3.998h1zm3 2.998c-1.657 0-3-1.342-3-2.998h-1a3.999 3.999 0 004 3.998v-1zm3-2.998a2.999 2.999 0 01-3 2.998v1a4 4 0 004-3.998h-1zM8.5 1.5c1.657 0 3 1.342 3 2.998h1A3.999 3.999 0 008.5.5v1zM1.5 16c0-2.075.928-3.434 2.074-4.29 1.168-.87 2.562-1.216 3.426-1.216v-1c-1.069 0-2.675.408-4.024 1.415C1.606 11.93.5 13.575.5 16h1zm14.5-.51L1 15.5v1l15-.01v-1zm-6-4.996c.9 0 2.292.346 3.45 1.214 1.136.853 2.05 2.21 2.05 4.283h1c0-2.418-1.086-4.06-2.45-5.082C12.708 9.9 11.1 9.494 10 9.494v1zm-3 0h1.5v-1H7v1zm1.5 0H10v-1H8.5v1z" fill="#4F71C9"/></svg>