<?xml version="1.0" encoding="utf-8"?>
<!-- Generator: Adobe Illustrator 21.1.0, SVG Export Plug-In . SVG Version: 6.00 Build 0)  -->
<svg version="1.1" id="Layer_1" xmlns="http://www.w3.org/2000/svg" xmlns:xlink="http://www.w3.org/1999/xlink" x="0px" y="0px"
	 viewBox="0 0 20.998 24" style="enable-background:new 0 0 20.998 24;" xml:space="preserve">
<style type="text/css">
	.st0{fill:#EA259E;}
	.st1{fill:#014C99;}
	.st2{fill:#08B0F9;}
	.st3{fill:#2F2F2F;}
</style>
<path class="st0" d="M10.513,6.163l4.886,2.947l-4.886,2.794L5.406,9.11L10.513,6.163z"/>
<path class="st1" d="M5.406,9.216L10.513,12l-0.029,5.683l-5.078-2.688V9.216z"/>
<path class="st2" d="M10.513,12l4.944-2.784l0.144,5.779l-5.021,2.794L10.513,12z"/>
<g>
	<path class="st3" d="M20.669,5.808L20.593,5.76l-4.877-2.794l-5.107-2.928L10.541,0l-0.058,0.029
		c-0.096,0.034-0.189,0.076-0.278,0.125L5.751,2.755l-5.51,3.226C0.01,6.086,0.02,6.326,0.02,6.47v0.106l-0.01,8.179l-0.01,3.034
		c-0.01,0.182,0.067,0.346,0.202,0.403l6.336,3.6l3.744,2.131C10.359,23.971,10.445,24,10.522,24
		c0.066,0.003,0.13-0.017,0.182-0.058l5.414-3.12l4.608-2.65c0.173-0.077,0.278-0.25,0.25-0.413l0.019-11.491
		C21.025,6,20.804,5.875,20.669,5.808 M10.503,6.538l4.464,2.592l-4.454,2.563l-1.517-0.854L6.001,9.139L10.503,6.538 M15.572,8.774
		l-4.838-2.813c-0.13-0.096-0.307-0.1-0.442-0.01L5.396,8.793L0.942,6.269l3.11-1.814l6.461-3.773l5.942,3.408l3.629,2.083
		L15.572,8.774 M0.634,6.797L5.07,9.312l0.086,5.53c-0.01,0.173,0.077,0.326,0.211,0.394l2.947,1.69l1.891,1.085v5.174l-9.59-5.453
		L0.634,6.797z M5.684,9.657l4.531,2.563l-0.01,5.088L5.77,14.765L5.684,9.657z M10.82,18.019l1.891-1.094l2.918-1.67l0.029-0.019
		c0.058-0.029,0.125-0.077,0.173-0.144l0.029-0.038v-0.048l-0.01-3.667V9.321l4.531-2.621v4.464l-0.01,6.509l-6.077,3.494
		l-3.485,2.006L10.82,18.019 M10.82,17.318v-5.098l4.464-2.573v5.107L10.82,17.318"/>
	<path class="st3" d="M10.378,1.277c-0.134,0.019-0.25,0.106-0.307,0.221c-0.058,0.134-0.048,0.278,0.019,0.374
		c0.077,0.115,0.202,0.182,0.346,0.182c0.026-0.002,0.051-0.005,0.077-0.01c0.163-0.019,0.288-0.134,0.317-0.278
		c0.041-0.128,0.007-0.268-0.086-0.365C10.652,1.299,10.513,1.252,10.378,1.277 M10.637,2.957c-0.144-0.077-0.307-0.067-0.422,0.01
		c-0.106,0.058-0.173,0.173-0.192,0.298c-0.01,0.134,0.048,0.25,0.125,0.317c0.075,0.071,0.175,0.109,0.278,0.106
		c0.06-0.001,0.118-0.014,0.173-0.038c0.154-0.058,0.24-0.202,0.24-0.346C10.849,3.168,10.762,3.034,10.637,2.957 M10.647,4.608
		c-0.134-0.086-0.298-0.086-0.422-0.019c-0.115,0.058-0.192,0.173-0.202,0.307s0.048,0.278,0.154,0.346
		c0.072,0.053,0.16,0.08,0.25,0.077c0.06-0.001,0.118-0.014,0.173-0.038c0.192-0.077,0.285-0.295,0.209-0.487
		C10.777,4.715,10.72,4.65,10.647,4.608 M4.129,15.369c-0.144,0.038-0.25,0.154-0.278,0.298c-0.029,0.154,0.019,0.298,0.125,0.384
		c0.067,0.058,0.152,0.088,0.24,0.086c0.029,0,0.058-0.003,0.086-0.01c0.125-0.029,0.23-0.115,0.269-0.221
		c0.067-0.134,0.048-0.298-0.067-0.422C4.413,15.375,4.265,15.329,4.129,15.369 M16.532,16.147c0.033-0.002,0.065-0.008,0.096-0.019
		c0.125-0.029,0.23-0.115,0.259-0.211c0.067-0.144,0.038-0.317-0.067-0.442c-0.099-0.11-0.253-0.151-0.394-0.106
		c-0.134,0.038-0.24,0.154-0.269,0.298c-0.029,0.154,0.029,0.298,0.134,0.384C16.349,16.118,16.436,16.147,16.532,16.147
		 M2.727,16.195c-0.144,0.048-0.24,0.182-0.25,0.336c-0.019,0.163,0.058,0.317,0.182,0.384c0.057,0.037,0.124,0.057,0.192,0.058
		c0.056-0.001,0.112-0.014,0.163-0.038c0.125-0.058,0.211-0.173,0.221-0.278c0.029-0.144-0.029-0.298-0.144-0.394
		C2.994,16.171,2.852,16.145,2.727,16.195 M17.895,16.963c0.046,0.002,0.091-0.005,0.134-0.019c0.134-0.048,0.23-0.163,0.24-0.278
		c0.038-0.144,0-0.288-0.115-0.394c-0.102-0.098-0.252-0.128-0.384-0.077c-0.211,0.087-0.311,0.329-0.224,0.539
		c0.024,0.058,0.061,0.11,0.109,0.152C17.724,16.938,17.809,16.965,17.895,16.963 M1.671,17.049c-0.115-0.067-0.259-0.067-0.365,0
		c-0.125,0.067-0.202,0.192-0.202,0.346c0,0.154,0.077,0.288,0.202,0.346c0.052,0.031,0.112,0.048,0.173,0.048
		c0.074,0.001,0.148-0.019,0.211-0.058c0.125-0.086,0.192-0.23,0.182-0.355c0-0.134-0.077-0.259-0.202-0.336 M19.037,17.702
		c0.064,0.056,0.146,0.087,0.23,0.086c0.049,0,0.098-0.01,0.144-0.029c0.134-0.058,0.23-0.192,0.24-0.307
		c0.029-0.154-0.038-0.307-0.173-0.394c-0.125-0.086-0.278-0.086-0.394-0.01c-0.114,0.07-0.186,0.192-0.192,0.326
		C18.884,17.51,18.941,17.635,19.037,17.702"/>
</g>
</svg>
