<?xml version="1.0" encoding="utf-8"?>
<!-- Generator: Adobe Illustrator 21.1.0, SVG Export Plug-In . SVG Version: 6.00 Build 0)  -->
<svg version="1.1" id="Layer_1" xmlns="http://www.w3.org/2000/svg" xmlns:xlink="http://www.w3.org/1999/xlink" x="0px" y="0px"
	 viewBox="0 0 24 24" style="enable-background:new 0 0 24 24;" xml:space="preserve">
<style type="text/css">
	.st0{fill:#044AAC;}
</style>
<path class="st0" d="M5.544,13.32l-2.856,2.858L1.346,17.52C0.46,15.815-0.002,13.922,0,12C0,5.384,5.384,0,12,0s12,5.384,12,12
	s-5.384,12-12,12c-2.559,0-4.933-0.806-6.884-2.176c-0.492-0.346-0.958-0.727-1.393-1.142l1.268-1.269l9.182-9.182
	c0.074-0.918,0.84-1.624,1.761-1.625c0.906,0.001,1.664,0.686,1.756,1.587l4.226,4.226c0.193-0.792,0.29-1.604,0.29-2.419
	c0-5.629-4.579-10.207-10.207-10.207S1.793,6.371,1.793,12c0,0.783,0.088,1.546,0.256,2.279l2.714-2.715
	c0.137-0.857,0.876-1.488,1.744-1.489c0.855,0.001,1.587,0.614,1.738,1.455l1.727,1.726l-1.269,1.268l-1.215-1.215
	c-0.587,0.395-1.354,0.399-1.945,0.011V13.32z M15.045,11.895l-8.638,8.638c1.66,1.094,3.605,1.676,5.593,1.673
	c4.094,0,7.633-2.423,9.257-5.911l-4.413-4.414C16.293,12.217,15.601,12.222,15.045,11.895z M15.965,9.587
	c-0.438-0.016-0.806,0.327-0.822,0.765c-0.016,0.438,0.327,0.806,0.765,0.822c0.02,0.001,0.039,0.001,0.059,0
	c0.438-0.017,0.78-0.386,0.763-0.824C16.715,9.935,16.381,9.602,15.965,9.587z M6.518,11.035c-0.439,0-0.794,0.356-0.794,0.794
	c0,0.439,0.356,0.794,0.794,0.794s0.794-0.356,0.794-0.794C7.312,11.39,6.957,11.035,6.518,11.035L6.518,11.035z"/>
</svg>
