<?xml version="1.0" encoding="utf-8"?>
<!-- Generator: Adobe Illustrator 21.1.0, SVG Export Plug-In . SVG Version: 6.00 Build 0)  -->
<svg version="1.1" id="Layer_1" xmlns="http://www.w3.org/2000/svg" xmlns:xlink="http://www.w3.org/1999/xlink" x="0px" y="0px"
	 viewBox="0 0 24 23.958" style="enable-background:new 0 0 24 23.958;" xml:space="preserve">
<style type="text/css">
	.st0{fill:#FFA1A1;}
</style>
<path class="st0" d="M12.002,0.13C5.446,0.13,0.13,5.437,0.13,11.979c0,6.543,5.316,11.849,11.872,11.849
	c6.556,0,11.867-5.306,11.867-11.849C23.87,5.437,18.554,0.13,12.002,0.13z M0.874,11.979c0-6.096,4.921-11.045,11.017-11.106
	c4.582,0.144,8.039,3.578,8.039,8.09c0,4.702-3.22,7.788-8.829,8.475c-1.747,0.214-3.443,0.669-4.019,2.537
	c-0.121,0.386-0.283,1.152,0.005,1.966C3.401,20.129,0.874,16.352,0.874,11.979z M12.002,23.089c-1.394,0-2.728-0.26-3.954-0.725
	c-0.609-0.822-0.423-1.78-0.302-2.179c0.437-1.408,1.691-1.84,3.439-2.054c6.003-0.734,9.442-4.07,9.442-9.163
	c0-2.579-1.045-4.837-2.751-6.422c3.155,1.961,5.255,5.451,5.255,9.433C23.126,18.113,18.145,23.089,12.002,23.089z"/>
<path class="st0" d="M0,11.979C0,5.364,5.374,0,12.002,0C18.626,0,24,5.365,24,11.979c0,6.615-5.37,11.979-11.998,11.979
	C5.374,23.958,0,18.594,0,11.979z M12.002,0.26C5.517,0.26,0.26,5.509,0.26,11.979c0,6.47,5.257,11.719,11.742,11.719
	c6.485,0,11.737-5.248,11.737-11.719C23.74,5.509,18.482,0.26,12.002,0.26z M11.895,0.744c4.648,0.146,8.165,3.634,8.165,8.22
	c0,2.383-0.817,4.365-2.351,5.837c-1.532,1.47-3.768,2.421-6.592,2.768c-1.747,0.214-3.361,0.662-3.911,2.446
	c-0.117,0.374-0.272,1.109,0.003,1.884l0.107,0.301l-0.287-0.141c-3.728-1.833-6.285-5.655-6.285-10.079
	c0-6.168,4.979-11.174,11.146-11.236L11.895,0.744z M11.889,1.004C5.865,1.065,1.004,5.955,1.004,11.979
	c0,4.214,2.376,7.87,5.873,9.71c-0.175-0.736-0.029-1.4,0.081-1.751c0.602-1.952,2.381-2.414,4.128-2.628
	c2.785-0.341,4.963-1.277,6.443-2.697c1.478-1.418,2.271-3.33,2.271-5.649C19.799,4.526,16.403,1.147,11.889,1.004z M11.889,1.004
	l0.003,0l-0.001-0.13l-0.004,0.13L11.889,1.004z M17.787,2.642l0.157-0.206c3.192,1.984,5.317,5.514,5.317,9.543
	c-0.005,6.205-5.044,11.24-11.259,11.24c-1.41,0-2.759-0.263-4-0.733l-0.036-0.013l-0.023-0.031
	c-0.647-0.874-0.446-1.884-0.322-2.294c0.229-0.739,0.677-1.227,1.292-1.552c0.608-0.322,1.378-0.486,2.256-0.593
	c2.982-0.365,5.313-1.374,6.897-2.911c1.582-1.535,2.43-3.608,2.43-6.123C20.496,6.426,19.466,4.202,17.787,2.642z M18.817,3.366
	c1.221,1.514,1.94,3.449,1.94,5.602c0,2.578-0.871,4.72-2.509,6.309c-1.636,1.588-4.026,2.614-7.047,2.983
	c-0.87,0.106-1.601,0.266-2.166,0.565c-0.558,0.296-0.957,0.729-1.164,1.398c-0.116,0.384-0.284,1.269,0.26,2.033
	c1.203,0.451,2.508,0.703,3.872,0.703c6.071,0,10.994-4.918,10.999-10.98C23.001,8.486,21.366,5.376,18.817,3.366z"/>
</svg>
