<?xml version="1.0" encoding="utf-8"?>
<!-- Generator: Adobe Illustrator 21.1.0, SVG Export Plug-In . SVG Version: 6.00 Build 0)  -->
<svg version="1.1" id="Layer_1" xmlns="http://www.w3.org/2000/svg" xmlns:xlink="http://www.w3.org/1999/xlink" x="0px" y="0px"
	 viewBox="0 0 18.481 24.04" style="enable-background:new 0 0 18.481 24.04;" xml:space="preserve">
<style type="text/css">
	.st0{fill:#48A3FF;}
</style>
<path class="st0" d="M14.372,15.486L1.306,2.228v7.194c0,2.192,0.889,4.177,2.325,5.613c1.437,1.437,3.421,2.325,5.613,2.325
	c1.075,0,2.097-0.211,3.026-0.595C13.039,16.449,13.747,16.015,14.372,15.486z M6.195,1.918C5.42,2.24,4.708,2.68,4.081,3.215
	l13.093,13.287V9.255c0-2.192-0.889-4.177-2.325-5.613c-1.437-1.437-3.421-2.325-5.613-2.325C8.156,1.316,7.129,1.53,6.195,1.918z
	 M3.178,2.3c0.746-0.651,1.597-1.183,2.524-1.567C6.793,0.28,7.986,0.03,9.236,0.03c2.547,0,4.853,1.033,6.523,2.702
	c1.669,1.669,2.702,3.976,2.702,6.523v8.813c0,0.355-0.288,0.643-0.643,0.643c-0.197,0-0.372-0.088-0.49-0.227l-2.053-2.083
	c-0.744,0.643-1.592,1.169-2.516,1.55c-1.086,0.448-2.273,0.695-3.514,0.695c-2.547,0-4.853-1.033-6.523-2.702
	C1.053,14.276,0.02,11.969,0.02,9.422V0.661h0.002c0-0.166,0.064-0.332,0.192-0.457c0.253-0.248,0.659-0.245,0.907,0.008L3.178,2.3z
	 M18.46,22.058v-2.159c0-0.355-0.288-0.643-0.643-0.643c-0.355,0-0.643,0.288-0.643,0.643v2.159c0,0.355,0.288,0.643,0.643,0.643
	C18.172,22.701,18.46,22.413,18.46,22.058z M9.886,23.377v-3.234c0-0.355-0.288-0.643-0.643-0.643c-0.355,0-0.643,0.288-0.643,0.643
	v3.234c0,0.355,0.288,0.643,0.643,0.643C9.598,24.02,9.886,23.732,9.886,23.377z M1.311,20.107v-3.234
	c0-0.355-0.288-0.643-0.643-0.643s-0.643,0.288-0.643,0.643v3.234c0,0.355,0.288,0.643,0.643,0.643S1.311,20.462,1.311,20.107z"/>
</svg>
