<svg xmlns="http://www.w3.org/2000/svg" viewBox="0 0 73 73"><g data-name="Слой 2"><g data-name="Слой 1"><g data-name="Слой_1"><path d="M37 0c4 0 8 4 8 8q0 3-3 6c-3 2-4 13-5 13-2 0-2-10-5-14a5.5 5.5 0 01-3-5c0-4 4-8 8-8zM10 62a7.85 7.85 0 010-11c2-2 4-2 7-2s11-6 12-5-5 8-5 13c-1 2-1 4-3 5a7.85 7.85 0 01-11 0zm52-51a7.85 7.85 0 010 11c-1 2-4 2-6 2-4 0-12 6-13 5s6-8 6-13a7.64 7.64 0 012-5 7.85 7.85 0 0111 0zm-52 0a7.85 7.85 0 000 11c2 2 4 2 7 2s12 6 13 6c1-1-6-8-6-13q0-3-3-6a7.85 7.85 0 00-11 0zm53 51a7.85 7.85 0 000-11c-2-2-4-2-7-2s-11-6-12-5 5 8 5 13c1 2 1 4 3 5a7.85 7.85 0 0011 0zm10-26a7.89 7.89 0 00-8-8q-3 0-6 3c-2 3-13 4-13 6 0 1 10 1 14 5a7.64 7.64 0 005 2 7.89 7.89 0 008-8zM0 36a7.89 7.89 0 018-8q3 0 6 3c2 3 13 4 13 6 0 1-10 1-14 5a7.64 7.64 0 01-5 2 7.89 7.89 0 01-8-8zm37 37a7.89 7.89 0 008-8q0-3-3-6c-3-2-4-12-5-12-2 0-2 9-5 13a5.5 5.5 0 00-3 5 7.89 7.89 0 008 8z" fill="#00bbc4" fill-rule="evenodd" data-name="2742002584448"/></g></g></g></svg>