<svg width="18" height="18" viewBox="0 0 18 18" fill="none"
  xmlns="http://www.w3.org/2000/svg">
  <path d="M12.75 15.7499V14.2499C12.75 13.4543 12.4339 12.6912 11.8713 12.1286C11.3087 11.566 10.5456 11.2499 9.75 11.2499H3.75C2.95435 11.2499 2.19129 11.566 1.62868 12.1286C1.06607 12.6912 0.75 13.4543 0.75 14.2499V15.7499" stroke="#A4B2CF" stroke-width="1.33" stroke-linecap="round" stroke-linejoin="round"/>
  <path d="M6.75 8.24994C8.40685 8.24994 9.75 6.90679 9.75 5.24994C9.75 3.59308 8.40685 2.24994 6.75 2.24994C5.09315 2.24994 3.75 3.59308 3.75 5.24994C3.75 6.90679 5.09315 8.24994 6.75 8.24994Z" stroke="#A4B2CF" stroke-width="1.33" stroke-linecap="round" stroke-linejoin="round"/>
  <path d="M17.25 15.7499V14.2499C17.2495 13.5852 17.0283 12.9395 16.621 12.4141C16.2138 11.8888 15.6436 11.5136 15 11.3474" stroke="#A4B2CF" stroke-width="1.33" stroke-linecap="round" stroke-linejoin="round"/>
  <path d="M12 2.34741C12.6453 2.51264 13.2173 2.88794 13.6257 3.41414C14.0342 3.94035 14.2559 4.58753 14.2559 5.25366C14.2559 5.91979 14.0342 6.56697 13.6257 7.09318C13.2173 7.61939 12.6453 7.99469 12 8.15991" stroke="#A4B2CF" stroke-width="1.33" stroke-linecap="round" stroke-linejoin="round"/>
</svg>
