<?xml version="1.0" encoding="utf-8"?>
<!-- Generator: Adobe Illustrator 21.1.0, SVG Export Plug-In . SVG Version: 6.00 Build 0)  -->
<svg version="1.1" id="Layer_1" xmlns="http://www.w3.org/2000/svg" xmlns:xlink="http://www.w3.org/1999/xlink" x="0px" y="0px"
	 viewBox="0 0 24 24" style="enable-background:new 0 0 24 24;" xml:space="preserve">
<style type="text/css">
	.st0{fill:#C1A05C;}
	.st1{fill:#FFFFFF;}
</style>
<g>
	<circle class="st0" cx="12" cy="12" r="12"/>
	<path class="st1" d="M12.207,19.5c-1.739-0.005-3.296-0.538-4.687-1.56c-0.37-0.271-0.381-0.427-0.066-0.766l0.029-0.03
		c0.385-0.417,0.382-0.415,0.839-0.086c1.053,0.769,2.314,1.2,3.617,1.235c1.385,0.048,2.656-0.283,3.806-1.024
		c1.379-0.889,2.32-2.128,2.714-3.71c0.494-1.986,0.127-3.825-1.175-5.441c-0.912-1.133-2.097-1.862-3.529-2.208
		C12.477,5.599,11.222,5.675,9.988,6.1C9.335,6.325,8.731,6.656,8.186,7.082c-0.269,0.21-0.371,0.206-0.6-0.051
		c-0.11-0.12-0.213-0.245-0.309-0.376c-0.141-0.199-0.122-0.318,0.069-0.47c0.905-0.718,1.96-1.224,3.086-1.481
		c1.019-0.242,2.078-0.27,3.109-0.082c1.401,0.253,2.648,0.829,3.718,1.762c0.792,0.692,1.432,1.5,1.878,2.445
		c0.614,1.302,0.863,2.665,0.679,4.104c-0.164,1.313-0.68,2.556-1.492,3.6c-0.83,1.081-1.893,1.87-3.164,2.389
		C14.224,19.31,13.22,19.506,12.207,19.5z M11.73,14.713c-0.05,0.076-0.076,0.134-0.118,0.177c-0.253,0.266-0.563,0.426-0.937,0.438
		c-0.259,0.008-0.518-0.014-0.777-0.008c-0.1-0.001-0.199,0.024-0.286,0.072c-1.196,0.75-2.483,0.86-3.839,0.571
		c-0.446-0.094-0.846-0.266-1.187-0.559c-0.256-0.22-0.437-0.479-0.459-0.844c-0.037-0.635,0.433-1.069,0.917-1.21
		c0.895-0.262,1.746-0.103,2.56,0.292c0.372,0.18,0.72,0.409,1.076,0.623c0.204,0.121,0.265,0.116,0.367-0.092
		c0.461-0.942,0.164-1.981-0.963-2.365c-0.988-0.337-1.955-0.304-2.907,0.135c-0.139,0.064-0.293,0.188-0.457,0.056
		c-0.17-0.138-0.056-0.302-0.013-0.448c0.313-1.053,0.63-2.104,0.952-3.154c0.07-0.23,0.254-0.349,0.523-0.335
		c0.395,0.022,0.788,0.081,1.184,0.09c0.592,0.015,1.187,0.02,1.779-0.009c0.44-0.022,0.827-0.216,1.166-0.496
		c0.041-0.034,0.125-0.073,0.152-0.055c0.04,0.026,0.064,0.1,0.067,0.155c0.028,0.454-0.167,0.805-0.529,1.077
		C9.574,9.147,9.085,9.297,8.552,9.31C7.999,9.323,7.447,9.33,6.895,9.332c-0.125,0.002-0.19,0.047-0.22,0.164
		c-0.05,0.195-0.102,0.391-0.158,0.585c-0.043,0.145,0.012,0.203,0.158,0.197c0.348-0.013,0.696-0.036,1.043-0.034
		c0.799-0.005,1.571,0.291,2.162,0.83c0.58,0.516,0.814,1.182,0.85,1.926c0.028,0.596-0.086,1.167-0.414,1.681
		c-0.089,0.14-0.049,0.201,0.102,0.241c0.401,0.106,0.77,0.034,1.123-0.164c0.03-0.016,0.058-0.035,0.089-0.05
		C11.641,14.703,11.656,14.708,11.73,14.713z M8.304,14.882l-0.012-0.073c-0.05-0.031-0.097-0.069-0.152-0.093
		c-0.397-0.176-0.79-0.371-1.198-0.52c-0.416-0.152-0.849-0.261-1.302-0.155c-0.204,0.047-0.408,0.099-0.467,0.334
		c-0.066,0.259,0.092,0.42,0.277,0.561c0.058,0.044,0.129,0.076,0.198,0.103c0.7,0.27,1.411,0.278,2.126,0.066
		C7.956,15.051,8.128,14.957,8.304,14.882z"/>
</g>
</svg>
