<?xml version="1.0" encoding="utf-8"?>
<!-- Generator: Adobe Illustrator 21.1.0, SVG Export Plug-In . SVG Version: 6.00 Build 0)  -->
<svg version="1.1" id="Layer_1" xmlns="http://www.w3.org/2000/svg" xmlns:xlink="http://www.w3.org/1999/xlink" x="0px" y="0px"
	 viewBox="0 0 21.3 24" style="enable-background:new 0 0 21.3 24;" xml:space="preserve">
<style type="text/css">
	.st0{fill:#E71B24;}
	.st1{fill:#FFFFFF;}
</style>
<path class="st0" d="M11.6,0.3l8.8,5.1c0.6,0.3,0.9,0.9,0.9,1.6v10.1c0,0.7-0.3,1.3-0.9,1.6l-8.8,5.1c-0.6,0.3-1.3,0.3-1.9,0
	l-8.8-5.1C0.3,18.3,0,17.7,0,17.1V6.9c0-0.7,0.3-1.3,0.9-1.6l8.8-5.1C10.3-0.1,11-0.1,11.6,0.3z"/>
<path class="st1" d="M9.3,17.4v2.9H6.6v-2.9H5v-1.8h1.6v-12h9.7V6h-7v4.6h6.4V13H9.3v2.7h4.5v1.8H9.3z"/>
</svg>
