<svg xmlns="http://www.w3.org/2000/svg" viewBox="0 0 1587.58 423.07"><defs><style>.cls-1{fill:#009cde}.cls-2{fill:#003087}</style></defs><g id="Слой_2" data-name="Слой 2"><g id="Слой_1-2" data-name="Слой 1"><path class="cls-1" d="M1099.25 259.3c-6.75 44.32-40.6 44.32-73.33 44.32h-18.63l13.07-82.76a10.28 10.28 0 0110.16-8.67h8.55c22.29 0 43.34 0 54.19 12.69 6.48 7.59 8.44 18.86 6 34.42M1085 143.64H961.51a17.2 17.2 0 00-17 14.49l-49.9 316.63a10.3 10.3 0 008.59 11.77 9.16 9.16 0 001.57.13h63.37A12 12 0 00980 476.53l14.17-89.8a17.16 17.16 0 0116.94-14.48h39.07c81.36 0 128.3-39.35 140.56-117.38 5.52-34.1.22-60.91-15.75-79.69-17.56-20.63-48.69-31.55-90-31.55" transform="translate(-13.73 -143.63)"/><path class="cls-2" d="M218.47 259.3c-6.75 44.32-40.6 44.32-73.35 44.32h-18.63l13.07-82.76a10.28 10.28 0 0110.16-8.67h8.55c22.29 0 43.34 0 54.2 12.69 6.49 7.59 8.45 18.86 6 34.42m-14.25-115.66H80.73a17.18 17.18 0 00-17 14.49L13.86 474.76a10.28 10.28 0 008.55 11.77 9.63 9.63 0 001.61.13H83a17.16 17.16 0 0016.94-14.49l13.49-85.42a17.15 17.15 0 0116.94-14.49h39.07c81.36 0 128.3-39.36 140.56-117.39 5.52-34.1.22-60.91-15.75-79.69-17.56-20.63-48.69-31.55-90-31.55M490.92 373c-5.73 33.78-32.53 56.47-66.75 56.47-17.14 0-30.88-5.52-39.7-16s-12-25.11-9.27-41.52c5.32-33.5 32.58-56.9 66.27-56.9 16.79 0 30.41 5.57 39.42 16.11s12.62 25.46 10 41.81m82.41-115.12h-59.1a10.31 10.31 0 00-10.2 8.72l-2.58 16.53-4.14-6c-12.8-18.58-41.35-24.8-69.85-24.8-65.33 0-121.13 49.51-132 118.93-5.65 34.66 2.37 67.77 22 90.87 18 21.22 43.78 30.06 74.46 30.06 52.67 0 81.87-33.82 81.87-33.82l-2.64 16.43a10.29 10.29 0 008.55 11.77 9.82 9.82 0 001.62.12h53.25a17.16 17.16 0 0016.95-14.48l32-202.42a10.3 10.3 0 00-8.57-11.76 10.81 10.81 0 00-1.61-.12" transform="translate(-13.73 -143.63)"/><path class="cls-1" d="M1371.7 373c-5.73 33.78-32.53 56.47-66.74 56.47-17.15 0-30.89-5.52-39.71-16s-12-25.11-9.27-41.52c5.32-33.5 32.56-56.9 66.27-56.9 16.8 0 30.41 5.57 39.42 16.11s12.63 25.46 10 41.81m82.41-115.12H1395a10.31 10.31 0 00-10.19 8.71l-2.58 16.53-4.14-6c-12.8-18.58-41.35-24.8-69.85-24.8-65.31 0-121.11 49.51-132 118.93-5.65 34.66 2.39 67.77 22 90.87 18 21.22 43.78 30.06 74.46 30.06 52.69 0 81.89-33.82 81.89-33.82l-2.59 16.45a10.26 10.26 0 008.49 11.76 9.22 9.22 0 001.66.13h53.22a17.18 17.18 0 0017-14.48l32-202.42a10.31 10.31 0 00-8.67-11.77 10.77 10.77 0 00-1.6-.12" transform="translate(-13.73 -143.63)"/><path class="cls-2" d="M888.27 257.88h-59.45a17.11 17.11 0 00-14.17 7.53l-82 120.75-34.76-116a17.22 17.22 0 00-16.45-12.26H623a10.31 10.31 0 00-9.75 13.63l65.48 192.07-61.55 86.86a10.3 10.3 0 008.4 16.24H685a17.17 17.17 0 0014.09-7.38L896.71 274a10.28 10.28 0 00-8.44-16.16" transform="translate(-13.73 -143.63)"/><path class="cls-1" d="M1523.8 152.35l-50.69 322.43a10.3 10.3 0 008.58 11.77 10.64 10.64 0 001.59.12h51a17.17 17.17 0 0017-14.48l50-316.65a10.29 10.29 0 00-8.55-11.77 9.83 9.83 0 00-1.62-.13h-57a10.27 10.27 0 00-10.17 8.7" transform="translate(-13.73 -143.63)"/></g></g></svg>