<?xml version="1.0" encoding="utf-8"?>
<!-- Generator: Adobe Illustrator 21.1.0, SVG Export Plug-In . SVG Version: 6.00 Build 0)  -->
<svg version="1.1" id="Layer_1" xmlns="http://www.w3.org/2000/svg" xmlns:xlink="http://www.w3.org/1999/xlink" x="0px" y="0px"
	 viewBox="0 0 24 24" style="enable-background:new 0 0 24 24;" xml:space="preserve">
<style type="text/css">
	.st0{fill:#988430;}
	.st1{fill:#7A6A2A;}
	.st2{fill:#BA9F33;}
	.st3{fill:#CFB66C;}
	.st4{fill:#E2CC85;}
	.st5{fill:#F1D789;}
	.st6{fill:#F4ECB4;}
	.st7{fill:#F3E19D;}
	.st8{fill:#F2E8B0;}
	.st9{fill:#F5EEC0;}
	.st10{fill:#E6DB9D;}
	.st11{fill:#E5CB7A;}
	.st12{fill:#D8C173;}
	.st13{fill:#E0CD81;}
	.st14{fill:#DFC57C;}
	.st15{fill:#E5CC7C;}
	.st16{fill:#D2C281;}
	.st17{fill:#E2C270;}
	.st18{fill:#CCB360;}
	.st19{fill:#D5B457;}
	.st20{fill:#D2B257;}
	.st21{fill:#D2B159;}
	.st22{fill:#C2A44D;}
	.st23{fill:#CAA13E;}
	.st24{fill:#B59544;}
	.st25{fill:#C89D3A;}
	.st26{fill:#CEB052;}
	.st27{fill:#CCA847;}
	.st28{fill:#C39D3C;}
	.st29{fill:#D2BA6B;}
	.st30{fill:#C0993A;}
	.st31{fill:#A88F33;}
	.st32{fill:#E3C571;}
	.st33{fill:#D8B65B;}
	.st34{fill:#D3AE4D;}
	.st35{fill:#F4EFC8;}
	.st36{fill:#EBCC73;}
	.st37{fill:#E5C66B;}
	.st38{fill:#E6BD62;}
	.st39{fill:#B6933F;}
	.st40{fill:#C49937;}
	.st41{fill:#DFC068;}
	.st42{fill:#C99E3D;}
	.st43{fill:#B58634;}
	.st44{fill:#E6C367;}
	.st45{fill:#DCBA5A;}
	.st46{fill:#E9CE77;}
	.st47{fill:#CDAE50;}
	.st48{fill:#D2A83E;}
	.st49{fill:#C29637;}
	.st50{fill:#AC8132;}
	.st51{fill:#A67A2E;}
	.st52{fill:#8C6228;}
	.st53{fill:#CBA94C;}
	.st54{fill:#BE9C44;}
	.st55{fill:#A17C34;}
	.st56{fill:#92723A;}
	.st57{fill:#B18E3E;}
	.st58{fill:#543E26;}
	.st59{fill:#806031;}
	.st60{fill:#B6903C;}
	.st61{fill:#685026;}
	.st62{fill:#D4B968;}
	.st63{fill:#CCA849;}
	.st64{fill:#585136;}
	.st65{fill:#252211;}
	.st66{fill:#C3B378;}
	.st67{fill:#E6D89C;}
	.st68{fill:#6F674D;}
	.st69{fill:#AC924C;}
	.st70{fill:#9F8E57;}
	.st71{fill:#EAC970;}
	.st72{fill:#D7BC6B;}
	.st73{fill:#453A25;}
	.st74{fill:#84754B;}
	.st75{fill:#F7F7E7;}
	.st76{fill:#F8F6DE;}
	.st77{fill:#D4C38B;}
	.st78{fill:#E2D59D;}
	.st79{fill:#CBAC5A;}
	.st80{fill:#D6BC6F;}
	.st81{fill:#DFC677;}
	.st82{fill:#C4A859;}
	.st83{fill:#927D49;}
	.st84{fill:#6E6342;}
	.st85{fill:#39331F;}
	.st86{fill:#292311;}
	.st87{fill:#3F3824;}
	.st88{fill:#2D2815;}
	.st89{fill:#82764F;}
	.st90{fill:#2D2816;}
	.st91{fill:#574F35;}
	.st92{fill:none;}
	.st93{fill:#DEC270;}
	.st94{fill:#CBAF59;}
	.st95{fill:#E3C677;}
	.st96{fill:#ECD592;}
	.st97{fill:#FFFFFF;fill-opacity:0.8;}
</style>
<title>Dogecoin (DOGE)</title>
<g id="Layer_2">
	<g id="Layer_1-2">
		<g id="Layer_1-3">
			<circle class="st0" cx="12" cy="12" r="12"/>
			<circle class="st1" cx="12" cy="12" r="11.6"/>
			<circle class="st2" cx="12" cy="12" r="11.4"/>
			<path class="st3" d="M5.2,10.7c-0.1-0.1-0.1-0.1-0.2-0.2s-0.1-0.1-0.2-0.2l-0.2-0.2c0,0-0.1-0.1-0.1-0.1c0,0-0.1-0.1-0.1-0.1
				C4.2,9.7,3.9,9.5,3.6,9.2C3.9,9.5,4.2,9.7,4.4,10l0.1,0.1c0,0,0.1,0.1,0.1,0.1l0.2,0.2C4.9,10.4,5,10.5,5,10.5S5.2,10.7,5.2,10.7
				L5.2,10.7z M1.7,10.7c0,0,1,0.1,1.5,0.2C3.6,10.9,5,11.1,5,11.1L1.7,10.7z M1.7,10.7c0.3,0,0.5,0.1,0.8,0.1c0.1,0,0.3,0,0.4,0
				l0.2,0c0.1,0,0.1,0,0.2,0L4.1,11l0.4,0.1c0.1,0,0.3,0,0.4,0.1c-0.1,0-0.3,0-0.4-0.1L4.1,11l-0.8-0.1c-0.1,0-0.1,0-0.2,0l-0.2,0
				c-0.1,0-0.3,0-0.4,0C2.2,10.8,2,10.7,1.7,10.7L1.7,10.7z M4.9,11.4c0,0-1,0.3-1.4,0.4c-0.3,0.1-1.4,0.4-1.4,0.4L4.9,11.4
				L4.9,11.4z"/>
			<path class="st3" d="M4.9,11.4c-0.2,0.1-0.5,0.1-0.7,0.2l-0.7,0.2C3.2,11.8,3,11.9,2.8,12l-0.3,0.1c-0.1,0-0.2,0.1-0.3,0.1
				c0.1,0,0.2-0.1,0.3-0.1l0.3-0.1c0.2-0.1,0.5-0.1,0.7-0.2c0.2-0.1,0.5-0.1,0.7-0.2C4.4,11.5,4.6,11.4,4.9,11.4L4.9,11.4L4.9,11.4z
				 M2.2,12.8c0.1,0,1.4-0.7,1.7-0.8c0.2-0.1,0.6-0.2,0.6-0.2L2.2,12.8z"/>
			<path class="st3" d="M2.2,12.8c0.1,0,0.2-0.1,0.3-0.1l0.3-0.1l0.6-0.3C3.6,12.2,3.8,12.1,4,12c0.1,0,0.2-0.1,0.3-0.1l0.2,0
				c0.1,0,0.1,0,0.2,0C4.4,11.9,4.2,11.9,4,12c-0.2,0.1-0.4,0.2-0.6,0.3l-0.6,0.3C2.6,12.6,2.4,12.7,2.2,12.8L2.2,12.8L2.2,12.8z
				 M2.4,13.3c0,0,1.2-0.7,1.6-0.9c0.2-0.1,0.9-0.5,0.9-0.5L2.4,13.3z"/>
			<path class="st3" d="M2.4,13.3C2.6,13.2,2.8,13.1,3,13l0.3-0.2c0.1-0.1,0.2-0.1,0.3-0.2c0.1-0.1,0.2-0.1,0.3-0.2
				c0.1,0,0.1-0.1,0.2-0.1l0.2-0.1c0.2-0.1,0.4-0.2,0.7-0.3c-0.2,0.1-0.4,0.2-0.6,0.4c-0.1,0.1-0.2,0.1-0.3,0.2
				c-0.1,0.1-0.2,0.1-0.3,0.2c-0.1,0.1-0.2,0.1-0.3,0.2L3,13L2.4,13.3L2.4,13.3L2.4,13.3z M4.9,12.1c0,0-0.7,0.6-1,0.8
				s-0.9,0.7-0.9,0.7L4.9,12.1z"/>
			<polygon class="st4" points="9.1,16.7 8.7,16 9,15.1 10.5,14.5 9.9,13.1 10.2,11.7 10.8,10.5 12.8,10.1 14.2,8.8 17.2,9 
				17.8,12.3 16.7,16.4 16,18.5 13.3,18.6 12.1,17.8 10.7,17.2 			"/>
			<path class="st5" d="M13.8,16.7c0,0-0.4,0.2-1,0.1c-0.2-0.2-1.5-0.4-1.5-0.4s-0.2,0-0.4,0.1c-0.3,0.1-0.6,0.1-0.8,0.2
				c-0.3,0.1-0.5-0.3-0.7-0.3C9.2,16.3,9,16.1,9,16.1L8.4,16l-1.1-0.5l-1.7-1.7l-0.5,0.7L5,15.5l0.5,1.1l1.4,1.3l2.7,0.7l1.6-0.5
				l2-0.9L13.8,16.7L13.8,16.7z"/>
			<polygon class="st6" points="4.1,10.6 4.5,9.6 4.9,8.9 6.2,8.8 5.8,10 4.7,11.9 5.2,13.7 4.4,14.1 4.1,13.7 3.9,12.8 3.9,11.9 
							"/>
			<path class="st7" d="M5.6,16.6l-0.3-0.4c0,0-0.1-0.2,0-0.3c0-0.1,0-0.2,0-0.2s-0.2-0.3-0.2-0.4c0-0.2,0-0.2,0.1-0.4
				c0.1-0.1,0.1-0.4,0.1-0.4l0.2,0.1l0-0.1c0,0,0.1,0,0.1,0.1c0-0.1,0-0.6,0.1-0.7s0.4,0.5,0.4,0.5L6,13.7l-0.4-0.9L5,11.9l0-0.9
				v-0.1c0,0-0.3,0.5-0.4,0.8c-0.1,0.2,0.1,0.5,0.1,0.9c0,0.3-0.1,0.3,0,0.5c0.1,0.1,0.3,0.4,0.2,0.6c-0.1,0.2-0.3,0.1-0.3,0.1
				s0,0.1-0.1,0.2c0-0.1,0-0.1-0.1-0.2c0,0,0,0.1,0,0.1s0-0.1-0.1-0.3c-0.1-0.2-0.1-0.5-0.2-0.7C4,12.9,4,13.2,4,13.2l0,0.4l0.2,0.6
				l0.2,0.4L4.5,15l0.1,0.3l0.1,0.2l0.1,0.5l0.4,0.5l0.2,0.1L5.6,16.6L5.6,16.6L5.6,16.6z"/>
			<path class="st8" d="M4.4,9.8c0,0-0.3,0.5-0.4,1.1S3.8,12,3.8,12.7c0.1,0.7,0.2,1.2,0.3,1.5c0.2,0.5,0.6,1.3,0.6,1.3l0,0
				c-0.1-0.1-0.1-0.3-0.2-0.4c-0.1-0.2-0.1-0.5-0.1-0.6c0-0.1-0.1-0.2-0.1-0.3c0-0.1,0-0.3-0.1-0.5c0-0.1-0.1-0.2-0.1-0.4
				c0-0.2,0-0.5,0-0.7c0-0.4-0.1-0.6,0-0.8s0.2-0.8,0.4-1.2c0.1-0.3,0-0.5,0.2-0.8c0.1-0.2,0.2-0.5,0.3-0.6C4.8,9,4.4,9.8,4.4,9.8
				L4.4,9.8L4.4,9.8z"/>
			<path class="st9" d="M5.9,9.6c0,0-0.2,0-0.2,0.1C5.6,9.8,5.5,9.9,5.4,10c-0.1,0.1-0.1,0.3-0.2,0.4c-0.1,0.2-0.3,0.4-0.3,0.5
				c0,0.1-0.1,0.5-0.1,0.7c0,0.2,0,0.5,0,0.5l0.1,0c0,0,0,0.1,0.1,0.2C5.2,12.4,5.2,12,5.2,12l0.4-1.4l0.6-0.4l0.1-0.3L5.9,9.6
				L5.9,9.6L5.9,9.6z"/>
			<path class="st10" d="M6.2,10.2c0,0-0.3,0-0.4,0.1c-0.1,0-0.1,0.1-0.1,0.1c-0.1,0.1-0.2,0.2-0.3,0.3c-0.1,0.1-0.1,0.3-0.2,0.7
				c0,0.1,0,0.3,0,0.4c0,0.2,0,0.3,0,0.4c0,0.2,0.2,0.3,0.2,0.5l0.4-0.2L6.1,11l0.8-0.5L6.4,10L6.2,10.2L6.2,10.2L6.2,10.2z"/>
			<path class="st11" d="M4.1,20.2C4.1,20.1,4.1,20.1,4.1,20.2c0.1-0.5,0.1-0.9,0.1-1.2c0.1-0.3,0.1-0.5,0.1-0.6c0-0.2,0-0.3,0-0.5
				c0-0.2,0.2-0.5,0.2-0.6c0-0.1-0.1-0.2-0.1-0.3c-0.1-0.1-0.1-0.1-0.1-0.1s0.4-0.3,0.4-1.4c0,0,0,0,0,0L4.9,16L5,16.2l0.5,1
				l0.7,0.6l1,0.7l0.6,0.7l0.1,1.8l-0.8,1l-0.1,0.2C5.9,21.6,4.9,21,4.1,20.2L4.1,20.2z"/>
			<path class="st12" d="M6.5,21.9c0,0,0-0.2,0.2-0.4c0,0,0,0.1,0,0.1c0-0.1,0.3-0.4,0.8-0.5c0.5-0.1,0.6-0.5,0.6-0.5l1.1-1l1.3-1.2
				l1.5-0.5l0.7-0.2c0,0,0,0.1,0,0.2c0.1,0,0.4-0.1,0.7-0.2c0.1,0,0.2-0.1,0.3,0C14,17.8,14,18,14,18.1c0.1,0,0.3-0.2,0.5-0.2
				c0.2,0,0.4,0.3,0.6,0.3c0.3,0,0.4-0.2,0.6-0.3c0.1-0.1,0.3-0.2,0.4-0.3c0.2-0.2,2.8-1,2.8-1l0.9,0.1l0.1,1l-0.1,2.5c0,0,0,0,0,0
				l-4.1,2.1l-5.6,0.9C8.9,23,7.7,22.6,6.6,22L6.5,21.9L6.5,21.9L6.5,21.9z"/>
			<path class="st5" d="M4.4,20.5c0.1-0.2,0.2-0.3,0.2-0.4c0,0.1,0,0.3,0.1,0.6C4.6,20.6,4.5,20.5,4.4,20.5L4.4,20.5z"/>
			<path class="st13" d="M8.5,22.8l0.7-0.2l0.1,0c0,0,0,0,0,0.1c0.1-0.1,0.2,0,0.2-0.1c0,0.1,0.1,0.3,0.2,0.3c0.1,0,0.3-0.1,0.4-0.2
				c0.1-0.1,0.3-0.3,0.4-0.3c0,0.1,0.1,0.2,0.1,0.3c0.2-0.1,0.4-0.7,0.9-0.6c0.1-0.3,0.3-0.5,0.6-0.7c0.4-0.3,0.6-0.3,0.9-0.3
				c0.1-0.2,0.3-0.3,0.4-0.4c0,0,0.2,0.1,0.3,0c0.2-0.1,0.4-0.4,0.6-0.4c0.1,0,0.3,0,0.4,0.1c0,0,0.7-0.7,1.2-1
				c0-0.1-0.1-0.3,0.5-0.8c0,0,0,0.1,0,0.1c0,0,0.2-0.1,0.3-0.2c0.2-0.2,0.5-0.3,0.7-0.4c0.3-0.1,0.6,0.1,0.6,0.1c0,0,0.1,0,0.1,0
				c0.1,0,0.1,0,0.2,0c0,0.1,0.1,0.3,0,0.4c0.1,0,0.1,0.1,0.2,0.1c0,0.1-0.1,0.3-0.2,0.3c0.1,0,0.1,0.1,0.3,0.2
				c-0.1,0.1-0.2,0.2-0.2,0.3c0,0.1-0.2,0.5-0.3,0.6c-0.1,0.1-0.2,0.4-0.2,0.5s-0.2,0.3-0.3,0.4c0.1,0,0.6-0.2,0.8-0.2
				c-0.1,0.1-0.4,0.5-0.7,1C15,23.4,11.6,23.8,8.5,22.8L8.5,22.8z"/>
			<path class="st14" d="M6.2,10.1c0,0-0.2,0-0.2,0s0.2,0.1,0.2,0.1c0.1,0,0.2,0.1,0.2,0.2c0,0.1,1.2,0.6,1.2,0.6l0.8,0l0.3-0.4
				l-0.5-0.5L8.7,9L8.1,9.1L6.9,9.8L6.3,10L6.2,10.1L6.2,10.1z"/>
			<path class="st15" d="M8.1,10.5c0,0,0.1,0.1,0.1,0.1c0.2,0,0.3,0,0.4,0.1C8.7,10.9,9,11.3,9,11.3l0.7,0.3l0-0.9L9,10.1L8.1,10.5
				L8.1,10.5L8.1,10.5L8.1,10.5z"/>
			<path class="st16" d="M7.9,10.8c0,0,0.1,0,0.3-0.1c0.2-0.1,0.4-0.2,0.6-0.1c0.2,0.1,0.1,0.3,0.3,0.5c0.1,0.1,0.3,0.1,0.4,0.3
				s0.5,0.1,0.5,0.1l0.1,0.8L9.6,13l-0.2,1H8.6l-0.7-0.3l-0.4-0.9l0.2-0.9L7.9,10.8L7.9,10.8z"/>
			<path class="st17" d="M9.5,10.9C9.5,10.9,9.5,10.9,9.5,10.9c0,0,0,0.1,0,0.2s0.1,0.3,0,0.3c0,0,0.1,0.1,0.1,0.2
				c0,0.1,0,0.2,0.3,0.2c0,0-0.1,0-0.1,0.1c0,0,0.1,0.1,0.2,0.3c0.1,0,0.3-0.1,0.3-0.1l0,0l0.1,0c0,0-0.1,0,0-0.2
				c0.1-0.2,0.1-0.2,0.1-0.2s0-0.2,0-0.3c0-0.1,0.1-0.4,0.1-0.4l-0.1-0.7L10.2,10L9.9,9.7l-0.3,0.5l-0.2,0.2L9.5,10.9L9.5,10.9
				L9.5,10.9z"/>
			<path class="st18" d="M10.3,10.3c0,0,0.1,0.2,0.1,0.3c0,0,0-0.1,0-0.1c0,0,0,0.3,0.1,0.4c0,0,0,0,0,0c0,0,0,0.2,0,0.4
				c0.1-0.1,0.2-0.2,0.3-0.3c0.1,0,0.2-0.1,0.3-0.1c0.1,0,0.3,0.1,0.4,0.1c0.4,0,0.8-0.3,1.1-0.4c0.2-0.1,0.4-0.1,0.5-0.2
				c0.1-0.1,0.2-0.2,0.3-0.3c0.1-0.2,0.3-0.4,0.4-0.5c-0.1,0-0.1,0-0.2,0c0,0,0,0,0.1-0.1s0.2-0.1,0.3-0.1c0.2,0,0.3,0,0.5,0
				c0.1,0,0.2,0,0.2,0s0.1,0.1,0.4,0.1c0.3,0,0.5,0,0.6,0c0.2,0,0.7,0,0.8,0c0.1,0,0.2,0,0.3,0.1l-0.5-1.4l-1.7-1.5l-1,0.7l-1.6,1.6
				l-1.5,0.6l-0.3,0.4L10.3,10.3L10.3,10.3z"/>
			<path class="st19" d="M13.7,9.5c0,0,0,0,0.1-0.1c0.1-0.1,0.2-0.1,0.3-0.1c0.2,0,0.3,0,0.5,0c0.1,0,0.2,0,0.2,0s0.1,0.1,0.4,0.1
				c0.3,0,0.5,0,0.6,0s0.7,0,0.8,0c0.1,0,0.2,0,0.3,0.1l-0.2-0.6l-0.3-0.5l-0.7-0.8c0,0-0.9-0.5-0.9-0.5c0,0-0.3-0.1-0.3-0.1
				l-0.8,0.5l-0.7,1.8l0,0.4l0.5,0.2c0.1-0.2,0.2-0.3,0.4-0.4C13.8,9.5,13.7,9.5,13.7,9.5L13.7,9.5L13.7,9.5z"/>
			<path class="st20" d="M13.7,9.7c-0.1,0-0.1,0-0.1-0.1c-0.1-0.2-0.1-0.2-0.2-0.2s-0.1,0.1-0.2,0.1c0,0-0.1-0.1-0.1-0.1l0,0
				c0,0-0.3,0.2-0.4,0.4c-0.2,0.2-0.5,0.5-0.6,0.6c-0.1,0.1-0.6,0.1-0.7,0.1c-0.2,0-0.3,0.1-0.3,0.2c0,0,0.1,0.1,0.1,0.1
				c0,0-0.1,0-0.2,0c0,0,0,0.1,0.1,0.2c0,0,0.1,0,0.1,0c0.1,0,0.3,0.1,0.4,0.1c0.4,0,0.8-0.3,1.1-0.4c0.2-0.1,0.4-0.1,0.5-0.2
				c0.1-0.1,0.2-0.2,0.3-0.3C13.6,9.8,13.6,9.7,13.7,9.7L13.7,9.7L13.7,9.7z"/>
			<path class="st21" d="M7.5,19.3c0,0,0-0.1-0.4-0.5C7,18.6,7,18.6,6.9,18.5c-0.2-0.2-0.3-0.2-0.4-0.3C6.2,18,6,18,5.7,17.8
				c-0.2-0.2-0.5-0.7-0.7-1.2C4.9,16.1,4.9,16,4.9,16c0,0,0-0.1,0.1-0.1C5,15.9,5,16,5,16c0,0,0.1,0.1,0.1,0.1
				c0.1,0.1,0.2,0.2,0.3,0.4c0-0.2-0.1-0.3-0.1-0.3s0.3,0.2,0.6,0.4c0.3,0.2,0.4,0.3,0.5,0.4c0.1,0.1,0.3,0.5,0.4,0.6
				c0.1,0.1,1.4,0.5,1.4,0.5l0.6,0.5l0.3,0.7L9,19.8l-0.5,0.1l-0.8-0.3L7.5,19.3L7.5,19.3L7.5,19.3z"/>
			<path class="st22" d="M5.8,16.9c0,0,0.2,0.3,0.5,0.5c0.3,0.2,0.9,0.4,1.4,0.5C8.1,18,8.3,18,8.6,18c0.7,0,1.2-0.2,1.7-0.3
				c0.3,0,0.7-0.1,1.1-0.2c0.5-0.1,0.8-0.3,1.2-0.5c0.3-0.1,0.6-0.2,0.8-0.4c0.3-0.2,0.5-0.4,0.8-0.5c0,0.1-0.1,0.3-0.3,0.4
				c0.1,0,0.3,0,0.3,0s-0.2,0.1-0.5,0.4c-0.2,0.2-0.5,0.4-0.7,0.6c-0.2,0.1-0.4,0.2-0.5,0.3c-0.3,0.2-0.4,0.3-0.6,0.5
				c0.1,0,0.1,0,0.1,0s-0.3,0-0.4,0.1c0,0-0.1,0-0.2,0c-0.1,0-0.2,0.1-0.3,0.1c-0.2,0.1-0.2,0-0.2,0l0,0.1c0,0-0.2,0-0.3,0
				c0,0,0,0,0,0c0,0,0,0,0,0c0,0-0.1,0-0.1,0.1c0,0,0,0-0.1,0c0,0,0.1,0.2,0.1,0.2c0,0-0.5,0.3-0.5,0.3c0,0,0,0,0,0.1
				c0,0,0,0.1,0,0.1c0,0.1,0.1,0.1,0.1,0.1s-0.1,0-0.1,0c-0.1,0-0.2,0.1-0.3,0.1c0,0-0.1,0-0.1,0c0,0,0.1,0.2-0.1,0.4
				s-0.2,0.2-0.3,0.3c0,0-0.1,0-0.1,0c-0.1,0-0.1-0.1-0.1-0.1c0,0.1,0,0.1-0.1,0.2c0,0.1-0.1,0.3-0.1,0.4c-0.1-0.1-0.1-0.2-0.3-0.1
				c-0.1,0-0.2,0.2-0.3,0.3c0,0,0-0.1,0,0c0,0-0.1,0.5-0.5,0.9c0-0.1,0-0.3,0-0.4c0,0-0.1,0.1-0.4,0.2C7,21.9,7.1,22,7.1,22
				s0-0.2,0.1-0.4c0.1-0.2,0.2-0.3,0.2-0.3c0,0,0,0,0,0c0,0-0.1,0-0.1-0.1c0,0,0.3-0.1,0.2-0.3c0-0.2-0.1-0.3-0.2-0.4
				c0,0,0.1-0.1,0.1-0.1c0,0-0.1-0.1-0.1-0.2c0,0,0-0.1,0-0.1c0,0,0-0.1,0-0.1c0,0-0.1-0.2-0.1-0.2c0,0,0.1,0,0.1,0
				s-0.1-0.1-0.1-0.2c0-0.1,0-0.2-0.1-0.2c0,0,0.1,0,0.1,0c0,0-0.1-0.1,0-0.1c0,0,0.1,0,0.1,0.1c0-0.1-0.1-0.2-0.1-0.2
				c0,0,0.2,0,0.3,0s0.2,0.2,0.2,0.2s0.1,0.1,0.2,0.1c0.1,0.1,0.3,0.2,0.5,0.3c0.1,0,0.2,0,0.3,0c0,0,0.1,0,0.1,0c0,0,0,0,0,0
				c0,0,0-0.1-0.1-0.1c0,0,0.1,0,0.1,0s0-0.1-0.1-0.2c0,0,0.1,0,0.1-0.1c0,0-0.1-0.1-0.1-0.1c0,0,0-0.1,0.1-0.1c0,0-0.1-0.1-0.1-0.1
				c0,0,0.1,0,0.1,0c0,0-0.2,0-0.2-0.1c-0.1,0-0.1-0.1-0.2-0.1c0,0-0.1,0-0.2-0.1c0,0,0.1,0,0.1,0c0,0,0,0,0.1,0c0,0,0,0,0.1-0.1
				c0,0,0.1,0,0.1,0c0,0-0.1,0-0.2-0.1c-0.1-0.1-0.1-0.1-0.2-0.1c0,0-0.1,0-0.2,0c-0.1,0-0.1,0-0.1,0s-0.3,0-0.8-0.3
				c-0.5-0.3-0.7-0.6-0.7-0.6c0,0-0.1,0-0.1-0.1C6.1,17.4,5.8,17.2,5.8,16.9L5.8,16.9L5.8,16.9z"/>
			<path class="st23" d="M13,5.2c0,0,0.1,0,0.1,0.1c0.1,0.1,0.1,0.3-0.1,0.5c0.1,0,0.1,0,0.2,0C13.1,6,13,6.1,13,6.3
				C13,6.4,13,6.5,13,6.5s-0.1,0.1-0.1,0.4C13,6.8,13,6.7,13.1,6.7c0.1-0.1,0.3-0.2,0.5-0.3c0,0,0,0.1,0,0.1c0,0,0.3-0.2,0.5-0.1
				c0.1,0,0.1,0.2,0.1,0.2s0.1,0,0.2,0c0.1,0.1,0.2,0.3,0.3,0.4c0,0,0.1,0.1,0.2,0.3c0.1,0.2,0.2,0.4,0.3,0.6c0-0.1,0-0.3,0.3-0.2
				c0.3,0.1,0.6,0.3,0.9,0.7c0.3,0.4,0.3,0.9,0.5,1.1C16.9,9.6,17,9.9,17,10c0,0.1,0,0.5,0.2,1.6c0.1-0.3,0.2-1.1,0.2-1.1l0.1-0.6
				l0.1-2l-2.1-1.7L14,5l-1.1,0.1L13,5.2L13,5.2L13,5.2z"/>
			<path class="st24" d="M16.8,8.2c0,0,0-0.2-0.5-0.5c-0.5-0.3-0.9-0.3-1.2-0.6c-0.3-0.2-0.5-0.7-0.7-0.9c-0.2-0.2-0.2-0.6-0.2-0.6
				l0.6-0.5l0.9-1.3L16.4,3l0.4,0.5l0.5,0.6l0.3,1.2L17.6,7L16.8,8.2L16.8,8.2z"/>
			<path class="st25" d="M17.4,10.3c0-0.3,0-0.5-0.1-0.8c-0.1-0.4-0.4-1.1-0.5-1.4c-0.1-0.3,0-0.3,0-0.3s0.3-0.2,0.4-0.6
				c0.1-0.4,0.5-0.4,0.5-0.4l0.2-0.2l0.3,0.8l0.3,0.8l0.1,0.6l0.1,0.5l-0.2,1L17.7,11L17.4,10.3L17.4,10.3L17.4,10.3z"/>
			<path class="st26" d="M6.4,21.9L6.4,21.9C6.5,21.9,6.5,21.9,6.4,21.9c0.1-0.1,0.1-0.1,0.1-0.1c0,0,0.1,0,0.2,0
				c0,0,0.2,0.1,0.2,0.1c0.1,0,0.3-0.1,0.6-0.1c0.4,0.1,0.5,0.3,0.7,0.5c0.2,0.1,0.3,0.1,0.3,0.1h0.1c0,0,0.1-0.1,0.1-0.1
				c0.1,0,0.1,0.1,0.1,0.1c0.1,0,0.3-0.1,0.4,0c0.1,0,0.1,0.1,0.1,0.1c0,0.1,0,0.2-0.1,0.2c-0.1,0.1-0.2,0.2-0.3,0.3
				c0,0,0.1,0,0.1,0.1C8.2,22.8,7.3,22.4,6.4,21.9L6.4,21.9z"/>
			<path class="st27" d="M16.8,18c0,0,0.3-0.4,0.4-0.6c0.1-0.2-0.3-2.8-0.3-2.8l0.9-2.9l0-0.9c0,0,0-0.9,0.1-1.2
				c0.1,0.2,0.5,0.5,0.6,0.6c0-0.3,0.2-0.8,0.1-1.4c0.1,0.1,0.2,1.2,0.2,1.2l0.2,0.7l0.2,0.8l0.3,0.8l0.1,0.6l0.1,0.1l0.1,0.2
				l0.1,0.3l0.2,0.6l0.1,0.5l0.1,0.9c0,0.1,0,0.1,0,0.2c0,0.1,0,0.2,0,0.2s0,0.2,0,0.4c0,0.2,0,0.3-0.1,0.4C20,16.9,20,17.6,20,17.6
				l-0.2-0.1c0,0,0-0.2-0.1-0.4c-0.1-0.2-0.3-0.2-0.4-0.2c-0.1,0-0.3,0.1-0.4,0.1c-0.1,0.1-0.2,0.3-0.4,0.3
				c-0.2,0.1-0.5,0.1-0.7,0.2c-0.2,0-0.4,0.2-0.6,0.3C17.1,17.9,16.9,18,16.8,18L16.8,18L16.8,18z"/>
			<path class="st28" d="M16.8,22.3C16.8,22.3,16.8,22.3,16.8,22.3c1.4-0.6,2.7-1.5,3.7-2.7c0-0.4,0-0.8,0-0.9c0-0.3,0-0.6,0-0.8
				c0-0.2-0.1-0.9-0.2-1.1c-0.1-0.2-0.2-0.3-0.2-0.3c0,0-0.1,0.4-0.1,0.5c0,0.1,0,0.3,0,0.4c0,0,0,0,0-0.1c0,0,0,0.1-0.1,0.1
				s0-0.1,0-0.1s0,0,0-0.1c0,0,0-0.1,0-0.1c0,0-0.1,0.1-0.1,0.3c0,0.2,0,0.2-0.1,0.2c0,0-0.1,0.1-0.1,0.1c0,0.1,0.1,0.1,0.1,0.1
				c0,0-0.1,0.3-0.1,0.4c0,0.1,0,0.3,0,0.4c0,0.1,0,0.2-0.1,0.2c0,0,0.1,0,0.1,0s0.1,0.3-0.1,0.5c-0.1,0.1-0.1,0.1-0.1,0.2
				c-0.1,0.1-0.2,0.3-0.2,0.4c0,0,0-0.1,0-0.1c0,0-0.2,0.2-0.3,0.4c-0.1,0.2-0.3,0.2-0.3,0.2c0,0-0.1,0.1,0,0.2c0,0-0.1,0-0.2,0.2
				c0,0.1-0.1,0.2-0.2,0.2c-0.1,0.1-0.2,0.1-0.3,0.1c0,0,0.1,0,0.1,0c0,0-0.2,0.1-0.3,0.2c-0.1,0.1-0.2,0.2-0.3,0.3
				c0,0.1-0.1,0.1-0.2,0.1c0,0,0.1,0.1,0.1,0.1c0,0-0.1,0-0.2,0.1C16.9,22.2,16.8,22.3,16.8,22.3L16.8,22.3L16.8,22.3z"/>
			<path class="st29" d="M14.1,23.2c0.1-0.1,0.2-0.1,0.2-0.1c0.3-0.1,0.6-0.1,0.7-0.2c0.1,0,0.2-0.1,0.4-0.1c0,0,0,0.1,0,0.1
				C15,23,14.5,23.1,14.1,23.2L14.1,23.2z"/>
			<path class="st30" d="M19.7,15.2c0,0-0.1,0.3-0.2,0.5c-0.1,0.2-0.2,0.5-0.2,0.5c0-0.1,0-0.1,0-0.2c-0.1,0.1-0.5,0.3-0.6,0.4
				c-0.1,0.1-0.2,0.2-0.3,0.3c0.1-0.3,0.2-0.5,0.2-0.6c-0.1,0.1-0.8,0.6-1.1,1L16.4,18c-0.1,0.1-0.2,0.1-0.4,0.2
				c-0.2,0.1-0.4,0.1-0.6,0.2c0-0.1,0.1-0.2,0.2-0.3c0.1-0.1,0.4-0.4,0.5-0.6c0-0.2,0.1-0.3,0-0.4c-0.1,0-0.2,0-0.3,0
				c-0.1,0-0.2,0.1-0.2,0.1s0.1-0.4,0.2-0.7c-0.1,0-0.3,0-0.3,0s0.2-0.4,0.7-0.7c-0.1,0-0.2,0.1-0.4,0.1c-0.2,0.1-0.5,0.3-0.7,0.3
				c0.1-0.2,0.9-1.3,1.3-2.3c0.5-1,0.6-1.3,0.7-1.8c0.1-0.3,0-0.7,0.1-1c0-0.4,0.1-0.7,0-0.9c0.1,0.1,0.6,0.6,0.6,1.5
				c0,0.9-0.4,2.2-0.9,2.9c0.1,0,0.4,0.1,0.7-0.5c0.3-0.5,0.3-0.7,0.4-0.9c0,0.1,0,0.1,0,0.1s0.4-0.5,0.7-1.2c0,0.3,0.2,0.6,0,1.1
				c-0.2,0.5-0.4,0.6-0.4,0.6s0.1,0,0.3-0.1c0,0.1,0,0.2,0.1,0.2c0,0,0.1,0.1,0.1,0.1c0.1-0.1,0.1-0.2,0.2-0.3c0,0.2,0,0.8,0,1.2
				c0.1,0,0.3,0,0.4-0.3c-0.1,0.3-0.1,0.4,0,0.6C19.6,15.3,19.7,15.2,19.7,15.2L19.7,15.2L19.7,15.2z"/>
			<path class="st31" d="M14.6,4.5c0,0-0.1,0.1-0.4,0.1c-0.2,0-0.2-0.1-0.5-0.1c-0.5,0-2.4,0.3-2.7,0.3c-0.2,0,0.7,0.1,0.7,0.1
				l2.4,0l0.5,0l0.2-0.4L14.6,4.5z"/>
			<path class="st32" d="M8.5,9.1c0,0-0.3,0.2-0.4,0.4C7.9,9.7,7.9,9.8,7.7,10c0,0,0.1,0,0.1,0c0,0,0,0,0,0c0,0,0.1,0,0.1,0
				c0,0-0.2,0.1-0.1,0.3C7.9,10.4,8,10.5,8,10.5s0,0.1,0.1,0.1c0.3,0,0.6-0.1,0.8-0.1c0.2,0,0.2,0.1,0.3,0.2
				c0.1,0.2,0.2,0.2,0.2,0.2s0.1-0.2,0.1-0.4c0.1-0.1,0.1-0.3,0.1-0.4L9.5,9.3L9.1,8.7L8.5,9L8.5,9.1L8.5,9.1z"/>
			<path class="st33" d="M9,9c0,0,0,0.1,0.2,0.1c0,0,0,0,0,0.1c0,0,0,0.1,0,0.1c0,0,0,0,0.1,0c0,0,0,0.1,0,0.2c0,0,0,0.1,0,0.1
				c0,0,0,0,0,0c0,0,0,0.1,0.1,0.2c0,0,0,0,0,0c0,0,0,0,0,0.1c0,0,0,0,0,0c0,0,0,0.3,0.1,0.5c0,0,0,0,0,0c0,0,0,0.1,0,0.2
				c0,0.1,0,0.2,0,0.2c0,0,0.1-0.1,0.1-0.1c0.1,0,0.2-0.1,0.2-0.3c0-0.1,0.1-0.2,0.1-0.3c0,0,0,0.1,0,0.1c0,0,0.1,0,0.1,0l0-0.2
				l0.1-0.5L10.3,9l0.5-0.8l0.9-0.7l0.8,0.2l0.7-0.9L12,6.1L11,6.2l-1,1.4L9.2,8.8L9,9L9,9L9,9z"/>
			<path class="st34" d="M14.8,7c0,0-0.1,0-0.3,0.1s-0.3,0.1-0.4,0.3C14,7.6,14,7.7,14,7.7s0.1-0.1,0.2-0.1c0.1,0,0.2,0,0.2,0
				c0,0,0,0,0,0.1c0,0,0.2,0,0.1,0.1c0,0.1,0,0.2-0.1,0.2c0,0-0.1,0.1-0.2,0.1c0,0.1,0,0.1,0,0.2c0,0.1-0.1,0.2-0.3,0.5
				c-0.2,0.2-0.3,0.4-0.3,0.4S13.6,9,13.5,8.8c0,0-0.2,0.1-0.2,0.1l-0.5-1.7l0-0.1c0,0,0-0.1,0.1-0.1c-0.1,0-0.1,0-0.2-0.1
				s-0.2-0.2-0.3-0.3c0,0-0.1-0.1-0.2-0.1c-0.1,0-0.2,0-0.2,0s0.1,0,0.1-0.1c-0.1,0-0.1,0-0.3,0c-0.2,0-0.2,0-0.3,0
				c-0.1,0-0.2,0.1-0.2-0.1c0,0-0.1,0-0.2,0.1C11,6.5,11,6.6,10.8,6.7c0,0.1,0,0.1-0.1,0.2c0,0.1-0.1,0.1-0.2,0.3
				c-0.1,0.2-0.1,0.4-0.3,0.7c-0.2,0.2,0-0.6,0-0.6l0.4-0.9l1.1-1l1.6-0.1L13.5,6l0.8,0.3L14.8,7L14.8,7L14.8,7z"/>
			<path class="st23" d="M15,7.2l-0.7-1l-0.5-0.4c0,0-0.3-0.6-0.4-0.6c0,0-0.3,0-0.5-0.1l0,0.1c0,0,0.1,0,0.1,0.1
				c0.1,0.1,0.1,0.3-0.1,0.5c0.1,0,0.1,0,0.2,0C13.1,6,13,6.1,13,6.3C13,6.4,13,6.5,13,6.5s-0.1,0.1-0.1,0.4C13,6.8,13,6.7,13.1,6.7
				c0.1-0.1,0.3-0.2,0.5-0.3c0,0,0,0.1,0,0.1c0,0,0.3-0.2,0.5-0.1c0.1,0,0.1,0.2,0.1,0.2s0.1,0,0.2,0c0.1,0.1,0.2,0.3,0.3,0.4
				c0,0,0.1,0.1,0.2,0.3c0.1,0.2,0.2,0.4,0.3,0.6c0-0.1,0-0.2,0.2-0.2L15,7.2L15,7.2z"/>
			<path class="st35" d="M4.7,10c0,0,0-0.1,0-0.4c0-0.2,0.1-0.3,0.1-0.7c0-0.3,0.3-0.8,0.3-0.8l0.6-0.3L6.2,8l0.1,0.6L5.8,8.9
				c0,0,0,0.1-0.2,0.2C5.4,9.3,5.2,9.4,5.2,9.5c0,0.1-0.1,0.1-0.1,0.2c0,0-0.2,0-0.3,0.1C4.7,9.9,4.7,10,4.7,10L4.7,10z"/>
			<path class="st36" d="M6,9.9c0,0-0.1,0-0.1,0.1c0-0.1-0.1-0.4-0.1-0.8c0-0.3,0-0.4,0.1-0.5c0.1-0.1,0.4-0.2,0.3-0.4
				C6.1,8.1,5.9,8,5.7,8c-0.2,0-0.3,0.4-0.4,0.5C5.2,8.7,5,8.7,5,8.7C4.9,8.8,5,8.9,5,9c0,0-0.1,0.1-0.1,0.3
				c-0.2,0.3-0.5,0.6-0.5,0.9c0-0.2,0-0.2,0.1-0.4l0,0l0.2-0.6l0.1-0.5l0.3-0.9l0.5-0.9l0.5-0.5l0.5,0l0.1,0.7l0.3,1.4l0.6,0.7
				l-1,0.6L6,9.9L6,9.9L6,9.9z"/>
			<path class="st37" d="M6.3,10.1c0,0-0.1,0-0.1,0c0,0-0.1,0,0-0.1c0,0,0.1-0.1,0.1-0.1c0,0,0-0.1,0-0.1c0,0-0.1,0-0.1,0s0,0-0.1,0
				c0,0,0,0,0.1,0c-0.1,0-0.1,0-0.2,0c0,0,0.1-0.1,0.2-0.1c0.1,0,0.1,0,0.1,0S6.1,9.7,6.1,9.6c0,0,0-0.1,0-0.2c0-0.1,0-0.2,0-0.2
				c0,0,0.1-0.1,0.1-0.1c0,0,0-0.1,0.1-0.1c0,0,0.1,0,0.1-0.1C6.4,9,6.5,9,6.5,9c0,0,0,0.1,0,0.1s0.1,0,0.3,0
				c0.1,0.1,0.4,0.1,0.4,0.1l0.1,0.2L6.6,10L6.3,10.1L6.3,10.1L6.3,10.1L6.3,10.1z"/>
			<path class="st38" d="M7.3,9.2c0,0-0.2,0.1-0.3,0.2c0,0,0.1,0,0.1,0.1c0,0-0.2,0.1-0.2,0.2C6.7,9.7,6.7,9.9,6.6,9.9
				c0,0.1-0.3,0.2-0.3,0.2c0.2,0,0.5-0.2,0.6-0.2c0,0.1,0,0.1,0.1,0.1c0.1,0,0.3,0,0.5-0.1c0.3-0.2,0.2-0.3,0.3-0.4
				C8,9.5,8.1,9.3,8.2,9.3s0.2-0.1,0.2-0.1s0-0.1,0-0.1c0,0,0,0,0,0c0,0,0.2-0.1,0.5-0.2c0,0,0,0,0,0c0,0,0,0,0,0c0,0,0,0,0,0
				C9,8.9,9,9,9,9c0,0,0.1-0.2,0.1-0.2l0.2-0.6V7.7l-0.2,0L8,8.3L7.3,9L7.3,9.2L7.3,9.2z"/>
			<path class="st39" d="M10.6,6.6c0.1,0,0.1,0,0.2-0.1c0,0.1,0,0.1-0.1,0.3S10.5,7,10.4,7.2c-0.1,0.2-0.1,0.4-0.2,0.5
				c0,0,0.1,0,0.1,0c0,0-0.1,0.1-0.1,0.1c0,0.1-0.1,0.2-0.2,0.3C9.9,8.2,9.7,8.2,9.5,8.5C9.3,8.7,9.1,8.9,9,9
				c0.1-0.1,0.1-0.3,0.1-0.4c0-0.1,0-0.3,0-0.4c0-0.2,0-0.3,0.2-0.6c0.2-0.3,0.4-1.2,0.4-1.2l0.6-0.2L10.6,6.6L10.6,6.6L10.6,6.6z"
				/>
			<path class="st40" d="M10.2,6.3c0,0-0.2,0.3-0.2,0.5c0,0.2,0,0.2,0,0.3c0,0.1,0,0.1,0,0.2C10,7.2,10,7.1,10.1,7.1
				c0.2-0.1,0.3-0.2,0.4-0.3c0.1-0.1,0.1-0.2,0.3-0.4c-0.1,0-0.2,0-0.2,0c0.1-0.1,0.3-0.2,0.5-0.4c0.2-0.2,0.2-0.2,0.6-0.4
				c-0.1,0-0.2,0-0.3,0c0-0.1,0.2-0.1,0.3-0.3c0.1-0.1-0.1-0.3-0.1-0.3l-1,0.6L10.2,6.3L10.2,6.3z"/>
			<polygon class="st41" points="7.4,5.8 7.4,5.6 7.7,5.2 8,4.3 8,3.2 8,2.6 8,2.1 8.1,2 8.1,2 8.3,2.1 8.7,2.6 8.7,3.5 8.4,4.9 
				7.4,5.9 			"/>
			<path class="st31" d="M8.1,1.9c0,0-0.2,0-0.2,0.6c0,0.6,0,1-0.1,1.3c0,0.3-0.1,0.5-0.1,0.7c0,0.2,0,0.4-0.1,0.6
				c0,0.1-0.1,0.3-0.3,0.5C7.1,5.8,6.8,5.9,6.7,5.9C6.7,5.9,6.2,6,6,6.1C6,6.1,5.9,6.1,5.8,6.3C5.5,6.5,5.2,6.9,5,7.3
				C4.6,8,4.3,9.9,4.3,9.9l0.1-0.1c0,0,0-0.2,0.2-0.5C4.7,9,4.7,8.7,4.9,8.1C5,7.9,5.1,7.6,5.3,7.3C5.5,6.9,5.7,6.6,6,6.4
				C6.5,6.1,6.9,6,6.9,6l0.5-0.3c0,0,0.1-0.2,0.2-0.4C7.8,5,8.1,4.7,8.1,4.3C8.2,3.6,8,3.1,8,2.7C8,2.3,8,2,8.1,1.9
				C8.2,1.9,8.1,1.9,8.1,1.9L8.1,1.9L8.1,1.9z"/>
			<path class="st42" d="M8.1,4.9c0,0,0.2-0.6,0.3-1.1c0-0.1,0.1-0.2,0.1-0.3c0-0.5,0.1-0.7,0-0.9c0-0.2-0.2-0.4-0.3-0.5
				C8.1,2,8.1,2,8.1,1.9c0,0,0.1-0.1,0.2-0.1c0.2,0,0.3,0.1,0.4,0.2c0.1,0.2,0.3,0.8,0.3,0.8l0.1,0.8l0.3,1L8.1,4.9L8.1,4.9L8.1,4.9
				z"/>
			<path class="st43" d="M10.3,4.4c0,0,0,0-0.1,0c0,0.1,0,0.1-0.1,0.2c-0.1,0-0.8,0-0.8,0S8.9,4.5,8.8,4c-0.1-0.3,0.1-0.7,0-1
				C8.7,2.6,8.6,2.5,8.6,2.4c0-0.1,0-0.2,0-0.2c0,0-0.1,0-0.1,0c0,0,0-0.1,0-0.1c0,0,0.2,0,0.4,0.2C9,2.3,9,2.4,9,2.4
				c0,0,0.3,0.2,0.4,0.4s0.3,0.8,0.3,0.9c0,0,0,0.1,0.1,0.2C10,4.1,10.1,4.3,10.3,4.4L10.3,4.4L10.3,4.4z"/>
			<path class="st31" d="M9,2.4C9.2,2.6,9.3,2.8,9.4,3c0.1,0.3,0.2,0.5,0.3,0.6C9.6,3.4,9.5,3,9.4,2.8C9.3,2.6,9.1,2.5,9,2.4L9,2.4
				L9,2.4z"/>
			<path class="st44" d="M7.7,5.6c0,0-0.2,0-0.6,0.2C7,5.9,6.9,5.9,6.8,6C6.5,6.1,6.2,6.2,6,6.3c0,0,0,0,0,0s0,0.1,0.1,0.1
				c0,0-0.4,0.3-0.3,1.2c0.1,0,0.2-0.1,0.2-0.1c0,0,0,0.1,0.1,0.1c0,0,0.1,0,0.2-0.2c0,0.1-0.1,0.6,0.3,0.9c0.1-0.1,0.2-0.3,0.2-0.3
				l0-0.1c0,0,0-0.3,0.1-0.5C6.9,7.4,7,7.2,7,7.2L7.8,6L7.7,5.6L7.7,5.6L7.7,5.6z"/>
			<path class="st45" d="M6.9,7.3c0,0-0.1,0-0.1,0.1c0,0,0-0.2,0.1-0.4C7,6.8,7.3,6.6,7.4,6.4c0.1-0.1,0-0.5,0.5-0.9
				c0.5-0.4,0.6-0.6,0.6-0.6l0.8-0.4l0.9,0.4L9.8,6.7L9.4,7.6L8,7.3L6.9,7.3L6.9,7.3L6.9,7.3z"/>
			<path class="st46" d="M7.5,6.8l0.2-0.2V6.5c0,0,0.2-0.1,0.4-0.3C8.3,6,8.6,5.6,8.8,5.6c0.3,0,0.3,0.6,0.3,0.7
				c0,0.1,0,0.5,0.1,0.7c0.1,0.2-0.6,0.9-0.6,0.9L8.1,8.2L7.5,6.8L7.5,6.8z"/>
			<path class="st47" d="M8,8.7c0,0,0.1-0.2,0-0.3c0.1-0.1,0.2-0.3,0.2-0.3s0.1-0.2,0.3-0.5C8.9,7.4,9,7.3,9.1,7.1
				c0-0.1,0-0.2,0-0.3c0,0,0.1,0,0.1,0.1c0,0,0.2,0.2,0.2,0.5S9.3,7.8,9.3,7.8S9.1,7.9,9.1,8C9,8.1,8.9,8.1,8.8,8.1c0,0,0,0,0.1,0
				c0,0-0.2,0-0.2,0.1C8.5,8.3,8.3,8.5,8.2,8.6C8.1,8.6,8,8.7,8,8.7L8,8.7L8,8.7z"/>
			<path class="st48" d="M14.5,4.9c-0.2-0.1-0.5-0.1-0.7-0.1c-0.4,0-1,0-1.6,0c-0.6,0-1.2-0.2-2-0.3c-0.1-0.1-0.5-0.4-1.5,0.3
				c0.1,0,0.7-0.2,1,0.1c0.2,0.3,0.2,0.8,0.1,0.9C9.8,6.2,9.6,6.6,9.5,6.8C9.4,7.1,9.4,7.2,9.4,7.4S9.2,7.7,9.3,7.9
				c0.1-0.1,0.2-0.1,0.3-0.4c0.2-0.4,0.1-0.6,0.4-1c0.3-0.3,0.7-0.8,0.9-0.9c0.2-0.1,1.5-0.8,3-0.1C14.2,5.5,14.5,4.9,14.5,4.9
				L14.5,4.9L14.5,4.9z"/>
			<path class="st49" d="M9.3,4.6C9.3,4.6,9.3,4.6,9.3,4.6c0-0.1,0-0.1-0.1-0.1c0,0-0.3-0.1-0.5,0C8.4,4.5,8.1,4.9,8,5.1
				C7.9,5.3,7.7,5.6,7.5,5.7c0,0,0,0,0,0c0,0,0,0,0,0s0,0,0,0l0,0c0,0,0.3-0.1,0.6-0.5C8.6,5,8.9,4.8,9,4.7C9.1,4.7,9.2,4.7,9.3,4.6
				L9.3,4.6L9.3,4.6z"/>
			<path class="st50" d="M15.9,3.2c0,0-0.1,0.1-0.1,0.2c-0.2,0.2-0.4,0.4-0.6,0.6c-0.2,0.2-0.4,0.4-0.6,0.6
				c-0.2,0.3-0.5,0.6-0.6,0.6c-0.1,0.1-0.1,0.2-0.1,0.3c0,0-0.1,0-0.1,0c0,0,0,0.1,0.1,0.1c0,0.1,0.1,0.2,0.2,0.2
				c0,0.1,0.1,0.1,0.1,0.2c0,0,0.2,0,0.4-0.3c0.2-0.3,0.4-0.6,0.4-0.6l0.4-0.6L15.6,4l0.3-0.5L15.9,3.2L15.9,3.2L15.9,3.2z"/>
			<path class="st31" d="M16.3,2.8c0,0-0.2,0.2-0.3,0.3c-0.1,0.1-0.3,0.4-0.3,0.4l0.1,0l0.4-0.3L16.3,2.8L16.3,2.8L16.3,2.8z"/>
			<path class="st51" d="M16.2,18.2c0,0,0-0.2,0.1-0.3c0.1-0.1,0.3-0.2,0.5-0.8c0.2-0.5,0.3-0.6,0.3-0.6s-0.4,0.3-0.7,0.4
				c0.1-0.1,0.1-0.2,0.1-0.3c0,0-0.2-0.1-0.2-0.1c0.1-0.1,0.1-0.3,0.3-0.4c0.2-0.2,0.6-0.4,0.9-0.7c0.3-0.2,0.9-0.8,0.9-0.9
				c0,0.1,0.1,0.1,0.1,0.1s-0.3,0.4-0.4,0.6C18,15.6,18,15.7,18,15.7l0.3-0.1c0,0,0.1,0.3-0.3,0.7c0.2-0.1,0.2,0,0.3-0.1
				c-0.1,0.1-0.3,0.2-0.5,0.6c-0.2,0.3-0.4,0.7-0.9,1C16.5,18,16.2,18.2,16.2,18.2L16.2,18.2L16.2,18.2z"/>
			<path class="st52" d="M15.2,5.1c0,0-0.2,0.3-0.2,0.6c0,0.1,0,0.1,0,0.2c0,0.2,0,0.5,0,0.6c0,0,0-0.1,0-0.1c0,0.1-0.1,0.3-0.1,0.4
				c0-0.1-0.1-0.3-0.1-0.5s0-0.3,0-0.4c0,0.1-0.1,0.2-0.1,0.2c0-0.1-0.1-0.1-0.1-0.2c0,0-0.1,0.1-0.1,0.1c0,0,0-0.1,0-0.2
				c0-0.1,0-0.2,0-0.3c0-0.1,0.1-0.3,0.3-0.4c0.2-0.2,0.4-0.7,0.5-0.8c0.1-0.1,0.3-0.7,0.3-0.7h0.2l-0.3,0.7c0,0-0.2,0.4-0.3,0.5
				c-0.1,0.1-0.3,0.5-0.4,0.7c0.1-0.1,0.1-0.1,0.2-0.2C15,5.3,15.2,5.1,15.2,5.1L15.2,5.1L15.2,5.1z"/>
			<path class="st53" d="M16.3,2.8c0,0.1-0.1,0.2-0.2,0.3c-0.1,0.1-0.4,0.3-0.5,0.5c-0.1,0.1-0.3,0.6-0.2,1c0-0.1,0.1-0.3,0.3-0.5
				c0.2-0.2,0.4-0.5,0.5-0.7c0.1-0.2,0.1-0.4,0.1-0.4l0,0L16.3,2.8L16.3,2.8L16.3,2.8z"/>
			<path class="st31" d="M20.2,15.6c0,0-0.1-0.2-0.1-0.4s0-0.2,0-0.5c0-0.1-0.1-0.1-0.1-0.1s0-0.2,0-0.3s0-0.3,0-0.3
				c0,0,0,0-0.1-0.2c0-0.1-0.1-0.2-0.1-0.3c0,0-0.1-0.1-0.1-0.1c0-0.1,0.1-0.1,0.1-0.2c0,0-0.1,0-0.1,0c0,0,0-0.2,0-0.2
				c0,0-0.1,0.1-0.1,0c0,0,0-0.3-0.1-0.4c0-0.1-0.1-0.3-0.1-0.3c0,0-0.3-0.8-0.3-1C19,11.3,19,11.1,19,11c0-0.1,0-0.3,0-0.3
				s0,0.1,0,0.1c0,0-0.1-0.3-0.1-0.4c0-0.1-0.1-0.2-0.1-0.4c0-0.1-0.1-0.5-0.1-0.7s0-0.3,0-0.4c0-0.1,0-0.3,0-0.4
				c0-0.2-0.1-0.5-0.2-0.7c-0.1-0.3-0.5-1.2-0.5-1.4c0-0.1,0.1,0,0.1,0s0.2,0.4,0.3,0.7c0.1,0.3,0.2,0.6,0.3,0.6
				c0,0,0.2,0.3,0.3,0.9c0.1,0.5,0.1,1,0.2,1.3c0,0.2,0,0.3,0.1,0.5c0.1,0.2,0.1,0.4,0.2,0.6c0.1,0.2,0.2,0.4,0.2,0.6
				c0,0.2,0,0.4,0.1,0.5c0,0.1,0.1,0.3,0.1,0.5c0.1,0.3,0.2,0.6,0.3,0.8c0.2,0.4,0.2,0.8,0.3,1C20.2,14.8,20.3,15.4,20.2,15.6
				L20.2,15.6L20.2,15.6z"/>
			<path class="st54" d="M16.3,2.7L16.3,2.7C16.3,2.8,16.3,2.8,16.3,2.7c0,0.1,0,0.2,0,0.2c0,0.1,0,0.1,0,0.2c0,0.1,0,0.2-0.1,0.5
				c0,0.1-0.1,0.1-0.1,0.2c0,0.1-0.1,0.1-0.1,0.2c0.1,0,0.3-0.2,0.4-0.2c-0.1,0-0.2,0.1-0.3,0.3c0,0,0.1,0,0.2,0
				c0.2,0,0.5-0.1,0.7-0.1c0.2,0,0.1-0.3,0.1-0.3l-0.3-0.6L16.3,2.7L16.3,2.7L16.3,2.7z"/>
			<path class="st55" d="M17.6,7.1c0,0-0.2-0.2-0.3-1c-0.1-0.8-0.1-1.9-0.1-1.9l-0.2-0.4c0,0,0-0.3-0.1-0.4
				c-0.1-0.1-0.3-0.3-0.4-0.4c-0.1-0.1-0.2-0.2-0.2-0.2c0,0,0.2-0.3,0.7-0.3c0.5,0,0.7,0.3,0.7,0.4s0.3,0.5,0.4,1.4
				c0.1,0.8,0.1,0.9,0.1,1.2c0,0.2-0.1,0.5-0.2,0.9C17.9,6.6,17.8,7,17.6,7.1L17.6,7.1z"/>
			<path class="st52" d="M16.9,7.8c0.1,0,0.2,0,0.2,0c0.1,0,0.3,0,0.5-0.2c0,0.1,0,0.2,0,0.4c0,0,0.1-0.1,0.1-0.1
				c0,0.1,0.1,0.3-0.2,0.8c0.1-0.1,0.2-0.1,0.3-0.1c0,0.1,0.1,0.4-0.1,0.6c-0.1,0.1-0.3,0.1-0.3,0.1c0,0,0-0.1,0-0.1
				c0-0.1,0-0.1,0-0.1c-0.1,0-0.1-0.1-0.2-0.1c-0.2-0.2-0.4-0.4-0.4-0.6C16.8,8,17,8,17,8c0,0,0,0,0-0.1C17,7.9,17,7.8,16.9,7.8
				L16.9,7.8L16.9,7.8z"/>
			<path class="st56" d="M15.4,5.4C15.4,5.4,15.4,5.3,15.4,5.4c-0.1,0,0-0.1,0-0.1c0-0.1,0.1-0.1,0.1-0.1c0,0.1,0,0.1,0,0.1
				s0.1-0.1,0.2-0.2c0.1-0.1,0.2-0.1,0.2-0.1c0-0.1,0-0.1,0-0.1c0,0,0.1-0.1,0.2-0.2c0,0,0,0,0.1-0.1c0,0,0.1,0,0.2-0.1
				c0.1-0.1,0.2-0.1,0.3-0.2c0.1-0.1,0.3-0.1,0.3-0.1c0,0,0.1-0.2,0.1-0.3c0.1,0,0.4,0.3,0.6,0.8c0.1,0.4-0.1,0.9-0.1,1.2
				c-0.1,0.3-0.1,0.5-0.2,0.6c-0.1,0.2-0.5,0.4-0.6,0.5c-0.1,0.1-0.3,0.3-0.3,0.5c0,0.1,0.2,0.2,0.2,0.2s0,0.1,0.1,0
				c0.1,0,0.1,0,0.1,0c0,0,0,0,0,0c0,0,0,0,0,0c0,0,0,0.2-0.4,0.2c0,0-0.1,0-0.1,0c0,0,0.1,0,0.1-0.1c-0.1,0-0.2,0-0.3,0
				c0,0,0.1-0.1,0.1-0.1c0,0,0,0,0,0c-0.1,0-0.1,0.1-0.1,0.1c0,0-0.1,0.1-0.2,0.2c0-0.1,0-0.2,0.1-0.3c0,0-0.1,0.1-0.1,0.1
				c0-0.1,0-0.1,0-0.2C16,7.2,16.1,7,16.1,7l0.6-1.1l0.1-0.8L15.4,5.4L15.4,5.4L15.4,5.4z"/>
			<path class="st57" d="M15.4,5.4C15.4,5.4,15.4,5.4,15.4,5.4c0,0.1,0,0.1,0,0.2c0,0-0.1,0.1-0.1,0.1c0,0.1-0.1,0.1-0.1,0.1
				c0,0,0,0.2-0.1,0.3c0,0-0.1,0.1-0.1,0.2C15,6.4,15,6.5,15,6.5c0,0.1,0,0.3,0,0.3s0-0.1,0.1-0.1c0,0,0,0.1-0.1,0.1
				c0,0,0.1-0.1,0.2-0.2c0.2-0.1,0.4-0.4,0.7-0.5c-0.1,0-0.2,0-0.2,0c0,0,0.5-0.6,0.7-0.6c0,0,0,0,0-0.1l-0.2,0l-0.4,0.1l-0.1-0.3
				L15.4,5.4L15.4,5.4z"/>
			<path class="st58" d="M16,7.2c0,0-0.1,0.1-0.1,0.2c0,0-0.1-0.1-0.1-0.1c-0.1-0.1-0.2-0.3-0.4-0.2c0-0.1,0-0.1,0-0.2
				c0,0,0.2-0.1,0.3-0.3c0.1-0.1,0.2-0.2,0.2-0.4c0,0,0.1-0.1,0.2-0.1c0.1-0.1,0.3-0.2,0.3-0.3c-0.1,0-0.2,0.1-0.4,0.1
				c0.1,0,0.2-0.1,0.2-0.2c0,0,0.1,0,0.1,0c0,0,0,0-0.1,0c0,0,0,0,0,0c0,0,0,0,0,0c0,0-0.1,0-0.1,0c0,0-0.1,0.1-0.2,0.1
				c0,0,0-0.1,0-0.1s-0.1,0-0.2,0c-0.1,0-0.3,0.1-0.4,0.2c0,0,0,0,0,0c0,0,0,0,0,0c0,0,0,0,0-0.1c0-0.1,0.1-0.2,0.2-0.3
				c0.1-0.1,0.1-0.2,0.1-0.2l0.3-0.1l0.8-0.2l0.5,0l-0.1,0.4L16.9,6l-0.3,0.6l-0.3,0.4L16,7.2L16,7.2L16,7.2z"/>
			<path class="st59" d="M17.4,5.5c0,0-0.3,0.4-0.4,0.5c0.1-0.1,0.4-0.9,0.5-1.1c0,0-0.1,0,0-0.4c-0.1,0.2-0.1,0.3-0.2,0.3
				c-0.1,0-0.1,0-0.1,0c0,0,0,0,0,0c0,0-0.3,0-0.5,0S16.3,4.9,16,5c-0.2,0.1-0.3,0.1-0.3,0.1c-0.1,0-0.1,0.1-0.1,0.1
				c0,0-0.1,0-0.2,0.1c0,0-0.1,0.1-0.1,0.1s0,0,0,0c0,0,0.1,0,0.2-0.1c0.1-0.1,0.2-0.1,0.3-0.2C16.2,5,16.3,5.1,16.4,5
				C16.5,5,16.7,5,16.8,5c0.1,0,0.4,0,0.4,0c0,0,0,0,0,0.1c0,0,0,0,0,0.1C17.1,5.4,17,5.6,17,5.8c-0.1,0.2-0.2,0.3-0.2,0.4
				c0,0.1-0.2,0.3-0.3,0.5c-0.1,0.1-0.2,0.2-0.2,0.2c0,0-0.3,0.2-0.3,0.3c0,0,0.3-0.1,0.5-0.3c0.2-0.2,0.2-0.4,0.4-0.5
				s0.3-0.3,0.3-0.5C17.3,5.7,17.3,5.7,17.4,5.5L17.4,5.5L17.4,5.5z"/>
			<path class="st60" d="M10.4,8.5c0,0,0,0.2-0.1,0.3C10.1,8.9,10,9,9.9,9.1c0,0.1,0.2,0.2,0.2,0.2S10,9.5,10,9.6c0,0.1,0,0.2,0,0.3
				c0,0,0,0,0,0c0,0,0,0.1,0.1,0.2s0.2,0.1,0.2,0.1c0,0,0,0,0,0c0,0,0.1-0.2,0.1-0.3c0-0.2,0.1-0.1,0.1-0.4S10.8,9,10.8,9l0.1-0.3
				l-0.2-0.2L10.4,8.5L10.4,8.5z"/>
			<path class="st61" d="M10.8,8.9c0,0-0.1,0.1-0.1,0.2c-0.1,0.1-0.1,0.2-0.2,0.2s-0.1,0-0.1,0.1s0.1,0.1,0.1,0.2
				c0.1,0,0.1,0.1,0.1,0.2c0,0,0.1,0,0.1-0.1c0-0.1,0.4-0.7,0.4-0.7L10.8,8.9L10.8,8.9z"/>
			<path class="st62" d="M12.1,7.4c0,0,0-0.1,0-0.1c0-0.1-0.2-0.1-0.3-0.1C11.7,7,11.6,7,11.5,7c0,0,0.1-0.1,0-0.1
				c0,0-0.2,0.1-0.2,0.1c0,0-0.1,0.1-0.2,0.1c0,0-0.1,0.1-0.1,0c0,0,0,0-0.1,0c0,0-0.2,0.1-0.2,0.2c0,0.1-0.1,0.2-0.3,0.4
				c-0.2,0.2-0.3,0.3-0.2,0.4c0.1,0.1,0.1,0,0.1,0.1c0,0.1,0,0.1,0,0.2c0,0.1-0.1,0.2,0,0.2c0.1,0,0.3,0,0.3,0
				c0.1,0.1,0,0.2,0.1,0.3c0.1,0,0.3,0,0.3,0l0.5-0.3L12,8.3l0.3-0.5L12.1,7.4L12.1,7.4L12.1,7.4z"/>
			<path class="st63" d="M11.7,8.6c0,0-0.1-0.1,0-0.2c0.1-0.1,0.3-0.2,0.3-0.2c0,0,0,0,0,0C12,8,12,7.9,12.1,7.9
				c0,0-0.1-0.1-0.1-0.1c-0.1,0-0.2,0.1-0.2,0.1c-0.1,0-0.1,0-0.1,0s0.1,0,0.1-0.1c0-0.1,0-0.1,0-0.1s0.3-0.1,0.3-0.2
				c0-0.1,0-0.1,0.1-0.2c0,0,0.2-0.1,0.3-0.1c0.1,0,0,0.2,0,0.2s0.2-0.2,0.4-0.4c0.1,0,0.2-0.1,0.2-0.1c0.1,0,0.2,0.1,0.3,0.4
				c0,0.2,0,0.3,0,0.5c0,0.2,0,0.5,0,0.7c0,0.1,0.1,0.1,0.1,0.1c0,0,0,0.1-0.1,0.1c-0.1,0-0.1,0.2-0.1,0.2c0,0,0,0.1,0,0.1
				c0,0-0.1,0.1-0.1,0.1c0,0-0.1,0.1-0.1,0.1c0,0,0,0-0.1,0c-0.1,0-0.1,0-0.1,0s-0.1,0-0.1-0.2c0-0.1-0.5-0.4-0.5-0.4L11.7,8.6
				L11.7,8.6L11.7,8.6z"/>
			<path class="st64" d="M10.7,9.8c0,0,0.2,0.2,0.9,0.2c0.3,0,0.5,0,0.5-0.1c0.1,0,0.4-0.1,0.7-0.5C13.1,9.2,13,9.1,13,9.1l-0.2,0
				l-0.5,0.1l-1.5,0.6L10.7,9.8L10.7,9.8z"/>
			<path class="st65" d="M11.3,9.9c0,0-0.6,0.1-0.6-0.3c0-0.4,0.4-0.8,0.5-0.9c0.1-0.1,0.3-0.2,0.3-0.2H12l0.1,0.3l0,0.6L11.3,9.9
				L11.3,9.9z"/>
			<path class="st66" d="M11.9,8.7c0,0-0.1-0.1-0.4,0S11,9.2,10.9,9.5c0,0.3,0.2,0.4,0.5,0.4c0.3,0,0.4,0,0.5,0c0,0-0.1-0.1-0.1-0.1
				L11.9,8.7L11.9,8.7L11.9,8.7z"/>
			<path class="st67" d="M11.7,8.8c0,0,0,0-0.1,0c-0.1,0-0.2,0.1-0.3,0.2c-0.1,0-0.1,0.1-0.1,0.1c-0.1,0.1-0.2,0.4-0.2,0.5
				c0.1,0.1,0.3,0.3,0.7,0.2L11.7,8.8L11.7,8.8L11.7,8.8z"/>
			<path class="st65" d="M11.6,9c0,0-0.1,0.1-0.1,0.3c0,0.2,0.1,0.5,0.5,0.5c0.3,0,0.5-0.5,0.7-0.6C12.9,9.1,13,9.1,13,9.1
				s-0.2-0.2-0.6-0.4c-0.5-0.3-1-0.3-1.3,0.1c0.1,0,0.6-0.1,0.6-0.1l0.2,0.1L11.6,9L11.6,9L11.6,9z"/>
			<path class="st68" d="M12.2,9.3C12.2,9.2,12.2,9.2,12.2,9.3c0.1-0.1,0.1-0.1,0.1,0s0,0.1,0,0.1C12.3,9.3,12.2,9.3,12.2,9.3
				L12.2,9.3z M12.1,9C12.1,9,12.1,9,12.1,9C12.1,8.9,12.1,8.9,12.1,9c0.1-0.1,0.1,0,0.1,0C12.2,9,12.1,9,12.1,9
				C12.1,9,12.1,9,12.1,9C12.1,9,12.1,9,12.1,9L12.1,9z"/>
			<path class="st69" d="M6.8,9.1c0,0,0.2,0.1,0.3,0.1c0.2,0,0.4-0.2,0.5-0.3c0.1-0.1,0.1-0.1,0.2-0.2c0,0,0.1-0.1,0.1-0.1
				C8,8.6,8,8.5,8,8.5c0,0-0.1,0.1-0.2,0.1c-0.1,0-0.2,0.1-0.3,0.1C7.6,8.8,7,9,7,9L6.8,9.1L6.8,9.1z"/>
			<path class="st70" d="M7.1,7.7c0,0,0.1-0.1,0.3-0.1c0.2,0,0.5-0.1,0.5-0.1l0.3,0.1L8.2,8L8,8.4L7.7,8.6L7.5,8.1L7.1,7.7L7.1,7.7
				L7.1,7.7z"/>
			<path class="st71" d="M6.7,8L6.7,8c-0.1,0.1-0.1,0,0-0.1c0-0.1,0.1-0.4,0.3-0.6s0.1-0.2,0.1-0.2c0,0-0.1,0-0.1,0
				c0,0,0.1-0.2,0.3-0.3c0.1-0.1,0.2-0.1,0.3,0c0.1,0.1,0.2,0.1,0.3,0.1C7.9,6.9,8,6.8,8,6.8S8,6.9,8,7C7.9,7.2,7.6,7.5,7.6,7.5
				L7,7.9L6.7,8L6.7,8L6.7,8z"/>
			<path class="st72" d="M7.2,7.6c0,0,0.4,0.1,0.6-0.1c0,0,0,0,0,0c0,0,0,0,0,0c0,0,0,0,0,0c0,0,0,0,0.1,0c0,0,0,0,0,0c0,0,0,0,0,0
				c0,0,0,0,0,0s0,0.1,0,0.1c0,0,0,0-0.1,0c0,0,0,0.1,0,0.1C7.9,7.9,7.9,8,8.1,8c0,0,0.1,0.1-0.2,0.5c0,0-0.1,0.1-0.1,0.1
				c0,0,0,0.1,0,0.1c0,0,0.4-0.2,0.5-0.5c0.1-0.4,0.1-0.7,0.1-1.1c0-0.1,0-0.2,0-0.2C8.3,6.8,8.1,6.8,8,6.9C7.9,7,7.8,7.2,7.6,7.4
				C7.3,7.5,7.3,7.5,7.2,7.6L7.2,7.6L7.2,7.6z"/>
			<path class="st64" d="M6.6,8.1c0,0-0.1,0-0.1,0.2c0,0.2,0,0.4,0.1,0.5S6.8,9.1,7,9.1c0.1,0,0.1,0,0.2,0C7.2,9.1,7.3,9,7.4,9
				c0.1-0.1,0.2-0.1,0.2-0.1c0,0-0.6-0.5-0.6-0.5L6.6,8.1L6.6,8.1L6.6,8.1z"/>
			<path class="st73" d="M7.2,8.9c0,0,0.1,0,0.2-0.1C7.4,8.8,7,8.4,7,8.4l0,0.5L7.2,8.9z"/>
			<path class="st74" d="M6.7,8.1c0,0-0.1,0.1-0.1,0.1c0,0.1,0,0.4,0,0.5C6.7,8.8,6.8,9,7,9c0.1,0,0.2-0.1,0.2-0.1
				c0,0-0.1,0-0.2-0.1c0,0,0-0.1,0-0.2c0-0.1,0-0.1,0-0.2c0.1-0.1,0.1-0.2,0.1-0.2l0.2-0.3H7L6.7,8.1L6.7,8.1z"/>
			<path class="st65" d="M6.6,8.2c0,0,0.2-0.3,0.4-0.3c0.2-0.1,0.3,0,0.3,0L7.1,8.1L7,8.3l0,0.1c0,0,0,0.2,0.1,0.4s0.3,0.1,0.3,0.1
				s0.2-0.1,0.3-0.3c0.1-0.2,0.1-0.5,0-0.7C7.6,7.6,7.3,7.6,7.3,7.6S6.8,7.7,6.6,8.2L6.6,8.2L6.6,8.2z"/>
			<path class="st75" d="M11.5,9.1c-0.1,0,0-0.2,0.1-0.3c0.1-0.1,0.2-0.1,0.3-0.1c0.1,0,0.1,0,0.1,0.1c0,0.1-0.1,0.2-0.2,0.2
				C11.7,9.1,11.6,9.1,11.5,9.1z"/>
			<path class="st76" d="M7.7,8c0.1,0,0.1,0,0.1,0.1c0,0.1,0,0.2-0.1,0.2c-0.1,0-0.1-0.1-0.1-0.1c0,0,0,0,0-0.1C7.6,8.1,7.6,8,7.7,8
				z"/>
			<path class="st77" d="M6.9,8c0,0-0.1,0.1-0.2,0.2c0,0.1-0.1,0.2,0,0.3c0,0,0.1,0.2,0.1,0.2c0,0,0.1,0.1,0.1,0.1S7,8.7,7,8.7
				C7,8.6,7,8.4,7,8.3C7.1,8.1,6.9,8,6.9,8L6.9,8L6.9,8z"/>
			<path class="st78" d="M6.9,8C6.9,8,6.9,8,6.9,8c0,0.1,0,0.1,0.1,0.2c0,0.1,0,0.1,0,0.1c0,0,0,0,0.1,0c0,0,0.1-0.1,0.1-0.1
				c0,0,0.1,0,0.1,0c0,0,0.1,0,0.1-0.1C7.4,8,7.3,8,7.3,8c0,0,0-0.1,0-0.1s-0.2,0-0.2,0C7,7.9,6.9,8,6.9,8L6.9,8L6.9,8z"/>
			<path class="st79" d="M10,12.1l0.3-0.1l0.1,0.1c0,0,0.1,0.1,0.1,0.1c0,0.1-0.1,0.1-0.1,0.2s0,0.1,0,0.1s-0.3,0.4,0.3,0.9
				c-0.1,0-0.3,0.1-0.4,0.2c0.1,0,0.2,0,0.2,0.1s0.1,0.1,0.1,0.1s0.1,0.1,0.1,0.1c0,0-0.1-0.1-0.2,0s-0.5,0-0.5,0l-0.8,0.1
				c0,0,0-0.1-0.1-0.1c-0.1-0.1-0.2,0-0.3-0.1c-0.2-0.1-0.2-0.3-0.2-0.3c0.1,0,0.2-0.1,0.4-0.1c0,0,0-0.1,0-0.1
				c0-0.1,0.1-0.1,0.1-0.2c0,0,0.1,0,0.2-0.1c0.1-0.1,0.2-0.2,0.2-0.2c0.1,0,0.1,0,0.3-0.1c0.1-0.1,0.1-0.2,0.1-0.2S10,12.2,10,12.1
				L10,12.1L10,12.1z"/>
			<path class="st80" d="M9.2,12.1c0,0,0,0,0.1,0c0.1,0,0.8-0.1,0.9-0.1c0.2,0,0.8,0,1.1,0.1s0.6,0.1,0.8,0.2c0.2,0,0.2,0.1,0.2,0.1
				c0,0,0,0-0.1,0c0,0-0.5-0.2-0.7-0.2s-0.7-0.1-1-0.1c-0.3,0-0.4,0-0.6,0C9.7,12.1,9.4,12.2,9.2,12.1C9.1,12.2,9.2,12.2,9.2,12.1
				L9.2,12.1L9.2,12.1z"/>
			<path class="st81" d="M10.7,13.7c0,0,0.4,0.2,0.5,0.5c0.1,0.2-0.1,0.3-0.1,0.3s0.2,0,0.2,0.1c0,0.1-0.4,0.3-0.6,0.4
				c-0.3,0.1-0.2,0.1-0.4,0.1c-0.1,0-0.5,0-0.5,0.1c-0.1,0.1,0,0.2,0,0.2c0,0,0.2,0,0.2,0s0,0.1-0.4,0.1c-0.3,0-0.4,0-0.4,0.1
				c0,0,0.1,0,0.2,0c0.1,0,0.4,0,0.4,0s-0.1,0.1-0.2,0.1c-0.2,0.1-0.5,0.1-0.6,0.2c0,0,0.1,0.1,0.2,0.1C9,16,8.9,16,8.9,16.1
				c0,0,0.1,0,0.1,0s-0.2,0.2-0.3,0.2c-0.1,0-0.6,0.3-0.8,0.3c-0.5-0.1-0.5-0.6-0.6-0.7c-0.2-0.1-0.3,0.1-0.4,0
				c0.1,0,0.1-0.1,0.2-0.1c-0.1,0-0.5-0.3-0.5-0.3c0-0.1-0.1-0.2-0.1-0.3c-0.1-0.1-0.2-0.3-0.3-0.5c-0.2-0.3-0.2-0.5-0.4-0.7
				c0,0,0.1,0,0.1,0l1.4,0.5l2.5,0.1l0.7-0.9L10.7,13.7L10.7,13.7z"/>
			<path class="st82" d="M7,15.1C7,15.1,7,15.1,7,15.1c0.1,0.1,0.2,0.1,0.2,0.2c0,0,0.1-0.1,0.2,0c0.1,0.1,0.2,0,0.3,0
				c0.1,0,0.1,0,0.1,0s0,0,0.1-0.1c0.1,0,0.1,0,0.2-0.1c0.1,0,0.1,0,0.2,0c0,0,0.2,0.2,0.8,0c0.6-0.2,0.7-0.3,0.8-0.2
				c0,0,0-0.1,0.2-0.1c0-0.1-0.1-0.3-0.1-0.3l-0.7-0.2H8.8l-1.1,0.2l-0.6,0.4L7,15.1L7,15.1z"/>
			<path class="st83" d="M6.6,14.7c0,0,0,0.1,0.2,0.2C7,15,7,15.1,7,15.1s0,0,0.1-0.1c0,0,0-0.1,0.1-0.1c0.1,0,0.3,0,0.3,0
				c0,0,0-0.1,0.1-0.1c0.1,0,0.1,0.1,0.2,0.1c0,0,0.1,0,0.1,0c0,0,0-0.2,0.1-0.3c0.1-0.1,0.3,0,0.3,0c0,0,0,0.1,0.1,0.1
				c0.1,0,0.1,0,0.2,0c0.1,0,0.1,0,0.2,0.1c0,0,0.1,0,0.1-0.1c0,0,0.1,0,0.2-0.2c0,0,0.1-0.1,0.1-0.1c0.1,0,0.1,0,0.3,0.1
				c0,0-0.1,0-0.1,0.1c0,0,0.1,0.1,0.1,0.1c0,0,0,0.1,0.1,0.1c0.1,0,0.2,0,0.4,0c0.1,0,0.3,0.1,0.3,0.1c0,0,0,0,0.1,0c0,0,0.1,0,0,0
				c0,0,0.1,0,0.1,0c0,0,0.1-0.1,0.1-0.1c0.1,0,0.1,0,0.1-0.1c0-0.1-0.1-0.1-0.1-0.1s0.1-0.1,0.1-0.1c0.1-0.1,0.2-0.2,0.2-0.3
				c0-0.3-0.2-0.3-0.2-0.3l-1.2,0.4l-1.5-0.1L6.6,14.7L6.6,14.7L6.6,14.7z"/>
			<path class="st84" d="M5.6,11.3c0,0,0,0-0.1,0.2c0,0.1,0,0.1,0,0.2c0,0.1-0.3,0.9-0.2,1.2s0.2,0.4,0.3,0.6c0,0,0,0.1,0,0.1
				c0,0.1,0,0.3,0,0.4c0,0,0,0.1,0.1,0.2c0.1,0.1,0.3,0.2,0.4,0.3c0.1,0.1,0.3,0.4,0.5,0.4c0.1,0,0.3,0,0.4-0.1
				c0.1-0.1,0.2-0.2,0.3-0.2c0.1,0,0.2-0.1,0.3-0.1c0.2,0,0.3,0,0.4,0c0.1,0,0.5,0.1,0.7,0.1c0.1,0,0.3,0,0.4-0.1
				c0.3-0.1,0.6-0.2,0.8-0.3c0.1,0,0.2,0,0.3-0.1c0.2,0,0.3-0.1,0.4-0.2c-0.1-0.1-0.1-0.2-0.5-0.2c-0.4,0-0.9,0.3-1.2,0.3
				s-0.4,0.1-0.6,0c-0.3-0.1-0.3-0.2-0.3-0.2S7.8,13.5,7.7,13s0-0.9,0.3-1.2c0.1-0.1,0.1-0.2,0.1-0.2s0.2-0.3,0.1-0.5
				c-0.1-0.3-0.5-0.2-0.5-0.2L5.6,11.3L5.6,11.3L5.6,11.3z"/>
			<path class="st85" d="M5.9,12.1c0,0,0,0.1,0,0.1c0,0.1,0,0.1,0.2,0.3c0.1,0.1,0.1,0.3,0.1,0.3s0.1,0,0.3-0.1
				c0.1-0.1,0.2,0.1,0.2,0.1c0,0,0.1,0,0.1,0c0,0,0.1,0,0.1,0c0,0,0.2,0.2,0.3,0.3C7.3,13,7.4,13.1,7.4,13c0.1,0,0.1-0.1,0.1-0.2
				c0,0,0-0.1-0.1-0.1c0-0.1-0.1-0.1-0.1-0.2c0-0.1,0.1-0.3,0.1-0.3c0,0-0.1,0-0.3,0C6.9,12.3,5.9,12.1,5.9,12.1L5.9,12.1L5.9,12.1z
				"/>
			<path class="st86" d="M6.4,13c0,0-0.1-0.1-0.1-0.6c0,0,0.1,0,0.1,0C6.5,12.4,6.5,12.8,6.4,13z"/>
			<path class="st65" d="M5.6,10.9C5.6,10.9,5.6,10.8,5.6,10.9c0,0-0.2,0.3,0,0.8c0.1,0.5,0.5,0.8,0.9,0.8c0.4,0,0.7-0.2,0.9-0.5
				c0.1-0.1,0.2-0.3,0.3-0.4c0.2-0.2,0.3-0.2,0.3-0.4c0-0.3-0.3-0.5-0.9-0.6c-0.5-0.2-1-0.1-1.2,0C5.8,10.6,5.7,10.7,5.6,10.9
				L5.6,10.9L5.6,10.9z"/>
			<path class="st87" d="M7.3,13.1L7.3,13.1c0,0,0-0.2,0.1-0.2c0.1,0,0.1,0.1,0.1,0.1c0,0,0,0.1-0.1,0.1C7.3,13.2,7.3,13.1,7.3,13.1
				L7.3,13.1z"/>
			<path class="st88" d="M7.1,12.5C7.1,12.5,7.1,12.5,7.1,12.5c0.1,0,0.3,0,0.3,0c0.1,0,0.1,0.1,0.1,0.1s-0.2,0-0.3,0
				C7.1,12.6,7.1,12.5,7.1,12.5z"/>
			<path class="st89" d="M8,12.5c0,0-0.1-0.1-0.2-0.1c0,0,0,0,0,0c0,0,0,0,0,0l-0.1,0c0,0,0,0,0,0c0,0,0.1,0,0.1,0.1
				c0,0,0,0.1,0,0.1C7.8,12.6,7.8,12.6,8,12.5C7.9,12.6,8,12.5,8,12.5L8,12.5L8,12.5z"/>
			<path class="st90" d="M7,12.9c0,0,0-0.1,0.1-0.1c0.1,0,0.2,0.1,0.2,0.1L7.2,13C7.2,13,7.2,12.9,7,12.9L7,12.9z"/>
			<path class="st91" d="M7.8,12.3c0,0-0.1,0.1-0.2,0.1c0,0,0-0.1,0-0.1S7.7,12.2,7.8,12.3C7.8,12.3,7.8,12.3,7.8,12.3z"/>
			<path class="st89" d="M8.1,12.4C8.1,12.4,8.1,12.4,8.1,12.4C8.1,12.4,8.2,12.4,8.1,12.4C8.2,12.4,8.2,12.4,8.1,12.4
				C8.2,12.4,8.2,12.5,8.1,12.4C8.2,12.5,8.1,12.5,8.1,12.4C8.1,12.5,8.1,12.5,8.1,12.4C8.1,12.5,8.1,12.4,8.1,12.4z M8.4,12.2
				C8.4,12.2,8.5,12.2,8.4,12.2C8.5,12.2,8.5,12.2,8.4,12.2c0.1,0,0.1,0,0.1,0c0,0,0,0,0,0.1s0,0-0.1,0C8.5,12.3,8.5,12.2,8.4,12.2z
				"/>
			<path class="st84" d="M7.8,12.5c0,0,0,0,0.1,0.1C7.9,12.5,7.8,12.6,7.8,12.5C7.8,12.6,7.8,12.5,7.8,12.5L7.8,12.5z"/>
			<path class="st64" d="M7.7,12C7.7,12,7.7,12,7.7,12c0.1,0,0.1,0,0.1,0c0,0,0,0,0,0c0,0,0,0,0,0c0,0,0,0,0,0c0,0,0,0,0,0
				c0,0,0,0,0.1,0c0,0,0,0.1,0,0.1c0,0-0.1,0-0.1,0c0,0,0.1,0.1,0.1,0.1c0,0,0,0-0.1,0C7.9,12.2,7.7,12.1,7.7,12L7.7,12z M7.9,11.7
				C7.9,11.7,7.9,11.7,7.9,11.7C7.9,11.7,7.9,11.7,7.9,11.7c-0.1,0,0,0.2,0,0.2C8,12,8,12.1,8.1,12.1c0,0,0,0,0.1,0c0,0,0-0.1,0-0.3
				c0-0.2,0-0.3,0-0.3s0,0-0.1,0S7.9,11.7,7.9,11.7L7.9,11.7L7.9,11.7z"/>
			<path class="st91" d="M7.8,12.7c0,0-0.1,0-0.1,0c-0.1,0-0.1,0.1-0.1,0.1c0,0,0.1,0,0.1,0C7.7,12.8,7.8,12.8,7.8,12.7L7.8,12.7z"
				/>
			<path class="st89" d="M7.9,12.9C7.9,12.8,7.9,12.8,7.9,12.9C7.9,12.8,7.9,12.8,7.9,12.9C7.9,12.8,7.9,12.8,7.9,12.9
				c0.1,0,0.1,0,0.1,0c0,0,0,0.1-0.1,0.1S7.9,12.9,7.9,12.9L7.9,12.9z M8.3,12.8C8.3,12.8,8.2,12.8,8.3,12.8
				C8.2,12.8,8.2,12.8,8.3,12.8C8.3,12.8,8.3,12.8,8.3,12.8C8.3,12.8,8.3,12.8,8.3,12.8c0.1,0,0.1-0.1,0.1-0.1c0,0,0,0,0,0
				c0,0,0,0,0,0.1C8.4,12.9,8.4,12.9,8.3,12.8C8.3,12.9,8.3,12.8,8.3,12.8z M8.7,12.7C8.7,12.7,8.7,12.7,8.7,12.7
				c0,0-0.1,0.1-0.1,0.1c-0.1,0-0.1,0-0.1,0s0-0.1,0.1-0.1c0,0,0,0,0,0C8.6,12.7,8.7,12.7,8.7,12.7C8.8,12.7,8.8,12.7,8.7,12.7
				C8.8,12.7,8.7,12.7,8.7,12.7L8.7,12.7z M8.9,12.1C8.9,12.1,8.8,12.2,8.9,12.1C8.8,12.2,8.8,12.2,8.9,12.1
				C8.8,12.2,8.8,12.1,8.9,12.1C8.8,12.1,8.8,12.1,8.9,12.1C8.8,12.1,8.8,12,8.9,12.1c0-0.1,0-0.1,0-0.1c0,0,0.1,0,0.1,0
				C9,12.1,8.9,12.1,8.9,12.1C8.9,12.1,8.9,12.2,8.9,12.1L8.9,12.1z M8.4,13.3C8.4,13.3,8.4,13.3,8.4,13.3
				C8.4,13.3,8.4,13.3,8.4,13.3C8.4,13.3,8.4,13.3,8.4,13.3C8.4,13.3,8.4,13.3,8.4,13.3c0.1,0,0.1,0,0.1,0c0,0,0,0,0,0
				C8.6,13.2,8.5,13.2,8.4,13.3C8.5,13.2,8.5,13.2,8.4,13.3C8.5,13.2,8.5,13.2,8.4,13.3C8.4,13.2,8.4,13.2,8.4,13.3
				C8.4,13.3,8.4,13.3,8.4,13.3L8.4,13.3z M8.2,13.5C8.2,13.5,8.2,13.5,8.2,13.5c0.1,0,0.1,0.1,0.1,0.1C8.3,13.6,8.3,13.6,8.2,13.5
				C8.2,13.6,8.2,13.5,8.2,13.5C8.2,13.5,8.2,13.5,8.2,13.5C8.2,13.5,8.2,13.5,8.2,13.5L8.2,13.5z M8,13.2C8.1,13.2,8.1,13.2,8,13.2
				C8.1,13.2,8.1,13.2,8,13.2C8.1,13.2,8.1,13.2,8,13.2c0.1-0.1,0.1-0.1,0.1,0c0,0,0,0,0,0.1c0,0,0,0.1-0.1,0.1c0,0-0.1,0-0.1,0
				C8,13.3,8,13.3,8,13.2C8,13.2,8,13.2,8,13.2L8,13.2L8,13.2z"/>
			<path class="st84" d="M8.1,13.2C8.1,13.2,8.1,13.2,8.1,13.2C8.1,13.3,8.1,13.3,8.1,13.2C8.1,13.3,8.1,13.3,8.1,13.2
				C8.1,13.3,8.1,13.2,8.1,13.2z"/>
			<path class="st64" d="M7.8,13.1C7.8,13.1,7.9,13.1,7.8,13.1C7.9,13.1,7.9,13.2,7.8,13.1c0.1,0.1,0.1,0.1,0,0.1
				C7.8,13.2,7.7,13.2,7.8,13.1C7.7,13.2,7.7,13.1,7.8,13.1C7.8,13.1,7.8,13.1,7.8,13.1L7.8,13.1L7.8,13.1z"/>
			<path class="st91" d="M7.8,13.1C7.8,13.1,7.7,13.2,7.8,13.1c-0.1,0.1-0.2,0.2-0.2,0.2c0,0,0,0,0,0c0,0-0.1,0.1-0.1,0.1
				c0,0.1,0.1,0.1,0.2,0.1s0.1,0,0.1,0c0-0.1-0.1-0.1-0.1-0.2c0-0.1-0.1-0.1,0-0.1C7.8,13.3,7.8,13.2,7.8,13.1
				C7.8,13.2,7.8,13.1,7.8,13.1z"/>
			<path class="st65" d="M5.6,13.3C5.6,13.3,5.6,13.3,5.6,13.3c0.1,0,0.4-0.1,0.7-0.1c0.2,0,0.5,0.1,0.7,0.1
				c0.4,0.1,0.9,0.3,1.2,0.4c0.1,0,0.2,0.1,0.2,0.1C8.7,14,8.7,14,8.8,14c0.2,0,0.3,0,0.5-0.1c0.2,0,0.6-0.1,0.9-0.1
				c0.1,0,0.2,0,0.3-0.1c0,0-0.3,0.3-0.9,0.4c-0.3,0-0.5,0-0.8,0c-0.2,0-0.3,0-0.4-0.1c-0.1,0-0.3-0.1-0.6-0.2
				c-0.2-0.1-0.4-0.1-0.7-0.1C6.5,13.6,5.8,13.4,5.6,13.3L5.6,13.3z"/>
			<line class="st92" x1="5.2" y1="10.8" x2="3.6" y2="9.3"/>
			<path class="st3" d="M4.9,12.1c-0.2,0.1-0.3,0.3-0.5,0.4l-0.5,0.4c-0.2,0.1-0.3,0.2-0.5,0.4c-0.2,0.1-0.3,0.2-0.5,0.3
				c0.2-0.1,0.3-0.3,0.5-0.4c0.2-0.1,0.3-0.2,0.5-0.4l0.5-0.4C4.5,12.3,4.7,12.2,4.9,12.1L4.9,12.1z M4,13.5c0,0,0.2-0.1,0.4-0.3
				c0.3-0.3,0.6-0.6,0.7-0.6L4,13.5L4,13.5z"/>
			<path class="st3" d="M4,13.5c0.1-0.1,0.2-0.2,0.3-0.3l0.1-0.1c0,0,0.1-0.1,0.1-0.1c0.1-0.1,0.2-0.2,0.3-0.3c0,0,0.1-0.1,0.1-0.1
				c0,0,0,0,0.1-0.1c0,0,0,0,0.1,0c0,0,0,0-0.1,0.1c0,0,0,0-0.1,0.1c0,0-0.1,0.1-0.1,0.1c-0.1,0.1-0.2,0.2-0.3,0.2
				c-0.1,0.1-0.2,0.2-0.3,0.3C4.2,13.3,4.1,13.4,4,13.5L4,13.5z M5.2,12.7c0,0-0.6,0.6-0.8,0.7L5.2,12.7z"/>
			<path class="st3" d="M5.2,12.7c-0.1,0.1-0.1,0.1-0.2,0.2L4.8,13c-0.1,0.1-0.1,0.1-0.2,0.2c-0.1,0.1-0.1,0.1-0.2,0.2l0.2-0.2
				c0.1-0.1,0.1-0.1,0.2-0.2L5,12.9C5,12.8,5.1,12.7,5.2,12.7z M5.2,13c-0.1,0.2-0.1,0.3-0.2,0.5c-0.2,0.3-0.4,0.7-0.5,0.9L5.2,13
				L5.2,13z"/>
			<path class="st3" d="M5.2,13c0,0.1,0,0.1,0,0.2c0,0.1,0,0.1-0.1,0.2c0,0.1-0.1,0.1-0.1,0.2s-0.1,0.1-0.1,0.2l-0.2,0.3
				c-0.1,0.1-0.1,0.2-0.2,0.3c0-0.1,0.1-0.2,0.2-0.4c0.1-0.1,0.1-0.2,0.2-0.3c0-0.1,0.1-0.1,0.1-0.2C5,13.5,5,13.4,5,13.4
				c0-0.1,0.1-0.1,0.1-0.2C5.1,13.1,5.2,13.1,5.2,13L5.2,13z"/>
			<path class="st93" d="M5.9,14.6c0,0-0.2,0.3-0.2,0.6C5.8,15,5.8,14.8,5.9,14.6z M6.1,14.9c0,0-0.1,0.7-0.1,1
				C6,15.5,6,15.5,6.1,14.9z M7.3,15.9c0,0-0.3,0.8-0.3,1.1C7.1,16.8,7.2,16.3,7.3,15.9L7.3,15.9z"/>
			<path class="st94" d="M8,14.6c0,0,0.5,0.8,0.8,1.4C8.7,15.6,8.5,15,8,14.6z"/>
			<path class="st95" d="M9.3,15.7c0.3,0.5,0.5,0.9,0.7,1.4C9.9,16.8,9.8,16.2,9.3,15.7z"/>
			<path class="st96" d="M13,16.8c0.1,0,0.2-0.3,0.4-0.4c0.1-0.1,0.2-0.1,0.4-0.2c0.1-0.1,0.2-0.2,0.4-0.3c0.4-0.2,0.1-0.4,0.1-0.4
				c0,0,0.1-0.1,0.1-0.1c0.1-0.1,0.2-0.2,0.2-0.3c0-0.3-0.1-0.6-0.3-0.9c0.2,0,0.6-0.1,0.8-0.1c0.3-0.1,0.4-0.2,0.4-0.2
				s-0.2-0.3,0.1-0.6c0.3-0.3,0.5-0.4,0.6-0.8c-0.2,0-0.5-0.1-1.2,0.1c0,0,0.1,0,0.1,0.1c0,0-0.4,0.1-0.6,0.3
				c-0.3,0.2-0.3,0.4-0.6,0.6s-0.6,0.1-0.9,0.2c-0.3,0.1-0.3,0.2-0.4,0.3c0,0,0,0.1,0,0.1c0,0-0.2,0.3-0.3,0.3
				c0,0.1,0.1,0.1,0.1,0.1s-0.1,0.1-0.3,0.1c0.1,0.1,0.2,0.2,0.5,0.4c0,0-0.1,0.1-0.1,0.2c0,0.1,0.2,0.2,0.6,0.3
				c-0.2,0-0.5,0.1-0.8,0c-0.4,0-0.4-0.1-0.6,0c0,0,0.1,0,0.1,0.1c-0.1,0-0.4,0-0.5,0.1c-0.1,0.2-0.2,0.4-0.2,0.6
				c-0.1,0-0.1,0.1-0.1,0.2c0,0.1,0.2,0.2,0.3,0.2c0.1,0.1,0.1,0.1,0.2,0.1c0.1,0,0.3-0.1,0.4-0.1s0.2,0.1,0.2,0.1s0.3-0.1,0.3-0.1
				c0,0,0,0.2,0,0.2C12.6,17,12.9,16.9,13,16.8L13,16.8z"/>
			<path class="st97" d="M18.6,9c-1.2-3.1-4.2-3.7-4.2-3.7H5.8l0,3.2h1.7v7.1H5.8v3.2h8.3c2,0,3.6-2,3.6-2C20.3,13.2,18.6,9,18.6,9
				L18.6,9z M14.2,14.7c0,0-0.7,0.9-1.4,0.9h-1.4l0-7.1h1.8c0,0,0.8,0.2,1.4,1.8C14.6,10.4,15.4,12.8,14.2,14.7z"/>
		</g>
	</g>
</g>
</svg>
