<?xml version="1.0" encoding="utf-8"?>
<!-- Generator: Adobe Illustrator 21.1.0, SVG Export Plug-In . SVG Version: 6.00 Build 0)  -->
<svg version="1.1" id="Layer_1" xmlns="http://www.w3.org/2000/svg" xmlns:xlink="http://www.w3.org/1999/xlink" x="0px" y="0px"
	 viewBox="0 0 21.599 24" style="enable-background:new 0 0 21.599 24;" xml:space="preserve">
<style type="text/css">
	.st0{fill:#F55749;}
</style>
<path class="st0" d="M10.575,0.058c0.139-0.078,0.308-0.078,0.446,0l9.87,5.541c0.137,0.076,0.223,0.22,0.223,0.377
	c0,0.156-0.084,0.3-0.222,0.377l-8.586,4.841c-0.303-0.344-0.715-0.573-1.168-0.648V7.914c0.93-0.155,1.639-0.942,1.639-1.894
	c0-1.062-0.883-1.924-1.974-1.924S8.83,4.959,8.83,6.021c0,0.946,0.702,1.73,1.625,1.891v2.637
	c-0.446,0.077-0.853,0.304-1.152,0.643l-8.584-4.82C0.51,6.259,0.434,5.998,0.547,5.789c0.039-0.072,0.098-0.131,0.17-0.171
	l9.859-5.557 M20.92,7.042c0.138-0.078,0.308-0.079,0.446-0.001c0.137,0.076,0.223,0.22,0.224,0.377l0.008,10.759
	c0,0.156-0.084,0.299-0.223,0.377l-9.558,5.388c-0.296,0.168-0.668-0.042-0.668-0.377l-0.008-9.231
	c0.463-0.077,0.883-0.313,1.184-0.666l2.388,1.338c-0.066,0.246-0.081,0.502-0.044,0.754c0.151,1.052,1.151,1.784,2.23,1.637
	c1.08-0.149,1.831-1.122,1.68-2.174s-1.152-1.784-2.231-1.636c-0.542,0.072-1.03,0.367-1.346,0.812l-2.34-1.312
	c0.168-0.445,0.156-0.936-0.03-1.374l8.289-4.673 M0.01,7.416c0-0.254,0.214-0.436,0.446-0.436c0.078,0,0.156,0.02,0.223,0.06
	l8.298,4.677c-0.184,0.437-0.193,0.924-0.028,1.368l-2.339,1.312c-0.317-0.446-0.804-0.74-1.346-0.812
	c-1.08-0.149-2.077,0.584-2.23,1.636c-0.152,1.051,0.6,2.024,1.68,2.173c1.08,0.149,2.076-0.584,2.23-1.636
	c0.037-0.252,0.022-0.509-0.044-0.755l2.387-1.338c0.299,0.35,0.714,0.586,1.172,0.665l-0.007,9.234c0,0.335-0.372,0.544-0.67,0.376
	l-9.559-5.388C0.086,18.476,0.001,18.332,0,18.175L0.01,7.416"/>
</svg>
