<?xml version="1.0" encoding="utf-8"?>
<!-- Generator: Adobe Illustrator 21.1.0, SVG Export Plug-In . SVG Version: 6.00 Build 0)  -->
<svg version="1.1" id="Layer_1" xmlns="http://www.w3.org/2000/svg" xmlns:xlink="http://www.w3.org/1999/xlink" x="0px" y="0px"
	 viewBox="0 0 21.3 24" style="enable-background:new 0 0 21.3 24;" xml:space="preserve">
<style type="text/css">
	.st0{fill:#005C14;}
	.st1{fill:#FFFFFF;}
</style>
<path class="st0" d="M11.6,0.3l8.8,5.1c0.6,0.3,0.9,0.9,0.9,1.6v10.1c0,0.7-0.3,1.3-0.9,1.6l-8.8,5.1c-0.6,0.3-1.3,0.3-1.9,0
	l-8.8-5.1C0.3,18.3,0,17.7,0,17.1V6.9c0-0.7,0.3-1.3,0.9-1.6l8.8-5.1C10.3-0.1,11-0.1,11.6,0.3z"/>
<g>
	<path class="st1" d="M18.2,14.7c0-2-1.1-3.3-3.3-3.8l-2-0.5c-1-0.3-1.6-0.6-1.6-1.5c0-0.9,0.7-1.5,1.8-1.5c1.2,0,2,0.7,2,1.7h2.7
		c0-2.1-1.5-3.5-3.7-3.8V3.7h-1.8v1.6C10,5.6,8.5,7,8.5,9.1c0,1.9,1.1,3.1,3.3,3.7l2.1,0.5c1,0.3,1.4,0.7,1.4,1.5
		c0,1-0.8,1.6-2.1,1.6c-1.5,0-2.4-0.7-2.4-2H8.2c0,2.3,1.5,4,4.1,4.2v1.7h1.8v-1.7C16.6,18.3,18.2,16.9,18.2,14.7z"/>
	<path class="st1" d="M7.4,8.6L5.7,3.7h-1L3,8.6h1l0.4-1.2H6l0.4,1.2C6.4,8.6,7.4,8.6,7.4,8.6z M5.2,4.8l0.6,1.9H4.6L5.2,4.8z"/>
</g>
</svg>
