<?xml version="1.0" encoding="utf-8"?>
<!-- Generator: Adobe Illustrator 21.1.0, SVG Export Plug-In . SVG Version: 6.00 Build 0)  -->
<svg version="1.1" id="Layer_1" xmlns="http://www.w3.org/2000/svg" xmlns:xlink="http://www.w3.org/1999/xlink" x="0px" y="0px"
	 viewBox="0 0 24 24" style="enable-background:new 0 0 24 24;" xml:space="preserve">
<style type="text/css">
	.st0{fill:#FFD800;}
	.st1{fill:#FFFFFF;}
</style>
<circle id="b_1_" class="st0" cx="12" cy="12" r="12"/>
<path class="st1" d="M12,4.8L12,4.8c3.976,0,7.2,3.224,7.2,7.2l0,0c0,3.976-3.224,7.2-7.2,7.2l0,0c-3.976,0-7.2-3.224-7.2-7.2l0,0
	C4.8,8.024,8.024,4.8,12,4.8z"/>
<path class="st0" d="M10.387,16.462c-0.645-0.006-1.163-0.545-1.157-1.205c0.005-0.597,0.442-1.098,1.021-1.173
	c0.265-0.032,0.533,0.03,0.757,0.176c0.067,0.043,0.145,0.066,0.224,0.066c0.252-0.002,0.454-0.207,0.453-0.459
	c0-0.008,0-0.015-0.001-0.023c-0.044-0.639,0.413-1.199,1.036-1.27c0.263-0.03,0.528,0.033,0.75,0.177
	c0.068,0.043,0.146,0.066,0.226,0.066c0.082,0,0.163-0.023,0.234-0.067l0.005-0.003c0.14-0.088,0.221-0.246,0.212-0.411
	c-0.044-0.645,0.422-1.209,1.051-1.272c0.038-0.004,0.076-0.006,0.113-0.006c0.645,0.006,1.163,0.546,1.157,1.205
	c-0.005,0.597-0.442,1.098-1.021,1.173c-0.265,0.032-0.533-0.03-0.758-0.176c-0.067-0.043-0.145-0.066-0.224-0.066
	c-0.252,0.002-0.454,0.208-0.452,0.46c0,0.007,0,0.015,0.001,0.022c0.005,0.063,0.005,0.126,0,0.188
	c-0.049,0.566-0.482,1.019-1.035,1.081c-0.263,0.03-0.529-0.032-0.751-0.176c-0.067-0.043-0.145-0.066-0.225-0.066
	c-0.083,0-0.163,0.023-0.234,0.067l-0.005,0.003c-0.14,0.088-0.222,0.246-0.212,0.412c0.004,0.063,0.004,0.127-0.002,0.191
	c-0.049,0.571-0.49,1.026-1.048,1.081C10.462,16.461,10.425,16.462,10.387,16.462L10.387,16.462z M10.387,13.444
	c-0.645-0.01-1.16-0.553-1.149-1.212c0.009-0.591,0.441-1.087,1.015-1.164c0.265-0.032,0.533,0.03,0.757,0.176
	c0.067,0.043,0.145,0.066,0.224,0.065c0.082,0,0.164-0.023,0.234-0.067c0.143-0.087,0.227-0.247,0.217-0.414
	c-0.045-0.645,0.421-1.209,1.051-1.272c0.038-0.004,0.076-0.005,0.113-0.005c0.645,0.006,1.163,0.545,1.157,1.205
	c-0.005,0.597-0.442,1.098-1.021,1.173c-0.265,0.032-0.533-0.03-0.758-0.176c-0.067-0.043-0.145-0.066-0.224-0.066
	c-0.252,0.002-0.454,0.207-0.452,0.459c0,0.008,0,0.015,0.001,0.023c0.004,0.064,0.004,0.127-0.002,0.191
	c-0.049,0.571-0.489,1.026-1.048,1.081c-0.038,0.004-0.077,0.006-0.114,0.006L10.387,13.444L10.387,13.444z M11.55,9.071
	c0.091,0,0.165,0.073,0.165,0.164c0,0.012-0.001,0.024-0.004,0.036c-0.018,0.087-0.103,0.143-0.191,0.125c-0.001,0-0.001,0-0.002,0
	l-0.231,0.569c0.064,0.047,0.078,0.137,0.031,0.2c-0.004,0.005-0.008,0.01-0.012,0.015c-0.052,0.054-0.139,0.055-0.192,0.003
	c-0.001-0.001-0.002-0.002-0.003-0.003c-0.003-0.003-0.004-0.007-0.007-0.01c-0.202,0.165-0.455,0.255-0.716,0.254
	c-0.645,0-1.168-0.534-1.168-1.193C9.219,8.975,9.301,8.724,9.455,8.518C9.449,8.514,9.444,8.51,9.438,8.506
	c-0.063-0.065-0.063-0.168,0-0.233C9.5,8.211,9.6,8.209,9.663,8.271c0.01,0.01,0.019,0.021,0.026,0.033l0.523-0.231
	c-0.005-0.022-0.006-0.045-0.002-0.067c0.015-0.088,0.098-0.147,0.185-0.133c0.001,0,0.001,0,0.002,0
	c0.088,0.018,0.146,0.103,0.129,0.192l0.542,0.208c0.043-0.077,0.14-0.104,0.217-0.061c0.025,0.014,0.045,0.034,0.059,0.058
	c0.047,0.077,0.024,0.178-0.052,0.227l0.226,0.578C11.53,9.073,11.54,9.072,11.55,9.071L11.55,9.071z M11.093,8.475
	c-0.014-0.014-0.025-0.031-0.033-0.049l-0.217,0.052c0.002,0.037-0.009,0.073-0.03,0.103l0.199,0.212
	c0.026-0.017,0.057-0.027,0.088-0.027l0.047-0.255C11.127,8.504,11.108,8.491,11.093,8.475z M11.401,9.302l0-0.001
	c-0.016-0.041-0.016-0.086,0-0.127l-0.185-0.126c-0.056,0.059-0.149,0.066-0.213,0.016l-0.096,0.089
	c0.032,0.052,0.032,0.118,0,0.171l0.097,0.09c0.064-0.051,0.156-0.045,0.213,0.014C11.217,9.426,11.401,9.302,11.401,9.302z
	 M10.952,8.995l-0.001-0.001c-0.02-0.052-0.013-0.111,0.019-0.157l-0.2-0.212c-0.051,0.034-0.117,0.036-0.17,0.004l-0.094,0.109
	c0.044,0.056,0.046,0.134,0.007,0.194l0.166,0.169c0.057-0.04,0.133-0.038,0.188,0.005l0.096-0.089
	C10.959,9.011,10.955,9.003,10.952,8.995L10.952,8.995z M10.507,8.124l-0.001-0.002c-0.006,0.011-0.013,0.02-0.021,0.029
	l0.129,0.186l0.006-0.003c0.081-0.034,0.175,0.004,0.21,0.085c0,0,0,0,0,0l0.217-0.052c0-0.012,0-0.024,0.002-0.035L10.507,8.124
	L10.507,8.124z M10.37,8.203l-0.001-0.001c-0.017-0.001-0.034-0.004-0.051-0.011l-0.124,0.19c0.06,0.058,0.068,0.152,0.018,0.219
	l0.085,0.096c0.051-0.032,0.114-0.032,0.165,0l0.094-0.109c-0.049-0.064-0.045-0.155,0.01-0.214l-0.129-0.185
	C10.416,8.197,10.393,8.203,10.37,8.203z M10.236,8.131L9.711,8.363c0.002,0.01,0.003,0.02,0.002,0.031L9.935,8.44
	c0.032-0.082,0.125-0.123,0.207-0.09c0.001,0,0.002,0.001,0.002,0.001l0.122-0.187C10.255,8.154,10.245,8.143,10.236,8.131z
	 M9.667,8.509L9.666,8.508C9.651,8.523,9.634,8.535,9.614,8.542l0.044,0.223c0.033-0.001,0.066,0.009,0.093,0.028L9.95,8.591
	C9.932,8.563,9.922,8.53,9.923,8.497L9.703,8.454C9.695,8.475,9.682,8.493,9.667,8.509z M11.231,9.944l0.232-0.565
	c-0.01-0.007-0.019-0.014-0.027-0.023L11.252,9.48v0.002c0.034,0.083-0.005,0.178-0.087,0.214h-0.004l0.049,0.245
	C11.217,9.942,11.224,9.943,11.231,9.944z M11.435,9.123l-0.001-0.001c0.008-0.009,0.018-0.016,0.028-0.023l-0.225-0.577
	c-0.01,0.002-0.02,0.003-0.03,0.003L11.16,8.779l0.004,0.002c0.082,0.037,0.121,0.132,0.086,0.216
	C11.249,8.997,11.435,9.123,11.435,9.123z"/>
</svg>
