<?xml version="1.0" encoding="utf-8"?>
<!-- Generator: Adobe Illustrator 21.1.0, SVG Export Plug-In . SVG Version: 6.00 Build 0)  -->
<svg version="1.1" id="Layer_1" xmlns="http://www.w3.org/2000/svg" xmlns:xlink="http://www.w3.org/1999/xlink" x="0px" y="0px"
	 viewBox="0 0 21.4 24.1" style="enable-background:new 0 0 21.4 24.1;" xml:space="preserve">
<style type="text/css">
	.st0{fill:#8700D0;}
	.st1{fill:#FFFFFF;}
</style>
<path class="st0" d="M11.6,0.3l8.8,5.1C21,5.7,21.3,6.3,21.3,7v10.1c0,0.7-0.3,1.3-0.9,1.6l-8.8,5.1c-0.6,0.3-1.3,0.3-1.9,0L1,18.7
	c-0.6-0.3-0.9-0.9-0.9-1.6V7c0-0.7,0.3-1.3,0.9-1.6l8.8-5.1C10.4,0,11,0,11.6,0.3z"/>
<path class="st1" d="M5.9,15.5V3.6h5.8c1.6,0,2.8,0.4,3.8,1.3c0.9,0.9,1.4,2,1.4,3.5c0,1.4-0.5,2.6-1.5,3.4c-1,0.8-2.2,1.3-3.8,1.3
	l-3.1,0v2.5h6.2v1.9H8.5v3.2H5.9v-3.2H4.6v-1.9L5.9,15.5L5.9,15.5z M8.5,5.9v4.9h2.8c1.7,0,2.8-1,2.8-2.4c0-1.5-1.2-2.4-2.8-2.4
	C11.3,5.9,8.5,5.9,8.5,5.9z"/>
</svg>
