<svg width="40" height="40" viewBox="0 0 40 40" fill="none" xmlns="http://www.w3.org/2000/svg">
<path d="M34.88 0.320002C36.92 3.6 38.3 7 39.02 10.52C39.7 14.04 39.74 17.5 39.14 20.9C38.54 24.34 37.3 27.64 35.42 30.8C33.5 33.96 30.94 36.8 27.74 39.32L22.58 36.2C22.1 35.92 21.78 35.6 21.62 35.24C21.42 34.88 21.34 34.5 21.38 34.1C21.38 33.74 21.46 33.38 21.62 33.02C21.78 32.66 21.98 32.36 22.22 32.12C22.98 31.24 23.76 30 24.56 28.4C25.32 26.84 25.88 25.04 26.24 23C26.56 21 26.54 18.82 26.18 16.46C25.82 14.1 24.88 11.72 23.36 9.32C22.56 8.08 22.34 6.98 22.7 6.02C23.06 5.1 23.8 4.46 24.92 4.1L34.88 0.320002ZM14.24 0.32C16.28 3.6 17.66 7 18.38 10.52C19.06 14.04 19.1 17.5 18.5 20.9C17.9 24.34 16.66 27.64 14.78 30.8C12.86 33.96 10.3 36.8 7.1 39.32L1.94 36.2C1.46 35.92 1.14 35.6 0.980002 35.24C0.78 34.88 0.7 34.5 0.740002 34.1C0.740002 33.74 0.820002 33.38 0.980002 33.02C1.14 32.66 1.34 32.36 1.58 32.12C2.34 31.24 3.12 30 3.92 28.4C4.68 26.84 5.24 25.04 5.6 23C5.92 21 5.9 18.82 5.54 16.46C5.18 14.1 4.24 11.72 2.72 9.32C1.92 8.08 1.7 6.98 2.06 6.02C2.42 5.1 3.16 4.46 4.28 4.1L14.24 0.32Z" fill="#E50006"/>
</svg>
