<?xml version="1.0" encoding="utf-8"?>
<!-- Generator: Adobe Illustrator 21.1.0, SVG Export Plug-In . SVG Version: 6.00 Build 0)  -->
<svg version="1.1" id="Layer_1" xmlns="http://www.w3.org/2000/svg" xmlns:xlink="http://www.w3.org/1999/xlink" x="0px" y="0px"
	 viewBox="0 0 24 14.174" style="enable-background:new 0 0 24 14.174;" xml:space="preserve">
<style type="text/css">
	.st0{fill:#B30D23;}
</style>
<g>
	<path class="st0" d="M13.018,12.276L12,14.174l-1.018-1.897C4.829,11.799,0,7.211,0,7.211C0,7.2,4.692,2.755,10.719,2.169
		l0.798-1.366L12,0l0.82,1.366l0.461,0.803C19.306,2.744,24,7.211,24,7.211s-4.83,4.588-10.983,5.065L13.018,12.276z M1.018,7.211
		c-0.011,0,4.64,3.178,9.312,3.85L8.053,6.799l0.619-1.073L9.24,6.788L9.229,6.799l2.215,4.36c0.178,0.011,0.356,0.011,0.535,0.011
		c0.178,0,0.346,0,0.525-0.011l1.627-3.243l1.187-2.212l0.619,1.073l-2.277,4.273c4.672-0.661,9.322-3.763,9.322-3.85
		c0-0.076-4.429-3.036-8.986-3.795l0.693,1.204L14.11,5.769l-1.502-2.516C12.406,3.241,12.203,3.233,12,3.231
		c-0.2,0-0.41,0.011-0.62,0.022L9.847,5.769L9.281,4.663l0.723-1.247C5.449,4.187,1.018,7.211,1.018,7.211z"/>
</g>
</svg>
