<?xml version="1.0" encoding="utf-8"?>
<!-- Generator: Adobe Illustrator 22.1.0, SVG Export Plug-In . SVG Version: 6.00 Build 0)  -->
<svg version="1.1" id="Слой_1" xmlns="http://www.w3.org/2000/svg" xmlns:xlink="http://www.w3.org/1999/xlink" x="0px" y="0px"
	 viewBox="0 0 72 24" style="enable-background:new 0 0 72 24;" xml:space="preserve">
<style type="text/css">
	.st0{clip-path:url(#SVGID_2_);}
	.st1{fill:#00CDCD;}
	.st2{fill:#FFFFFF;}
</style>
<g>
	<defs>
		<rect id="SVGID_1_" y="0" width="72" height="24"/>
	</defs>
	<clipPath id="SVGID_2_">
		<use xlink:href="#SVGID_1_"  style="overflow:visible;"/>
	</clipPath>
	<g class="st0">
		<polygon class="st1" points="4,0 0,0 0,4.1 4,4.1 4,7.9 4,8.1 4,12 4,15.9 4,16.1 4,19.2 4,19.9 4,24 8.1,24 8.1,19.9 8.1,19.2 
			8.1,16.1 8.1,15.9 8.1,12 8.1,8.1 8.1,7.9 8.1,4.1 4,4.1 		"/>
		<path class="st1" d="M24.5,7.9h-3.8h-0.2h-3.8V4.1h3.8h0.2h3.8V0h-3.8h-0.2h-3.8h-4v4.1v0v3.9v0.2V12v3.9v0.2v3.9v0.8V24h4h3.8
			h0.2h3.8h4v-3.1v-1v-3.9v-0.2V12V7.9H24.5z M20.6,19.9h-0.2h-3.8v-3.9v-0.2V12h3.8h0.2h3.8v3.9v0.2v3.9H20.6z"/>
	</g>
	<g class="st0">
		<polygon class="st2" points="68.2,4.1 68.2,0 64.1,0 64.1,4.1 64.1,4.1 64.1,7.9 64.1,8.1 64.1,12 64.1,15.9 64.1,16.1 64.1,19.9 
			64.1,20.9 64.1,24 68.2,24 68.2,20.9 68.2,19.9 68.2,16.1 68.2,15.9 68.2,12 68.2,8.1 72,8.1 72,4.1 		"/>
		<rect x="56.2" class="st2" width="4" height="4.1"/>
		<polygon class="st2" points="56.2,12 56.2,15.9 56.2,16.1 56.2,18.9 56.2,19.9 56.2,24 60.3,24 60.3,19.9 60.3,18.9 60.3,16.1 
			60.3,15.9 60.3,12 60.3,7.9 56.2,7.9 		"/>
		<path class="st2" d="M48.1,7.9h-3.8h-3h-0.8V4.1h-4V0h-4v4.1h4v3.9v0.2V12v3.9v0.2v3.9v2V24h3.8h0.2h1.8h2h3.8h0.2h3.8v-2.1v-2
			v-3.9v-0.2V12V7.9h-3.8H48.1z M48.1,15.9v0.2v3.9h-3.8h-2h-1.8v-3.9v-0.2V12h0.8h3h3.8V15.9z"/>
	</g>
</g>
</svg>
