<svg xmlns="http://www.w3.org/2000/svg" viewBox="0 0 330.72 365"><defs><style>.cls-1{fill:#6ce077;}.cls-2{fill:#1fc25a;}.cls-3{fill:#6f5037;}.cls-4{fill:#667329;}.cls-5{fill:#484f18;}.cls-6{fill:none;stroke:#fff;stroke-miterlimit:10;}.cls-7{fill:#fff;}.cls-8{fill:#ff8000;}.cls-9{fill:#ffab00;}</style></defs><g id="Слой_2" data-name="Слой 2"><g id="Layer_2" data-name="Layer 2"><path class="cls-1" d="M65.25,203.06a41.49,41.49,0,0,1,16.91-71.22A23.67,23.67,0,0,1,95.79,94.55a41.49,41.49,0,0,1,69.13-45.06,41.51,41.51,0,0,1,50.42,8.69,23.55,23.55,0,0,1,21.93-3.44,41.48,41.48,0,0,1,66.14,7.43,41.25,41.25,0,0,1,13.25-6A41.49,41.49,0,0,0,252.18,28,41.47,41.47,0,0,0,186,20.58,23.5,23.5,0,0,0,164.11,24a41.48,41.48,0,0,0-50.42-8.68A41.49,41.49,0,0,0,44.56,60.39,23.67,23.67,0,0,0,30.93,97.68,41.48,41.48,0,0,0,14,168.89a41.47,41.47,0,0,0,40.62,68.4,41.34,41.34,0,0,1,10.61-34.23Z"/><path class="cls-2" d="M96.32,251.91a41.51,41.51,0,0,0,39.25-28,41.33,41.33,0,0,0,27.37,11.71l0,.59.55-.58c.32,0,.64,0,1,0a41.27,41.27,0,0,0,23.72-7.46,41.48,41.48,0,0,0,75.56-23.66,40.68,40.68,0,0,0-.26-4.58c1.07.08,2.14.13,3.22.13a41.45,41.45,0,0,0,40-52.5A41.46,41.46,0,0,0,308.15,88a41.32,41.32,0,0,0,9-25.73,41.76,41.76,0,0,0-.44-6.06,41.25,41.25,0,0,0-13.25,6,41.48,41.48,0,0,0-66.14-7.43,23.55,23.55,0,0,0-21.93,3.44,41.51,41.51,0,0,0-50.42-8.69A41.49,41.49,0,0,0,95.79,94.55a23.67,23.67,0,0,0-13.63,37.29,41.49,41.49,0,0,0-16.91,71.22,41.34,41.34,0,0,0-10.61,34.23,41.68,41.68,0,0,0,7.87-2.84A41.41,41.41,0,0,0,96.32,251.91Z"/><polygon class="cls-3" points="161.44 88.94 157.97 350.49 189.2 353.95 167.5 91.5 161.44 88.94"/><polygon class="cls-3" points="172.65 281.39 260.11 160.87 264.07 161.32 176.24 298.42 172.65 281.39"/><polygon class="cls-3" points="165.26 164.57 132.15 110.09 130.05 114.13 161.63 179.44 165.26 164.57"/><polygon class="cls-3" points="166.41 216.62 124.41 164.57 122.67 172.65 162.69 232.56 166.41 216.62"/><polygon class="cls-3" points="169.08 184.16 203.01 136.45 204.04 142.61 173.07 204.44 169.08 184.16"/><path class="cls-3" d="M193.19,113c10.88-7.73,23.66-18.94,30.86-30,6.47-9.92,9.9-20.44,14.21-30.64,0,13.28-7.63,31.19-16,41.43-4.33,5.27-10.05,9.71-14.61,15.07-2.23,2.63-19.74,13.75-14.25,4.11"/><path class="cls-4" d="M245.81,36.62S229.37,45.76,237.43,58l0-.08C251.53,54.11,245.81,36.62,245.81,36.62Z"/><path class="cls-5" d="M250.57,65s-18.6-2.8-19.65,11.79l.08-.05C244.44,82.31,250.57,65,250.57,65Z"/><path class="cls-5" d="M236.8,105.84s-9.39-16.29-21.46-8l.08,0C219.41,111.84,236.8,105.84,236.8,105.84Z"/><path class="cls-5" d="M225.92,58s-11.73,14.7.36,22.92v-.09C237.86,72,225.92,58,225.92,58Z"/><path class="cls-4" d="M240.43,95.1s-13.27-13.33-22.8-2.24h.08C225.17,105.38,240.43,95.1,240.43,95.1Z"/><path class="cls-4" d="M218.33,63.42S211.11,80.78,225,85.34l0-.08C233.67,73.57,218.33,63.42,218.33,63.42Z"/><path class="cls-4" d="M121.8,92.42s-4.35,19.85,11.3,22l0-.09C140.07,100.28,121.8,92.42,121.8,92.42Z"/><path class="cls-4" d="M163.43,72.22S151.36,88.56,164.74,97v-.09C176.9,86.85,163.43,72.22,163.43,72.22Z"/><path class="cls-4" d="M177.66,102.48s-18.15,9.14-10,22.67l0-.09C183.09,121.61,177.66,102.48,177.66,102.48Z"/><path class="cls-5" d="M147.42,91.86s-.81,20.3,15,19.72l-.05-.08C166.79,96.4,147.42,91.86,147.42,91.86Z"/><path class="cls-4" d="M223.36,131.67s-19.36-6.19-23,9.18l.08,0C213.82,149.12,223.36,131.67,223.36,131.67Z"/><path class="cls-4" d="M272.39,143.26s-19.08,7-12.51,21.38l.05-.08C275.59,162.89,272.39,143.26,272.39,143.26Z"/><path class="cls-5" d="M215.83,204.06s-7.86,12.72,2.46,18.06v-.07C226.59,214,215.83,204.06,215.83,204.06Z"/><path class="cls-5" d="M237.46,228.83S223,219.15,216.31,231h.08C225.47,241,237.46,228.83,237.46,228.83Z"/><path class="cls-5" d="M191.11,132.75s-8.86,12.76,1.56,18.87v-.07C201.74,143.62,191.11,132.75,191.11,132.75Z"/><path class="cls-4" d="M111.4,154s0,20.31,15.77,19.09l-.06-.07C130.93,157.73,111.4,154,111.4,154Z"/><path class="cls-4" d="M110.85,182.69s13.16,11.17,21,.3h-.08C124,172.1,110.85,182.69,110.85,182.69Z"/><path class="cls-4" d="M143.91,163s-15.6,13-4.58,24.33l0-.09C153.53,180.42,143.91,163,143.91,163Z"/><path class="cls-5" d="M217,163.4s-13.61-15.09-24.5-3.64l.09,0C199.93,173.69,217,163.4,217,163.4Z"/><path class="cls-5" d="M141.7,101.84s-13.56,15.13-1,24.75v-.1C153.74,117.67,141.7,101.84,141.7,101.84Z"/><path class="cls-4" d="M154.14,122.53S141.82,134,151.4,142.82v-.07C162.83,136.49,154.14,122.53,154.14,122.53Z"/><path class="cls-4" d="M124,131.91s9,13.44,18.84,5.7l-.07,0C138.56,125.8,124,131.91,124,131.91Z"/><path class="cls-5" d="M128,150.05s11.26,16.91,23.7,7.17l-.08,0C146.34,142.36,128,150.05,128,150.05Z"/><polygon class="cls-3" points="240.79 192.5 252.3 129.8 248.04 131.41 226.03 208.76 240.79 192.5"/><path class="cls-4" d="M254.15,115.94s-16.45,11.93-6.22,24l0-.09C262.57,134,254.15,115.94,254.15,115.94Z"/><path class="cls-5" d="M262,140.55s-18,2-15.36,15.88l.06-.06C260.59,158.23,262,140.55,262,140.55Z"/><path class="cls-5" d="M238,129.12s-8.29,16.12,4.7,21.59l0-.08C251.93,140.08,238,129.12,238,129.12Z"/><path class="cls-5" d="M82,91.94S63.88,93,65.8,107l.06,0C79.67,109.53,82,91.94,82,91.94Z"/><path class="cls-4" d="M231.69,140.66s-2.25,16,10.28,16.79l0-.06C246.64,145.79,231.69,140.66,231.69,140.66Z"/><path class="cls-5" d="M222.62,156.88S219.78,177,235.55,178l0-.08C241.43,163.33,222.62,156.88,222.62,156.88Z"/><path class="cls-3" d="M81.59,116.05C61.41,105.46,59,92.71,48.63,79c-4.31-5.67-8.4-10.91-11.27-17.58-2.54-5.85-5.84-11-7.37-17.75C26.68,47.55,32.45,64.16,34.65,69c3.73,8.19,10.12,14.7,14.41,22.58a104.39,104.39,0,0,0,17,22.79c2,2.14,8.91,11.18,12.19,11.43,3.93.29,8.41-6.49,3.79-9.63"/><path class="cls-4" d="M32.7,101.31s16.1,9.92,22.82-3.14h-.09C45.21,87.69,32.7,101.31,32.7,101.31Z"/><path class="cls-4" d="M13,59.45s10,16.08,21.82,7.41l-.08,0C30.26,52.87,13,59.45,13,59.45Z"/><path class="cls-4" d="M23.21,77S33.17,93,45,84.36l-.08,0C40.51,70.38,23.21,77,23.21,77Z"/><path class="cls-5" d="M49.13,50.94S31.8,58.5,38.7,71.49l0-.08C53.18,69,49.13,50.94,49.13,50.94Z"/><path class="cls-4" d="M60.53,64.93S43.2,72.5,50.1,85.48l0-.07C64.59,83,60.53,64.93,60.53,64.93Z"/><path class="cls-4" d="M71.42,84.62S54.09,92.19,61,105.17l0-.08C75.48,102.67,71.42,84.62,71.42,84.62Z"/><path class="cls-3" d="M134.66,354h71.66c-15.7-36.47-25-69.34-33.71-164.24.32,9.11-14,37.45-14,37.45C155.21,293.7,151.7,320.46,134.66,354Z"/><polygon class="cls-3" points="236.66 202.41 258.7 189.11 258.7 187.2 241.5 192.54 236.66 202.41"/><line class="cls-6" x1="170.49" y1="365" x2="170.49" y2="342.97"/><path class="cls-7" d="M173.35,343.11a2.86,2.86,0,1,0-2.86,2.86A2.86,2.86,0,0,0,173.35,343.11Z"/><line class="cls-6" x1="330.72" y1="177.69" x2="180.4" y2="177.69"/><circle class="cls-7" cx="180.54" cy="177.69" r="2.86"/><line class="cls-6" x1="263.72" y1="177.69" x2="231.05" y2="206.95"/><path class="cls-7" d="M229.25,204.73a2.85,2.85,0,1,0,4,.22A2.84,2.84,0,0,0,229.25,204.73Z"/><polyline class="cls-6" points="330.72 113.83 275.91 113.83 230.29 103.1"/><path class="cls-7" d="M231.08,100.35a2.86,2.86,0,1,0,2.13,3.43A2.86,2.86,0,0,0,231.08,100.35Z"/><line class="cls-6" x1="275.91" y1="113.82" x2="232" y2="93.02"/><path class="cls-7" d="M233.35,90.5a2.86,2.86,0,1,0,1.36,3.8A2.86,2.86,0,0,0,233.35,90.5Z"/><line class="cls-6" x1="275.91" y1="113.82" x2="210.93" y2="135.44"/><path class="cls-7" d="M210.16,132.69a2.86,2.86,0,1,0,3.61,1.8A2.85,2.85,0,0,0,210.16,132.69Z"/><line class="cls-6" x1="275.91" y1="113.82" x2="267.77" y2="150.12"/><path class="cls-7" d="M265,149.36a2.85,2.85,0,1,0,3.41-2.17A2.85,2.85,0,0,0,265,149.36Z"/><line class="cls-6" x1="275.91" y1="113.82" x2="237.38" y2="148.41"/><path class="cls-7" d="M235.58,146.19a2.86,2.86,0,1,0,4,.21A2.86,2.86,0,0,0,235.58,146.19Z"/><rect class="cls-3" x="55.61" y="101.58" width="1.09" height="9.07"/><ellipse class="cls-8" cx="52.45" cy="123.51" rx="10.86" ry="13.48"/><ellipse class="cls-9" cx="59.23" cy="123.51" rx="10.22" ry="13.48"/><rect class="cls-3" x="144.6" y="50.86" width="0.67" height="5.61"/><ellipse class="cls-8" cx="142.63" cy="64.44" rx="6.72" ry="8.35"/><ellipse class="cls-9" cx="146.84" cy="64.44" rx="6.33" ry="8.35"/><path class="cls-5" d="M271.83,183.81s-13-4.22-15.52,6.13l.06,0C265.37,195.54,271.83,183.81,271.83,183.81Z"/><rect class="cls-3" x="276.19" y="31.13" width="1.44" height="4.67"/><ellipse class="cls-8" cx="271.99" cy="52.86" rx="14.4" ry="17.88"/><ellipse class="cls-9" cx="280.99" cy="52.86" rx="13.56" ry="17.88"/><line class="cls-6" x1="330.72" y1="50.94" x2="283.47" y2="50.94"/><path class="cls-7" d="M283.61,48.08a2.86,2.86,0,1,0,2.86,2.86A2.86,2.86,0,0,0,283.61,48.08Z"/></g></g></svg>