<svg xmlns="http://www.w3.org/2000/svg" xmlns:xlink="http://www.w3.org/1999/xlink" viewBox="0 0 202.56 204.36"><defs><style>.cls-1{fill:none;}.cls-2{isolation:isolate;}.cls-3{fill:#ffab00;}.cls-4{fill:#ff8000;}.cls-5{fill:#ccc;mix-blend-mode:multiply;}.cls-6{fill:#1d1d1b;}.cls-7{fill:#fff;}.cls-8{fill:#00cdcd;}.cls-9{fill:#840013;}.cls-10{fill:#fc2727;}.cls-11{clip-path:url(#clip-path);}.cls-12,.cls-13{fill:#fff4a4;stroke:#1d1d1b;stroke-miterlimit:10;}.cls-13{stroke-width:2px;}</style><clipPath id="clip-path"><rect class="cls-1" x="56.36" y="59.61" width="51.39" height="17.13" transform="translate(-22.93 49.22) rotate(-29.49)"/></clipPath></defs><g class="cls-2"><g id="Слой_2" data-name="Слой 2"><g id="Layer_2" data-name="Layer 2"><path class="cls-3" d="M.79,123.55l49,8.4-17.18,46.6,44.53-22,13.49,47.8,23.1-44,39,30.79L145.5,142l49.66,2L160.45,108.4l41.32-27.59-49-8.4L170,25.82l-44.53,22L112,0,88.87,44l-39-30.78,7.19,49.17-49.66-2L42.11,96Zm75.59-65.4a50.58,50.58,0,1,1-19.13,68.93A50.59,50.59,0,0,1,76.38,58.15Z"/><path class="cls-4" d="M12.55,152.36l48.83-6.65L59,194.94l35.6-34.1,27,41.25,8.74-48.53,46.1,17.52L155,126.69l47.58-12.93L159.15,90.43,190,52l-48.83,6.64,2.38-49.22L108,43.53,81,2.27,72.22,50.8,26.13,33.28,47.57,77.67,0,90.6l43.41,23.34ZM76.38,58.15a50.58,50.58,0,1,1-19.13,68.93A50.59,50.59,0,0,1,76.38,58.15Z"/><circle class="cls-4" cx="101.28" cy="102.18" r="44.02" transform="translate(-37.18 63.09) rotate(-29.49)"/><path class="cls-5" d="M91.44,145.09A44,44,0,0,1,128,67.19a44,44,0,1,0-36.56,77.9Z"/><path class="cls-3" d="M139.6,80.51A44.39,44.39,0,0,0,132.37,71a44,44,0,0,0-36.62,74.84A44,44,0,0,0,139.6,80.51Z"/><rect class="cls-6" x="60.97" y="93.81" width="74.23" height="5.44" transform="translate(-34.81 60.78) rotate(-29.49)"/><rect class="cls-6" x="68.07" y="107.86" width="31.64" height="2.6" transform="translate(-42.87 55.43) rotate(-29.49)"/><rect class="cls-6" x="71.81" y="109.47" width="29" height="2.6" transform="translate(-43.35 56.83) rotate(-29.49)"/><rect class="cls-6" x="75.74" y="111.72" width="23.74" height="2.6" transform="translate(-44.28 57.76) rotate(-29.49)"/><rect class="cls-6" x="79.62" y="113.98" width="18.58" height="2.6" transform="translate(-45.23 58.7) rotate(-29.49)"/><rect class="cls-6" x="83.47" y="116.28" width="13.31" height="2.6" transform="translate(-46.2 59.59) rotate(-29.49)"/><rect class="cls-6" x="100.31" y="89.62" width="31.64" height="2.6" transform="translate(261.98 112.91) rotate(150.51)"/><rect class="cls-6" x="101.76" y="92.53" width="29" height="2.6" transform="translate(263.65 118.29) rotate(150.51)"/><rect class="cls-6" x="105.65" y="94.81" width="23.74" height="2.6" transform="translate(267.12 121.92) rotate(150.51)"/><rect class="cls-6" x="109.49" y="97.08" width="18.58" height="2.6" transform="translate(270.61 125.56) rotate(150.51)"/><rect class="cls-6" x="113.47" y="99.31" width="13.31" height="2.6" transform="translate(274.22 129.07) rotate(150.51)"/><rect class="cls-7" x="78.11" y="113.43" width="2.56" height="2.56" transform="translate(-46.18 53.94) rotate(-29.49)"/><rect class="cls-7" x="81.61" y="114.43" width="2.56" height="2.56" transform="translate(-46.22 55.79) rotate(-29.49)"/><rect class="cls-7" x="82.58" y="110.94" width="2.56" height="2.56" transform="translate(-44.38 55.82) rotate(-29.49)"/><rect class="cls-7" x="85.1" y="115.4" width="2.56" height="2.56" transform="translate(-46.24 57.63) rotate(-29.49)"/><rect class="cls-7" x="86.07" y="111.91" width="2.56" height="2.56" transform="translate(-44.4 57.66) rotate(-29.49)"/><rect class="cls-7" x="108.34" y="96.34" width="2.56" height="2.56" transform="translate(-33.85 66.6) rotate(-29.49)"/><rect class="cls-7" x="111.85" y="97.34" width="2.56" height="2.56" transform="translate(-33.89 68.46) rotate(-29.49)"/><rect class="cls-7" x="112.82" y="93.85" width="2.56" height="2.56" transform="translate(-32.04 68.48) rotate(-29.49)"/><rect class="cls-7" x="115.34" y="98.3" width="2.56" height="2.56" transform="translate(-33.91 70.3) rotate(-29.49)"/><rect class="cls-7" x="116.31" y="94.82" width="2.56" height="2.56" transform="translate(-32.07 70.33) rotate(-29.49)"/><path class="cls-8" d="M73.11,107.52l45.75-25.87c9.49-5.36,15-13.49,12.4-18.15L113.74,53.06S116,49,82.05,68.18C48.82,87,52.57,87.65,52.57,87.65l.53,21C55.5,112.93,64.46,112.41,73.11,107.52Z"/><path class="cls-6" d="M79.6,38.89,58.22,51C45,58.46,39.58,73.92,47.06,87.15L52.64,97s6.86,1.15,36.8-15.78c29.3-16.57,32.49-23.4,32.49-23.4L116.34,48C108.86,34.74,92.83,31.41,79.6,38.89Z"/><path class="cls-9" d="M67.14,41.8H69.3a2.28,2.28,0,0,1,2.28,2.28v1.79a0,0,0,0,1,0,0H65a0,0,0,0,1,0,0V44A2.15,2.15,0,0,1,67.14,41.8Z" transform="translate(-12.73 39.29) rotate(-29.49)"/><path class="cls-7" d="M94.54,127.77s17.36.37,31.6-17.87C136.37,128,104.78,145.87,94.54,127.77Z"/><circle class="cls-10" cx="129.16" cy="104.93" r="3.54"/><circle class="cls-10" cx="88.96" cy="126.95" r="3.54"/><g class="cls-11"><polygon class="cls-8" points="57.95 71.96 55.47 73.37 56.91 75.92 59.39 74.51 60.73 76.87 60.8 77 62.17 79.42 63.54 81.84 63.61 81.97 64.7 83.89 64.94 84.33 66.39 86.87 68.93 85.43 67.49 82.89 67.25 82.45 66.16 80.53 66.09 80.4 64.72 77.98 63.35 75.56 63.28 75.43 61.94 73.07 59.39 74.51 57.95 71.96"/><path class="cls-8" d="M73.46,69.67,71.1,71l-.12.07-2.36,1.34-1.34-2.36,2.36-1.34.13-.07,2.36-1.33-1.44-2.55L68.33,66.1l-.13.07L65.84,67.5l-2.48,1.41,1.44,2.54h0l1.37,2.43.07.12,1.33,2.36,1.37,2.42.07.13,1.37,2.42.29.5,1.12,2,2.48-1.41,2.37-1.33.12-.07,2.36-1.34,2.49-1.4-1.09-1.93-.35-.62L78.8,73.3l-.07-.13-1.34-2.36L76,68.26Zm1.8,8.82-.13.07L72.77,79.9,71.4,77.48l-.07-.13L70,75l2.36-1.33.12-.07,2.36-1.34,1.37,2.42.07.13,1.37,2.42-2.36,1.34Z"/></g><g class="cls-11"><polygon class="cls-7" points="99.28 51.96 97.84 49.41 95.29 50.85 96.73 53.4 96.73 53.4 98.07 55.76 98.14 55.88 99.51 58.3 100.88 60.73 100.95 60.85 102.28 63.21 102.63 63.83 103.72 65.76 106.27 64.32 105.18 62.39 104.83 61.77 103.49 59.41 103.42 59.29 102.05 56.87 100.68 54.44 103.05 53.11 101.64 50.62 99.28 51.96"/><rect class="cls-7" x="90.92" y="52.73" width="2.85" height="2.93" transform="translate(-14.71 52.48) rotate(-29.49)"/><polygon class="cls-7" points="94.6 61.08 95.97 63.5 96.04 63.63 97.02 65.37 97.37 65.99 98.81 68.53 101.36 67.09 99.92 64.55 99.57 63.93 98.59 62.19 98.52 62.06 97.15 59.64 95.71 57.09 93.16 58.53 94.6 61.08"/><path class="cls-7" d="M88.13,61.38l-2.36,1.33L83.9,63.77l-.5.28-1.33-2.36-2.49,1.4-1.44-2.54L75.66,62,77.1,64.5l2.48-1.41L81,65.52l.08.12L82.36,68l1.37,2.42.07.13L85.17,73l.7,1.24.71,1.25,2.36-1.34.12-.07,1.12-.63,1.24-.7,2.36-1.34.13-.07L96.27,70l-.74-1.31-.7-1.24L93.46,65l-.07-.13-1.34-2.36L90.61,60l-2.36,1.34Zm2.81,5,.07.12,1.37,2.43L90,70.23l-1.25.7-1.11.64-1.37-2.43L86.22,69,84.85,66.6l.49-.29,1.87-1,2.36-1.33Z"/></g><ellipse class="cls-12" cx="100.48" cy="83.59" rx="7.43" ry="4.4" transform="translate(-28.33 61.44) rotate(-30)"/><line class="cls-13" x1="93.93" y1="87.07" x2="106.66" y2="79.45"/></g></g></g></svg>