<?xml version="1.0" encoding="utf-8"?>
<!-- Generator: Adobe Illustrator 21.1.0, SVG Export Plug-In . SVG Version: 6.00 Build 0)  -->
<svg version="1.1" id="Layer_1" xmlns="http://www.w3.org/2000/svg" xmlns:xlink="http://www.w3.org/1999/xlink" x="0px" y="0px"
	 viewBox="0 0 24 24" style="enable-background:new 0 0 24 24;" xml:space="preserve">
<style type="text/css">
	.st0{fill:#FFFFFF;}
	.st1{fill:#345D9D;}
</style>
<title>litecoin-ltc-logo</title>
<circle class="st0" cx="12" cy="12" r="10.7"/>
<path class="st1" d="M12,0C5.4,0,0,5.4,0,12s5.4,12,12,12s12-5.4,12-12l0,0l0,0C24,5.4,18.7,0,12,0C12.1,0,12.1,0,12,0L12,0z
	 M12.2,12.4L11,16.6h6.7c0.2,0,0.3,0.1,0.3,0.3c0,0,0,0,0,0v0.1l-0.6,2c-0.1,0.2-0.2,0.3-0.4,0.3H6.7l1.7-5.8l-1.9,0.6L7,12.8
	l1.9-0.6L11.3,4c0.1-0.2,0.2-0.3,0.4-0.3h2.6c0.2,0,0.3,0.1,0.3,0.3c0,0,0,0,0,0v0.1l-2,6.9l1.9-0.6l-0.4,1.4L12.2,12.4z"/>
</svg>
