<?xml version="1.0" encoding="utf-8"?>
<!-- Generator: Adobe Illustrator 21.1.0, SVG Export Plug-In . SVG Version: 6.00 Build 0)  -->
<svg version="1.1" id="Layer_1" xmlns="http://www.w3.org/2000/svg" xmlns:xlink="http://www.w3.org/1999/xlink" x="0px" y="0px"
	 viewBox="0 0 24 23.2" style="enable-background:new 0 0 24 23.2;" xml:space="preserve">
<style type="text/css">
	.st0{fill:#E7BD5C;}
</style>
<title>i</title>
<g id="Layer_2">
	<g id="Layer_1-2">
		<path class="st0" d="M17.5,2.7c0.7,0,1.3-0.6,1.3-1.3S18.2,0,17.5,0s-1.3,0.6-1.3,1.4S16.7,2.7,17.5,2.7z M17.8,6.2
			c0.6,0,1.1-0.5,1.1-1.1l0,0c0-0.6-0.5-1.1-1.1-1.1s-1.1,0.5-1.1,1.1S17.2,6.2,17.8,6.2z M20.9,6.6c0.6,0,1.1-0.5,1.1-1.1
			s-0.5-1.1-1.1-1.1s-1.1,0.5-1.1,1.1S20.3,6.6,20.9,6.6z M20.6,9.6c0.5,0,1-0.4,1-1s-0.4-1-1-1s-1,0.4-1,1S20,9.6,20.6,9.6z
			 M23,10.6c0.5,0,1-0.4,1-1s-0.4-1-1-1c-0.5,0-1,0.4-1,1l0,0l0,0C22.1,10.2,22.5,10.6,23,10.6z M17.5,9.2c0.5,0,1-0.4,1-1l0,0l0,0
			l0,0c0-0.6-0.4-1-1-1s-1,0.4-1,1S16.9,9.2,17.5,9.2z M16.6,11.6c0.5,0,0.8-0.4,0.8-0.8c0-0.5-0.4-0.8-0.8-0.8l0,0
			c-0.5,0-0.8,0.4-0.8,0.8C15.7,11.2,16.1,11.6,16.6,11.6z M19.7,12c0.5,0,0.8-0.4,0.8-0.8l0,0l0,0l0,0c0-0.5-0.4-0.8-0.8-0.8
			c-0.5,0-0.8,0.4-0.8,0.8C18.8,11.7,19.2,12,19.7,12C19.6,12,19.6,12,19.7,12L19.7,12L19.7,12z M22.1,13c0.5,0,0.8-0.4,0.8-0.8
			c0-0.5-0.4-0.8-0.8-0.8c-0.5,0-0.8,0.4-0.8,0.8C21.3,12.6,21.7,13,22.1,13L22.1,13z M20.9,14.8c0.4,0,0.7-0.3,0.7-0.7
			s-0.3-0.7-0.7-0.7c-0.4,0-0.7,0.3-0.7,0.7C20.2,14.5,20.5,14.8,20.9,14.8z M18.4,13.9c0.4,0,0.7-0.3,0.7-0.7s-0.3-0.7-0.7-0.7
			c-0.4,0-0.7,0.3-0.7,0.7S18,13.9,18.4,13.9z M15.3,13.4c0.4,0,0.7-0.3,0.7-0.7S15.7,12,15.3,12l0,0c-0.4,0-0.7,0.3-0.7,0.7
			C14.6,13.1,15,13.4,15.3,13.4L15.3,13.4z M17.1,15.1c0.3,0,0.6-0.3,0.6-0.6s-0.3-0.6-0.6-0.6l0,0c-0.3,0-0.6,0.3-0.6,0.6
			C16.4,14.8,16.7,15.1,17.1,15.1L17.1,15.1z M19.5,16.1c0.3,0,0.6-0.3,0.6-0.6s-0.3-0.6-0.6-0.6c-0.3,0-0.6,0.3-0.6,0.6
			S19.2,16.1,19.5,16.1z M18.1,16.8c0.3,0,0.5-0.2,0.5-0.5c0-0.3-0.2-0.5-0.5-0.5s-0.5,0.2-0.5,0.5C17.6,16.6,17.9,16.8,18.1,16.8z
			 M16.8,17.2c0.2,0,0.4-0.2,0.4-0.4l0,0l0,0c0-0.2-0.2-0.4-0.4-0.4c-0.2,0-0.4,0.2-0.4,0.4l0,0l0,0C16.4,17,16.6,17.2,16.8,17.2
			L16.8,17.2z M15.7,15.9c0.3,0,0.5-0.2,0.5-0.5s-0.2-0.5-0.5-0.5c-0.3,0-0.5,0.2-0.5,0.5C15.1,15.7,15.4,15.9,15.7,15.9z M14,14.7
			c0.3,0,0.6-0.3,0.6-0.6s-0.3-0.6-0.6-0.6s-0.6,0.3-0.6,0.6C13.3,14.4,13.6,14.7,14,14.7z M19,22.5c0.7,0,1.3-0.6,1.3-1.3
			c0-0.7-0.6-1.3-1.3-1.3c-0.7,0-1.3,0.6-1.3,1.3S18.3,22.5,19,22.5L19,22.5z M15.6,20.8c0.6,0,1.1-0.5,1.1-1.1s-0.5-1.1-1.1-1.1
			s-1.1,0.5-1.1,1.1S15,20.8,15.6,20.8z M13.7,23.2c0.6,0,1.1-0.5,1.1-1.1S14.3,21,13.7,21s-1.1,0.5-1.1,1.1
			C12.6,22.7,13.1,23.2,13.7,23.2L13.7,23.2z M13.1,18.7c0.5,0,1-0.4,1-1l0,0l0,0c0-0.5-0.4-1-1-1l0,0l0,0c-0.5,0-1,0.4-1,1l0,0l0,0
			C12.2,18.3,12.6,18.7,13.1,18.7L13.1,18.7z M11.2,21.2c0.5,0,1-0.4,1-1s-0.4-1-1-1c-0.5,0-1,0.4-1,1
			C10.3,20.8,10.7,21.2,11.2,21.2L11.2,21.2z M9.2,22.9c0.5,0,1-0.4,1-1c0-0.5-0.4-1-1-1c-0.5,0-1,0.4-1,1S8.6,22.9,9.2,22.9
			L9.2,22.9z M7.5,20.7c0.5,0,0.8-0.4,0.8-0.8c0-0.5-0.4-0.8-0.8-0.8c-0.5,0-0.8,0.4-0.8,0.8C6.6,20.3,7,20.7,7.5,20.7z M9.5,19
			c0.5,0,0.8-0.4,0.8-0.8c0-0.5-0.4-0.8-0.8-0.8c-0.5,0-0.8,0.4-0.8,0.8S9.1,19,9.5,19L9.5,19z M11.4,16.5c0.5,0,0.8-0.4,0.8-0.8
			l0,0l0,0l0,0c0-0.5-0.4-0.8-0.8-0.8c-0.5,0-0.8,0.4-0.8,0.8l0,0l0,0l0,0C10.6,16.1,11,16.5,11.4,16.5z M8.5,16.8
			c0.4,0,0.7-0.3,0.7-0.7c0-0.4-0.3-0.7-0.7-0.7s-0.7,0.3-0.7,0.7C7.8,16.5,8.1,16.8,8.5,16.8z M6.4,18.5c0.4,0,0.7-0.3,0.7-0.7l0,0
			l0,0l0,0c0-0.4-0.3-0.7-0.7-0.7l0,0c-0.4,0-0.7,0.3-0.7,0.7l0,0l0,0l0,0C5.7,18.2,6.1,18.5,6.4,18.5L6.4,18.5L6.4,18.5z M6,16.6
			c0.3,0,0.6-0.3,0.6-0.6c0-0.3-0.3-0.6-0.6-0.6c-0.3,0-0.6,0.3-0.6,0.6C5.4,16.3,5.6,16.6,6,16.6z M6,14.8c0.3,0,0.5-0.2,0.5-0.5
			l0,0l0,0c0-0.3-0.2-0.5-0.5-0.5S5.5,14,5.5,14.3S5.7,14.8,6,14.8z M6.2,13.4c0.2,0,0.4-0.2,0.4-0.4s-0.2-0.4-0.4-0.4
			c-0.2,0-0.4,0.2-0.4,0.4S6,13.4,6.2,13.4z M8,13.1c0.3,0,0.5-0.2,0.5-0.5S8.3,12.1,8,12.1s-0.5,0.2-0.5,0.5
			C7.5,12.9,7.7,13.1,8,13.1z M10,12.4c0.3,0,0.6-0.3,0.6-0.6s-0.3-0.6-0.6-0.6l0,0c-0.3,0-0.6,0.3-0.6,0.6
			C9.3,12.1,9.6,12.4,10,12.4L10,12.4L10,12.4z M10.4,14.3c0.4,0,0.7-0.3,0.7-0.7s-0.3-0.7-0.7-0.7s-0.7,0.3-0.7,0.7
			S10,14.3,10.4,14.3L10.4,14.3z M8,14.9c0.3,0,0.6-0.3,0.6-0.6S8.4,13.6,8,13.6c-0.3,0-0.6,0.3-0.6,0.6l0,0l0,0
			C7.4,14.6,7.7,14.9,8,14.9L8,14.9L8,14.9L8,14.9z M1.3,13.9c0.7,0,1.3-0.6,1.3-1.3S2,11.3,1.3,11.3S0,11.9,0,12.6
			C0,13.4,0.6,13.9,1.3,13.9L1.3,13.9z M4.3,11.6c0.6,0,1.1-0.5,1.1-1.1S4.9,9.4,4.3,9.4s-1.1,0.5-1.1,1.1l0,0
			C3.2,11.1,3.7,11.6,4.3,11.6L4.3,11.6z M3.1,8.6c0.6,0,1.1-0.5,1.1-1.1S3.8,6.4,3.1,6.4C2.5,6.4,2,6.9,2,7.5l0,0l0,0
			C2,8.1,2.5,8.6,3.1,8.6L3.1,8.6z M6,7.2c0.5,0,1-0.4,1-1s-0.4-1-1-1s-1,0.4-1,1S5.5,7.2,6,7.2L6,7.2z M7.2,10.2c0.5,0,1-0.4,1-1
			s-0.4-1-1-1s-1,0.4-1,1S6.7,10.2,7.2,10.2z M9.8,9.6c0.5,0,0.8-0.4,0.8-0.8l0,0c0-0.5-0.4-0.8-0.8-0.8C9.4,7.9,9,8.2,9,8.7l0,0
			l0,0C9,9.2,9.4,9.6,9.8,9.6L9.8,9.6z M12.1,9.6c0.4,0,0.7-0.3,0.7-0.7s-0.3-0.7-0.7-0.7s-0.7,0.3-0.7,0.7
			C11.4,9.2,11.7,9.6,12.1,9.6L12.1,9.6z M14,10c0.3,0,0.6-0.3,0.6-0.6S14.3,8.8,14,8.8s-0.6,0.3-0.6,0.6S13.6,10,14,10z M14.2,7.8
			c0.3,0,0.5-0.2,0.5-0.5s-0.2-0.5-0.5-0.5S13.7,7,13.7,7.3C13.7,7.6,13.9,7.8,14.2,7.8z M12.8,7.1c0.3,0,0.6-0.3,0.6-0.6
			c0-0.3-0.3-0.6-0.6-0.6s-0.6,0.3-0.6,0.6C12.2,6.8,12.4,7.1,12.8,7.1L12.8,7.1z M10.9,6.6c0.4,0,0.7-0.3,0.7-0.7
			c0-0.4-0.3-0.7-0.7-0.7s-0.7,0.3-0.7,0.7C10.2,6.3,10.5,6.6,10.9,6.6L10.9,6.6L10.9,6.6z M8.7,6.6c0.5,0,0.8-0.4,0.8-0.8
			C9.5,5.3,9.1,5,8.7,5C8.2,5,7.8,5.3,7.8,5.8S8.2,6.6,8.7,6.6z M5.6,4.5c0.5,0,0.9-0.4,0.9-0.9S6.1,2.7,5.6,2.7S4.7,3.1,4.7,3.6
			S5.1,4.5,5.6,4.5z M8.2,4C8.7,4,9,3.6,9,3.2S8.7,2.3,8.2,2.3S7.4,2.7,7.4,3.1S7.8,4,8.2,4z M10.5,4c0.4,0,0.7-0.3,0.7-0.7
			s-0.3-0.7-0.7-0.7S9.8,2.9,9.8,3.3l0,0l0,0l0,0C9.8,3.7,10.1,4,10.5,4z M12.4,4.4c0.3,0,0.6-0.3,0.6-0.6s-0.3-0.6-0.6-0.6
			s-0.6,0.3-0.6,0.6S12,4.4,12.4,4.4z M13.8,5.2c0.3,0,0.5-0.2,0.5-0.5s-0.2-0.5-0.5-0.5s-0.5,0.2-0.5,0.5S13.5,5.2,13.8,5.2z
			 M14.8,6c0.2,0,0.4-0.2,0.4-0.4l0,0l0,0l0,0c0-0.2-0.2-0.4-0.4-0.4l0,0l0,0c-0.2,0-0.4,0.2-0.4,0.4l0,0l0,0l0,0
			C14.4,5.8,14.6,6,14.8,6L14.8,6L14.8,6L14.8,6z"/>
	</g>
</g>
</svg>
