<?xml version="1.0" encoding="utf-8"?>
<!-- Generator: Adobe Illustrator 21.1.0, SVG Export Plug-In . SVG Version: 6.00 Build 0)  -->
<svg version="1.1" id="Layer_1" xmlns="http://www.w3.org/2000/svg" xmlns:xlink="http://www.w3.org/1999/xlink" x="0px" y="0px"
	 viewBox="0 0 24 24" style="enable-background:new 0 0 24 24;" xml:space="preserve">
<style type="text/css">
	.st0{fill:#004651;}
	.st1{fill:#00BFEC;}
</style>
<path class="st0" d="M17.5,2.9C17.5,3,17.4,3,17.3,3c-1.6-1-3.5-1.5-5.4-1.5c-1.7,0-3.4,0.4-5,1.2c-0.1,0-0.2,0-0.2-0.1l-0.6-1
	c0-0.1,0-0.2,0.1-0.2c0,0,0,0,0,0C8,0.5,9.9,0,11.9,0c2.2,0,4.3,0.6,6.2,1.7c0.1,0,0.1,0.2,0.1,0.2c0,0,0,0,0,0L17.5,2.9z"/>
<path class="st1" d="M22.2,9c-0.4-1.3-1-2.6-1.9-3.6c-0.1-0.1,0-0.2,0-0.2L21,4.5c0.1-0.1,0.2-0.1,0.2,0c1,1.2,1.7,2.6,2.2,4.1
	c0,0.1,0,0.2-0.1,0.2c0,0,0,0,0,0l-0.9,0.2C22.3,9.1,22.2,9.1,22.2,9z"/>
<g>
	<path class="st0" d="M19.6,21l-0.8-0.9c-0.1-0.1-0.1-0.2,0-0.2c2.2-2,3.5-4.7,3.6-7.7c0-0.1,0.1-0.2,0.2-0.2h1.2
		c0.1,0,0.2,0.1,0.2,0.2c0,0,0,0,0,0c-0.1,3.4-1.5,6.6-4.1,8.9C19.8,21.1,19.7,21.1,19.6,21"/>
	<path class="st0" d="M11.9,24c-2.7,0-5.4-0.9-7.5-2.6c-0.1-0.1-0.1-0.2,0-0.2c0,0,0,0,0,0l0.8-0.9c0.1-0.1,0.2-0.1,0.2,0
		c1.9,1.5,4.2,2.3,6.6,2.3c1.7,0,3.2-0.4,4.7-1.1c0.1,0,0.2,0,0.2,0.1l0.5,1.1c0,0.1,0,0.2-0.1,0.2c0,0,0,0,0,0
		C15.7,23.6,13.8,24,11.9,24z"/>
</g>
<path class="st1" d="M2.1,18.4c-0.1,0.1-0.2,0-0.2-0.1c0,0,0,0,0,0C0.6,16.5,0,14.3,0,12c0-3.2,1.2-6.2,3.5-8.4
	c0.1-0.1,0.2-0.1,0.2,0l0.6,0.7c0.1,0.1,0.1,0.2,0,0.2c-2,2-3.1,4.7-3.1,7.5c0,2,0.6,4,1.7,5.7c0.1,0.1,0,0.2,0,0.2L2.1,18.4z"/>
<path class="st0" d="M11.9,19.8c-4.3,0-7.9-3.5-7.9-7.8s3.5-7.8,7.9-7.8s7.9,3.5,7.9,7.8S16.3,19.8,11.9,19.8z M11.9,5.7
	c-3.5,0-6.3,2.8-6.3,6.3s2.8,6.3,6.3,6.3s6.3-2.8,6.3-6.3S15.4,5.7,11.9,5.7z"/>
</svg>
