<?xml version="1.0" encoding="utf-8"?>
<!-- Generator: Adobe Illustrator 21.1.0, SVG Export Plug-In . SVG Version: 6.00 Build 0)  -->
<svg version="1.1" id="Layer_1" xmlns="http://www.w3.org/2000/svg" xmlns:xlink="http://www.w3.org/1999/xlink" x="0px" y="0px"
	 viewBox="0 0 24 24" style="enable-background:new 0 0 24 24;" xml:space="preserve">
<style type="text/css">
	.st0{fill:#ED1968;}
	.st1{fill:#FFFFFF;}
</style>
<g>
	<circle class="st0" cx="12" cy="12" r="12"/>
	<path class="st1" d="M9.525,20.175C8.567,19.91,7.673,19.45,6.9,18.825c-0.762-0.587-1.421-1.297-1.95-2.1
		c-0.564-0.845-0.971-1.785-1.2-2.775c-0.263-1.186-0.263-2.414,0-3.6C3.974,9.347,4.353,8.385,4.875,7.5
		c0.764-1.225,1.855-2.212,3.15-2.85C8.48,4.405,8.957,4.204,9.45,4.05c0.75,0.9,1.5,1.875,2.25,2.85
		c0.075,0.15,0.225,0.225,0.3,0.375c-0.752,0.032-1.491,0.21-2.175,0.525C9.22,8.116,8.685,8.55,8.25,9.075
		c-0.428,0.566-0.758,1.2-0.975,1.875c-0.2,0.816-0.174,1.672,0.075,2.475l3.225-2.55c0.75,0.975,1.5,1.875,2.25,2.85
		c-1.05,0.825-2.175,1.65-3.225,2.55c1.05,1.35,2.175,2.775,3.225,4.2C11.716,20.606,10.592,20.504,9.525,20.175z M16.673,11.089
		c-0.028-0.123-0.06-0.244-0.097-0.365c-0.101,0.08-2.333,1.785-3.225,2.55c-0.75-0.975-1.5-1.875-2.25-2.85
		c1.05-0.825,2.175-1.65,3.225-2.55c-1.05-1.35-2.1-2.7-3.225-4.125c0-0.075-0.075-0.075-0.075-0.15h1.05
		c1.924,0.018,3.781,0.708,5.25,1.95c0.716,0.592,1.325,1.302,1.8,2.1c0.56,0.859,0.919,1.833,1.05,2.85
		c0.201,1.169,0.175,2.366-0.075,3.525c-0.215,0.971-0.623,1.89-1.2,2.7c-0.504,0.778-1.138,1.463-1.875,2.025
		c-0.718,0.624-1.562,1.084-2.475,1.35c-0.675-0.825-1.275-1.575-1.875-2.4c-0.224-0.257-0.425-0.533-0.6-0.825
		c1.438,0.005,2.797-0.661,3.675-1.8c0.432-0.553,0.739-1.192,0.9-1.875C16.789,12.631,16.797,11.927,16.673,11.089z M13.13,17.369
		c0.518,0.707,1.056,1.4,1.613,2.077c0.712-0.258,1.371-0.645,1.941-1.144c0.692-0.529,1.286-1.173,1.758-1.905
		c0.533-0.748,0.91-1.595,1.108-2.492c0.236-1.089,0.259-2.213,0.068-3.335c-0.123-0.94-0.456-1.841-0.976-2.634
		c-0.443-0.744-1.012-1.407-1.68-1.958c-1.35-1.142-3.052-1.784-4.82-1.817c0.695,0.885,1.399,1.787,2.627,3.367l0.33,0.423
		l-0.408,0.349c-0.533,0.454-1.078,0.894-1.634,1.321c-0.052,0.041-0.69,0.531-1.168,0.901c0.197,0.251,0.426,0.538,0.775,0.975
		c0.345,0.431,0.574,0.719,0.771,0.97c0.348-0.287,0.727-0.589,1.182-0.941c0.073-0.057,1.272-0.979,1.61-1.245l0.642-0.505
		l0.242,0.78c0.28,0.899,0.309,1.857,0.086,2.771c-0.179,0.761-0.521,1.474-1.002,2.089c-0.765,0.993-1.863,1.674-3.092,1.919
		C13.103,17.338,13.13,17.369,13.13,17.369z"/>
</g>
</svg>
