<?xml version="1.0" encoding="utf-8"?>
<!-- Generator: Adobe Illustrator 21.1.0, SVG Export Plug-In . SVG Version: 6.00 Build 0)  -->
<svg version="1.1" id="Layer_1" xmlns="http://www.w3.org/2000/svg" xmlns:xlink="http://www.w3.org/1999/xlink" x="0px" y="0px"
	 viewBox="0 0 24 23.948" style="enable-background:new 0 0 24 23.948;" xml:space="preserve">
<style type="text/css">
	.st0{fill:#F1385B;}
</style>
<path class="st0" d="M1.357,12.008c0,0.656,0.061,1.311,0.181,1.956l-1.334,0.249c0.136,0.727,0.339,1.44,0.607,2.13l1.265-0.492
	c0.238,0.611,0.531,1.199,0.877,1.756L1.8,18.323c0.39,0.628,0.838,1.219,1.336,1.765l1.002-0.915
	c0.442,0.484,0.928,0.927,1.452,1.323l-0.818,1.083c0.59,0.446,1.22,0.836,1.882,1.166L7.26,21.53
	c0.587,0.292,1.2,0.529,1.831,0.708l-0.37,1.307c0.712,0.201,1.44,0.336,2.177,0.403l0.123-1.352
	c0.323,0.029,0.652,0.044,0.978,0.044c0.329,0,0.661-0.015,0.987-0.045l0.124,1.352c0.737-0.067,1.465-0.203,2.177-0.405
	l-0.371-1.306c0.631-0.179,1.243-0.417,1.83-0.71l0.606,1.215c0.662-0.33,1.291-0.721,1.881-1.168l-0.819-1.082
	c0.523-0.396,1.009-0.839,1.451-1.324l1.003,0.915c0.498-0.546,0.945-1.138,1.335-1.766l-1.153-0.715
	c0.346-0.557,0.639-1.146,0.876-1.757l1.266,0.49c0.267-0.69,0.47-1.403,0.605-2.13l-1.332-0.248c0.12-0.645,0.181-1.3,0.182-1.956
	v-0.019L24,11.977c-0.001-0.739-0.071-1.477-0.207-2.203l-1.335,0.25c-0.121-0.644-0.302-1.276-0.54-1.887l1.265-0.493
	c-0.269-0.689-0.6-1.352-0.991-1.98L21.04,6.382c-0.347-0.557-0.744-1.081-1.187-1.565l1.001-0.916
	c-0.499-0.546-1.047-1.044-1.638-1.489l-0.817,1.084c-0.524-0.395-1.083-0.741-1.671-1.033l0.604-1.216
	c-0.663-0.329-1.355-0.596-2.067-0.797l-0.369,1.306c-0.631-0.178-1.277-0.297-1.93-0.356l0.122-1.352
	C12.73,0.017,12.366,0.001,11.999,0c-0.379,0-0.753,0.017-1.122,0.052l0.126,1.352c-0.653,0.061-1.299,0.182-1.929,0.361L8.7,0.459
	C7.989,0.662,7.298,0.931,6.636,1.262l0.607,1.214C6.657,2.77,6.099,3.117,5.577,3.513l-0.82-1.082
	C4.167,2.878,3.621,3.378,3.123,3.925l1.004,0.914c-0.442,0.485-0.838,1.01-1.183,1.568L1.79,5.692
	C1.4,6.321,1.07,6.985,0.803,7.675l1.266,0.489c-0.236,0.612-0.415,1.244-0.534,1.888L0.2,9.806C0.067,10.529,0,11.263,0,11.999
	v0.011L1.357,12.008z M13.212,20.414l-0.072-0.505c0.754-0.108,1.489-0.323,2.181-0.64l0.212,0.464
	C14.797,20.07,14.015,20.299,13.212,20.414L13.212,20.414z M20.5,11.998c0.001,0.811-0.115,1.617-0.342,2.395l-0.49-0.144
	c0.214-0.731,0.322-1.489,0.321-2.251v-0.013l0.51-0.001L20.5,11.998L20.5,11.998z M19.144,7.392c0.44,0.681,0.78,1.421,1.01,2.199
	l-0.49,0.144c-0.216-0.731-0.535-1.427-0.949-2.066L19.144,7.392z M18.723,16.318l0.429,0.276c-0.439,0.682-0.972,1.297-1.585,1.828
	l-0.334-0.385C17.809,17.537,18.31,16.959,18.723,16.318L18.723,16.318z M15.52,4.259c0.738,0.336,1.423,0.776,2.036,1.307
	l-0.334,0.386c-0.576-0.499-1.221-0.912-1.914-1.228L15.52,4.259z M14.234,9.902h1.189l1.547,2.281V9.902h1.212v4.128h-1.206
	l-1.542-2.268v2.268h-1.2V9.902z M11.999,3.498c0.401,0,0.801,0.028,1.199,0.084l-0.071,0.505c-0.755-0.106-1.52-0.105-2.275,0.003
	l-0.073-0.505C11.183,3.527,11.591,3.498,11.999,3.498L11.999,3.498z M9.542,9.902h1.272v2.515c0,0.225,0.063,0.4,0.188,0.527
	c0.125,0.126,0.298,0.19,0.519,0.19c0.219,0,0.394-0.062,0.519-0.187c0.125-0.125,0.19-0.301,0.19-0.53V9.902h1.272v2.456
	c0.001,0.235-0.039,0.468-0.117,0.69c-0.075,0.214-0.197,0.408-0.359,0.568c-0.162,0.162-0.333,0.276-0.511,0.341
	c-0.247,0.092-0.545,0.138-0.892,0.138c-0.22-0.001-0.439-0.015-0.657-0.042c-0.237-0.028-0.435-0.084-0.595-0.167
	c-0.159-0.083-0.305-0.202-0.437-0.356c-0.132-0.154-0.224-0.312-0.273-0.475c-0.079-0.262-0.12-0.495-0.12-0.697L9.542,9.902
	L9.542,9.902z M10.865,19.909l-0.072,0.505c-0.803-0.114-1.585-0.343-2.322-0.68l0.212-0.464
	C9.376,19.587,10.111,19.802,10.865,19.909z M8.458,4.268l0.213,0.464C7.978,5.05,7.335,5.465,6.76,5.965L6.425,5.58
	C7.037,5.048,7.721,4.606,8.458,4.268L8.458,4.268z M5.823,9.902h3.144v0.888h-1.86v0.72h1.596v0.828H7.106v1.692H5.823V9.902z
	 M6.77,18.041l-0.334,0.386C5.824,17.896,5.29,17.281,4.85,16.6l0.429-0.277C5.692,16.964,6.194,17.542,6.77,18.041z M4.842,7.41
	l0.429,0.276C4.86,8.327,4.542,9.024,4.328,9.755L3.838,9.611C4.065,8.833,4.404,8.091,4.842,7.41L4.842,7.41z M4.009,12.006
	c0,0.762,0.109,1.52,0.323,2.251L3.842,14.4c-0.228-0.778-0.344-1.584-0.344-2.394L4.009,12.006z"/>
</svg>
