<?xml version="1.0" encoding="utf-8"?>
<!-- Generator: Adobe Illustrator 21.1.0, SVG Export Plug-In . SVG Version: 6.00 Build 0)  -->
<svg version="1.1" id="Layer_1" xmlns="http://www.w3.org/2000/svg" xmlns:xlink="http://www.w3.org/1999/xlink" x="0px" y="0px"
	 viewBox="0 0 24 24" style="enable-background:new 0 0 24 24;" xml:space="preserve">
<style type="text/css">
	.st0{fill:#01E4B4;}
</style>
<path class="st0" d="M12,24C5.4,24,0,18.6,0,12S5.4,0,12,0c6.6,0,12,5.4,12,12S18.6,24,12,24z M22.6,13.9c-0.3,0.6-1,0.9-1.6,0.6
	c0.4,0.4,0.7,1,0.7,1.7c0,0.2,0,0.4-0.1,0.5C22.1,15.9,22.5,14.9,22.6,13.9L22.6,13.9z M21.5,14c0.3,0,0.6-0.3,0.6-0.6
	c0-0.3-0.3-0.6-0.6-0.6c-0.3,0-0.6,0.3-0.6,0.6S21.2,14,21.5,14L21.5,14L21.5,14L21.5,14z M21.8,7.5c0.6,1.7,0.3,3.6-0.9,4.9
	c0.2-0.1,0.4-0.2,0.6-0.2c0.6,0,1.1,0.5,1.2,1.1c0.1-0.4,0.1-0.9,0.1-1.3C22.8,10.4,22.5,8.9,21.8,7.5z M21.2,9.1
	C21.2,6.8,19.3,5,17,5c-2.3,0-4.2,1.9-4.2,4.2c0,2.3,1.9,4.2,4.2,4.2C19.3,13.3,21.2,11.4,21.2,9.1z M16.8,16.2
	c0-0.9,0.5-1.7,1.3-2.2c-1,0.2-2.1,0.2-3.1-0.2C15.9,14.5,16.5,15.3,16.8,16.2C16.9,16.3,16.8,16.3,16.8,16.2z M17.1,17.9
	c0,0.4,0,0.8-0.1,1.2c0.2-0.4,0.6-0.6,1-0.6c0.1,0,0.1,0,0.2,0c-0.5-0.3-0.9-0.7-1.1-1.2C17.1,17.4,17.1,17.6,17.1,17.9z M19.3,17.8
	c0.9,0,1.5-0.7,1.6-1.5c0-0.9-0.7-1.5-1.6-1.5c-0.9,0-1.5,0.7-1.5,1.5C17.8,17.1,18.4,17.8,19.3,17.8L19.3,17.8z M20.3,13.4
	c0-0.2,0.1-0.4,0.2-0.6c-0.4,0.4-0.9,0.7-1.5,1c0.1,0,0.2,0,0.3,0c0.4,0,0.9,0.1,1.3,0.3C20.4,13.9,20.3,13.7,20.3,13.4L20.3,13.4z
	 M12,12.8c0.7,0,1.3,0.1,1.9,0.4c-1-0.8-1.7-1.9-1.9-3.2c-0.2,1.3-0.9,2.4-1.9,3.2C10.7,12.9,11.3,12.8,12,12.8L12,12.8z M12,6
	c-0.5,0-0.9-0.1-1.3-0.4c0.7,0.7,1.1,1.6,1.3,2.6c0.2-1,0.6-1.9,1.3-2.6C12.9,5.9,12.5,6,12,6L12,6z M14.5,3.6
	c0,0.6-0.2,1.1-0.5,1.5c0.5-0.4,1.1-0.7,1.7-0.8c0,0,0,0-0.1,0C15.1,4.3,14.7,3.9,14.5,3.6C14.5,3.5,14.5,3.5,14.5,3.6z M16.4,2.1
	c0.3,0.2,0.5,0.6,0.5,0.9c0,0.5-0.3,0.9-0.7,1.1c1.8-0.3,3.6,0.3,4.8,1.7C19.7,4.2,18.2,2.9,16.4,2.1L16.4,2.1z M15.6,2.5
	c-0.3,0-0.6,0.3-0.6,0.6s0.3,0.6,0.6,0.6l0,0c0.3,0,0.6-0.3,0.6-0.6S15.9,2.5,15.6,2.5L15.6,2.5z M12.7,1.2c0.8,0.3,1.4,0.9,1.6,1.7
	c0-0.6,0.6-1.1,1.2-1.1c0,0,0.1,0,0.1,0C14.8,1.5,13.8,1.3,12.7,1.2z M10.4,3.6c0,0.9,0.7,1.5,1.6,1.5c0.8,0,1.5-0.7,1.5-1.5
	c0-0.9-0.8-1.5-1.6-1.5C11.1,2.1,10.5,2.8,10.4,3.6C10.4,3.6,10.4,3.6,10.4,3.6z M8.3,1.9c0,0,0.1,0,0.1,0C9,1.8,9.6,2.3,9.6,3
	c0.2-0.8,0.8-1.5,1.6-1.7C10.2,1.3,9.2,1.5,8.3,1.9z M9.5,3.6C9.5,3.5,9.5,3.5,9.5,3.6C9.3,4,8.9,4.3,8.4,4.3c0,0,0,0-0.1,0
	C9,4.4,9.5,4.7,10.1,5.1C9.7,4.7,9.5,4.1,9.5,3.6z M7.8,3.1c0,0.3,0.3,0.6,0.6,0.6C8.7,3.7,9,3.4,9,3.1l0,0c0-0.3-0.3-0.6-0.6-0.6
	C8.1,2.5,7.8,2.7,7.8,3.1z M3.1,5.9c1.2-1.4,3-2,4.8-1.7C7.3,3.9,7,3.2,7.3,2.6c0.1-0.2,0.2-0.3,0.3-0.5C5.8,2.9,4.3,4.2,3.1,5.9z
	 M2.8,9.1c0,2.3,1.9,4.2,4.2,4.2c2.3,0,4.2-1.9,4.2-4.2C11.2,6.8,9.3,5,7,5C4.7,5,2.8,6.8,2.8,9.1z M7.2,16.2
	C7.2,16.3,7.1,16.3,7.2,16.2c0.3-0.9,0.9-1.8,1.7-2.4c-1,0.4-2,0.5-3.1,0.2C6.7,14.5,7.2,15.3,7.2,16.2z M3.7,13.4
	c0,0.3-0.1,0.5-0.2,0.7c0.4-0.2,0.8-0.3,1.3-0.3c0.1,0,0.2,0,0.3,0c-0.6-0.2-1.1-0.6-1.5-1C3.6,13,3.7,13.2,3.7,13.4z M3.2,16.2
	c0,0.9,0.7,1.5,1.5,1.5c0.9,0,1.5-0.7,1.5-1.5c0-0.9-0.7-1.5-1.5-1.5C3.8,14.7,3.2,15.4,3.2,16.2C3.2,16.2,3.2,16.2,3.2,16.2z
	 M5.8,18.4c0.1,0,0.1,0,0.2,0c0.4,0,0.8,0.3,1,0.6c-0.1-0.4-0.1-0.8-0.1-1.2c0-0.2,0-0.4,0-0.7C6.7,17.7,6.3,18.2,5.8,18.4z
	 M1.3,13.3c0.1-0.6,0.6-1.1,1.2-1.1c0.2,0,0.4,0.1,0.6,0.2C1.9,11,1.6,9.1,2.2,7.4C1.3,9.3,1,11.3,1.3,13.3L1.3,13.3z M2.5,12.8
	c-0.3,0-0.6,0.3-0.6,0.6c0,0.3,0.3,0.6,0.6,0.6c0.3,0,0.6-0.3,0.6-0.6C3.1,13.1,2.8,12.8,2.5,12.8z M2.2,16.2c0-0.6,0.2-1.2,0.7-1.7
	c-0.6,0.3-1.3,0-1.6-0.6c0.2,1,0.5,2,1,2.9C2.3,16.6,2.2,16.4,2.2,16.2z M5.3,18.6c-0.8,0.2-1.7,0-2.3-0.6c0.6,0.9,1.3,1.6,2.1,2.3
	c-0.2-0.2-0.3-0.5-0.3-0.7C4.8,19.2,5,18.8,5.3,18.6L5.3,18.6L5.3,18.6z M5.4,19.6c0,0.3,0.3,0.6,0.6,0.6s0.6-0.3,0.6-0.6v0
	C6.6,19.3,6.3,19,6,19C5.7,19,5.4,19.3,5.4,19.6z M10.5,22.7C9,22.2,7.7,21,7.2,19.5c0,0,0,0.1,0,0.1c0,0.6-0.5,1.2-1.2,1.2
	c-0.2,0-0.4,0-0.5-0.1C7,21.7,8.7,22.5,10.5,22.7z M16.2,17.9c0-2.3-1.9-4.2-4.2-4.2s-4.2,1.9-4.2,4.2c0,2.3,1.9,4.2,4.2,4.2
	C14.3,22,16.2,20.2,16.2,17.9L16.2,17.9z M18.5,20.6c-0.4,0.2-0.8,0.2-1.1-0.1c-0.3-0.2-0.6-0.6-0.5-1c0,0,0-0.1,0-0.1
	c-0.5,1.6-1.8,2.8-3.4,3.2C15.3,22.5,17,21.7,18.5,20.6L18.5,20.6z M18.6,19.6c0-0.3-0.3-0.6-0.6-0.6c-0.3,0-0.6,0.3-0.6,0.6
	c0,0.3,0.3,0.6,0.6,0.6C18.3,20.1,18.6,19.9,18.6,19.6L18.6,19.6z M21,18c-0.6,0.6-1.5,0.8-2.3,0.6c0.3,0.2,0.5,0.6,0.5,1
	c0,0.3-0.1,0.5-0.3,0.7C19.7,19.7,20.4,18.9,21,18L21,18z"/>
</svg>
