<?xml version="1.0" encoding="utf-8"?>
<!-- Generator: Adobe Illustrator 21.1.0, SVG Export Plug-In . SVG Version: 6.00 Build 0)  -->
<svg version="1.1" id="Layer_1" xmlns="http://www.w3.org/2000/svg" xmlns:xlink="http://www.w3.org/1999/xlink" x="0px" y="0px"
	 viewBox="0 0 24 23.4" style="enable-background:new 0 0 24 23.4;" xml:space="preserve">
<style type="text/css">
	.st0{fill:#F4D029;}
</style>
<path class="st0" d="M7.3,14.9L7.3,14.9L7.3,14.9z M6.9,12.6h3.1v0.9H6.9V12.6z M4.4,15.9h14.1V7.9H4.4V15.9z M11.7,9.3h5.7v1.1H13
	v3.1h3.1v-0.9h-2.2v-1.3h3.5v3.4h-5.7L11.7,9.3L11.7,9.3z M5.5,9.3h4v1.6h-4V9.3z M5.5,13.5v-2.2h4.4V9.3h1.3v5.4H5.5L5.5,13.5
	L5.5,13.5z M12,23.3L12,23.3L12,23.3L12,23.3z M15.7,0.5c-0.6-0.2-1.1-0.3-1.7-0.3C13.5,0,12.9,0,12.3,0c-0.2,0-0.3,0-0.4,0
	c-0.1,0-0.3,0-0.4,0H0v23.3l12.3-0.1c0.6,0,1.1,0,1.7-0.1c0.5-0.1,1.1-0.2,1.7-0.4c1.2-0.4,2.3-0.9,3.3-1.6c1-0.7,1.9-1.6,2.6-2.5
	c0.7-1,1.3-2.1,1.8-3.3c0.4-1.2,0.6-2.4,0.6-3.8c0-1.3-0.2-2.6-0.6-3.8c-0.4-1.2-1-2.3-1.8-3.3c-0.7-1-1.6-1.8-2.6-2.5
	C18,1.3,16.9,0.8,15.7,0.5L15.7,0.5z M15.7,19.7c-0.5,0.2-1,0.3-1.5,0.5s-1,0.2-1.5,0.2H2.9V2.9h9.8c0.5,0,1,0.1,1.5,0.2
	c0.5,0.1,0.9,0.2,1.4,0.4c0.8,0.3,1.5,0.8,2.1,1.3C18.4,5.4,19,6,19.5,6.7s0.9,1.5,1.1,2.3c0.3,0.8,0.4,1.7,0.4,2.6
	c0,0.9-0.1,1.8-0.4,2.6c-0.3,0.8-0.6,1.6-1.1,2.3s-1,1.3-1.7,1.9C17.2,18.9,16.4,19.3,15.7,19.7L15.7,19.7z"/>
</svg>
