<?xml version="1.0" encoding="utf-8"?>
<!-- Generator: Adobe Illustrator 21.1.0, SVG Export Plug-In . SVG Version: 6.00 Build 0)  -->
<svg version="1.1" id="Layer_1" xmlns="http://www.w3.org/2000/svg" xmlns:xlink="http://www.w3.org/1999/xlink" x="0px" y="0px"
	 viewBox="0 0 15.6 24" style="enable-background:new 0 0 15.6 24;" xml:space="preserve">
<style type="text/css">
	.st0{fill:#66AAF2;}
</style>
<path class="st0" d="M0,0h9.7C9.9,0,9.9,0.1,10,0.1C10.9,1,11.7,2,12.4,3c1,1.5,1.8,3.1,2.4,4.7c0.6,1.8,0.9,3.7,0.8,5.5h-5
	c0-0.2,0-0.5,0-0.7c-0.1-1.8-0.6-3.5-1.5-5C8.3,5.9,7,4.4,5.5,3.3C4,2,2.2,1,0.3,0.1C0.2,0.1,0.1,0.1,0,0z M3.6,8.8c1.7,3,3.3,6,5,9
	C9,18.6,9.4,19.3,9.8,20c-2.1,1.3-4.1,2.7-6.2,4L3.6,8.8L3.6,8.8z"/>
</svg>
