<?xml version="1.0" encoding="utf-8"?>
<!-- Generator: Adobe Illustrator 21.1.0, SVG Export Plug-In . SVG Version: 6.00 Build 0)  -->
<svg version="1.1" id="Layer_1" xmlns="http://www.w3.org/2000/svg" xmlns:xlink="http://www.w3.org/1999/xlink" x="0px" y="0px"
	 viewBox="0 0 14 24" style="enable-background:new 0 0 14 24;" xml:space="preserve">
<style type="text/css">
	.st0{fill:#1B75BC;}
</style>
<path class="st0" d="M2.587,4.602L7,9.208l4.305-4.606L14,7.36L9.604,12L14,16.603l-2.695,2.793L7,14.792l-4.413,4.604L0,16.68
	l4.36-4.706L0,7.36L2.587,4.602L2.587,4.602z M2.942,4.226L6.982,0l4.04,4.226L8.896,6.491L6.982,4.377L5.068,6.491
	C5.068,6.491,2.942,4.226,2.942,4.226z M2.942,19.774l2.126-2.265l1.914,2.114l1.914-2.114l2.126,2.265L6.982,24
	C6.982,24,2.942,19.774,2.942,19.774z"/>
</svg>
