<?xml version="1.0" encoding="utf-8"?>
<!-- Generator: Adobe Illustrator 21.1.0, SVG Export Plug-In . SVG Version: 6.00 Build 0)  -->
<svg version="1.1" id="Layer_1" xmlns="http://www.w3.org/2000/svg" xmlns:xlink="http://www.w3.org/1999/xlink" x="0px" y="0px"
	 viewBox="0 0 24 15.3" style="enable-background:new 0 0 24 15.3;" xml:space="preserve">
<style type="text/css">
	.st0{fill:#F01B82;}
</style>
<path class="st0" d="M23.9,7.3c-0.1-0.1-0.1-0.2-0.2-0.3c-2.1-2.3-6.3-7-6.3-7L12,5.9L6.6,0.1c0,0-4.3,4.7-6.4,7
	c-0.3,0.3-0.3,0.8,0,1c1.1,1.2,6.4,7.1,6.4,7.1L12,9.4l5.4,5.9l6.5-7.1c0,0,0.1-0.1,0.2-0.2C24,7.7,24,7.5,23.9,7.3 M3.2,8
	C3,7.8,3.1,7.4,3.2,7.2c0.7-0.8,3.4-3.7,3.4-3.7l3.8,4l-3.8,4.2C6.6,11.7,4.3,9.2,3.2,8 M20.6,8.1c-0.1,0.1-0.2,0.3-0.3,0.4l-3,3.2
	l-3.8-4.1l3.8-4.1c0,0,2.2,2.2,3.2,3.4c0.1,0.1,0.2,0.2,0.2,0.3C20.8,7.6,20.7,7.9,20.6,8.1"/>
</svg>
