<svg xmlns="http://www.w3.org/2000/svg" viewBox="0 0 47.63 47.62"><g data-name="Слой 2"><g data-name="Слой 1"><path d="M19.79 4.34a28.6 28.6 0 00-3.71 1.16c-.58.25-1.11.5-1.65.79l-1.57.92-3.08-3-5.62 5.55 3.07 3.08-.92 1.55c-.29.54-.54 1.07-.79 1.66a30.44 30.44 0 00-1.18 3.74c-.1.11 0 .07-.25.08H0v7.89h3.34c.29 0 .93-.06 1 .08s.31 1.33.5 1.91a21 21 0 001.45 3.44c.15.28.29.53.44.78s.38.56.49.8l-3.06 3.07 5.6 5.62 3.08-3.06 1.55.91a19.81 19.81 0 003.45 1.45c.32.11.61.19.94.28s.78.15 1 .24a9 9 0 01.08 2.12v2.22h7.9v-4.08c0-.24 0-.16.09-.25l1.91-.51A20 20 0 0034 40.89a7.69 7.69 0 01.8-.48l3.07 3.05 5.62-5.6-3.07-3.08.92-1.55A20.89 20.89 0 0043 28.84a7.68 7.68 0 01.25-1c.09-.12 0-.08.25-.09h4.09v-7.9h-3.84c-.18 0-.4.06-.47-.07a26.64 26.64 0 00-1.16-3.71 19.75 19.75 0 00-1.23-2.43 7.59 7.59 0 01-.48-.79l3.05-3.08-5.6-5.62-3.08 3.08-1.55-.92a15.89 15.89 0 00-1.66-.79c-.6-.25-1.13-.44-1.78-.66s-1.37-.31-2-.52c-.11-.1-.07 0-.08-.25V0h-7.84v4.14c0 .2 0 .13-.08.2zm4.85 7.58v2.62a7.8 7.8 0 012.27.54 4.73 4.73 0 011.66 1.24 5.32 5.32 0 01.86 1.3 3.06 3.06 0 01.3 1.23 1.47 1.47 0 01-.45 1.07 1.5 1.5 0 01-1.1.45 1.53 1.53 0 01-1.57-1.31 2.83 2.83 0 00-2-2.06v5.15c1 .28 1.84.54 2.44.77a4.88 4.88 0 011.63 1 4.67 4.67 0 011.19 1.63 5.05 5.05 0 01.42 2.08 5.4 5.4 0 01-.67 2.64 5.22 5.22 0 01-1.95 2 7 7 0 01-3.06.93v2.5h.18a11.93 11.93 0 00-.18-23.78zm-1.58 23.79v-2.48a7.64 7.64 0 01-2.53-.68 6.1 6.1 0 01-1.81-1.29 5.33 5.33 0 01-1.06-1.61 4.14 4.14 0 01-.35-1.65 1.47 1.47 0 01.46-1.07 1.55 1.55 0 011.16-.48 1.6 1.6 0 01.94.26 1.33 1.33 0 01.53.73c.22.67.42 1.19.58 1.55a3.17 3.17 0 00.75 1 3.54 3.54 0 001.33.68v-5.76a15.5 15.5 0 01-2.77-1 4.42 4.42 0 01-2.5-4.28 4.72 4.72 0 011.36-3.49 6.05 6.05 0 013.91-1.58v-2.65h-.23a11.93 11.93 0 00.22 23.79zm0-14V17a4.39 4.39 0 00-1.62.82 1.91 1.91 0 00-.58 1.53 1.92 1.92 0 00.54 1.48 5 5 0 001.66.91zm1.58 3.68v5.42a3.35 3.35 0 001.93-1 2.56 2.56 0 00.68-1.81 2.07 2.07 0 00-.67-1.66 5.15 5.15 0 00-1.94-1z" fill="#00d431" fill-rule="evenodd" data-name="Слой_1"/></g></g></svg>