<svg xmlns="http://www.w3.org/2000/svg" viewBox="0 0 42.58 48.38"><defs><style>.cls-1{fill:#ffab00;fill-rule:evenodd}</style></defs><g id="Слой_2" data-name="Слой 2"><g id="Слой_1-2" data-name="Слой 1"><g id="Слой_1-3" data-name="Слой_1"><g id="_2499204227264" data-name="2499204227264"><path class="cls-1" d="M17.8 13.78c.07 0 .12-.08.16.43v34.17h6.82V13.72l1.81.38v10.49h15.99V13.97h-7.79a17.18 17.18 0 002.94-1c.86-.38 1.88-.77 2.66-1.18-.23-2.21-1-2.83-2.26-3.91-1.8-1.52-.43-2.42-.59-4.74A9.07 9.07 0 0036.71 0a28.8 28.8 0 00-4.19 1.36 23.1 23.1 0 00-7.27 5.28L24 8.1a4.28 4.28 0 01-.6.7c0-1.77.18-2 1.22-2.83a35.94 35.94 0 00-4 0c-1.23.24-1.32 1.43-1.32 2.79L18.57 8a31 31 0 00-2.67-2.82c-.27-.22-.48-.43-.74-.63l-1.53-1.21A21.36 21.36 0 006 0a5.61 5.61 0 00-1 3.12A9.16 9.16 0 005.12 5c.42 2.19.63 1.71-.86 2.65a4.37 4.37 0 00-2 4.12A30.12 30.12 0 007.89 14H0v10.6h16v-9.5c0-1.67 0-.54 1.85-1.32z"/><path class="cls-1" d="M2.71 48.38h13.23l.01-21.63-13.26.01.02 21.62zm23.94 0h13.17V26.77l-13.18-.03.01 21.64z"/></g></g></g></g></svg>