<svg xmlns="http://www.w3.org/2000/svg" viewBox="0 0 51.7 52.14"><g data-name="Слой 2"><g data-name="Слой 1"><path d="M25.72 0a30.42 30.42 0 00-3.24 1.82l-9.54 5.61v23.12L10 32.22c-1 .54-2 1.19-2.91 1.66v6.68A64.42 64.42 0 0012.92 44a60.77 60.77 0 005.83-3.41v-6.71l-1.94-1.08v-3.72c.85.49 1.7 1 2.59 1.5.46.27.85.51 1.31.77a9.55 9.55 0 011.23.74v10.43c-.3.2-8.81 5.19-9 5.18S5 43.07 3.9 42.55V32.17a45.43 45.43 0 014.66-2.8 12.16 12.16 0 001.53-.92V24L.2 29.76l-.05.07c-.05.07-.15-.12-.15.78v1c0 1.25-.09 12.68 0 13l.13.23c.24.33 7.69 4.45 9.45 5.5.5.3 2.76 1.7 3.16 1.82H13c.26 0 5-2.85 5.94-3.38l9.81-5.68c.65-.38 1.31-.77 2-1.14 2.38-1.32 1.62-1.6 4-.14.47.28 3.77 2.23 4 2.22l4-2.24c.44-.26 1.68-.75 1.85-1.19v-6.66c-.8-.47-5.63-3.3-5.85-3.27s-5.52 3.1-5.78 3.31v2.21a25.67 25.67 0 01-3.24 1.8v-5.92c.61-.46 8.94-5.23 9.06-5.23l4.58 2.65a46 46 0 014.44 2.67v10.39c-.42.19-.78.45-1.21.68l-5.92 3.42c-1.57.93-1.68 1.23-2.37.82-1.61-1-3.16-1.88-4.76-2.77-.7-.38-.82-.6-1.25-.38l-3.52 2a20.23 20.23 0 002.47 1.52L38 51.82c.09 0 .22.14.33.19.26.13.08.07.3.1h.26l6.36-3.64c1.07-.65 2.11-1.21 3.17-1.85.45-.28 3-1.64 3.09-1.83a3.67 3.67 0 00.17-1.79c0-4-.06-8.41 0-12.38 0-.4.06-.55-.17-.85L31.69 18.26v-6.79c-.76-.36-5.51-3.33-5.86-3.29-.14 0-5.32 3-5.79 3.31v6.72c1.75 1.09 3.56 2.08 5.41 3.16.58.35.94-.08 1.45-.38 1-.6.68-.67 2.72.53a13 13 0 011.29.79l-3.46 2.08c-.28.17-.55.33-.88.5s-.56.45-.95.29l-8.82-5.06V9.6c1.54-.89 3-1.74 4.54-2.62.54-.31 4.28-2.56 4.5-2.55s7.81 4.59 9 5.17v7.19L38.77 19V7.51c-.11-.3-1.23-.83-1.54-1-.54-.32-1.06-.61-1.59-.93l-6.47-3.76L27.59.9A7.29 7.29 0 0026 0h-.26z" fill="#00d431" fill-rule="evenodd" data-name="Слой_1"/></g></g></svg>