<svg xmlns="http://www.w3.org/2000/svg" width="210mm" height="297mm" viewBox="0 0 21000 29700" shape-rendering="geometricPrecision" text-rendering="geometricPrecision" image-rendering="optimizeQuality" fill-rule="evenodd" clip-rule="evenodd"><defs><style>.fil0{fill:#00d431}</style></defs><g id="Слой_x0020_1"><g id="_2499112963136"><path class="fil0" d="M10083.66 15465.57l5.18-1.89c10.21-19.08 70.19-73.99 89.77-93.28l276.83-276.79c50.39-50.58 37.65-30.72 37.69-143.48.02-65.67 3.46-106.97 20.93-166.06 30.48-103.1 88.11-161.84 150.65-218.9 4.78-188.8-14.33-282.04-111.23-397.2-118.95-141.35-331.72-181.54-504.09-97.1-80.98 38.23-139.61 92.61-201.95 204.11-76.12 155.57-22.45 297.09-43.29 400.3l-135.57.87-.09 788.53 415.17.89zm-33.92-790.16l372.45.35c7.91-40.37 5.11-255.44-8.27-286.21-68.95-158.57-280.3-169.1-355.34-4.13-18.21 40.03-11.33 94.66-11.47 140.83-.09 32.12-4.07 124.12 2.63 149.16z"/><path class="fil0" d="M10185.65 15608.48c7.23 34.28 24.01 51.52 56.55 60.3 18.99 5.12 97.36 8.47 114.26.51 9.99-4.72 20.31-20.51 29.63-26.45 22.23-14.16 27.19 4.37 47.91-12.76 36.15-29.88 23.33-47.6 25.76-94.69 63.64-3.38 55.43 9.56 86.17-18.3 16.03-14.5 16.14-9.84 16.57-34.56.31-17.64-1-32.74 1.22-50.6 82.74-.36 170.5 19.54 170.44-137.51l54.32.01c30.6-1.36 19.16-18.36 40.1-16.75 35.93 2.78 74.38 29.59 180.35 10.09 79.51-14.63 128.32-46.69 178.32-85.26 71.25-54.97 126.65-168.65 129.81-269.63 1.65-52.49-7.47-74.72-12.99-120.99-23.03-39.84-8.83-52.18-67.51-128.84-26.25-34.28-61.67-65.75-103.65-91.13-243.49-147.19-553.34 24.28-570.16 297.47-5.15 83.76 12.65 106.36 26.48 173.73l-383.79 381.65c-12.52 12.04-20.69 15.51-21.64 41.38-1.29 35.02-1.39 87.9 1.85 122.33zm69.59-39.82c3.41 6.53.79 2.35 5.22 8.18 1.53 2.02 6.78 7.96 8.09 9.27 6.62 6.61 10.6 9.37 17.49 14.45l479.2-477.49-30.01-33.49-479.99 479.08zm795.97-888.4c-135.47 40.13-73.1 231.53 50.62 199.05 49.41-12.97 89.74-63.55 74.36-127.13-11.32-46.79-67.11-89.05-124.98-71.92z"/></g></g></svg>