<svg xmlns="http://www.w3.org/2000/svg" width="210mm" height="297mm" viewBox="0 0 21000 29700" shape-rendering="geometricPrecision" text-rendering="geometricPrecision" image-rendering="optimizeQuality" fill-rule="evenodd" clip-rule="evenodd"><path d="M9728.7 14601.71c156.05 6.09 1599.93-6.23 1613.27 5.53.69.87 1.46 1.27 1.64 2.9l3.42 70.48c-2.72 110.27 6.23 478.68-.96 545.55l-870.33 1.01-.42 123.52c37.73 5.14 99.51 2.15 138.17 2.25 46.09.11 92.81-.62 138.91-1.22 93.14-1.23 189.31 3.68 282.17.44 91.25-3.19 186.53 3.25 277.84.71 47.6-1.32 82.15-2.19 111.65-26.78 26.43-22.04 46.26-54.49 49.36-94.08 6.89-87.92-.79-438.67.26-560.08.82-93.97-1-188.19-.18-282.17.4-46.02.54-93 .17-138.99-1.48-181.92-157.8-144.85-274.14-146.6-93.02-1.4-189.27-2.17-282.17-.12-186.7 4.12-377.87-5.79-564.34-.84-90.95 2.41-186.65.98-277.83-.22-67.67-.9-218.43-6.64-271.36 10.82-89.34 29.47-76.06 129.29-77.16 206.49-.95 67.14-7.84 223.16 2.03 281.4zm1049.75 117.54c65.37 0 123.46 31.07 160.35 79.25 36.9-48.18 94.99-79.25 160.35-79.25 111.49 0 201.86 90.38 201.86 201.86 0 111.49-90.37 201.86-201.86 201.86-65.36 0-123.45-31.07-160.35-79.24-36.89 48.17-94.98 79.24-160.35 79.24-111.48 0-201.86-90.37-201.86-201.86 0-111.48 90.38-201.86 201.86-201.86zm-1085.93 369.28l206.26 216.09 336.44-321.13 50.02 52.4-336.45 321.13-52.4 50.02-50.02-52.4-206.25-216.09 52.4-50.02zm266.21-387.46c248.14 0 449.3 201.16 449.3 449.3 0 248.15-201.16 449.31-449.3 449.31-248.15 0-449.31-201.16-449.31-449.31 0-248.14 201.16-449.3 449.31-449.3zm-108.2-348.21c100.59 9.3 1490.9-2.26 1491.23-2.43 10.42-8.18 5.99-108.61 4.9-120.36l-1495.49-1.24-.64 124.03z" fill="#00bec8"/></svg>