<svg xmlns="http://www.w3.org/2000/svg" width="210mm" height="297mm" viewBox="0 0 21000 29700" shape-rendering="geometricPrecision" text-rendering="geometricPrecision" image-rendering="optimizeQuality" fill-rule="evenodd" clip-rule="evenodd"><path d="M9699.1 14353.92v1115.11c0 25.11 9.19 53.73 17.79 70.85 2.65 5.25 4.65 9.76 7.57 14.59 30.65 50.51 87.49 89.83 154.95 89.83h1225.91c14.57 0 27.98-2.28 39.55-4.77 23.18-5 43.62-15.13 62.8-27.86 15.41-10.23 23.35-19.15 35.4-32.09 1.96-2.1 3.08-3.78 4.98-6.11 22.31-27.39 38.59-70.54 38.59-108.47v-861.26c0-31.34-7.48-51.99-18.26-77.44-1.3-3.08-3.24-5.97-4.9-9.2-11.63-22.54-31.97-43.79-51.96-58.85-57-42.97-114.4-35.83-185.78-35.83H9920.71c-57.86 0-161.17 12.41-161.17-60.44l84.19-3.45c12.14-1.84 28.79-.88 41.73-1.58 4.48-.24 4.83-.99 10.03-1.06l52.44-1.95c7.59.04 12.55-1.07 21.14-1.01 20.26.14 63.37-4.16 83.58-4.07l32.26-.98c4.48-.24 4.83-.99 10.03-1.05 14.15-.17 28.27-.84 41.39-1.92 14.59-1.21 29.33.01 42.53-1.8 12.81-1.75 28.95.2 41.76-1.55l105.07-4.73c15.73-.02 47.65-3.17 63.43-3.05 20.57.15 62.59-4.05 83.57-4.07l32.3-.94c4.97-.15 5.04-.92 10.01-1.07 14.2-.43 28.48-.38 41.48-1.84 13.44-1.51 29.47.25 42.58-1.73l187.95-8.49c8.56.07 12.79-1.07 21.15-1.01l73.57-2.98c4.97-.15 5.03-.93 10.01-1.08l84.06-3.57c12.93-1.96 29.58.08 42.62-1.71l84.89-3.75v-128.94c0-21.28-6.44-42.29-14.53-55.99-32.33-54.79-108.41-59.85-166.79-59.85-7.31 0-14.43 1.74-20.43 2.74-7.42 1.23-13.46 2.24-20.73 3.45-13.21 2.19-27.36 4.57-40.58 6.76l-244.2 40.87c-109.05 18.23-216.53 36.07-325.51 54.25l-406.67 67.78c-13.96 2.33-26.78 4.16-40.45 6.89-7.23 1.45-13.06 2.9-19.57 4.61-5.55 1.46-13.03 3.62-18.42 5.76-20.02 7.94-21.97 8.05-39.69 18.73l-13.71 10.47c-10.55 8.86-20.04 20.71-25 34.43-4.17 11.53-7.93 24.45-7.93 40.42zm1339.66 611.43c48.95 0 88.64 39.68 88.64 88.63 0 48.95-39.69 88.63-88.64 88.63s-88.63-39.68-88.63-88.63c0-48.95 39.68-88.63 88.63-88.63z" fill="#ff3030"/></svg>