<svg xmlns="http://www.w3.org/2000/svg" width="210mm" height="297mm" viewBox="0 0 21000 29700" shape-rendering="geometricPrecision" text-rendering="geometricPrecision" image-rendering="optimizeQuality" fill-rule="evenodd" clip-rule="evenodd"><path d="M9807.55 14192.15l-1.8 46.78c-1.23 24.74-4.91 151.95-.77 167.76 68.96 2.63 182.77-13.36 203.01 73.66 10.06 43.23-4.15 87.49-27.76 106.09-30.39 23.93-64.17 28.19-111.91 26.96 12-5.84 30.31-5.17 42.11-12.13 31.57-18.64 42.42-73.76 6.6-105.39-21.86-19.3-51.33-17.68-86.1-19.02-52.15-2-47.65 1.64-87.44-15.8l-3.87-4.21c-4.68-5.07-2.64.3-3.49-10.61-1.72-22.15 1.11-56.17-2.61-87.03l.21-13.66c-8.52-3.53-37.46 2.39-45.34 8.94-36.71 8.66-62.35 32.56-77.11 61.75-24.59 60.51-9.42 130.22 30.05 159.33 57.76 42.6 166.04 26.96 162.58 46.31l.05 40.28c-.01 44.57-2.18 122.69.35 160.17 42.71 1.97 86.74-2.72 127.15 6.07 121.68 26.5 106.11 205.89-42.42 200.6 10.5-8.21 21.98-7.69 38.37-29.84 32.34-43.69 1.32-112.17-74.07-105.93l-29.07-1.28c-111.24-7.07-87.3-11.16-90.36-132.85-17.98-.14-64.79 15.81-78.28 24.02-79.84 48.55-67.52 170.81-13.07 208.68 7.27 5.56 13.77 9.28 23.19 13.78 7.3 3.48 20.47 6.42 26.25 11.71l34.26 5.62 77.57 8.18.29 205.75c32.49 1.93 64.62 1.4 97.85 2.99 24.01 1.15 40.31 3.93 59.18 13.8 36.2 18.92 50.9 46.27 49.17 99.05-3.48 36.18-14.54 52.46-37.44 68.37-21.25 14.76-51.53 24.33-84.11 22.68 7.6-6.13 18.57-10.37 26.96-17.43 27.97-23.55 31.48-59.93 11.18-89.37-11.61-16.84-27.15-25.92-56-28.02-88.74-6.46-178.96-1.39-135.33-134.82-31.36-2.87-74.32 21-93.24 33.36-23.49 21.91-37.04 35.73-42.04 79.53-20.47 179.42 177.69 139.72 198.28 160.83 4.59 3.69-.6-4.18 2.32 3.72.81 2.2.9 3.31 1.29 5.65.69 4.14.85 8.66 1.57 13.1l3.26 59.73 5.22 44.04c10.44 27.67 7.99 39.88 30.52 76.48 39.09 63.5 114.25 128.04 194.38 134.82 87.9 7.44 332.43 3.67 435.34 3.72 146.28.08 292.55.04 438.82-.13 72.25-.08 146.41.79 218.4-1.85 108.43-3.97 130.93-46.93 161.76-59.65 1.83-4.5 24.35-24.63 30.15-31.27 4.18-4.79 24.27-30.52 26.33-31.64 5.8-13.9 15.76-27.65 23.09-43.72 6.74-14.77 11.13-33.1 15.98-46.41-1.36-1424.57.54-382.6-1.36-1424.57-6.11-77.54-70.38-145.59-112.5-174.73-22.44-15.52-63.52-39.37-98.13-44.4-278.48-40.46-784.26-5.84-1084.64-5.84-23.85 9.59-47.44-6.98-116.71 22.49-86.04 36.6-165.48 131.47-166.12 244.8zm1078.43 1104.56l98.06 90.04 144.56-157.44 18.27 16.77-144.57 157.44-16.77 18.27-18.27-16.78-98.05-90.03 16.77-18.27zm114.61 200.71c-100.98 0-182.84-81.86-182.84-182.84s81.86-182.84 182.84-182.84 182.84 81.86 182.84 182.84-81.86 182.84-182.84 182.84zm-363.01-143.43c36.7-.11 75.04-.95 113.76-3a254.128 254.128 0 01-2.63-36.41c0-139.11 112.77-251.88 251.88-251.88 8.64 0 17.18.44 25.6 1.29-.79-2.79-1.61-5.52-2.44-8.17-11.1-35.23-25.95-73.42-46.13-100.42-8.38-11.2-26.18-23.62-41.26-31.61-11.96-6.34-78.74-29.37-103.2-40.02-9.15-3.99-16.05-7.53-24.91-12.06-6.14-3.15-18.58-11.9-23.93-13.28-6 2.95-15.03 9.68-18.48 13-1.17 2.67 1.65 88.63 1.8 105.14.16 17.86 1.02 16.84-4.63 31.88-13.4 35.59-25.94 69.8-39.31 105.04l-68.62 183.42c-3.47 9.3-6.72 18-18.67 18.16-16.69.22-20.4-21.8-28.47-43.11-7.07-18.68-12.75-34.84-19.82-52.99-26.57-68.32-52.4-141.56-78.66-210.15-5.44-14.22-4.92-13.57-4.68-31.1.15-11.77.02-24 .52-35.72.82-19.72 2.73-52.35.83-71.87-4.02-1.82-7.61-4.38-11.39-7.11-11.14-8.1-7.18-3.75-35.79 11.28-16.07 8.45-33.87 15.55-52.02 22.92-40.86 16.59-72.36 20.26-102.16 48.1-33.5 31.32-58.57 109.53-67.58 157.53-7.84 41.73-12.06 94.95-12.54 138.3-.24 21.9 1.07 49.04 14.94 60.58 14.93 12.42 95.1 28.09 117.57 32.33 35.28 6.64 99.28 12.79 136.01 14.91 48.41 2.79 94.45 5.17 144.41 5.02zm-7.63-367.6c-4.38 2.28-15.51 14.51-19.65 18.36-5.75 5.37-14.63 14.98-20.38 18.92.01 8.99 8.16 54.23 10.26 66.7l21.73 130.28c2.05 11.79 6.99 58.27 12.2 63.99 8.13 3.97 9.01-17.32 10.64-26.78 2.06-12.07 3.66-22.24 5.4-34.14 3.23-22.07 7.3-44.64 11.11-66.15 3.98-22.57 7.24-43.66 10.86-66.44 1.9-11.95 10.53-59.25 10.48-67.16l-40.07-38.17c1.63-8.4 39.74-58.15 42.85-68.65-13.69 1.16-24.47 6.8-50.11 6.71-9.46-.04-17.78-.75-26.41-2.21-8.47-1.45-14.49-4.3-22.61-5.62 3.47 12.04 41.31 59.73 43.7 70.36zm-30.47-638.74c-38.54 4.03-58.48 11.15-87.77 31.72-22.73 15.97-39.96 38.4-55.06 65.09-22.39 39.58-25.02 77.6-15.33 125.33 7.32 36.16 4.93 15.82-2.85 33.2-1.69 3.78-2.68 7.61-3 11.9-1.48 19.61 5.72 58.15 15.22 73.64 7.63 12.45 4.71 2.32 8.38 21.42 1.67 8.7 3.84 16.12 6.31 23.87 9.47 29.63 25.28 55.13 42.81 77.5 14.65 18.7 37.59 40.64 64.71 55.35 94.61 51.34 177.08-19.88 220.58-103.97 15.13-29.21 21.09-63.24 23.08-67.05 3.85-7.33 4.49-4.14 10.45-19.55 6.46-16.69 14.87-57.46 3.79-75.29-6.71-10.8-9.08-3.36-3.81-22.05 23.24-82.46 3.22-132.92-47.56-172.67-35.86-28.09-124.82-64.2-179.95-58.44z" fill="#00d431"/></svg>