<svg xmlns="http://www.w3.org/2000/svg" width="210mm" height="297mm" viewBox="0 0 21000 29700" shape-rendering="geometricPrecision" text-rendering="geometricPrecision" image-rendering="optimizeQuality" fill-rule="evenodd" clip-rule="evenodd"><path d="M10503.49 15433.41l276.69-201.04 276.7-201.03-105.69-325.29-105.69-325.27h-684.04l-105.69 325.27-105.69 325.29 276.7 201.03 276.71 201.04zm668.19-901.17c-12.36-19.92-24.96-33.39-37.86-40.15-12.87-6.86-25.19-8.42-36.84-4.78-20.02 6.21-32.99 22.79-38.93 49.65-5.94 26.84-2.4 61.39 10.68 103.41 12.96 41.7 29.56 71.97 49.74 90.91 20.18 18.95 40.3 25.36 60.31 19.14 12.42-3.86 21.8-12.6 28.22-26.26 6.4-13.53 9.17-30.77 8.31-51.57 13.59 22.57 28.07 38.36 43.52 47.56 15.48 9.1 30.66 11.33 45.7 6.65 24.81-7.71 40.96-26.86 48.44-57.55 7.52-30.59 4.57-67.33-8.78-110.27-12.4-39.88-29.12-70.99-50.24-93.59-24.81-26.58-50.49-35.74-76.87-27.54-14.53 4.51-26.04 14.59-34.54 30.13-8.51 15.53-12.11 36.94-10.86 64.26zm-46.17 33.62c10.22-3.17 19.73-.96 28.39 6.65 8.7 7.73 15.47 19.41 20.33 35.05 4.96 15.94 5.98 29.53 3.13 40.85-2.84 11.3-9.4 18.61-19.62 21.79-9.66 3.01-18.86.69-27.6-6.9-8.74-7.7-15.55-19.26-20.36-34.7-5.01-16.14-6.06-29.84-3.14-41.17 2.9-11.32 9.2-18.56 18.87-21.57zm112.39-43.69c14.27-4.44 27.22-1.96 38.88 7.42 11.67 9.37 20.25 22.86 25.75 40.55 5.4 17.37 5.97 32.9 1.83 46.61-4.14 13.74-13.49 22.81-27.95 27.32-12.66 3.93-24.61 1.36-35.87-7.81-11.27-9.16-19.67-22.58-25.17-40.26-6.39-20.55-6.77-37.14-1.19-49.98 5.63-12.71 13.49-20.66 23.72-23.85zm-851.37 566.49h-91.61v-346.6c-33.43 31.44-72.88 54.72-118.36 69.77v-83.58c23.96-7.8 49.94-22.63 77.91-44.58 28.08-21.85 47.25-47.36 57.73-76.45h74.33v481.44zm448.13-361.53l-88.93 9.81c-2.12-18.28-7.8-31.76-16.95-40.45-9.13-8.7-20.95-13.05-35.54-13.05-19.4 0-35.78 8.7-49.15 26.08-13.38 17.39-21.74 53.61-25.18 108.66 22.84-26.97 51.15-40.45 85.13-40.45 38.23 0 71.11 14.6 98.41 43.79 27.31 29.32 40.9 66.98 40.9 113.23 0 49.04-14.37 88.49-43.13 118.14-28.75 29.64-65.64 44.47-110.66 44.47-48.26 0-88.05-18.84-119.14-56.51-31.09-37.67-46.7-99.3-46.7-185.11 0-87.93 16.27-151.35 48.7-190.24 32.43-38.9 74.57-58.28 126.39-58.28 36.32 0 66.42 10.25 90.27 30.76 23.84 20.39 39.01 50.14 45.58 89.15zm-207.96 200.38c0 29.87 6.91 52.94 20.62 69.21 13.71 16.27 29.31 24.41 47.03 24.41 16.94 0 31.09-6.69 42.47-19.95 11.24-13.38 16.93-35.22 16.93-65.53 0-31.21-6.13-54.05-18.27-68.65-12.27-14.49-27.42-21.73-45.7-21.73-17.72 0-32.54 6.9-44.81 20.84-12.14 13.82-18.27 34.33-18.27 61.4zm-123.21-1048.08l276.69 83.34 276.7 83.35-105.69 134.86-105.69 134.86h-684.04l-105.68-134.86-105.7-134.86 276.7-83.35 276.71-83.34zm914.05 664.5l6.24 288.92 6.23 288.9-160.91-58.84-160.91-58.85-105.69-325.27-105.69-325.28 95.59-142.2 95.6-142.19 164.77 237.4 164.77 237.41zm-1849.34 0l-6.25 288.91-6.22 288.91 160.91-58.84 160.91-58.84 105.7-325.29 105.68-325.27-95.59-142.2-95.6-142.19-164.77 237.4-164.77 237.41zm1499.34 1087.28l-272.85 95.22-272.84 95.2 6.24-171.22 6.24-171.23 276.69-201.02 276.71-201.04 164.78 46.97 164.76 46.99-174.86 230.06-174.87 230.07zm-1148.52 0l272.85 95.22 272.84 95.2-6.24-171.22-6.24-171.23-276.7-201.03-276.7-201.03-164.78 46.97-164.76 46.99 174.86 230.06 174.87 230.07zm-52.03-245.12l71.33 47.41c-6.06 12.18-6.55 24.69-1.51 37.55 5.06 12.86 14.23 24.44 27.5 34.76 14.27 11.09 28.89 17.07 43.87 18.04 14.89.9 26.76-4.26 35.58-15.6 8.3-10.68 10.25-22.8 5.72-36.33-4.55-13.54-13.5-25.55-27.03-36.05-8.89-6.91-20.27-14.04-34.27-21.51l34.47-28.47c18.52 14.89 34.77 23.46 48.78 25.84 13.99 2.44 24.38-.82 31.23-9.64 5.8-7.49 6.77-16.23 3-26.37-3.84-10.09-11.74-19.79-23.83-29.19-11.92-9.26-24.03-14.62-36.32-16.07-12.39-1.5-23.19 1.93-32.57 10.18l-58.75-56.32c14.99-10.02 30.03-15.62 45.37-16.69 15.21-1.07 32.73 2.37 52.41 10.21 19.62 7.89 39.52 19.63 59.46 35.13 34.14 26.53 56.36 54.48 66.63 83.85 8.5 24.14 7.42 43.14-3.29 56.92-15.14 19.48-44.7 21.59-88.63 6.06 18.67 18.89 30.5 37.84 35.66 57.06 5.05 19.14 2.41 35.45-8.01 48.85-15.11 19.45-39.67 26.98-73.59 22.64-33.89-4.35-68.14-19.94-102.79-46.87-32.8-25.5-55.53-52.43-68.06-80.78-12.68-28.36-13.44-53.19-2.36-74.61zm906.75 87.29l-30.21-39.54 239.94-183.21 23.78 31.13c-10.76 27.03-17.83 59.39-21.37 97.26-3.47 37.8-1.07 73.38 7.3 106.57 8.39 33.2 20.2 59.6 35.38 79.14l-67.39 51.47c-22.4-31.79-36.08-71.24-40.94-118.36-4.74-47.16-.5-95.91 13.12-146.33l-159.61 121.87zM9706.47 14461.6l26.13-84.03 193.94 60.3c-8.05-36.14-9.83-76.38-5.29-120.7l46.78 14.54c-2.46 23.34-1.59 49.72 2.71 79.21 4.24 29.55 13.04 51.58 26.33 66.26l-21.21 68.18-269.39-83.76zm185.93 352.18c-13.23 42.54-32.85 72.87-58.9 91.13-30.81 21.68-71.74 24.65-122.63 8.84-50.82-15.82-82.88-41.58-96.15-77.22-10.93-29.51-9.79-65.48 3.43-108.02 13.28-42.72 34.02-74.04 62.26-93.97 28.22-19.93 68.12-21.87 119.63-5.85 50.58 15.72 82.53 41.46 95.79 77.08 10.93 29.55 9.8 65.49-3.43 108.01zm-42.65-13.25c3.12-10 3.91-19.63 2.34-28.64-1.49-9.1-6.68-17.44-15.64-24.94-11.5-9.84-33.05-19.68-64.55-29.47-31.56-9.82-53.99-13.99-67.36-12.54-13.39 1.44-23.25 5.44-29.59 11.99-6.33 6.54-11.05 14.84-14.15 24.84-3.12 10.03-3.91 19.66-2.38 28.75 1.53 9.01 6.72 17.33 15.68 24.83 11.38 9.84 32.88 19.65 64.43 29.45 31.49 9.8 53.92 13.97 67.29 12.52 13.38-1.45 23.29-5.42 29.64-11.97 6.42-6.53 11.18-14.79 14.29-24.82zm627.81-831.86v54.29h256.56v45.07l-272.08 171.76h-101.34v-171.57h-78.2v-45.26h78.2v-54.29h116.86zm0 99.55v92.19l143.78-92.19h-143.78z" fill="#ffab00"/></svg>