<svg xmlns="http://www.w3.org/2000/svg" width="210mm" height="297mm" viewBox="0 0 21000 29700" shape-rendering="geometricPrecision" text-rendering="geometricPrecision" image-rendering="optimizeQuality" fill-rule="evenodd" clip-rule="evenodd"><path d="M10350.93 14163.61c-45 15.4-65.67 12.83-130.68 40.89-20.7 8.93-39.41 17.66-58.43 27.9l-55.47 32.58-108.47-107.56-198.32 197.28 108.22 108.86-32.38 54.7c-10.24 18.83-19.11 37.77-27.99 58.34-28.61 66.25-25.76 86.43-41.48 132-3.54 4-.39 2.65-9 2.85l-144.12-.09.06 278.39c26.07-.19 52.19.02 78.27-.05 13.14-.03 26.27.08 39.4.1 10.39.01 32.8-2.08 35.32 2.67 2.91 7.69 10.99 47.02 17.82 67.38 14.55 43.37 29.41 82.18 51.03 121.65 5.39 9.82 10.23 18.65 15.66 27.51 5.25 8.56 13.32 19.64 16.98 27.94l-107.64 108.51 197.36 198.29 108.84-108.22 54.69 32.39c38.32 21.06 79.11 37.25 121.4 51.14 11.4 3.74 21.74 6.73 33.44 9.75 9.77 2.53 27.48 5.39 35.52 8.62 5.69 3.12 2.74 65.3 2.72 74.73-.06 25.99.48 52.47-.11 78.38l278.47.04c.1-25.54.08-51.04 0-76.54l-.13-67.67c.21-8.51-1.19-5.43 2.91-8.86l67.35-17.88c52.49-17.42 102.59-37.99 149.18-66.71 8.34-5.14 19.81-13.42 27.94-16.91l108.51 107.58 198.3-197.34-108.25-108.83 32.4-54.74c24-43.39 48.2-105.58 60.85-154.76 2.25-8.72 5.85-29.12 8.73-35.41 3.42-4.13.16-2.72 8.87-2.92l144.23.16-.04-278.51-136.55.02c-6.39.06-14.13 1.9-16.57-2.66-5.65-13.83-14.69-71.26-41.04-130.7-14.5-32.71-25.39-56.08-43.5-85.91-5.5-9.06-12.99-18.9-16.9-27.97l107.59-108.52-197.36-198.28-108.84 108.25-54.68-32.43c-18.22-10.06-38.17-19.48-58.35-27.89-21.33-8.88-39.91-15.61-63.03-23.24-22.41-7.4-48.22-10.97-68.91-18.34-3.97-3.47-2.66-.19-2.85-8.97l.15-144.12-278.33.03.1 145.97c-.53 7.15 1.51 4.73-2.89 7.13zm171.01 267.47v92.24c31.16 3.28 57.99 9.69 80.21 19.23 22.36 9.69 41.74 24.15 58.44 43.68 13.12 14.91 23.26 30.27 30.41 45.92 7.16 15.8 10.74 30.11 10.74 43.23 0 14.61-5.37 27.29-15.96 37.87-10.73 10.59-23.55 15.95-38.76 15.95-28.62 0-47.26-15.5-55.61-46.36-9.69-36.38-32.79-60.68-69.47-72.61v181.74c36.08 9.84 65 18.93 86.32 27.13 21.47 8.05 40.7 19.83 57.55 35.33 18.04 15.95 32.05 35.19 41.89 57.4 9.69 22.36 14.61 46.66 14.61 73.2 0 33.25-7.75 64.25-23.41 93.18-15.65 29.07-38.61 52.62-68.87 71.11-30.42 18.34-66.35 29.22-108.09 32.65v88.42l6.55-.4c219.72-16.36 402.42-212.66 383.83-455.1-15.4-200.92-178.12-368.58-390.38-383.89v.08zm-55.46 839.21v-87.43c-33.99-3.72-63.81-11.77-89.3-24-25.49-12.22-46.81-27.43-63.81-45.62-16.99-18.34-29.66-37.27-37.71-56.8-8.2-19.68-12.23-39.06-12.23-57.99 0-13.87 5.37-26.54 16.4-37.72 10.88-11.18 24.45-16.85 40.7-16.85 13.12 0 24.15 2.98 33.25 9.1 8.94 6.11 15.2 14.76 18.78 25.79 7.75 23.85 14.61 42.19 20.42 54.86 5.97 12.67 14.76 24.3 26.54 34.74 11.78 10.43 27.43 18.48 46.96 24v-203.05c-39.06-10.89-71.56-22.81-97.8-36.08-26.23-13.27-47.55-32.05-63.8-56.5-16.25-24.45-24.45-55.91-24.45-94.37 0-50.09 15.95-91.24 47.85-123.15 31.91-32.05 77.97-50.68 138.2-55.9v-91.35l.02-1.49c-2.67.14-5.33.28-8.01.47-220.17 15.47-403.93 212.42-385.22 454.26 15.65 202.22 179.2 371.21 393.21 385.08zm0-494.57v-167.28c-24.45 7.31-43.53 16.85-57.25 28.78-13.71 11.92-20.57 30.11-20.57 54.26 0 22.96 6.41 40.41 19.23 52.18 12.82 11.78 32.35 22.52 58.59 32.06zm55.46 129.7v191.42c29.37-5.81 52.03-17.59 68.13-35.33 15.95-17.89 24.01-38.46 24.01-62.17 0-25.34-7.76-44.87-23.41-58.74-15.51-13.86-38.46-25.64-68.73-35.18z" fill="#00d431"/></svg>