<svg xmlns="http://www.w3.org/2000/svg" width="210mm" height="297mm" viewBox="0 0 21000 29700" shape-rendering="geometricPrecision" text-rendering="geometricPrecision" image-rendering="optimizeQuality" fill-rule="evenodd" clip-rule="evenodd"><defs><style>.fil0{fill:#ffab00}</style></defs><g id="Слой_x0020_1"><g id="_2499204227264"><path class="fil0" d="M10369.94 14483.2c2.48 1.46 4.26-2.85 5.66 15.17l-.38 1205.55h240.38l.65-1222.73 64.18 13.32 1.14 370.27 562.29.15-.4-374.78-275.07-1.3c38.49-9.77 71.22-19.15 103.67-33.65 30.58-13.65 66.56-27.28 94.03-41.7-8.12-77.97-34.88-100.07-79.83-138.07-63.5-53.67-15.14-85.19-20.64-167.25-2.31-34.45-14.75-85.42-28.86-111.05-30.06 4.72-118.13 35.36-147.75 48.05-92.8 39.78-191.42 115.18-256.35 186.26l-45 51.34c-8.66 10.3-12.56 17.66-21.3 24.93 0-62.42 6.41-71.54 42.9-99.87-13.27-2.68-128.38-2.59-141.85.1-43.41 8.66-46.51 50.77-46.51 98.59l-23.88-28.26c-18.12-22.29-74.71-82.9-94.29-98.48-9.45-7.51-16.74-14.99-26.01-22.3-18.6-14.66-34.85-27.48-53.87-42.47-65.18-51.37-174.22-95.21-270.19-117.89-19.14 18.35-36.88 74.76-37.15 110.06-.18 24.18 2.54 44.82 6.84 67.23 14.87 77.58 22.31 60.4-30.08 93.65-50.61 32.12-69.69 78.49-69.54 145.31 47.45 25.94 141.58 62.77 197.51 76.6l-278.33.2-.03 374.65 562.92.07-.12-335.13c-.4-58.75.4-19.08 65.26-46.57z"/><path class="fil0" d="M9837.36 15703.92h466.73l.55-763.27-467.8.48zm844.62 0h464.68v-762.53l-465.11-.79z"/></g></g></svg>