<svg xmlns="http://www.w3.org/2000/svg" width="210mm" height="297mm" viewBox="0 0 21000 29700" shape-rendering="geometricPrecision" text-rendering="geometricPrecision" image-rendering="optimizeQuality" fill-rule="evenodd" clip-rule="evenodd"><path d="M10395.05 13995.48c-19.29 3.42-42.77 5.59-64.17 9.97-21.5 4.4-42.53 10.44-63.13 14.05l-62.08 19.29c-29.72 14.41-61.48 23.81-90.51 38.35-29.15 14.61-56.38 29.74-82.72 46.58-29.7 19-50.54 33.79-75.69 53.86-21.49 17.15-49.96 40.63-66.02 57.79-14.74 13.74-23.66 24.83-36.39 38.91-11.08 12.24-23.32 29.43-33.69 37.5-6.07 12.86-14.35 20.73-22.85 32.13-6.63 8.88-15.73 21.83-21.91 31.77-7.37 11.85-33.54 58.78-42.26 65.91-1.05 12.88-5.34 16.68-12.96 30.47-16.02 28.95-29.19 74.59-39.05 92.01-6.35 22.71-13.38 49.2-21.54 69.36-1.73 17.46-8.76 40.6-12.48 59.42-4.07 20.62-6.69 41.1-8.96 61.8l-4.63 66.44c2.96 105.83 5.19 170.47 33.48 269.65 30.88 108.26 90.17 219.57 159.06 302.06 74.3 88.96 150.59 154.99 252.81 211.36 141.33 77.95 322.36 122.37 508.06 100.89 139.85-16.18 281.53-66.94 393.99-146.01 16.7-11.74 30.75-24.23 48.3-33.63 1.79-6.1 8.09-9.66 15.07-11.67 6.2-10.63 45.69-43.62 55.59-53.57 140.34-140.88 219.43-305.61 248.18-514.21 14.92-206.57-21.52-397.55-132.81-563.46-17.03-25.39-32.03-47.07-49.08-67.82l-27.28-32.62c-7.01-8.2-24.53-24.74-28.66-32.27-9.94-4.54-38.76-38.47-63.54-58.71l-15.6-12.58c-2.89-3.34-1.95-2.63-3.27-4.97-12.09-4.39-42.58-29.82-58.99-40.5-18.59-12.11-40.92-26.51-61.11-36.75-46.37-23.51-84.56-41.44-134.79-59.94-26.72-7.95-48.66-14.75-77.03-21.68l-73.64-15.44c-6.98-2.26-3.44-.84-7.12-3.21-10.83 2.11-19.57.92-30.54-1.42l-65.03-4-61.26.1-63.75 4.79zm82.79 544.44l-.41 37.38c-37.39-.85-291.29-2.62-308.58 1.75l.27 65.21-19.86 6.82c-115.37 33.41-115.24 209.36 19.26 228.9l-.66 28.84c-44.82.02-218.86-5.83-248.35 1.83l.08 74.94c-144.81 17.41-131.82 230.4 11.14 233.38 149.79 3.14 159.83-215.15 20.9-232.69l-.25-45.96h216.72l.33 45.64c-143.7 19.19-129.66 232.1 14.97 233.05 132.91.88 173.94-195.94 16.47-234.11l.08-43.46 221.55-1.17.33 41.88c-.9.45-2.15.05-2.6 1.12l-17.89 5.13c-124.44 30.47-113.41 219.55 18.95 230.2 148.46 11.95 175.78-204.34 33.2-231.34l-.03-76.67c-29.17-7.12-199.36 2.33-252.92-2.51l-.51-26.98c11.84-6.66 45.63-10.37 68.89-37.55 38.27-44.71 41.72-110.44 3.04-155.09-20.79-23.99-31.53-27.25-69.22-41.04l-2.07-38.53 277.11-.17.02 38.98c-143.5 20.69-127.64 238.09 21.29 233.1 61.67-2.06 109.34-50.47 112.7-110.58 3.94-70.46-42.63-110.06-102.28-123.53l-.11-37.03c27.24-2.92 258.43-3.48 275.79 1.1l-.23 35.04c-38.26 14.9-43.76 11.31-69.72 37.72-55.79 56.74-41.53 174.96 69.42 196.22.47 29.33 2.92 22.82-39.14 22.69-15.06-.04-30.11-.02-45.16-.09l.19 82.54c-159.23 38.11-116.56 234.99 16.57 234.15 145.63-.92 155.83-215.89 15.06-232.96l-.08-52.03 283.06.02.28 51.95c-139.04 16.08-132.06 228.4 11.12 232.96 148.39 4.72 166.24-211.46 20.9-232.99l-.31-81.75c-31.31-7.63-184.83-1.72-229.22-1.85l-1.47-22.78c57.05-10.03 101.13-51.59 101.4-115.32.14-33.13-11.96-61.03-29.97-79.06-8.94-8.95-17.21-17.63-29.7-24.17-19.2-10.06-19.14-7.23-32.16-12.16l-9.42-4.63.07-65.17c-26.19-6.77-249.41 1.22-306.75-2.4l-.48-35.85c158.16-38 115.01-234.95-16.55-234.06-61.75.42-112.27 48.08-115.96 107.36-4.23 67.86 40.84 117.16 100.9 125.78z" fill="#00bec8"/></svg>