<svg xmlns="http://www.w3.org/2000/svg" viewBox="0 0 46.74 46.69"><defs><style>.cls-1{fill:#00d431;fill-rule:evenodd}</style></defs><g id="Слой_2" data-name="Слой 2"><g id="Слой_1-2" data-name="Слой 1"><g id="Слой_1-3" data-name="Слой_1"><g id="_2499112963136" data-name="2499112963136"><path class="cls-1" d="M11.77 40.78l.15-.06a23.84 23.84 0 012.54-2.64l7.85-7.85c1.43-1.43 1.06-.87 1.07-4.06a14.58 14.58 0 01.62-4.71 12.9 12.9 0 014.27-6.2c.13-5.36-.41-8-3.15-11.26A12 12 0 0010.8 1.24C8.5 2.33 6.84 3.87 5.07 7c-2.16 4.41-.63 8.42-1.22 11.35L0 18.4v22.35h11.77zm-1-22.4h10.59c.23-1.14.15-7.24-.23-8.11a5.4 5.4 0 00-10.07-.12c-.52 1.13-.32 2.68-.33 4a30.79 30.79 0 00.08 4.23z"/><path class="cls-1" d="M14.66 44.83a2 2 0 001.6 1.71 9.53 9.53 0 003.24 0c.28-.13.58-.58.84-.75.63-.4.77.13 1.36-.36 1-.85.66-1.35.73-2.68 1.8-.1 1.57.27 2.44-.52.46-.41.46-.28.47-1a11.6 11.6 0 010-1.44c2.34 0 4.83.56 4.83-3.89h1.54c.87 0 .54-.52 1.13-.48 1 .08 2.11.84 5.12.29a11 11 0 005-2.42 10.83 10.83 0 003.68-7.64 17.42 17.42 0 00-.37-3.43c-.65-1.13-.25-1.48-1.91-3.65A10.47 10.47 0 0041.51 16a10.72 10.72 0 00-16.16 8.44c-.15 2.37.36 3 .75 4.92L15.22 40.19a1.3 1.3 0 00-.61 1.17 30.87 30.87 0 00.05 3.47zm2-1.13a.61.61 0 00.15.23 3.23 3.23 0 00.23.27 3.65 3.65 0 00.5.4l13.55-13.53-.85-.95L16.63 43.7zM39.2 18.52c-3.84 1.14-2.08 6.56 1.43 5.64a3 3 0 002.11-3.6 2.9 2.9 0 00-3.54-2.04z"/></g></g></g></g></svg>