<svg xmlns="http://www.w3.org/2000/svg" viewBox="0 0 50.69 50.65"><defs><style>.cls-1{fill:#ffab00;fill-rule:evenodd}</style></defs><g id="Слой_2" data-name="Слой 2"><g id="Слой_1-2" data-name="Слой 1"><g id="Слой_1-3" data-name="Слой_1"><g id="_2499112970336" data-name="2499112970336"><path class="cls-1" d="M10.13.47L9.61 1c.32.34.74.69 1.06 1.07a13.47 13.47 0 001.06 1.08 9.41 9.41 0 012 2.31 6 6 0 01-.17 3.76 9.65 9.65 0 01-4.3 4.27 6.11 6.11 0 01-3.74.18c-1.2-.5-4-3.89-4.46-4.11a7.33 7.33 0 00-.7.67c-.35.35-.36.27-.3 1a10.85 10.85 0 001.16 4 7.37 7.37 0 00.46.83 4.5 4.5 0 01.49.83l.11.07a11.22 11.22 0 002.27 2.38c.05.23 1.42 1.06 1.59 1.16.56.35 1.7.8 1.85.94a8.82 8.82 0 011.01.3 9 9 0 002.14.34 6.36 6.36 0 001.27-.08 4.7 4.7 0 011-.2c.08-.06 0 0 .12-.08l.62-.24a2.73 2.73 0 01.72-.27.78.78 0 01.11.2c.19 0 .83.77 1 .91.32.32.68.63 1 1a.88.88 0 01.32.37c.19.05.41.35.56.49l.5.51 1 1 1.05 1c.35.35.73.69 1.05 1.06a.9.9 0 01.31.38c.12 0 0 0 .16.08l1.78 1.8.32.37c.19 0 .41.34.55.48l3.64 3.66a1 1 0 01.32.37l.21.14.2.2c.15.15.26.25.4.41l.17.18a15.38 15.38 0 00-.58 1.51l-.24.95-.05 1.16.09.93.24 1.3c.07.11.34 1 .44 1.27a19.63 19.63 0 001.9 3.25 5 5 0 01.69.69c.24.27.41.4.7.69a11.47 11.47 0 006.41 3c.81.09.9.14 1.25-.2a6.1 6.1 0 00.74-.8c-.47-.69-3.61-3.26-4.1-4.49a6.07 6.07 0 01.21-3.78 9.65 9.65 0 014.33-4.24 6.16 6.16 0 013.73-.14A22.88 22.88 0 0148.61 40a9.32 9.32 0 001.07 1l1-1v-.69a6.53 6.53 0 01-.19-1.08c-.06-.3-.14-.67-.23-1a11.87 11.87 0 00-1.51-3.22c-.48-.72-.67-.86-1-1.33a5.46 5.46 0 00-.38-.44l-1.16-1.04a9.3 9.3 0 01-1-.74 10.42 10.42 0 00-6.77-1.85A7.87 7.87 0 0037 29c-.39.14-.87.41-1.22.51L21.17 14.86c.07-.27.3-.7.41-1a8 8 0 00.49-3.53c-.07-.11-.26-1.23-.42-1.74a11.85 11.85 0 00-2.2-4.1 11.21 11.21 0 00-1.1-1.18L18 3a12 12 0 00-7-3c-.59 0-.67.19-.93.47z"/><path class="cls-1" d="M7.76 48A4.78 4.78 0 019 47.55l4-1.31c.75-.23.67-.17 1.12-.63.71-.75 10.35-10.31 10.51-10.61-.95-1-2.19-2.18-3.2-3.22l-.15-.21a7.3 7.3 0 01-1.1-1.05l-.82-.8c-.36.29-.73.71-1.08 1.06-.89.89-7 7.09-7.45 7.43a14.61 14.61 0 01-1.51-1.46c.13-.24 3.75-3.78 4.27-4.3s4.1-4 4.23-4.28l-2.36-2.34c-.4.34-.87.85-1.26 1.25l-8.75 8.78c-.66.65-.9.76-1.11 1.42C3.88 38.68.18 49.92.09 50.41c.44-.09 3.14-1 3.81-1.22S7.39 48 7.76 48zm39.48-35.49c.1-.21 0-.1.2-.2l.18-.24.25-.26a1.85 1.85 0 01.5-.43c.1-.21 0-.1.2-.2a7.34 7.34 0 01.94-1l1-1C50.37 9 45.27 4 44.74 3.44S44 2.7 43.58 2.29L41.33 0a17.75 17.75 0 00-1.55 1.49c-.4.4-4.35 4.3-4.5 4.54l3.42 3.45c.23.22.72.79 1.14 1.17l4 4a1.52 1.52 0 00.27.29 2.8 2.8 0 00.31.28c.21-.12 1.72-1.67 2.09-2.05a3.42 3.42 0 01.72-.66zm-6.17 5.58a.53.53 0 01-.19-.13l-.14-.15-.27-.27c-.72-.66-1.4-1.4-2.1-2.09l-4.17-4.17c-.29-.3-1.9-2-2.11-2.06C31 10.29 30 11.3 28.93 12.37c-.4.4-3 2.93-3.1 3.17l2.29 2.32c.45-.16 3.46-3.59 4-3.9a13.83 13.83 0 011.47 1.51c-.48.51-3.77 3.72-3.88 4l5.29 5.2 6.26-6.26c-.09-.18 0 0-.12-.17s0 0-.06-.09v-.06z"/></g></g></g></g></svg>