<svg xmlns="http://www.w3.org/2000/svg" viewBox="0 0 55.75 42.47"><g data-name="Слой 2"><g data-name="Слой 1"><path d="M6.22 14.18c4.42.18 45.35-.17 45.73.16a.1.1 0 010 .08l.1 2c-.08 3.13.18 13.57 0 15.46H27.38v3.5a36.49 36.49 0 003.92.07h3.93c2.64 0 5.37.11 8 0s5.29.09 7.88 0c1.35 0 2.33-.07 3.16-.76a3.88 3.88 0 001.4-2.67c.2-2.49 0-12.44 0-15.88V4.2C55.67-.95 51.2.1 47.9.05c-2.64 0-5.37-.06-8 0-5.29.11-10.71-.17-16 0-2.58.07-5.29 0-7.87 0-1.92 0-6.19-.19-7.69.3C5.81 1.19 6.19 4 6.16 6.21a67.92 67.92 0 00.06 8zM36 17.51a5.74 5.74 0 014.55 2.25 5.73 5.73 0 110 7A5.72 5.72 0 1136 17.51zM5.19 28L11 34.11 20.57 25 22 26.49l-9.54 9.1L11 37l-1.45-1.47L3.7 29.4zm7.55-11A12.74 12.74 0 110 29.74 12.73 12.73 0 0112.74 17zM9.67 7.13c2.85.26 42.26-.07 42.27-.07.3-.23.17-3.08.14-3.41H9.69z" fill="#00bec8" fill-rule="evenodd" data-name="Слой_1"/></g></g></svg>