<svg xmlns="http://www.w3.org/2000/svg" viewBox="0 0 51.75 47.27"><g data-name="Слой 2"><g data-name="Слой 1"><path d="M0 12.87h12.87V8.71c1.36-.24 10.61-.11 12.74-.1H38.5c8.36 0 8.79-.81 8.82 4 0 2 .11 4.42 0 6.44-.06 1.09-.29 1.74-1.09 2.1a8.26 8.26 0 01-3 .26v-4.25c-.34.07-7 3.37-8 3.9-.82.42-4.47 2.3-4.91 2.37v-6.14h-13v4.16H9.21c-4 0-6.46 0-8.44 3.6C-.11 26.5 0 26.56 0 28.41v8.06a4.49 4.49 0 00.81 3.16 6.36 6.36 0 001.9 2.17c2 1.4 4 1.22 6.88 1.22h12.14c1.26 0 2.8-.07 4 0v4.23c.94-.35 3.57-1.77 4.74-2.34l4.87-2.39a27.12 27.12 0 013.3-1.6v6.19c.46.13 11.61.11 12.85 0 .08-1.12.09-12.23 0-12.76H38.83v6.32a8.66 8.66 0 01-1.65-.67c-.53-.29-1.12-.54-1.65-.8-1.08-.55-2.14-1.1-3.21-1.59-.91-.41-6-3.1-6.45-3.14v4.13c-5.73.13-11.85.09-17.64.07-2.14 0-3.6.11-3.83-2.16-.17-1.68 0-4.08 0-5.84s-.3-4.1 1.17-4.69c.71-.28 10.39-.3 11.63-.16v4.2h13v-6.26c.44.06 3.9 1.85 4.79 2.29l8.09 4v-4.24c2.19-.22 4.36.45 6.74-1.88 2.07-2 1.87-4.13 1.91-6.67 0-2 .19-6.7-.27-8.31a5.73 5.73 0 00-1.57-2.69 5.86 5.86 0 00-2.69-1.65c-1.61-.56-6.26-.36-8.31-.35H21.64c-2.84 0-5.82.08-8.65 0-.27-.93.13-3.19-.09-4.24H0v12.85zM43.22 42.8h4v-4h-4v4zM21.64 22.61v3.08h4.09v-4.1h-4.1zM4.45 8.46a29.77 29.77 0 004 0v-4a28.23 28.23 0 00-4 0v4z" fill="#ff3030" fill-rule="evenodd" data-name="Слой_1"/></g></g></svg>