<svg xmlns="http://www.w3.org/2000/svg" viewBox="0 0 38.93 49.49"><defs><style>.cls-1{fill:#ff3030;fill-rule:evenodd}</style></defs><g id="Слой_2" data-name="Слой 2"><g id="Слой_1-2" data-name="Слой 1"><g id="Слой_1-3" data-name="Слой_1"><g id="_2499099878544" data-name="2499099878544"><path class="cls-1" d="M32.17.05L6.79 0C6 .79 5.48 3.57 2.18 4-.89 15.64-1.47 28.11 5.45 38.33a30.1 30.1 0 008.44 8.35c.84.55 4.65 2.8 5.59 2.81s4.77-2.26 5.53-2.77C38.38 37.79 41 22.72 37.6 7.33c-.25-1.12-.6-2.28-.83-3.33-3.34-.36-3.87-3.45-4.6-3.95zM8.36 2.32c-.54.37-1.47 2.54-3.74 3.55-.62.28-.51.13-.83 1.69C2 16.21 1.46 24.84 5.19 32.91A27.47 27.47 0 0014 43.78a32.14 32.14 0 003 1.95c.51.28 1 .53 1.6.82.83.42.89.48 1.75.07a27.12 27.12 0 006-3.86 27.41 27.41 0 008.15-11.48 37.53 37.53 0 001.77-17.41 57.88 57.88 0 00-1-6.21c-.07-.33-.14-.66-.23-1-.3-1.25-1.82-.56-3.76-3.57-.62-.95-.35-.72-3.09-.71H8.46z"/><path class="cls-1" d="M33.36 7.77c-2.31-.33-3.56-3.28-3.81-3.39h-20C9.21 4.41 8.26 6.3 7 7.18a13.75 13.75 0 01-1.29.6c-.43.29-1.2 5.06-1.31 5.9C3.27 22.54 4.16 30 9.24 37.13L11.73 40A24.6 24.6 0 0017 44a17 17 0 002.41 1.15c1.12.11 5.82-3.27 6.75-4.12 7.84-7.17 9.79-16.53 8.41-27.1-.29-2.05-1.11-5.27-1.21-6.16z"/></g></g></g></g></svg>