<svg xmlns="http://www.w3.org/2000/svg" viewBox="0 0 53.18 58.52"><g data-name="Слой 2"><g data-name="Слой 1"><g data-name="Слой_1"><path d="M0 34.84c0 4.16.27 7.23 2.1 10.89a22.43 22.43 0 0019.27 12.79 21.4 21.4 0 009.22-1.58 29 29 0 0010.29-7.68 29.23 29.23 0 003.12-4.7c.14-.3.21-.56.37-.85a77.49 77.49 0 00-6.52-8.66c-.18-.21-.14-.21-.31-.42-1-1.28-4.29 1-10.82-2.29a15 15 0 01-8-9.51c-.67-2.53-1.39-7.17-3.77-7.78-1.46-.37-3.25.81-4.12 1.46l-.84.63c-5.36 4-10 10.78-10 17.7zm9.69-6.74a5.17 5.17 0 11-5.17 5.17 5.18 5.18 0 015.17-5.17zm21.73 11.77A5.17 5.17 0 1126.25 45a5.17 5.17 0 015.17-5.13zm0 1.87a3.3 3.3 0 11-3.3 3.3 3.3 3.3 0 013.3-3.3zm-15.65.07A5.17 5.17 0 1110.6 47a5.16 5.16 0 015.17-5.19zm0 1.87a3.3 3.3 0 11-3.3 3.3 3.3 3.3 0 013.3-3.3zM9.69 30a3.3 3.3 0 11-3.3 3.3 3.3 3.3 0 013.3-3.3zm20.06-12.52a15.51 15.51 0 002.33 8 54.27 54.27 0 004.52 5.92l3.2 3.72a75.43 75.43 0 015.87 8c.25.36.49.67.7 1 1 1.52 4.06 6.43 5.84 6.43 3.33 0-2.91-10.77-4-13.27a76 76 0 01-2.91-7.3c-1.72-5.16-3.68-11.87-8.44-15.11a20.93 20.93 0 00-2.17-1.23c-.42.28-4.63 2.58-4.79 2.86a4.42 4.42 0 00-.18 1zM29.26 14c.18 0 2.39-1.3 2.74-1.51.68-.4 1-.3 1.12-1.06C34.69 4.51 27.45 0 22.58 0a6.49 6.49 0 011.58 3.53c.27 3.66-1 7.08 3.25 9.61a7.07 7.07 0 001.85.82z" fill="#00d431" fill-rule="evenodd" data-name="2499204755136"/></g></g></g></svg>