<svg xmlns="http://www.w3.org/2000/svg" viewBox="0 0 48.69 48.75"><g data-name="Слой 2"><g data-name="Слой 1"><path d="M21.57.14c-.54.1-1.21.16-1.82.28s-1.2.3-1.79.4l-1.76.55c-.84.4-1.74.67-2.56 1.08S12 3.3 11.29 3.77A23.07 23.07 0 009.15 5.3a19.54 19.54 0 00-1.87 1.64 15 15 0 00-1 1.1 10.46 10.46 0 01-1 1.06 5.29 5.29 0 01-.65.92c-.19.25-.44.61-.62.9a15.7 15.7 0 01-1.2 1.86 1.88 1.88 0 01-.36.87c-.46.82-.83 2.11-1.11 2.61a20.5 20.5 0 01-.61 2c-.05.5-.25 1.15-.35 1.69S.2 21.07.13 21.66L0 23.54a27 27 0 001 7.65A24.37 24.37 0 0027 48.6a24.71 24.71 0 0011.16-4.14 14.66 14.66 0 011.37-1 .54.54 0 01.43-.33 17.63 17.63 0 011.58-1.52 24.44 24.44 0 007-14.58c.42-5.85-.61-11.27-3.76-16-.49-.72-.91-1.34-1.39-1.92l-.78-.93a10.64 10.64 0 01-.81-.91c-.28-.13-1.1-1.09-1.8-1.67l-.44-.35a.53.53 0 01-.1-.14c-.34-.13-1.2-.85-1.67-1.15a18.87 18.87 0 00-1.73-1A32.83 32.83 0 0032.3 1.3c-.76-.23-1.38-.42-2.19-.62L28 .24c-.2-.06-.1 0-.2-.09a2 2 0 01-.87 0L25.12 0h-1.74l-1.81.14zm2.35 15.43v1.06c-1.06 0-8.26-.07-8.75.05v1.85l-.56.19a3.32 3.32 0 00.54 6.49v.82c-1.27 0-6.2-.17-7 0v2.17c-4.11.5-3.74 6.54.31 6.62 4.25.09 4.53-6.1.59-6.6v-1.3h6.14v1.3c-4.07.54-3.68 6.57.42 6.6a3.33 3.33 0 00.39-6.63V27h6.28v1.19h-.07l-.51.14a3.33 3.33 0 00.54 6.53c4.21.34 5-5.79.94-6.56v-2.22c-.83-.2-5.65.06-7.17-.07v-.77a4.53 4.53 0 002-1.06 3.37 3.37 0 00.08-4.4 3.57 3.57 0 00-2-1.16l-.06-1.09h7.86v1.11c-4.07.58-3.62 6.75.6 6.6a3.33 3.33 0 00.3-6.63v-1.06c.78-.08 7.33-.1 7.82 0v1c-1.09.43-1.25.32-2 1.07a3.31 3.31 0 002 5.56c0 .84.08.65-1.11.65h-1.27v2.34a3.33 3.33 0 00.47 6.64c4.13 0 4.42-6.12.43-6.6v-1.47h8v1.48c-3.94.45-3.74 6.47.31 6.6a3.32 3.32 0 00.6-6.6V25.9a63.13 63.13 0 00-6.5 0v-.65a3.26 3.26 0 002.87-3.27 3.1 3.1 0 00-.85-2.24 3.17 3.17 0 00-.86-.74 3.92 3.92 0 00-.91-.35l-.27-.13v-1.84c-.74-.19-7.07 0-8.69-.07v-1A3.34 3.34 0 0024.35 9a3.32 3.32 0 00-.43 6.61z" fill="#00bec8" fill-rule="evenodd" data-name="Слой_1"/></g></g></svg>