<svg xmlns="http://www.w3.org/2000/svg" width="210mm" height="297mm" viewBox="0 0 21000 29700" shape-rendering="geometricPrecision" text-rendering="geometricPrecision" image-rendering="optimizeQuality" fill-rule="evenodd" clip-rule="evenodd"><defs><style>.fil0{fill:#ffab00}</style></defs><g id="Слой_x0020_1"><g id="_2499112970336"><path class="fil0" d="M9956.03 13973.92l-18.28 20.04c11.19 11.92 26.16 24.1 37.27 37.76 10.66 13.11 25.31 25.99 37.45 38.12 20.45 20.43 58.58 54.11 69.59 81.56 13.98 34.85 8.11 100.44-6.05 132.41-26.12 59.01-93.39 124.68-151.62 150.81-29.99 13.46-98.79 20.21-131.92 6.37-42.38-17.7-140.58-137.51-157.56-144.95-8.47 6.22-16.72 15.74-24.49 23.46-12.25 12.18-12.89 9.67-10.69 33.69 4.97 54.28 18 95.37 40.94 142.2 5.02 10.27 10.35 20.26 16.17 29.5 5.6 8.89 14.65 20.28 17.54 29.22l3.58 2.39c14.5 21.5 60.28 73.22 80.24 83.91 1.78 8.06 49.97 37.42 56.17 41.19 19.84 12.09 59.92 27.92 65.02 32.92 8.81-.38 26.03 7.62 37.91 9.77 9.82 5.99 59.68 11.08 75.57 11.7 14.94.59 29.27-.25 43.53-2.71 11.55-2 24.78-7.85 35.23-7.07 2.54-1.98-1.32.23 4.16-2.65l21.7-8.63c8.62-3.59 16.14-8.6 25.32-9.45 3.15 4.19 1.75 2.41 3.91 7.05 6.66 1.5 29.52 26.99 34.44 31.94 11.25 11.31 23.76 22.35 33.94 34.42 5.21 4.33 8.22 6.57 11.23 13.15 6.68 1.47 14.51 12.06 19.49 17.05 6.45 6.45 11.44 11.49 17.9 17.91 12.81 12.75 23.95 24.08 36.7 36.87 12.73 12.77 24.15 23.9 36.86 36.71 12.27 12.35 25.73 24.3 36.96 37.34 5.2 4.37 8.16 6.62 11.16 13.25 4.33.94.91-.77 5.62 3.04l62.73 63.29 11.26 13.17c6.67 1.45 14.48 12.1 19.47 17.07l128.38 128.86c5.11 4.21 8.3 6.76 11.27 13.16l7.57 4.99c2.71 2.65 4.13 4.32 6.93 7.09 5.24 5.2 9.11 8.69 13.99 14.5l6.02 6.41c-4.61 16.4-16.9 33.83-20.26 53.06l-8.41 33.55-1.98 40.92 3.11 32.79 8.41 46.04c2.46 3.75 12.23 35.98 15.69 44.55 24.34 60.25 64.44 107.38 67.16 114.65 4.08 1.61 20.02 19.91 24.27 24.59 8.51 9.34 14.51 13.94 24.6 24.35 56.34 52.73 141.3 95.83 226.13 104.45 28.6 2.9 31.84 4.78 43.96-7.33 6.41-6.41 22.42-20.69 26.38-28.1-16.61-24.33-127.33-115.12-144.62-158.51-14.16-35.56-6.82-102.75 7.19-133.15 26.77-58.06 93.75-124.2 152.78-149.76 29.17-12.63 100.56-19.22 131.72-4.83 25.22 11.63 94.09 82.51 118.92 107.86 7.31 7.46 30.02 32.64 37.64 36.47l35.67-34.61v-24.46c-4.44-9.39-4.34-26.01-6.67-38.08-2.03-10.56-5.05-23.48-8.14-33.83-11.95-39.94-30.42-80.1-53.23-113.6-17.17-25.2-23.68-30.35-35.69-46.99-5.25-5.85-7.89-10.02-13.32-15.37l-40.9-39.63c-8.81-3.38-26.63-19.1-36.76-25.92-64.34-43.28-160.31-77.7-238.84-65.37-17.61 2.76-32.7 6.9-48.94 12.62-14.06 4.95-30.73 14.63-43.15 18.23l-515.93-516.09c2.6-9.51 10.63-24.38 14.62-34.5 29.35-74.35 12.17-102.56 17.18-124.59-2.54-3.69-9.22-43.38-14.72-61.33-16.98-55.4-42.83-101.48-77.6-144.48-11.96-16.32-24.95-27.65-38.76-41.54l-11.58-13.28c-17.07-7.35-98.76-97.42-245.7-104.25-20.9-.97-23.5 6.76-32.84 16.64z"/><path class="fil0" d="M9872.61 15649.7c5.01-4.97 34.81-13.44 44.21-15.04l139.26-46.19c26.2-8.19 23.48-6.14 39.4-22.23 26.26-26.55 366.46-363.71 372.03-373.07-33.46-35.95-77.1-76.59-112.85-113.27l-5.09-7.44c-8.28-4-33.56-30.97-38.96-37.15l-29.04-28.28c-12.51 10.43-25.66 25.17-37.81 37.29-31.51 31.46-247.86 250.21-262.81 262.26-7.17-3.03-46.53-43.41-53.29-51.5 4.62-8.51 132.26-133.53 150.44-151.69 18.95-18.93 144.6-141.26 149.23-151l-83.3-82.6c-14.16 12.2-30.6 30.14-44.45 44.25l-308.43 308.11c-23.39 23.15-31.85 26.94-39.37 50.07-16.06 49.35-146.79 445.91-149.93 463.25 15.61-3.1 110.69-35.45 134.38-43.08 21.04-6.77 123.05-42.7 136.38-42.69zm1392.64-1251.27c3.68-7.34-.18-3.52 7.18-7.12l6.2-8.46c3.53-3.52 5.56-5.47 9.01-8.96 4.19-4.24 11.87-13.52 17.39-15.23 3.64-7.32-.16-3.52 7.17-7.15 1.68-5.89 28.49-30.62 33.17-35.24 11.7-11.53 22.48-22.1 33.7-33.94-3.44-6.58-183.18-185.4-201.85-203.89-14.83-14.68-27.23-26.01-41.14-40.42l-79.23-79.81c-11.06 6.3-43.4 41.51-54.61 52.73-14.11 14.1-153.5 151.53-159.07 160.01l120.71 120.85c8.21 7.75 25.38 27.67 40.47 41.06l141.2 141.2c4.28 5.09 5.15 6.42 9.55 10.36 3 2.69 7.45 7.17 11.15 9.88 7.33-4.58 60.41-59.19 73.68-72.66 4.21-4.29 19.67-21.58 25.32-23.21zm-217.67 196.77c-5.22-2.61-2.31-.76-6.76-4.54-1.77-1.51-3.12-3.14-4.94-5-3.56-3.66-6.37-6.26-9.51-9.63-25.44-23.25-49.46-49.34-74-73.85l-147.2-147.15c-10.21-10.45-67.01-69.24-74.46-72.73-37.18 37.98-73.98 73.65-111.37 111.39-14.03 14.17-105.95 103.34-109.38 111.7l80.76 81.79c15.89-5.72 122.07-126.59 141.98-137.43 6.75 5.26 49.19 47.17 51.89 53.33-16.95 17.76-133.09 131-136.98 139.19l186.67 185.35 220.76-221.13c-3.08-6.03-.55-.69-4.32-5.83-2.44-3.32-.78-.92-2.17-3.21l-.97-2.25z"/></g></g></svg>