<svg xmlns="http://www.w3.org/2000/svg" width="210mm" height="297mm" viewBox="0 0 21000 29700" shape-rendering="geometricPrecision" text-rendering="geometricPrecision" image-rendering="optimizeQuality" fill-rule="evenodd" clip-rule="evenodd"><path d="M10617.17 15519.22l-.13-273.47c-55.2-36.17-105.27-129.2-120.54-200.44-61.24-285.78 215.29-529.96 485.91-435.47 301.42 105.23 313 465.03 154.04 611.9-6.45 5.97-12.31 11.78-18.94 19.7-14.34 17.18-8.29 74.33-8.44 114.14-.21 53.86.02 107.92.02 161.8 38.2 7.33 154.21 2.09 199.99 1.78 212.17-1.44 175.53 37.29 174.11-438.46-.81-270.89-.52-542.15 0-813.05.11-55.81 11.41-208.31-11.76-239.82-28.49-38.75-73.04-28.78-127.5-28.78l-1219.58-.01c-135.46.44-271.04-.26-406.52-.23-45.25 0-161.36-9.25-189.39 13.58-39.52 32.18-27.3 103.34-27.59 177.82-1.62 405.54 3.47 815.94.16 1219.58-.58 70.65 1.64 110.38 92.92 109.5l1023.24-.07zm107.28-171.38l-.31 278.76c0 30.77-8.94 81.81 30.51 77.21 12.58-1.46 61.97-28.8 76.8-36.03 67.44-32.89 102.58 48.32 162.05 33.84 16.54-27.65 8.86-235.52 8.8-276.35l.03-108.63c-30.97 3.09-59.84 24.58-138.49 24.44-62.19-.11-87.52-13.24-139.71-25.73l.32 32.49zm107.85-648.46c-138.68 18.66-254.85 138.42-235.4 299.98 16.27 135.17 143.14 251.94 301.65 232.19 135.39-16.87 250.65-142.81 230.78-300.98-16.41-130.64-142.27-252.01-297.03-231.19zm-1052.08 356.96c-38.35 15.35-46.37 63.86-18.18 88.57 28.38 24.88 378.59 19.6 402.56 10.95 34.79-12.58 45.6-63.23 16.74-89.57-29.36-26.77-375.32-20.27-401.12-9.95zm5.43-347.63c-50.61 16.11-52.45 75.77-10.17 97.73l500.33 3.84c48.83-13.5 50.26-81.09 9.09-99.18l-499.25-2.39zm-5.04-344.93c-15.63 6.34-26.44 14.7-32.08 31.41-5.68 16.78-2.19 34.62 6.34 48.41 18.35 29.71 63.68 22.36 106.21 22.33 85.17-.07 170.36.24 255.53.23 73.06-.01 471.2 8.1 508.79-3.62 28.93-9.02 48.96-49.02 25.57-82.77-19.28-27.81-67.29-20.12-108.47-20.55-110.06-1.13-741-3.92-761.89 4.56z" fill="#00bec8"/></svg>