<svg xmlns="http://www.w3.org/2000/svg" width="210mm" height="297mm" viewBox="0 0 21000 29700" shape-rendering="geometricPrecision" text-rendering="geometricPrecision" image-rendering="optimizeQuality" fill-rule="evenodd" clip-rule="evenodd"><path d="M9580.3 14470.91l454.22 1.14.33-147.95c48.05-8.48 374.28-3.87 449.31-3.79 151.31.18 302.66.18 453.97 0 295.21-.34 310.11-28.45 311.31 142.33.51 72.39 3.75 155.82-.39 227.17-2.23 38.31-10.08 61.25-38.38 74.14-25.92 11.81-74.04 9.93-107.04 9.1l-.62-149.74c-11.96 2.3-246.98 118.87-282.5 137.32-29 15.07-157.75 81.24-173.29 83.8l-.1-217.63-458.37-.37-.52 146.69c-95.56 0-190.88-.53-285.93.13-139.43.96-228.04-.07-297.78 126.84-28.36 51.61-24.33 53.67-24.13 118.83.29 94.82-.15 189.71-.16 284.54-.01 57.56 2.59 69.17 28.54 111.49 19.69 32.12 37.36 56.21 67.03 76.55 71.8 49.23 142.29 42.87 242.48 42.86l428.4.08c44.48-.14 98.71-2.61 142.09.7l1.58 149.19c33.05-12.37 125.67-62.42 167.28-82.49l171.54-84.5c31.02-14.56 83.11-46.69 116.64-56.2l-.03 218.35c16.06 4.56 409.53 3.7 453.25 1.74 2.97-39.45 3.21-431.67-1.25-450.13l-447.91.08-.85 223.04c-19.83-5.95-40.38-17.8-57.47-27.33-18.54-10.33-39.47-19.05-57.99-28.4-38.04-19.21-75.43-38.71-113.4-56.02-32.02-14.6-210.63-109.41-227.45-110.68l-.07 146.79c-202.05 4.43-418 2.96-622.32 2.37-75.3-.21-126.88 3.94-134.94-76.11-5.97-59.33-1.5-144.08-1.51-205.99-.01-60.43-10.72-144.89 41.41-165.47 25.01-9.88 366.53-10.88 410.34-5.74l.58 148.23 457.41.42.78-221.09c15.59 2.03 137.68 65.4 169.05 80.71l285.24 140.88.26-149.61c77.02-7.76 153.83 15.98 237.54-66.13 73.16-71.77 66.2-145.9 67.32-235.36.88-70.07 7-236.51-9.29-293.36-11.3-39.42-29.31-70.12-55.56-94.78-35.44-33.29-46.07-40.9-94.68-58.02-56.77-19.99-220.9-12.82-293.35-12.61l-607.43-.03c-100.31.29-205.48 2.87-305.27-.25-9.23-32.87 4.6-112.58-3.23-149.64l-453.43-.27-1.26 454.18zm1524.57 1055.79l142.55.97.14-142.82-141.62-.57-1.07 142.42zm-761.31-712.39l.06 108.81 144.09.21.65-144.72-144.68.41-.12 35.29zm-606.46-499.2c16.48 2.9 126.76 3.05 141.42-.57l.21-141.5c-15.6-3.94-123.53-3.37-141.23-.44l-.4 142.51z" fill="#ff3030"/></svg>