<svg xmlns="http://www.w3.org/2000/svg" width="210mm" height="297mm" viewBox="0 0 21000 29700" shape-rendering="geometricPrecision" text-rendering="geometricPrecision" image-rendering="optimizeQuality" fill-rule="evenodd" clip-rule="evenodd"><path d="M9554.85 15047.55c0 145.29 9.47 254.83 74.19 384.11 64.16 128.14 127.52 202.54 231.24 287.01 113.22 92.21 300.81 164.09 448.4 164.09 115.92 0 219.79-8.15 325.49-55.7 141.66-63.73 263.07-153.85 362.81-271.09 29.59-34.78 88.41-122.75 108.36-165.77 4.9-10.57 7.31-19.51 12.85-29.98-98-146.35-130.76-187.32-230.01-305.39-6.3-7.49-4.9-7.35-10.89-14.8-36.26-45.08-151.07 33.98-381.58-80.99-135.64-67.66-241.95-185.03-281.31-335.47-23.33-89.2-48.9-252.86-132.91-274.18-51.59-13.1-114.7 28.26-145.44 51.41a5965.78 5965.78 0 01-29.4 22c-189.14 140.68-351.8 380.6-351.8 624.75zm341.8-237.82c100.68 0 182.3 81.62 182.3 182.3s-81.62 182.3-182.3 182.3-182.3-81.62-182.3-182.3 81.62-182.3 182.3-182.3zm766.68 415.25c100.68 0 182.3 81.62 182.3 182.3s-81.62 182.3-182.3 182.3-182.3-81.62-182.3-182.3 81.62-182.3 182.3-182.3zm0 65.97c64.25 0 116.33 52.08 116.33 116.33s-52.08 116.33-116.33 116.33-116.33-52.08-116.33-116.33 52.08-116.33 116.33-116.33zm-552.1 2.27c100.68 0 182.3 81.62 182.3 182.3s-81.62 182.3-182.3 182.3-182.3-81.62-182.3-182.3 81.62-182.3 182.3-182.3zm0 65.97c64.25 0 116.33 52.08 116.33 116.33s-52.08 116.33-116.33 116.33-116.34-52.08-116.34-116.33 52.09-116.33 116.34-116.33zm-214.58-483.5c64.25 0 116.33 52.09 116.33 116.34s-52.08 116.33-116.33 116.33-116.33-52.08-116.33-116.33 52.08-116.34 116.33-116.34zm707.56-440.62c0 98.1 33.83 207.63 82.19 281.88 77.38 118.79 86.95 115.64 159.48 208.86l112.88 131.26c76.16 87.41 142.17 182.61 207.39 280.88 8.56 12.89 17.24 23.89 24.59 35.38 34.28 53.61 143.3 226.74 205.85 226.74 117.74 0-102.42-379.94-140.11-468.09-43.36-101.44-63.5-140.58-102.41-257.37-60.63-181.99-130.05-418.78-297.92-533-26.17-17.81-48.35-28.8-76.33-43.6-14.83 9.93-163.45 91.08-169.01 100.83-2.52 4.43-6.6 29.32-6.6 36.23zm-17.13-124.21c6.24 0 84.15-45.83 96.69-53.22 23.92-14.1 33.54-10.79 39.61-37.49 55.11-242.78-200.25-401.85-371.87-401.85 25.06 37.42 51.11 65.38 55.51 124.38 9.65 129.3-34.35 249.8 114.95 339.06 11.14 6.67 52.12 29.12 65.11 29.12z" fill="#00d431"/></svg>