<svg xmlns="http://www.w3.org/2000/svg" width="210mm" height="297mm" viewBox="0 0 21000 29700" shape-rendering="geometricPrecision" text-rendering="geometricPrecision" image-rendering="optimizeQuality" fill-rule="evenodd" clip-rule="evenodd"><path d="M10488.38 13931.81c-13.79 1.54-102.96 57.83-114.36 64.42l-336.46 196.63-.52 815.75-102.6 58.76c-34.28 18.99-70.67 42.03-102.66 58.65l-.06 235.81c2.54 10.02 203.57 120.24 205.04 120.27 2.44.04 203.05-110.36 205.72-120.27l-.55-235.93-67.98-37.83 1.38-131.28c30.06 17.19 59.93 34.17 91.37 52.85 16.13 9.58 29.83 18.04 46.26 27.03 11.74 6.43 33.25 17.64 43.32 26.05l-.63 368.22c-10.6 6.79-310.79 183-318.66 182.72-9.6-.34-279.49-163.5-318.4-181.66l-.11-366.22c2.43-9.68 145.24-88.42 164.25-98.95 16.73-9.27 40.01-20.73 54.27-32.3l-.58-156.09-348.44 202.2c-.6.77-1.46.91-1.7 2.37-.91 5.44-5.06-4.01-4.55 27.74.18 11.22.09 22.44.09 33.66 0 44.19-2.92 447.59 1.65 459.61l4.51 8.04c8.47 11.54 271.36 156.9 333.28 194.08 17.58 10.56 97.59 59.78 111.63 64.11l9.17-1.11c9.22-.78 177.65-100.52 209.54-119.1l345.83-200.56c22.98-13.49 46.3-27.29 69.62-40.19 84.14-46.55 57.12-56.26 142.08-4.91 16.58 10.03 133.14 78.63 139.83 78.22l139.65-79.03c15.55-9.06 59.16-26.47 65.31-41.74l-.56-235.06c-28.35-16.59-198.65-116.34-206.58-115.48-3.1.34-194.75 109.61-203.8 116.77l-.62 78.11c-7.61 7.36-101.96 61.51-112.7 63.85v-207.65c21.51-16.08 315.32-184.41 319.59-184.27l161.69 93.24c17.35 9.95 153.9 85.28 156.43 94.44l-1.02 366.34c-14.68 6.82-27.4 16-42.62 24.21l-208.85 120.64c-55.32 32.88-59.13 43.21-83.49 28.69-56.76-33.82-111.69-66.11-168.11-97.44-24.6-13.65-28.97-21.35-43.96-13.39l-124.09 71.47c6.75 9.46 70.44 43.75 86.91 53.45l239.39 139.12c3.27 1.97 7.57 4.86 11.47 6.74 9.39 4.54 2.94 2.43 10.83 3.64l9.19.96 224.14-128.57c37.73-22.85 74.46-42.48 111.79-65.21 16.08-9.79 105.52-57.68 108.98-64.34 10.07-14.83 6.16-38.8 6.16-64.8 0-141.69-2.17-296.62.09-436.54.23-14.21 2.04-19.65-6.25-29.97l-698.99-405.8-.05-239.47c-26.93-12.72-194.51-117.39-206.77-116.19-4.8.47-187.63 105.36-204.17 116.99l.15 237.01c61.94 38.44 125.88 73.11 190.8 111.5 20.72 12.25 33.47-2.81 51.32-13.47 35.41-21.15 23.97-23.68 95.83 18.63 11.53 6.8 37.27 20.62 45.51 27.85l-121.96 73.53c-9.71 5.71-19.33 11.35-31.12 17.65-12.48 6.66-19.62 15.88-33.42 10.07l-311.05-178.35.88-371.32c54.44-31.27 107.26-61.23 160.29-92.37 18.84-11.06 150.78-90.31 158.83-89.79 9.39.6 275.24 161.61 317.82 182.1l.68 253.68 135.95 77.99-.04-405.1c-3.95-10.61-43.39-29.45-54.61-36.16-18.91-11.31-37.39-21.66-55.79-32.69l-228.05-132.03c-18.54-10.92-37.97-21.96-55.88-32.62-12.96-7.72-43.94-29.08-56.78-30.48-15.53-1.66 7.05-1.3-8.93-.13z" fill="#00d431"/></svg>