<svg xmlns="http://www.w3.org/2000/svg" viewBox="0 0 45 45"><g data-name="Слой 2"><g data-name="Слой 1"><path d="M0 8.42V40a5 5 0 00.5 2c.08.15.14.28.22.41A5.19 5.19 0 005.11 45h34.75a5.38 5.38 0 001.14-.13 5.3 5.3 0 001.78-.79 5.51 5.51 0 001-.91l.14-.18A5.23 5.23 0 0045 39.92V15.51a5.06 5.06 0 00-.52-2.2 1.65 1.65 0 00-.14-.26 5.23 5.23 0 00-1.47-1.67c-1.61-1.22-3.24-1-5.26-1H6.28c-1.64 0-4.57.35-4.57-1.72l2.39-.1c.34-.05.82 0 1.18 0a2.36 2.36 0 01.29 0l1.48-.06h.6c.58 0 1.8-.12 2.37-.12h1.2c.4 0 .8 0 1.17-.05s.84 0 1.21-.05.82 0 1.18 0l3-.13c.45 0 1.35-.09 1.8-.09s1.77-.11 2.37-.11h3.58l5.33-.24h.6l2.08-.08h.29l2.38-.1h1.21l2.4-.1V3.28a3.23 3.23 0 00-.41-1.58C38.48.14 36.32 0 34.66 0a3.26 3.26 0 00-.57.08l-.59.1-1.15.19-6.92 1.16-9.23 1.53L4.67 5c-.4.07-.76.12-1.15.2L3 5.31a4.48 4.48 0 00-.52.16A5.59 5.59 0 001.32 6l-.39.3a2.44 2.44 0 00-.71 1A3.4 3.4 0 000 8.42zm38 17.34a2.51 2.51 0 11-2.51 2.51A2.51 2.51 0 0138 25.76z" fill="#00d431" fill-rule="evenodd" data-name="Слой_1"/></g></g></svg>