<svg xmlns="http://www.w3.org/2000/svg" viewBox="0 0 50.69 53.26"><g data-name="Слой 2"><g data-name="Слой 1"><path d="M5.92 8v1.32a47.47 47.47 0 000 4.76c2 .07 5.18-.38 5.75 2.09a3.08 3.08 0 01-.79 3 4.52 4.52 0 01-3.17.77c.34-.17.86-.15 1.2-.35a1.9 1.9 0 00.18-3A3.69 3.69 0 006.58 16a4.43 4.43 0 01-2.48-.45l-.1-.08c-.13-.14-.07 0-.1-.3 0-.63 0-1.59-.07-2.47v-.38a2 2 0 00-1.29.25 3.21 3.21 0 00-2.18 1.75 4 4 0 00.85 4.52c1.63 1.2 4.7.76 4.61 1.31v1.14c0 1.26-.06 3.48 0 4.54a22.46 22.46 0 013.6.17c3.45.75 3 5.84-1.2 5.69.3-.23.62-.22 1.09-.85.91-1.23 0-3.18-2.1-3h-.83c-3.15-.2-2.47-.31-2.56-3.76a6.84 6.84 0 00-2.22.68 3.8 3.8 0 00-.37 5.91 3.5 3.5 0 00.66.4 2.92 2.92 0 01.74.33l1 .16 2.2.23v5.83c.92.06 1.83 0 2.78.09a3.58 3.58 0 011.67.39c1 .53 1.45 1.31 1.4 2.8a2.29 2.29 0 01-1.06 1.94 4 4 0 01-2.39.65c.22-.18.53-.3.77-.5a1.83 1.83 0 00.31-2.53 1.86 1.86 0 00-1.58-.8c-2.52-.18-5.08 0-3.84-3.82a5.07 5.07 0 00-2.64 1A3 3 0 000 39c-.58 5.09 5 4 5.62 4.56.13.11 0-.12.07.11a.75.75 0 010 .16v.37l.09 1.69.15 1.25a8.25 8.25 0 00.87 2.17c1.11 1.8 3.24 3.63 5.51 3.82 2.49.21 9.42.1 12.34.1h18.63c3.07-.11 3.71-1.33 4.58-1.69a11.39 11.39 0 01.86-.89c.12-.13.69-.86.74-.9.17-.39.45-.78.66-1.23s.31-.94.45-1.32V6.82a7.43 7.43 0 00-3.19-4.95 7.5 7.5 0 00-2.7-1.31C36.79-.59 22.45.39 13.94.39c-.68.27-1.35-.2-3.31.64A7.87 7.87 0 005.92 8zm30.57 31.28l2.78 2.55 4.1-4.46.51.47-4.09 4.47-.48.51-.52-.47L36 39.8l.48-.52zM39.74 45a5.19 5.19 0 115.18-5.19A5.19 5.19 0 0139.74 45zm-10.29-4.1c1 0 2.12 0 3.22-.08a7.18 7.18 0 017.07-8.18h.72a1.55 1.55 0 00-.07-.23 9.91 9.91 0 00-1.3-2.85 4 4 0 00-1.17-.89c-.34-.18-2.24-.84-2.93-1.14-.26-.11-.45-.21-.7-.34a7 7 0 00-.68-.38 3.47 3.47 0 00-.53.37c0 .08.05 2.52.05 3a1.6 1.6 0 01-.13.91c-.38 1-.73 2-1.11 3l-1.95 5.2c-.09.27-.19.51-.53.52s-.57-.62-.8-1.22-.36-1-.56-1.51c-.76-1.93-1.49-4-2.23-5.95a1.58 1.58 0 01-.14-.88v-1a17.21 17.21 0 000-2 2.92 2.92 0 01-.28-.25c-.32-.23-.2-.1-1 .32-.45.24-1 .44-1.47.65A8.2 8.2 0 0020 29.32c-1 .89-1.66 3.1-1.91 4.46a25.51 25.51 0 00-.36 3.92c0 .62 0 1.39.43 1.72a14.23 14.23 0 003.33.92c1 .18 2.81.36 3.85.42 1.38.08 2.68.15 4.1.14zm-.22-10.42a6.64 6.64 0 00-.56.52 7.08 7.08 0 01-.57.54c0 .25.23 1.54.29 1.89l.61 3.69a9.49 9.49 0 00.35 1.82c.23.11.25-.5.3-.76s.1-.63.15-1c.1-.63.21-1.27.32-1.88s.2-1.23.31-1.88c.05-.34.3-1.68.29-1.9l-1.13-1.09c0-.23 1.12-1.64 1.21-1.94a8.88 8.88 0 01-1.42.19 4.56 4.56 0 01-.75-.06c-.24 0-.41-.13-.64-.16.1.37 1.17 1.72 1.24 2.02zm-.86-18.1a4.49 4.49 0 00-2.49.89 5.58 5.58 0 00-1.56 1.85 4.75 4.75 0 00-.44 3.55c.21 1 .14.45-.08.94a1.3 1.3 0 00-.08.34 4.69 4.69 0 00.43 2.05c.22.35.13.06.24.61a4.7 4.7 0 00.18.67 6.91 6.91 0 001.21 2.2 6.39 6.39 0 001.83 1.57c2.69 1.45 5-.57 6.26-2.95a10.48 10.48 0 00.65-1.9 2.32 2.32 0 00.3-.55 3.15 3.15 0 00.1-2.14c-.19-.3-.25-.09-.1-.62.66-2.34.09-3.77-1.35-4.9a9.07 9.07 0 00-5.1-1.65z" fill="#00d431" fill-rule="evenodd" data-name="Слой_1"/></g></g></svg>