<svg xmlns="http://www.w3.org/2000/svg" viewBox="0 0 53.13 55.05"><g data-name="Слой 2"><g data-name="Слой 1"><path d="M26.87 44.05l7.84-5.7 7.84-5.7-3-9.22-3-9.22H17.17l-3 9.22-3 9.22 7.83 5.7 7.85 5.7zM45.81 18.5a3 3 0 00-1.08-1.13 1.3 1.3 0 00-1-.14 1.69 1.69 0 00-1.1 1.41 5.87 5.87 0 00.3 2.93 6 6 0 001.41 2.58 1.7 1.7 0 001.71.54 1.32 1.32 0 00.8-.74 3.12 3.12 0 00.15-1.47 3.83 3.83 0 001.24 1.35 1.55 1.55 0 001.29.19A2.06 2.06 0 0051 22.39a6 6 0 00-.25-3.13 6.85 6.85 0 00-1.43-2.65 2.06 2.06 0 00-2.18-.78 1.71 1.71 0 00-1 .85 3.46 3.46 0 00-.3 1.82zm-1.31 1a.78.78 0 01.8.19 2.15 2.15 0 01.58 1A2.18 2.18 0 0146 21.8a.81.81 0 01-.56.62.79.79 0 01-.78-.2 2.17 2.17 0 01-.58-1 2.22 2.22 0 01-.08-1.15.79.79 0 01.54-.61zm3.18-1.24a1.12 1.12 0 011.11.21 2.36 2.36 0 01.73 1.15 2.31 2.31 0 010 1.32 1.1 1.1 0 01-.79.77 1 1 0 01-1-.22 2.34 2.34 0 01-.73-1.18 2 2 0 010-1.41 1.12 1.12 0 01.67-.68zM23.55 34.28H21v-9.83a8.9 8.9 0 01-3.35 2v-2.39a7.48 7.48 0 002.21-1.26 4.81 4.81 0 001.63-2.17h2.11zM36.25 24l-2.52.28a1.83 1.83 0 00-.48-1.15 1.38 1.38 0 00-1-.37 1.71 1.71 0 00-1.39.74 6.13 6.13 0 00-.71 3.08 3 3 0 012.41-1.15 3.71 3.71 0 012.79 1.24 4.55 4.55 0 011.16 3.21 4.63 4.63 0 01-1.22 3.35 4.45 4.45 0 01-6.52-.34c-.88-1.07-1.32-2.81-1.32-5.25s.46-4.29 1.38-5.39a4.44 4.44 0 013.58-1.65 3.78 3.78 0 012.59.9 4 4 0 011.25 2.5zm-5.89 5.68a2.94 2.94 0 00.58 2 1.72 1.72 0 001.34.69 1.53 1.53 0 001.2-.56 2.88 2.88 0 00.52-1.87 3 3 0 00-.52-2 1.63 1.63 0 00-1.29-.61 1.59 1.59 0 00-1.27.59 2.53 2.53 0 00-.52 1.74zM26.87 0l7.84 2.36 7.84 2.37-3 3.82-3 3.82H17.17l-3-3.82-3-3.82L19 2.36zm25.91 18.84L53 27l.18 8.19-4.56-1.67L44 31.88l-3-9.22-3-9.22 2.71-4 2.71-4 4.68 6.73 4.67 6.73zm-52.43 0L.18 27 0 35.22l4.56-1.67 4.56-1.67 3-9.22 3-9.22-2.71-4-2.71-4L5 12.11.35 18.84zm42.5 30.82l-7.73 2.7-7.73 2.69.17-4.85.18-4.85 7.84-5.7L43.43 34l4.67 1.33 4.67 1.33-5 6.53-5 6.52zm-32.55 0l7.7 2.7 7.74 2.69-.18-4.85-.18-4.85-7.84-5.7L9.73 34l-4.68 1.28-4.67 1.33 5 6.53 5 6.52zm-1.48-6.95l2 1.34a1.25 1.25 0 000 1.07 2.46 2.46 0 00.78 1 2.18 2.18 0 001.25.51 1.1 1.1 0 001-.44 1.06 1.06 0 00.17-1 2.24 2.24 0 00-.77-1 6.1 6.1 0 00-1-.61l1-.81a3.24 3.24 0 001.38.74.86.86 0 00.88-.28.71.71 0 00.09-.75 1.93 1.93 0 00-.68-.82 2 2 0 00-1-.46 1.15 1.15 0 00-.92.29l-1.67-1.6a2.71 2.71 0 011.29-.47 3.5 3.5 0 011.49.29 7 7 0 011.68 1A5.34 5.34 0 0117.64 43a1.66 1.66 0 01-.09 1.62c-.43.55-1.27.61-2.51.17a3.79 3.79 0 011 1.62 1.53 1.53 0 01-.23 1.38 2.13 2.13 0 01-2.09.64 5.94 5.94 0 01-2.91-1.33 6.11 6.11 0 01-1.93-2.29 2.35 2.35 0 01-.07-2.11zm25.71 2.47l-.86-1.12 6.8-5.19.68.88a9.8 9.8 0 00-.61 2.76 8.83 8.83 0 00.21 3 5.9 5.9 0 001 2.24l-1.91 1.46a6.93 6.93 0 01-1.16-3.35 11.22 11.22 0 01.37-4.15l-4.52 3.45zM4.27 16.5L5 14.12l5.5 1.71a10.61 10.61 0 01-.15-3.42l1.33.41a9.16 9.16 0 00.07 2.25 3.44 3.44 0 00.75 1.87l-.6 1.94-7.63-2.38zm5.27 10a4.72 4.72 0 01-1.67 2.58 3.84 3.84 0 01-3.47.25 3.88 3.88 0 01-2.73-2.19 4.7 4.7 0 01.1-3.06 5 5 0 011.76-2.68 3.82 3.82 0 013.4-.16 3.83 3.83 0 012.71 2.18 4.73 4.73 0 01-.1 3.07zm-1.21-.38a1.63 1.63 0 00.07-.81 1.17 1.17 0 00-.4-.72 5.45 5.45 0 00-1.83-.83 5.54 5.54 0 00-1.91-.36 1.31 1.31 0 00-.84.34 1.89 1.89 0 00-.47 1.52 1.15 1.15 0 00.45.7 5.45 5.45 0 001.82.84 5.42 5.42 0 001.91.35 1.31 1.31 0 00.84-.34 1.61 1.61 0 00.4-.7zm17.8-23.59v1.54h7.27v1.28l-7.71 4.86h-2.87V5.35H20.6V4.07h2.22V2.53zm0 2.82V8l4.08-2.61z" fill="#ffab00" fill-rule="evenodd" data-name="Слой_1"/></g></g></svg>