<?xml version="1.0" encoding="utf-8"?>
<!-- Generator: Adobe Illustrator 21.1.0, SVG Export Plug-In . SVG Version: 6.00 Build 0)  -->
<svg version="1.1" id="Layer_1" xmlns="http://www.w3.org/2000/svg" xmlns:xlink="http://www.w3.org/1999/xlink" x="0px" y="0px"
	 viewBox="0 0 24 24" style="enable-background:new 0 0 24 24;" xml:space="preserve">
<style type="text/css">
	.st0{fill:url(#SVGID_1_);}
	.st1{fill:url(#SVGID_2_);}
</style>
<title>komodo-kmd-logo</title>
<linearGradient id="SVGID_1_" gradientUnits="userSpaceOnUse" x1="20.93" y1="453.1807" x2="3.0992" y2="470.7684" gradientTransform="matrix(1 0 0 1 0 -450)">
	<stop  offset="9.000000e-02" style="stop-color:#00EDD3"/>
	<stop  offset="0.41" style="stop-color:#1B456E"/>
</linearGradient>
<path class="st0" d="M0,12c0,6.6,5.4,12,12,12c6.6,0,12-5.4,12-12v-0.1c0-0.9-0.1-1.8-0.3-2.7c-0.2-0.7-0.9-1.1-1.6-0.9
	c-0.7,0.2-1.1,0.8-0.9,1.5l0,0c1.2,5.1-1.9,10.2-6.9,11.4S4,19.3,2.8,14.2S4.7,4.1,9.8,2.8c1.5-0.4,3-0.4,4.4,0
	c0.7,0.2,1.4-0.3,1.5-1c0.2-0.7-0.3-1.4-0.9-1.5c0,0,0,0,0,0C8.3-1.2,1.9,2.8,0.3,9.2c0,0,0,0,0,0C0.1,10.1,0,11,0,12z"/>
<linearGradient id="SVGID_2_" gradientUnits="userSpaceOnUse" x1="20.935" y1="452.9442" x2="8.4535" y2="465.5879" gradientTransform="matrix(1 0 0 1 0 -450)">
	<stop  offset="0.4" style="stop-color:#00EDD3"/>
	<stop  offset="0.89" style="stop-color:#1B456E"/>
</linearGradient>
<path class="st1" d="M18.1,3.2C18.1,3.2,18.1,3.2,18.1,3.2c-0.3,0.4-0.5,0.8-0.6,1.2v0.2c0,0.1,0,0.1,0,0.1
	c-0.2,1.9-1.9,3.3-3.8,3.1c0,0,0,0,0,0c-0.2,0-0.3,0-0.5-0.1c-0.1,0-0.2,0-0.3-0.1c-0.4-0.1-0.7-0.1-1.1-0.1c-1.1,0-2.2,0.4-3,1.2
	c0,0-0.1,0.1-0.1,0.1c-1.8,1.7-1.9,4.5-0.3,6.4s4.5,1.9,6.4,0.3c0.1-0.1,0.2-0.2,0.2-0.2c0.2-0.2,0.4-0.4,0.5-0.6
	c0.7-1.1,1-2.4,0.7-3.6c0-0.1,0-0.2-0.1-0.2c0,0,0,0,0,0C15.8,8.8,17,7,18.8,6.5c0,0,0,0,0,0c0.2,0,0.3-0.1,0.5-0.1l0.1,0
	c0.1,0,0.1,0,0.2,0h0c0.4,0,0.9-0.2,1.2-0.6C20.9,5.8,21,5.7,21,5.6c0.6-0.9,0.4-2.1-0.4-2.7c0,0,0,0,0,0
	C19.8,2.4,18.8,2.5,18.1,3.2z"/>
</svg>
