<?xml version="1.0" encoding="utf-8"?>
<!-- Generator: Adobe Illustrator 21.1.0, SVG Export Plug-In . SVG Version: 6.00 Build 0)  -->
<svg version="1.1"
	 id="Layer_1" xmlns:cc="http://creativecommons.org/ns#" xmlns:dc="http://purl.org/dc/elements/1.1/" xmlns:rdf="http://www.w3.org/1999/02/22-rdf-syntax-ns#"
	 xmlns="http://www.w3.org/2000/svg" xmlns:xlink="http://www.w3.org/1999/xlink" x="0px" y="0px" viewBox="0 0 17.3 24"
	 style="enable-background:new 0 0 17.3 24;" xml:space="preserve">
<style type="text/css">
	.st0{fill:#F7931A;}
</style>
<path class="st0" d="M14.1,11.1c0.7-0.3,1.2-0.8,1.5-1.4s0.5-1.4,0.4-2.3c-0.1-1.3-0.7-2.2-1.7-2.8c-1-0.5-2.2-0.9-3.7-1V0H8.5v3.5
	c-0.3,0-0.6,0-0.9,0c-0.3,0-0.6,0-0.9,0V0H4.5v3.6c-0.2,0-0.5,0-0.7,0c-0.2,0-0.5,0-0.7,0H0V6h0.8c0,0,0.3,0,0.8,0
	c0.5,0,0.8,0.1,1,0.3C2.8,6.5,2.9,6.8,2.9,7v9.9c0,0.2-0.1,0.4-0.3,0.5c-0.2,0.1-0.3,0.2-0.5,0.2H2.1c0,0-0.3,0-0.8,0l-0.8,0L0,20.3
	h3.7c0,0,0.3,0,0.8,0V24h2.2v-3.7c0.3,0,0.6,0,0.9,0h0.9V24h2.2v-3.7c0.9,0,1.8-0.2,2.6-0.3c0.8-0.2,1.5-0.4,2-0.8s1-0.8,1.4-1.4
	c0.4-0.6,0.6-1.3,0.7-2.2c0.1-1.4-0.1-2.4-0.7-3.1C16,11.9,15.2,11.4,14.1,11.1L14.1,11.1L14.1,11.1z M6.8,6.2c0.3,0,0.8,0,1.3,0
	c0.6,0,1.2,0,1.7,0.2c0.6,0.1,1.1,0.3,1.5,0.7c0.4,0.3,0.7,0.8,0.7,1.5c0,0.6-0.2,1.1-0.7,1.4c-0.4,0.3-0.9,0.5-1.5,0.7
	c-0.6,0.1-1.1,0.2-1.7,0.2c-0.6,0-1,0-1.4,0L6.8,6.2z M6.7,17.7v-4.9c0.4,0,0.9,0,1.6,0c0.7,0,1.4,0,2.1,0.2s1.3,0.4,1.8,0.7
	c0.5,0.3,0.8,0.9,0.8,1.6c0,0.7-0.3,1.2-0.8,1.5c-0.5,0.4-1.1,0.6-1.8,0.7c-0.7,0.1-1.4,0.2-2.1,0.2C7.6,17.7,7.1,17.7,6.7,17.7
	L6.7,17.7L6.7,17.7z"/>
</svg>
