<svg xmlns="http://www.w3.org/2000/svg" width="512" height="512" viewBox="0 0 192.701 192.701"><g xmlns="http://www.w3.org/2000/svg" fill="#00bbc4"><path d="M171.955 88.526l-75.61 74.528-75.61-74.54c-4.74-4.704-12.439-4.704-17.179 0-4.74 4.704-4.74 12.319 0 17.011l84.2 82.997c4.559 4.511 12.608 4.535 17.191 0l84.2-83.009a11.952 11.952 0 000-17.011c-4.753-4.679-12.452-4.679-17.192.024z" data-original="#000000"/><path d="M87.755 104.322c4.559 4.511 12.608 4.535 17.191 0l84.2-82.997c4.74-4.704 4.74-12.319 0-17.011-4.74-4.704-12.439-4.704-17.179 0L96.345 78.842 20.734 4.314C15.994-.39 8.295-.39 3.555 4.314c-4.74 4.704-4.74 12.319 0 17.011l84.2 82.997z" data-original="#000000"/></g></svg>