<?xml version="1.0" encoding="utf-8"?>
<!-- Generator: Adobe Illustrator 21.1.0, SVG Export Plug-In . SVG Version: 6.00 Build 0)  -->
<svg version="1.1" id="Layer_1" xmlns="http://www.w3.org/2000/svg" xmlns:xlink="http://www.w3.org/1999/xlink" x="0px" y="0px"
	 viewBox="0 0 24 24" style="enable-background:new 0 0 24 24;" xml:space="preserve">
<style type="text/css">
	.st0{fill:#1A53F0;}
</style>
<g>
	<path class="st0" d="M5.8,12.4C2.6,12.4,0,15,0,18.2C0,21.4,2.6,24,5.8,24c3.2,0,5.8-2.6,5.8-5.8c0,0,0,0,0,0
		C11.6,15,9,12.4,5.8,12.4z M5.8,22.2c-2.2,0-4-1.8-4-4c0-2.2,1.8-4,4-4c0,0,0,0,0,0c2.2,0,4,1.8,4,4c0,0,0,0,0,0
		C9.8,20.4,8,22.2,5.8,22.2z M18.2,0c-3.2,0-5.8,2.6-5.8,5.8c0,3.2,2.6,5.8,5.8,5.8c3.2,0,5.8-2.6,5.8-5.8c0,0,0,0,0,0
		C24,2.6,21.4,0,18.2,0C18.2,0,18.2,0,18.2,0L18.2,0z M18.2,9.9c-2.2,0-4-1.8-4-4v0c0-2.2,1.8-4,4-4c0,0,0,0,0,0c2.2,0,4,1.8,4,4
		C22.2,8,20.4,9.9,18.2,9.9z M5.8,0C2.6,0,0,2.6,0,5.8c0,2.3,1.4,4.4,3.5,5.3c2.5,1.1,5.5,0.2,7.1-2.1c1.6-2.3,1.3-5.3-0.6-7.3h1.6
		V0C11.6,0,5.8,0,5.8,0z M9.8,5.8c0,2.2-1.8,4-4,4h0c-2.2,0-4-1.8-4-4c0-2.2,1.8-4,4-4C8,1.8,9.8,3.6,9.8,5.8
		C9.8,5.8,9.8,5.8,9.8,5.8z"/>
</g>
</svg>
