<?xml version="1.0" encoding="utf-8"?>
<!-- Generator: Adobe Illustrator 21.1.0, SVG Export Plug-In . SVG Version: 6.00 Build 0)  -->
<svg version="1.1" id="Layer_1" xmlns="http://www.w3.org/2000/svg" xmlns:xlink="http://www.w3.org/1999/xlink" x="0px" y="0px"
	 viewBox="0 0 24 10.3" style="enable-background:new 0 0 24 10.3;" xml:space="preserve">
<style type="text/css">
	.st0{fill:#4A90E2;}
</style>
<circle class="st0" cx="1.7" cy="8.6" r="1.7"/>
<path class="st0" d="M22.3,0c-0.9,0-1.7,0.8-1.7,1.7c0,1.4-0.2,1.7-1.7,1.7h-0.1c-0.9,0.1-1.5,0.8-1.5,1.7v0c0,1.3-0.3,1.7-1.7,1.7
	c-0.1,0-0.1,0-0.2,0c-0.9,0.1-1.5,0.8-1.5,1.7c0,0.9,0.8,1.7,1.7,1.7c0.9,0,1.7-0.7,1.7-1.6V8.6c0-1.2,0.4-1.7,1.7-1.7h0
	c0.9,0,1.7-0.7,1.7-1.6V5.1c0-1.3,0.4-1.7,1.7-1.7c0.9,0,1.7-0.8,1.7-1.7C24,0.8,23.2,0,22.3,0z M12.2,3.5H12
	c-1.5,0-1.7-0.4-1.7-1.7C10.3,0.8,9.5,0,8.6,0C7.6,0,6.8,0.8,6.8,1.7c0,1.4-0.2,1.7-1.7,1.7H5C4.1,3.5,3.4,4.2,3.4,5.1
	c0,0.9,0.8,1.7,1.7,1.7c0.9,0,1.7-0.7,1.7-1.6V5.1c0-1.3,0.4-1.7,1.7-1.7s1.7,0.5,1.7,1.7C10.3,6,11,6.8,12,6.8s1.7-0.8,1.7-1.7
	C13.7,4.2,13,3.5,12.2,3.5z"/>
</svg>
