<?xml version="1.0" encoding="utf-8"?>
<!-- Generator: Adobe Illustrator 21.1.0, SVG Export Plug-In . SVG Version: 6.00 Build 0)  -->
<svg version="1.1" id="Layer_1" xmlns="http://www.w3.org/2000/svg" xmlns:xlink="http://www.w3.org/1999/xlink" x="0px" y="0px"
	 viewBox="0 0 21.4 24.1" style="enable-background:new 0 0 21.4 24.1;" xml:space="preserve">
<style type="text/css">
	.st0{fill:#436F4D;}
	.st1{fill:#FFFFFF;}
</style>
<path class="st0" d="M11.6,0.3l8.8,5.1C21,5.7,21.3,6.3,21.3,7v10.1c0,0.7-0.3,1.3-0.9,1.6l-8.8,5.1c-0.6,0.3-1.3,0.3-1.9,0L1,18.7
	c-0.6-0.3-0.9-0.9-0.9-1.6V7c0-0.7,0.3-1.3,0.9-1.6l8.8-5.1C10.4,0,11,0,11.6,0.3z"/>
<path class="st1" d="M15,5.6c0.3,0,0.7,0,1.2,0.1V3.6c-0.5-0.1-1.1-0.2-1.9-0.2c-2.1,0-3.4,1-3.9,3.6L9.9,9.4H7.4v2.1h2l-1.1,5.1
	c-0.3,1.1-0.7,1.8-2,1.8c-0.6,0-1,0-1.1-0.1v2.2c0.6,0.1,1.2,0.2,1.8,0.2c1.9,0,3.4-1.2,3.9-3.5l1.2-5.7h3.5V9.4h-3l0.4-1.9
	C13.2,6.2,13.9,5.6,15,5.6z"/>
</svg>
