<?xml version="1.0" encoding="utf-8"?>
<!-- Generator: Adobe Illustrator 21.1.0, SVG Export Plug-In . SVG Version: 6.00 Build 0)  -->
<svg version="1.1" id="Layer_1" xmlns="http://www.w3.org/2000/svg" xmlns:xlink="http://www.w3.org/1999/xlink" x="0px" y="0px"
	 viewBox="0 0 24 27.8" style="enable-background:new 0 0 24 27.8;" xml:space="preserve">
<style type="text/css">
	.st0{fill:#103F68;}
</style>
<path class="st0" d="M12,0l12,6.9v13.9l-12,6.9l-0.1,0L0,20.8V6.9L12,0C11.9,0,12,0,12,0z M11.9,1.4L1.3,7.7v12.4l10.7,6.2l1.3-0.8
	l9.5-5.5V7.7l-9.5-5.5L11.9,1.4z M2.9,14.8l3.2-2.4l2.8,1.8v3.2l2.1,2l0,1l-2,1.9H7.2L2.9,14.8L2.9,14.8z M12.9,20.5l0-1l2.1-2v-3.2
	l2.8-1.8l3.2,2.4l-4.3,7.5h-1.7L12.9,20.5z M9.9,14.3l-1-2.7H15l-1,2.7l0.3,3l-2.4,0l-2.3,0C9.6,17.3,9.9,14.3,9.9,14.3z M11.9,10.8
	l-5.8,0L7.2,6h9.4l1.1,4.8L11.9,10.8z"/>
</svg>
