<?xml version="1.0" encoding="utf-8"?>
<!-- Generator: Adobe Illustrator 21.1.0, SVG Export Plug-In . SVG Version: 6.00 Build 0)  -->
<svg version="1.1" id="Layer_1" xmlns="http://www.w3.org/2000/svg" xmlns:xlink="http://www.w3.org/1999/xlink" x="0px" y="0px"
	 viewBox="0 0 24 24" style="enable-background:new 0 0 24 24;" xml:space="preserve">
<style type="text/css">
	.st0{fill:#23297C;}
	.st1{fill:#008BCC;}
</style>
<path class="st0" d="M11.293,0.038c-1.011,0.196-1.515,1.608-0.874,2.445c0.355,0.463,0.686,0.598,1.652,0.671
	c0.364,0.028,0.779,0.075,0.922,0.104c0.143,0.03,0.401,0.071,0.572,0.092c0.171,0.021,0.506,0.103,0.744,0.182
	c0.238,0.079,0.448,0.144,0.466,0.144c0.155,0,1.313,0.576,1.871,0.93c1.177,0.747,1.524,1.18,1.524,1.899
	c0,1.439-1.611,2.02-2.953,1.064C13.47,6.324,11.319,6.05,9.522,6.844C9.337,6.925,9.177,6.992,9.168,6.992
	c-0.034,0-0.704,0.409-0.847,0.517c-1.04,0.787-1.907,2.062-2.096,3.083c-0.028,0.151-0.078,0.396-0.112,0.545
	c-0.073,0.322-0.087,1.247-0.023,1.55c0.222,1.064,0.368,1.489,0.698,2.041c2.292,3.833,7.919,3.711,10.021-0.217
	c0.211-0.394,0.174-0.709-0.102-0.873c-0.109-0.064-0.25-0.069-2.706-0.086l-2.592-0.018l-0.32-0.151
	c-0.542-0.255-0.795-0.569-0.89-1.099c-0.155-0.872,0.274-1.558,1.138-1.82c0.347-0.105,8.468-0.103,8.746,0.002
	c0.264,0.1,0.486,0.314,0.556,0.54c0.174,0.553,0.079,2.282-0.171,3.117c-0.079,0.265-0.144,0.496-0.144,0.515
	c0,0.084-0.388,1.006-0.565,1.342c-1.462,2.783-4.434,4.677-7.504,4.781c-0.837,0.028-0.967,0.054-1.342,0.262
	c-1.088,0.604-1.028,2.252,0.1,2.772c0.495,0.228,0.833,0.254,1.829,0.136c1.139-0.134,1.474-0.189,1.893-0.308
	c0.233-0.066,0.481-0.132,0.551-0.145c0.504-0.096,1.998-0.751,2.803-1.227c2.514-1.49,4.551-4.023,5.358-6.663
	c0.213-0.696,0.26-0.892,0.404-1.676L24,13.101l0-1.14c0-1.121-0.002-1.149-0.113-1.712c-0.062-0.315-0.135-0.71-0.163-0.879
	c-0.028-0.168-0.094-0.428-0.146-0.577c-0.053-0.149-0.121-0.368-0.152-0.487c-0.198-0.764-0.918-2.195-1.582-3.141
	c-1.65-2.353-4.507-4.299-7.109-4.842c-0.172-0.036-0.494-0.108-0.717-0.159C13.423,0.027,11.754-0.051,11.293,0.038L11.293,0.038z"
	/>
<path class="st1" d="M6.276,1.596C5.344,1.915,5.04,3.122,5.708,3.847c0.647,0.701,1.93,0.542,2.334-0.29
	C8.615,2.38,7.523,1.168,6.276,1.596z M2.672,5.481C2.287,5.537,1.993,5.716,1.779,6.027C0.924,7.265,2.247,8.732,3.623,8.072
	C4.626,7.591,4.62,6.097,3.613,5.595C3.492,5.534,3.009,5.432,2.911,5.447C2.894,5.449,2.787,5.465,2.672,5.481L2.672,5.481z
	 M1.148,10.598c-1.574,0.201-1.51,2.481,0.077,2.747c1.528,0.257,2.262-1.943,0.88-2.634c-0.112-0.056-0.687-0.172-0.724-0.146
	C1.377,10.567,1.272,10.582,1.148,10.598L1.148,10.598z M2.41,15.764c-1.434,0.516-1.006,2.724,0.528,2.724
	c1.483,0,1.989-2.035,0.665-2.674C3.389,15.711,2.646,15.679,2.41,15.764z M6.498,19.643c-1.058,0.097-1.535,1.584-0.754,2.35
	c0.713,0.699,1.909,0.507,2.318-0.372C8.566,20.537,7.767,19.526,6.498,19.643z"/>
</svg>
