<?xml version="1.0" encoding="utf-8"?>
<!-- Generator: Adobe Illustrator 21.1.0, SVG Export Plug-In . SVG Version: 6.00 Build 0)  -->
<svg version="1.1" id="Layer_1" xmlns="http://www.w3.org/2000/svg" xmlns:xlink="http://www.w3.org/1999/xlink" x="0px" y="0px"
	 viewBox="0 0 21.4 24.1" style="enable-background:new 0 0 21.4 24.1;" xml:space="preserve">
<style type="text/css">
	.st0{fill:#FECC00;}
	.st1{fill:#FFFFFF;}
</style>
<path class="st0" d="M11.6,0.3l8.8,5.1C21,5.7,21.3,6.3,21.3,7v10.1c0,0.7-0.3,1.3-0.9,1.6l-8.8,5.1c-0.6,0.3-1.3,0.3-1.9,0L1,18.7
	c-0.6-0.3-0.9-0.9-0.9-1.6V7c0-0.7,0.3-1.3,0.9-1.6l8.8-5.1C10.4,0,11,0,11.6,0.3z"/>
<path class="st1" d="M7.7,9.5L4.3,13V5.5H2.1v13.1h2.2v-2.8l1.4-1.4l2.2,4.3h2.6l-3.1-5.9l3.2-3.3C10.6,9.5,7.7,9.5,7.7,9.5z
	 M16.3,9.4c-1,0-1.9,0.5-2.2,1.3l-0.2-1.2h-2v9.1h2.2V14c0-1.7,0.8-2.6,2.3-2.6c0.2,0,0.4,0,0.6,0.1v-2C16.8,9.4,16.5,9.4,16.3,9.4z
	 M19.3,18.6v-2.3h-2.5v2.3H19.3z"/>
</svg>
