<svg width="14" height="14" fill="none" xmlns="http://www.w3.org/2000/svg"><path d="M7 4.917A2.087 2.087 0 004.917 7c0 1.147.936 2.083 2.083 2.083A2.087 2.087 0 009.083 7 2.087 2.087 0 007 4.917zM13.247 7c0-.863.008-1.717-.04-2.578-.05-1-.277-1.888-1.009-2.619C11.466 1.07 10.58.843 9.58.795 8.717.747 7.863.755 7.002.755c-.863 0-1.718-.008-2.579.04-1 .049-1.887.277-2.618 1.008-.733.733-.96 1.619-1.008 2.619C.748 5.284.757 6.139.757 7c0 .86-.009 1.717.04 2.578.048 1 .276 1.888 1.008 2.619.733.733 1.618.96 2.618 1.008.863.048 1.718.04 2.579.04.862 0 1.717.008 2.578-.04 1-.049 1.887-.277 2.618-1.008.733-.733.96-1.619 1.008-2.619.05-.86.04-1.716.04-2.578zM7 10.205A3.2 3.2 0 013.795 7 3.2 3.2 0 017 3.795 3.2 3.2 0 0110.205 7 3.2 3.2 0 017 10.205zm3.336-5.793a.748.748 0 110-1.496.748.748 0 110 1.496z" fill="#000"/></svg>