<?xml version="1.0" encoding="utf-8"?>
<!-- Generator: Adobe Illustrator 21.1.0, SVG Export Plug-In . SVG Version: 6.00 Build 0)  -->
<svg version="1.1" id="Layer_1" xmlns="http://www.w3.org/2000/svg" xmlns:xlink="http://www.w3.org/1999/xlink" x="0px" y="0px"
	 viewBox="0 0 13.7 24" style="enable-background:new 0 0 13.7 24;" xml:space="preserve">
<style type="text/css">
	.st0{fill:#04183D;}
</style>
<path class="st0" d="M13.2,20.6H4.4c-0.1,0-0.2,0-0.3-0.1c-0.1-0.1-0.1-0.2-0.1-0.3V0.3c0-0.1,0-0.2-0.1-0.3C3.7,0,3.6,0,3.5,0.1
	L0.4,2.8C0.3,2.9,0.2,3,0.1,3.2C0,3.3,0,3.5,0,3.6l0,0v19.9c0,0.1,0,0.2,0.1,0.3C0.2,23.9,0.3,24,0.4,24l0,0h12.8
	c0.1,0,0.3-0.1,0.3-0.2c0.1-0.1,0.1-0.2,0.2-0.3l0,0v-2.4c0-0.1,0-0.2-0.1-0.3C13.5,20.7,13.4,20.6,13.2,20.6L13.2,20.6L13.2,20.6
	L13.2,20.6z"/>
</svg>
