<?xml version="1.0" encoding="utf-8"?>
<!-- Generator: Adobe Illustrator 21.1.0, SVG Export Plug-In . SVG Version: 6.00 Build 0)  -->
<svg version="1.1" id="Layer_1" xmlns="http://www.w3.org/2000/svg" xmlns:xlink="http://www.w3.org/1999/xlink" x="0px" y="0px"
	 viewBox="0 0 24 24" style="enable-background:new 0 0 24 24;" xml:space="preserve">
<style type="text/css">
	.st0{fill:#18A0B1;}
</style>
<title>icon</title>
<g id="aa8d72f3-e91d-4668-864f-f6ccd32ab5ee">
	<g id="f48437ee-df2e-4d1f-8155-a51b945f34ec">
		<g id="fb56a67f-1a1b-4fcb-afaf-5bdfb7c20b92">
			<circle class="st0" cx="21.9" cy="2.1" r="2.1"/>
			<path class="st0" d="M6,15.6C4.1,12.3,5.2,8,8.5,6.1c2.2-1.3,4.9-1.3,7,0l1.7-1.7l-0.1-0.1C12.8,1.5,7.1,2.7,4.3,7
				c-2.1,3.1-2,7.2,0.1,10.2L6,15.6z"/>
			<path class="st0" d="M18,8.5c1.9,3.3,0.8,7.5-2.5,9.5c-2.2,1.3-4.9,1.3-7,0l-1.7,1.7c4.2,2.9,9.9,1.8,12.8-2.4
				c2.1-3.1,2.1-7.2,0-10.3L18,8.5z"/>
			<circle class="st0" cx="2.1" cy="21.9" r="2.1"/>
		</g>
	</g>
</g>
</svg>
