<?xml version="1.0" encoding="utf-8"?>
<!-- Generator: Adobe Illustrator 21.1.0, SVG Export Plug-In . SVG Version: 6.00 Build 0)  -->
<svg version="1.1" id="Layer_1" xmlns="http://www.w3.org/2000/svg" xmlns:xlink="http://www.w3.org/1999/xlink" x="0px" y="0px"
	 viewBox="0 0 23.23 24" style="enable-background:new 0 0 23.23 24;" xml:space="preserve">
<style type="text/css">
	.st0{fill:#FDBA4D;}
	.st1{fill:#5DA9DD;}
	.st2{fill:#18568C;}
	.st3{fill:#18578C;}
	.st4{fill:#18568B;}
</style>
<title>bluzelle-blz-logo</title>
<g>
	<path class="st0" d="M3.342,17.201c0.812-0.808,2.125-0.804,2.933,0.008c0.808,0.812,0.804,2.125-0.008,2.933
		s-2.125,0.804-2.933-0.008c-0.805-0.809-0.805-2.116,0-2.925L3.342,17.201"/>
	<path class="st0" d="M17.539,3.722c0.811-0.811,2.125-0.811,2.936,0s0.811,2.125,0,2.936c-0.811,0.811-2.125,0.811-2.936,0
		c0,0,0,0,0,0l0,0c-0.809-0.809-0.811-2.121-0.003-2.931h0.003"/>
	<path class="st0" d="M6.004,15.604l2.19,2.19l2.006-2.006c-1.001-0.402-1.794-1.195-2.195-2.195L6.004,15.604z"/>
	<path class="st0" d="M15.853,10.245l2.006-2.006l-2.19-2.19l-2.006,2.006c0.495,0.199,0.945,0.496,1.322,0.873
		C15.362,9.303,15.657,9.751,15.853,10.245"/>
	<path class="st1" d="M17.47,20.034c-0.811-0.811-0.811-2.125,0-2.936c0.811-0.811,2.125-0.811,2.936,0s0.811,2.125,0,2.936
		c0,0,0,0,0,0l0,0c-0.809,0.811-2.122,0.812-2.933,0.003c0,0,0,0,0,0L17.47,20.034"/>
	<path class="st1" d="M3.55,6.473c-0.811-0.811-0.811-2.125,0-2.936s2.125-0.811,2.936,0s0.811,2.125,0,2.936c0,0,0,0,0,0l0,0
		c-0.81,0.81-2.123,0.81-2.933,0c0,0,0,0,0,0l0,0"/>
	<path class="st1" d="M15.503,17.707l2.19-2.19l-2.006-2.006c-0.402,1.001-1.195,1.794-2.195,2.195"/>
	<path class="st1" d="M10.368,7.941L8.361,5.935l-2.19,2.19l2.006,2.006c0.199-0.495,0.496-0.945,0.873-1.322
		C9.425,8.432,9.874,8.137,10.368,7.941"/>
	<path class="st2" d="M14.036,2.078c-0.001,1.147-0.931,2.076-2.078,2.075c-1.147-0.001-2.076-0.931-2.075-2.078
		S10.814-0.001,11.961,0c1.146,0.001,2.074,0.929,2.075,2.075V2.078"/>
	<path class="st2" d="M14.036,21.925c-0.001,1.147-0.931,2.076-2.078,2.075c-1.147-0.001-2.076-0.931-2.075-2.078
		s0.931-2.076,2.078-2.075c1.146,0.001,2.074,0.929,2.075,2.075V21.925z"/>
	<path class="st2" d="M12.713,5.243h-1.307v2.573c0.432-0.075,0.875-0.075,1.307,0"/>
	<path class="st2" d="M12.713,16.3c-0.432,0.075-0.875,0.075-1.307,0v2.573h1.307"/>
	<path class="st3" d="M21.152,13.511c-1.147-0.001-2.076-0.931-2.075-2.078c0.001-1.147,0.931-2.076,2.078-2.075
		c1.147,0.001,2.076,0.931,2.075,2.078c-0.001,1.146-0.929,2.074-2.075,2.075H21.152"/>
	<path class="st3" d="M2.078,13.864C0.93,13.864,0,12.933,0,11.786s0.93-2.078,2.078-2.078c1.147,0,2.078,0.93,2.078,2.077
		C4.156,12.933,3.226,13.863,2.078,13.864C2.078,13.864,2.078,13.864,2.078,13.864L2.078,13.864"/>
	<path class="st3" d="M15.868,12.439h2.573V11.13h-2.573c0.075,0.432,0.075,0.875,0,1.307V12.439z"/>
	<path class="st3" d="M7.873,12.439c-0.075-0.432-0.075-0.875,0-1.307H5.3v1.307"/>
	<path class="st4" d="M14.842,11.939c0,1.627-1.319,2.946-2.946,2.946S8.95,13.566,8.95,11.939c0-1.627,1.319-2.946,2.946-2.946l0,0
		l0,0C13.523,8.993,14.841,10.312,14.842,11.939z"/>
</g>
</svg>
