<?xml version="1.0" encoding="utf-8"?>
<!-- Generator: Adobe Illustrator 21.1.0, SVG Export Plug-In . SVG Version: 6.00 Build 0)  -->
<svg version="1.1" id="Layer_1" xmlns="http://www.w3.org/2000/svg" xmlns:xlink="http://www.w3.org/1999/xlink" x="0px" y="0px"
	 viewBox="0 0 20.4 24" style="enable-background:new 0 0 20.4 24;" xml:space="preserve">
<style type="text/css">
	.st0{fill:#5F2652;}
</style>
<title>augur</title>
<g id="Layer_2">
	<g id="Layer_1-2">
		<path class="st0" d="M14.6,12.3c-0.3-0.8-0.7-1.4-1.3-1.9L13,10.2l0,0c-0.1-0.1-0.1-0.1-0.2-0.2l0,0c-0.1-0.1-0.2-0.1-0.2-0.2
			c0,0,0,0,0,0c-0.1,0-0.2-0.1-0.2-0.1c0,0,0,0,0,0c-0.1,0-0.2-0.1-0.3-0.1c0,0,0,0,0,0c-0.1,0-0.2-0.1-0.2-0.1
			c-0.2-0.1-0.4-0.1-0.6-0.2c-0.2,0.3-0.4,0.6-0.6,0.8c0.4,0,0.8,0.1,1.1,0.3c0.2,0.1,0.4,0.2,0.6,0.3c0,0,0,0,0,0
			c0.1,0,0.1,0.1,0.1,0.1c0,0,0,0,0.1,0.1c0,0,0.1,0.1,0.1,0.1c0,0,0.1,0,0.1,0.1c0,0,0.1,0.1,0.1,0.1l0.1,0.1l0.1,0.1l0.1,0.1
			c0,0,0.1,0.1,0.1,0.1c0,0,0.1,0.1,0.1,0.1l0.1,0.1c0,0,0.1,0.1,0.1,0.1l0.1,0.1c0,0,0,0.1,0.1,0.1c0,0,0,0.1,0.1,0.1
			c0,0,0,0.1,0.1,0.1c0,0,0,0.1,0.1,0.1c0,0.1,0,0.1,0.1,0.1c0.1,0.3,0.2,0.5,0.2,0.8l0.1,0.4c0.1,0.2,0.5,1.8,1.6,2.3
			c1.2,0.6,2.8,1.4,3.4,1.7l-8.3,5v-3.4c0-0.5,1.1-1.2,1.6-1.4l0,0c0.1-0.1,0.2-0.1,0.3-0.2l0,0c0.2-0.1,0.4-0.3,0.6-0.4
			c0,0,0,0,0.1-0.1c0,0,0,0,0.1-0.1c0.1-0.1,0.1-0.1,0.2-0.2l0,0c0.1-0.1,0.1-0.1,0.2-0.2c0,0,0,0,0.1-0.1c0.1-0.1,0.1-0.1,0.1-0.2
			c0,0,0,0,0-0.1l0.2-0.2c0,0,0,0,0,0c0.1-0.1,0.1-0.2,0.2-0.3c-0.3-0.3-0.4-0.6-0.6-0.9c-0.1,0.2-0.1,0.4-0.2,0.5
			c0,0.1-0.1,0.2-0.1,0.2c0,0,0,0,0,0c0,0.1-0.1,0.1-0.1,0.2c0,0,0,0,0,0.1c0,0.1-0.1,0.1-0.1,0.2c0,0,0,0,0,0
			c-0.3,0.3-0.7,0.6-1.1,0.8l-0.1,0c-0.2,0.1-2.1,0.9-2.1,2.2v3.4l-8.3-5c0.5-0.3,2.1-1.3,3.4-1.7c0.5-0.2,1.6,0.5,2.2,1l0,0
			c0.1,0.1,0.2,0.2,0.3,0.2l0,0c0.2,0.2,0.4,0.3,0.6,0.4L8,17.9c0,0,0,0,0,0c0.1,0.1,0.3,0.1,0.4,0.2c0,0,0,0,0.1,0c0,0,0,0,0.1,0
			c0.2,0.1,0.4,0.1,0.6,0.2c0.2-0.3,0.4-0.6,0.7-0.8c-0.4,0-0.7-0.1-1-0.2c0,0,0,0-0.1,0c0,0-0.1,0-0.1-0.1c0,0,0,0-0.1,0
			c0,0-0.1,0-0.1-0.1c-0.2-0.1-0.5-0.3-0.7-0.4l-0.3-0.3c-0.3-0.3-0.6-0.5-1-0.7c-0.8-0.5-1.5-0.6-2-0.5c-1.1,0.4-2.3,1-3.1,1.5
			l8.3-15v6.6c0,0.2-0.3,0.8-1.5,1.4l-0.1,0C8,9.8,7.9,9.8,7.8,9.9l0,0c-0.2,0.1-0.4,0.3-0.6,0.4c-0.1,0.1-0.2,0.2-0.3,0.3l0,0
			c-0.1,0.1-0.2,0.2-0.3,0.4l0,0c-0.1,0.1-0.1,0.1-0.1,0.2c0,0,0,0,0,0c0,0.1-0.1,0.1-0.1,0.2c0,0,0,0,0,0l-0.1,0.2c0,0,0,0,0,0.1
			c0,0.1-0.1,0.1-0.1,0.2c0,0,0,0,0,0C6,12,6,12,5.9,12.1c0,0,0,0,0,0.1l-0.1,0.2c0,0,0,0,0,0.1c0,0,0,0.1-0.1,0.1c0,0,0,0.1,0,0.1
			c0,0.1,0,0.1-0.1,0.2c0,0,0,0.1,0,0.1c0,0,0,0.1,0,0.1c0,0,0,0.1,0,0.1c0,0.1,0,0.1,0,0.2c0,0,0,0.1,0,0.1c0,0.1,0,0.1,0,0.1
			c0,0,0,0.1,0,0.1v0.2c0,0.2,0,0.5,0.1,0.7c0.3,0.1,0.7,0.2,1,0.4c-0.1-0.3-0.2-0.7-0.2-1v-0.1c0-0.1,0-0.2,0-0.3v-0.1
			c0-0.1,0-0.1,0-0.2v0c0-0.1,0-0.2,0-0.2c0,0,0,0,0-0.1c0-0.1,0-0.1,0.1-0.2c0,0,0,0,0,0l0.1-0.2c0,0,0,0,0-0.1
			c0-0.1,0.1-0.1,0.1-0.2c0,0,0,0,0-0.1c0-0.1,0.1-0.1,0.1-0.2c0,0,0,0,0,0c0-0.1,0.1-0.1,0.1-0.2c0,0,0,0,0,0
			c0-0.1,0.1-0.1,0.1-0.2c0,0,0,0,0,0c0,0,0,0,0,0c0.1-0.1,0.1-0.1,0.1-0.2c0,0,0,0,0,0c0.2-0.3,0.5-0.5,0.8-0.7l0.4-0.2
			c0.2-0.1,2.1-1,2.1-2.2V1.8L19,16.8c-0.7-0.4-2.1-1-3.1-1.6c-0.6-0.3-1-1.4-1.1-1.8l-0.1-0.5C14.7,12.8,14.6,12.6,14.6,12.3
			L14.6,12.3z M20.3,17.1L11,0.5C10.7,0,10.2-0.1,9.7,0.1C9.6,0.2,9.5,0.3,9.4,0.5L0.1,17.1c-0.2,0.4-0.1,1,0.3,1.2l9.3,5.5
			c0.3,0.2,0.7,0.2,1,0l9.3-5.5C20.4,18.1,20.5,17.5,20.3,17.1L20.3,17.1z"/>
	</g>
</g>
</svg>
