<?xml version="1.0" standalone="no"?>
<!DOCTYPE svg PUBLIC "-//W3C//DTD SVG 20010904//EN"
 "http://www.w3.org/TR/2001/REC-SVG-20010904/DTD/svg10.dtd">
<svg version="1.0" xmlns="http://www.w3.org/2000/svg"
 width="512.000000pt" height="512.000000pt" viewBox="0 0 512.000000 512.000000"
 preserveAspectRatio="xMidYMid meet">
<metadata>
Created by potrace 1.11, written by Peter Selinger 2001-2013
</metadata>
<g transform="translate(0.000000,512.000000) scale(0.100000,-0.100000)"
fill="#000000" stroke="none">
<path d="M2280 5006 c-3 -2 -39 -7 -80 -10 -83 -7 -120 -12 -195 -27 -27 -5
-59 -11 -70 -13 -74 -15 -302 -83 -370 -111 -22 -9 -58 -24 -80 -33 -94 -39
-297 -148 -385 -207 -586 -390 -965 -984 -1077 -1687 -27 -174 -25 -567 5
-742 78 -452 261 -854 541 -1186 204 -243 461 -449 743 -599 229 -121 530
-221 743 -247 28 -4 52 -8 56 -10 19 -11 185 -19 374 -18 176 1 245 5 345 22
123 21 317 67 394 95 l40 14 31 -41 c17 -22 54 -53 84 -68 l54 -29 756 3 c715
3 758 4 791 22 49 26 88 64 113 111 l22 40 0 1535 0 1535 -27 41 c-34 53 -92
99 -143 113 -22 6 -88 11 -147 11 -96 0 -108 2 -109 18 0 9 0 197 0 417 0 408
-4 465 -39 535 -35 68 -104 127 -182 156 -36 14 -100 17 -403 18 l-360 2 -105
56 c-58 31 -145 73 -195 93 -49 21 -99 41 -110 46 -67 28 -300 92 -379 105
-21 3 -48 8 -60 10 -34 7 -78 14 -121 19 -56 7 -450 17 -455 11z"/>
</g>
</svg>
