<?xml version="1.0" encoding="utf-8"?>
<!-- Generator: Adobe Illustrator 21.1.0, SVG Export Plug-In . SVG Version: 6.00 Build 0)  -->
<svg version="1.1" id="Layer_1" xmlns="http://www.w3.org/2000/svg" xmlns:xlink="http://www.w3.org/1999/xlink" x="0px" y="0px"
	 viewBox="0 0 24 24" style="enable-background:new 0 0 24 24;" xml:space="preserve">
<style type="text/css">
	.st0{fill:#3555F9;}
</style>
<path class="st0" d="M12,24C5.4,24,0,18.6,0,12C0,5.4,5.4,0,12,0c6.6,0,12,5.4,12,12C24,18.5,18.7,24,12,24z M7.1,17.5
	c0-0.1,0.1-0.1,0.1-0.2c1.1-1.9,2.2-3.8,3.2-5.7c0.9-1.7,1.9-3.3,2.8-5c0-0.1,0.1-0.1,0.2-0.1c1.1,0,2.2,0,3.3,0h0.2
	c-1.5,2.7-3,5.3-4.6,8c0.1,0,0.1,0,0.1,0c2.7,0,5.5,0,8.2,0c0.1,0,0.1,0,0.1-0.1c0.4-1.5,0.5-3,0.1-4.5c-0.4-1.8-1.3-3.3-2.6-4.6
	c-0.6-0.6-1.3-1-2-1.4c-1.8-0.9-3.7-1.2-5.8-0.9c-2,0.4-3.7,1.3-5.1,2.8C5.2,6.1,5.1,6.4,4.9,6.6c0,0,0,0,0,0h7.8
	c0,0.1-0.1,0.1-0.1,0.2c-0.5,0.8-1,1.7-1.4,2.5c-0.1,0.1-0.1,0.1-0.2,0.1c-2.5,0-4.9,0-7.4,0H3.4c-1.3,3.9,0.5,8.8,4.9,10.8
	c4.3,1.9,8.8,0.2,10.9-2.8C15.2,17.5,11.2,17.5,7.1,17.5L7.1,17.5z M20.9,19.5c1.5-1.7,2.9-4.5,2.8-7.8c-0.1-2.7-1-5.2-2.8-7.3
	c-0.5,0.6-1.1,1.1-1.6,1.6c2.8,3.4,2.9,8.3,0,11.9L20.9,19.5L20.9,19.5z"/>
</svg>
