<?xml version="1.0" encoding="utf-8"?>
<!-- Generator: Adobe Illustrator 21.1.0, SVG Export Plug-In . SVG Version: 6.00 Build 0)  -->
<svg version="1.1" id="Layer_1" xmlns="http://www.w3.org/2000/svg" xmlns:xlink="http://www.w3.org/1999/xlink" x="0px" y="0px"
	 viewBox="0 0 24 20.7" style="enable-background:new 0 0 24 20.7;" xml:space="preserve">
<style type="text/css">
	.st0{fill:#3555F9;}
</style>
<path class="st0" d="M10.2,0.1C11.1,0,12.1,0,13,0c1.1,0.1,2.2,0.4,3.2,0.8c2,0.8,3.7,2.3,4.8,4.1c0.4,0.6,0.7,1.3,1,2
	c0.3-0.4,0.5-0.9,0.7-1.3c0.1-0.2,0.3-0.4,0.6-0.4c0.3,0,0.6,0.2,0.7,0.6c0,0.3-0.1,0.5-0.2,0.7c-0.3,0.7-0.8,1.3-1.2,1.9
	c-0.1,0.1,0,0.2,0,0.3c0.5,3-0.5,6.2-2.5,8.4c-1.2,1.3-2.7,2.3-4.3,2.9c-1.9,0.7-4,0.8-6,0.4c-2.9-0.6-5.4-2.5-6.9-5
	c-0.3-0.5-0.5-1.1-0.8-1.6c-0.3,0.4-0.5,0.9-0.7,1.3c-0.1,0.2-0.3,0.4-0.6,0.4c-0.4,0-0.8-0.4-0.6-0.8c0.4-0.8,0.8-1.6,1.4-2.3
	c0.1-0.1,0.1-0.3,0.1-0.5C1.3,10.6,1.4,9.2,1.7,8c0.8-3.6,3.9-6.7,7.5-7.6C9.5,0.3,9.9,0.2,10.2,0.1z M7.6,2.3
	C5.7,3.3,4.1,5,3.3,7.1c-0.5,1.2-0.7,2.5-0.6,3.8c0.2-0.2,0.4-0.3,0.6-0.5c1.1-1,2.4-1.7,3.7-2.3c2.5-1.1,5.2-1.6,7.9-1.7
	C13.9,5.4,13,4.5,12,3.6c0.3-0.3,0.6-0.6,0.9-0.9c0.4,0.3,0.7,0.7,1,1c1.1,1.1,2.3,2.2,3.4,3.3c-1.2,1.2-2.4,2.3-3.6,3.5
	c-0.1,0.1-0.2,0.2-0.3,0.3c-0.3-0.3-0.6-0.6-0.9-0.9c0.7-0.8,1.5-1.4,2.2-2.2c-1.2,0-2.5,0.2-3.7,0.4c-1,0.2-1.9,0.5-2.9,0.8
	c-2,0.7-3.8,1.9-5.2,3.5C3,12.5,3,12.6,3,12.7c0.2,0.7,0.5,1.4,0.8,2c1.1,2,3.1,3.6,5.3,4.3c1.3,0.4,2.7,0.6,4.1,0.4
	c1.9-0.2,3.7-1.1,5.1-2.3c2-1.8,3.2-4.5,3-7.2c-0.2,0.2-0.4,0.4-0.6,0.5c-1.4,1.2-2.9,2.1-4.6,2.7c-2.2,0.8-4.6,1.2-6.9,1.3
	c0.2,0.3,0.5,0.5,0.7,0.7c0.7,0.7,1.4,1.4,2.1,2.1c-0.3,0.3-0.6,0.6-0.9,0.9c-0.3-0.2-0.6-0.5-0.9-0.8c-1.1-1-2.1-2.1-3.2-3.1
	c-0.1-0.1-0.3-0.3-0.4-0.4c0.5-0.5,1-0.9,1.5-1.4c0.8-0.8,1.6-1.6,2.4-2.4c0.3,0.3,0.6,0.6,0.9,0.9c-0.7,0.8-1.5,1.5-2.2,2.2
	c0.8,0,1.6-0.1,2.4-0.2c0.6-0.1,1.1-0.2,1.7-0.3c2.9-0.7,5.8-2.1,7.7-4.4c-0.8-3.3-3.5-5.9-6.8-6.7C12,1,9.6,1.3,7.6,2.3z"/>
</svg>
