<?xml version="1.0" encoding="utf-8"?>
<!-- Generator: Adobe Illustrator 21.1.0, SVG Export Plug-In . SVG Version: 6.00 Build 0)  -->
<svg version="1.1" id="Layer_1" xmlns="http://www.w3.org/2000/svg" xmlns:xlink="http://www.w3.org/1999/xlink" x="0px" y="0px"
	 viewBox="0 0 64.6 55.3" style="enable-background:new 0 0 64.6 55.3;" xml:space="preserve">
<style type="text/css">
	.st0{fill:#FCC339;}
</style>
<path class="st0" d="M54.7,5.3L44.6,0H19.7l-9.6,5.4L0,18.7l32.3,36.7l32.3-36.7L54.7,5.3z M61.3,18.1l-12.6,6.4L44.6,12l9.3-4.5
	L61.3,18.1z M20.5,2h23.3l7.9,4.1l-8,3.8H20.4l-7-3.7L20.5,2z M10.8,7.5L19,12l-2.9,12.5L2.8,17.8L10.8,7.5z M5.4,21.6l10.3,5.3
	l12.6,21.7L5.4,21.6z M32.2,51.3L17.9,26.5L21.4,12h21.3l3.8,14.1L32.2,51.3z M35.8,48.5L48.6,27l10.7-5.4L35.8,48.5z"/>
<path class="st0" d="M41.4,28.8c-0.5-1.4-1.6-2.5-2.9-3.2c0.8-0.3,1.5-0.9,1.8-1.7c0.2-0.6,0.2-1.1,0.1-1.7c0,0-0.1-0.9-0.4-1.7
	c-0.6-1.3-2.6-2.5-5.4-2.8v-3.2h-2.5v3.2h-1.9v-3.2h-2.6v3.2h-4.1v2.1c0.9,0.1,1.7,0.6,2.2,1.4c0.4,0.6,0.4,1.1,0.5,1.4l0.2,8
	c0,1-0.4,1.9-1.2,2.4c-1,0.6-2,0.3-2.2,0.3v2.3h4.5V39h2.7v-3h1.9l0.1,3h2.5v-3.3h2.4c0.9,0,1.8-0.2,2.6-0.7
	C41.6,33.7,42.2,30.9,41.4,28.8z M30.4,20.9h3.2c1.2,0,2.2,0.9,2.2,2.1s-0.9,2.2-2.1,2.2h-3.3L30.4,20.9z M34.4,32.7h-3.8V28h3.8
	c1.2,0.1,2.2,1.1,2.3,2.2C36.8,31.5,35.8,32.6,34.4,32.7z"/>
</svg>
