<svg width="512" height="512" fill="none" xmlns="http://www.w3.org/2000/svg"><path fill-rule="evenodd" clip-rule="evenodd" d="M310.673 248.305c0 .415-1.57 1.91-2.005 1.91-.42 0-1.271.761-1.271 1.136 0 .133-.164.36-.364.504-.2.145-.364.374-.364.511 0 .136-.328.562-.728.948-.401.385-.729.812-.729.948 0 .136-.163.366-.364.51-.2.145-.364.374-.364.509 0 .581-.504.767-2.08.767-.919 0-1.56.075-1.56.183 0 .1-.328.182-.728.182-.401 0-.729.082-.729.182 0 .101-.163.183-.364.183-.2 0-.364.082-.364.182 0 .1-.145.182-.323.182-.179 0-.442.164-.587.365-.144.2-.408.364-.586.364s-.324.082-.324.183c0 .1-.164.182-.364.182-.2 0-.364.082-.364.182 0 .101-.164.183-.364.183-.2 0-.364.082-.364.182 0 .1-.246.182-.546.182-.301 0-.546.082-.546.182 0 .101-.164.183-.364.183-.201 0-.365-.082-.365-.183 0-.1-.327-.182-.728-.182-.4 0-.728-.082-.728-.182 0-.108-.667-.182-1.638-.182-.971 0-1.638.074-1.638.182 0 .1-.127.182-.282.182-.364 0-1.175.812-1.175 1.177 0 .155-.081.282-.182.282-.1 0-.182.164-.182.364 0 .312-.121.365-.832.365-.859 0-1.352.294-1.352.807 0 .165-.154.287-.364.287-.2 0-.364-.082-.364-.183 0-.1-.146-.182-.324-.182-.178 0-.442-.164-.586-.365-.271-.375-1.275-.519-1.275-.182 0 .1-.128.182-.285.182-.334 0-.807.428-.807.73 0 .337-.489.729-.911.729-.219 0-.7-.322-1.091-.729-.616-.643-.799-.73-1.533-.73-.458 0-.833.082-.833.183 0 .1-.164.182-.365.182-.2 0-.364.082-.364.182 0 .101-.227.183-.505.183-.298 0-.615.15-.769.364-.144.201-.39.365-.546.365-.156 0-.402.164-.546.364-.144.201-.375.365-.513.365s-.481.246-.761.547c-.281.301-.623.547-.761.547s-.369.164-.513.364c-.145.201-.409.365-.587.365s-.324.082-.324.182c0 .101-.128.183-.286.183-.429 0-.806.462-.806.989 0 .258-.082.469-.182.469-.106 0-.182.608-.182 1.458 0 1.337-.03 1.459-.364 1.459-.2 0-.364.082-.364.182 0 .1-.164.182-.364.182-.2 0-.364.083-.364.183 0 .1-.164.182-.364.182-.2 0-.364.082-.364.182 0 .101-.164.183-.364.183-.2 0-.364-.082-.364-.183 0-.1-.164-.182-.364-.182-.201 0-.364-.082-.364-.182 0-.1-.328-.183-.729-.183-.4 0-.728-.082-.728-.182 0-.1-.327-.182-.728-.182a.728.728 0 00-.728.728v.548c0 .729.078 1.276.182 1.276.1 0 .182.246.182.547 0 .301-.082.547-.182.547-.1 0-.182.328-.182.729 0 .401-.082.729-.182.729-.104 0-.182.547-.182 1.276 0 .73.078 1.277.182 1.277.113 0 .182.972.182 2.552s.069 2.552.182 2.552c.1 0 .182.246.182.547 0 .301-.082.547-.182.547-.115 0-.182 1.215-.182 3.281s.067 3.282.182 3.282c.1 0 .182.164.182.364 0 .201.082.365.182.365.1 0 .182.164.182.364 0 .201.082.365.182.365.1 0 .182.328.182.729 0 .401.082.729.182.729.101 0 .182.487.182 1.094 0 .608.081 1.094.182 1.094.1 0 .182.41.182.912 0 .501.082.911.182.911.101 0 .182.246.182.547 0 .301.082.547.182.547.101 0 .183.164.183.365 0 .2-.082.364-.183.364-.1 0-.182.328-.182.729 0 .401-.081.73-.182.73-.1 0-.182.41-.182.911 0 .501-.082.912-.182.912-.1 0-.182.328-.182.729 0 .401.082.729.182.729.1 0 .182.328.182.729 0 .401-.082.729-.182.729-.104 0-.182.547-.182 1.277 0 .729.078 1.276.182 1.276.1 0 .182.246.182.547 0 .3.082.546.182.546.101 0 .182.247.182.547 0 .301.082.547.182.547.114 0 .183 1.033.183 2.735 0 1.701.068 2.734.182 2.734.109 0 .182.73.182 1.823 0 1.094.072 1.823.182 1.823.1 0 .182.411.182.912 0 .501.082.911.182.911.101 0 .182.487.182 1.094 0 .608.081 1.094.182 1.094.117 0 .182 1.762.182 4.922 0 3.16.065 4.922.182 4.922.1 0 .182.41.182.912 0 .501.082.911.182.911.1 0 .182.41.182.912 0 .501-.082.911-.182.911-.1 0-.182.41-.182.912 0 .501-.082.911-.182.911-.1 0-.182.213-.182.474 0 .291-.21.671-.546.985-.301.281-.546.642-.546.802 0 .16-.082.292-.182.292-.101 0-.182.164-.182.364 0 .201-.082.365-.183.365-.1 0-.182.126-.182.28 0 .155-.737 1.013-1.638 1.907-.901.895-1.638 1.753-1.638 1.908 0 .154-.129.28-.287.28-.159 0-.603.328-.987.729-.385.401-.795.729-.911.729-.115 0-.525.329-.91.73-.384.401-.828.729-.987.729a.287.287 0 00-.287.285c0 .157-.409.685-.91 1.173-.501.489-.91.977-.91 1.086 0 .304-2.323 2.56-2.636 2.56-.152 0-.277.082-.277.183 0 .1-.129.182-.287.182-.158 0-.602.328-.987.729-.385.401-.829.729-.987.729-.158 0-.287.082-.287.183 0 .1-.246.182-.546.182-.301 0-.546.082-.546.182 0 .1-.164.183-.364.183-.201 0-.364.082-.364.182 0 .1-.246.182-.547.182-.3 0-.546.082-.546.182 0 .101-.163.183-.364.183-.2 0-.364.082-.364.182 0 .1-.146.182-.324.182-.178 0-.442.164-.586.365-.183.254-.471.365-.95.365-.504 0-.688.076-.688.286 0 .334-.427.807-.728.807-.348 0-.728.496-.728.95 0 .235-.164.546-.365.691-.2.145-.364.37-.364.501 0 .332-1.567 1.869-1.906 1.869-.153 0-.278.082-.278.182 0 .101-.146.183-.324.183-.178 0-.442.164-.586.364-.144.201-.408.365-.586.365s-.324.082-.324.182c0 .1-.246.182-.546.182-.301 0-.546.082-.546.183 0 .1-.164.182-.365.182-.2 0-.364.082-.364.182 0 .101-.227.183-.505.183-.298 0-.615.15-.769.364-.144.201-.408.365-.586.365s-.324.082-.324.182c0 .1-.164.182-.364.182-.2 0-.364.082-.364.183 0 .1-.164.182-.364.182-.2 0-.364.082-.364.182 0 .101-.246.183-.546.183-.301 0-.546.082-.546.182 0 .1-.246.182-.546.182-.301 0-.547.082-.547.183 0 .1-.245.182-.546.182-.3 0-.546.082-.546.182 0 .1-.327.182-.728.182-.4 0-.728.082-.728.183 0 .1-.246.182-.546.182-.3 0-.546.082-.546.182 0 .108-.668.183-1.638.183-.971 0-1.639.074-1.639.182 0 .112-.91.182-2.366.182s-2.367-.07-2.367-.182c0-.1-.245-.182-.546-.182-.3 0-.546-.082-.546-.183 0-.1-.164-.182-.364-.182-.2 0-.364-.082-.364-.182 0-.101-.164-.183-.364-.183-.2 0-.364-.082-.364-.182 0-.1-.452-.182-1.005-.182-.975 0-1.035-.03-2.003-.999-.548-.549-.997-1.123-.997-1.276 0-.153-.082-.277-.182-.277-.1 0-.182-.164-.182-.365 0-.201-.082-.365-.182-.365-.1 0-.182-.164-.182-.364 0-.201-.082-.365-.182-.365-.1 0-.182-.164-.182-.364 0-.201-.082-.365-.182-.365-.1 0-.182-.164-.182-.365 0-.2-.082-.364-.182-.364-.1 0-.182-.164-.182-.365 0-.284-.121-.364-.546-.364-.3 0-.546-.082-.546-.183 0-.113-.971-.182-2.549-.182-1.577 0-2.548-.07-2.548-.182 0-.101-.246-.183-.546-.183-.301 0-.546-.082-.546-.182 0-.1-.246-.182-.546-.182-.301 0-.546-.082-.546-.183 0-.1-.164-.182-.365-.182-.2 0-.364-.082-.364-.182 0-.1-.227-.182-.505-.182-.298 0-.615-.151-.769-.365-.144-.201-.408-.365-.586-.365s-.324-.082-.324-.182c0-.1-.146-.182-.324-.182-.178 0-.442-.164-.586-.365-.144-.2-.39-.364-.546-.364-.156 0-.402-.165-.546-.365-.145-.201-.37-.365-.502-.365-.31 0-1.501-1.192-1.501-1.503 0-.132-.163-.357-.364-.502-.2-.145-.364-.391-.364-.547 0-.156-.164-.402-.364-.547-.2-.144-.364-.409-.364-.587s-.082-.324-.182-.324c-.114 0-.182-1.094-.182-2.917 0-1.823-.068-2.917-.182-2.917-.1 0-.182-.246-.182-.547 0-.301-.082-.547-.182-.547-.1 0-.182-.164-.182-.364 0-.201-.082-.365-.182-.365-.1 0-.182-.246-.182-.547 0-.301-.082-.547-.182-.547-.1 0-.182-.164-.182-.364 0-.201-.082-.365-.182-.365-.1 0-.182-.164-.182-.365 0-.2-.082-.364-.182-.364-.1 0-.182-.246-.182-.547 0-.301-.082-.547-.182-.547-.1 0-.182-.164-.182-.365 0-.2-.082-.364-.182-.364-.101 0-.182-.164-.182-.365 0-.2-.082-.364-.182-.364-.101 0-.183-.247-.183-.547 0-.301-.081-.547-.182-.547-.107 0-.182-.669-.182-1.641s-.074-1.641-.182-1.641c-.1 0-.182-.164-.182-.364 0-.201-.082-.365-.182-.365-.101 0-.182-.486-.182-1.094 0-.607-.081-1.094-.182-1.094-.1 0-.182-.246-.182-.546 0-.301-.082-.547-.182-.547-.1 0-.182-.164-.182-.365 0-.2-.082-.365-.182-.365-.1 0-.182-.146-.182-.324 0-.178-.164-.442-.364-.587-.2-.145-.364-.391-.364-.547 0-.156-.164-.402-.364-.547-.277-.2-.364-.472-.364-1.134 0-.479.082-.871.182-.871.279 0 .216-1.268-.078-1.563-.143-.143-.389-.26-.546-.26-.158 0-.286-.082-.286-.182 0-.102-.486-.183-1.092-.183-.607 0-1.093-.081-1.093-.182 0-.1-.163-.182-.364-.182-.2 0-.364-.082-.364-.183 0-.1-.245-.182-.546-.182-.3 0-.546-.082-.546-.182 0-.101-.164-.183-.364-.183-.2 0-.364-.082-.364-.182 0-.1-.127-.182-.281-.182-.324 0-1.175-.796-1.175-1.099 0-.281-.469-.724-.766-.724-.136 0-.364-.164-.509-.365-.144-.2-.408-.364-.586-.364s-.324-.082-.324-.183c0-.1-.164-.182-.364-.182-.2 0-.364-.082-.364-.182 0-.101-.164-.183-.364-.183-.2 0-.364-.082-.364-.182 0-.1-.207-.182-.459-.182-.515 0-2.453-1.798-2.453-2.275 0-.153-.082-.277-.182-.277-.101 0-.183-.212-.183-.47 0-.311-.247-.709-.728-1.171-.4-.386-.728-.83-.728-.989 0-.158-.082-.287-.182-.287-.1 0-.182-.126-.182-.28 0-.363-1.179-1.543-1.541-1.543a.28.28 0 01-.279-.28c0-.363-1.179-1.543-1.541-1.543-.154 0-.279-.082-.279-.183 0-.1-.129-.182-.285-.182-.157 0-.684-.41-1.172-.911-.487-.502-1.014-.912-1.171-.912-.157 0-.285-.082-.285-.182 0-.101-.164-.183-.364-.183-.2 0-.364-.082-.364-.182 0-.1-.146-.182-.324-.182-.178 0-.442-.164-.586-.365-.145-.2-.408-.364-.587-.364-.178 0-.323-.082-.323-.183 0-.1-.131-.182-.291-.182-.16 0-.521-.246-.802-.547-.28-.301-.608-.547-.728-.547s-.447-.246-.728-.547c-.28-.3-.601-.547-.712-.547-.284 0-3.657-3.407-3.657-3.694 0-.13-.163-.354-.364-.499-.2-.144-.364-.374-.364-.51s-.327-.563-.728-.948c-.4-.385-.728-.812-.728-.948 0-.136-.164-.366-.364-.51-.254-.183-.364-.472-.364-.952 0-.379-.082-.689-.182-.689-.101 0-.182-.486-.182-1.094 0-.607-.081-1.094-.182-1.094-.101 0-.182-.486-.182-1.094 0-.607-.081-1.093-.182-1.093-.104 0-.182-.547-.182-1.276 0-.73.078-1.277.182-1.277.1 0 .182-.246.182-.546 0-.301.082-.547.182-.547.1 0 .182-.328.182-.73 0-.401.082-.729.182-.729.1 0 .182-.246.182-.547 0-.3.082-.547.182-.547.1 0 .182-.146.182-.324 0-.178.164-.443.364-.587.442-.319.51-1.703.104-2.109-.298-.299-.832-.349-.832-.079 0 .101-.328.183-.728.183-.401 0-.728.082-.728.182 0 .1-.246.182-.546.182-.301 0-.546.082-.546.183 0 .1-.246.182-.547.182-.3 0-.546.082-.546.182 0 .1-.327.182-.728.182-.4 0-.728.082-.728.183 0 .1-.246.182-.546.182-.3 0-.546.082-.546.182 0 .101-.164.183-.364.183-.2 0-.364.082-.364.182 0 .1-.146.182-.324.182-.178 0-.442.164-.586.365-.145.2-.39.364-.547.364-.156 0-.401.164-.546.365-.144.201-.408.365-.586.365s-.324.082-.324.182c0 .1-.164.182-.364.182-.2 0-.364.082-.364.183 0 .1-.164.182-.364.182-.2 0-.364.082-.364.182 0 .1-.164.182-.364.182-.2 0-.364.082-.364.183 0 .1-.164.182-.364.182-.2 0-.364.082-.364.182 0 .101-.164.183-.364.183-.201 0-.364.082-.364.182 0 .1-.246.182-.546.182-.301 0-.547.082-.547.183 0 .1-.163.182-.364.182-.2 0-.364.082-.364.182 0 .1-.164.182-.364.182-.2 0-.364.082-.364.183 0 .1-.246.182-.546.182-.3 0-.546.082-.546.182 0 .101-.164.183-.364.183-.2 0-.364.082-.364.182 0 .1-.164.182-.364.182-.2 0-.364.082-.364.183 0 .1-.146.182-.324.182-.178 0-.442.164-.586.364-.145.201-.409.365-.587.365s-.324.082-.324.182c0 .101-.163.183-.364.183-.2 0-.364.082-.364.182 0 .1-.245.182-.546.182-.3 0-.546.082-.546.183 0 .1-.164.182-.364.182-.2 0-.364.082-.364.182 0 .1-.164.182-.364.182-.2 0-.364.083-.364.183 0 .1-.146.182-.324.182-.178 0-.442.164-.586.365-.145.2-.408.364-.587.364-.178 0-.323.082-.323.183 0 .1-.328.182-.729.182-.4 0-.728.082-.728.182 0 .1-.164.183-.364.183-.2 0-.364.082-.364.182 0 .1-.146.182-.324.182-.178 0-.442.164-.586.365-.183.254-.471.364-.95.364-.379 0-.688.082-.688.183 0 .1-.164.182-.364.182-.201 0-.364.082-.364.182 0 .1-.146.183-.324.183-.178 0-.442.164-.587.364-.144.201-.401.365-.571.365-.169 0-.356.102-.415.228-.084.182-.127.182-.212 0-.177-.381-.631-.257-1.168.319-.28.3-.641.547-.801.547-.16 0-.291.082-.291.182 0 .1-.164.182-.364.182-.2 0-.364.082-.364.182 0 .101-.164.183-.364.183-.201 0-.364.082-.364.182 0 .1-.246.182-.546.182-.301 0-.547.082-.547.183 0 .1-.245.182-.546.182-.3 0-.546.082-.546.182 0 .101-.164.183-.364.183-.2 0-.364.082-.364.182 0 .116-1.456.182-4.005.182-2.548 0-4.004.067-4.004.182 0 .101-.41.183-.91.183-.501 0-.911.082-.911.182 0 .1-.327.182-.728.182-.4 0-.728.082-.728.183 0 .1-.164.182-.364.182-.2 0-.364.082-.364.182 0 .102-.485.183-1.092.183-.607 0-1.092.081-1.092.182 0 .1-.246.182-.546.182-.3 0-.546.082-.546.182 0 .101-.246.183-.547.183-.3 0-.546.082-.546.182 0 .1-.163.182-.364.182-.2 0-.364.082-.364.183 0 .1-.128.182-.286.182-.368 0-.806.439-.806.807 0 .158-.082.287-.182.287-.1 0-.182.164-.182.364 0 .201-.082.365-.182.365-.1 0-.182.164-.182.365 0 .2-.082.364-.182.364-.101 0-.182.486-.182 1.094 0 .608-.081 1.094-.182 1.094-.1 0-.182.246-.182.547 0 .301-.082.547-.182.547-.1 0-.182.164-.182.364 0 .201-.082.365-.182.365-.1 0-.182.164-.182.364 0 .201-.082.365-.182.365-.1 0-.182.164-.182.365 0 .2-.082.364-.183.364-.1 0-.181.164-.181.365 0 .2-.082.364-.183.364-.1 0-.182.147-.182.325 0 .178-.163.442-.364.587-.2.145-.364.409-.364.587s-.082.324-.182.324c-.1 0-.182.147-.182.325 0 .178-.164.442-.364.587-.2.145-.364.409-.364.587s-.082.325-.182.325c-.1 0-.182.164-.182.364 0 .201-.082.365-.182.365-.1 0-.182.129-.182.287 0 .159-.328.603-.728.989-.4.385-.728.812-.728.948 0 .136-.164.366-.364.51-.214.155-.364.472-.364.77 0 .278-.082.506-.182.506-.1 0-.182.164-.182.365 0 .2-.082.365-.183.365-.1 0-.181.246-.181.546 0 .483-.063.547-.531.547-.292 0-.565-.101-.607-.226-.1-.301-.683.27-.683.669 0 .158-.082.287-.182.287-.1 0-.182.146-.182.324 0 .178-.164.443-.364.587-.2.145-.364.409-.364.587 0 .179-.082.325-.182.325-.1 0-.182.246-.182.547 0 .3-.082.546-.182.546-.1 0-.182.164-.182.365 0 .201-.082.365-.182.365-.1 0-.182.131-.182.291 0 .16-.246.522-.546.802-.3.281-.546.642-.546.803 0 .16-.082.291-.182.291-.1 0-.182.164-.182.365 0 .2-.082.364-.183.364-.1 0-.181.146-.181.325 0 .178-.164.442-.365.587-.2.145-.364.376-.364.514s-.245.481-.546.762c-.3.281-.546.609-.546.729s-.246.449-.546.729c-.41.385-.546.674-.546 1.167 0 .361-.082.656-.182.656-.1 0-.182.165-.182.365 0 .201-.082.365-.182.365-.1 0-.182.41-.182.911 0 .502.082.912.182.912.113 0 .182.972.182 2.552s-.07 2.552-.182 2.552c-.108 0-.182.669-.182 1.641s-.074 1.641-.182 1.641c-.113 0-.182.972-.182 2.552s.07 2.552.182 2.552c.117 0 .182 1.701.182 4.74 0 3.038-.066 4.74-.182 4.74-.1 0-.182.246-.182.547 0 .3-.082.547-.182.547-.1 0-.182.146-.182.324 0 .178-.164.442-.364.587-.2.145-.364.409-.364.587 0 .179-.082.325-.182.325-.1 0-.182.164-.182.364 0 .201-.082.365-.183.365-.1 0-.181.164-.181.364 0 .201-.082.365-.182.365-.1 0-.183.164-.183.365 0 .2-.082.364-.182.364-.1 0-.182.209-.182.464 0 .337-.395.855-1.456 1.906-.8.794-1.456 1.534-1.456 1.646 0 .267-.463.724-.733.724-.117 0-.443.246-.723.547-.28.301-.604.547-.719.547-.306 0-1.102.849-1.102 1.177 0 .155-.082.281-.182.281-.1 0-.182.146-.182.325 0 .178-.164.442-.364.587-.2.144-.364.37-.364.502 0 .311-1.19 1.503-1.5 1.503-.132 0-.358.164-.502.365-.145.2-.408.364-.587.364-.178 0-.323.082-.323.183 0 .1-.146.182-.324.182-.178 0-.442.164-.587.365-.144.2-.408.364-.586.364s-.324.082-.324.182c0 .101-.145.183-.323.183-.179 0-.442.164-.587.364-.144.201-.39.365-.546.365-.156 0-.402.164-.546.365-.144.2-.39.364-.546.364-.156 0-.402.164-.546.365-.145.2-.371.364-.504.364-.289 0-1.135.814-1.135 1.092 0 .279-1.214 1.461-1.5 1.461-.132 0-.358.164-.502.364-.144.201-.408.365-.586.365-.239 0-.324.144-.324.547 0 .3-.082.547-.182.547-.106 0-.182.607-.182 1.458s.076 1.458.182 1.458c.118 0 .182 2.188.182 6.199 0 4.01-.064 6.198-.182 6.198-.1 0-.182.328-.182.729 0 .401-.082.729-.182.729-.1 0-.182.328-.182.73 0 .401-.082.729-.182.729-.1 0-.182.328-.182.729 0 .401-.082.729-.182.729-.101 0-.182.486-.182 1.094 0 .608-.081 1.094-.182 1.094-.1 0-.182.328-.182.729 0 .401-.082.729-.182.729-.1 0-.182.164-.182.365 0 .2-.082.364-.182.364-.1 0-.182.164-.182.365 0 .201-.082.365-.183.365-.1 0-.181.246-.181.547 0 .3-.082.546-.182.546-.1 0-.183.329-.183.73 0 .401-.081.729-.182.729-.1 0-.182.328-.182.729 0 .401-.081.729-.182.729-.113 0-.182 1.033-.182 2.735 0 1.701-.069 2.734-.182 2.734-.1 0-.182.328-.182.73 0 .401.082.729.182.729.1 0 .182.246.182.547 0 .3.082.547.182.547.1 0 .182.328.182.729 0 .401.082.729.182.729.104 0 .182.547.182 1.276s-.078 1.276-.182 1.276c-.277 0-.233 2.504.046 2.6.144.05.01.283-.364.635-.373.352-.592.733-.592 1.031 0 .261-.082.474-.182.474-.1 0-.182.328-.182.729 0 .401-.082.729-.182.729-.1 0-.182.411-.182.912 0 .501-.082.911-.182.911-.1 0-.182.165-.182.365 0 .201-.082.365-.182.365-.104 0-.182.547-.182 1.276s.078 1.276.182 1.276.182.547.182 1.276.078 1.276.182 1.276c.101 0 .182.486.182 1.094 0 .608.08 1.094.182 1.094.111 0 .182.851.182 2.187 0 1.337-.07 2.188-.182 2.188-.11 0-.182.729-.182 1.823 0 1.094-.073 1.823-.182 1.823-.1 0-.182.164-.182.365 0 .2.082.364.182.364.1 0 .182.246.182.547 0 .301.082.547.182.547.1 0 .182.246.182.547 0 .301.082.547.182.547.1 0 .182.164.182.364 0 .201.082.365.182.365.1 0 .182.246.182.547 0 .301.082.547.182.547.1 0 .182.246.182.547 0 .301.082.547.182.547.1 0 .182.164.182.364 0 .201.082.365.182.365.1 0 .183.246.183.547 0 .301.081.547.181.547.1 0 .183.164.183.364 0 .201.081.365.182.365.1 0 .182.328.182.729 0 .401.081.729.182.729.1 0 .182.246.182.547 0 .301.082.547.182.547.1 0 .182.246.182.547 0 .301.082.547.182.547.1 0 .182.328.182.729 0 .401.082.729.182.729.1 0 .182.246.182.547 0 .301.082.547.182.547.1 0 .182.328.182.729 0 .401.082.73.182.73.1 0 .182.41.182.911 0 .501.082.912.182.912.1 0 .182.246.182.546 0 .426.08.547.364.547.2 0 .364-.082.364-.182 0-.1.164-.182.364-.182.2 0 .364-.082.364-.183 0-.1.164-.182.364-.182.2 0 .364-.082.364-.182 0-.1.146-.182.324-.182.178 0 .442-.164.587-.365.154-.214.47-.365.768-.365.278 0 .506-.082.506-.182 0-.1.41-.182.91-.182s.91.082.91.182c0 .1.328.182.728.182.4 0 .728.082.728.183 0 .1.207.182.46.182.514 0 2.089-1.439 2.089-1.909 0-.153.082-.279.182-.279.1 0 .182-.164.182-.364 0-.201.082-.365.182-.365.1 0 .182-.246.182-.547 0-.301.082-.547.182-.547.1 0 .182-.164.182-.364 0-.201.082-.365.182-.365.1 0 .182-.41.182-.911 0-.502-.082-.912-.182-.912-.1 0-.182-.164-.182-.364 0-.201-.082-.365-.182-.365-.283 0-.217-1.632.078-1.927.143-.143.552-.261.91-.261s.65-.082.65-.182c0-.1.129-.182.286-.182.336 0 .806-.429.806-.734 0-.118.246-.444.547-.725.3-.281.546-.609.546-.729s.245-.448.546-.729c.3-.281.546-.608.546-.726s.328-.529.728-.915c.4-.385.728-.83.728-.988 0-.159.146-.288.324-.288.178 0 .442-.164.586-.365.145-.2.408-.364.587-.364.178 0 .323-.082.323-.182 0-.101.328-.183.729-.183.4 0 .728-.082.728-.182 0-.1.163-.182.364-.182.2 0 .364-.082.364-.183 0-.1.246-.182.546-.182.3 0 .546-.082.546-.182 0-.101.146-.183.324-.183.178 0 .442-.164.586-.364.144-.201.408-.365.586-.365s.324-.082.324-.182c0-.1.127-.182.281-.182.443 0 1.175-.848 1.175-1.359 0-.256.082-.464.182-.464.1 0 .183-.164.183-.365 0-.201.082-.365.182-.365.1 0 .182-.246.182-.547 0-.3.081-.546.182-.546.1 0 .182-.165.182-.365 0-.281.121-.365.53-.365.293 0 .58-.102.638-.228.085-.182.127-.182.212 0 .126.27 1.532.312 1.532.046 0-.1.164-.182.364-.182.2 0 .364-.082.364-.183 0-.1.13-.182.288-.182.158 0 .602-.328.986-.729.385-.401.811-.729.947-.729.136 0 .365-.164.51-.365.144-.2.378-.364.52-.364.14 0 .42-.185.62-.411.248-.278.391-.337.447-.182.053.148.462.228 1.158.228.597 0 1.077.081 1.077.182 0 .1.328.183.729.183.4 0 .728.082.728.182 0 .1.245.182.546.182.3 0 .546.082.546.182 0 .101.246.183.546.183.3 0 .546-.082.546-.183 0-.1.328-.182.728-.182.4 0 .728-.082.728-.182 0-.1.13-.182.288-.182.158 0 .602-.329.987-.73.384-.401.81-.729.946-.729.136 0 .365-.164.51-.364.144-.201.408-.365.586-.365s.324-.082.324-.182c0-.101.21-.183.465-.183.328 0 .781-.322 1.537-1.094.59-.601 1.2-1.093 1.356-1.093.155 0 .283-.082.283-.183 0-.1.163-.182.364-.182.2 0 .364-.082.364-.182 0-.1.245-.183.546-.183.3 0 .546.083.546.183 0 .1.164.182.364.182.2 0 .364.082.364.182 0 .101.41.183.91.183.501 0 .91-.082.91-.183 0-.1.328-.182.728-.182.401 0 .729-.082.729-.182 0-.1.163-.183.364-.183.2 0 .364-.082.364-.182 0-.1.145-.182.324-.182.178 0 .441-.164.586-.365.144-.2.452-.364.683-.364.474 0 1.683-1.11 1.683-1.544 0-.154.082-.279.182-.279.1 0 .182-.164.182-.365 0-.201.082-.365.182-.365.1 0 .182-.164.182-.364 0-.201.082-.365.182-.365.101 0 .182-.129.182-.286 0-.623.475-.808 2.081-.808.919 0 1.56-.075 1.56-.182 0-.1.328-.182.728-.182.401 0 .728-.082.728-.183 0-.1.41-.182.91-.182.501 0 .911-.082.911-.182 0-.101.485-.182 1.092-.182.607 0 1.092.081 1.092.182 0 .1.246.182.546.182.3 0 .546.082.546.182 0 .102.486.183 1.092.183.607 0 1.093.081 1.093.182 0 .1.163.182.364.182.2 0 .364.082.364.183 0 .1.164.182.364.182.2 0 .364.082.364.182 0 .101.164.183.364.183.2 0 .364.082.364.182 0 .1.164.182.364.182.2 0 .364.082.364.183 0 .1.246.182.546.182.301 0 .546-.082.546-.182 0-.101.246-.183.546-.183.301 0 .546-.082.546-.182 0-.103.518-.182 1.19-.182 1.114 0 1.229.04 1.82.632.347.347.631.757.631.911 0 .158.158.28.364.28.2 0 .364-.082.364-.183 0-.1.164-.182.364-.182.2 0 .364-.082.364-.182 0-.101.164-.183.364-.183.201 0 .364-.082.364-.182 0-.1.246-.182.547-.182.3 0 .546-.082.546-.182 0-.114 1.031-.183 2.73-.183s2.731.069 2.731.183c0 .1.163.182.364.182.2 0 .364.082.364.182 0 .1.245.182.546.182.3 0 .546.082.546.183 0 .1.164.182.364.182.2 0 .364.082.364.182 0 .107.607.183 1.456.183.85 0 1.457.076 1.457.182 0 .1.391.182.869.182.662 0 .933.088 1.133.365.154.214.471.364.768.364.278 0 .506.082.506.183 0 .1.246.182.546.182.464 0 .546.07.546.464 0 .764.754 1.359 1.721 1.359.455 0 .828.082.828.182 0 .101.164.183.364.183.2 0 .364.082.364.182 0 .1.246.182.546.182.3 0 .546-.082.546-.182 0-.1.164-.182.364-.182.2 0 .364-.082.364-.183 0-.1.131-.182.291-.182.16 0 .521-.246.801-.547.494-.529 1.457-.77 1.457-.364 0 .1.245.182.546.182.3 0 .546.082.546.182 0 .111.788.182 2.002.182 1.214 0 2.002-.071 2.002-.182 0-.104.547-.182 1.275-.182.728 0 1.274-.078 1.274-.182 0-.101.328-.183.728-.183.4 0 .728-.082.728-.182 0-.1.328-.182.728-.182.401 0 .728-.082.728-.183 0-.1.129-.182.286-.182.368 0 .807-.439.807-.807 0-.158.081-.287.182-.287.1 0 .182-.328.182-.729 0-.401.082-.729.182-.729.1 0 .182-.129.182-.287 0-.157.117-.403.26-.546.295-.297 1.196-.355 1.196-.079 0 .101.164.183.364.183.2 0 .364.082.364.182 0 .1.246.182.546.182.301 0 .546.082.546.183 0 .1.164.182.364.182.243 0 .364.121.364.364 0 .201.082.365.182.365.111 0 .182.79.182 2.005 0 1.216.072 2.006.182 2.006.101 0 .182.328.182.729 0 .401.082.729.183.729.1 0 .182.246.182.547 0 .301.081.547.182.547.1 0 .182.127.182.282 0 .155.201.483.447.729.366.367.627.447 1.456.447.555 0 1.009.082 1.009.183 0 .1.129.182.286.182.368 0 .806.439.806.807 0 .165.155.287.364.287.201 0 .364.082.364.182 0 .1.164.182.364.182.201 0 .365-.082.365-.182 0-.1.13-.182.291-.182.16 0 .52-.246.801-.547.28-.301.601-.547.713-.547.308 0 2.563-2.323 2.563-2.64 0-.152.082-.277.182-.277.102 0 .182-.486.182-1.094v-.547c0-.302.245-.547.546-.547.301 0 .547-.082.547-.182 0-.101.485-.182 1.092-.182.606 0 1.092-.081 1.092-.182 0-.105.546-.183 1.274-.183s1.274-.078 1.274-.182c0-.1.246-.182.546-.182.301 0 .547-.082.547-.183 0-.1.163-.182.364-.182.2 0 .364-.082.364-.182 0-.108.667-.183 1.638-.183.971 0 1.638.075 1.638.183 0 .1.41.182.91.182.501 0 .911.082.911.182 0 .101.163.183.364.183.2 0 .364.082.364.182 0 .1.245.182.546.182.3 0 .546.082.546.183 0 .1.164.182.364.182.207 0 .364.121.364.282 0 .364.811 1.176 1.175 1.176.155 0 .281.082.281.183 0 .1.164.182.364.182.201 0 .364.082.364.182 0 .1.164.182.364.182.201 0 .365.083.365.183 0 .1.163.182.364.182.2 0 .364.082.364.182 0 .101.245.183.546.183.3 0 .546.082.546.182 0 .1.164.182.364.182.2 0 .364.082.364.183 0 .1.246.182.546.182.3 0 .546.082.546.182 0 .102.486.183 1.092.183.607 0 1.092-.081 1.092-.183 0-.1.228-.182.506-.182.297 0 .615-.151.769-.365.144-.2.39-.364.546-.364.156 0 .402-.164.546-.365.144-.2.408-.365.586-.365s.324-.082.324-.182c0-.1.146-.182.324-.182.178 0 .442-.164.586-.365.145-.2.408-.364.587-.364.178 0 .323-.082.323-.183 0-.1.164-.182.364-.182.201 0 .364-.082.364-.182 0-.107.607-.183 1.457-.183.849 0 1.456-.076 1.456-.182 0-.11.789-.182 2.002-.182 1.214 0 2.003.072 2.003.182 0 .1.164.182.364.182.283 0 .364.122.364.547 0 .301-.082.547-.182.547-.1 0-.182.164-.182.365 0 .2-.082.364-.182.364-.29 0-.222 1.993.078 2.292.526.527 1.924.189 1.924-.464 0-.112.201-.405.447-.651.343-.344.638-.447 1.274-.447.455 0 .827.082.827.182 0 .1.246.182.547.182.3 0 .546.082.546.183 0 .106.606.182 1.456.182.849 0 1.456-.076 1.456-.182 0-.101.246-.183.546-.183.301 0 .546.082.546.183 0 .1.164.182.364.182.201 0 .364.082.364.182 0 .11.729.183 1.821.183s1.82.072 1.82.182c0 .1.452.182 1.005.182.975 0 1.035.03 2.003.999.548.549.997 1.105.997 1.236 0 .13.164.355.364.5.214.154.364.472.364.769 0 .279.082.507.182.507.1 0 .182.328.182.729 0 .403.326.729.729.729h.286c.947 0 1.063.05 1.715.729.385.401.829.73.987.73.158 0 .288.082.288.182 0 .1.164.182.364.182.2 0 .364.082.364.182 0 .101.321.183.713.183.392 0 .761.102.819.228.085.182.127.182.212 0 .068-.145.5-.228 1.183-.228.597 0 1.077-.082 1.077-.183 0-.1.164-.182.365-.182.2 0 .364-.082.364-.182 0-.1.163-.182.364-.182.2 0 .364-.082.364-.183 0-.1.131-.182.291-.182.16 0 .52-.246.801-.547.28-.301.641-.547.801-.547.16 0 .291-.082.291-.182 0-.1.146-.182.324-.182.178 0 .442-.165.586-.365.145-.201.408-.365.587-.365.178 0 .323-.082.323-.182 0-.1.164-.182.364-.182.201 0 .365-.082.365-.183 0-.1.163-.182.364-.182.2 0 .364-.082.364-.182 0-.1.391-.182.87-.182.661 0 .933.087 1.132.364.144.201.408.365.586.365s.324.082.324.182c0 .1.146.182.324.182.178 0 .442.164.586.365.145.2.408.365.587.365.178 0 .324.082.324.182 0 .1.245.182.546.182.3 0 .546.082.546.182 0 .101.145.183.324.183.178 0 .441.164.586.364.144.201.375.365.513.365s.481.246.761.547c.424.454.652.547 1.347.547.461 0 .837-.082.837-.183 0-.1.164-.182.364-.182.201 0 .365-.082.365-.182 0-.1.163-.182.364-.182.2 0 .364-.082.364-.183 0-.1.164-.182.364-.182.2 0 .364-.082.364-.182 0-.101.246-.183.546-.183.3 0 .546-.082.546-.182 0-.1.246-.182.546-.182.3 0 .546-.082.546-.183 0-.1.246-.182.546-.182.301 0 .546-.082.546-.182 0-.1.228-.182.506-.182.297 0 .614-.151.769-.365.144-.201.408-.365.586-.365.202 0 .324-.136.324-.364 0-.201.082-.365.182-.365.105 0 .182-.58.182-1.375 0-.88.352-1.724.977-2.343l.479-.475c.801-.793 1.456-1.569 1.456-1.724 0-.155.082-.281.182-.281.1 0 .182-.208.182-.462 0-.722 1.108-1.726 1.906-1.726.353 0 .643-.082.643-.182 0-.1.309-.182.688-.182.479 0 .767-.111.95-.365.144-.2.408-.365.586-.365.226 0 .324-.14.324-.464 0-.763.754-1.359 1.721-1.359.455 0 .828-.082.828-.182 0-.105.582-.182 1.383-.182 1.315 0 1.409-.028 1.915-.571l.182-.195a.462.462 0 01.686.013c.253.292.546.388 1.179.388.464 0 .844-.082.844-.182 0-.1.126-.182.281-.182.155 0 .482-.202.728-.448.367-.367.447-.628.447-1.458 0-.556-.082-1.011-.182-1.011-.27 0-.22-.535.078-.833.143-.144.553-.261.91-.261a.65.65 0 01.65.65v1.173c0 1.094.073 1.823.182 1.823.1 0 .182.164.182.365 0 .2.082.364.182.364.1 0 .182.164.182.365 0 .2.082.364.182.364.101 0 .182.146.182.325 0 .178.164.442.364.587.201.145.365.391.365.547 0 .156.163.402.364.547.2.144.364.39.364.547 0 .156.164.402.364.547.2.144.364.408.364.587 0 .178.082.324.182.324.111 0 .182.851.182 2.188 0 1.337.071 2.187.182 2.187.1 0 .182.211.182.469 0 .528.376.99.806.99.157 0 .286.082.286.182 0 .1.146.182.324.182.178 0 .442.164.586.365.145.2.371.365.504.365.332 0 1.135.832 1.135 1.176 0 .155.081.282.182.282.1 0 .182.129.182.286 0 .332.426.808.723.808.302 0 1.097.852 1.097 1.177 0 .154.082.281.182.281.108 0 .182.669.182 1.641s.074 1.641.182 1.641c.1 0 .182.328.182.729 0 .401.082.729.182.729.1 0 .182.246.182.547 0 .301.082.547.182.547.1 0 .182.164.182.364 0 .201.082.365.182.365.1 0 .182.164.182.365 0 .2.082.364.182.364.1 0 .182.129.182.287 0 .475.482.807 1.171.807.357 0 .65.082.65.182 0 .101.163.183.364.183.2 0 .364.082.364.182 0 .1.327.182.728.182.4 0 .728.082.728.183 0 .108.667.182 1.638.182.971 0 1.639-.074 1.639-.182 0-.101.163-.183.364-.183.2 0 .364-.082.364-.182 0-.1.163-.182.364-.182.2 0 .364-.082.364-.183 0-.404.614-.141 1.274.547.385.401.829.729.987.729.158 0 .287.083.287.183 0 .1.129.182.286.182.33 0 .806.427.806.722 0 .388 1.256 1.466 1.708 1.466.246 0 .494.102.553.228.085.182.127.182.212 0 .058-.126.245-.228.415-.228.17 0 .427-.164.571-.365.218-.303.471-.365 1.497-.365.701 0 1.233-.078 1.233-.182 0-.1.294-.182.652-.182.524 0 .791.145 1.367.746l.182.19a.73.73 0 001.06-.007c.639-.686 1.6-.781 2.018-.2.222.308.472.365 1.596.365 1.173 0 1.387-.054 1.78-.448.246-.246.447-.656.447-.911 0-.411.075-.464.65-.464.824 0 1.17.347 1.17 1.172 0 .358.082.651.182.651.101 0 .182.164.182.364 0 .243.122.365.364.365.201 0 .365.082.365.182 0 .111.788.183 2.002.183 1.213 0 2.002.071 2.002.182 0 .1.246.182.546.182.301 0 .546-.082.546-.182 0-.1.146-.182.324-.182.178 0 .442-.165.587-.365.144-.201.408-.365.586-.365.295 0 .324.227.324 2.553 0 1.58.069 2.552.182 2.552.1 0 .182.126.182.281 0 .345.802 1.177 1.135 1.177.132 0 .359.164.503.365.144.2.39.364.546.364.156 0 .402.164.546.365.145.201.408.365.587.365.178 0 .323.082.323.182 0 .1.246.182.547.182.3 0 .546.082.546.182 0 .101.163.183.364.183.2 0 .364.082.364.182 0 .1.245.182.546.182.3 0 .546.082.546.183 0 .1.246.182.546.182.3 0 .546.082.546.182 0 .101.246.183.546.183.402 0 .546.085.546.324 0 .178.164.443.364.587.201.145.364.409.364.587 0 .251.149.325.65.325.689 0 1.171.332 1.171.807 0 .158.082.286.182.286.1 0 .182.208.182.461 0 .628 1.461 2.092 2.088 2.092.253 0 .46.082.46.182 0 .1.164.182.364.182.201 0 .364.082.364.183 0 .1.246.182.546.182.301 0 .547.082.547.182 0 .1.227.182.505.182.298 0 .615.151.769.365.144.201.375.365.513.365s.48.246.761.547c.314.336.692.546.983.546.26 0 .473.083.473.183 0 .1.164.182.364.182.201 0 .364.082.364.182 0 .101.164.183.364.183.213 0 .364.121.364.291 0 .16.246.522.547.802.3.281.546.61.546.73s.245.448.546.729c.3.281.546.624.546.762s.164.369.364.514c.2.145.364.391.364.547 0 .156.164.402.364.547.2.144.364.391.364.547 0 .156.164.402.364.547.2.144.364.369.364.5 0 .287 1.913 2.234 2.195 2.234.11 0 .515.328.9.729.385.401.796.73.914.73s.444.246.724.546c.281.301.641.547.801.547.16 0 .291.082.291.183 0 .1.164.182.364.182.201 0 .364.082.364.182 0 .101.127.183.282.183.344 0 1.175.803 1.175 1.136 0 .133.163.36.364.504.2.145.364.409.364.588 0 .178.082.324.182.324.1 0 .182.246.182.547 0 .301.082.547.182.547.1 0 .182.328.182.729 0 .401.082.729.182.729.1 0 .182.328.182.729 0 .401.082.729.182.729.1 0 .182.247.182.547 0 .301.082.547.182.547.1 0 .182.228.182.507 0 .297.15.615.364.769.2.145.364.409.364.588 0 .178.082.324.182.324.1 0 .182.126.182.279 0 .342 1.169 1.544 1.501 1.544.132 0 .357.164.502.365.144.2.408.364.586.364s.324.082.324.182c0 .101.372.183.827.183.636 0 .931.103 1.274.447.246.246.447.556.447.689 0 .133.164.36.364.504.2.145.364.409.364.588 0 .178.082.324.182.324.1 0 .182.293.182.651 0 .825.347 1.172 1.171 1.172.357 0 .65.082.65.182 0 .101.164.183.364.183.2 0 .364-.082.364-.183 0-.1.409-.182.91-.182.501 0 .91.082.91.182 0 .101.246.183.546.183.301 0 .546.082.546.182 0 .1.164.182.364.182.201 0 .364.082.364.182 0 .101.146.183.324.183.178 0 .442.164.587.364.144.201.408.365.586.365s.324.082.324.182c0 .101.164.183.364.183.2 0 .364.082.364.182 0 .1.146.182.324.182.178 0 .442.164.586.365.144.2.408.364.586.364s.324.082.324.183c0 .113 1.006.182 2.653.182 2.711 0 3.172-.112 3.172-.767 0-.136.164-.365.364-.509.2-.145.364-.37.364-.5 0-.447 1.963-2.235 2.454-2.235.252 0 .459.082.459.183 0 .1.246.182.546.182.3 0 .546.082.546.182 0 .101.164.183.364.183.2 0 .364.082.364.182 0 .1.246.182.546.182.301 0 .546.082.546.182 0 .101.164.183.364.183.201 0 .364.082.364.182 0 .1.246.182.547.182.3 0 .546.082.546.183 0 .105.581.182 1.379.182 1.372 0 1.384-.004 2.079-.729.385-.401.829-.729.987-.729.158 0 .287-.082.287-.183 0-.1.164-.182.364-.182.201 0 .365-.082.365-.182 0-.101.288-.183.641-.183.518 0 .8-.158 1.457-.815.534-.536.814-.974.814-1.276 0-.254.082-.461.182-.461.1 0 .182-.246.182-.547 0-.301.082-.547.182-.547.1 0 .182-.246.182-.547 0-.3.082-.546.182-.546.1 0 .182-.165.182-.365 0-.201.082-.365.182-.365.1 0 .182-.246.182-.547 0-.3.082-.546.182-.546.1 0 .182-.165.182-.365 0-.201.082-.365.182-.365.101 0 .182-.164.182-.364 0-.201.082-.365.182-.365.101 0 .182-.126.182-.279 0-.323 1.162-1.544 1.469-1.544.113 0 .435-.246.716-.547.28-.301.603-.547.716-.547.261 0 1.468-1.199 1.468-1.458 0-.107.284-.479.631-.827.622-.622.655-.632 2.185-.632.914 0 1.553.075 1.553.183 0 .1.41.182.91.182.501 0 .91-.082.91-.182 0-.101.128-.183.285-.183.157 0 .684-.41 1.172-.911.487-.501 1.014-.912 1.171-.912.157 0 .285-.082.285-.182 0-.103.518-.182 1.191-.182 1.023 0 1.255.063 1.638.447.246.246.447.575.447.73 0 .155.082.281.182.281.1 0 .182.164.182.365 0 .243.122.364.364.364.201 0 .365.082.365.183 0 .1.126.182.28.182.154 0 1.011.738 1.904 1.641.893.902 1.75 1.64 1.904 1.64.154 0 .28.083.28.183 0 .1.164.182.364.182.201 0 .364.082.364.182 0 .101.164.183.364.183.201 0 .365.082.365.182 0 .1.163.182.364.182.2 0 .364-.082.364-.182 0-.1.327-.182.728-.182.4 0 .728-.082.728-.183 0-.1.164-.182.364-.182.2 0 .364-.082.364-.182 0-.1.146-.183.324-.183.178 0 .442-.164.586-.364.145-.201.408-.365.587-.365.202 0 .323-.136.323-.364 0-.578.846-.472 1.457.182.28.301.641.547.801.547.16 0 .291.082.291.182 0 .1.164.182.364.182.2 0 .364.083.364.183 0 .1.246.182.546.182.3 0 .546.082.546.182 0 .101.328.183.728.183.401 0 .728.082.728.182 0 .108.668.182 1.639.182.97 0 1.638.074 1.638.183s.728.182 1.82.182 1.821.073 1.821.182c0 .1.327.182.728.182.4 0 .728-.082.728-.182 0-.1.246-.182.546-.182.425 0 .546-.081.546-.365 0-.2.082-.364.182-.364.1 0 .182-.164.182-.365 0-.2.082-.365.182-.365.1 0 .182-.246.182-.546 0-.301.082-.547.182-.547.1 0 .182-.164.182-.365 0-.2.082-.365.182-.365.1 0 .182-.246.182-.546 0-.301.082-.547.182-.547.114 0 .182-1.033.182-2.735 0-1.701-.068-2.734-.182-2.734-.1 0-.182-.411-.182-.912 0-.501.082-.911.182-.911.1 0 .182-.132.182-.292 0-.16.246-.521.546-.802.301-.281.546-.642.546-.803 0-.16.082-.291.183-.291.1 0 .182-.164.182-.365 0-.2.081-.364.182-.364.1 0 .182-.246.182-.547 0-.301.082-.547.182-.547.1 0 .182-.125.182-.278 0-.34 1.535-1.91 1.866-1.91.131 0 .356-.164.5-.364.144-.201.39-.365.546-.365.156 0 .402-.164.546-.365.145-.2.376-.364.514-.364.137 0 .48-.246.76-.547.281-.301.642-.547.802-.547.16 0 .291-.082.291-.182 0-.1.164-.183.364-.183.2 0 .364-.082.364-.182 0-.1.164-.182.364-.182.2 0 .364-.082.364-.182 0-.101.207-.183.461-.183.513 0 1.723-1.084 1.723-1.543 0-.154.082-.28.182-.28.1 0 .182-.164.182-.364 0-.201-.082-.365-.182-.365-.1 0-.182-.164-.182-.365 0-.2.082-.364.182-.364.1 0 .182-.164.182-.365 0-.2.082-.364.182-.364.322 0 .194-.64-.182-.912-.886-.64-.232-1.276 1.312-1.276.948 0 1.204-.066 1.419-.365.144-.2.408-.364.586-.364s.324-.082.324-.182c0-.101.246-.183.546-.183.3 0 .546-.082.546-.182 0-.1.246-.182.546-.182.301 0 .546-.082.546-.183 0-.1.126-.182.279-.182.363 0 1.542-1.181 1.542-1.544 0-.153.082-.279.182-.279.1 0 .182-.164.182-.365 0-.2.082-.364.182-.364.1 0 .182-.246.182-.547 0-.301.082-.547.182-.547.1 0 .182-.41.182-.912 0-.501.082-.911.182-.911.1 0 .182-.127.182-.282 0-.365.811-1.176 1.175-1.176.155 0 .281-.082.281-.183 0-.1.41-.182.91-.182.501 0 .911.082.911.182 0 .101.391.183.869.183.662 0 .933-.088 1.133-.365.144-.201.408-.365.586-.365s.324-.082.324-.182c0-.1.288-.182.641-.182.534 0 .808-.167 1.638-.999.549-.549.998-1.123.998-1.276 0-.153.081-.278.182-.278.1 0 .182-.164.182-.364 0-.284.121-.365.546-.365.3 0 .546-.082.546-.182 0-.1.246-.182.546-.182.3 0 .546-.082.546-.183 0-.1.164-.182.364-.182.2 0 .364-.082.364-.182 0-.1.129-.183.286-.183.549 0 .806-.491.806-1.536 0-.559.082-1.016.182-1.016.1 0 .182-.211.182-.47 0-.312.252-.712.749-1.191l.382-.367a.466.466 0 00-.018-.688c-.211-.184-.385-.468-.385-.632 0-.164-.081-.298-.182-.298-.1 0-.182-.164-.182-.364 0-.201.082-.365.182-.365.101 0 .182-.146.182-.324 0-.179.164-.443.365-.587.2-.145.364-.391.364-.547 0-.157.163-.403.364-.547.2-.145.364-.391.364-.547 0-.156.164-.403.364-.547.2-.145.364-.391.364-.547 0-.156.164-.402.364-.547.277-.2.364-.472.364-1.134 0-.479-.082-.871-.182-.871-.1 0-.182-.164-.182-.365 0-.2-.082-.364-.182-.364-.1 0-.182-.165-.182-.365 0-.201-.082-.365-.182-.365-.1 0-.182-.164-.182-.364 0-.201-.082-.365-.182-.365-.1 0-.182-.246-.182-.547 0-.301-.082-.547-.182-.547-.1 0-.182-.246-.182-.547 0-.3-.082-.546-.182-.546-.1 0-.182-.247-.182-.547 0-.301-.082-.547-.182-.547-.101 0-.182-.246-.182-.547 0-.301-.082-.547-.182-.547-.101 0-.183-.164-.183-.365 0-.2-.081-.364-.182-.364-.1 0-.182-.146-.182-.325 0-.178-.163-.442-.364-.587-.2-.144-.364-.409-.364-.587s-.082-.324-.182-.324c-.1 0-.182-.157-.182-.35 0-.192-.102-.386-.227-.431-.155-.055-.096-.199.182-.447.225-.2.409-.499.409-.662 0-.164.082-.298.182-.298.1 0 .182-.164.182-.365 0-.2.082-.364.182-.364.11 0 .182-.729.182-1.823 0-1.094-.072-1.823-.182-1.823-.1 0-.182-.328-.182-.729 0-.401-.082-.73-.182-.73-.1 0-.182-.146-.182-.324 0-.178-.164-.443-.364-.587-.2-.145-.364-.376-.364-.514s-.246-.481-.546-.762c-.3-.281-.546-.609-.546-.729 0-.121-.246-.449-.546-.73-.3-.281-.546-.624-.546-.762s-.164-.369-.364-.514c-.254-.183-.364-.472-.364-.952 0-.378.082-.688.182-.688.1 0 .182-.165.182-.365 0-.201-.082-.365-.182-.365-.1 0-.182-.164-.182-.364 0-.21-.122-.365-.286-.365-.362 0-.807-.437-.807-.792 0-.149-.1-.305-.222-.346-.29-.096.648-1.05 1.033-1.05.155 0 .282-.082.282-.182 0-.1.245-.182.546-.182a.547.547 0 00.546-.546v-1.194c0-1.605-.035-1.775-.447-2.188-.246-.246-.573-.447-.728-.447-.155 0-.281-.082-.281-.183 0-.1-.164-.182-.364-.182-.201 0-.365-.082-.365-.182 0-.101-.327-.183-.728-.183-.4 0-.728-.082-.728-.182 0-.1-.454-.182-1.009-.182-.829 0-1.09-.08-1.456-.448-.246-.246-.447-.656-.447-.911s-.082-.464-.182-.464c-.1 0-.182-.246-.182-.547 0-.301-.082-.547-.182-.547-.1 0-.182-.246-.182-.547 0-.301-.082-.547-.182-.547-.101 0-.182-.164-.182-.364 0-.201-.082-.365-.182-.365-.108 0-.182-.669-.182-1.641s-.075-1.64-.183-1.64c-.1 0-.182-.165-.182-.365 0-.201-.081-.365-.182-.365-.1 0-.182-.129-.182-.287 0-.159-.327-.603-.728-.989-.583-.561-.728-.83-.728-1.353 0-.359.082-.652.182-.652.1 0 .182-.129.182-.286 0-.333-.426-.808-.725-.808-.113 0-.688-.492-1.277-1.094-.59-.601-1.161-1.094-1.27-1.094-.109 0-.483-.284-.83-.632-.513-.513-.631-.77-.631-1.373s.118-.859.631-1.373c.347-.348.757-.632.911-.632.153 0 .279-.082.279-.182 0-.101.163-.183.364-.183.337 0 .364-.121.364-1.64 0-1.641 0-1.641.468-1.641.715 0 .988-.404.988-1.459 0-1.054-.273-1.458-.988-1.458-.258 0-.468-.082-.468-.182 0-.101-.246-.183-.546-.183-.301 0-.546.082-.546.183 0 .1-.328.182-.729.182-.4 0-.728-.082-.728-.182 0-.101-.128-.183-.286-.183-.351 0-.806-.433-.806-.767 0-.135-.164-.364-.364-.509-.2-.144-.364-.408-.364-.587 0-.178-.082-.324-.182-.324-.1 0-.182-.125-.182-.277 0-.152-.531-.809-1.18-1.459a4.027 4.027 0 00-2.849-1.181h-1.249a.547.547 0 00-.547.547c0 .516-.04.547-.728.547-.401 0-.728.082-.728.182 0 .1-.146.182-.324.182-.178 0-.442.164-.586.365-.293.406-1.183.497-1.351.137-.084-.183-.127-.183-.212 0-.058.125-.389.228-.734.228-.474 0-.783.155-1.259.632-.347.347-.631.722-.631.833 0 .296-.476.722-.806.722-.197 0-.286-.171-.286-.547 0-.301.082-.547.182-.547.11 0 .182-.79.182-2.005 0-1.215-.072-2.005-.182-2.005-.1 0-.182-.41-.182-.912 0-.501.082-.911.182-.911.1 0 .182-.129.182-.287 0-.351.432-.807.766-.807.135 0 .364-.164.508-.365.144-.2.408-.364.586-.364s.324-.082.324-.183c0-.1.129-.182.286-.182.368 0 .806-.439.806-.807 0-.158.082-.287.182-.287.1 0 .182-.41.182-.911 0-.502.082-.912.182-.912.266 0 .224-1.408-.045-1.534-.182-.085-.182-.128 0-.213.125-.058.227-.263.227-.456 0-.192.082-.349.182-.349.101 0 .182-.41.182-.911 0-.502-.081-.912-.182-.912-.1 0-.182-.131-.182-.291 0-.161-.245-.522-.546-.803-.411-.384-.546-.673-.546-1.167 0-.361.082-.656.182-.656.1 0 .182-.246.182-.547 0-.301.082-.547.182-.547.1 0 .182-.213.182-.473 0-.292.211-.671.546-.985.5-.468.547-.612.547-1.714 0-.68.079-1.203.182-1.203.289 0 .221-1.992-.078-2.292-.143-.143-.553-.26-.911-.26-.912 0-.844-.381.26-1.459.582-.566.911-1.042.911-1.315 0-.235.163-.545.364-.69.2-.144.364-.409.364-.587 0-.189.134-.324.324-.324.178 0 .442-.164.586-.365.144-.2.39-.365.546-.365.156 0 .402-.164.546-.364.144-.201.373-.365.508-.365.334 0 .766-.456.766-.807 0-.158.082-.287.182-.287.1 0 .182-.246.182-.546 0-.301.082-.547.182-.547.101 0 .182-.246.182-.547 0-.301.082-.547.182-.547.101 0 .182-.246.182-.547 0-.301.082-.547.183-.547.1 0 .182-.246.182-.547 0-.301.081-.547.182-.547.1 0 .182-.246.182-.547 0-.301.082-.547.182-.547.1 0 .182-.328.182-.729 0-.401.082-.729.182-.729.1 0 .182-.246.182-.547 0-.301.082-.547.182-.547.1 0 .182-.246.182-.547 0-.301.082-.547.182-.547.112 0 .182-.911.182-2.37 0-1.458-.07-2.37-.182-2.37-.1 0-.182-.328-.182-.729 0-.401-.082-.729-.182-.729-.1 0-.182-.246-.182-.547 0-.301-.082-.547-.182-.547-.1 0-.182-.164-.182-.364 0-.201-.082-.365-.182-.365-.1 0-.182-.129-.182-.286 0-.431-.462-.808-.989-.808-.257 0-.468-.082-.468-.182 0-.1-.163-.182-.364-.182-.2 0-.364-.082-.364-.183 0-.1-.125-.182-.279-.182-.315 0-1.541-1.16-1.541-1.457 0-.299-1.594-1.824-1.907-1.824-.152 0-.277-.082-.277-.183 0-.1-.164-.182-.365-.182-.2 0-.364-.082-.364-.182 0-.101-.163-.183-.364-.183-.2 0-.364-.082-.364-.182 0-.1-.164-.182-.364-.182-.2 0-.364-.082-.364-.182 0-.101-.164-.183-.364-.183-.2 0-.364-.082-.364-.182 0-.1-.164-.182-.364-.182-.2 0-.364-.082-.364-.183 0-.1-.164-.182-.364-.182-.228 0-.364-.122-.364-.324 0-.179-.164-.443-.364-.588-.201-.144-.364-.39-.364-.546 0-.157-.164-.403-.364-.547-.201-.145-.364-.372-.364-.505 0-.313-.823-1.136-1.135-1.136-.133 0-.359-.164-.504-.365-.144-.2-.408-.364-.586-.364s-.324-.082-.324-.183c0-.1-.328-.182-.728-.182-.4 0-.728-.082-.728-.182 0-.1-.246-.182-.546-.182-.301 0-.546-.082-.546-.183 0-.1-.164-.182-.364-.182-.201 0-.364-.082-.364-.182 0-.101-.164-.183-.365-.183-.2 0-.364-.082-.364-.182 0-.1-.163-.182-.364-.182-.2 0-.364-.082-.364-.183 0-.1-.164-.182-.364-.182-.2 0-.364-.082-.364-.182 0-.1-.129-.182-.286-.182-.548 0-.806-.492-.806-1.537 0-.894.043-1.016.364-1.016.2 0 .364-.082.364-.182 0-.1.164-.182.364-.182.2 0 .364-.082.364-.183 0-.1.246-.182.546-.182.486 0 .546-.061.546-.547 0-.301.082-.547.182-.547.101 0 .182-.328.182-.729 0-.401.082-.729.183-.729.102 0 .182-.521.182-1.198 0-1.232-.229-1.719-.807-1.719-.212 0-.286-.188-.286-.729 0-.401.082-.729.182-.729.101 0 .182-.164.182-.365 0-.243-.121-.365-.364-.365-.2 0-.364-.082-.364-.182 0-.106-.606-.182-1.456-.182-.849 0-1.456.076-1.456.182 0 .1-.246.182-.546.182-.301 0-.546.082-.546.183 0 .1-.328.182-.729.182-.4 0-.728.082-.728.182 0 .104-.546.183-1.274.183s-1.274.078-1.274.182c0 .1-.41.182-.91.182-.501 0-.91-.082-.91-.182 0-.1-.146-.182-.324-.182-.178 0-.442-.164-.587-.365-.144-.2-.408-.365-.586-.365s-.324-.082-.324-.182c0-.1-.245-.182-.546-.182-.3 0-.546-.082-.546-.182 0-.101-.246-.183-.546-.183-.3 0-.546-.082-.546-.182 0-.1-.246-.182-.546-.182-.301 0-.546-.082-.546-.183 0-.104-.546-.182-1.274-.182-.729 0-1.275.078-1.275.182 0 .101-.327.183-.728.183-.4 0-.728.082-.728.182 0 .109-.728.182-1.82.182s-1.821-.073-1.821-.182c0-.1-.245-.182-.546-.182-.3 0-.546-.082-.546-.183 0-.1-.327-.182-.728-.182-.4 0-.728-.082-.728-.182 0-.101-.164-.183-.364-.183-.2 0-.364-.082-.364-.182 0-.1-.246-.182-.546-.182-.301 0-.546-.082-.546-.182 0-.101-.164-.183-.364-.183-.201 0-.364-.082-.364-.182 0-.1-.164-.182-.364-.182-.201 0-.365-.082-.365-.183 0-.1-.125-.182-.278-.182-.154 0-1.175-.902-2.27-2.005-1.095-1.103-2.082-2.006-2.193-2.006-.111 0-.517-.328-.902-.729-.695-.725-.707-.729-2.079-.729-.798 0-1.379-.077-1.379-.182 0-.101-.164-.183-.364-.183-.2 0-.364-.082-.364-.182 0-.1-.129-.182-.287-.182-.159 0-.603-.328-.987-.729-.385-.402-.829-.73-.987-.73-.158 0-.288-.082-.288-.182 0-.1-.288-.182-.64-.182-.546 0-.816.175-1.821 1.181-.648.65-1.179 1.288-1.179 1.419 0 .13-.164.354-.364.499-.201.144-.364.37-.364.502 0 .332-1.201 1.503-1.542 1.503-.153 0-.279.082-.279.182 0 .101-.246.183-.546.183-.3 0-.546.082-.546.182 0 .1-.291.182-.647.182-.551 0-.807.164-1.719 1.094-1 1.02-1.129 1.094-1.902 1.094-.456 0-.829.082-.829.182 0 .104-.546.183-1.274.183s-1.274.078-1.274.182c0 .1-.164.182-.364.182-.201 0-.364.082-.364.183 0 .1-.146.182-.324.182-.178 0-.442.164-.587.364-.144.201-.408.365-.586.365s-.324.082-.324.182c0 .101-.128.183-.286.183-.368 0-.806.439-.806.807 0 .158-.082.286-.182.286-.1 0-.182.247-.182.547 0 .301-.082.547-.182.547-.1 0-.182.164-.182.365 0 .243-.121.364-.364.364-.2 0-.364-.082-.364-.182 0-.1-.246-.182-.546-.182-.301 0-.546-.082-.546-.182 0-.101-.41-.183-.91-.183-.501 0-.911.082-.911.183 0 .1-.163.182-.364.182-.2 0-.364.082-.364.182 0 .1-.164.182-.364.182-.2 0-.364.082-.364.183 0 .1-.328.182-.728.182-.4 0-.728-.082-.728-.182 0-.101-.127-.183-.281-.183-.155 0-.483-.201-.729-.447-.366-.367-.446-.628-.446-1.459 0-.556-.082-1.01-.182-1.01-.102 0-.182-.487-.182-1.094 0-.972-.041-1.094-.365-1.094-.2 0-.364-.082-.364-.182 0-.101-.163-.183-.364-.183-.2 0-.364-.082-.364-.182 0-.112-.91-.182-2.366-.182s-2.367-.07-2.367-.183c0-.1-.163-.182-.364-.182-.2 0-.364-.082-.364-.182 0-.1-.163-.182-.364-.182-.2 0-.364-.082-.364-.183 0-.1-.164-.182-.364-.182-.2 0-.364-.082-.364-.182 0-.101-.246-.183-.546-.183-.3 0-.546-.082-.546-.182 0-.1-.213-.182-.473-.182-.291 0-.67-.211-.983-.547-.358-.384-.681-.547-1.083-.547-.594 0-1.466-.676-1.466-1.137 0-.132-.164-.359-.364-.504-.2-.144-.364-.408-.364-.587 0-.178-.082-.324-.182-.324-.1 0-.182-.164-.182-.365 0-.2-.082-.364-.182-.364-.103 0-.182-.521-.182-1.198 0-1.175-.229-1.719-.723-1.719-.303 0-1.097-.853-1.097-1.177 0-.155-.082-.282-.182-.282-.1 0-.182-.131-.182-.291 0-.16-.246-.522-.546-.803-.301-.28-.547-.612-.547-.735s-.184-.389-.409-.589c-.278-.248-.337-.392-.182-.447.125-.045.227-.239.227-.431s.082-.35.182-.35c.101 0 .182-.41.182-.911 0-.502-.081-.912-.182-.912-.1 0-.182-.164-.182-.364 0-.243-.121-.365-.364-.365-.2 0-.364-.082-.364-.182 0-.101-.245-.183-.546-.183-.3 0-.546-.082-.546-.182 0-.1-.164-.182-.364-.182-.2 0-.364-.082-.364-.182 0-.101-.164-.183-.364-.183-.2 0-.364-.082-.364-.182 0-.1-.246-.182-.546-.182-.301 0-.546-.082-.546-.183 0-.1-.374-.182-.831-.182-.758 0-.91-.08-1.718-.911-.487-.502-1.014-.912-1.171-.912-.157 0-.285-.082-.285-.182 0-.101-.164-.183-.364-.183-.2 0-.364-.082-.364-.182 0-.1-.127-.182-.281-.182-.155 0-.483-.202-.729-.448-.343-.344-.446-.639-.446-1.276 0-.456.081-.828.182-.828.1 0 .182-.411.182-.912 0-.501.082-.911.182-.911.1 0 .182-.247.182-.547 0-.301.082-.547.182-.547.1 0 .182-.146.182-.325 0-.178.164-.442.364-.587.292-.21.364-.472.364-1.316 0-1.049-.002-1.054-.546-1.054-.301 0-.546-.082-.546-.182 0-.1-.295-.182-.655-.182-.494 0-.782-.136-1.166-.547-.496-.533-1.092-.732-1.092-.365 0 .1-.164.182-.364.182-.2 0-.364.083-.364.183 0 .1-.164.182-.364.182-.2 0-.364.082-.364.182 0 .11-.728.183-1.82.183-1.093 0-1.821-.073-1.821-.183 0-.1-.327-.182-.728-.182-.4 0-.728-.082-.728-.182 0-.1-.328-.183-.728-.183-.401 0-.728-.082-.728-.182 0-.1-.164-.182-.364-.182-.201 0-.364-.082-.364-.182 0-.101-.146-.183-.324-.183-.178 0-.442-.164-.586-.364-.145-.201-.369-.365-.499-.365-.307 0-2.96-2.657-2.96-2.965 0-.13-.164-.354-.364-.499-.2-.144-.364-.408-.364-.587a.312.312 0 00-.324-.324c-.178 0-.442-.164-.586-.365-.145-.2-.408-.364-.587-.364-.178 0-.324-.082-.324-.183 0-.1-.374-.182-.832-.182-.807 0-1.352.292-1.352.724 0 .112-.201.405-.447.651-.357.358-.632.448-1.371.448a2.22 2.22 0 01-1.575-.656l-1.34-1.349c-1.949-1.964-2.008-2.006-2.815-2.006-.796 0-.825-.019-.825-.547 0-.3.082-.546.182-.546.427 0 .152-.954-.449-1.556-.535-.535-.758-.632-1.457-.632-.453 0-.825.082-.825.182 0 .101-.245.183-.546.183-.516 0-.546-.041-.546-.73 0-.722-.007-.729-.688-.729-.479 0-.767.111-.95.365-.271.375-1.274.519-1.274.182 0-.1-.127-.182-.282-.182-.154 0-.482-.202-.728-.448-.376-.377-.447-.622-.447-1.558 0-.935-.07-1.18-.447-1.557-.245-.246-.555-.448-.687-.448-.133 0-.36-.164-.504-.364-.144-.201-.408-.365-.586-.365s-.324-.082-.324-.182c0-.101-.246-.183-.546-.183-.301 0-.546-.082-.546-.182 0-.1-.246-.182-.546-.182-.301 0-.547-.082-.547-.183 0-.1-.287-.182-.64-.182-.553 0-.823-.184-2.002-1.364-.749-.751-1.362-1.45-1.362-1.554 0-.314-2.063-2.279-2.142-2.041-.04.12-.23.219-.422.219-.196 0-.349.126-.349.288 0 .158-.327.603-.728.988-.4.386-.728.794-.728.908 0 .113.492.69 1.092 1.28a3.651 3.651 0 011.092 2.605v.028c0 .919.075 1.56.182 1.56.101 0 .183.164.183.365 0 .2-.082.364-.183.364-.1 0-.182.164-.182.365 0 .269-.121.364-.463.364-.511 0-1.357-.733-1.357-1.176 0-.155-.082-.282-.182-.282-.1 0-.182-.146-.182-.324 0-.179-.164-.443-.364-.588-.2-.144-.364-.408-.364-.587 0-.202-.136-.324-.364-.324-.2 0-.364-.082-.364-.182 0-.101-.164-.183-.364-.183-.34 0-.364-.121-.364-1.823 0-1.094-.073-1.823-.182-1.823-.1 0-.182-.246-.182-.547 0-.3-.082-.547-.182-.547-.101 0-.182-.164-.182-.364 0-.238-.122-.365-.349-.365-.192 0-.386-.102-.431-.228-.055-.154-.199-.096-.446.183-.296.333-.556.41-1.39.41-.564 0-1.025-.082-1.025-.182 0-.101-.146-.183-.324-.183-.178 0-.442-.164-.586-.364-.337-.469-2.003-.541-2.003-.087z" fill="#EBEBEB"/><path d="M466.703 221.656a8.005 8.005 0 00-6.461-4.82L334.13 202.424l8.104-70.916a7.972 7.972 0 00-4.066-7.903 7.99 7.99 0 00-2.974-.949l-197.08-22.514 2.702-23.652a39.822 39.822 0 10-47.423-5.537l-48.673 426a7.983 7.983 0 007.04 8.852l31.547 3.6a7.99 7.99 0 008.851-7.039l26.12-228.622 102.392 11.701-8.1 70.914a8.093 8.093 0 007.04 8.852l220.8 25.227c.301.037.604.055.907.054a7.999 7.999 0 007.28-11.312l-36.32-79.891 53.413-69.64a8.01 8.01 0 001.013-7.993zM97.103 39.594a23.75 23.75 0 1120.905 26.296 23.79 23.79 0 01-20.906-26.296h.001zM77.172 492.602L61.52 490.82 108.449 80.1a55.015 55.015 0 007.728 1.685h.007c2.628.303 5.28.337 7.914.101l-2.785 24.38v.011l-8.011 70.117-36.13 316.208zm58.438-370.543l.688-6.02 189.132 21.6-16.204 141.822-189.124-21.61 15.508-135.792zM294.8 293.92l-64.281 46.28 6.043-52.934 58.238 6.654zm101.859-.56a8 8 0 00-.929 8.18l32.453 71.398-186.204-21.272 78.96-56.853a8.89 8.89 0 003.274-5.587l8.101-70.906 112.08 12.805-47.735 62.235z" fill="#7B9600"/><path fill-rule="evenodd" clip-rule="evenodd" d="M327.149 186.452l-201.5-23 1.702-14.904 201.5 23-1.702 14.904zm-7.983 60.501l-201-22.5 1.668-14.906 201 22.5-1.668 14.906zm100.006 32.001l-99-11 1.656-14.908 99 11-1.656 14.908zm-3.062 63.993l-138-16.5 1.78-14.894 138 16.5-1.78 14.894z" fill="#7B9600"/></svg>