<svg width="512" height="512" fill="none" xmlns="http://www.w3.org/2000/svg"><path d="M498.624 168.448l-184-64c-1.698-.6-3.55-.6-5.248 0l-184 64a7.997 7.997 0 00-5.328 8.352l7.792 77.92c18.328 183.32 177.712 246 180.584 248.48a7.998 7.998 0 007.152 0c7.936-6.448 161.408-56.64 178.84-230.888L504 176.8a7.999 7.999 0 00-5.376-8.352zm-92.4 93.008L290.64 355.368a16 16 0 01-21.4-1.104L216.552 301.6a16.016 16.016 0 0111.324-27.339c4.247 0 8.321 1.688 11.324 4.691l42.488 42.488 104.392-84.8a15.997 15.997 0 0121.92 2.774 16.004 16.004 0 013.537 11.364 16.005 16.005 0 01-5.289 10.662l-.024.016z" fill="#EBEBEB"/><path d="M387.296 312l-45.808-45.8a167.918 167.918 0 0015.586-149.395A167.901 167.901 0 00246.895 14.714 167.913 167.913 0 0032 176a166.84 166.84 0 0026.48 90.192L12.688 312a16.002 16.002 0 00.331 22.933 15.992 15.992 0 007.43 3.971l39.6 9.04 9.04 39.6a15.997 15.997 0 0011.166 11.818 15.99 15.99 0 008.427.12A15.99 15.99 0 0096 395.304l57.888-57.888a164.696 164.696 0 0092.2 0L304 395.304a15.994 15.994 0 0015.74 4.051 15.997 15.997 0 0011.164-11.811l9.04-39.616 39.6-9.032a16.002 16.002 0 0011.921-19.582 16 16 0 00-4.169-7.314zM84.688 384l-9.032-39.624a16.125 16.125 0 00-12.048-12L24 323.304l43.872-43.88a168.711 168.711 0 0069.16 52.224L84.688 384zM48 176a152 152 0 11152 152A152.166 152.166 0 0148 176zm288.352 156.336a16.106 16.106 0 00-12 12L315.296 384l-52.352-52.344a168.63 168.63 0 0069.16-52.224L376 323.304l-39.648 9.032z" fill="#7B9600"/><path d="M269.728 132.472l-30.16-4.384-13.488-27.336a29.103 29.103 0 00-52.184 0l-13.488 27.336-30.168 4.384a29.088 29.088 0 00-16.12 49.6l21.832 21.28L130.8 233.4a29.11 29.11 0 0011.584 28.436 29.108 29.108 0 0030.624 2.228L200 249.896l26.976 14.184a29.102 29.102 0 0030.637-2.214 29.099 29.099 0 0011.579-28.45L264 203.368l21.84-21.28a29.099 29.099 0 00-1.554-43.062 29.1 29.1 0 00-14.558-6.554zm4.96 38.16l-24.8 24.216a7.996 7.996 0 00-2.296 7.08l5.864 34.192a13.076 13.076 0 01-.765 7.175 13.077 13.077 0 01-4.451 5.679 13.081 13.081 0 01-13.84.946l-30.704-16.136a7.998 7.998 0 00-7.448 0L165.6 249.92a13.068 13.068 0 01-7.037 1.478 13.08 13.08 0 01-11.955-15.278l5.864-34.192a8 8 0 00-2.304-7.08l-24.8-24.216a13.08 13.08 0 017.248-22.336l34.336-4.984a7.994 7.994 0 006.024-4.376l15.352-31.104a13.078 13.078 0 0123.48 0l15.352 31.104a7.999 7.999 0 006.024 4.376l34.328 4.984a13.082 13.082 0 0110.522 8.94 13.083 13.083 0 01-3.346 13.396z" fill="#7B9600"/></svg>