<svg width="512" height="512" fill="none" xmlns="http://www.w3.org/2000/svg"><path d="M458.504 445.128a157.098 157.098 0 0044.448-99.304L504 175.52a27.433 27.433 0 00-16.792-25.939 27.442 27.442 0 00-10.656-2.141 28.672 28.672 0 00-28.04 28.688l-.336 51.128a8.747 8.747 0 01-5.485 8.015 8.752 8.752 0 01-9.507-1.983l-127.328-129.44a28.001 28.001 0 00-39.152.344 28.918 28.918 0 00-.6 40.08c.848.864-8.256-8.384 64.4 65.464a8.728 8.728 0 01-12.496 12.184l-64.152-65.208-.32-.336-31.752-32.272a28.004 28.004 0 00-39.152.344 28.896 28.896 0 00-.344 40.336l89.808 91.296a8.676 8.676 0 012.495 6.18 8.669 8.669 0 01-2.631 6.124 8.798 8.798 0 01-12.36-.128l-70.56-71.728a28.002 28.002 0 00-39.152.336 28.876 28.876 0 00-.344 40.344l109.048 110.848a8.68 8.68 0 012.489 6.184 8.689 8.689 0 01-2.625 6.128 8.797 8.797 0 01-12.368-.136l-70.68-71.856a28.003 28.003 0 00-39.032.472 28.912 28.912 0 00-.376 40.344L251.504 446.56c54.4 60.528 135.976 71.616 207-1.432z" fill="#EBEBEB"/><path d="M54.976 365.032c-71.08-70.96-37.944-159.928-46.4-258.936A41.858 41.858 0 0150.48 64.088h.144a42.472 42.472 0 0142.248 42.192l.096 27.816L198.984 28.248A42.36 42.36 0 01270.8 53.424l6.824-6.808a42.313 42.313 0 0164.336 54.464 42.281 42.281 0 0137.168 51.157 42.287 42.287 0 01-11.224 20.643l-12.8 12.8a42.266 42.266 0 0125.2 71.72l-36 36-.12.12-72.312 72.192c-1.432 1.648-43.72 48.408-105.336 50.232-43.704 1.248-80.936-20.312-111.56-50.912zm11.312-11.32c31.696 31.656 64.952 47.264 99.568 46.248 54.656-1.544 93.944-44.8 94.336-45.232l108.8-108.624A26.289 26.289 0 00332 208.752l-66.504 66.4a8 8 0 11-11.312-11.32C368 150.16 281.728 236.312 356.6 161.6a26.288 26.288 0 00-36.976-37.368l-66.52 66.4a8 8 0 11-11.312-11.32l84.352-84.248a26.274 26.274 0 007.678-18.592 26.291 26.291 0 00-7.718-18.576 26.283 26.283 0 00-37.168.04l-90.4 90.24a7.998 7.998 0 01-13.246-2.486 8.006 8.006 0 01.106-6.239 7.981 7.981 0 011.844-2.595l60.256-60.16a25.719 25.719 0 007.592-18.296 26.363 26.363 0 00-16.164-24.264 26.358 26.358 0 00-28.636 5.472l-119.6 119.376a7.998 7.998 0 01-12.284-1.177 8.002 8.002 0 01-1.372-4.423l-.16-47.016A26.4 26.4 0 0050.576 80.12a25.864 25.864 0 00-26.024 25.96C24 245.224 14.136 301.64 66.288 353.712z" fill="#7B9600"/></svg>