<svg width="625" height="565" viewBox="0 0 625 565" fill="none" xmlns="http://www.w3.org/2000/svg">
<mask id="mask0_366:60279" style="mask-type:alpha" maskUnits="userSpaceOnUse" x="0" y="0" width="625" height="565">
<path d="M0 0H342.5C498.52 0 625 126.48 625 282.5C625 438.52 498.52 565 342.5 565H0V0Z" fill="#F99D21"/>
</mask>
<g mask="url(#mask0_366:60279)">
<path d="M224.827 396.587H169.761V451.913H224.827V396.587Z" stroke="#FCF5EB" stroke-width="2" stroke-miterlimit="10"/>
<path d="M338.678 396.587H283.611V451.912H338.678V396.587Z" stroke="#FCF5EB" stroke-width="2" stroke-miterlimit="10"/>
<path d="M281.739 396.587H226.672V451.913H281.739V396.587Z" stroke="#FCF5EB" stroke-width="2" stroke-miterlimit="10"/>
<path d="M167.917 396.587H112.851V451.912H167.917V396.587Z" stroke="#FCF5EB" stroke-width="2" stroke-miterlimit="10"/>
<path d="M110.977 396.587H55.911V451.913H110.977V396.587Z" stroke="#FCF5EB" stroke-width="2" stroke-miterlimit="10"/>
<path d="M395.588 396.587H340.521V451.913H395.588V396.587Z" stroke="#FCF5EB" stroke-width="2" stroke-miterlimit="10"/>
<path d="M509.439 396.587H454.372V451.913H509.439V396.587Z" stroke="#FCF5EB" stroke-width="2" stroke-miterlimit="10"/>
<path d="M623.259 396.587H568.193V451.913H623.259V396.587Z" stroke="#FCF5EB" stroke-width="2" stroke-miterlimit="10"/>
<path d="M566.349 396.587H511.283V451.913H566.349V396.587Z" stroke="#FCF5EB" stroke-width="2" stroke-miterlimit="10"/>
<path d="M452.499 396.587H397.432V451.912H452.499V396.587Z" stroke="#FCF5EB" stroke-width="2" stroke-miterlimit="10"/>
<path d="M54.0671 396.587H-0.999268L-0.999268 451.913H54.0671V396.587Z" stroke="#FCF5EB" stroke-width="2" stroke-miterlimit="10"/>
<path d="M224.828 167.878H169.762V223.204H224.828V167.878Z" stroke="#FCF5EB" stroke-width="2" stroke-miterlimit="10"/>
<path d="M281.738 167.878H226.672V223.204H281.738V167.878Z" stroke="#FCF5EB" stroke-width="2" stroke-miterlimit="10"/>
<path d="M338.677 167.878H283.611V223.203H338.677V167.878Z" stroke="#FCF5EB" stroke-width="2" stroke-miterlimit="10"/>
<path d="M395.588 167.878H340.522V223.203H395.588V167.878Z" stroke="#FCF5EB" stroke-width="2" stroke-miterlimit="10"/>
<path d="M167.917 167.878H112.851V223.203H167.917V167.878Z" stroke="#FCF5EB" stroke-width="2" stroke-miterlimit="10"/>
<path d="M54.0673 339.417H-0.999146L-0.999146 394.742H54.0673V339.417Z" stroke="#FCF5EB" stroke-width="2" stroke-miterlimit="10"/>
<path d="M54.0664 225.048H-1L-1 280.374H54.0664V225.048Z" stroke="#FCF5EB" stroke-width="2" stroke-miterlimit="10"/>
<path d="M452.499 167.878H397.432V223.203H452.499V167.878Z" stroke="#FCF5EB" stroke-width="2" stroke-miterlimit="10"/>
<path d="M54.0665 282.219H-0.999878L-0.999878 337.544H54.0665V282.219Z" stroke="#FCF5EB" stroke-width="2" stroke-miterlimit="10"/>
<path d="M54.0673 167.878H-0.999146L-0.999146 223.204H54.0673V167.878Z" stroke="#FCF5EB" stroke-width="2" stroke-miterlimit="10"/>
<path d="M110.978 167.878H55.9111V223.204H110.978V167.878Z" stroke="#FCF5EB" stroke-width="2" stroke-miterlimit="10"/>
<path d="M224.827 110.708H169.761V166.034H224.827V110.708Z" stroke="#FCF5EB" stroke-width="2" stroke-miterlimit="10"/>
<path d="M167.917 110.708H112.851V166.034H167.917V110.708Z" stroke="#FCF5EB" stroke-width="2" stroke-miterlimit="10"/>
<path d="M281.738 110.71H226.672V166.035H281.738V110.71Z" stroke="#FCF5EB" stroke-width="2" stroke-miterlimit="10"/>
<path d="M452.498 110.709H397.432V166.034H452.498V110.709Z" stroke="#FCF5EB" stroke-width="2" stroke-miterlimit="10"/>
<path d="M680.199 396.587H625.133V451.913H680.199V396.587Z" stroke="#FCF5EB" stroke-width="2" stroke-miterlimit="10"/>
<path d="M395.588 110.709H340.522V166.034H395.588V110.709Z" stroke="#FCF5EB" stroke-width="2" stroke-miterlimit="10"/>
<path d="M110.978 110.709H55.9113V166.034H110.978V110.709Z" stroke="#FCF5EB" stroke-width="2" stroke-miterlimit="10"/>
<path d="M54.0675 110.709H-0.998901L-0.998901 166.034H54.0675V110.709Z" stroke="#FCF5EB" stroke-width="2" stroke-miterlimit="10"/>
<path d="M338.678 110.708H283.612V166.034H338.678V110.708Z" stroke="#FCF5EB" stroke-width="2" stroke-miterlimit="10"/>
<path d="M509.439 110.709H454.372V166.034H509.439V110.709Z" stroke="#FCF5EB" stroke-width="2" stroke-miterlimit="10"/>
<path d="M566.349 110.709H511.283V166.034H566.349V110.709Z" stroke="#FCF5EB" stroke-width="2" stroke-miterlimit="10"/>
<path d="M623.259 110.709H568.193V166.034H623.259V110.709Z" stroke="#FCF5EB" stroke-width="2" stroke-miterlimit="10"/>
<path d="M680.17 110.709H625.104V166.034H680.17V110.709Z" stroke="#FCF5EB" stroke-width="2" stroke-miterlimit="10"/>
<path d="M452.499 225.048H397.433V280.374H452.499V225.048Z" stroke="#FCF5EB" stroke-width="2" stroke-miterlimit="10"/>
<path d="M452.499 282.219H397.432V337.544H452.499V282.219Z" stroke="#FCF5EB" stroke-width="2" stroke-miterlimit="10"/>
<path d="M509.438 282.218H454.372V337.544H509.438V282.218Z" stroke="#FCF5EB" stroke-width="2" stroke-miterlimit="10"/>
<path d="M338.678 282.219H283.611V337.544H338.678V282.219Z" stroke="#FCF5EB" stroke-width="2" stroke-miterlimit="10"/>
<path d="M395.589 282.219H340.522V337.544H395.589V282.219Z" stroke="#FCF5EB" stroke-width="2" stroke-miterlimit="10"/>
<path d="M566.349 282.218H511.282V337.544H566.349V282.218Z" stroke="#FCF5EB" stroke-width="2" stroke-miterlimit="10"/>
<path d="M281.738 282.219H226.672V337.544H281.738V282.219Z" stroke="#FCF5EB" stroke-width="2" stroke-miterlimit="10"/>
<path d="M395.588 225.049H340.521V280.375H395.588V225.049Z" stroke="#FCF5EB" stroke-width="2" stroke-miterlimit="10"/>
<path d="M623.26 225.048H568.193V280.374H623.26V225.048Z" stroke="#FCF5EB" stroke-width="2" stroke-miterlimit="10"/>
<path d="M566.35 225.048H511.283V280.374H566.35V225.048Z" stroke="#FCF5EB" stroke-width="2" stroke-miterlimit="10"/>
<path d="M623.259 282.218H568.193V337.544H623.259V282.218Z" stroke="#FCF5EB" stroke-width="2" stroke-miterlimit="10"/>
<path d="M224.828 282.218H169.761V337.544H224.828V282.218Z" stroke="#FCF5EB" stroke-width="2" stroke-miterlimit="10"/>
<path d="M509.438 167.878H454.372V223.204H509.438V167.878Z" stroke="#FCF5EB" stroke-width="2" stroke-miterlimit="10"/>
<path d="M167.917 282.219H112.851V337.544H167.917V282.219Z" stroke="#FCF5EB" stroke-width="2" stroke-miterlimit="10"/>
<path d="M623.26 339.417H568.193V394.742H623.26V339.417Z" stroke="#FCF5EB" stroke-width="2" stroke-miterlimit="10"/>
<path d="M566.349 339.417H511.282V394.742H566.349V339.417Z" stroke="#FCF5EB" stroke-width="2" stroke-miterlimit="10"/>
<path d="M509.438 339.417H454.372V394.742H509.438V339.417Z" stroke="#FCF5EB" stroke-width="2" stroke-miterlimit="10"/>
<path d="M680.199 339.417H625.132V394.743H680.199V339.417Z" stroke="#FCF5EB" stroke-width="2" stroke-miterlimit="10"/>
<path d="M452.499 339.417H397.433V394.743H452.499V339.417Z" stroke="#FCF5EB" stroke-width="2" stroke-miterlimit="10"/>
<path d="M680.199 282.218H625.133V337.544H680.199V282.218Z" stroke="#FCF5EB" stroke-width="2" stroke-miterlimit="10"/>
<path d="M566.349 167.878H511.282V223.204H566.349V167.878Z" stroke="#FCF5EB" stroke-width="2" stroke-miterlimit="10"/>
<path d="M395.589 339.417H340.522V394.742H395.589V339.417Z" stroke="#FCF5EB" stroke-width="2" stroke-miterlimit="10"/>
<path d="M338.678 225.048H283.611V280.374H338.678V225.048Z" stroke="#FCF5EB" stroke-width="2" stroke-miterlimit="10"/>
<path d="M680.198 225.048H625.132V280.374H680.198V225.048Z" stroke="#FCF5EB" stroke-width="2" stroke-miterlimit="10"/>
<path d="M680.17 167.878H625.104V223.203H680.17V167.878Z" stroke="#FCF5EB" stroke-width="2" stroke-miterlimit="10"/>
<path d="M623.259 167.878H568.193V223.204H623.259V167.878Z" stroke="#FCF5EB" stroke-width="2" stroke-miterlimit="10"/>
<path d="M167.917 225.048H112.851V280.374H167.917V225.048Z" stroke="#FCF5EB" stroke-width="2" stroke-miterlimit="10"/>
<path d="M110.978 225.048H55.9115V280.374H110.978V225.048Z" stroke="#FCF5EB" stroke-width="2" stroke-miterlimit="10"/>
<path d="M281.738 225.048H226.672V280.374H281.738V225.048Z" stroke="#FCF5EB" stroke-width="2" stroke-miterlimit="10"/>
<path d="M224.827 225.048H169.761V280.374H224.827V225.048Z" stroke="#FCF5EB" stroke-width="2" stroke-miterlimit="10"/>
<path d="M338.677 339.417H283.611V394.742H338.677V339.417Z" stroke="#FCF5EB" stroke-width="2" stroke-miterlimit="10"/>
<path d="M110.978 282.218H55.9114V337.544H110.978V282.218Z" stroke="#FCF5EB" stroke-width="2" stroke-miterlimit="10"/>
<path d="M110.978 339.417H55.9111V394.742H110.978V339.417Z" stroke="#FCF5EB" stroke-width="2" stroke-miterlimit="10"/>
<path d="M224.828 339.417H169.762V394.742H224.828V339.417Z" stroke="#FCF5EB" stroke-width="2" stroke-miterlimit="10"/>
<path d="M281.738 339.417H226.672V394.742H281.738V339.417Z" stroke="#FCF5EB" stroke-width="2" stroke-miterlimit="10"/>
<path d="M167.917 339.417H112.851V394.743H167.917V339.417Z" stroke="#FCF5EB" stroke-width="2" stroke-miterlimit="10"/>
<path d="M338.678 53.5103H283.611V108.836H338.678V53.5103Z" stroke="#FCF5EB" stroke-width="2" stroke-miterlimit="10"/>
<path d="M680.199 510.956H625.132V566.281H680.199V510.956Z" stroke="#FCF5EB" stroke-width="2" stroke-miterlimit="10"/>
<path d="M566.348 510.956H511.282V566.281H566.348V510.956Z" stroke="#FCF5EB" stroke-width="2" stroke-miterlimit="10"/>
<path d="M623.26 510.956H568.194V566.281H623.26V510.956Z" stroke="#FCF5EB" stroke-width="2" stroke-miterlimit="10"/>
<path d="M509.438 510.956H454.372V566.281H509.438V510.956Z" stroke="#FCF5EB" stroke-width="2" stroke-miterlimit="10"/>
<path d="M395.588 510.956H340.522V566.281H395.588V510.956Z" stroke="#FCF5EB" stroke-width="2" stroke-miterlimit="10"/>
<path d="M54.0669 510.956H-0.999512L-0.999512 566.281H54.0669V510.956Z" stroke="#FCF5EB" stroke-width="2" stroke-miterlimit="10"/>
<path d="M110.977 510.956H55.9106V566.281H110.977V510.956Z" stroke="#FCF5EB" stroke-width="2" stroke-miterlimit="10"/>
<path d="M167.917 510.956H112.851V566.281H167.917V510.956Z" stroke="#FCF5EB" stroke-width="2" stroke-miterlimit="10"/>
<path d="M281.738 510.957H226.671V566.282H281.738V510.957Z" stroke="#FCF5EB" stroke-width="2" stroke-miterlimit="10"/>
<path d="M224.827 510.956H169.761V566.281H224.827V510.956Z" stroke="#FCF5EB" stroke-width="2" stroke-miterlimit="10"/>
<path d="M338.678 510.956H283.612V566.281H338.678V510.956Z" stroke="#FCF5EB" stroke-width="2" stroke-miterlimit="10"/>
<path d="M452.498 510.957H397.432V566.282H452.498V510.957Z" stroke="#FCF5EB" stroke-width="2" stroke-miterlimit="10"/>
<path d="M110.978 -3.6604L55.9114 -3.6604V51.6653H110.978V-3.6604Z" stroke="#FCF5EB" stroke-width="2" stroke-miterlimit="10"/>
<path d="M167.917 -3.66113L112.851 -3.66113V51.6646H167.917V-3.66113Z" stroke="#FCF5EB" stroke-width="2" stroke-miterlimit="10"/>
<path d="M224.827 -3.66113L169.761 -3.66113V51.6646H224.827V-3.66113Z" stroke="#FCF5EB" stroke-width="2" stroke-miterlimit="10"/>
<path d="M338.678 -3.66113L283.612 -3.66113V51.6646H338.678V-3.66113Z" stroke="#FCF5EB" stroke-width="2" stroke-miterlimit="10"/>
<path d="M395.588 -3.6604L340.522 -3.6604V51.6653H395.588V-3.6604Z" stroke="#FCF5EB" stroke-width="2" stroke-miterlimit="10"/>
<path d="M281.738 -3.6604L226.671 -3.6604V51.6653H281.738V-3.6604Z" stroke="#FCF5EB" stroke-width="2" stroke-miterlimit="10"/>
<path d="M54.0675 -3.6604L-0.998901 -3.6604L-0.998901 51.6653H54.0675V-3.6604Z" stroke="#FCF5EB" stroke-width="2" stroke-miterlimit="10"/>
<path d="M566.349 -3.6604L511.283 -3.6604V51.6653H566.349V-3.6604Z" stroke="#FCF5EB" stroke-width="2" stroke-miterlimit="10"/>
<path d="M509.439 -3.6604L454.372 -3.6604V51.6653H509.439V-3.6604Z" stroke="#FCF5EB" stroke-width="2" stroke-miterlimit="10"/>
<path d="M452.499 -3.6604L397.432 -3.6604V51.6653H452.499V-3.6604Z" stroke="#FCF5EB" stroke-width="2" stroke-miterlimit="10"/>
<path d="M680.17 -3.66113L625.104 -3.66113V51.6646H680.17V-3.66113Z" stroke="#FCF5EB" stroke-width="2" stroke-miterlimit="10"/>
<path d="M623.259 -3.6604L568.193 -3.6604V51.6653H623.259V-3.6604Z" stroke="#FCF5EB" stroke-width="2" stroke-miterlimit="10"/>
<path d="M338.677 453.757H283.611V509.082H338.677V453.757Z" stroke="#FCF5EB" stroke-width="2" stroke-miterlimit="10"/>
<path d="M680.199 453.757H625.133V509.083H680.199V453.757Z" stroke="#FCF5EB" stroke-width="2" stroke-miterlimit="10"/>
<path d="M509.438 453.757H454.372V509.082H509.438V453.757Z" stroke="#FCF5EB" stroke-width="2" stroke-miterlimit="10"/>
<path d="M566.349 453.757H511.282V509.082H566.349V453.757Z" stroke="#FCF5EB" stroke-width="2" stroke-miterlimit="10"/>
<path d="M623.26 453.757H568.193V509.082H623.26V453.757Z" stroke="#FCF5EB" stroke-width="2" stroke-miterlimit="10"/>
<path d="M110.978 453.757H55.9115V509.082H110.978V453.757Z" stroke="#FCF5EB" stroke-width="2" stroke-miterlimit="10"/>
<path d="M54.067 453.757H-0.99939L-0.99939 509.083H54.067V453.757Z" stroke="#FCF5EB" stroke-width="2" stroke-miterlimit="10"/>
<path d="M167.917 453.757H112.85V509.082H167.917V453.757Z" stroke="#FCF5EB" stroke-width="2" stroke-miterlimit="10"/>
<path d="M452.499 453.756H397.433V509.081H452.499V453.756Z" stroke="#FCF5EB" stroke-width="2" stroke-miterlimit="10"/>
<path d="M395.588 453.757H340.522V509.082H395.588V453.757Z" stroke="#FCF5EB" stroke-width="2" stroke-miterlimit="10"/>
<path d="M224.828 453.757H169.761V509.083H224.828V453.757Z" stroke="#FCF5EB" stroke-width="2" stroke-miterlimit="10"/>
<path d="M281.738 453.757H226.672V509.083H281.738V453.757Z" stroke="#FCF5EB" stroke-width="2" stroke-miterlimit="10"/>
<path d="M680.17 53.5103H625.104V108.836H680.17V53.5103Z" stroke="#FCF5EB" stroke-width="2" stroke-miterlimit="10"/>
<path d="M167.917 53.5095H112.851V108.835H167.917V53.5095Z" stroke="#FCF5EB" stroke-width="2" stroke-miterlimit="10"/>
<path d="M54.067 53.5095H-0.99939L-0.99939 108.835H54.067V53.5095Z" stroke="#FCF5EB" stroke-width="2" stroke-miterlimit="10"/>
<path d="M110.977 53.5095H55.9108V108.835H110.977V53.5095Z" stroke="#FCF5EB" stroke-width="2" stroke-miterlimit="10"/>
<path d="M566.349 53.5103H511.282V108.836H566.349V53.5103Z" stroke="#FCF5EB" stroke-width="2" stroke-miterlimit="10"/>
<path d="M623.26 53.5095H568.194V108.835H623.26V53.5095Z" stroke="#FCF5EB" stroke-width="2" stroke-miterlimit="10"/>
<path d="M509.438 53.5095H454.372V108.835H509.438V53.5095Z" stroke="#FCF5EB" stroke-width="2" stroke-miterlimit="10"/>
<path d="M281.738 53.5095H226.672V108.835H281.738V53.5095Z" stroke="#FCF5EB" stroke-width="2" stroke-miterlimit="10"/>
<path d="M224.828 53.5095H169.761V108.835H224.828V53.5095Z" stroke="#FCF5EB" stroke-width="2" stroke-miterlimit="10"/>
<path d="M452.499 53.5095H397.433V108.835H452.499V53.5095Z" stroke="#FCF5EB" stroke-width="2" stroke-miterlimit="10"/>
<path d="M395.588 53.5103H340.522V108.836H395.588V53.5103Z" stroke="#FCF5EB" stroke-width="2" stroke-miterlimit="10"/>
<path d="M509.439 225.049H454.372V280.375H509.439V225.049Z" stroke="#FCF5EB" stroke-width="2" stroke-miterlimit="10"/>
<path d="M625.103 396.587H623.259V451.912H625.103V396.587Z" stroke="#FCF5EB" stroke-width="2" stroke-miterlimit="10"/>
<path d="M625.133 -3.6604H623.288V51.6653H625.133V-3.6604Z" stroke="#FCF5EB" stroke-width="2" stroke-miterlimit="10"/>
<path d="M625.103 510.956H623.259V566.281H625.103V510.956Z" stroke="#FCF5EB" stroke-width="2" stroke-miterlimit="10"/>
<path d="M625.132 167.878H623.288V223.204H625.132V167.878Z" stroke="#FCF5EB" stroke-width="2" stroke-miterlimit="10"/>
<path d="M625.103 453.757H623.259V509.083H625.103V453.757Z" stroke="#FCF5EB" stroke-width="2" stroke-miterlimit="10"/>
<path d="M625.132 53.5095H623.288V108.835H625.132V53.5095Z" stroke="#FCF5EB" stroke-width="2" stroke-miterlimit="10"/>
<path d="M625.104 339.417H623.26V394.742H625.104V339.417Z" stroke="#FCF5EB" stroke-width="2" stroke-miterlimit="10"/>
<path d="M625.133 110.709H623.288V166.034H625.133V110.709Z" stroke="#FCF5EB" stroke-width="2" stroke-miterlimit="10"/>
<path d="M625.103 225.048H623.259V280.374H625.103V225.048Z" stroke="#FCF5EB" stroke-width="2" stroke-miterlimit="10"/>
<path d="M625.103 282.219H623.259V337.544H625.103V282.219Z" stroke="#FCF5EB" stroke-width="2" stroke-miterlimit="10"/>
<path d="M568.193 225.048H566.349V280.374H568.193V225.048Z" stroke="#FCF5EB" stroke-width="2" stroke-miterlimit="10"/>
<path d="M568.193 282.219H566.349V337.544H568.193V282.219Z" stroke="#FCF5EB" stroke-width="2" stroke-miterlimit="10"/>
<path d="M568.192 -3.6604H566.348V51.6653H568.192V-3.6604Z" stroke="#FCF5EB" stroke-width="2" stroke-miterlimit="10"/>
<path d="M568.193 453.757H566.349V509.082H568.193V453.757Z" stroke="#FCF5EB" stroke-width="2" stroke-miterlimit="10"/>
<path d="M568.193 53.5095H566.349V108.835H568.193V53.5095Z" stroke="#FCF5EB" stroke-width="2" stroke-miterlimit="10"/>
<path d="M568.192 167.878H566.348V223.203H568.192V167.878Z" stroke="#FCF5EB" stroke-width="2" stroke-miterlimit="10"/>
<path d="M568.193 396.587H566.349V451.912H568.193V396.587Z" stroke="#FCF5EB" stroke-width="2" stroke-miterlimit="10"/>
<path d="M568.193 510.956H566.349V566.281H568.193V510.956Z" stroke="#FCF5EB" stroke-width="2" stroke-miterlimit="10"/>
<path d="M568.193 339.417H566.348V394.743H568.193V339.417Z" stroke="#FCF5EB" stroke-width="2" stroke-miterlimit="10"/>
<path d="M568.192 110.709H566.348V166.034H568.192V110.709Z" stroke="#FCF5EB" stroke-width="2" stroke-miterlimit="10"/>
<path d="M511.282 167.878H509.438V223.203H511.282V167.878Z" stroke="#FCF5EB" stroke-width="2" stroke-miterlimit="10"/>
<path d="M511.283 339.417H509.438V394.743H511.283V339.417Z" stroke="#FCF5EB" stroke-width="2" stroke-miterlimit="10"/>
<path d="M511.283 282.218H509.439V337.544H511.283V282.218Z" stroke="#FCF5EB" stroke-width="2" stroke-miterlimit="10"/>
<path d="M511.282 225.048H509.438V280.374H511.282V225.048Z" stroke="#FCF5EB" stroke-width="2" stroke-miterlimit="10"/>
<path d="M511.282 53.5103H509.438V108.836H511.282V53.5103Z" stroke="#FCF5EB" stroke-width="2" stroke-miterlimit="10"/>
<path d="M511.282 396.587H509.437V451.913H511.282V396.587Z" stroke="#FCF5EB" stroke-width="2" stroke-miterlimit="10"/>
<path d="M511.281 453.757H509.437V509.083H511.281V453.757Z" stroke="#FCF5EB" stroke-width="2" stroke-miterlimit="10"/>
<path d="M511.282 110.709H509.438V166.034H511.282V110.709Z" stroke="#FCF5EB" stroke-width="2" stroke-miterlimit="10"/>
<path d="M511.282 510.956H509.438V566.281H511.282V510.956Z" stroke="#FCF5EB" stroke-width="2" stroke-miterlimit="10"/>
<path d="M511.282 -3.6604H509.438V51.6653H511.282V-3.6604Z" stroke="#FCF5EB" stroke-width="2" stroke-miterlimit="10"/>
<path d="M454.371 225.049H452.527V280.375H454.371V225.049Z" stroke="#FCF5EB" stroke-width="2" stroke-miterlimit="10"/>
<path d="M454.371 167.878H452.527V223.203H454.371V167.878Z" stroke="#FCF5EB" stroke-width="2" stroke-miterlimit="10"/>
<path d="M454.371 396.587H452.527V451.913H454.371V396.587Z" stroke="#FCF5EB" stroke-width="2" stroke-miterlimit="10"/>
<path d="M454.371 339.416H452.527V394.741H454.371V339.416Z" stroke="#FCF5EB" stroke-width="2" stroke-miterlimit="10"/>
<path d="M454.372 53.5095H452.528V108.835H454.372V53.5095Z" stroke="#FCF5EB" stroke-width="2" stroke-miterlimit="10"/>
<path d="M454.371 453.757H452.527V509.082H454.371V453.757Z" stroke="#FCF5EB" stroke-width="2" stroke-miterlimit="10"/>
<path d="M454.372 110.709H452.527V166.034H454.372V110.709Z" stroke="#FCF5EB" stroke-width="2" stroke-miterlimit="10"/>
<path d="M454.372 282.219H452.528V337.544H454.372V282.219Z" stroke="#FCF5EB" stroke-width="2" stroke-miterlimit="10"/>
<path d="M454.372 -3.6604H452.528V51.6653H454.372V-3.6604Z" stroke="#FCF5EB" stroke-width="2" stroke-miterlimit="10"/>
<path d="M454.372 510.956H452.527V566.281H454.372V510.956Z" stroke="#FCF5EB" stroke-width="2" stroke-miterlimit="10"/>
<path d="M397.432 396.587H395.588V451.913H397.432V396.587Z" stroke="#FCF5EB" stroke-width="2" stroke-miterlimit="10"/>
<path d="M397.432 510.956H395.588V566.281H397.432V510.956Z" stroke="#FCF5EB" stroke-width="2" stroke-miterlimit="10"/>
<path d="M397.431 -3.6604H395.587V51.6653H397.431V-3.6604Z" stroke="#FCF5EB" stroke-width="2" stroke-miterlimit="10"/>
<path d="M397.432 167.878H395.588V223.204H397.432V167.878Z" stroke="#FCF5EB" stroke-width="2" stroke-miterlimit="10"/>
<path d="M397.432 53.5095H395.588V108.835H397.432V53.5095Z" stroke="#FCF5EB" stroke-width="2" stroke-miterlimit="10"/>
<path d="M397.432 225.048H395.587V280.374H397.432V225.048Z" stroke="#FCF5EB" stroke-width="2" stroke-miterlimit="10"/>
<path d="M397.432 339.417H395.588V394.743H397.432V339.417Z" stroke="#FCF5EB" stroke-width="2" stroke-miterlimit="10"/>
<path d="M397.432 110.709H395.588V166.034H397.432V110.709Z" stroke="#FCF5EB" stroke-width="2" stroke-miterlimit="10"/>
<path d="M397.433 453.757H395.588V509.082H397.433V453.757Z" stroke="#FCF5EB" stroke-width="2" stroke-miterlimit="10"/>
<path d="M397.432 282.218H395.588V337.544H397.432V282.218Z" stroke="#FCF5EB" stroke-width="2" stroke-miterlimit="10"/>
<path d="M340.522 282.218H338.678V337.544H340.522V282.218Z" stroke="#FCF5EB" stroke-width="2" stroke-miterlimit="10"/>
<path d="M340.521 225.048H338.677V280.374H340.521V225.048Z" stroke="#FCF5EB" stroke-width="2" stroke-miterlimit="10"/>
<path d="M340.522 510.956H338.677V566.281H340.522V510.956Z" stroke="#FCF5EB" stroke-width="2" stroke-miterlimit="10"/>
<path d="M340.521 -3.6604H338.677V51.6653H340.521V-3.6604Z" stroke="#FCF5EB" stroke-width="2" stroke-miterlimit="10"/>
<path d="M340.521 453.757H338.677V509.083H340.521V453.757Z" stroke="#FCF5EB" stroke-width="2" stroke-miterlimit="10"/>
<path d="M340.522 167.878H338.678V223.204H340.522V167.878Z" stroke="#FCF5EB" stroke-width="2" stroke-miterlimit="10"/>
<path d="M340.521 110.709H338.677V166.034H340.521V110.709Z" stroke="#FCF5EB" stroke-width="2" stroke-miterlimit="10"/>
<path d="M340.521 396.587H338.677V451.912H340.521V396.587Z" stroke="#FCF5EB" stroke-width="2" stroke-miterlimit="10"/>
<path d="M340.521 53.5103H338.677V108.836H340.521V53.5103Z" stroke="#FCF5EB" stroke-width="2" stroke-miterlimit="10"/>
<path d="M340.522 339.417H338.677V394.742H340.522V339.417Z" stroke="#FCF5EB" stroke-width="2" stroke-miterlimit="10"/>
<path d="M283.611 510.956H281.767V566.281H283.611V510.956Z" stroke="#FCF5EB" stroke-width="2" stroke-miterlimit="10"/>
<path d="M283.611 396.587H281.766V451.912H283.611V396.587Z" stroke="#FCF5EB" stroke-width="2" stroke-miterlimit="10"/>
<path d="M283.611 453.757H281.766V509.082H283.611V453.757Z" stroke="#FCF5EB" stroke-width="2" stroke-miterlimit="10"/>
<path d="M283.611 110.708H281.767V166.034H283.611V110.708Z" stroke="#FCF5EB" stroke-width="2" stroke-miterlimit="10"/>
<path d="M283.612 339.417H281.767V394.742H283.612V339.417Z" stroke="#FCF5EB" stroke-width="2" stroke-miterlimit="10"/>
<path d="M283.611 53.5095H281.767V108.835H283.611V53.5095Z" stroke="#FCF5EB" stroke-width="2" stroke-miterlimit="10"/>
<path d="M283.611 282.219H281.767V337.544H283.611V282.219Z" stroke="#FCF5EB" stroke-width="2" stroke-miterlimit="10"/>
<path d="M283.611 167.878H281.767V223.203H283.611V167.878Z" stroke="#FCF5EB" stroke-width="2" stroke-miterlimit="10"/>
<path d="M283.611 225.048H281.766V280.374H283.611V225.048Z" stroke="#FCF5EB" stroke-width="2" stroke-miterlimit="10"/>
<path d="M283.611 -3.66113H281.767V51.6646H283.611V-3.66113Z" stroke="#FCF5EB" stroke-width="2" stroke-miterlimit="10"/>
<path d="M226.672 225.048H224.827V280.374H226.672V225.048Z" stroke="#FCF5EB" stroke-width="2" stroke-miterlimit="10"/>
<path d="M226.671 339.417H224.827V394.742H226.671V339.417Z" stroke="#FCF5EB" stroke-width="2" stroke-miterlimit="10"/>
<path d="M226.671 53.5095H224.827V108.835H226.671V53.5095Z" stroke="#FCF5EB" stroke-width="2" stroke-miterlimit="10"/>
<path d="M226.672 282.218H224.827V337.544H226.672V282.218Z" stroke="#FCF5EB" stroke-width="2" stroke-miterlimit="10"/>
<path d="M226.671 110.709H224.827V166.034H226.671V110.709Z" stroke="#FCF5EB" stroke-width="2" stroke-miterlimit="10"/>
<path d="M226.672 167.878H224.827V223.204H226.672V167.878Z" stroke="#FCF5EB" stroke-width="2" stroke-miterlimit="10"/>
<path d="M226.671 -3.6604H224.827V51.6653H226.671V-3.6604Z" stroke="#FCF5EB" stroke-width="2" stroke-miterlimit="10"/>
<path d="M226.672 453.757H224.827V509.082H226.672V453.757Z" stroke="#FCF5EB" stroke-width="2" stroke-miterlimit="10"/>
<path d="M226.671 396.587H224.827V451.913H226.671V396.587Z" stroke="#FCF5EB" stroke-width="2" stroke-miterlimit="10"/>
<path d="M226.671 510.955H224.827V566.281H226.671V510.955Z" stroke="#FCF5EB" stroke-width="2" stroke-miterlimit="10"/>
<path d="M169.761 -3.6604H167.917V51.6653H169.761V-3.6604Z" stroke="#FCF5EB" stroke-width="2" stroke-miterlimit="10"/>
<path d="M169.761 53.5095H167.916V108.835H169.761V53.5095Z" stroke="#FCF5EB" stroke-width="2" stroke-miterlimit="10"/>
<path d="M169.761 510.956H167.917V566.281H169.761V510.956Z" stroke="#FCF5EB" stroke-width="2" stroke-miterlimit="10"/>
<path d="M169.761 453.757H167.916V509.083H169.761V453.757Z" stroke="#FCF5EB" stroke-width="2" stroke-miterlimit="10"/>
<path d="M169.761 396.587H167.917V451.913H169.761V396.587Z" stroke="#FCF5EB" stroke-width="2" stroke-miterlimit="10"/>
<path d="M169.761 110.709H167.917V166.034H169.761V110.709Z" stroke="#FCF5EB" stroke-width="2" stroke-miterlimit="10"/>
<path d="M169.761 339.417H167.917V394.742H169.761V339.417Z" stroke="#FCF5EB" stroke-width="2" stroke-miterlimit="10"/>
<path d="M169.761 282.219H167.916V337.544H169.761V282.219Z" stroke="#FCF5EB" stroke-width="2" stroke-miterlimit="10"/>
<path d="M169.761 225.048H167.917V280.374H169.761V225.048Z" stroke="#FCF5EB" stroke-width="2" stroke-miterlimit="10"/>
<path d="M169.761 167.878H167.917V223.204H169.761V167.878Z" stroke="#FCF5EB" stroke-width="2" stroke-miterlimit="10"/>
<path d="M112.822 396.587H110.978V451.913H112.822V396.587Z" stroke="#FCF5EB" stroke-width="2" stroke-miterlimit="10"/>
<path d="M112.822 510.955H110.978V566.281H112.822V510.955Z" stroke="#FCF5EB" stroke-width="2" stroke-miterlimit="10"/>
<path d="M112.822 339.417H110.978V394.742H112.822V339.417Z" stroke="#FCF5EB" stroke-width="2" stroke-miterlimit="10"/>
<path d="M112.85 167.878H111.006V223.204H112.85V167.878Z" stroke="#FCF5EB" stroke-width="2" stroke-miterlimit="10"/>
<path d="M112.85 225.048H111.006V280.374H112.85V225.048Z" stroke="#FCF5EB" stroke-width="2" stroke-miterlimit="10"/>
<path d="M112.85 -3.66113H111.006V51.6646H112.85V-3.66113Z" stroke="#FCF5EB" stroke-width="2" stroke-miterlimit="10"/>
<path d="M112.822 453.757H110.978V509.083H112.822V453.757Z" stroke="#FCF5EB" stroke-width="2" stroke-miterlimit="10"/>
<path d="M112.85 53.5095H111.006V108.835H112.85V53.5095Z" stroke="#FCF5EB" stroke-width="2" stroke-miterlimit="10"/>
<path d="M112.851 110.709H111.006V166.034H112.851V110.709Z" stroke="#FCF5EB" stroke-width="2" stroke-miterlimit="10"/>
<path d="M112.85 282.219H111.006V337.544H112.85V282.219Z" stroke="#FCF5EB" stroke-width="2" stroke-miterlimit="10"/>
<path d="M55.9122 110.709H54.068V166.034H55.9122V110.709Z" stroke="#FCF5EB" stroke-width="2" stroke-miterlimit="10"/>
<path d="M55.9118 453.757H54.0676V509.082H55.9118V453.757Z" stroke="#FCF5EB" stroke-width="2" stroke-miterlimit="10"/>
<path d="M55.9118 53.5095H54.0676V108.835H55.9118V53.5095Z" stroke="#FCF5EB" stroke-width="2" stroke-miterlimit="10"/>
<path d="M55.9119 -3.6604H54.0677V51.6653H55.9119V-3.6604Z" stroke="#FCF5EB" stroke-width="2" stroke-miterlimit="10"/>
<path d="M55.9116 510.956H54.0674V566.281H55.9116V510.956Z" stroke="#FCF5EB" stroke-width="2" stroke-miterlimit="10"/>
<path d="M55.9112 225.048H54.067V280.374H55.9112V225.048Z" stroke="#FCF5EB" stroke-width="2" stroke-miterlimit="10"/>
<path d="M55.9121 167.878H54.0679V223.203H55.9121V167.878Z" stroke="#FCF5EB" stroke-width="2" stroke-miterlimit="10"/>
<path d="M55.9115 339.417H54.0673V394.742H55.9115V339.417Z" stroke="#FCF5EB" stroke-width="2" stroke-miterlimit="10"/>
<path d="M55.9113 282.219H54.0671V337.544H55.9113V282.219Z" stroke="#FCF5EB" stroke-width="2" stroke-miterlimit="10"/>
<path d="M55.9116 396.587H54.0674V451.913H55.9116V396.587Z" stroke="#FCF5EB" stroke-width="2" stroke-miterlimit="10"/>
<path d="M395.588 51.666H340.522V53.5102H395.588V51.666Z" stroke="#FCF5EB" stroke-width="2" stroke-miterlimit="10"/>
<path d="M338.678 51.666H283.611V53.5102H338.678V51.666Z" stroke="#FCF5EB" stroke-width="2" stroke-miterlimit="10"/>
<path d="M680.17 51.666H625.104V53.5102H680.17V51.666Z" stroke="#FCF5EB" stroke-width="2" stroke-miterlimit="10"/>
<path d="M566.349 51.666H511.283V53.5102H566.349V51.666Z" stroke="#FCF5EB" stroke-width="2" stroke-miterlimit="10"/>
<path d="M54.0667 51.666H-0.999756V53.5102H54.0667V51.666Z" stroke="#FCF5EB" stroke-width="2" stroke-miterlimit="10"/>
<path d="M224.827 51.666H169.761V53.5102H224.827V51.666Z" stroke="#FCF5EB" stroke-width="2" stroke-miterlimit="10"/>
<path d="M281.738 51.665H226.672V53.5092H281.738V51.665Z" stroke="#FCF5EB" stroke-width="2" stroke-miterlimit="10"/>
<path d="M167.917 51.666H112.851V53.5102H167.917V51.666Z" stroke="#FCF5EB" stroke-width="2" stroke-miterlimit="10"/>
<path d="M509.439 51.666H454.372V53.5102H509.439V51.666Z" stroke="#FCF5EB" stroke-width="2" stroke-miterlimit="10"/>
<path d="M110.977 51.666H55.9105V53.5102H110.977V51.666Z" stroke="#FCF5EB" stroke-width="2" stroke-miterlimit="10"/>
<path d="M452.499 51.666H397.432V53.5102H452.499V51.666Z" stroke="#FCF5EB" stroke-width="2" stroke-miterlimit="10"/>
<path d="M623.26 51.666H568.193V53.5102H623.26V51.666Z" stroke="#FCF5EB" stroke-width="2" stroke-miterlimit="10"/>
<path d="M625.132 51.666H623.288V53.5102H625.132V51.666Z" stroke="#FCF5EB" stroke-width="2" stroke-miterlimit="10"/>
<path d="M568.193 51.666H566.349V53.5102H568.193V51.666Z" stroke="#FCF5EB" stroke-width="2" stroke-miterlimit="10"/>
<path d="M511.282 51.666H509.438V53.5102H511.282V51.666Z" stroke="#FCF5EB" stroke-width="2" stroke-miterlimit="10"/>
<path d="M454.371 51.666H452.527V53.5102H454.371V51.666Z" stroke="#FCF5EB" stroke-width="2" stroke-miterlimit="10"/>
<path d="M397.432 51.665H395.588V53.5092H397.432V51.665Z" stroke="#FCF5EB" stroke-width="2" stroke-miterlimit="10"/>
<path d="M340.521 51.666H338.677V53.5102H340.521V51.666Z" stroke="#FCF5EB" stroke-width="2" stroke-miterlimit="10"/>
<path d="M283.611 51.666H281.767V53.5102H283.611V51.666Z" stroke="#FCF5EB" stroke-width="2" stroke-miterlimit="10"/>
<path d="M226.672 51.666H224.828V53.5102H226.672V51.666Z" stroke="#FCF5EB" stroke-width="2" stroke-miterlimit="10"/>
<path d="M169.76 51.666H167.916V53.5102H169.76V51.666Z" stroke="#FCF5EB" stroke-width="2" stroke-miterlimit="10"/>
<path d="M112.85 51.666H111.006V53.5102H112.85V51.666Z" stroke="#FCF5EB" stroke-width="2" stroke-miterlimit="10"/>
<path d="M55.9115 51.666H54.0673V53.5102H55.9115V51.666Z" stroke="#FCF5EB" stroke-width="2" stroke-miterlimit="10"/>
<path d="M338.678 108.864H283.612V110.708H338.678V108.864Z" stroke="#FCF5EB" stroke-width="2" stroke-miterlimit="10"/>
<path d="M281.738 108.864H226.672V110.708H281.738V108.864Z" stroke="#FCF5EB" stroke-width="2" stroke-miterlimit="10"/>
<path d="M224.827 108.864H169.761V110.708H224.827V108.864Z" stroke="#FCF5EB" stroke-width="2" stroke-miterlimit="10"/>
<path d="M395.588 108.864H340.522V110.708H395.588V108.864Z" stroke="#FCF5EB" stroke-width="2" stroke-miterlimit="10"/>
<path d="M452.499 108.864H397.433V110.708H452.499V108.864Z" stroke="#FCF5EB" stroke-width="2" stroke-miterlimit="10"/>
<path d="M167.917 108.864H112.851V110.708H167.917V108.864Z" stroke="#FCF5EB" stroke-width="2" stroke-miterlimit="10"/>
<path d="M54.0668 108.864H-0.999634V110.708H54.0668V108.864Z" stroke="#FCF5EB" stroke-width="2" stroke-miterlimit="10"/>
<path d="M110.977 108.864H55.911V110.708H110.977V108.864Z" stroke="#FCF5EB" stroke-width="2" stroke-miterlimit="10"/>
<path d="M509.439 108.864H454.372V110.708H509.439V108.864Z" stroke="#FCF5EB" stroke-width="2" stroke-miterlimit="10"/>
<path d="M680.17 108.864H625.104V110.708H680.17V108.864Z" stroke="#FCF5EB" stroke-width="2" stroke-miterlimit="10"/>
<path d="M623.26 108.864H568.193V110.708H623.26V108.864Z" stroke="#FCF5EB" stroke-width="2" stroke-miterlimit="10"/>
<path d="M566.349 108.864H511.283V110.708H566.349V108.864Z" stroke="#FCF5EB" stroke-width="2" stroke-miterlimit="10"/>
<path d="M625.133 108.864H623.288V110.708H625.133V108.864Z" stroke="#FCF5EB" stroke-width="2" stroke-miterlimit="10"/>
<path d="M568.193 108.864H566.349V110.708H568.193V108.864Z" stroke="#FCF5EB" stroke-width="2" stroke-miterlimit="10"/>
<path d="M511.283 108.864H509.438V110.708H511.283V108.864Z" stroke="#FCF5EB" stroke-width="2" stroke-miterlimit="10"/>
<path d="M454.372 108.864H452.528V110.708H454.372V108.864Z" stroke="#FCF5EB" stroke-width="2" stroke-miterlimit="10"/>
<path d="M397.432 108.864H395.588V110.708H397.432V108.864Z" stroke="#FCF5EB" stroke-width="2" stroke-miterlimit="10"/>
<path d="M340.522 108.864H338.678V110.708H340.522V108.864Z" stroke="#FCF5EB" stroke-width="2" stroke-miterlimit="10"/>
<path d="M283.611 108.864H281.766V110.708H283.611V108.864Z" stroke="#FCF5EB" stroke-width="2" stroke-miterlimit="10"/>
<path d="M226.671 108.864H224.827V110.708H226.671V108.864Z" stroke="#FCF5EB" stroke-width="2" stroke-miterlimit="10"/>
<path d="M169.761 108.864H167.917V110.708H169.761V108.864Z" stroke="#FCF5EB" stroke-width="2" stroke-miterlimit="10"/>
<path d="M112.85 108.864H111.006V110.708H112.85V108.864Z" stroke="#FCF5EB" stroke-width="2" stroke-miterlimit="10"/>
<path d="M55.9113 108.864H54.0671V110.708H55.9113V108.864Z" stroke="#FCF5EB" stroke-width="2" stroke-miterlimit="10"/>
<path d="M110.977 166.034H55.911V167.878H110.977V166.034Z" stroke="#FCF5EB" stroke-width="2" stroke-miterlimit="10"/>
<path d="M54.0669 166.034H-0.999512V167.878H54.0669V166.034Z" stroke="#FCF5EB" stroke-width="2" stroke-miterlimit="10"/>
<path d="M224.828 166.035H169.761V167.879H224.828V166.035Z" stroke="#FCF5EB" stroke-width="2" stroke-miterlimit="10"/>
<path d="M680.17 166.034H625.104V167.878H680.17V166.034Z" stroke="#FCF5EB" stroke-width="2" stroke-miterlimit="10"/>
<path d="M395.588 166.034H340.521V167.878H395.588V166.034Z" stroke="#FCF5EB" stroke-width="2" stroke-miterlimit="10"/>
<path d="M566.349 166.034H511.282V167.878H566.349V166.034Z" stroke="#FCF5EB" stroke-width="2" stroke-miterlimit="10"/>
<path d="M623.259 166.034H568.193V167.878H623.259V166.034Z" stroke="#FCF5EB" stroke-width="2" stroke-miterlimit="10"/>
<path d="M509.438 166.034H454.372V167.878H509.438V166.034Z" stroke="#FCF5EB" stroke-width="2" stroke-miterlimit="10"/>
<path d="M452.499 166.035H397.432V167.879H452.499V166.035Z" stroke="#FCF5EB" stroke-width="2" stroke-miterlimit="10"/>
<path d="M338.677 166.034H283.611V167.878H338.677V166.034Z" stroke="#FCF5EB" stroke-width="2" stroke-miterlimit="10"/>
<path d="M167.917 166.034H112.851V167.878H167.917V166.034Z" stroke="#FCF5EB" stroke-width="2" stroke-miterlimit="10"/>
<path d="M281.738 166.035H226.672V167.879H281.738V166.035Z" stroke="#FCF5EB" stroke-width="2" stroke-miterlimit="10"/>
<path d="M625.132 166.034H623.288V167.878H625.132V166.034Z" stroke="#FCF5EB" stroke-width="2" stroke-miterlimit="10"/>
<path d="M568.193 166.034H566.349V167.878H568.193V166.034Z" stroke="#FCF5EB" stroke-width="2" stroke-miterlimit="10"/>
<path d="M511.282 166.034H509.438V167.878H511.282V166.034Z" stroke="#FCF5EB" stroke-width="2" stroke-miterlimit="10"/>
<path d="M454.371 166.034H452.527V167.878H454.371V166.034Z" stroke="#FCF5EB" stroke-width="2" stroke-miterlimit="10"/>
<path d="M397.432 166.034H395.588V167.878H397.432V166.034Z" stroke="#FCF5EB" stroke-width="2" stroke-miterlimit="10"/>
<path d="M340.522 166.034H338.678V167.878H340.522V166.034Z" stroke="#FCF5EB" stroke-width="2" stroke-miterlimit="10"/>
<path d="M283.611 166.035H281.767V167.879H283.611V166.035Z" stroke="#FCF5EB" stroke-width="2" stroke-miterlimit="10"/>
<path d="M226.672 166.034H224.827V167.878H226.672V166.034Z" stroke="#FCF5EB" stroke-width="2" stroke-miterlimit="10"/>
<path d="M169.761 166.034H167.917V167.878H169.761V166.034Z" stroke="#FCF5EB" stroke-width="2" stroke-miterlimit="10"/>
<path d="M112.85 166.034H111.006V167.878H112.85V166.034Z" stroke="#FCF5EB" stroke-width="2" stroke-miterlimit="10"/>
<path d="M55.9117 166.034H54.0675V167.878H55.9117V166.034Z" stroke="#FCF5EB" stroke-width="2" stroke-miterlimit="10"/>
<path d="M110.978 223.205H55.9115V225.049H110.978V223.205Z" stroke="#FCF5EB" stroke-width="2" stroke-miterlimit="10"/>
<path d="M623.26 223.205H568.193V225.049H623.26V223.205Z" stroke="#FCF5EB" stroke-width="2" stroke-miterlimit="10"/>
<path d="M281.738 223.204H226.672V225.048H281.738V223.204Z" stroke="#FCF5EB" stroke-width="2" stroke-miterlimit="10"/>
<path d="M224.827 223.205H169.761V225.049H224.827V223.205Z" stroke="#FCF5EB" stroke-width="2" stroke-miterlimit="10"/>
<path d="M680.2 223.204H625.133V225.048H680.2V223.204Z" stroke="#FCF5EB" stroke-width="2" stroke-miterlimit="10"/>
<path d="M338.677 223.205H283.611V225.049H338.677V223.205Z" stroke="#FCF5EB" stroke-width="2" stroke-miterlimit="10"/>
<path d="M395.588 223.204H340.522V225.048H395.588V223.204Z" stroke="#FCF5EB" stroke-width="2" stroke-miterlimit="10"/>
<path d="M566.349 223.204H511.283V225.048H566.349V223.204Z" stroke="#FCF5EB" stroke-width="2" stroke-miterlimit="10"/>
<path d="M509.438 223.205H454.372V225.049H509.438V223.205Z" stroke="#FCF5EB" stroke-width="2" stroke-miterlimit="10"/>
<path d="M452.499 223.204H397.432V225.048H452.499V223.204Z" stroke="#FCF5EB" stroke-width="2" stroke-miterlimit="10"/>
<path d="M167.917 223.204H112.85V225.048H167.917V223.204Z" stroke="#FCF5EB" stroke-width="2" stroke-miterlimit="10"/>
<path d="M54.067 223.205H-0.99939V225.049H54.067V223.205Z" stroke="#FCF5EB" stroke-width="2" stroke-miterlimit="10"/>
<path d="M625.132 223.205H623.288V225.049H625.132V223.205Z" stroke="#FCF5EB" stroke-width="2" stroke-miterlimit="10"/>
<path d="M568.193 223.204H566.349V225.048H568.193V223.204Z" stroke="#FCF5EB" stroke-width="2" stroke-miterlimit="10"/>
<path d="M511.282 223.205H509.438V225.049H511.282V223.205Z" stroke="#FCF5EB" stroke-width="2" stroke-miterlimit="10"/>
<path d="M454.371 223.205H452.527V225.049H454.371V223.205Z" stroke="#FCF5EB" stroke-width="2" stroke-miterlimit="10"/>
<path d="M397.433 223.205H395.589V225.049H397.433V223.205Z" stroke="#FCF5EB" stroke-width="2" stroke-miterlimit="10"/>
<path d="M340.521 223.205H338.677V225.049H340.521V223.205Z" stroke="#FCF5EB" stroke-width="2" stroke-miterlimit="10"/>
<path d="M283.611 223.204H281.767V225.048H283.611V223.204Z" stroke="#FCF5EB" stroke-width="2" stroke-miterlimit="10"/>
<path d="M226.671 223.205H224.827V225.049H226.671V223.205Z" stroke="#FCF5EB" stroke-width="2" stroke-miterlimit="10"/>
<path d="M169.761 223.205H167.917V225.049H169.761V223.205Z" stroke="#FCF5EB" stroke-width="2" stroke-miterlimit="10"/>
<path d="M112.851 223.205H111.007V225.049H112.851V223.205Z" stroke="#FCF5EB" stroke-width="2" stroke-miterlimit="10"/>
<path d="M55.9118 223.205H54.0676V225.049H55.9118V223.205Z" stroke="#FCF5EB" stroke-width="2" stroke-miterlimit="10"/>
<path d="M281.738 280.375H226.672V282.219H281.738V280.375Z" stroke="#FCF5EB" stroke-width="2" stroke-miterlimit="10"/>
<path d="M680.2 280.374H625.133V282.218H680.2V280.374Z" stroke="#FCF5EB" stroke-width="2" stroke-miterlimit="10"/>
<path d="M224.828 280.375H169.761V282.219H224.828V280.375Z" stroke="#FCF5EB" stroke-width="2" stroke-miterlimit="10"/>
<path d="M509.439 280.374H454.372V282.218H509.439V280.374Z" stroke="#FCF5EB" stroke-width="2" stroke-miterlimit="10"/>
<path d="M566.349 280.374H511.283V282.218H566.349V280.374Z" stroke="#FCF5EB" stroke-width="2" stroke-miterlimit="10"/>
<path d="M452.499 280.374H397.432V282.218H452.499V280.374Z" stroke="#FCF5EB" stroke-width="2" stroke-miterlimit="10"/>
<path d="M338.678 280.374H283.611V282.218H338.678V280.374Z" stroke="#FCF5EB" stroke-width="2" stroke-miterlimit="10"/>
<path d="M395.588 280.374H340.522V282.218H395.588V280.374Z" stroke="#FCF5EB" stroke-width="2" stroke-miterlimit="10"/>
<path d="M167.916 280.375H112.85V282.219H167.916V280.375Z" stroke="#FCF5EB" stroke-width="2" stroke-miterlimit="10"/>
<path d="M54.0671 280.374H-0.999268V282.218H54.0671V280.374Z" stroke="#FCF5EB" stroke-width="2" stroke-miterlimit="10"/>
<path d="M623.259 280.374H568.193V282.218H623.259V280.374Z" stroke="#FCF5EB" stroke-width="2" stroke-miterlimit="10"/>
<path d="M110.978 280.374H55.9114V282.218H110.978V280.374Z" stroke="#FCF5EB" stroke-width="2" stroke-miterlimit="10"/>
<path d="M625.103 280.374H623.259V282.218H625.103V280.374Z" stroke="#FCF5EB" stroke-width="2" stroke-miterlimit="10"/>
<path d="M568.193 280.373H566.349V282.218H568.193V280.373Z" stroke="#FCF5EB" stroke-width="2" stroke-miterlimit="10"/>
<path d="M511.282 280.374H509.437V282.218H511.282V280.374Z" stroke="#FCF5EB" stroke-width="2" stroke-miterlimit="10"/>
<path d="M454.371 280.374H452.527V282.218H454.371V280.374Z" stroke="#FCF5EB" stroke-width="2" stroke-miterlimit="10"/>
<path d="M397.433 280.374H395.589V282.218H397.433V280.374Z" stroke="#FCF5EB" stroke-width="2" stroke-miterlimit="10"/>
<path d="M340.522 280.375H338.677V282.219H340.522V280.375Z" stroke="#FCF5EB" stroke-width="2" stroke-miterlimit="10"/>
<path d="M283.611 280.374H281.766V282.218H283.611V280.374Z" stroke="#FCF5EB" stroke-width="2" stroke-miterlimit="10"/>
<path d="M226.671 280.375H224.827V282.219H226.671V280.375Z" stroke="#FCF5EB" stroke-width="2" stroke-miterlimit="10"/>
<path d="M169.761 280.375H167.917V282.219H169.761V280.375Z" stroke="#FCF5EB" stroke-width="2" stroke-miterlimit="10"/>
<path d="M112.851 280.374H111.006V282.218H112.851V280.374Z" stroke="#FCF5EB" stroke-width="2" stroke-miterlimit="10"/>
<path d="M55.9117 280.374H54.0675V282.218H55.9117V280.374Z" stroke="#FCF5EB" stroke-width="2" stroke-miterlimit="10"/>
<path d="M110.977 337.573H55.9109V339.417H110.977V337.573Z" stroke="#FCF5EB" stroke-width="2" stroke-miterlimit="10"/>
<path d="M623.26 337.573H568.193V339.417H623.26V337.573Z" stroke="#FCF5EB" stroke-width="2" stroke-miterlimit="10"/>
<path d="M680.199 337.573H625.133V339.417H680.199V337.573Z" stroke="#FCF5EB" stroke-width="2" stroke-miterlimit="10"/>
<path d="M338.678 337.573H283.612V339.417H338.678V337.573Z" stroke="#FCF5EB" stroke-width="2" stroke-miterlimit="10"/>
<path d="M395.588 337.573H340.522V339.417H395.588V337.573Z" stroke="#FCF5EB" stroke-width="2" stroke-miterlimit="10"/>
<path d="M224.828 337.573H169.761V339.417H224.828V337.573Z" stroke="#FCF5EB" stroke-width="2" stroke-miterlimit="10"/>
<path d="M281.738 337.573H226.672V339.417H281.738V337.573Z" stroke="#FCF5EB" stroke-width="2" stroke-miterlimit="10"/>
<path d="M509.438 337.572H454.372V339.416H509.438V337.572Z" stroke="#FCF5EB" stroke-width="2" stroke-miterlimit="10"/>
<path d="M167.917 337.573H112.851V339.417H167.917V337.573Z" stroke="#FCF5EB" stroke-width="2" stroke-miterlimit="10"/>
<path d="M452.499 337.573H397.433V339.417H452.499V337.573Z" stroke="#FCF5EB" stroke-width="2" stroke-miterlimit="10"/>
<path d="M566.349 337.573H511.282V339.417H566.349V337.573Z" stroke="#FCF5EB" stroke-width="2" stroke-miterlimit="10"/>
<path d="M54.067 337.573H-0.99939V339.417H54.067V337.573Z" stroke="#FCF5EB" stroke-width="2" stroke-miterlimit="10"/>
<path d="M625.103 337.573H623.259V339.417H625.103V337.573Z" stroke="#FCF5EB" stroke-width="2" stroke-miterlimit="10"/>
<path d="M568.192 337.574H566.348V339.418H568.192V337.574Z" stroke="#FCF5EB" stroke-width="2" stroke-miterlimit="10"/>
<path d="M511.282 337.573H509.438V339.417H511.282V337.573Z" stroke="#FCF5EB" stroke-width="2" stroke-miterlimit="10"/>
<path d="M454.372 337.573H452.528V339.417H454.372V337.573Z" stroke="#FCF5EB" stroke-width="2" stroke-miterlimit="10"/>
<path d="M397.432 337.573H395.587V339.417H397.432V337.573Z" stroke="#FCF5EB" stroke-width="2" stroke-miterlimit="10"/>
<path d="M340.521 337.573H338.677V339.417H340.521V337.573Z" stroke="#FCF5EB" stroke-width="2" stroke-miterlimit="10"/>
<path d="M283.611 337.573H281.767V339.417H283.611V337.573Z" stroke="#FCF5EB" stroke-width="2" stroke-miterlimit="10"/>
<path d="M226.671 337.573H224.827V339.417H226.671V337.573Z" stroke="#FCF5EB" stroke-width="2" stroke-miterlimit="10"/>
<path d="M169.761 337.573H167.917V339.417H169.761V337.573Z" stroke="#FCF5EB" stroke-width="2" stroke-miterlimit="10"/>
<path d="M112.822 337.573H110.978V339.417H112.822V337.573Z" stroke="#FCF5EB" stroke-width="2" stroke-miterlimit="10"/>
<path d="M55.9115 337.573H54.0673V339.417H55.9115V337.573Z" stroke="#FCF5EB" stroke-width="2" stroke-miterlimit="10"/>
<path d="M395.588 394.743H340.522V396.587H395.588V394.743Z" stroke="#FCF5EB" stroke-width="2" stroke-miterlimit="10"/>
<path d="M281.738 394.743H226.671V396.587H281.738V394.743Z" stroke="#FCF5EB" stroke-width="2" stroke-miterlimit="10"/>
<path d="M509.438 394.742H454.372V396.586H509.438V394.742Z" stroke="#FCF5EB" stroke-width="2" stroke-miterlimit="10"/>
<path d="M452.499 394.742H397.433V396.586H452.499V394.742Z" stroke="#FCF5EB" stroke-width="2" stroke-miterlimit="10"/>
<path d="M338.678 394.742H283.612V396.586H338.678V394.742Z" stroke="#FCF5EB" stroke-width="2" stroke-miterlimit="10"/>
<path d="M680.199 394.742H625.132V396.586H680.199V394.742Z" stroke="#FCF5EB" stroke-width="2" stroke-miterlimit="10"/>
<path d="M54.0669 394.742H-0.999512V396.586H54.0669V394.742Z" stroke="#FCF5EB" stroke-width="2" stroke-miterlimit="10"/>
<path d="M623.26 394.742H568.194V396.586H623.26V394.742Z" stroke="#FCF5EB" stroke-width="2" stroke-miterlimit="10"/>
<path d="M566.349 394.743H511.283V396.587H566.349V394.743Z" stroke="#FCF5EB" stroke-width="2" stroke-miterlimit="10"/>
<path d="M110.977 394.742H55.9106V396.586H110.977V394.742Z" stroke="#FCF5EB" stroke-width="2" stroke-miterlimit="10"/>
<path d="M224.827 394.742H169.761V396.586H224.827V394.742Z" stroke="#FCF5EB" stroke-width="2" stroke-miterlimit="10"/>
<path d="M167.917 394.742H112.851V396.586H167.917V394.742Z" stroke="#FCF5EB" stroke-width="2" stroke-miterlimit="10"/>
<path d="M625.103 394.742H623.259V396.586H625.103V394.742Z" stroke="#FCF5EB" stroke-width="2" stroke-miterlimit="10"/>
<path d="M568.192 394.743H566.348V396.587H568.192V394.743Z" stroke="#FCF5EB" stroke-width="2" stroke-miterlimit="10"/>
<path d="M511.282 394.743H509.438V396.587H511.282V394.743Z" stroke="#FCF5EB" stroke-width="2" stroke-miterlimit="10"/>
<path d="M454.372 394.743H452.528V396.587H454.372V394.743Z" stroke="#FCF5EB" stroke-width="2" stroke-miterlimit="10"/>
<path d="M397.432 394.742H395.588V396.586H397.432V394.742Z" stroke="#FCF5EB" stroke-width="2" stroke-miterlimit="10"/>
<path d="M340.521 394.743H338.677V396.587H340.521V394.743Z" stroke="#FCF5EB" stroke-width="2" stroke-miterlimit="10"/>
<path d="M283.611 394.742H281.767V396.586H283.611V394.742Z" stroke="#FCF5EB" stroke-width="2" stroke-miterlimit="10"/>
<path d="M226.671 394.742H224.827V396.586H226.671V394.742Z" stroke="#FCF5EB" stroke-width="2" stroke-miterlimit="10"/>
<path d="M169.761 394.742H167.916V396.586H169.761V394.742Z" stroke="#FCF5EB" stroke-width="2" stroke-miterlimit="10"/>
<path d="M112.822 394.742H110.978V396.586H112.822V394.742Z" stroke="#FCF5EB" stroke-width="2" stroke-miterlimit="10"/>
<path d="M55.9117 394.742H54.0675V396.586H55.9117V394.742Z" stroke="#FCF5EB" stroke-width="2" stroke-miterlimit="10"/>
<path d="M54.0673 451.941H-0.999146V453.786H54.0673V451.941Z" stroke="#FCF5EB" stroke-width="2" stroke-miterlimit="10"/>
<path d="M110.977 451.941H55.911V453.786H110.977V451.941Z" stroke="#FCF5EB" stroke-width="2" stroke-miterlimit="10"/>
<path d="M338.678 451.941H283.611V453.786H338.678V451.941Z" stroke="#FCF5EB" stroke-width="2" stroke-miterlimit="10"/>
<path d="M680.199 451.941H625.133V453.786H680.199V451.941Z" stroke="#FCF5EB" stroke-width="2" stroke-miterlimit="10"/>
<path d="M167.917 451.941H112.851V453.786H167.917V451.941Z" stroke="#FCF5EB" stroke-width="2" stroke-miterlimit="10"/>
<path d="M566.349 451.941H511.282V453.786H566.349V451.941Z" stroke="#FCF5EB" stroke-width="2" stroke-miterlimit="10"/>
<path d="M623.259 451.941H568.193V453.786H623.259V451.941Z" stroke="#FCF5EB" stroke-width="2" stroke-miterlimit="10"/>
<path d="M509.439 451.941H454.372V453.786H509.439V451.941Z" stroke="#FCF5EB" stroke-width="2" stroke-miterlimit="10"/>
<path d="M281.738 451.942H226.672V453.786H281.738V451.942Z" stroke="#FCF5EB" stroke-width="2" stroke-miterlimit="10"/>
<path d="M224.828 451.941H169.762V453.786H224.828V451.941Z" stroke="#FCF5EB" stroke-width="2" stroke-miterlimit="10"/>
<path d="M395.588 451.941H340.522V453.786H395.588V451.941Z" stroke="#FCF5EB" stroke-width="2" stroke-miterlimit="10"/>
<path d="M452.498 451.941H397.432V453.786H452.498V451.941Z" stroke="#FCF5EB" stroke-width="2" stroke-miterlimit="10"/>
<path d="M625.103 451.941H623.259V453.786H625.103V451.941Z" stroke="#FCF5EB" stroke-width="2" stroke-miterlimit="10"/>
<path d="M568.193 451.941H566.349V453.786H568.193V451.941Z" stroke="#FCF5EB" stroke-width="2" stroke-miterlimit="10"/>
<path d="M511.282 451.941H509.437V453.786H511.282V451.941Z" stroke="#FCF5EB" stroke-width="2" stroke-miterlimit="10"/>
<path d="M454.371 451.941H452.527V453.786H454.371V451.941Z" stroke="#FCF5EB" stroke-width="2" stroke-miterlimit="10"/>
<path d="M397.433 451.941H395.588V453.786H397.433V451.941Z" stroke="#FCF5EB" stroke-width="2" stroke-miterlimit="10"/>
<path d="M340.522 451.942H338.677V453.786H340.522V451.942Z" stroke="#FCF5EB" stroke-width="2" stroke-miterlimit="10"/>
<path d="M283.611 451.941H281.766V453.786H283.611V451.941Z" stroke="#FCF5EB" stroke-width="2" stroke-miterlimit="10"/>
<path d="M226.672 451.941H224.828V453.786H226.672V451.941Z" stroke="#FCF5EB" stroke-width="2" stroke-miterlimit="10"/>
<path d="M169.761 451.941H167.917V453.786H169.761V451.941Z" stroke="#FCF5EB" stroke-width="2" stroke-miterlimit="10"/>
<path d="M112.822 451.941H110.978V453.786H112.822V451.941Z" stroke="#FCF5EB" stroke-width="2" stroke-miterlimit="10"/>
<path d="M55.9117 451.941H54.0675V453.786H55.9117V451.941Z" stroke="#FCF5EB" stroke-width="2" stroke-miterlimit="10"/>
<path d="M54.0668 509.111H-0.999634V510.956H54.0668V509.111Z" stroke="#FCF5EB" stroke-width="2" stroke-miterlimit="10"/>
<path d="M110.977 509.112H55.9106V510.957H110.977V509.112Z" stroke="#FCF5EB" stroke-width="2" stroke-miterlimit="10"/>
<path d="M395.588 509.112H340.522V510.957H395.588V509.112Z" stroke="#FCF5EB" stroke-width="2" stroke-miterlimit="10"/>
<path d="M452.499 509.111H397.433V510.956H452.499V509.111Z" stroke="#FCF5EB" stroke-width="2" stroke-miterlimit="10"/>
<path d="M338.678 509.112H283.612V510.957H338.678V509.112Z" stroke="#FCF5EB" stroke-width="2" stroke-miterlimit="10"/>
<path d="M281.738 509.112H226.671V510.957H281.738V509.112Z" stroke="#FCF5EB" stroke-width="2" stroke-miterlimit="10"/>
<path d="M224.827 509.112H169.761V510.957H224.827V509.112Z" stroke="#FCF5EB" stroke-width="2" stroke-miterlimit="10"/>
<path d="M623.26 509.112H568.193V510.957H623.26V509.112Z" stroke="#FCF5EB" stroke-width="2" stroke-miterlimit="10"/>
<path d="M680.198 509.112H625.132V510.957H680.198V509.112Z" stroke="#FCF5EB" stroke-width="2" stroke-miterlimit="10"/>
<path d="M167.917 509.111H112.851V510.956H167.917V509.111Z" stroke="#FCF5EB" stroke-width="2" stroke-miterlimit="10"/>
<path d="M509.439 509.112H454.372V510.957H509.439V509.112Z" stroke="#FCF5EB" stroke-width="2" stroke-miterlimit="10"/>
<path d="M566.349 509.112H511.283V510.957H566.349V509.112Z" stroke="#FCF5EB" stroke-width="2" stroke-miterlimit="10"/>
<path d="M625.103 509.111H623.259V510.956H625.103V509.111Z" stroke="#FCF5EB" stroke-width="2" stroke-miterlimit="10"/>
<path d="M568.192 509.112H566.348V510.957H568.192V509.112Z" stroke="#FCF5EB" stroke-width="2" stroke-miterlimit="10"/>
<path d="M511.282 509.112H509.438V510.957H511.282V509.112Z" stroke="#FCF5EB" stroke-width="2" stroke-miterlimit="10"/>
<path d="M454.372 509.112H452.527V510.957H454.372V509.112Z" stroke="#FCF5EB" stroke-width="2" stroke-miterlimit="10"/>
<path d="M397.432 509.112H395.588V510.957H397.432V509.112Z" stroke="#FCF5EB" stroke-width="2" stroke-miterlimit="10"/>
<path d="M340.521 509.112H338.677V510.957H340.521V509.112Z" stroke="#FCF5EB" stroke-width="2" stroke-miterlimit="10"/>
<path d="M283.611 509.111H281.767V510.956H283.611V509.111Z" stroke="#FCF5EB" stroke-width="2" stroke-miterlimit="10"/>
<path d="M226.672 509.112H224.827V510.957H226.672V509.112Z" stroke="#FCF5EB" stroke-width="2" stroke-miterlimit="10"/>
<path d="M169.76 509.112H167.916V510.957H169.76V509.112Z" stroke="#FCF5EB" stroke-width="2" stroke-miterlimit="10"/>
<path d="M112.822 509.111H110.978V510.956H112.822V509.111Z" stroke="#FCF5EB" stroke-width="2" stroke-miterlimit="10"/>
<path d="M55.9116 509.111H54.0674V510.956H55.9116V509.111Z" stroke="#FCF5EB" stroke-width="2" stroke-miterlimit="10"/>
</g>
</svg>
