<svg width="214" height="17" viewBox="0 0 214 17" fill="none">
  <path d="M0 0C6.41855 0 9.62058 3.75812 12.4459 7.07744C15.0539 10.1349 17.1113 12.5483 21.4 12.5483C25.6887 12.5483 27.7389 10.1278 30.3469 7.07744C33.1722 3.7652 36.3742 0 42.7928 0C49.2113 0 52.4133 3.75812 55.2387 7.07744C57.8467 10.1349 59.9041 12.5483 64.1928 12.5483C68.4815 12.5483 70.5316 10.1278 73.1686 7.07744C75.9939 3.7652 79.2032 0 85.6145 0C92.0258 0 95.2351 3.75812 98.0676 7.07744C100.676 10.1349 102.733 12.5483 107.014 12.5483C111.296 12.5483 113.324 10.1278 115.911 7.07744C118.736 3.7652 121.945 0 128.357 0C134.768 0 138.006 3.75812 140.831 7.07744C143.439 10.1349 145.497 12.5483 149.786 12.5483C154.074 12.5483 156.124 10.1349 158.732 7.07744C161.558 3.7652 164.76 0 171.178 0C177.597 0 180.806 3.75812 183.631 7.07744C186.239 10.1349 188.304 12.5483 192.586 12.5483C196.867 12.5483 198.932 10.1278 201.54 7.07744C204.372 3.7652 207.574 0 214 0V4.45171C209.711 4.45171 207.647 6.86511 205.039 9.92256C202.213 13.2348 199.004 17 192.586 17C186.167 17 182.965 13.2419 180.132 9.92256C177.524 6.86511 175.46 4.45171 171.178 4.45171C166.897 4.45171 164.839 6.86511 162.231 9.90841C159.406 13.2206 156.197 16.9858 149.786 16.9858C143.374 16.9858 140.158 13.2277 137.332 9.90841C134.724 6.85096 132.667 4.43755 128.378 4.43755C124.09 4.43755 122.039 6.86511 119.431 9.90841C116.606 13.2206 113.404 16.9858 106.986 16.9858C100.567 16.9858 97.3649 13.2348 94.5396 9.90841C91.9316 6.85096 89.8742 4.43755 85.5855 4.43755C81.2968 4.43755 79.2467 6.86511 76.6387 9.90841C73.8133 13.2206 70.6041 16.9858 64.1928 16.9858C57.7815 16.9858 54.5722 13.2348 51.7396 9.90841C49.1316 6.86511 47.0887 4.45171 42.7928 4.45171C38.4968 4.45171 36.4539 6.86511 33.8459 9.90841C31.0206 13.2206 27.8113 16.9858 21.4 16.9858C14.9887 16.9858 11.7794 13.2348 8.94685 9.90841C6.33886 6.86511 4.28145 4.45171 0 4.45171V0Z" fill="#F99D21"/>
</svg>
