<?xml version="1.0" encoding="utf-8"?>
<!-- Generator: Adobe Illustrator 16.0.4, SVG Export Plug-In . SVG Version: 6.00 Build 0)  -->
<!DOCTYPE svg PUBLIC "-//W3C//DTD SVG 1.1//EN" "http://www.w3.org/Graphics/SVG/1.1/DTD/svg11.dtd">
<svg version="1.1" id="Layer_1" xmlns="http://www.w3.org/2000/svg" xmlns:xlink="http://www.w3.org/1999/xlink" x="0px" y="0px"
	 width="434.351px" height="319.828px" viewBox="0 0 434.351 319.828" enable-background="new 0 0 434.351 319.828"
	 xml:space="preserve">
<g>
	<ellipse opacity="0.2" fill="#231F20" enable-background="new    " cx="194.981" cy="299.214" rx="194.981" ry="20.613"/>
	<g>
		<g>
			<rect x="25.613" y="180.775" fill="#F0B93E" width="189.81" height="124.619"/>
			<polygon fill="#9D7D28" points="252.927,270.776 215.423,305.396 215.423,180.775 252.927,152.737 			"/>
			<polygon fill="#F8DFAD" points="215.423,180.775 25.613,180.775 63.112,152.737 252.927,152.737 			"/>
			<rect x="104.075" y="180.775" fill="#AF882E" width="25.963" height="62.312"/>
			<polygon fill="#AF882E" points="130.038,180.775 104.075,180.775 138.113,152.737 164.078,152.737 			"/>
		</g>
		<g>
			<rect x="242.498" y="178.503" fill="#F0B93E" width="99.883" height="124.617"/>
			<polygon fill="#AF882E" points="362.119,285.815 342.38,303.121 342.38,178.503 362.119,167.775 			"/>
			<polygon fill="#F8DFAD" points="342.38,178.503 242.498,178.503 262.232,167.775 362.119,167.775 			"/>
			<rect x="283.787" y="178.503" fill="#AF882E" width="13.662" height="62.311"/>
			<polygon fill="#AF882E" points="297.449,178.503 283.787,178.503 301.699,167.775 315.365,167.775 			"/>
		</g>
		<g>
			<rect x="145.709" y="278.603" fill="#F0B93E" width="94.906" height="34.352"/>
			<polygon fill="#AF882E" points="259.363,300.208 240.615,312.955 240.615,278.603 259.363,268.283 			"/>
			<polygon fill="#F8DFAD" points="240.615,278.603 145.709,278.603 164.457,268.283 259.363,268.283 			"/>
			<rect x="184.94" y="278.603" fill="#AF882E" width="12.981" height="22.947"/>
			<polygon fill="#AF882E" points="197.921,278.603 184.94,278.603 201.958,268.283 214.939,268.283 			"/>
		</g>
		<g>
			<rect x="64.325" y="147.44" fill="#F0B93E" width="56.959" height="20.92"/>
			<polygon fill="#9D7D28" points="136.151,155.046 121.284,168.36 121.284,147.44 136.151,137.113 			"/>
			<polygon fill="#F8DFAD" points="121.284,147.44 64.325,147.44 79.192,137.113 136.151,137.113 			"/>
			<rect x="86.285" y="147.44" fill="#AF882E" width="10.292" height="15.213"/>
			<polygon fill="#AF882E" points="96.577,147.44 86.285,147.44 99.781,137.113 110.075,137.113 			"/>
		</g>
		<g>
			<rect x="265.887" y="169.744" fill="#F0B93E" width="56.956" height="4.973"/>
			<polygon fill="#AF882E" points="337.712,166.978 322.843,174.716 322.843,169.744 337.712,162.48 			"/>
			<polygon fill="#F8DFAD" points="322.843,169.744 265.887,169.744 280.755,162.48 337.712,162.48 			"/>
			<rect x="287.848" y="169.744" fill="#AF882E" width="10.29" height="2.582"/>
			<polygon fill="#AF882E" points="298.138,169.744 287.848,169.744 301.343,162.48 311.634,162.48 			"/>
		</g>
		<g>
			<g>
				<path fill="#5D5094" d="M99.297,281.058l1.076,0.846l-1.011,1.945c-0.511,0.893,0.355,1.762,0.909,2.064
					c0.554,0.301,1.395,0.336,2.185,0.323l1.431-2.323l1.072,0.58l-1.867-3.466L99.297,281.058z M99.451,285.815l2.314,4.271
					c0.463,0.592,1.338,0.731,2.247,0.701h2.432v-4.029l-4.614-0.037C101.108,286.757,100.169,286.608,99.451,285.815z
					 M113.997,277.946l-1.263,0.533l-1.21-1.83c-0.533-0.873-1.716-0.53-2.247-0.196c-0.528,0.334-0.973,1.055-1.345,1.754
					l1.345,2.377l-1.026,0.656l3.929,0.043L113.997,277.946z M109.76,275.776l-4.852-0.041c-0.744,0.117-1.302,0.812-1.721,1.611
					l-1.176,2.137l3.542,1.959l2.259-4.021C108.13,276.771,108.713,276.021,109.76,275.776z M109.967,292.263l0.147-1.371
					l2.185-0.168c1.019-0.041,1.299-1.242,1.269-1.871c-0.036-0.621-0.449-1.357-0.885-2.023l-2.725,0.023l-0.08-1.223l-1.946,3.416
					L109.967,292.263z M113.911,289.604l2.399-4.222c0.261-0.713-0.087-1.528-0.583-2.286l-1.298-2.068l-3.425,2.146l2.417,3.934
					C113.837,287.694,114.217,288.571,113.911,289.604z"/>
			</g>
			<g>
				<path fill="#5D5094" d="M56.506,297.442h-18.59c-2.474,0-4.49-2.015-4.49-4.491v-18.597c0-2.476,2.016-4.481,4.49-4.481h18.591
					c2.483,0,4.499,2.008,4.499,4.481v18.597C61.005,295.429,58.989,297.442,56.506,297.442z M37.916,272.087
					c-1.255,0-2.273,1.018-2.273,2.268v18.596c0,1.252,1.018,2.273,2.273,2.273h18.591c1.257,0,2.276-1.021,2.276-2.273v-18.596
					c0-1.25-1.019-2.268-2.276-2.268H37.916z"/>
				<polygon fill="#5D5094" points="41.995,274.88 39.558,278.483 40.968,278.483 40.968,289.089 43.27,289.089 43.27,278.483 
					44.785,278.483 				"/>
				<polygon fill="#5D5094" points="51.057,274.88 48.615,278.483 50.026,278.483 50.026,289.089 52.339,289.089 52.339,278.483 
					53.844,278.483 				"/>
				<path fill="#5D5094" d="M54.779,292.537H38.976c-0.518,0-0.939-0.418-0.939-0.929l0,0c0-0.515,0.421-0.926,0.939-0.926H54.78
					c0.508,0,0.926,0.411,0.926,0.926l0,0C55.706,292.119,55.287,292.537,54.779,292.537z"/>
			</g>
			<g>
				<path fill="#5D5094" d="M87.405,297.442H68.812c-2.473,0-4.487-2.015-4.487-4.491v-18.597c0-2.476,2.015-4.481,4.487-4.481
					h18.593c2.473,0,4.487,2.008,4.487,4.481v18.597C91.893,295.429,89.878,297.442,87.405,297.442z M68.812,272.087
					c-1.253,0-2.269,1.018-2.269,2.268v18.596c0,1.252,1.015,2.273,2.269,2.273h18.593c1.251,0,2.272-1.021,2.272-2.273v-18.596
					c0-1.25-1.021-2.268-2.272-2.268H68.812z"/>
				<path fill="#5D5094" d="M72.207,279.248c0,3.037,2.498,5.535,5.544,5.535c3.051,0,5.551-2.498,5.551-5.535v-3.799H72.207
					V279.248z"/>
				<path fill="#5D5094" d="M77.677,291.492L77.677,291.492c-0.36,0-0.656-0.291-0.656-0.65v-7.881c0-0.361,0.296-0.656,0.656-0.656
					l0,0c0.362,0,0.659,0.295,0.659,0.656v7.881C78.335,291.201,78.039,291.492,77.677,291.492z"/>
				<rect x="72.79" y="290.617" fill="#5D5094" width="9.922" height="1.61"/>
			</g>
			<g>
				<path fill="#5D5094" d="M117.514,297.442H98.925c-2.484,0-4.5-2.015-4.5-4.491v-18.597c0-2.476,2.016-4.481,4.5-4.481h18.589
					c2.474,0,4.484,2.008,4.484,4.481v18.597C121.998,295.429,119.988,297.442,117.514,297.442z M98.925,272.087
					c-1.257,0-2.278,1.018-2.278,2.268v18.596c0,1.252,1.021,2.273,2.278,2.273h18.589c1.25,0,2.267-1.021,2.267-2.273v-18.596
					c0-1.25-1.018-2.268-2.267-2.268H98.925z"/>
			</g>
		</g>
		<g>
			<rect x="135.343" y="84.729" fill="#F0B93E" width="94.558" height="82.028"/>
			<polygon fill="#AF882E" points="247.518,149.854 229.9,166.757 229.9,84.729 247.518,72.156 			"/>
			<polygon fill="#F8DFAD" points="229.9,84.729 135.343,84.729 160.028,72.043 247.518,72.156 			"/>
			<rect x="171.799" y="84.729" fill="#AF882E" width="17.089" height="41.013"/>
			<polygon fill="#AF882E" points="188.888,84.729 171.799,84.729 194.204,72.043 211.292,72.043 			"/>
		</g>
		<g>
			<g>
				<path fill="#5D5094" d="M326.427,290.453l0.404,0.312l-0.381,0.728c-0.188,0.334,0.133,0.657,0.342,0.772
					c0.207,0.11,0.521,0.123,0.812,0.118l0.538-0.864l0.401,0.215l-0.698-1.293L326.427,290.453z M326.486,292.229l0.866,1.597
					c0.172,0.221,0.501,0.274,0.839,0.262h0.91v-1.508l-1.727-0.015C327.107,292.58,326.755,292.522,326.486,292.229z
					 M331.925,289.285l-0.475,0.198L331,288.802c-0.199-0.326-0.644-0.199-0.84-0.074c-0.199,0.125-0.365,0.393-0.507,0.656
					l0.507,0.889l-0.388,0.246l1.472,0.014L331.925,289.285z M330.339,288.476l-1.814-0.014c-0.277,0.041-0.484,0.303-0.643,0.602
					l-0.438,0.799l1.324,0.732l0.843-1.506C329.73,288.849,329.949,288.563,330.339,288.476z M330.417,294.64l0.054-0.514
					l0.819-0.062c0.379-0.016,0.483-0.465,0.473-0.699c-0.014-0.234-0.17-0.508-0.332-0.754l-1.018,0.004l-0.031-0.453l-0.729,1.275
					L330.417,294.64z M331.892,293.644l0.896-1.578c0.094-0.264-0.031-0.57-0.218-0.852l-0.483-0.773l-1.28,0.799l0.903,1.471
					C331.865,292.931,332.005,293.257,331.892,293.644z"/>
			</g>
			<g>
				<path fill="#5D5094" d="M310.429,296.576h-6.952c-0.923,0-1.677-0.755-1.677-1.683v-6.947c0-0.93,0.754-1.68,1.677-1.68h6.952
					c0.928,0,1.683,0.75,1.683,1.68v6.947C312.112,295.821,311.357,296.576,310.429,296.576z M303.478,287.095
					c-0.469,0-0.848,0.381-0.848,0.852v6.947c0,0.471,0.379,0.852,0.848,0.852h6.952c0.471,0,0.849-0.381,0.849-0.852v-6.947
					c0-0.471-0.378-0.852-0.849-0.852H303.478z"/>
				<polygon fill="#5D5094" points="305.005,288.142 304.091,289.485 304.621,289.485 304.621,293.455 305.483,293.455 
					305.483,289.485 306.048,289.485 				"/>
				<polygon fill="#5D5094" points="308.393,288.142 307.48,289.485 308.007,289.485 308.007,293.455 308.871,293.455 
					308.871,289.485 309.434,289.485 				"/>
				<path fill="#5D5094" d="M309.783,294.742h-5.906c-0.193,0-0.352-0.156-0.352-0.351l0,0c0-0.188,0.158-0.345,0.352-0.345h5.906
					c0.191,0,0.348,0.154,0.348,0.345l0,0C310.13,294.585,309.974,294.742,309.783,294.742z"/>
			</g>
			<g>
				<path fill="#5D5094" d="M321.981,296.576h-6.951c-0.925,0-1.677-0.755-1.677-1.683v-6.947c0-0.93,0.752-1.68,1.677-1.68h6.951
					c0.927,0,1.677,0.75,1.677,1.68v6.947C323.66,295.821,322.908,296.576,321.981,296.576z M315.031,287.095
					c-0.469,0-0.849,0.381-0.849,0.852v6.947c0,0.471,0.38,0.852,0.849,0.852h6.951c0.469,0,0.848-0.381,0.848-0.852v-6.947
					c0-0.471-0.379-0.852-0.848-0.852H315.031z"/>
				<path fill="#5D5094" d="M316.298,289.774c0,1.134,0.933,2.065,2.074,2.065c1.14,0,2.076-0.934,2.076-2.065v-1.422h-4.15V289.774
					L316.298,289.774z"/>
				<path fill="#5D5094" d="M318.345,294.351L318.345,294.351c-0.133,0-0.247-0.109-0.247-0.246v-2.945
					c0-0.135,0.114-0.244,0.247-0.244l0,0c0.135,0,0.242,0.109,0.242,0.244v2.945C318.587,294.242,318.48,294.351,318.345,294.351z"
					/>
				<rect x="316.518" y="294.024" fill="#5D5094" width="3.71" height="0.603"/>
			</g>
			<g>
				<path fill="#5D5094" d="M333.237,296.576h-6.95c-0.926,0-1.681-0.755-1.681-1.683v-6.947c0-0.93,0.755-1.68,1.681-1.68h6.95
					c0.929,0,1.679,0.75,1.679,1.68v6.947C334.916,295.821,334.166,296.576,333.237,296.576z M326.287,287.095
					c-0.468,0-0.85,0.381-0.85,0.852v6.947c0,0.471,0.382,0.852,0.85,0.852h6.95c0.47,0,0.851-0.381,0.851-0.852v-6.947
					c0-0.471-0.381-0.852-0.851-0.852H326.287z"/>
			</g>
		</g>
		<g>
			<g>
				<path fill="#5D5094" d="M163.896,154.319l0.403,0.316l-0.378,0.725c-0.19,0.333,0.137,0.659,0.338,0.771
					c0.208,0.115,0.525,0.127,0.819,0.121l0.537-0.869l0.399,0.219l-0.7-1.294L163.896,154.319z M163.953,156.099l0.87,1.597
					c0.169,0.22,0.497,0.271,0.836,0.26h0.911v-1.507l-1.725-0.012C164.573,156.448,164.225,156.393,163.953,156.099z
					 M169.391,153.157l-0.471,0.196l-0.451-0.685c-0.202-0.325-0.643-0.197-0.843-0.071c-0.196,0.124-0.361,0.392-0.5,0.656
					l0.5,0.889l-0.383,0.244l1.47,0.014L169.391,153.157z M167.807,152.344l-1.816-0.017c-0.273,0.045-0.484,0.305-0.642,0.604
					l-0.438,0.8l1.323,0.731l0.847-1.503C167.199,152.713,167.416,152.436,167.807,152.344z M167.884,158.507l0.056-0.511
					l0.818-0.065c0.38-0.015,0.485-0.463,0.474-0.697c-0.014-0.236-0.167-0.507-0.333-0.757l-1.019,0.01l-0.029-0.459l-0.726,1.276
					L167.884,158.507z M169.36,157.512l0.898-1.577c0.095-0.265-0.033-0.569-0.22-0.855l-0.484-0.771l-1.28,0.801l0.903,1.469
					C169.332,156.798,169.475,157.126,169.36,157.512z"/>
			</g>
			<g>
				<path fill="#5D5094" d="M147.899,160.444h-6.953c-0.922,0-1.679-0.754-1.679-1.681v-6.95c0-0.926,0.756-1.679,1.679-1.679h6.953
					c0.924,0,1.68,0.753,1.68,1.679v6.95C149.579,159.69,148.823,160.444,147.899,160.444z M140.946,150.966
					c-0.47,0-0.851,0.378-0.851,0.848v6.95c0,0.469,0.381,0.85,0.851,0.85h6.953c0.467,0,0.849-0.381,0.849-0.85v-6.95
					c0-0.47-0.382-0.848-0.849-0.848H140.946z"/>
				<polygon fill="#5D5094" points="142.472,152.01 141.562,153.356 142.087,153.356 142.087,157.323 142.949,157.323 
					142.949,153.356 143.518,153.356 				"/>
				<polygon fill="#5D5094" points="145.86,152.01 144.948,153.356 145.475,153.356 145.475,157.323 146.339,157.323 
					146.339,153.356 146.904,153.356 				"/>
				<path fill="#5D5094" d="M147.25,158.611h-5.906c-0.194,0-0.353-0.158-0.353-0.349l0,0c0-0.193,0.159-0.347,0.353-0.347h5.906
					c0.192,0,0.348,0.153,0.348,0.347l0,0C147.598,158.453,147.442,158.611,147.25,158.611z"/>
			</g>
			<g>
				<path fill="#5D5094" d="M159.449,160.444h-6.954c-0.921,0-1.675-0.754-1.675-1.681v-6.95c0-0.926,0.754-1.679,1.675-1.679h6.954
					c0.924,0,1.679,0.753,1.679,1.679v6.95C161.128,159.69,160.373,160.444,159.449,160.444z M152.495,150.966
					c-0.464,0-0.848,0.378-0.848,0.848v6.95c0,0.469,0.384,0.85,0.848,0.85h6.954c0.47,0,0.85-0.381,0.85-0.85v-6.95
					c0-0.47-0.38-0.848-0.85-0.848H152.495z"/>
				<path fill="#5D5094" d="M153.768,153.642c0,1.137,0.935,2.07,2.075,2.07c1.14,0,2.074-0.934,2.074-2.07v-1.422h-4.148
					L153.768,153.642L153.768,153.642z"/>
				<path fill="#5D5094" d="M155.812,158.22L155.812,158.22c-0.133,0-0.244-0.109-0.244-0.243v-2.947
					c0-0.136,0.111-0.246,0.244-0.246l0,0c0.139,0,0.248,0.11,0.248,0.246v2.947C156.059,158.11,155.951,158.22,155.812,158.22z"/>
				<rect x="153.985" y="157.893" fill="#5D5094" width="3.711" height="0.601"/>
			</g>
			<g>
				<path fill="#5D5094" d="M170.707,160.444h-6.952c-0.926,0-1.679-0.754-1.679-1.681v-6.95c0-0.926,0.752-1.679,1.679-1.679h6.952
					c0.926,0,1.678,0.753,1.678,1.679v6.95C172.385,159.69,171.633,160.444,170.707,160.444z M163.755,150.966
					c-0.47,0-0.849,0.378-0.849,0.848v6.95c0,0.469,0.378,0.85,0.849,0.85h6.952c0.465,0,0.846-0.381,0.846-0.85v-6.95
					c0-0.47-0.381-0.848-0.846-0.848H163.755z"/>
			</g>
		</g>
	</g>
	<g>
		<path fill="#AF882E" d="M78.431,57.672l-27.875,5.854c-1.454,0.304-2.932-0.4-3.606-1.719c-0.679-1.322-0.392-2.933,0.705-3.935
			c10.64-9.728,15.189-19.425,13.916-29.645c-0.443-3.547,2.077-6.984,5.613-7.679c3.607-0.695,7.279,0.037,10.341,2.067
			c3.062,2.033,5.167,5.132,5.923,8.736l0,0l0.231,1.08c1.845,8.793,0.42,14.952-2.861,23.226
			C80.411,56.69,79.517,57.443,78.431,57.672z"/>
		<path fill="#F0B93E" d="M113.363,54.152c-1.169-5.57-6.649-9.153-12.22-7.981L49.202,57.079c-0.579,0.121-1.114,0.396-1.548,0.793
			c-3.192,2.921-6.502,5.47-9.161,7.518c-0.925,0.713-1.801,1.388-2.597,2.018c-0.976,0.774-1.431,2.034-1.174,3.259l8.666,41.254
			c0.256,1.221,1.177,2.19,2.384,2.508c14.39,3.777,25.381,2.29,38.006-0.362c1.954-0.41,3.949-0.847,6.002-1.296
			c2.271-0.501,4.616-1.021,7.082-1.537l10.188-2.14c5.566-1.17,9.147-6.646,7.978-12.217c-0.395-1.871-1.275-3.519-2.481-4.839
			c2.529-2.384,3.796-5.991,3.03-9.635c-0.393-1.872-1.271-3.523-2.481-4.838c2.532-2.385,3.799-5.992,3.035-9.637
			c-0.551-2.62-2.059-4.798-4.074-6.25C113.445,59.419,113.911,56.757,113.363,54.152z"/>
		<g>
			<path fill="#49BDA9" d="M100.759,27.451l-6.879,1.443c-1.776,0.375-3.523-0.767-3.899-2.547
				c-0.373-1.776,0.767-3.527,2.544-3.899l6.881-1.446c1.78-0.375,3.523,0.77,3.897,2.547
				C103.676,25.33,102.537,27.075,100.759,27.451z"/>
			<path fill="#49BDA9" d="M52.624,37.556l-6.877,1.445c-1.774,0.373-3.524-0.765-3.896-2.545c-0.374-1.78,0.769-3.527,2.544-3.901
				l6.879-1.445c1.78-0.373,3.526,0.769,3.897,2.547C55.544,35.438,54.406,37.184,52.624,37.556z"/>
			<path fill="#49BDA9" d="M59.19,17.526c-1.113,0.234-2.317-0.116-3.132-1.023l-4.686-5.236c-1.214-1.351-1.101-3.435,0.252-4.648
				c1.354-1.212,3.437-1.1,4.65,0.255l4.688,5.233c1.216,1.353,1.099,3.438-0.256,4.65C60.264,17.155,59.74,17.41,59.19,17.526z"/>
			<path fill="#49BDA9" d="M79.814,13.194c-0.547,0.113-1.135,0.093-1.702-0.092c-1.725-0.567-2.671-2.428-2.103-4.155l2.187-6.677
				c0.567-1.73,2.429-2.672,4.154-2.106c1.729,0.566,2.676,2.429,2.108,4.155L82.267,11C81.891,12.155,80.925,12.961,79.814,13.194z
				"/>
		</g>
		<path id="SVGCleanerId_0_2_" fill="#80BDE7" d="M34.601,106.63l3.562,16.974l-6.443,1.352l-3.564-16.973
			c-0.373-1.777,0.764-3.529,2.545-3.901C32.479,103.708,34.227,104.852,34.601,106.63z"/>
		<g>
			<path fill="#00ACBB" d="M100.759,27.451l-6.879,1.443c-1.776,0.375-3.523-0.767-3.899-2.547
				c-0.373-1.776,0.767-3.527,2.544-3.899l6.881-1.446c1.78-0.375,3.523,0.77,3.897,2.547
				C103.676,25.33,102.537,27.075,100.759,27.451z"/>
			<path fill="#00ACBB" d="M52.624,37.556l-6.877,1.445c-1.774,0.373-3.524-0.765-3.896-2.545c-0.374-1.78,0.769-3.527,2.544-3.901
				l6.879-1.445c1.78-0.373,3.526,0.769,3.897,2.547C55.544,35.438,54.406,37.184,52.624,37.556z"/>
			<path fill="#00ACBB" d="M59.19,17.526c-1.113,0.234-2.317-0.116-3.132-1.023l-4.686-5.236c-1.214-1.351-1.101-3.435,0.252-4.648
				c1.354-1.212,3.437-1.1,4.65,0.255l4.688,5.233c1.216,1.353,1.099,3.438-0.256,4.65C60.264,17.155,59.74,17.41,59.19,17.526z"/>
			<path fill="#00ACBB" d="M79.814,13.194c-0.547,0.113-1.135,0.093-1.702-0.092c-1.725-0.567-2.671-2.428-2.103-4.155l2.187-6.677
				c0.567-1.73,2.429-2.672,4.154-2.106c1.729,0.566,2.676,2.429,2.108,4.155L82.267,11C81.891,12.155,80.925,12.961,79.814,13.194z
				"/>
		</g>
		<g>
			<path id="SVGCleanerId_0_1_" fill="#80BDE7" d="M34.601,106.63l3.562,16.974l-6.443,1.352l-3.564-16.973
				c-0.373-1.777,0.764-3.529,2.545-3.901C32.479,103.708,34.227,104.852,34.601,106.63z"/>
		</g>
		<path fill="#00ACBB" d="M35.78,59.897L8.277,65.671c-1.777,0.374-2.92,2.123-2.549,3.902l11.553,55.007
			c0.375,1.781,2.123,2.918,3.908,2.587l20.628-4.332c3.941-0.871,6.892-3.869,7.854-7.529c0.395-1.502,0.456-3.111,0.114-4.729
			L39.679,62.444C39.305,60.665,37.558,59.522,35.78,59.897z"/>
		<path fill="#80BDE7" d="M34.553,106.413l3.61,17.19l-6.443,1.352l-3.611-17.187c-0.373-1.781,0.766-3.525,2.547-3.9
			C32.435,103.495,34.179,104.632,34.553,106.413z"/>
	</g>
	<g>
		<g>
			<g>
				<defs>
					
						<rect id="SVGID_1_" x="289.905" y="91.442" transform="matrix(-0.9783 -0.2073 0.2073 -0.9783 689.5122 300.9909)" width="141.242" height="45.856"/>
				</defs>
				<clipPath id="SVGID_2_">
					<use xlink:href="#SVGID_1_"  overflow="visible"/>
				</clipPath>
				<path clip-path="url(#SVGID_2_)" fill="#FFFFFF" d="M411.674,124.602c1.503-7.126,17.225-19.139,20.106-18.527
					c2.657,0.566,0.98,7.426-0.521,14.557c-1.503,7.128-4.984,12.669-7.817,11.835C420.782,131.899,410.123,131.954,411.674,124.602
					L411.674,124.602z"/>
			</g>
			<g>
				<defs>
					
						<rect id="SVGID_3_" x="289.905" y="91.442" transform="matrix(-0.9783 -0.2073 0.2073 -0.9783 689.5122 300.9909)" width="141.242" height="45.856"/>
				</defs>
				<clipPath id="SVGID_4_">
					<use xlink:href="#SVGID_3_"  overflow="visible"/>
				</clipPath>
				<path clip-path="url(#SVGID_4_)" fill="#D2CEE1" d="M411.675,124.602c1.512-7.126,16.426-14.905,19.275-14.07
					c2.678,0.564,1.934,2.969,0.424,10.1c-1.514,7.128-5.014,12.669-7.863,11.835C420.835,131.899,410.115,131.954,411.675,124.602
					L411.675,124.602z"/>
			</g>
			<g>
				<defs>
					
						<rect id="SVGID_5_" x="289.905" y="91.442" transform="matrix(-0.9783 -0.2073 0.2073 -0.9783 689.5122 300.9909)" width="141.242" height="45.856"/>
				</defs>
				<clipPath id="SVGID_6_">
					<use xlink:href="#SVGID_5_"  overflow="visible"/>
				</clipPath>
				<path clip-path="url(#SVGID_6_)" fill="#5D5094" d="M411.677,124.602c1.533-7.126,8.254-8.745,11.139-7.913
					c2.706,0.566,10.356-3.189,8.827,3.942c-1.535,7.128-5.082,12.669-7.97,11.835C420.961,131.899,410.096,131.954,411.677,124.602
					L411.677,124.602z"/>
			</g>
			<g>
				<defs>
					
						<rect id="SVGID_7_" x="289.905" y="91.442" transform="matrix(-0.9783 -0.2073 0.2073 -0.9783 689.5122 300.9909)" width="141.242" height="45.856"/>
				</defs>
				<clipPath id="SVGID_8_">
					<use xlink:href="#SVGID_7_"  overflow="visible"/>
				</clipPath>
				<path clip-path="url(#SVGID_8_)" fill="#FFFFFF" d="M290.708,103.39c-0.807,3.787,1.162,7.695,4.617,10.059
					c3.762,3.125,14.158,7.887,40.075,18.501c9.201,3.813,91.581,9.4,93.61-0.179c2.033-9.578-101.908-39.755-111.487-41.785
					c-6.683-1.417-13.278,1.141-17.308,5.878C295.434,96.476,291.557,99.379,290.708,103.39L290.708,103.39z"/>
			</g>
			<g>
				<defs>
					
						<rect id="SVGID_9_" x="289.905" y="91.442" transform="matrix(-0.9783 -0.2073 0.2073 -0.9783 689.5122 300.9909)" width="141.242" height="45.856"/>
				</defs>
				<clipPath id="SVGID_10_">
					<use xlink:href="#SVGID_9_"  overflow="visible"/>
				</clipPath>
				<path clip-path="url(#SVGID_10_)" fill="#DAD6E6" d="M290.813,103.39c-0.807,3.787,1.16,7.695,4.611,10.059
					c3.757,3.125,14.141,7.887,40.026,18.501c9.19,3.813,91.472,9.4,93.498-0.179c2.03-9.578-83.888-28.742-93.457-30.774
					c-6.677-1.416-31.158-9.87-35.184-5.133C295.533,96.476,291.66,99.379,290.813,103.39L290.813,103.39z"/>
			</g>
			<g>
				<defs>
					
						<rect id="SVGID_11_" x="289.905" y="91.442" transform="matrix(-0.9783 -0.2073 0.2073 -0.9783 689.5122 300.9909)" width="141.242" height="45.856"/>
				</defs>
				<clipPath id="SVGID_12_">
					<use xlink:href="#SVGID_11_"  overflow="visible"/>
				</clipPath>
				<path clip-path="url(#SVGID_12_)" fill="#4C437A" d="M429.011,132.604c-2.031,9.86-84.41,4.11-93.611,0.185
					c-25.917-10.926-36.312-15.827-40.074-19.044c-3.63-2.711-5.377-6.686-4.619-10.354"/>
			</g>
		</g>
		<path fill="#352E55" d="M333.932,132.172c-25.176-10.557-35.274-15.401-38.929-18.508c-3.525-2.62-5.032-6.729-4.297-10.273"/>
		<path fill="#FFFFFF" d="M391.373,127.054l-37.317-1.857c0,0-4.207-3.224-7.382-6.92c-3.172-3.696,3.617-3.888,3.617-3.888
			l40.773,8.637L391.373,127.054z"/>
		<path fill="#99A9A7" d="M391.416,126.828l-37.315-1.854c0,0-4.199-3.221-7.375-6.918c-3.177-3.701,21.397,3.369,21.397,3.369
			l22.941,1.601L391.416,126.828z"/>
		<path fill="#00ACBB" d="M409.576,124.624c0.131-0.613,0.736-1.004,1.346-0.873c0.621,0.126,1.015,0.732,0.884,1.348
			c-0.13,0.609-0.733,1.011-1.354,0.874C409.837,125.842,409.447,125.238,409.576,124.624L409.576,124.624z"/>
		<path fill="#00ACBB" d="M404.675,123.588c0.133-0.614,0.734-1.012,1.352-0.881c0.613,0.134,1.006,0.734,0.877,1.352
			c-0.128,0.616-0.732,1.009-1.348,0.878S404.546,124.199,404.675,123.588L404.675,123.588z"/>
		<path fill="#00ACBB" d="M399.779,122.547c0.127-0.615,0.729-1.007,1.348-0.879c0.609,0.134,1.006,0.736,0.875,1.354
			c-0.129,0.611-0.729,1.008-1.351,0.874C400.035,123.765,399.646,123.163,399.779,122.547L399.779,122.547z"/>
		<path fill="#00ACBB" d="M394.875,121.507c0.127-0.611,0.73-1.006,1.349-0.876c0.614,0.132,1.012,0.735,0.88,1.349
			s-0.73,1.007-1.35,0.879C395.132,122.725,394.746,122.124,394.875,121.507L394.875,121.507z"/>
		<path fill="#00ACBB" d="M389.972,120.471c0.131-0.615,0.736-1.01,1.35-0.878c0.617,0.131,1.01,0.734,0.877,1.352
			c-0.128,0.61-0.73,1.002-1.35,0.873C390.237,121.689,389.843,121.088,389.972,120.471L389.972,120.471z"/>
		<path fill="#00ACBB" d="M385.074,119.431c0.129-0.617,0.732-1.008,1.348-0.879c0.615,0.131,1.01,0.739,0.879,1.352
			c-0.129,0.615-0.732,1.007-1.35,0.878C385.335,120.65,384.945,120.047,385.074,119.431L385.074,119.431z"/>
		<path fill="#00ACBB" d="M380.169,118.392c0.133-0.614,0.738-1.008,1.351-0.875c0.617,0.133,1.013,0.736,0.881,1.349
			c-0.132,0.615-0.737,1.01-1.351,0.875C380.433,119.612,380.042,119.005,380.169,118.392L380.169,118.392z"/>
		<path fill="#00ACBB" d="M375.271,117.357c0.13-0.615,0.73-1.01,1.35-0.881c0.614,0.13,1.012,0.733,0.875,1.35
			c-0.127,0.615-0.731,1.009-1.346,0.876C375.529,118.575,375.14,117.966,375.271,117.357L375.271,117.357z"/>
		<path fill="#00ACBB" d="M370.373,116.315c0.127-0.615,0.732-1.006,1.346-0.878c0.617,0.129,1.009,0.736,0.88,1.347
			c-0.13,0.616-0.734,1.012-1.353,0.883C370.637,117.533,370.242,116.926,370.373,116.315L370.373,116.315z"/>
		<path fill="#00ACBB" d="M365.47,115.277c0.127-0.613,0.73-1.006,1.346-0.876c0.615,0.128,1.012,0.732,0.881,1.348
			c-0.129,0.616-0.736,1.008-1.35,0.875C365.732,116.495,365.335,115.891,365.47,115.277L365.47,115.277z"/>
		<path fill="#00ACBB" d="M355,113.056c0.131-0.614,0.735-1.006,1.353-0.877c0.614,0.132,1.009,0.736,0.875,1.354
			c-0.134,0.612-0.733,1.005-1.351,0.875C355.262,114.277,354.871,113.672,355,113.056L355,113.056z"/>
		<path fill="#00ACBB" d="M350.095,112.015c0.133-0.609,0.74-1.003,1.355-0.869c0.609,0.126,1.006,0.729,0.875,1.346
			c-0.131,0.616-0.736,1.007-1.353,0.881C350.361,113.239,349.966,112.632,350.095,112.015L350.095,112.015z"/>
		<path fill="#00ACBB" d="M345.421,111.026c0.127-0.615,0.732-1.008,1.346-0.875c0.619,0.129,1.01,0.735,0.881,1.349
			c-0.13,0.614-0.732,1.005-1.35,0.876C345.683,112.246,345.287,111.643,345.421,111.026L345.421,111.026z"/>
		<path fill="#00ACBB" d="M340.519,109.986c0.129-0.611,0.732-1.005,1.348-0.876c0.615,0.133,1.01,0.734,0.883,1.35
			c-0.133,0.615-0.74,1.01-1.354,0.879C340.787,111.209,340.39,110.603,340.519,109.986L340.519,109.986z"/>
		<path fill="#00ACBB" d="M335.619,108.951c0.127-0.615,0.733-1.006,1.348-0.877c0.615,0.131,1.007,0.734,0.879,1.349
			c-0.131,0.614-0.73,1.008-1.344,0.88C335.878,110.169,335.49,109.563,335.619,108.951L335.619,108.951z"/>
		<path fill="#00ACBB" d="M330.718,107.911c0.129-0.616,0.732-1.006,1.349-0.879c0.614,0.132,1.007,0.736,0.878,1.354
			c-0.133,0.609-0.736,1.005-1.352,0.878C330.977,109.13,330.585,108.526,330.718,107.911L330.718,107.911z"/>
		<path fill="#00ACBB" d="M325.814,106.875c0.126-0.616,0.736-1.011,1.354-0.88c0.615,0.129,1.008,0.735,0.879,1.35
			c-0.133,0.615-0.735,1.01-1.354,0.879C326.08,108.094,325.687,107.486,325.814,106.875L325.814,106.875z"/>
		<path fill="#00ACBB" d="M320.914,105.835c0.133-0.614,0.735-1.007,1.353-0.878c0.614,0.134,1.006,0.733,0.879,1.351
			c-0.133,0.611-0.735,1.003-1.351,0.877C321.18,107.054,320.791,106.447,320.914,105.835L320.914,105.835z"/>
		<path fill="#00ACBB" d="M316.016,104.792c0.129-0.608,0.733-1.004,1.347-0.875c0.613,0.131,1.014,0.735,0.877,1.352
			c-0.128,0.613-0.732,1.007-1.349,0.878C316.278,106.014,315.884,105.409,316.016,104.792L316.016,104.792z"/>
		<path fill="#00ACBB" d="M311.115,103.758c0.129-0.615,0.734-1.011,1.352-0.879c0.609,0.13,1.005,0.736,0.875,1.351
			c-0.133,0.613-0.739,1.004-1.35,0.875C311.375,104.978,310.985,104.371,311.115,103.758L311.115,103.758z"/>
		<path fill="#C7D2D1" d="M365.507,119.478c0.191-0.892,1.27-1.593,2.162-1.409l24.502,5.195c1.117,0.237,1.598,1.271,1.41,2.158
			c-0.238,1.12-1.271,1.6-2.166,1.406l-24.5-5.191C365.8,121.4,365.32,120.367,365.507,119.478L365.507,119.478z"/>
		<path fill="#FFFFFF" d="M393.582,125.422c0.188-0.887-0.293-1.921-1.41-2.158l-24.502-5.195c-0.893-0.184-1.926,0.294-2.162,1.409
			"/>
		<path fill="#00ACBB" d="M300.216,95.863c-0.223-0.047-0.266,0.174-0.223-0.047l6.463,1.367c0.664,0.14,1.474-0.385,1.617-1.055
			c0.143-0.666-0.388-1.479-1.057-1.62l-4.451-0.94C301.707,94.313,300.85,95.062,300.216,95.863L300.216,95.863z"/>
		<path fill="#5D5094" d="M349.99,121.309c0.662-3.123,2.051-3.06,5.168-2.398s19.33,4.33,18.67,7.448
			c-0.662,3.119-17.445,2.123-20.559,1.465C350.15,127.163,349.333,124.425,349.99,121.309L349.99,121.309z"/>
		<path fill="#C7D2D1" d="M349.99,121.309c-0.656,3.116,0.16,5.854,3.279,6.516c3.113,0.657,19.896,1.654,20.559-1.465"/>
		<path fill="#99A9A7" d="M350.658,121.45c0.26-1.235,0.771-2.165,1.143-2.086c0.367,0.076,0.461,1.137,0.195,2.369
			c-0.259,1.23-0.771,2.162-1.141,2.086C350.49,123.741,350.4,122.681,350.658,121.45L350.658,121.45z"/>
		<path fill="#80918F" d="M350.855,123.819c0.225,0.046,0.859-0.751,1.141-2.086l0.047-0.223l-1.334-0.287l-0.051,0.226
			C350.376,122.785,350.632,123.769,350.855,123.819L350.855,123.819z"/>
		<path fill="#5D5094" d="M361.401,123.493c0.655-3.123,2.042-3.059,5.16-2.397c3.124,0.661,19.334,4.331,18.673,7.443
			c-0.656,3.123-17.439,2.128-20.557,1.465C361.555,129.344,360.736,126.611,361.401,123.493L361.401,123.493z"/>
		<path fill="#D8DEDE" d="M361.401,123.493c-0.665,3.118,0.154,5.851,3.276,6.511c3.117,0.663,19.9,1.658,20.557-1.465"/>
		<path fill="#99A9A7" d="M362.068,123.632c0.262-1.229,0.771-2.163,1.137-2.083c0.371,0.076,0.461,1.139,0.201,2.366
			c-0.262,1.233-0.771,2.168-1.145,2.088C361.896,125.926,361.806,124.864,362.068,123.632L362.068,123.632z"/>
		<path fill="#80918F" d="M362.261,126.004c0.447,0.091,0.861-0.75,0.922-2.127l0.047-0.233l-1.113-0.233l-0.049,0.222
			C361.789,124.968,362.041,125.955,362.261,126.004L362.261,126.004z"/>
	</g>
</g>
</svg>
