<?xml version="1.0" encoding="utf-8"?>
<!-- Generator: Adobe Illustrator 21.1.0, SVG Export Plug-In . SVG Version: 6.00 Build 0)  -->
<svg version="1.1" id="Layer_1" xmlns="http://www.w3.org/2000/svg" xmlns:xlink="http://www.w3.org/1999/xlink" x="0px" y="0px"
	 viewBox="0 0 24 21.7" style="enable-background:new 0 0 24 21.7;" xml:space="preserve">
<style type="text/css">
	.st0{fill:#2E9AD0;}
</style>
<g id="Lines">
	<path class="st0" d="M14.5,21H8l-5.3-3.9l-2-6.3l2-6.3l5.3-3.9h6.6l5.3,3.9l2,6.3l-2,6.3l-0.1,0.1L14.5,21L14.5,21z M8.1,20.5h6.3
		l5.1-3.7l2-6l-2-6l-5.1-3.7H8.1L3,4.8l-2,6l2,6L8.1,20.5L8.1,20.5z"/>
	<path class="st0" d="M22.7,20l-3.1-2.8l-3-1.1l-5.3,0.7L5.9,16l-3,1.1l-0.1-0.4l3.1-1.2h0.1l5.4,0.8l5.4-0.8l0.1,0.1l3.2,1.2
		l3.1,2.8L22.7,20z"/>
	<path class="st0" d="M14.4,21.2l-3.2-4.4L8,21.2l-2.4-5.3L6,15.7l2.1,4.7l3.2-4.3l3.1,4.3l2.1-4.7l2.8-5.7l0.7,7h-0.4L19,11.6
		l-2.1,4.3L14.4,21.2z"/>
	<path class="st0" d="M0.9,10.6h20.8V11H0.9V10.6z"/>
	<path class="st0" d="M19.3,11.6l-2.6-5.2l-2.3,4.9l-3.2-5.6L8,11.3L5.8,6.4l-2.6,5.2L2.5,4.7L3,4.7L3.5,10l2.3-4.6L8,10.4l3.2-5.6
		l3.1,5.6l2.3-4.9L19,10l0.4-5.3h0.5L19.3,11.6z"/>
	<path class="st0" d="M16.4,6.1l-2.1-4.7l-3.1,4.4L8.1,1.3L6,6.1L5.6,5.9L8,0.4l3.3,4.4l3.2-4.4l2.5,5.4L16.4,6.1z M19.5,16.9
		L19,11.6l-2.3,4.7l-2.3-5l-3.1,5.6L8,11.3l-2.3,5l-2.3-4.7L3,16.9H2.5l0.6-7l2.6,5.2L8,10.4l3.2,5.6l3.2-5.6l2.3,4.9l2.6-5.3l0.7,7
		H19.5z"/>
	<path class="st0" d="M16.7,6.2l-5.5-0.8L5.8,6.2L2.7,4.9l0.1-0.4l3,1.3L11.2,5l5.5,0.7l2.9-1.3l0.2,0.4L16.7,6.2z"/>
</g>
<g id="Circles">
	<circle class="st0" cx="8" cy="20.8" r="0.9"/>
	<circle class="st0" cx="14.3" cy="20.8" r="0.9"/>
	<circle class="st0" cx="8" cy="0.9" r="0.9"/>
	<circle class="st0" cx="14.3" cy="0.9" r="0.9"/>
	<circle class="st0" cx="19.6" cy="4.7" r="0.9"/>
	<circle class="st0" cx="2.8" cy="4.7" r="0.9"/>
	<circle class="st0" cx="2.8" cy="17" r="0.9"/>
	<circle class="st0" cx="0.9" cy="10.8" r="0.9"/>
	<circle class="st0" cx="21.7" cy="10.8" r="0.9"/>
	<circle class="st0" cx="19.1" cy="10.8" r="0.9"/>
	<circle class="st0" cx="3.3" cy="10.8" r="0.9"/>
	<circle class="st0" cx="8" cy="10.8" r="0.9"/>
	<circle class="st0" cx="14.3" cy="10.8" r="0.9"/>
	<ellipse transform="matrix(0.1602 -0.9871 0.9871 0.1602 4.2648 15.5136)" class="st0" cx="11.2" cy="5.3" rx="0.9" ry="0.9"/>
	<circle class="st0" cx="5.8" cy="6" r="0.9"/>
	<circle class="st0" cx="16.7" cy="6" r="0.9"/>
	<circle class="st0" cx="11.2" cy="16.5" r="0.9"/>
	<circle class="st0" cx="5.8" cy="15.7" r="0.9"/>
	<circle class="st0" cx="16.7" cy="15.7" r="0.9"/>
	<circle class="st0" cx="22.8" cy="19.8" r="1.2"/>
</g>
</svg>
