<?xml version="1.0" encoding="utf-8"?>
<!-- Generator: Adobe Illustrator 21.1.0, SVG Export Plug-In . SVG Version: 6.00 Build 0)  -->
<svg version="1.1" id="Layer_1" xmlns="http://www.w3.org/2000/svg" xmlns:xlink="http://www.w3.org/1999/xlink" x="0px" y="0px"
	 viewBox="0 0 21.4 24.1" style="enable-background:new 0 0 21.4 24.1;" xml:space="preserve">
<style type="text/css">
	.st0{fill:#DEAE76;}
	.st1{fill:#FFFFFF;}
</style>
<g>
	<path class="st0" d="M11.6,0.3l8.8,5.1C21,5.7,21.3,6.3,21.3,7v10.1c0,0.7-0.3,1.3-0.9,1.6l-8.8,5.1c-0.6,0.3-1.3,0.3-1.9,0L1,18.7
		c-0.6-0.3-0.9-0.9-0.9-1.6V7c0-0.7,0.3-1.3,0.9-1.6l8.8-5.1C10.4,0,11,0,11.6,0.3L11.6,0.3z"/>
</g>
<path class="st1" d="M8.8,9.4L5.3,13V5.3H3v13.6h2.3v-2.9l1.5-1.5L9,18.8h2.7l-3.3-6.1l3.3-3.4L8.8,9.4L8.8,9.4z M17.7,9.3
	c-1,0-2,0.5-2.3,1.4l-0.2-1.3h-2v9.4h2.3v-4.8c0-1.8,0.8-2.7,2.4-2.7c0.3,0,0.5,0,0.6,0.1v-2C18.2,9.3,17.9,9.3,17.7,9.3z"/>
</svg>
