<?xml version="1.0" encoding="utf-8"?>
<!-- Generator: Adobe Illustrator 21.1.0, SVG Export Plug-In . SVG Version: 6.00 Build 0)  -->
<svg version="1.1" id="Layer_1" xmlns="http://www.w3.org/2000/svg" xmlns:xlink="http://www.w3.org/1999/xlink" x="0px" y="0px"
	 viewBox="0 0 12.254 24" style="enable-background:new 0 0 12.254 24;" xml:space="preserve">
<style type="text/css">
	.st0{fill:#152743;}
</style>
<path class="st0" d="M4.812,0.072C3.798,0.285,3.081,1.704,3.397,2.873c0.695,2.568,4.447,2.031,4.456-0.638
	C7.858,0.69,6.495-0.28,4.812,0.072z M4.062,14.96V24h2.999v-5.279l1.301-0.028c1.874-0.041,2.848-0.587,3.564-1.997l0.294-0.579
	l0.025-3.677c0.028-4.16,0.034-4.117-0.697-5.088C10.632,6.136,9.883,5.92,6.556,5.92H4.063v9.04L4.062,14.96z M1.637,6.308
	C1.087,6.569,0.52,7.152,0.254,7.729L0.05,8.17L0,18.71h3.006V6.099L2.542,6.1c-0.303,0.001-0.615,0.073-0.904,0.21L1.637,6.308z
	 M8.941,9.022c0.405,0.216,0.407,0.231,0.41,3.319l0.003,2.936l-0.217,0.217C8.935,15.696,8.86,15.71,7.991,15.71h-0.93V8.92h0.844
	C8.377,8.92,8.832,8.965,8.941,9.022z"/>
</svg>
