<?xml version="1.0" encoding="utf-8"?>
<!-- Generator: Adobe Illustrator 21.1.0, SVG Export Plug-In . SVG Version: 6.00 Build 0)  -->
<svg version="1.1" id="Layer_1" xmlns="http://www.w3.org/2000/svg" xmlns:xlink="http://www.w3.org/1999/xlink" x="0px" y="0px"
	 viewBox="0 0 9.768 24" style="enable-background:new 0 0 9.768 24;" xml:space="preserve">
<style type="text/css">
	.st0{fill:#152743;}
</style>
<g>
	<path class="st0" d="M4.938,3.584c-1.44,0-2.607-0.802-2.607-1.792S3.498,0,4.938,0s2.606,0.802,2.606,1.792
		S6.377,3.584,4.938,3.584z M3.589,23.589V4.446H9.4c0.216,0,0.368,0.161,0.368,0.376v10.621c0,0.214-0.153,0.398-0.368,0.398H6.197
		v7.746c0,0.216-0.164,0.411-0.38,0.411H3.992c-0.222-0.009-0.399-0.188-0.404-0.41V23.589z M2.608,15.841H0.409
		C0.188,15.839,0.008,15.664,0,15.443V4.823c0-0.216,0.194-0.376,0.408-0.376h2.2v11.396V15.841z"/>
</g>
</svg>
