<svg fill="#ffae00" stroke="#ffae00" height="512" viewBox="0 0 64 64" width="512" xmlns="http://www.w3.org/2000/svg"><path d="M45.949 33h6.152A5.009 5.009 0 0057 37c2.757 0 5-2.243 5-5s-2.243-5-5-5a5.01 5.01 0 00-4.899 4h-6.152a13.892 13.892 0 00-1.371-5.107l5.33-3.077a4.974 4.974 0 002.448 1.514 4.98 4.98 0 003.794-.499c1.156-.668 1.984-1.746 2.33-3.036s.168-2.638-.5-3.794-1.746-1.983-3.036-2.329a4.955 4.955 0 00-3.794.499 4.97 4.97 0 00-2.329 3.036 4.96 4.96 0 00.087 2.877l-5.319 3.071a14.118 14.118 0 00-3.743-3.743l3.076-5.328a4.928 4.928 0 001.571.268c.434 0 .871-.057 1.302-.173 1.29-.346 2.368-1.173 3.036-2.329s.845-2.504.499-3.794S48.156 6.688 47 6.02a4.955 4.955 0 00-3.794-.5c-1.29.346-2.368 1.174-3.036 2.33s-.845 2.504-.499 3.794a4.967 4.967 0 001.514 2.448l-3.077 5.33a13.892 13.892 0 00-5.107-1.371v-6.152a5.009 5.009 0 004-4.899c0-2.757-2.243-5-5-5s-5 2.243-5 5a5.01 5.01 0 004 4.899v6.152c-1.821.13-3.543.609-5.107 1.371l-3.077-5.33a4.974 4.974 0 001.514-2.448c.346-1.29.169-2.638-.499-3.794s-1.746-1.984-3.036-2.33a4.957 4.957 0 00-3.796.5c-1.156.668-1.983 1.746-2.329 3.036s-.169 2.638.499 3.794 1.746 1.983 3.036 2.329c.431.116.868.173 1.302.173.534 0 1.062-.097 1.571-.268l3.076 5.328a14.118 14.118 0 00-3.743 3.743l-5.319-3.071c.31-.922.344-1.916.087-2.877a4.97 4.97 0 00-2.329-3.036 4.954 4.954 0 00-3.794-.499C7.766 15.017 6.688 15.844 6.02 17s-.846 2.504-.5 3.794 1.174 2.368 2.33 3.036a4.982 4.982 0 003.794.499 4.967 4.967 0 002.448-1.514l5.33 3.077a13.892 13.892 0 00-1.371 5.107h-6.152A5.01 5.01 0 007 27c-2.757 0-5 2.243-5 5s2.243 5 5 5a5.01 5.01 0 004.899-4h6.152c.13 1.821.609 3.543 1.371 5.107l-5.33 3.077a4.974 4.974 0 00-2.448-1.514 4.964 4.964 0 00-3.794.499c-1.156.668-1.984 1.746-2.33 3.036s-.168 2.639.5 3.795 1.746 1.983 3.036 2.329a4.98 4.98 0 003.794-.499 4.97 4.97 0 002.329-3.036 4.96 4.96 0 00-.087-2.877l5.319-3.071c1 1.472 2.272 2.744 3.743 3.743l-3.071 5.319a4.952 4.952 0 00-2.877-.087c-1.29.346-2.368 1.173-3.036 2.329s-.845 2.504-.499 3.794S15.844 57.312 17 57.98a4.97 4.97 0 003.794.5c1.29-.346 2.368-1.174 3.036-2.33s.845-2.504.499-3.794a4.967 4.967 0 00-1.514-2.448l3.077-5.33a13.892 13.892 0 005.107 1.371v6.152a5.009 5.009 0 00-4 4.899c0 2.757 2.243 5 5 5s5-2.243 5-5a5.01 5.01 0 00-4-4.899v-6.152a13.892 13.892 0 005.107-1.371l3.077 5.33a4.974 4.974 0 00-1.514 2.448c-.346 1.29-.169 2.638.499 3.794s1.746 1.984 3.036 2.33a4.966 4.966 0 003.794-.5c1.156-.668 1.983-1.746 2.329-3.036s.169-2.638-.499-3.794-1.746-1.983-3.036-2.329a4.943 4.943 0 00-2.877.086l-3.071-5.319c1.472-1 2.744-2.272 3.743-3.743l5.319 3.071a4.969 4.969 0 00-.087 2.877 4.97 4.97 0 002.329 3.036 4.982 4.982 0 003.794.499c1.29-.346 2.368-1.173 3.036-2.329s.846-2.504.5-3.794-1.174-2.368-2.33-3.036a4.963 4.963 0 00-3.794-.499 4.967 4.967 0 00-2.448 1.514l-5.33-3.077A13.816 13.816 0 0045.949 33zM57 29c1.654 0 3 1.346 3 3s-1.346 3-3 3-3-1.346-3-3 1.346-3 3-3zm-4.85-12.098a3.003 3.003 0 014.399 3.374 3.002 3.002 0 01-5.496.723 3.002 3.002 0 011.097-4.097zM41.902 8.85a2.982 2.982 0 011.821-1.398 2.98 2.98 0 012.276.3 3.003 3.003 0 011.098 4.098 3.001 3.001 0 01-4.098 1.098 3.004 3.004 0 01-1.097-4.098zm-25 3a3.003 3.003 0 012.593-4.502c.261 0 .522.035.781.104a2.982 2.982 0 011.821 1.398 3.003 3.003 0 01-1.098 4.098 3.002 3.002 0 01-4.097-1.098zM8.85 22.098a2.982 2.982 0 01-1.398-1.821 3.002 3.002 0 014.398-3.375c1.433.827 1.925 2.665 1.098 4.098s-2.667 1.926-4.098 1.098zM7 35c-1.654 0-3-1.346-3-3s1.346-3 3-3 3 1.346 3 3-1.346 3-3 3zm4.85 12.098a3.002 3.002 0 01-4.399-3.374 2.982 2.982 0 011.398-1.821 3.003 3.003 0 014.098 1.098 3.003 3.003 0 01-1.097 4.097zm10.248 8.052a2.982 2.982 0 01-1.821 1.398 3.003 3.003 0 01-3.374-4.399 3.002 3.002 0 014.098-1.098 3.005 3.005 0 011.097 4.099zm25-3a3.003 3.003 0 01-3.374 4.399 2.982 2.982 0 01-1.821-1.398 3.003 3.003 0 011.098-4.098 3 3 0 014.097 1.097zm6.557-10.649a2.98 2.98 0 011.495.401c.694.4 1.19 1.048 1.398 1.821a3.002 3.002 0 01-4.399 3.374 3.003 3.003 0 01-1.098-4.098 3.007 3.007 0 012.604-1.498zM29 7c0-1.654 1.346-3 3-3s3 1.346 3 3-1.346 3-3 3-3-1.346-3-3zm3 13c6.617 0 12 5.383 12 12a11.93 11.93 0 01-2.523 7.335 6.96 6.96 0 00-5.134-4.206A5.975 5.975 0 0038 31v-2c0-3.309-2.691-6-6-6h-5a1 1 0 00-1 1v7c0 1.6.633 3.052 1.657 4.128a6.966 6.966 0 00-5.134 4.206A11.926 11.926 0 0120 32c0-6.617 5.383-12 12-12zm1.234 17L32 39.057 30.766 37zM28 29h5.586l2.376 2.376C35.769 33.404 34.077 35 32 35c-2.206 0-4-1.794-4-4zm0-2v-2h4c2.048 0 3.722 1.552 3.953 3.539l-1.246-1.246A.996.996 0 0034 27zm.464 10.05l2.679 4.465a1 1 0 001.714 0l2.679-4.465a4.944 4.944 0 014.346 3.976C37.772 42.872 35.018 44 32 44s-5.772-1.128-7.883-2.974a4.946 4.946 0 014.347-3.976zM35 57c0 1.654-1.346 3-3 3s-3-1.346-3-3 1.346-3 3-3 3 1.346 3 3z"/></svg>