<svg fill="#ff2c2c" stroke="#ff2c2c" height="512" viewBox="0 0 64 64" width="512" xmlns="http://www.w3.org/2000/svg"><path d="M57 2H7C4.243 2 2 4.243 2 7v36c0 2.757 2.243 5 5 5h17.656l-2.4 8H18a1 1 0 00-1 1c0 2.757 2.243 5 5 5h20c2.757 0 5-2.243 5-5a1 1 0 00-1-1h-4.256l-2.4-8H57c2.757 0 5-2.243 5-5V7c0-2.757-2.243-5-5-5zM7 4h50c1.654 0 3 1.346 3 3v31H4V26h15v1c0 1.654 1.346 3 3 3h19.08c.488 3.387 3.401 6 6.92 6 3.859 0 7-3.14 7-7 0-3.519-2.614-6.432-6-6.92V13c0-1.654-1.346-3-3-3H28.236l-7.789-3.895a.998.998 0 00-.722-.067L12.86 8H4V7c0-1.654 1.346-3 3-3zm34.08 24H22c-.552 0-1-.449-1-1v-1h3.5c1.93 0 3.5-1.57 3.5-3.5 0-.539-.133-1.044-.351-1.5H47v1.08A7.005 7.005 0 0041.08 28zM21 17h26v2H21zm27 7c2.757 0 5 2.243 5 5s-2.243 5-5 5-5-2.243-5-5 2.243-5 5-5zm-1-9H21v-2c0-.551.448-1 1-1h24c.552 0 1 .449 1 1zm-25-5c-1.654 0-3 1.346-3 3v6h-2v2h7.5c.827 0 1.5.673 1.5 1.5s-.673 1.5-1.5 1.5H4V10h9a.97.97 0 00.274-.039L19.9 8.068 23.764 10zm20 50H22a3.006 3.006 0 01-2.829-2h25.658A3.006 3.006 0 0142 60zm-2.344-4H24.344l2.4-8h10.512zM57 46H7c-1.654 0-3-1.346-3-3v-3h56v3c0 1.654-1.346 3-3 3z"/><path d="M47 32a.997.997 0 00.707-.293l4-4-1.414-1.414L47 29.586l-1.293-1.293-1.414 1.414 2 2A.997.997 0 0047 32zm-18-9h2v2h-2zm4 0h2v2h-2zm4 0h2v2h-2z"/></svg>