<?xml version="1.0" encoding="utf-8"?>
<!-- Generator: Adobe Illustrator 21.1.0, SVG Export Plug-In . SVG Version: 6.00 Build 0)  -->
<svg version="1.1" id="Layer_1" xmlns="http://www.w3.org/2000/svg" xmlns:xlink="http://www.w3.org/1999/xlink" x="0px" y="0px"
	 viewBox="0 0 24 22.2" style="enable-background:new 0 0 24 22.2;" xml:space="preserve">
<style type="text/css">
	.st0{fill:#3CC8C8;}
</style>
<title>cardano-ada-logo</title>
<path class="st0" d="M11.7,0.1c0.5-0.3,1.2,0.4,0.9,0.9c-0.2,0.4-0.8,0.5-1.1,0.2C11.2,0.9,11.3,0.2,11.7,0.1 M6.1,0.7
	c0.3-0.1,0.7,0.2,0.7,0.5c0,0.4-0.4,0.7-0.7,0.5C5.6,1.5,5.6,0.8,6.1,0.7 M17.6,1.7c-0.5-0.1-0.6-0.8-0.1-1c0.4-0.2,0.7,0.2,0.8,0.5
	C18.2,1.5,17.9,1.7,17.6,1.7 M7.4,3.1c0.5-0.3,1.3,0.2,1.2,0.8c0,0.6-0.9,1-1.3,0.6C6.8,4.1,6.9,3.3,7.4,3.1 M15.5,3.4
	c0.2-0.6,1.2-0.6,1.5,0c0.3,0.5-0.1,1-0.5,1.2C15.8,4.7,15.2,4,15.5,3.4 M11,4.5c0-0.5,0.5-0.9,1-1c0.3,0.1,0.7,0.2,0.8,0.5
	c0.3,0.5,0,1.1-0.4,1.3c-0.2,0.1-0.5,0.1-0.7,0.1C11.3,5.3,11,5,11,4.5 M2.7,5.3c0.5-0.3,1.1,0.2,1,0.8C3.5,6.5,2.9,6.7,2.6,6.4
	C2.2,6.2,2.2,5.5,2.7,5.3 M20.6,5.3c0.4-0.3,1.1,0,1,0.6c0,0.5-0.6,0.8-1,0.6C20.3,6.3,20.2,5.6,20.6,5.3 M13.4,6.3
	c0.7-0.2,1.5,0,1.9,0.7c0.5,0.7,0.2,1.9-0.6,2.3c-0.8,0.5-2,0.1-2.3-0.8C12,7.5,12.5,6.5,13.4,6.3 M9.4,6.3C10.1,6,11.2,6.3,11.5,7
	c0.4,0.7,0.1,1.8-0.7,2.2C10.1,9.7,9,9.3,8.6,8.5C8.2,7.8,8.6,6.7,9.4,6.3 M5.4,7.7c0.1-0.5,0.5-0.8,1-0.8c0.5,0.1,0.9,0.4,0.9,1
	c0,0.5-0.4,1-0.9,1C5.8,8.8,5.3,8.3,5.4,7.7 M17.2,7c0.6-0.3,1.4,0.2,1.4,0.8c0,0.7-0.9,1.2-1.5,0.8C16.5,8.3,16.6,7.3,17.2,7
	 M7.8,9.5c0.7-0.2,1.5,0.1,1.8,0.8c0.4,0.6,0.2,1.5-0.4,2c-0.7,0.7-2.1,0.4-2.5-0.5C6.3,10.9,6.8,9.8,7.8,9.5 M15.3,9.5
	c0.7-0.2,1.5,0.1,1.8,0.7c0.5,0.7,0.3,1.8-0.5,2.2c-0.8,0.5-1.9,0.3-2.3-0.6C13.9,11,14.4,9.8,15.3,9.5 M3.3,10.3
	c0.6-0.2,1.3,0.4,1,1c-0.1,0.5-0.9,0.7-1.3,0.3C2.5,11.3,2.7,10.5,3.3,10.3 M19.6,11.2c0-0.5,0.3-0.9,0.9-1c0.4,0.1,0.8,0.4,0.8,0.8
	c0,0.6-0.7,1-1.2,0.7C19.8,11.7,19.7,11.4,19.6,11.2 M0.3,10.6c0.4-0.2,0.8,0.2,0.7,0.6c0,0.5-0.7,0.6-0.9,0.3
	C-0.1,11.2,0,10.8,0.3,10.6z M23.2,10.6c0.3-0.2,0.7-0.1,0.8,0.2c0.2,0.3-0.1,0.8-0.5,0.7C22.9,11.6,22.8,10.8,23.2,10.6 M9.7,12.8
	c1-0.2,2,0.5,2,1.5c0.1,1-0.9,1.9-1.9,1.6c-0.8-0.1-1.3-0.8-1.3-1.6C8.5,13.6,9,13,9.7,12.8 M13.5,12.8c1-0.3,2,0.5,2,1.5
	c0.1,1-0.9,1.8-1.9,1.6c-0.9-0.1-1.6-1.1-1.3-2C12.5,13.4,12.9,12.9,13.5,12.8 M6.2,13.4c0.7-0.1,1.3,0.6,1,1.3
	c-0.2,0.7-1.2,0.9-1.6,0.3C5.1,14.5,5.5,13.5,6.2,13.4 M17.3,13.4c0.6-0.3,1.3,0.3,1.3,0.9c0,0.7-0.9,1.2-1.5,0.8
	C16.5,14.8,16.6,13.7,17.3,13.4 M20.4,16.5c-0.2-0.4,0.2-1,0.7-0.9c0.2,0,0.4,0.2,0.6,0.3c0,0.3,0.1,0.6-0.1,0.8
	C21.2,17.1,20.6,17,20.4,16.5 M2.7,15.7c0.5-0.3,1.1,0.1,1,0.7c-0.1,0.5-0.6,0.7-1,0.5C2.2,16.6,2.2,16,2.7,15.7 M11.6,16.7
	c0.6-0.3,1.3,0.3,1.3,0.9c0,0.7-0.9,1.2-1.5,0.8C10.8,18,10.9,16.9,11.6,16.7 M7.5,17.7c0.5-0.3,1.2,0.2,1.1,0.8
	c0,0.5-0.4,0.9-0.9,0.8c-0.4,0-0.6-0.3-0.7-0.7C7,18.2,7.1,17.8,7.5,17.7 M15.8,17.7c0.5-0.3,1.3,0.1,1.2,0.7c0,0.6-0.8,1-1.3,0.6
	C15.3,18.7,15.3,17.9,15.8,17.7 M17.3,21.3c-0.2-0.3,0-0.8,0.4-0.8c0.3,0.1,0.6,0.3,0.6,0.6C18.2,21.6,17.5,21.7,17.3,21.3 M5.7,21
	c0.1-0.3,0.3-0.6,0.6-0.5c0.5,0,0.6,0.7,0.2,1C6.2,21.7,5.8,21.4,5.7,21 M11.3,21.3c0.1-0.4,0.6-0.6,1-0.4c0.2,0.1,0.3,0.4,0.4,0.6
	c0,0.1-0.1,0.2-0.1,0.3c-0.1,0.2-0.3,0.3-0.6,0.3C11.5,22.2,11.1,21.7,11.3,21.3"/>
</svg>
