<svg fill="#0063a9" stroke="#0063a9" height="512" viewBox="0 0 64 64" width="512" xmlns="http://www.w3.org/2000/svg"><path d="M61 21h-8c0-5.514-4.486-10-10-10s-10 4.486-10 10H14c-1.879 0-3.637.73-4.944 2.049A6.919 6.919 0 007 28v27c0 3.86 3.141 7 7 7h47a1 1 0 001-1V22a1 1 0 00-1-1zm-10 0c0 3.719-2.555 6.845-6 7.737v-1.323l1.707-1.707A.997.997 0 0047 25v-2.184c1.161-.414 2-1.514 2-2.816s-.839-2.402-2-2.816v-3.102c2.387 1.386 4 3.965 4 6.918zm-5-2a1.001 1.001 0 11-1 1c0-.551.448-1 1-1zm-1-5.737v3.921c-1.161.414-2 1.514-2 2.816s.839 2.402 2 2.816v1.77l-1.707 1.707A.997.997 0 0043 27v2a7.953 7.953 0 01-2-.263V22a.997.997 0 00-.293-.707L40.414 21l1.293-1.293A.997.997 0 0042 19v-5.931A8.047 8.047 0 0143 13c.692 0 1.359.097 2 .263zm-7 1.502a7.99 7.99 0 012-1.176v4.997l-1 1-1-1zm-2 2.371V19c0 .265.105.52.293.707L39 22.414v5.503c-2.387-1.386-4-3.964-4-6.918 0-1.4.364-2.717 1-3.863zm-25.53 7.328A4.93 4.93 0 0114 23h19.202c.929 4.559 4.969 8 9.798 8s8.869-3.441 9.798-8H60v10H14c-2.757 0-5-2.243-5-5 0-1.341.52-2.595 1.47-3.536zM54 57v3h-4v-3.586l3.828-3.827A5.96 5.96 0 0056 53h1.586l-3.293 3.293A.997.997 0 0054 57zm-34-3a1.001 1.001 0 111 1c-.552 0-1-.449-1-1zm2 2.816A2.996 2.996 0 0024 54c0-1.654-1.346-3-3-3s-3 1.346-3 3c0 1.302.839 2.402 2 2.816V60h-4v-8.586l4.707-4.707A.997.997 0 0021 46V35h2v13c0 .265.105.52.293.707L29 54.414V60h-7zM30 46a1.001 1.001 0 010-2 1.001 1.001 0 010 2zm-1-3.816c-1.161.414-2 1.514-2 2.816s.839 2.402 2 2.816v3.77l-4-4V35h4zm2 5.632c1.161-.414 2-1.514 2-2.816s-.839-2.402-2-2.816V35h4v2c0 .265.105.52.293.707L38 40.414v3.77c-1.161.414-2 1.514-2 2.816s.839 2.402 2 2.816v1.77l-4.707 4.707A.997.997 0 0033 57v3h-2zM39 48a1.001 1.001 0 010-2 1.001 1.001 0 010 2zm0-9.414l-2-2V35h4v1.586zm-4 18.828l3-3V60h-3zm5-7.598c1.161-.414 2-1.514 2-2.816s-.839-2.402-2-2.816v-3.77l2.707-2.707A.997.997 0 0043 37v-2h3v2.184c-1.161.414-2 1.514-2 2.816s.839 2.402 2 2.816v8.77l-2.707 2.707A.997.997 0 0043 55v5h-3zM47 41a1.001 1.001 0 010-2 1.001 1.001 0 010 2zm-2 14.414l2.707-2.707A.997.997 0 0048 52v-9.184c1.161-.414 2-1.514 2-2.816s-.839-2.402-2-2.816V35h6v2c0 .265.105.52.293.707L56 39.414V41c-3.309 0-6 2.691-6 6 0 1.803.803 3.419 2.066 4.52l-3.773 3.773A.997.997 0 0048 56v4h-3zM56 51c-2.206 0-4-1.794-4-4s1.794-4 4-4h4v8zm2-10v-2a.997.997 0 00-.293-.707L56 36.586V35h4v6zm-44 0a1.001 1.001 0 010-2 1.001 1.001 0 010 2zm-1-6.08v2.264c-1.161.414-2 1.514-2 2.816s.839 2.402 2 2.816v1.77l-4 4V32.889a6.978 6.978 0 004 2.031zM9 55v-3.586l5.707-5.707A.997.997 0 0015 45v-2.184c1.161-.414 2-1.514 2-2.816s-.839-2.402-2-2.816V35h4v10.586l-4.707 4.707A.997.997 0 0014 51v9c-2.757 0-5-2.243-5-5zm47 5v-2.586l4-4V60z"/><path d="M54 46h2v2h-2zM11 2h18v2H11zm36 4v4h2V6c0-2.206-1.794-4-4-4H31v2h14c1.103 0 2 .897 2 2z"/><path d="M45 10V7a1 1 0 00-1-1h-7v2h6v2zM25 6h10v2H25zM2 6h21v2H2zm0 4h14v2H2zm16 0h8v2h-8zm10 0h8v2h-8zm-4 4h8v2h-8zM2 14h20v2H2zM2 2h7v2H2zm27 23h2v2h-2zm-4 0h2v2h-2zm-4 0h2v2h-2zm-9 0h7v2h-7z"/></svg>