<svg height="512" viewBox="0 0 64 64" width="512" xmlns="http://www.w3.org/2000/svg"><path d="M19 48h4v2h-4zm2-33h4v2h-4zm-2 4h6v2h-6zm-3 4h9v2h-9zm16-5h25v2H32z"/><path d="M36 5c0-1.7-1.3-3-3-3H9C7.3 2 6 3.3 6 5v12.5l-1.2.9C3 19.7 2 21.8 2 24v38h2V24c0-1.6.7-3.1 2-4v11.2c0 1.7 1.3 3 3 3 .8 0 1.6-.3 2.1-.9l3.8-3.8c.7-.7 1.9-.7 2.6 0 .3.3.5.8.5 1.3s-.2 1-.5 1.3l-2.6 2.6c-.6.6-.9 1.3-.9 2.1V42c0 1.6-.7 3.1-2 4l-.8.6c-.8.6-1.2 1.5-1.2 2.4v13h2v-8h21c1.7 0 3-1.3 3-3v-9h2.7c-.7 2.4-.1 5 1.6 6.7l6 6c2.6 2.6 6.8 2.6 9.4 0s2.6-6.8 0-9.4L52.4 42H62V14H36zM8.6 32.1c-.4-.2-.6-.5-.6-.9V5c0-.6.4-1 1-1h24c.6 0 1 .4 1 1v9h-2V6H10v25.6l-.3.3c-.3.3-.7.4-1.1.2zm7.4 4.7c0-.3.1-.5.3-.7l2.6-2.6c1.5-1.5 1.5-3.9 0-5.4s-3.9-1.5-5.4 0L12 29.6V8h18v6.4c-1.8.8-3 2.6-3 4.6v19c0 1.8 1.2 3.4 3 3.9V44H15.7c.2-.6.3-1.3.3-2zM34 51c0 .6-.4 1-1 1H12v-3c0-.3.1-.6.4-.8l.8-.6c.6-.4 1.1-1 1.5-1.6H32v-4h2zm7.7-10.3c1.8-1.8 4.8-1.8 6.6 0s1.8 4.8 0 6.6-4.8 1.8-6.6 0c-1.8-1.8-1.8-4.8 0-6.6zm3.4 9.9c3.6-.1 6.4-2.9 6.5-6.5 1.6 2 1.3 4.9-.8 6.5-1.6 1.4-4 1.4-5.7 0zm9.2 2.7c-1.7 1.7-4.3 1.8-6.2.4 3.6-.1 6.4-2.9 6.5-6.5 1.5 1.8 1.3 4.4-.3 6.1zM50.4 40l-.7-.7a6.61 6.61 0 00-9.3-.1c-.2.2-.5.5-.7.8H31c-1.1 0-2-.9-2-2V23c.9.7 1.9 1 3 1h28v4h-7c-2.2 0-4 1.8-4 4s1.8 4 4 4h7v4zM60 30v4h-7c-1.1 0-2-.9-2-2s.9-2 2-2zm0-8H32c-1.7 0-3-1.3-3-3s1.3-3 3-3h28z"/></svg>