<svg fill="#00d105" stroke="#00d105" height="512" viewBox="0 0 64 64" width="512" xmlns="http://www.w3.org/2000/svg"><circle cx="25" cy="26" r="2"/><path d="M61.707 57.293l-5.008-5.008A2.95 2.95 0 0057 51c0-1.654-1.346-3-3-3a2.996 2.996 0 00-2.816 2h-5.369a2.997 2.997 0 00-1.816-1.816v-2.77l6.707-6.707A.992.992 0 0051 38v-4.184A2.996 2.996 0 0053 31c0-1.654-1.346-3-3-3a2.996 2.996 0 00-2.816 2H43a1 1 0 00-1 1v3.184c-1.161.414-2 1.514-2 2.816s.839 2.402 2 2.816V44h-1.184A2.997 2.997 0 0039 42.184V28.816A2.988 2.988 0 0040.22 28H44c.265 0 .52-.105.707-.293l1-1A.996.996 0 0046 26v-1h5.184A2.996 2.996 0 0054 27c1.654 0 3-1.346 3-3s-1.346-3-3-3a2.996 2.996 0 00-2.816 2H49v-6.184A2.996 2.996 0 0051 14c0-1.654-1.346-3-3-3a2.95 2.95 0 00-1.285.301l-7.008-7.008A.997.997 0 0039 4H18a2.01 2.01 0 01-1.865-1.296 1.004 1.004 0 00-1.067-.636 7.054 7.054 0 00-4.65 2.714 6.977 6.977 0 00-1.348 5.229c.37 2.609 2.24 4.75 4.742 5.592A18.788 18.788 0 0013 21h-1c-2.757 0-5 2.243-5 5s2.243 5 5 5h1.107c.67 6.372 4.501 11.814 9.893 14.727V50H9c-3.86 0-7 3.141-7 7v5h2v-5c0-2.757 2.243-5 5-5h14.713L31 56.554V62h6c.265 0 .52-.105.707-.293L41 58.414l1.293 1.293A.997.997 0 0043 60h3.184A2.996 2.996 0 0049 62c1.654 0 3-1.346 3-3a2.996 2.996 0 00-2-2.816V52h1.184A2.996 2.996 0 0054 54a2.95 2.95 0 001.285-.301L56.586 55l-1.293 1.293A.996.996 0 0055 57v5h2v-4.586l1-1 2 2V62h2v-4a.996.996 0 00-.293-.707zM40.184 50H33v-4h2.184c.414 1.161 1.514 2 2.816 2s2.402-.839 2.816-2H42v2.184A2.997 2.997 0 0040.184 50zm-5-37A2.997 2.997 0 0037 14.816V19h-4v-6zM37 12a1.001 1.001 0 111 1c-.551 0-1-.448-1-1zm-1.816 15A2.997 2.997 0 0037 28.816V33h-4v-6zM39 45a1.001 1.001 0 01-2 0 1.001 1.001 0 012 0zm-3.816-1H33v-9h4v7.184A2.997 2.997 0 0035.184 44zM44 51a1.001 1.001 0 01-2 0 1.001 1.001 0 012 0zm6-21a1.001 1.001 0 11-1 1c0-.552.449-1 1-1zm-2.816 2A2.997 2.997 0 0049 33.816v3.77l-5 5v-2.77c1.161-.414 2-1.514 2-2.816s-.839-2.402-2-2.816V32zM43 36a1.001 1.001 0 11-1 1c0-.552.449-1 1-1zm-5-9a1.001 1.001 0 010-2 1.001 1.001 0 010 2zm5.586-1H41c0-1.654-1.346-3-3-3a2.996 2.996 0 00-2.816 2H33v-4h7.586L44 24.414v1.172zM54 23a1.001 1.001 0 11-1 1c0-.552.449-1 1-1zm-5-9a1.001 1.001 0 01-2 0 1.001 1.001 0 012 0zm-3.699-1.285A2.95 2.95 0 0045 14c0 1.302.839 2.402 2 2.816V23h-1.586l-3.707-3.707A.997.997 0 0041 19h-2v-4.184A2.996 2.996 0 0041 12c0-1.654-1.346-3-3-3a2.996 2.996 0 00-2.816 2H33V6h5.586zM11.05 9.731a4.99 4.99 0 01.96-3.74 4.972 4.972 0 012.65-1.804A4.021 4.021 0 0018 6h13v8H16.21a5.24 5.24 0 01-.871-.073l-.08-.012c-2.219-.4-3.911-2.083-4.209-4.184zM12 29c-1.654 0-3-1.346-3-3s1.346-3 3-3h1v6zm3 0v-8c0-1.69.259-3.374.77-5.014C15.917 15.995 31 16 31 16v29.971c-8.91-.52-16-7.933-16-16.971zm16 18.949v6.247l-6-3.751v-3.798a18.833 18.833 0 006 1.302zM36.586 60H33v-4h5.586l1 1zM49 60a1.001 1.001 0 010-2 1.001 1.001 0 010 2zm-1-3.816A2.997 2.997 0 0046.184 58h-2.77l-3.707-3.707A.997.997 0 0039 54h-6v-2h7.184c.414 1.161 1.514 2 2.816 2s2.402-.839 2.816-2H48zM53 51a1.001 1.001 0 111 1c-.551 0-1-.448-1-1z"/></svg>