<svg fill="#ff3030" stroke="#ff3030" height="512" viewBox="0 0 64 64" width="512" xmlns="http://www.w3.org/2000/svg"><path d="M61.854 18.48a.999.999 0 00-.63-.455A56.861 56.861 0 0138.276 6.81L32.63 2.223a1 1 0 00-1.262 0L25.722 6.81A56.861 56.861 0 012.774 18.025a1.002 1.002 0 00-.744 1.225l1.956 7.58c3.908 15.144 13.938 28.279 27.517 36.038a1.002 1.002 0 00.993 0c13.579-7.759 23.608-20.895 27.517-36.038l1.956-7.58a1 1 0 00-.115-.77zm-3.779 7.85C54.35 40.77 44.861 53.317 32 60.845 19.139 53.317 9.65 40.77 5.925 26.33l-1.702-6.596A58.894 58.894 0 0026.986 8.363L32 4.288l5.015 4.075a58.894 58.894 0 0022.763 11.371z"/><path d="M52.48 33.398l-1.834-.797a51.73 51.73 0 01-5.458 9.598l1.623 1.168a53.589 53.589 0 005.669-9.969zm1.909-5.096l-1.906-.604a50.522 50.522 0 01-1.031 2.941l1.865.721c.384-.998.745-2.026 1.072-3.058zM22 21c0 3.604 1.9 6.864 5 8.651V51c0 .266.105.52.293.707l4 4a.997.997 0 001.414 0l6-6a.999.999 0 000-1.414L36.414 46l2.293-2.293a.999.999 0 000-1.414L36.414 40l2.293-2.293a.999.999 0 000-1.414L36 33.586v-3.43c3.617-1.579 6-5.173 6-9.156 0-5.514-4.486-10-10-10s-10 4.486-10 10zm18 0a8.011 8.011 0 01-5.334 7.534 1 1 0 00-.666.943V34c0 .266.105.52.293.707L36.586 37l-2.293 2.293a.999.999 0 000 1.414L36.586 43l-2.293 2.293a.999.999 0 000 1.414L36.586 49 33 52.586V48h-2v4.586l-2-2V29.054a1 1 0 00-.555-.896A7.954 7.954 0 0124 21c0-4.411 3.589-8 8-8s8 3.589 8 8z"/><path d="M31 44h2v2h-2zm0-4h2v2h-2zm0-4h2v2h-2zm-2-18c0 1.654 1.346 3 3 3s3-1.346 3-3-1.346-3-3-3-3 1.346-3 3zm4 0a1 1 0 11-2 0 1 1 0 012 0z"/></svg>