<svg fill="#00bcc7" stroke="#00bcc7" xmlns="http://www.w3.org/2000/svg" viewBox="0 0 480 480"><path d="M417.64 185.608C421.744 198.544 433.72 208 448 208c17.648 0 32-14.352 32-32s-14.352-32-32-32c-15.392 0-28.272 10.928-31.312 25.432L360 182.032v-34.72l83.744-83.744c1.408.192 2.8.432 4.256.432 17.648 0 32-14.352 32-32S465.648 0 448 0s-32 14.352-32 32c0 10.016 4.72 18.864 11.952 24.736l-71.312 71.312C350.456 113.92 336.384 104 320 104h-18.712l46.104-40.344C363.432 61.936 376 48.48 376 32c0-17.648-14.352-32-32-32s-32 14.352-32 32c0 11.744 6.424 21.912 15.872 27.48L277 104h-29V62.864c13.768-3.576 24-16 24-30.864 0-17.648-14.352-32-32-32s-32 14.352-32 32c0 14.864 10.232 27.288 24 30.864V104h-29l-50.88-44.52C161.576 53.912 168 43.744 168 32c0-17.648-14.352-32-32-32s-32 14.352-32 32c0 16.48 12.568 29.936 28.608 31.656L178.712 104H160c-16.384 0-30.456 9.92-36.64 24.048L52.048 56.736C59.28 50.864 64 42.016 64 32 64 14.352 49.648 0 32 0S0 14.352 0 32s14.352 32 32 32c1.456 0 2.848-.24 4.256-.432L120 147.312v34.712l-56.688-12.6C60.272 154.928 47.392 144 32 144c-17.648 0-32 14.352-32 32s14.352 32 32 32c14.28 0 26.256-9.456 30.36-22.392L120 198.416V264H62.864C59.288 250.24 46.872 240 32 240c-17.648 0-32 14.352-32 32s14.352 32 32 32c14.872 0 27.288-10.24 30.864-24H120v120c0 22.056 17.944 40 40 40h40v40h16v-40h96a8 8 0 005.656-13.656L296 404.688V360c0-2.12-.84-4.16-2.344-5.656L266.6 327.296c-.016-.016-.032-.04-.048-.064l-6.272-6.256a14.555 14.555 0 01-4.28-10.344c0-8.072 6.56-14.632 14.624-14.632 3.848 0 7.616 1.56 10.344 4.288l65.376 65.368a7.985 7.985 0 008.72 1.736A8 8 0 00360 360v-44.688l24 24V480h16V336c0-2.12-.84-4.16-2.344-5.656L360 292.688V280h57.136c3.576 13.76 15.992 24 30.864 24 17.648 0 32-14.352 32-32s-14.352-32-32-32c-14.872 0-27.288 10.24-30.864 24H360v-65.584l57.64-12.808zM448 160c8.824 0 16 7.176 16 16s-7.176 16-16 16-16-7.176-16-16 7.176-16 16-16zm0-144c8.824 0 16 7.176 16 16s-7.176 16-16 16-16-7.176-16-16 7.176-16 16-16zm-104 0c8.824 0 16 7.176 16 16s-7.176 16-16 16-16-7.176-16-16 7.176-16 16-16zM136 48c-8.824 0-16-7.176-16-16s7.176-16 16-16 16 7.176 16 16-7.176 16-16 16zM32 48c-8.824 0-16-7.176-16-16s7.176-16 16-16 16 7.176 16 16-7.176 16-16 16zm0 144c-8.824 0-16-7.176-16-16s7.176-16 16-16 16 7.176 16 16-7.176 16-16 16zm0 96c-8.824 0-16-7.176-16-16s7.176-16 16-16 16 7.176 16 16-7.176 16-16 16zM224 32c0-8.824 7.176-16 16-16s16 7.176 16 16-7.176 16-16 16-16-7.176-16-16zm68.688 392H160c-13.232 0-24-10.768-24-24v-8h144v16c0 2.12.84 4.16 2.344 5.656L292.688 424zm4.08-130.544l-4.488-4.48c-5.784-5.792-13.464-8.976-21.656-8.976-16.88 0-30.624 13.736-30.624 30.632 0 1.848.216 3.656.528 5.432.096.536.232 1.048.36 1.576a30.55 30.55 0 001.144 3.768c.192.512.376 1.024.592 1.52a30.456 30.456 0 002.336 4.36c.08.12.136.248.216.368.024.04.048.088.072.128A63.797 63.797 0 01240 328c-35.288 0-64-28.712-64-64s28.712-64 64-64 64 28.712 64 64a63.272 63.272 0 01-7.232 29.456zM344 296v44.688l-35.512-35.504C316.032 292.728 320 278.632 320 264c0-44.112-35.888-80-80-80s-80 35.888-80 80 35.888 80 80 80c6.184 0 12.304-.928 18.336-2.352L280 363.312V376H136V168h208v128zm0-144H136v-8c0-13.232 10.768-24 24-24h160c13.232 0 24 10.768 24 24v8zm104 104c8.824 0 16 7.176 16 16s-7.176 16-16 16-16-7.176-16-16 7.176-16 16-16z"/><path d="M270.344 226.344L224 272.688l-18.344-18.344-11.312 11.312 24 24A7.978 7.978 0 00224 292a7.978 7.978 0 005.656-2.344l52-52-11.312-11.312zM152 344h16v16h-16zm0-32h16v16h-16zm32 32h16v16h-16z"/></svg>