<svg fill="#fa0" stroke="#fa0" xmlns="http://www.w3.org/2000/svg" viewBox="0 0 423.748 423.748"><path d="M368.375 241.615l-16.904-16.904a5.5 5.5 0 00-7.778 0l-2.217 2.217-15.609-15.609v-30.525a5.5 5.5 0 00-3.854-5.248l-96.487-30.25a5.5 5.5 0 00-6.893 6.894l30.249 96.488a5.5 5.5 0 005.248 3.854h30.525l15.609 15.609-2.217 2.217a5.5 5.5 0 000 7.778l16.904 16.904c1.073 1.074 2.481 1.611 3.889 1.611s2.815-.537 3.889-1.611l45.646-45.646a5.499 5.499 0 000-7.779zm-81.442-.083h-28.764l-22.34-71.261 31.846 31.847a18.071 18.071 0 00-2.034 8.351c0 4.852 1.89 9.413 5.32 12.843a18.107 18.107 0 0012.844 5.312c4.65 0 9.302-1.771 12.843-5.312 7.082-7.082 7.082-18.604 0-25.687-5.726-5.727-14.354-6.817-21.192-3.283l-31.85-31.851 71.262 22.341v28.764c0 1.458.579 2.858 1.611 3.889l17.22 17.219-25.657 25.657-17.22-17.22a5.504 5.504 0 00-3.889-1.609zm-3.129-38.223a7.14 7.14 0 015.066 2.095c2.792 2.793 2.792 7.337 0 10.13a7.174 7.174 0 01-10.132 0c-2.792-2.793-2.792-7.337 0-10.13a7.144 7.144 0 015.066-2.095zm35.036 80.063l-9.126-9.125 37.868-37.869 9.126 9.126-37.868 37.868z"/><path d="M268.321 377.811c-10.378 0-19.166 6.92-22.003 16.387-41.11-4.372-79.77-22.673-109.335-51.879-29.549-29.189-48.323-67.589-53.215-108.595 9.232-2.979 15.931-11.651 15.931-21.861S93 192.981 83.768 190.001c4.891-41.006 23.666-79.406 53.215-108.595 29.564-29.204 68.221-47.505 109.329-51.878 2.83 9.478 11.623 16.409 22.009 16.409 12.665 0 22.969-10.304 22.969-22.969S280.986 0 268.321 0c-10.77 0-19.828 7.453-22.299 17.471H136.521v-4.473a5.5 5.5 0 00-5.5-5.5h-19.94a5.5 5.5 0 00-5.5 5.5v19.94a5.5 5.5 0 005.5 5.5h19.94a5.5 5.5 0 005.5-5.5V28.47h64.906a194.63 194.63 0 00-72.175 45.11 194.693 194.693 0 00-47.508 75.906v-41.732h4.467a5.5 5.5 0 005.5-5.5v-19.94a5.5 5.5 0 00-5.5-5.5h-19.94a5.5 5.5 0 00-5.5 5.5v19.94a5.5 5.5 0 005.5 5.5h4.473v81.936c-9.771 2.641-16.982 11.578-16.982 22.172s7.212 19.531 16.982 22.172v81.936h-4.473a5.5 5.5 0 00-5.5 5.5v19.94a5.5 5.5 0 005.5 5.5h19.94a5.5 5.5 0 005.5-5.5v-19.94a5.5 5.5 0 00-5.5-5.5h-4.467v-41.733a194.704 194.704 0 0047.508 75.906 194.637 194.637 0 0072.256 45.138h-64.987v-4.473a5.5 5.5 0 00-5.5-5.5h-19.94a5.5 5.5 0 00-5.5 5.5v19.94a5.5 5.5 0 005.5 5.5h19.94a5.5 5.5 0 005.5-5.5v-4.468h109.502c2.472 10.016 11.529 17.466 22.298 17.466 12.665 0 22.969-10.304 22.969-22.969s-10.304-22.966-22.969-22.966zm0-366.811c6.6 0 11.969 5.369 11.969 11.969s-5.369 11.969-11.969 11.969-11.969-5.369-11.969-11.969S261.721 11 268.321 11zM64.761 211.863c0-6.6 5.369-11.969 11.969-11.969s11.969 5.369 11.969 11.969-5.369 11.969-11.969 11.969-11.969-5.37-11.969-11.969zm203.56 200.885c-6.6 0-11.969-5.369-11.969-11.969s5.369-11.969 11.969-11.969 11.969 5.369 11.969 11.969-5.37 11.969-11.969 11.969z"/></svg>