<?xml version="1.0" encoding="utf-8"?>
<!-- Generator: Adobe Illustrator 21.1.0, SVG Export Plug-In . SVG Version: 6.00 Build 0)  -->
<svg version="1.1" id="Layer_1" xmlns="http://www.w3.org/2000/svg" xmlns:xlink="http://www.w3.org/1999/xlink" x="0px" y="0px"
	 viewBox="0 0 24 23.792" style="enable-background:new 0 0 24 23.792;" xml:space="preserve">
<style type="text/css">
	.st0{fill:#B4E1FF;}
	.st1{fill:#90D595;}
	.st2{fill:#FFFFFF;}
	.st3{fill:#41474E;}
</style>
<title>perlin--logo</title>
<g id="Layer_2">
	<g id="Layer_1-2">
		<g id="logo-perlin_svg_Group">
			<path id="logo-perlin_svg_Shape" d="M11.284,0.58v0.512c0.179-0.072,0.347-0.168,0.5-0.285c-0.171,0-0.341-0.226-0.512-0.226
				L11.284,0.58z"/>
			<path id="logo-perlin_svg_Shape-2" class="st0" d="M11.888,0.617c-0.182,0-0.371-0.03-0.545-0.033h-0.056
				C5.04,0.92,0.248,6.258,0.584,12.505C0.772,16,2.565,19.212,5.442,21.206c-0.733-0.663-1.149-1.607-1.145-2.595
				c0.012-1.932,1.575-3.495,3.507-3.507l0.701-0.022V14.93c-0.001-1.506,0.967-2.842,2.398-3.31
				c0.35-0.117,0.717-0.175,1.086-0.174c1.372-0.001,2.617,0.803,3.181,2.054l0,0c3.225-2.212,4.045-6.619,1.833-9.844
				C15.827,1.941,13.956,0.83,11.888,0.617z"/>
			<path id="logo-perlin_svg_Shape-3" class="st1" d="M12.259,0.58c6.124,0.741,8.018,5.238,8.022,9.297
				c0,4.152-3.488,7.181-6.539,7.981c-1.138,0.279-2.291,0.487-3.455,0.623l-0.463,0.056c-0.11,0.015-0.219,0.039-0.326,0.07
				c-0.663,0.195-1.202,0.68-1.464,1.32c-0.113,0.274-0.171,0.567-0.171,0.864c-0.001,0.97,0.612,1.834,1.527,2.154
				c0.159,0.037,0.323,0.067,0.489,0.1c0.665,0.118,1.338,0.177,2.013,0.178c6.255-0.021,11.308-5.108,11.288-11.362
				C23.16,5.779,18.34,0.799,12.263,0.58L12.259,0.58z"/>
			<path id="logo-perlin_svg_Shape-4" class="st2" d="M12.259,0.58c-0.122,0-0.241,0-0.371,0l0,0c-0.182,0-0.371,0-0.545,0
				c0.185,0,0.371,0.019,0.545,0.037c3.889,0.389,6.726,3.857,6.337,7.746c-0.208,2.082-1.327,3.965-3.056,5.143l0,0
				c-0.777-1.761-2.834-2.558-4.595-1.782c-1.271,0.561-2.088,1.823-2.078,3.213v0.148l-0.704,0.026
				c-1.935,0.004-3.5,1.576-3.496,3.51c0.002,0.984,0.418,1.922,1.146,2.584c0.222,0.156,0.449,0.297,0.682,0.437
				c1.013,0.604,2.115,1.042,3.266,1.297c-0.915-0.319-1.528-1.181-1.527-2.15c-0.001-0.298,0.057-0.592,0.171-0.867
				c0.265-0.638,0.802-1.123,1.464-1.32c0.107-0.029,0.216-0.051,0.326-0.067l0.463-0.052c1.163-0.139,2.317-0.348,3.455-0.626
				c3.051-0.804,6.543-3.829,6.539-7.981C20.281,5.8,18.383,1.307,12.259,0.58z"/>
			<path id="logo-perlin_svg_Polygon" d="M15.57,13.915L15.57,13.915l-0.408-0.408L15.57,13.915z"/>
		</g>
		<path id="logo-perlin_svg_Shape-5" class="st3" d="M11.892,0.002c-0.193,0-0.371,0-0.575,0h-0.022
			c-6.56,0.33-11.61,5.915-11.28,12.475c0.185,3.679,2.065,7.065,5.089,9.167c0.218,0.194,0.455,0.366,0.708,0.512
			c0.064,0.033,0.133,0.055,0.204,0.063c1.008,0.576,2.096,0.999,3.229,1.257c0.184,0.064,0.374,0.108,0.567,0.13l0,0
			c0.688,0.122,1.385,0.184,2.083,0.185c6.569,0.115,11.987-5.117,12.102-11.686c0.115-6.569-5.117-11.987-11.686-12.102
			C12.172-0.001,12.032-0.001,11.892,0.002z M7.444,21.685c-0.593-0.267-1.16-0.589-1.694-0.96
			c-1.165-1.131-1.193-2.992-0.062-4.157c0.556-0.573,1.321-0.895,2.119-0.892c0.23,0,0.493,0,0.712-0.022
			c0.304-0.014,0.543-0.263,0.545-0.567v-0.148c-0.001-1.613,1.306-2.922,2.919-2.923c1.152-0.001,2.196,0.675,2.667,1.726
			c0.127,0.283,0.458,0.41,0.741,0.285c0.029-0.016,0.056-0.035,0.082-0.056l0,0c3.206-2.179,4.265-6.418,2.462-9.85
			c1.512,1.961,1.765,4.382,1.765,5.75c0,3.781-3.151,6.651-6.117,7.414c-1.27,0.304-2.557,0.525-3.855,0.664
			c-1.403,0.201-2.446,1.4-2.45,2.817c0.006,0.304,0.058,0.605,0.156,0.893L7.444,21.685z M1.142,11.898
			C1.137,6.125,5.693,1.378,11.462,1.147c3.588,0.153,6.372,3.186,6.219,6.773c-0.078,1.832-0.926,3.545-2.334,4.719
			c-1.257-1.852-3.777-2.334-5.628-1.077c-0.994,0.675-1.638,1.757-1.756,2.953H7.785c-2.252,0-4.078,1.826-4.078,4.078
			c0,0.1,0,0.196,0.022,0.297c-1.675-1.944-2.596-4.425-2.595-6.992L1.142,11.898z M11.892,22.648
			c-0.796-0.003-1.589-0.093-2.365-0.271c-0.883-0.334-1.327-1.321-0.993-2.204c0.219-0.578,0.733-0.993,1.345-1.085
			c1.349-0.145,2.688-0.378,4.007-0.697c3.373-0.886,6.962-4.178,6.958-8.526c0.05-2.021-0.477-4.014-1.52-5.746
			c4.299,4.095,4.465,10.9,0.371,15.199c-2.029,2.131-4.843,3.336-7.785,3.336L11.892,22.648z"/>
	</g>
</g>
</svg>
