<svg width="156" height="153" viewBox="0 0 156 153" fill="none" xmlns="http://www.w3.org/2000/svg">
    <path d="M20.8538 44.8015H8.37988V103.135H20.8538V44.8015Z" fill="#3BEE81"/>
    <path d="M80.2878 2.24337C81.0216 3.71089 80.2878 5.17841 78.8203 5.91217L18.652 39.6651C17.1844 40.3989 15.7169 39.6651 14.9832 38.1976C14.2494 36.7301 14.9832 35.2626 16.4507 34.5288L76.619 0.775851C77.7197 0.408971 79.5541 0.775849 80.2878 2.24337Z"
          fill="#3BEE81"/>
    <path d="M75.1521 2.24337C74.4184 3.71089 75.1521 5.17841 76.6196 5.91217L136.788 39.6651C138.255 40.3989 139.723 39.6651 140.457 38.1976C141.191 36.7301 140.457 35.2626 138.989 34.5288L78.8209 1.14273C77.3534 0.408969 75.8859 0.775848 75.1521 2.24337Z"
          fill="#3BEE81"/>
    <path d="M77.7212 0.775848C79.1887 0.775848 80.6562 1.87649 80.6562 3.71089V44.0677C80.6562 45.5352 79.5556 47.0027 77.7212 47.0027C76.2536 47.0027 74.7861 45.9021 74.7861 44.0677V3.34401C74.7861 1.87649 75.8868 0.775848 77.7212 0.775848Z"
          fill="#3BEE81"/>
    <path d="M147.427 44.8015H134.953V103.135H147.427V44.8015Z" fill="#3BEE81"/>
    <path d="M80.6547 71.2168L74.7847 82.2232L5.44434 45.5352L11.3144 34.5288L80.6547 71.2168Z" fill="#3BEE81"/>
    <path d="M75.1523 71.2168L81.0224 82.2232L149.996 45.5352L144.126 34.5288L75.1523 71.2168Z" fill="#3BEE81"/>
    <path d="M14.25 55.8078C6.54555 55.8078 0.308594 49.5709 0.308594 41.8664C0.308594 34.1619 6.54555 27.925 14.25 27.925C21.9545 27.925 28.1915 34.1619 28.1915 41.8664C28.5584 49.5709 21.9545 55.8078 14.25 55.8078Z"
          fill="#3BEE81"/>
    <path d="M141.189 55.8078C133.485 55.8078 127.248 49.5709 127.248 41.8664C127.248 34.1619 133.485 27.925 141.189 27.925C148.894 27.925 155.131 34.1619 155.131 41.8664C155.131 49.5709 148.894 55.8078 141.189 55.8078Z"
          fill="#3BEE81"/>
    <path d="M77.7194 89.9277C85.0138 89.9277 90.9271 84.0144 90.9271 76.72C90.9271 69.4256 85.0138 63.5123 77.7194 63.5123C70.425 63.5123 64.5117 69.4256 64.5117 76.72C64.5117 84.0144 70.425 89.9277 77.7194 89.9277Z"
          fill="#3BEE81"/>
    <path d="M75.1521 151.197C74.4184 149.729 75.1521 148.262 76.6196 147.528L136.788 113.775C138.255 113.041 139.723 113.775 140.457 115.242C141.191 116.71 140.457 118.177 138.989 118.911L78.8209 152.664C77.3534 153.031 75.8859 152.664 75.1521 151.197Z"
          fill="#3BEE81"/>
    <path d="M80.2878 151.197C81.0216 149.729 80.2878 148.262 78.8203 147.528L18.652 113.775C17.1844 113.041 15.7169 113.775 14.9832 115.242C14.2494 116.71 14.9832 118.177 16.4507 118.911L76.619 152.664C77.7197 153.031 79.5541 152.664 80.2878 151.197Z"
          fill="#3BEE81"/>
    <path d="M77.7212 152.664C76.2536 152.664 74.7861 151.564 74.7861 149.729V109.372C74.7861 107.905 75.8868 106.437 77.7212 106.437C79.1887 106.437 80.6562 107.538 80.6562 109.372V149.729C80.6562 151.564 79.1887 152.664 77.7212 152.664Z"
          fill="#3BEE81"/>
    <path d="M14.25 125.515C6.54555 125.515 0.308594 119.278 0.308594 111.574C0.308594 103.869 6.54555 97.6322 14.25 97.6322C21.9545 97.6322 28.1915 103.869 28.1915 111.574C28.5584 119.278 21.9545 125.515 14.25 125.515Z"
          fill="#3BEE81"/>
    <path d="M141.189 125.515C133.485 125.515 127.248 119.278 127.248 111.574C127.248 103.869 133.485 97.6322 141.189 97.6322C148.894 97.6322 155.131 103.869 155.131 111.574C155.131 119.278 148.894 125.515 141.189 125.515Z"
          fill="#3BEE81"/>
</svg>
