<?xml version="1.0" encoding="utf-8"?>
<!-- Generator: Adobe Illustrator 21.1.0, SVG Export Plug-In . SVG Version: 6.00 Build 0)  -->
<svg version="1.1" id="Layer_1" xmlns="http://www.w3.org/2000/svg" xmlns:xlink="http://www.w3.org/1999/xlink" x="0px" y="0px"
	 viewBox="0 0 17.433 24" style="enable-background:new 0 0 17.433 24;" xml:space="preserve">
<style type="text/css">
	.st0{fill:#0160FA;}
</style>
<path class="st0" d="M4.573,24H0v-7.427c2.51,0,4.539,2.029,4.539,4.539V24H4.573z M12.894,9.696L6.258,9.731
	c-0.963,0-1.719-0.756-1.719-1.719V0H0v9.696c0,2.51,2.029,4.539,4.539,4.539h6.636c0.963,0,1.719,0.756,1.719,1.719v8.011h4.539
	v-9.696C17.467,11.725,15.438,9.696,12.894,9.696z M12.894,0h4.539v7.461c-2.51,0-4.539-2.029-4.539-4.539V0z"/>
</svg>
