<svg width="14" height="14" viewBox="0 0 14 14" fill="none" xmlns="http://www.w3.org/2000/svg">
<path d="M6.99996 12.8333C10.2216 12.8333 12.8333 10.2217 12.8333 7C12.8333 3.77834 10.2216 1.16667 6.99996 1.16667C3.7783 1.16667 1.16663 3.77834 1.16663 7C1.16663 10.2217 3.7783 12.8333 6.99996 12.8333Z" stroke="#B1C43D" stroke-width="1.1" stroke-linecap="round" stroke-linejoin="round"/>
<path d="M5.30249 5.25C5.43963 4.86014 5.71033 4.5314 6.06663 4.32199C6.42293 4.11259 6.84185 4.03605 7.24918 4.10592C7.65651 4.17578 8.02597 4.38756 8.29212 4.70372C8.55827 5.01989 8.70394 5.42005 8.70332 5.83333C8.70332 7 6.95332 7.58333 6.95332 7.58333" stroke="#B1C43D" stroke-width="1.1" stroke-linecap="round" stroke-linejoin="round"/>
<path d="M7 9.91666H7.00583" stroke="#B1C43D" stroke-width="1.1" stroke-linecap="round" stroke-linejoin="round"/>
</svg>
