<?xml version="1.0" encoding="utf-8"?>
<!-- Generator: Adobe Illustrator 21.1.0, SVG Export Plug-In . SVG Version: 6.00 Build 0)  -->
<svg version="1.1" id="Layer_1" xmlns="http://www.w3.org/2000/svg" xmlns:xlink="http://www.w3.org/1999/xlink" x="0px" y="0px"
	 viewBox="0 0 21.4 24.1" style="enable-background:new 0 0 21.4 24.1;" xml:space="preserve">
<style type="text/css">
	.st0{fill:#E77C00;}
	.st1{fill:#FFFFFF;}
</style>
<path class="st0" d="M11.6,0.3l8.8,5.1C21,5.7,21.3,6.3,21.3,7v10.1c0,0.7-0.3,1.3-0.9,1.6l-8.8,5.1c-0.6,0.3-1.3,0.3-1.9,0L1,18.7
	c-0.6-0.3-0.9-0.9-0.9-1.6V7c0-0.7,0.3-1.3,0.9-1.6l8.8-5.1C10.4,0,11,0,11.6,0.3z"/>
<g>
	<path class="st1" d="M14.5,18.6c2.5-0.3,4-1.7,4-3.9c0-1.9-1-3.3-3.3-3.9l-2-0.5c-0.8-0.2-1.3-0.5-1.3-1.2c0-0.8,0.6-1.3,1.6-1.3
		c1,0,1.7,0.6,1.7,1.5h3c0-2.1-1.4-3.5-3.7-3.8V4h-1.9v1.5c-2.3,0.3-3.8,1.7-3.8,3.9c0,1.7,0.9,3.1,3.3,3.7l2.1,0.5
		c0.8,0.2,1.2,0.6,1.2,1.3c0,0.8-0.7,1.3-1.9,1.3c-1.3,0-2.1-0.6-2.1-1.8h-3c0,2.3,1.5,3.9,4.1,4.2v1.6h1.9L14.5,18.6L14.5,18.6z"/>
	<path class="st1" d="M5.4,4C3.9,4,2.9,5,2.9,6.8c0,1.8,1,2.8,2.5,2.8c1.3,0,2.2-0.8,2.3-1.9H6.5C6.4,8.3,6,8.6,5.4,8.6
		c-0.9,0-1.3-0.7-1.3-1.8S4.5,5,5.4,5c0.6,0,1,0.3,1.1,0.9h1.2C7.6,4.7,6.7,4,5.4,4z"/>
</g>
</svg>
