<?xml version="1.0" encoding="utf-8"?>
<!-- Generator: Adobe Illustrator 21.1.0, SVG Export Plug-In . SVG Version: 6.00 Build 0)  -->
<svg version="1.1" id="Layer_1" xmlns="http://www.w3.org/2000/svg" xmlns:xlink="http://www.w3.org/1999/xlink" x="0px" y="0px"
	 viewBox="0 0 24 22.6" style="enable-background:new 0 0 24 22.6;" xml:space="preserve">
<style type="text/css">
	.st0{fill:#0293D6;}
	.st1{fill:#EBE638;}
	.st2{fill:#BAD147;}
	.st3{fill:#78B650;}
	.st4{fill:#2F8260;}
	.st5{fill:#085229;}
</style>
<path class="st0" d="M5.5,19.8c1.4,1.6,3.5,2.6,5.6,2.8c1.3-0.1,2.5-0.6,3.4-1.5c1.8-1.5,3.6-2.9,5.6-4.2l1.1-0.4
	c0.4-0.2,1.2-0.6,1.9-1.5c0.8-1,0.9-2.1,0.9-2.5c-0.1-1.2-0.5-2.4-1.2-3.4C19.3,15.3,12.7,19.4,5.5,19.8z"/>
<path class="st1" d="M7.9,1.6c1-1,2.3-1.6,3.7-1.6c0.9-0.1,1.8,0.2,2.4,0.8c1.8,1.3,4,2,6.3,2.1c0.6,0.1,1.7,0.3,2.5,1.2
	c0.6,0.8,0.6,1.6,0.6,2c-0.1,1-0.3,2-0.6,2.9L7.9,1.6z"/>
<path class="st2" d="M5.5,19.8c-0.6-0.1-1.3-0.3-2.2-0.6s-2-0.8-2.7-2.1C0.1,16.4,0,15.6,0,15.1c0-1.4,0.3-2.7,1-3.9
	c0.6-1.5,1-3.1,1.2-4.7l0.3-1.3c0.2-0.6,0.3-1.3,0.8-1.9L4,2.5c1.2-0.7,2.5-1,3.9-0.9C4.2,6.9,3.3,13.7,5.5,19.8z"/>
<path class="st3" d="M7.9,1.6c-0.1,0,3.5,0.2,5.6,1l1.8,0.8c-0.7-0.1-5.2-0.3-8.6,3.1c-4.3,4.4-2.9,10.3-2.8,10.7
	c-1-1.3-1.5-2.8-1.4-4.4C2.7,8.4,4.6,4.4,7.9,1.6z"/>
<path class="st4" d="M16.5,17.5c2.5-4.5,2-10.1-1.2-14.1c1.9,0.3,3.6,1.2,4.9,2.6C21,6.6,21.9,7.5,22.8,9
	C21.6,12.4,19.4,15.3,16.5,17.5z"/>
<path class="st5" d="M18.5,6.2c-1-1.7-2.5-2.5-3.1-2.8c-0.5-0.1-5.3-0.9-9,2.6c-3,2.8-3.1,6.5-3.1,7.2c0,2.4,0.8,4.8,2.3,6.7
	c1.9,0.4,3.9,0.4,5.8,0c1-0.2,3.2-0.6,5.1-2.2c0.3-0.3,3.1-2.9,3.3-7.1C19.8,9.8,19.8,8,18.5,6.2z M16.2,15.5
	c-1.2,1.3-2.9,2.1-4.7,2.1c-0.4,0-3-0.1-4.7-2.2c-0.3-0.3-1.5-1.9-1.5-4.2c0.1-3.1,2.6-4.9,3.1-5.3c0.4-0.3,1.5-1,3.1-1.1
	c0.4-0.1,1.7-0.1,3.1,0.6c3,1.6,3.1,5.5,3.1,5.7C17.7,11.9,17.7,13.8,16.2,15.5z"/>
</svg>
