<svg width="187" height="113" viewBox="0 0 187 113" fill="none" xmlns="http://www.w3.org/2000/svg">
<path fill-rule="evenodd" clip-rule="evenodd" d="M47.5434 1C21.8382 1 1 21.8382 1 47.5434C1 73.2486 21.8382 94.0868 47.5434 94.0868H117.94L130.952 111.435C131.5 112.166 132.66 111.84 132.747 110.931L134.367 94.0868H139.457C165.162 94.0868 186 73.2486 186 47.5434C186 21.8382 165.162 1 139.457 1H47.5434Z" fill="white"/>
<path d="M117.94 94.0868L118.54 93.6368L118.315 93.3368H117.94V94.0868ZM130.952 111.435L131.552 110.985L131.552 110.985L130.952 111.435ZM132.747 110.931L133.494 111.003L133.494 111.003L132.747 110.931ZM134.367 94.0868V93.3368H133.685L133.62 94.015L134.367 94.0868ZM1.75 47.5434C1.75 22.2524 22.2524 1.75 47.5434 1.75V0.25C21.424 0.25 0.25 21.424 0.25 47.5434H1.75ZM47.5434 93.3368C22.2524 93.3368 1.75 72.8344 1.75 47.5434H0.25C0.25 73.6628 21.424 94.8368 47.5434 94.8368V93.3368ZM117.94 93.3368H47.5434V94.8368H117.94V93.3368ZM131.552 110.985L118.54 93.6368L117.34 94.5368L130.352 111.885L131.552 110.985ZM132 110.859C131.979 111.087 131.689 111.168 131.552 110.985L130.352 111.885C131.311 113.164 133.341 112.594 133.494 111.003L132 110.859ZM133.62 94.015L132 110.859L133.494 111.003L135.113 94.1586L133.62 94.015ZM139.457 93.3368H134.367V94.8368H139.457V93.3368ZM185.25 47.5434C185.25 72.8344 164.748 93.3368 139.457 93.3368V94.8368C165.576 94.8368 186.75 73.6628 186.75 47.5434H185.25ZM139.457 1.75C164.748 1.75 185.25 22.2524 185.25 47.5434H186.75C186.75 21.424 165.576 0.25 139.457 0.25V1.75ZM47.5434 1.75H139.457V0.25H47.5434V1.75Z" fill="#F99D21"/>
<path d="M42.5066 21V28H41.7766V24.77H37.3966V28H36.6566V21H37.3966V24.12H41.7766V21H42.5066ZM49.7414 27.36V28H44.7914V21H49.5914V21.64H45.5314V24.13H49.1514V24.76H45.5314V27.36H49.7414ZM53.7929 25.58V28H53.0629V25.58L50.2629 21H51.0529L53.4529 24.93L55.8529 21H56.5929L53.7929 25.58ZM57.3093 26.96C57.4626 26.96 57.5893 27.0133 57.6893 27.12C57.7893 27.22 57.8393 27.3467 57.8393 27.5C57.8393 27.58 57.8259 27.6667 57.7993 27.76C57.7793 27.8533 57.7459 27.96 57.6993 28.08L57.2793 29.46H56.7993L57.1393 28.01C57.0326 27.9767 56.9459 27.9167 56.8793 27.83C56.8126 27.7367 56.7793 27.6267 56.7793 27.5C56.7793 27.3467 56.8293 27.22 56.9293 27.12C57.0293 27.0133 57.1559 26.96 57.3093 26.96ZM69.3856 21V28H68.6756V22.4L65.9256 27.11H65.5756L62.8256 22.43V28H62.1156V21H62.7256L65.7656 26.19L68.7756 21H69.3856ZM74.0664 25.58V28H73.3364V25.58L70.5364 21H71.3264L73.7264 24.93L76.1264 21H76.8664L74.0664 25.58ZM86.4812 21V28H85.8712L81.3712 22.32V28H80.6312V21H81.2412L85.7512 26.68V21H86.4812ZM93.156 26.13H89.256L88.416 28H87.646L90.846 21H91.576L94.776 28H93.996L93.156 26.13ZM92.886 25.53L91.206 21.77L89.526 25.53H92.886ZM103.204 21V28H102.494V22.4L99.7439 27.11H99.3939L96.6439 22.43V28H95.9339V21H96.5439L99.5839 26.19L102.594 21H103.204ZM110.435 27.36V28H105.485V21H110.285V21.64H106.225V24.13H109.845V24.76H106.225V27.36H110.435ZM114.791 21H115.531V28H114.791V21ZM119.739 28.06C119.219 28.06 118.719 27.9767 118.239 27.81C117.766 27.6433 117.399 27.4233 117.139 27.15L117.429 26.58C117.682 26.8333 118.019 27.04 118.439 27.2C118.859 27.3533 119.292 27.43 119.739 27.43C120.366 27.43 120.836 27.3167 121.149 27.09C121.462 26.8567 121.619 26.5567 121.619 26.19C121.619 25.91 121.532 25.6867 121.359 25.52C121.192 25.3533 120.986 25.2267 120.739 25.14C120.492 25.0467 120.149 24.9467 119.709 24.84C119.182 24.7067 118.762 24.58 118.449 24.46C118.136 24.3333 117.866 24.1433 117.639 23.89C117.419 23.6367 117.309 23.2933 117.309 22.86C117.309 22.5067 117.402 22.1867 117.589 21.9C117.776 21.6067 118.062 21.3733 118.449 21.2C118.836 21.0267 119.316 20.94 119.889 20.94C120.289 20.94 120.679 20.9967 121.059 21.11C121.446 21.2167 121.779 21.3667 122.059 21.56L121.809 22.15C121.516 21.9567 121.202 21.8133 120.869 21.72C120.536 21.62 120.209 21.57 119.889 21.57C119.276 21.57 118.812 21.69 118.499 21.93C118.192 22.1633 118.039 22.4667 118.039 22.84C118.039 23.12 118.122 23.3467 118.289 23.52C118.462 23.6867 118.676 23.8167 118.929 23.91C119.189 23.9967 119.536 24.0933 119.969 24.2C120.482 24.3267 120.896 24.4533 121.209 24.58C121.529 24.7 121.799 24.8867 122.019 25.14C122.239 25.3867 122.349 25.7233 122.349 26.15C122.349 26.5033 122.252 26.8267 122.059 27.12C121.872 27.4067 121.582 27.6367 121.189 27.81C120.796 27.9767 120.312 28.06 119.739 28.06ZM129.198 21C130.092 21 130.792 21.2133 131.298 21.64C131.805 22.0667 132.058 22.6533 132.058 23.4C132.058 24.1467 131.805 24.7333 131.298 25.16C130.792 25.58 130.092 25.79 129.198 25.79H127.318V28H126.578V21H129.198ZM129.178 25.14C129.872 25.14 130.402 24.99 130.768 24.69C131.135 24.3833 131.318 23.9533 131.318 23.4C131.318 22.8333 131.135 22.4 130.768 22.1C130.402 21.7933 129.872 21.64 129.178 21.64H127.318V25.14H129.178ZM137.697 26.13H133.797L132.957 28H132.187L135.387 21H136.117L139.317 28H138.537L137.697 26.13ZM137.427 25.53L135.747 21.77L134.067 25.53H137.427ZM147.745 21V28H147.035V22.4L144.285 27.11H143.935L141.185 22.43V28H140.475V21H141.085L144.125 26.19L147.135 21H147.745ZM149.766 21H150.606L150.456 25.9H149.906L149.766 21ZM150.186 28.05C150.039 28.05 149.912 28 149.806 27.9C149.706 27.7933 149.656 27.67 149.656 27.53C149.656 27.3833 149.706 27.2633 149.806 27.17C149.906 27.07 150.032 27.02 150.186 27.02C150.332 27.02 150.456 27.07 150.556 27.17C150.656 27.2633 150.706 27.3833 150.706 27.53C150.706 27.67 150.656 27.7933 150.556 27.9C150.456 28 150.332 28.05 150.186 28.05ZM21.6908 33H22.4308V40H21.6908V33ZM31.7155 38.13H27.8155L26.9755 40H26.2055L29.4055 33H30.1355L33.3355 40H32.5555L31.7155 38.13ZM31.4455 37.53L29.7655 33.77L28.0855 37.53H31.4455ZM41.7635 33V40H41.0535V34.4L38.3035 39.11H37.9535L35.2035 34.43V40H34.4935V33H35.1035L38.1435 38.19L41.1535 33H41.7635ZM51.0515 38.13H47.1515L46.3115 40H45.5415L48.7415 33H49.4715L52.6715 40H51.8915L51.0515 38.13ZM50.7815 37.53L49.1015 33.77L47.4215 37.53H50.7815ZM57.1866 33.64V36.39H60.8066V37.03H57.1866V40H56.4466V33H61.2466V33.64H57.1866ZM65.7469 40.06C65.0535 40.06 64.4235 39.9067 63.8569 39.6C63.2969 39.2867 62.8569 38.86 62.5369 38.32C62.2235 37.78 62.0669 37.1733 62.0669 36.5C62.0669 35.8267 62.2235 35.22 62.5369 34.68C62.8569 34.14 63.2969 33.7167 63.8569 33.41C64.4235 33.0967 65.0535 32.94 65.7469 32.94C66.4402 32.94 67.0635 33.0933 67.6169 33.4C68.1769 33.7067 68.6169 34.1333 68.9369 34.68C69.2569 35.22 69.4169 35.8267 69.4169 36.5C69.4169 37.1733 69.2569 37.7833 68.9369 38.33C68.6169 38.87 68.1769 39.2933 67.6169 39.6C67.0635 39.9067 66.4402 40.06 65.7469 40.06ZM65.7469 39.4C66.3002 39.4 66.8002 39.2767 67.2469 39.03C67.6935 38.7767 68.0435 38.43 68.2969 37.99C68.5502 37.5433 68.6769 37.0467 68.6769 36.5C68.6769 35.9533 68.5502 35.46 68.2969 35.02C68.0435 34.5733 67.6935 34.2267 67.2469 33.98C66.8002 33.7267 66.3002 33.6 65.7469 33.6C65.1935 33.6 64.6902 33.7267 64.2369 33.98C63.7902 34.2267 63.4369 34.5733 63.1769 35.02C62.9235 35.46 62.7969 35.9533 62.7969 36.5C62.7969 37.0467 62.9235 37.5433 63.1769 37.99C63.4369 38.43 63.7902 38.7767 64.2369 39.03C64.6902 39.2767 65.1935 39.4 65.7469 39.4ZM74.1355 40.06C73.4422 40.06 72.8122 39.9067 72.2455 39.6C71.6855 39.2867 71.2455 38.86 70.9255 38.32C70.6122 37.78 70.4555 37.1733 70.4555 36.5C70.4555 35.8267 70.6122 35.22 70.9255 34.68C71.2455 34.14 71.6855 33.7167 72.2455 33.41C72.8122 33.0967 73.4422 32.94 74.1355 32.94C74.8289 32.94 75.4522 33.0933 76.0055 33.4C76.5655 33.7067 77.0055 34.1333 77.3255 34.68C77.6455 35.22 77.8055 35.8267 77.8055 36.5C77.8055 37.1733 77.6455 37.7833 77.3255 38.33C77.0055 38.87 76.5655 39.2933 76.0055 39.6C75.4522 39.9067 74.8289 40.06 74.1355 40.06ZM74.1355 39.4C74.6889 39.4 75.1889 39.2767 75.6355 39.03C76.0822 38.7767 76.4322 38.43 76.6855 37.99C76.9389 37.5433 77.0655 37.0467 77.0655 36.5C77.0655 35.9533 76.9389 35.46 76.6855 35.02C76.4322 34.5733 76.0822 34.2267 75.6355 33.98C75.1889 33.7267 74.6889 33.6 74.1355 33.6C73.5822 33.6 73.0789 33.7267 72.6255 33.98C72.1789 34.2267 71.8255 34.5733 71.5655 35.02C71.3122 35.46 71.1855 35.9533 71.1855 36.5C71.1855 37.0467 71.3122 37.5433 71.5655 37.99C71.8255 38.43 72.1789 38.7767 72.6255 39.03C73.0789 39.2767 73.5822 39.4 74.1355 39.4ZM79.4642 33H82.3142C83.0542 33 83.7076 33.15 84.2742 33.45C84.8409 33.7433 85.2809 34.1567 85.5942 34.69C85.9076 35.2167 86.0642 35.82 86.0642 36.5C86.0642 37.18 85.9076 37.7867 85.5942 38.32C85.2809 38.8467 84.8409 39.26 84.2742 39.56C83.7076 39.8533 83.0542 40 82.3142 40H79.4642V33ZM82.2742 39.36C82.8876 39.36 83.4242 39.24 83.8842 39C84.3442 38.7533 84.7009 38.4167 84.9542 37.99C85.2076 37.5567 85.3342 37.06 85.3342 36.5C85.3342 35.94 85.2076 35.4467 84.9542 35.02C84.7009 34.5867 84.3442 34.25 83.8842 34.01C83.4242 33.7633 82.8876 33.64 82.2742 33.64H80.2042V39.36H82.2742ZM94.7531 36.39C95.2131 36.49 95.5665 36.69 95.8131 36.99C96.0665 37.2833 96.1931 37.6633 96.1931 38.13C96.1931 38.73 95.9698 39.1933 95.5231 39.52C95.0831 39.84 94.4298 40 93.5631 40H90.3431V33H93.3631C94.1431 33 94.7465 33.1567 95.1731 33.47C95.6065 33.7833 95.8231 34.2267 95.8231 34.8C95.8231 35.1867 95.7265 35.5167 95.5331 35.79C95.3465 36.0567 95.0865 36.2567 94.7531 36.39ZM91.0831 33.61V36.15H93.3131C93.8798 36.15 94.3165 36.0433 94.6231 35.83C94.9298 35.61 95.0831 35.2933 95.0831 34.88C95.0831 34.4667 94.9298 34.1533 94.6231 33.94C94.3165 33.72 93.8798 33.61 93.3131 33.61H91.0831ZM93.5531 39.39C94.1798 39.39 94.6531 39.2833 94.9731 39.07C95.2931 38.8567 95.4531 38.5233 95.4531 38.07C95.4531 37.1967 94.8198 36.76 93.5531 36.76H91.0831V39.39H93.5531ZM97.8822 33H98.6222V39.36H102.542V40H97.8822V33ZM106.694 40.06C106.001 40.06 105.371 39.9067 104.804 39.6C104.244 39.2867 103.804 38.86 103.484 38.32C103.171 37.78 103.014 37.1733 103.014 36.5C103.014 35.8267 103.171 35.22 103.484 34.68C103.804 34.14 104.244 33.7167 104.804 33.41C105.371 33.0967 106.001 32.94 106.694 32.94C107.387 32.94 108.011 33.0933 108.564 33.4C109.124 33.7067 109.564 34.1333 109.884 34.68C110.204 35.22 110.364 35.8267 110.364 36.5C110.364 37.1733 110.204 37.7833 109.884 38.33C109.564 38.87 109.124 39.2933 108.564 39.6C108.011 39.9067 107.387 40.06 106.694 40.06ZM106.694 39.4C107.247 39.4 107.747 39.2767 108.194 39.03C108.641 38.7767 108.991 38.43 109.244 37.99C109.497 37.5433 109.624 37.0467 109.624 36.5C109.624 35.9533 109.497 35.46 109.244 35.02C108.991 34.5733 108.641 34.2267 108.194 33.98C107.747 33.7267 107.247 33.6 106.694 33.6C106.141 33.6 105.637 33.7267 105.184 33.98C104.737 34.2267 104.384 34.5733 104.124 35.02C103.871 35.46 103.744 35.9533 103.744 36.5C103.744 37.0467 103.871 37.5433 104.124 37.99C104.384 38.43 104.737 38.7767 105.184 39.03C105.637 39.2767 106.141 39.4 106.694 39.4ZM116.953 36.5H117.663V39.17C117.336 39.4567 116.949 39.6767 116.503 39.83C116.056 39.9833 115.586 40.06 115.093 40.06C114.393 40.06 113.763 39.9067 113.203 39.6C112.643 39.2933 112.203 38.87 111.883 38.33C111.563 37.7833 111.403 37.1733 111.403 36.5C111.403 35.8267 111.563 35.22 111.883 34.68C112.203 34.1333 112.643 33.7067 113.203 33.4C113.763 33.0933 114.396 32.94 115.103 32.94C115.636 32.94 116.126 33.0267 116.573 33.2C117.019 33.3667 117.396 33.6167 117.703 33.95L117.243 34.42C116.689 33.8733 115.986 33.6 115.133 33.6C114.566 33.6 114.053 33.7267 113.593 33.98C113.139 34.2267 112.783 34.5733 112.523 35.02C112.263 35.46 112.133 35.9533 112.133 36.5C112.133 37.0467 112.263 37.54 112.523 37.98C112.783 38.42 113.139 38.7667 113.593 39.02C114.046 39.2733 114.556 39.4 115.123 39.4C115.843 39.4 116.453 39.22 116.953 38.86V36.5ZM124.687 36.5H125.397V39.17C125.071 39.4567 124.684 39.6767 124.237 39.83C123.791 39.9833 123.321 40.06 122.827 40.06C122.127 40.06 121.497 39.9067 120.937 39.6C120.377 39.2933 119.937 38.87 119.617 38.33C119.297 37.7833 119.137 37.1733 119.137 36.5C119.137 35.8267 119.297 35.22 119.617 34.68C119.937 34.1333 120.377 33.7067 120.937 33.4C121.497 33.0933 122.131 32.94 122.837 32.94C123.371 32.94 123.861 33.0267 124.307 33.2C124.754 33.3667 125.131 33.6167 125.437 33.95L124.977 34.42C124.424 33.8733 123.721 33.6 122.867 33.6C122.301 33.6 121.787 33.7267 121.327 33.98C120.874 34.2267 120.517 34.5733 120.257 35.02C119.997 35.46 119.867 35.9533 119.867 36.5C119.867 37.0467 119.997 37.54 120.257 37.98C120.517 38.42 120.874 38.7667 121.327 39.02C121.781 39.2733 122.291 39.4 122.857 39.4C123.577 39.4 124.187 39.22 124.687 38.86V36.5ZM132.442 39.36V40H127.492V33H132.292V33.64H128.232V36.13H131.852V36.76H128.232V39.36H132.442ZM138.961 40L137.361 37.75C137.181 37.77 136.994 37.78 136.801 37.78H134.921V40H134.181V33H136.801C137.694 33 138.394 33.2133 138.901 33.64C139.408 34.0667 139.661 34.6533 139.661 35.4C139.661 35.9467 139.521 36.41 139.241 36.79C138.968 37.1633 138.574 37.4333 138.061 37.6L139.771 40H138.961ZM136.781 37.15C137.474 37.15 138.004 36.9967 138.371 36.69C138.738 36.3833 138.921 35.9533 138.921 35.4C138.921 34.8333 138.738 34.4 138.371 34.1C138.004 33.7933 137.474 33.64 136.781 33.64H134.921V37.15H136.781ZM148.415 38.13H144.515L143.675 40H142.905L146.105 33H146.835L150.035 40H149.255L148.415 38.13ZM148.145 37.53L146.465 33.77L144.785 37.53H148.145ZM157.043 33V40H156.433L151.933 34.32V40H151.193V33H151.803L156.313 38.68V33H157.043ZM159.328 33H162.178C162.918 33 163.571 33.15 164.138 33.45C164.704 33.7433 165.144 34.1567 165.458 34.69C165.771 35.2167 165.928 35.82 165.928 36.5C165.928 37.18 165.771 37.7867 165.458 38.32C165.144 38.8467 164.704 39.26 164.138 39.56C163.571 39.8533 162.918 40 162.178 40H159.328V33ZM162.138 39.36C162.751 39.36 163.288 39.24 163.748 39C164.208 38.7533 164.564 38.4167 164.818 37.99C165.071 37.5567 165.198 37.06 165.198 36.5C165.198 35.94 165.071 35.4467 164.818 35.02C164.564 34.5867 164.208 34.25 163.748 34.01C163.288 33.7633 162.751 33.64 162.138 33.64H160.068V39.36H162.138ZM29.723 45H30.463V51.36H34.383V52H29.723V45ZM38.535 52.06C37.8416 52.06 37.2116 51.9067 36.645 51.6C36.085 51.2867 35.645 50.86 35.325 50.32C35.0116 49.78 34.855 49.1733 34.855 48.5C34.855 47.8267 35.0116 47.22 35.325 46.68C35.645 46.14 36.085 45.7167 36.645 45.41C37.2116 45.0967 37.8416 44.94 38.535 44.94C39.2283 44.94 39.8516 45.0933 40.405 45.4C40.965 45.7067 41.405 46.1333 41.725 46.68C42.045 47.22 42.205 47.8267 42.205 48.5C42.205 49.1733 42.045 49.7833 41.725 50.33C41.405 50.87 40.965 51.2933 40.405 51.6C39.8516 51.9067 39.2283 52.06 38.535 52.06ZM38.535 51.4C39.0883 51.4 39.5883 51.2767 40.035 51.03C40.4816 50.7767 40.8316 50.43 41.085 49.99C41.3383 49.5433 41.465 49.0467 41.465 48.5C41.465 47.9533 41.3383 47.46 41.085 47.02C40.8316 46.5733 40.4816 46.2267 40.035 45.98C39.5883 45.7267 39.0883 45.6 38.535 45.6C37.9816 45.6 37.4783 45.7267 37.025 45.98C36.5783 46.2267 36.225 46.5733 35.965 47.02C35.7116 47.46 35.585 47.9533 35.585 48.5C35.585 49.0467 35.7116 49.5433 35.965 49.99C36.225 50.43 36.5783 50.7767 37.025 51.03C37.4783 51.2767 37.9816 51.4 38.535 51.4ZM49.4688 45L46.3688 52H45.6388L42.5388 45H43.3388L46.0188 51.08L48.7188 45H49.4688ZM55.4347 51.36V52H50.4847V45H55.2847V45.64H51.2247V48.13H54.8447V48.76H51.2247V51.36H55.4347ZM64.1814 50.13H60.2814L59.4414 52H58.6714L61.8714 45H62.6014L65.8014 52H65.0214L64.1814 50.13ZM63.9114 49.53L62.2314 45.77L60.5514 49.53H63.9114ZM71.9093 51.36V52H66.9593V45H71.7593V45.64H67.6993V48.13H71.3193V48.76H67.6993V51.36H71.9093ZM75.5788 52.06C75.0588 52.06 74.5588 51.9767 74.0788 51.81C73.6055 51.6433 73.2388 51.4233 72.9788 51.15L73.2688 50.58C73.5221 50.8333 73.8588 51.04 74.2788 51.2C74.6988 51.3533 75.1321 51.43 75.5788 51.43C76.2055 51.43 76.6755 51.3167 76.9888 51.09C77.3021 50.8567 77.4588 50.5567 77.4588 50.19C77.4588 49.91 77.3721 49.6867 77.1988 49.52C77.0321 49.3533 76.8255 49.2267 76.5788 49.14C76.3321 49.0467 75.9888 48.9467 75.5488 48.84C75.0221 48.7067 74.6021 48.58 74.2888 48.46C73.9755 48.3333 73.7055 48.1433 73.4788 47.89C73.2588 47.6367 73.1488 47.2933 73.1488 46.86C73.1488 46.5067 73.2421 46.1867 73.4288 45.9C73.6155 45.6067 73.9021 45.3733 74.2888 45.2C74.6755 45.0267 75.1555 44.94 75.7288 44.94C76.1288 44.94 76.5188 44.9967 76.8988 45.11C77.2855 45.2167 77.6188 45.3667 77.8988 45.56L77.6488 46.15C77.3555 45.9567 77.0421 45.8133 76.7088 45.72C76.3755 45.62 76.0488 45.57 75.7288 45.57C75.1155 45.57 74.6521 45.69 74.3388 45.93C74.0321 46.1633 73.8788 46.4667 73.8788 46.84C73.8788 47.12 73.9621 47.3467 74.1288 47.52C74.3021 47.6867 74.5155 47.8167 74.7688 47.91C75.0288 47.9967 75.3755 48.0933 75.8088 48.2C76.3221 48.3267 76.7355 48.4533 77.0488 48.58C77.3688 48.7 77.6388 48.8867 77.8588 49.14C78.0788 49.3867 78.1888 49.7233 78.1888 50.15C78.1888 50.5033 78.0921 50.8267 77.8988 51.12C77.7121 51.4067 77.4221 51.6367 77.0288 51.81C76.6355 51.9767 76.1521 52.06 75.5788 52.06ZM81.0635 45.64H78.6035V45H84.2635V45.64H81.8035V52H81.0635V45.64ZM91.2957 45V52H90.5657V48.77H86.1857V52H85.4457V45H86.1857V48.12H90.5657V45H91.2957ZM98.5304 51.36V52H93.5804V45H98.3804V45.64H94.3204V48.13H97.9404V48.76H94.3204V51.36H98.5304ZM101.63 45.64H99.1699V45H104.83V45.64H102.37V52H101.63V45.64ZM106.012 45H106.752V52H106.012V45ZM112.07 52.06C111.376 52.06 110.75 51.9067 110.19 51.6C109.636 51.2933 109.2 50.87 108.88 50.33C108.566 49.7833 108.41 49.1733 108.41 48.5C108.41 47.8267 108.566 47.22 108.88 46.68C109.2 46.1333 109.64 45.7067 110.2 45.4C110.76 45.0933 111.386 44.94 112.08 44.94C112.6 44.94 113.08 45.0267 113.52 45.2C113.96 45.3733 114.333 45.6267 114.64 45.96L114.17 46.43C113.623 45.8767 112.933 45.6 112.1 45.6C111.546 45.6 111.043 45.7267 110.59 45.98C110.136 46.2333 109.78 46.58 109.52 47.02C109.266 47.46 109.14 47.9533 109.14 48.5C109.14 49.0467 109.266 49.54 109.52 49.98C109.78 50.42 110.136 50.7667 110.59 51.02C111.043 51.2733 111.546 51.4 112.1 51.4C112.94 51.4 113.63 51.12 114.17 50.56L114.64 51.03C114.333 51.3633 113.956 51.62 113.51 51.8C113.07 51.9733 112.59 52.06 112.07 52.06ZM118.834 45H121.684C122.424 45 123.078 45.15 123.644 45.45C124.211 45.7433 124.651 46.1567 124.964 46.69C125.278 47.2167 125.434 47.82 125.434 48.5C125.434 49.18 125.278 49.7867 124.964 50.32C124.651 50.8467 124.211 51.26 123.644 51.56C123.078 51.8533 122.424 52 121.684 52H118.834V45ZM121.644 51.36C122.258 51.36 122.794 51.24 123.254 51C123.714 50.7533 124.071 50.4167 124.324 49.99C124.578 49.5567 124.704 49.06 124.704 48.5C124.704 47.94 124.578 47.4467 124.324 47.02C124.071 46.5867 123.714 46.25 123.254 46.01C122.794 45.7633 122.258 45.64 121.644 45.64H119.574V51.36H121.644ZM127.096 45H127.836V52H127.096V45ZM132.044 52.06C131.524 52.06 131.024 51.9767 130.544 51.81C130.07 51.6433 129.704 51.4233 129.444 51.15L129.734 50.58C129.987 50.8333 130.324 51.04 130.744 51.2C131.164 51.3533 131.597 51.43 132.044 51.43C132.67 51.43 133.14 51.3167 133.454 51.09C133.767 50.8567 133.924 50.5567 133.924 50.19C133.924 49.91 133.837 49.6867 133.664 49.52C133.497 49.3533 133.29 49.2267 133.044 49.14C132.797 49.0467 132.454 48.9467 132.014 48.84C131.487 48.7067 131.067 48.58 130.754 48.46C130.44 48.3333 130.17 48.1433 129.944 47.89C129.724 47.6367 129.614 47.2933 129.614 46.86C129.614 46.5067 129.707 46.1867 129.894 45.9C130.08 45.6067 130.367 45.3733 130.754 45.2C131.14 45.0267 131.62 44.94 132.194 44.94C132.594 44.94 132.984 44.9967 133.364 45.11C133.75 45.2167 134.084 45.3667 134.364 45.56L134.114 46.15C133.82 45.9567 133.507 45.8133 133.174 45.72C132.84 45.62 132.514 45.57 132.194 45.57C131.58 45.57 131.117 45.69 130.804 45.93C130.497 46.1633 130.344 46.4667 130.344 46.84C130.344 47.12 130.427 47.3467 130.594 47.52C130.767 47.6867 130.98 47.8167 131.234 47.91C131.494 47.9967 131.84 48.0933 132.274 48.2C132.787 48.3267 133.2 48.4533 133.514 48.58C133.834 48.7 134.104 48.8867 134.324 49.14C134.544 49.3867 134.654 49.7233 134.654 50.15C134.654 50.5033 134.557 50.8267 134.364 51.12C134.177 51.4067 133.887 51.6367 133.494 51.81C133.1 51.9767 132.617 52.06 132.044 52.06ZM142.116 45V52H141.386V48.77H137.006V52H136.266V45H137.006V48.12H141.386V45H142.116ZM149.351 51.36V52H144.401V45H149.201V45.64H145.141V48.13H148.761V48.76H145.141V51.36H149.351ZM153.02 52.06C152.5 52.06 152 51.9767 151.52 51.81C151.047 51.6433 150.68 51.4233 150.42 51.15L150.71 50.58C150.964 50.8333 151.3 51.04 151.72 51.2C152.14 51.3533 152.574 51.43 153.02 51.43C153.647 51.43 154.117 51.3167 154.43 51.09C154.744 50.8567 154.9 50.5567 154.9 50.19C154.9 49.91 154.814 49.6867 154.64 49.52C154.474 49.3533 154.267 49.2267 154.02 49.14C153.774 49.0467 153.43 48.9467 152.99 48.84C152.464 48.7067 152.044 48.58 151.73 48.46C151.417 48.3333 151.147 48.1433 150.92 47.89C150.7 47.6367 150.59 47.2933 150.59 46.86C150.59 46.5067 150.684 46.1867 150.87 45.9C151.057 45.6067 151.344 45.3733 151.73 45.2C152.117 45.0267 152.597 44.94 153.17 44.94C153.57 44.94 153.96 44.9967 154.34 45.11C154.727 45.2167 155.06 45.3667 155.34 45.56L155.09 46.15C154.797 45.9567 154.484 45.8133 154.15 45.72C153.817 45.62 153.49 45.57 153.17 45.57C152.557 45.57 152.094 45.69 151.78 45.93C151.474 46.1633 151.32 46.4667 151.32 46.84C151.32 47.12 151.404 47.3467 151.57 47.52C151.744 47.6867 151.957 47.8167 152.21 47.91C152.47 47.9967 152.817 48.0933 153.25 48.2C153.764 48.3267 154.177 48.4533 154.49 48.58C154.81 48.7 155.08 48.8867 155.3 49.14C155.52 49.3867 155.63 49.7233 155.63 50.15C155.63 50.5033 155.534 50.8267 155.34 51.12C155.154 51.4067 154.864 51.6367 154.47 51.81C154.077 51.9767 153.594 52.06 153.02 52.06ZM157.358 52.05C157.211 52.05 157.085 51.9967 156.978 51.89C156.878 51.7833 156.828 51.6533 156.828 51.5C156.828 51.3467 156.878 51.22 156.978 51.12C157.085 51.0133 157.211 50.96 157.358 50.96C157.505 50.96 157.631 51.0133 157.738 51.12C157.845 51.22 157.898 51.3467 157.898 51.5C157.898 51.6533 157.845 51.7833 157.738 51.89C157.631 51.9967 157.505 52.05 157.358 52.05ZM29.4496 57H30.1896V63.36H34.1096V64H29.4496V57ZM40.2882 63.36V64H35.3382V57H40.1382V57.64H36.0782V60.13H39.6982V60.76H36.0782V63.36H40.2882ZM43.3877 57.64H40.9277V57H46.5877V57.64H44.1277V64H43.3877V57.64ZM47.3687 57H47.9987L47.9487 59.64H47.4187L47.3687 57ZM51.7702 64.06C51.2502 64.06 50.7502 63.9767 50.2702 63.81C49.7969 63.6433 49.4302 63.4233 49.1702 63.15L49.4602 62.58C49.7135 62.8333 50.0502 63.04 50.4702 63.2C50.8902 63.3533 51.3235 63.43 51.7702 63.43C52.3969 63.43 52.8669 63.3167 53.1802 63.09C53.4935 62.8567 53.6502 62.5567 53.6502 62.19C53.6502 61.91 53.5635 61.6867 53.3902 61.52C53.2235 61.3533 53.0169 61.2267 52.7702 61.14C52.5235 61.0467 52.1802 60.9467 51.7402 60.84C51.2135 60.7067 50.7935 60.58 50.4802 60.46C50.1669 60.3333 49.8969 60.1433 49.6702 59.89C49.4502 59.6367 49.3402 59.2933 49.3402 58.86C49.3402 58.5067 49.4335 58.1867 49.6202 57.9C49.8069 57.6067 50.0935 57.3733 50.4802 57.2C50.8669 57.0267 51.3469 56.94 51.9202 56.94C52.3202 56.94 52.7102 56.9967 53.0902 57.11C53.4769 57.2167 53.8102 57.3667 54.0902 57.56L53.8402 58.15C53.5469 57.9567 53.2335 57.8133 52.9002 57.72C52.5669 57.62 52.2402 57.57 51.9202 57.57C51.3069 57.57 50.8435 57.69 50.5302 57.93C50.2235 58.1633 50.0702 58.4667 50.0702 58.84C50.0702 59.12 50.1535 59.3467 50.3202 59.52C50.4935 59.6867 50.7069 59.8167 50.9602 59.91C51.2202 59.9967 51.5669 60.0933 52.0002 60.2C52.5135 60.3267 52.9269 60.4533 53.2402 60.58C53.5602 60.7 53.8302 60.8867 54.0502 61.14C54.2702 61.3867 54.3802 61.7233 54.3802 62.15C54.3802 62.5033 54.2835 62.8267 54.0902 63.12C53.9035 63.4067 53.6135 63.6367 53.2202 63.81C52.8269 63.9767 52.3435 64.06 51.7702 64.06ZM61.6497 64.06C60.9564 64.06 60.3297 63.9067 59.7697 63.6C59.2164 63.2933 58.7797 62.87 58.4597 62.33C58.1464 61.7833 57.9897 61.1733 57.9897 60.5C57.9897 59.8267 58.1464 59.22 58.4597 58.68C58.7797 58.1333 59.2197 57.7067 59.7797 57.4C60.3397 57.0933 60.9664 56.94 61.6597 56.94C62.1797 56.94 62.6597 57.0267 63.0997 57.2C63.5397 57.3733 63.9131 57.6267 64.2197 57.96L63.7497 58.43C63.2031 57.8767 62.5131 57.6 61.6797 57.6C61.1264 57.6 60.6231 57.7267 60.1697 57.98C59.7164 58.2333 59.3597 58.58 59.0997 59.02C58.8464 59.46 58.7197 59.9533 58.7197 60.5C58.7197 61.0467 58.8464 61.54 59.0997 61.98C59.3597 62.42 59.7164 62.7667 60.1697 63.02C60.6231 63.2733 61.1264 63.4 61.6797 63.4C62.5197 63.4 63.2097 63.12 63.7497 62.56L64.2197 63.03C63.9131 63.3633 63.5364 63.62 63.0897 63.8C62.6497 63.9733 62.1697 64.06 61.6497 64.06ZM68.7107 64.06C68.0174 64.06 67.3874 63.9067 66.8207 63.6C66.2607 63.2867 65.8207 62.86 65.5007 62.32C65.1874 61.78 65.0307 61.1733 65.0307 60.5C65.0307 59.8267 65.1874 59.22 65.5007 58.68C65.8207 58.14 66.2607 57.7167 66.8207 57.41C67.3874 57.0967 68.0174 56.94 68.7107 56.94C69.4041 56.94 70.0274 57.0933 70.5807 57.4C71.1407 57.7067 71.5807 58.1333 71.9007 58.68C72.2207 59.22 72.3807 59.8267 72.3807 60.5C72.3807 61.1733 72.2207 61.7833 71.9007 62.33C71.5807 62.87 71.1407 63.2933 70.5807 63.6C70.0274 63.9067 69.4041 64.06 68.7107 64.06ZM68.7107 63.4C69.2641 63.4 69.7641 63.2767 70.2107 63.03C70.6574 62.7767 71.0074 62.43 71.2607 61.99C71.5141 61.5433 71.6407 61.0467 71.6407 60.5C71.6407 59.9533 71.5141 59.46 71.2607 59.02C71.0074 58.5733 70.6574 58.2267 70.2107 57.98C69.7641 57.7267 69.2641 57.6 68.7107 57.6C68.1574 57.6 67.6541 57.7267 67.2007 57.98C66.7541 58.2267 66.4007 58.5733 66.1407 59.02C65.8874 59.46 65.7607 59.9533 65.7607 60.5C65.7607 61.0467 65.8874 61.5433 66.1407 61.99C66.4007 62.43 66.7541 62.7767 67.2007 63.03C67.6541 63.2767 68.1574 63.4 68.7107 63.4ZM77.0994 64.06C76.4061 64.06 75.7761 63.9067 75.2094 63.6C74.6494 63.2867 74.2094 62.86 73.8894 62.32C73.5761 61.78 73.4194 61.1733 73.4194 60.5C73.4194 59.8267 73.5761 59.22 73.8894 58.68C74.2094 58.14 74.6494 57.7167 75.2094 57.41C75.7761 57.0967 76.4061 56.94 77.0994 56.94C77.7927 56.94 78.4161 57.0933 78.9694 57.4C79.5294 57.7067 79.9694 58.1333 80.2894 58.68C80.6094 59.22 80.7694 59.8267 80.7694 60.5C80.7694 61.1733 80.6094 61.7833 80.2894 62.33C79.9694 62.87 79.5294 63.2933 78.9694 63.6C78.4161 63.9067 77.7927 64.06 77.0994 64.06ZM77.0994 63.4C77.6527 63.4 78.1527 63.2767 78.5994 63.03C79.0461 62.7767 79.3961 62.43 79.6494 61.99C79.9027 61.5433 80.0294 61.0467 80.0294 60.5C80.0294 59.9533 79.9027 59.46 79.6494 59.02C79.3961 58.5733 79.0461 58.2267 78.5994 57.98C78.1527 57.7267 77.6527 57.6 77.0994 57.6C76.5461 57.6 76.0427 57.7267 75.5894 57.98C75.1427 58.2267 74.7894 58.5733 74.5294 59.02C74.2761 59.46 74.1494 59.9533 74.1494 60.5C74.1494 61.0467 74.2761 61.5433 74.5294 61.99C74.7894 62.43 75.1427 62.7767 75.5894 63.03C76.0427 63.2767 76.5461 63.4 77.0994 63.4ZM84.5981 60.71L83.1681 62.16V64H82.4281V57H83.1681V61.23L87.2781 57H88.1281L85.0981 60.17L88.3381 64H87.4581L84.5981 60.71ZM96.5446 62.13H92.6446L91.8046 64H91.0346L94.2346 57H94.9646L98.1646 64H97.3846L96.5446 62.13ZM96.2746 61.53L94.5946 57.77L92.9146 61.53H96.2746ZM104.98 64.06C104.286 64.06 103.66 63.9067 103.1 63.6C102.546 63.2933 102.11 62.87 101.79 62.33C101.476 61.7833 101.32 61.1733 101.32 60.5C101.32 59.8267 101.476 59.22 101.79 58.68C102.11 58.1333 102.55 57.7067 103.11 57.4C103.67 57.0933 104.296 56.94 104.99 56.94C105.51 56.94 105.99 57.0267 106.43 57.2C106.87 57.3733 107.243 57.6267 107.55 57.96L107.08 58.43C106.533 57.8767 105.843 57.6 105.01 57.6C104.456 57.6 103.953 57.7267 103.5 57.98C103.046 58.2333 102.69 58.58 102.43 59.02C102.176 59.46 102.05 59.9533 102.05 60.5C102.05 61.0467 102.176 61.54 102.43 61.98C102.69 62.42 103.046 62.7667 103.5 63.02C103.953 63.2733 104.456 63.4 105.01 63.4C105.85 63.4 106.54 63.12 107.08 62.56L107.55 63.03C107.243 63.3633 106.866 63.62 106.42 63.8C105.98 63.9733 105.5 64.06 104.98 64.06ZM112.041 64.06C111.347 64.06 110.717 63.9067 110.151 63.6C109.591 63.2867 109.151 62.86 108.831 62.32C108.517 61.78 108.361 61.1733 108.361 60.5C108.361 59.8267 108.517 59.22 108.831 58.68C109.151 58.14 109.591 57.7167 110.151 57.41C110.717 57.0967 111.347 56.94 112.041 56.94C112.734 56.94 113.357 57.0933 113.911 57.4C114.471 57.7067 114.911 58.1333 115.231 58.68C115.551 59.22 115.711 59.8267 115.711 60.5C115.711 61.1733 115.551 61.7833 115.231 62.33C114.911 62.87 114.471 63.2933 113.911 63.6C113.357 63.9067 112.734 64.06 112.041 64.06ZM112.041 63.4C112.594 63.4 113.094 63.2767 113.541 63.03C113.987 62.7767 114.337 62.43 114.591 61.99C114.844 61.5433 114.971 61.0467 114.971 60.5C114.971 59.9533 114.844 59.46 114.591 59.02C114.337 58.5733 113.987 58.2267 113.541 57.98C113.094 57.7267 112.594 57.6 112.041 57.6C111.487 57.6 110.984 57.7267 110.531 57.98C110.084 58.2267 109.731 58.5733 109.471 59.02C109.217 59.46 109.091 59.9533 109.091 60.5C109.091 61.0467 109.217 61.5433 109.471 61.99C109.731 62.43 110.084 62.7767 110.531 63.03C110.984 63.2767 111.487 63.4 112.041 63.4ZM120.429 64.06C119.736 64.06 119.106 63.9067 118.539 63.6C117.979 63.2867 117.539 62.86 117.219 62.32C116.906 61.78 116.749 61.1733 116.749 60.5C116.749 59.8267 116.906 59.22 117.219 58.68C117.539 58.14 117.979 57.7167 118.539 57.41C119.106 57.0967 119.736 56.94 120.429 56.94C121.123 56.94 121.746 57.0933 122.299 57.4C122.859 57.7067 123.299 58.1333 123.619 58.68C123.939 59.22 124.099 59.8267 124.099 60.5C124.099 61.1733 123.939 61.7833 123.619 62.33C123.299 62.87 122.859 63.2933 122.299 63.6C121.746 63.9067 121.123 64.06 120.429 64.06ZM120.429 63.4C120.983 63.4 121.483 63.2767 121.929 63.03C122.376 62.7767 122.726 62.43 122.979 61.99C123.233 61.5433 123.359 61.0467 123.359 60.5C123.359 59.9533 123.233 59.46 122.979 59.02C122.726 58.5733 122.376 58.2267 121.929 57.98C121.483 57.7267 120.983 57.6 120.429 57.6C119.876 57.6 119.373 57.7267 118.919 57.98C118.473 58.2267 118.119 58.5733 117.859 59.02C117.606 59.46 117.479 59.9533 117.479 60.5C117.479 61.0467 117.606 61.5433 117.859 61.99C118.119 62.43 118.473 62.7767 118.919 63.03C119.373 63.2767 119.876 63.4 120.429 63.4ZM125.758 57H126.498V63.36H130.418V64H125.758V57ZM134.264 57H137.114C137.854 57 138.507 57.15 139.074 57.45C139.641 57.7433 140.081 58.1567 140.394 58.69C140.707 59.2167 140.864 59.82 140.864 60.5C140.864 61.18 140.707 61.7867 140.394 62.32C140.081 62.8467 139.641 63.26 139.074 63.56C138.507 63.8533 137.854 64 137.114 64H134.264V57ZM137.074 63.36C137.687 63.36 138.224 63.24 138.684 63C139.144 62.7533 139.501 62.4167 139.754 61.99C140.007 61.5567 140.134 61.06 140.134 60.5C140.134 59.94 140.007 59.4467 139.754 59.02C139.501 58.5867 139.144 58.25 138.684 58.01C138.224 57.7633 137.687 57.64 137.074 57.64H135.004V63.36H137.074ZM142.526 57H143.266V64H142.526V57ZM147.473 64.06C146.953 64.06 146.453 63.9767 145.973 63.81C145.5 63.6433 145.133 63.4233 144.873 63.15L145.163 62.58C145.417 62.8333 145.753 63.04 146.173 63.2C146.593 63.3533 147.027 63.43 147.473 63.43C148.1 63.43 148.57 63.3167 148.883 63.09C149.197 62.8567 149.353 62.5567 149.353 62.19C149.353 61.91 149.267 61.6867 149.093 61.52C148.927 61.3533 148.72 61.2267 148.473 61.14C148.227 61.0467 147.883 60.9467 147.443 60.84C146.917 60.7067 146.497 60.58 146.183 60.46C145.87 60.3333 145.6 60.1433 145.373 59.89C145.153 59.6367 145.043 59.2933 145.043 58.86C145.043 58.5067 145.137 58.1867 145.323 57.9C145.51 57.6067 145.797 57.3733 146.183 57.2C146.57 57.0267 147.05 56.94 147.623 56.94C148.023 56.94 148.413 56.9967 148.793 57.11C149.18 57.2167 149.513 57.3667 149.793 57.56L149.543 58.15C149.25 57.9567 148.937 57.8133 148.603 57.72C148.27 57.62 147.943 57.57 147.623 57.57C147.01 57.57 146.547 57.69 146.233 57.93C145.927 58.1633 145.773 58.4667 145.773 58.84C145.773 59.12 145.857 59.3467 146.023 59.52C146.197 59.6867 146.41 59.8167 146.663 59.91C146.923 59.9967 147.27 60.0933 147.703 60.2C148.217 60.3267 148.63 60.4533 148.943 60.58C149.263 60.7 149.533 60.8867 149.753 61.14C149.973 61.3867 150.083 61.7233 150.083 62.15C150.083 62.5033 149.987 62.8267 149.793 63.12C149.607 63.4067 149.317 63.6367 148.923 63.81C148.53 63.9767 148.047 64.06 147.473 64.06ZM157.546 57V64H156.816V60.77H152.436V64H151.696V57H152.436V60.12H156.816V57H157.546ZM66.5762 69.64H64.1162V69H69.7762V69.64H67.3162V76H66.5762V69.64ZM73.9207 76.06C73.2274 76.06 72.5974 75.9067 72.0307 75.6C71.4707 75.2867 71.0307 74.86 70.7107 74.32C70.3974 73.78 70.2407 73.1733 70.2407 72.5C70.2407 71.8267 70.3974 71.22 70.7107 70.68C71.0307 70.14 71.4707 69.7167 72.0307 69.41C72.5974 69.0967 73.2274 68.94 73.9207 68.94C74.614 68.94 75.2374 69.0933 75.7907 69.4C76.3507 69.7067 76.7907 70.1333 77.1107 70.68C77.4307 71.22 77.5907 71.8267 77.5907 72.5C77.5907 73.1733 77.4307 73.7833 77.1107 74.33C76.7907 74.87 76.3507 75.2933 75.7907 75.6C75.2374 75.9067 74.614 76.06 73.9207 76.06ZM73.9207 75.4C74.474 75.4 74.974 75.2767 75.4207 75.03C75.8674 74.7767 76.2174 74.43 76.4707 73.99C76.724 73.5433 76.8507 73.0467 76.8507 72.5C76.8507 71.9533 76.724 71.46 76.4707 71.02C76.2174 70.5733 75.8674 70.2267 75.4207 69.98C74.974 69.7267 74.474 69.6 73.9207 69.6C73.3674 69.6 72.864 69.7267 72.4107 69.98C71.964 70.2267 71.6107 70.5733 71.3507 71.02C71.0974 71.46 70.9707 71.9533 70.9707 72.5C70.9707 73.0467 71.0974 73.5433 71.3507 73.99C71.6107 74.43 71.964 74.7767 72.4107 75.03C72.864 75.2767 73.3674 75.4 73.9207 75.4ZM84.1794 72.5H84.8894V75.17C84.5627 75.4567 84.176 75.6767 83.7294 75.83C83.2827 75.9833 82.8127 76.06 82.3194 76.06C81.6194 76.06 80.9894 75.9067 80.4294 75.6C79.8694 75.2933 79.4294 74.87 79.1094 74.33C78.7894 73.7833 78.6294 73.1733 78.6294 72.5C78.6294 71.8267 78.7894 71.22 79.1094 70.68C79.4294 70.1333 79.8694 69.7067 80.4294 69.4C80.9894 69.0933 81.6227 68.94 82.3294 68.94C82.8627 68.94 83.3527 69.0267 83.7994 69.2C84.246 69.3667 84.6227 69.6167 84.9294 69.95L84.4694 70.42C83.916 69.8733 83.2127 69.6 82.3594 69.6C81.7927 69.6 81.2794 69.7267 80.8194 69.98C80.366 70.2267 80.0094 70.5733 79.7494 71.02C79.4894 71.46 79.3594 71.9533 79.3594 72.5C79.3594 73.0467 79.4894 73.54 79.7494 73.98C80.0094 74.42 80.366 74.7667 80.8194 75.02C81.2727 75.2733 81.7827 75.4 82.3494 75.4C83.0694 75.4 83.6794 75.22 84.1794 74.86V72.5ZM91.9338 75.36V76H86.9838V69H91.7838V69.64H87.7238V72.13H91.3438V72.76H87.7238V75.36H91.9338ZM95.0332 69.64H92.5732V69H98.2332V69.64H95.7732V76H95.0332V69.64ZM105.265 69V76H104.535V72.77H100.155V76H99.4154V69H100.155V72.12H104.535V69H105.265ZM112.5 75.36V76H107.55V69H112.35V69.64H108.29V72.13H111.91V72.76H108.29V75.36H112.5ZM119.02 76L117.42 73.75C117.24 73.77 117.053 73.78 116.86 73.78H114.98V76H114.24V69H116.86C117.753 69 118.453 69.2133 118.96 69.64C119.466 70.0667 119.72 70.6533 119.72 71.4C119.72 71.9467 119.58 72.41 119.3 72.79C119.026 73.1633 118.633 73.4333 118.12 73.6L119.83 76H119.02ZM116.84 73.15C117.533 73.15 118.063 72.9967 118.43 72.69C118.796 72.3833 118.98 71.9533 118.98 71.4C118.98 70.8333 118.796 70.4 118.43 70.1C118.063 69.7933 117.533 69.64 116.84 69.64H114.98V73.15H116.84ZM121.206 69H122.046L121.896 73.9H121.346L121.206 69ZM121.626 76.05C121.48 76.05 121.353 76 121.246 75.9C121.146 75.7933 121.096 75.67 121.096 75.53C121.096 75.3833 121.146 75.2633 121.246 75.17C121.346 75.07 121.473 75.02 121.626 75.02C121.773 75.02 121.896 75.07 121.996 75.17C122.096 75.2633 122.146 75.3833 122.146 75.53C122.146 75.67 122.096 75.7933 121.996 75.9C121.896 76 121.773 76.05 121.626 76.05Z" fill="black"/>
</svg>
