<svg width="344" height="160" viewBox="0 0 344 160" fill="none" xmlns="http://www.w3.org/2000/svg">
<path fill-rule="evenodd" clip-rule="evenodd" d="M80 1C36.3695 1 1 36.3695 1 80C1 123.63 36.3695 159 80 159H234C263.639 159 289.466 142.677 302.983 118.531L340.548 122.584C342.587 122.804 343.562 120.587 341.974 119.343L311.487 95.4638C312.48 90.463 313 85.2923 313 80C313 36.3695 277.63 1 234 1H80Z" fill="white"/>
<path d="M302.983 118.531L303.09 117.537L302.433 117.466L302.11 118.043L302.983 118.531ZM340.548 122.584L340.655 121.59L340.548 122.584ZM341.974 119.343L342.59 118.556V118.556L341.974 119.343ZM311.487 95.4638L310.506 95.2692L310.387 95.8721L310.871 96.2511L311.487 95.4638ZM2 80C2 36.9218 36.9218 2 80 2V0C35.8172 0 0 35.8172 0 80H2ZM80 158C36.9218 158 2 123.078 2 80H0C0 124.183 35.8172 160 80 160V158ZM234 158H80V160H234V158ZM302.11 118.043C288.763 141.886 263.263 158 234 158V160C264.016 160 290.169 143.469 303.855 119.019L302.11 118.043ZM302.875 119.525L340.44 123.578L340.655 121.59L303.09 117.537L302.875 119.525ZM340.44 123.578C341.864 123.732 343.049 123.022 343.536 121.915C344.029 120.796 343.728 119.447 342.59 118.556L341.357 120.13C341.808 120.483 341.814 120.865 341.706 121.11C341.593 121.367 341.27 121.656 340.655 121.59L340.44 123.578ZM342.59 118.556L312.104 94.6766L310.871 96.2511L341.357 120.13L342.59 118.556ZM312 80C312 85.2266 311.486 90.3321 310.506 95.2692L312.468 95.6585C313.473 90.5939 314 85.358 314 80H312ZM234 2C277.078 2 312 36.9218 312 80H314C314 35.8172 278.183 0 234 0V2ZM80 2H234V0H80V2Z" fill="#F99D21"/>
<path d="M75.4106 33.8V45H74.2426V39.832H67.2346V45H66.0506V33.8H67.2346V38.792H74.2426V33.8H75.4106ZM86.9862 43.976V45H79.0662V33.8H86.7462V34.824H80.2502V38.808H86.0422V39.816H80.2502V43.976H86.9862ZM93.4687 41.128V45H92.3007V41.128L87.8207 33.8H89.0847L92.9247 40.088L96.7647 33.8H97.9487L93.4687 41.128ZM99.0948 43.336C99.3401 43.336 99.5428 43.4213 99.7028 43.592C99.8628 43.752 99.9428 43.9547 99.9428 44.2C99.9428 44.328 99.9215 44.4667 99.8788 44.616C99.8468 44.7653 99.7935 44.936 99.7188 45.128L99.0468 47.336H98.2788L98.8228 45.016C98.6521 44.9627 98.5135 44.8667 98.4068 44.728C98.3001 44.5787 98.2468 44.4027 98.2468 44.2C98.2468 43.9547 98.3268 43.752 98.4868 43.592C98.6468 43.4213 98.8495 43.336 99.0948 43.336ZM118.417 33.8V45H117.281V36.04L112.881 43.576H112.321L107.921 36.088V45H106.785V33.8H107.761L112.625 42.104L117.441 33.8H118.417ZM125.906 41.128V45H124.738V41.128L120.258 33.8H121.522L125.362 40.088L129.202 33.8H130.386L125.906 41.128ZM145.77 33.8V45H144.794L137.594 35.912V45H136.41V33.8H137.386L144.602 42.888V33.8H145.77ZM156.45 42.008H150.21L148.866 45H147.634L152.754 33.8H153.922L159.042 45H157.794L156.45 42.008ZM156.018 41.048L153.33 35.032L150.642 41.048H156.018ZM172.526 33.8V45H171.39V36.04L166.99 43.576H166.43L162.03 36.088V45H160.894V33.8H161.87L166.734 42.104L171.55 33.8H172.526ZM184.096 43.976V45H176.176V33.8H183.856V34.824H177.36V38.808H183.152V39.816H177.36V43.976H184.096ZM191.066 33.8H192.25V45H191.066V33.8ZM198.982 45.096C198.15 45.096 197.35 44.9627 196.582 44.696C195.825 44.4293 195.238 44.0773 194.822 43.64L195.286 42.728C195.692 43.1333 196.23 43.464 196.902 43.72C197.574 43.9653 198.268 44.088 198.982 44.088C199.985 44.088 200.737 43.9067 201.238 43.544C201.74 43.1707 201.99 42.6907 201.99 42.104C201.99 41.656 201.852 41.2987 201.574 41.032C201.308 40.7653 200.977 40.5627 200.582 40.424C200.188 40.2747 199.638 40.1147 198.934 39.944C198.092 39.7307 197.42 39.528 196.918 39.336C196.417 39.1333 195.985 38.8293 195.622 38.424C195.27 38.0187 195.094 37.4693 195.094 36.776C195.094 36.2107 195.244 35.6987 195.542 35.24C195.841 34.7707 196.3 34.3973 196.918 34.12C197.537 33.8427 198.305 33.704 199.222 33.704C199.862 33.704 200.486 33.7947 201.094 33.976C201.713 34.1467 202.246 34.3867 202.694 34.696L202.294 35.64C201.825 35.3307 201.324 35.1013 200.79 34.952C200.257 34.792 199.734 34.712 199.222 34.712C198.241 34.712 197.5 34.904 196.998 35.288C196.508 35.6613 196.262 36.1467 196.262 36.744C196.262 37.192 196.396 37.5547 196.662 37.832C196.94 38.0987 197.281 38.3067 197.686 38.456C198.102 38.5947 198.657 38.7493 199.35 38.92C200.172 39.1227 200.833 39.3253 201.334 39.528C201.846 39.72 202.278 40.0187 202.63 40.424C202.982 40.8187 203.158 41.3573 203.158 42.04C203.158 42.6053 203.004 43.1227 202.694 43.592C202.396 44.0507 201.932 44.4187 201.302 44.696C200.673 44.9627 199.9 45.096 198.982 45.096ZM214.118 33.8C215.547 33.8 216.667 34.1413 217.478 34.824C218.288 35.5067 218.694 36.4453 218.694 37.64C218.694 38.8347 218.288 39.7733 217.478 40.456C216.667 41.128 215.547 41.464 214.118 41.464H211.11V45H209.926V33.8H214.118ZM214.086 40.424C215.195 40.424 216.043 40.184 216.63 39.704C217.216 39.2133 217.51 38.5253 217.51 37.64C217.51 36.7333 217.216 36.04 216.63 35.56C216.043 35.0693 215.195 34.824 214.086 34.824H211.11V40.424H214.086ZM227.715 42.008H221.475L220.131 45H218.899L224.019 33.8H225.187L230.307 45H229.059L227.715 42.008ZM227.283 41.048L224.595 35.032L221.907 41.048H227.283ZM243.792 33.8V45H242.656V36.04L238.256 43.576H237.696L233.296 36.088V45H232.16V33.8H233.136L238 42.104L242.816 33.8H243.792ZM247.025 33.8H248.369L248.129 41.64H247.249L247.025 33.8ZM247.697 45.08C247.463 45.08 247.26 45 247.089 44.84C246.929 44.6693 246.849 44.472 246.849 44.248C246.849 44.0133 246.929 43.8213 247.089 43.672C247.249 43.512 247.452 43.432 247.697 43.432C247.932 43.432 248.129 43.512 248.289 43.672C248.449 43.8213 248.529 44.0133 248.529 44.248C248.529 44.472 248.449 44.6693 248.289 44.84C248.129 45 247.932 45.08 247.697 45.08ZM42.1053 53.8H43.2893V65H42.1053V53.8ZM58.1449 62.008H51.9049L50.5609 65H49.3289L54.4489 53.8H55.6169L60.7369 65H59.4889L58.1449 62.008ZM57.7129 61.048L55.0249 55.032L52.3369 61.048H57.7129ZM74.2216 53.8V65H73.0856V56.04L68.6856 63.576H68.1256L63.7256 56.088V65H62.5896V53.8H63.5656L68.4296 62.104L73.2456 53.8H74.2216ZM89.0824 62.008H82.8424L81.4984 65H80.2664L85.3864 53.8H86.5544L91.6744 65H90.4264L89.0824 62.008ZM88.6504 61.048L85.9624 55.032L83.2744 61.048H88.6504ZM98.8986 54.824V59.224H104.691V60.248H98.8986V65H97.7146V53.8H105.395V54.824H98.8986ZM112.595 65.096C111.486 65.096 110.478 64.8507 109.571 64.36C108.675 63.8587 107.971 63.176 107.459 62.312C106.958 61.448 106.707 60.4773 106.707 59.4C106.707 58.3227 106.958 57.352 107.459 56.488C107.971 55.624 108.675 54.9467 109.571 54.456C110.478 53.9547 111.486 53.704 112.595 53.704C113.704 53.704 114.702 53.9493 115.587 54.44C116.483 54.9307 117.187 55.6133 117.699 56.488C118.211 57.352 118.467 58.3227 118.467 59.4C118.467 60.4773 118.211 61.4533 117.699 62.328C117.187 63.192 116.483 63.8693 115.587 64.36C114.702 64.8507 113.704 65.096 112.595 65.096ZM112.595 64.04C113.48 64.04 114.28 63.8427 114.995 63.448C115.71 63.0427 116.27 62.488 116.675 61.784C117.08 61.0693 117.283 60.2747 117.283 59.4C117.283 58.5253 117.08 57.736 116.675 57.032C116.27 56.3173 115.71 55.7627 114.995 55.368C114.28 54.9627 113.48 54.76 112.595 54.76C111.71 54.76 110.904 54.9627 110.179 55.368C109.464 55.7627 108.899 56.3173 108.483 57.032C108.078 57.736 107.875 58.5253 107.875 59.4C107.875 60.2747 108.078 61.0693 108.483 61.784C108.899 62.488 109.464 63.0427 110.179 63.448C110.904 63.8427 111.71 64.04 112.595 64.04ZM126.017 65.096C124.908 65.096 123.9 64.8507 122.993 64.36C122.097 63.8587 121.393 63.176 120.881 62.312C120.38 61.448 120.129 60.4773 120.129 59.4C120.129 58.3227 120.38 57.352 120.881 56.488C121.393 55.624 122.097 54.9467 122.993 54.456C123.9 53.9547 124.908 53.704 126.017 53.704C127.126 53.704 128.124 53.9493 129.009 54.44C129.905 54.9307 130.609 55.6133 131.121 56.488C131.633 57.352 131.889 58.3227 131.889 59.4C131.889 60.4773 131.633 61.4533 131.121 62.328C130.609 63.192 129.905 63.8693 129.009 64.36C128.124 64.8507 127.126 65.096 126.017 65.096ZM126.017 64.04C126.902 64.04 127.702 63.8427 128.417 63.448C129.132 63.0427 129.692 62.488 130.097 61.784C130.502 61.0693 130.705 60.2747 130.705 59.4C130.705 58.5253 130.502 57.736 130.097 57.032C129.692 56.3173 129.132 55.7627 128.417 55.368C127.702 54.9627 126.902 54.76 126.017 54.76C125.132 54.76 124.326 54.9627 123.601 55.368C122.886 55.7627 122.321 56.3173 121.905 57.032C121.5 57.736 121.297 58.5253 121.297 59.4C121.297 60.2747 121.5 61.0693 121.905 61.784C122.321 62.488 122.886 63.0427 123.601 63.448C124.326 63.8427 125.132 64.04 126.017 64.04ZM134.543 53.8H139.103C140.287 53.8 141.332 54.04 142.239 54.52C143.145 54.9893 143.849 55.6507 144.351 56.504C144.852 57.3467 145.103 58.312 145.103 59.4C145.103 60.488 144.852 61.4587 144.351 62.312C143.849 63.1547 143.145 63.816 142.239 64.296C141.332 64.7653 140.287 65 139.103 65H134.543V53.8ZM139.039 63.976C140.02 63.976 140.879 63.784 141.615 63.4C142.351 63.0053 142.921 62.4667 143.327 61.784C143.732 61.0907 143.935 60.296 143.935 59.4C143.935 58.504 143.732 57.7147 143.327 57.032C142.921 56.3387 142.351 55.8 141.615 55.416C140.879 55.0213 140.02 54.824 139.039 54.824H135.727V63.976H139.039ZM159.005 59.224C159.741 59.384 160.306 59.704 160.701 60.184C161.106 60.6533 161.309 61.2613 161.309 62.008C161.309 62.968 160.952 63.7093 160.237 64.232C159.533 64.744 158.488 65 157.101 65H151.949V53.8H156.781C158.029 53.8 158.994 54.0507 159.677 54.552C160.37 55.0533 160.717 55.7627 160.717 56.68C160.717 57.2987 160.562 57.8267 160.253 58.264C159.954 58.6907 159.538 59.0107 159.005 59.224ZM153.133 54.776V58.84H156.701C157.608 58.84 158.306 58.6693 158.797 58.328C159.288 57.976 159.533 57.4693 159.533 56.808C159.533 56.1467 159.288 55.6453 158.797 55.304C158.306 54.952 157.608 54.776 156.701 54.776H153.133ZM157.085 64.024C158.088 64.024 158.845 63.8533 159.357 63.512C159.869 63.1707 160.125 62.6373 160.125 61.912C160.125 60.5147 159.112 59.816 157.085 59.816H153.133V64.024H157.085ZM164.012 53.8H165.196V63.976H171.468V65H164.012V53.8ZM178.111 65.096C177.001 65.096 175.993 64.8507 175.087 64.36C174.191 63.8587 173.487 63.176 172.975 62.312C172.473 61.448 172.223 60.4773 172.223 59.4C172.223 58.3227 172.473 57.352 172.975 56.488C173.487 55.624 174.191 54.9467 175.087 54.456C175.993 53.9547 177.001 53.704 178.111 53.704C179.22 53.704 180.217 53.9493 181.103 54.44C181.999 54.9307 182.703 55.6133 183.215 56.488C183.727 57.352 183.983 58.3227 183.983 59.4C183.983 60.4773 183.727 61.4533 183.215 62.328C182.703 63.192 181.999 63.8693 181.103 64.36C180.217 64.8507 179.22 65.096 178.111 65.096ZM178.111 64.04C178.996 64.04 179.796 63.8427 180.511 63.448C181.225 63.0427 181.785 62.488 182.191 61.784C182.596 61.0693 182.799 60.2747 182.799 59.4C182.799 58.5253 182.596 57.736 182.191 57.032C181.785 56.3173 181.225 55.7627 180.511 55.368C179.796 54.9627 178.996 54.76 178.111 54.76C177.225 54.76 176.42 54.9627 175.695 55.368C174.98 55.7627 174.415 56.3173 173.999 57.032C173.593 57.736 173.391 58.5253 173.391 59.4C173.391 60.2747 173.593 61.0693 173.999 61.784C174.415 62.488 174.98 63.0427 175.695 63.448C176.42 63.8427 177.225 64.04 178.111 64.04ZM194.525 59.4H195.661V63.672C195.138 64.1307 194.519 64.4827 193.805 64.728C193.09 64.9733 192.338 65.096 191.549 65.096C190.429 65.096 189.421 64.8507 188.525 64.36C187.629 63.8693 186.925 63.192 186.413 62.328C185.901 61.4533 185.645 60.4773 185.645 59.4C185.645 58.3227 185.901 57.352 186.413 56.488C186.925 55.6133 187.629 54.9307 188.525 54.44C189.421 53.9493 190.434 53.704 191.565 53.704C192.418 53.704 193.202 53.8427 193.917 54.12C194.631 54.3867 195.234 54.7867 195.725 55.32L194.989 56.072C194.103 55.1973 192.978 54.76 191.613 54.76C190.706 54.76 189.885 54.9627 189.149 55.368C188.423 55.7627 187.853 56.3173 187.437 57.032C187.021 57.736 186.812 58.5253 186.812 59.4C186.812 60.2747 187.021 61.064 187.437 61.768C187.853 62.472 188.423 63.0267 189.149 63.432C189.874 63.8373 190.69 64.04 191.597 64.04C192.749 64.04 193.725 63.752 194.525 63.176V59.4ZM206.9 59.4H208.036V63.672C207.513 64.1307 206.894 64.4827 206.18 64.728C205.465 64.9733 204.713 65.096 203.924 65.096C202.804 65.096 201.796 64.8507 200.9 64.36C200.004 63.8693 199.3 63.192 198.788 62.328C198.276 61.4533 198.02 60.4773 198.02 59.4C198.02 58.3227 198.276 57.352 198.788 56.488C199.3 55.6133 200.004 54.9307 200.9 54.44C201.796 53.9493 202.809 53.704 203.94 53.704C204.793 53.704 205.577 53.8427 206.292 54.12C207.006 54.3867 207.609 54.7867 208.1 55.32L207.364 56.072C206.478 55.1973 205.353 54.76 203.988 54.76C203.081 54.76 202.26 54.9627 201.524 55.368C200.798 55.7627 200.228 56.3173 199.812 57.032C199.396 57.736 199.188 58.5253 199.188 59.4C199.188 60.2747 199.396 61.064 199.812 61.768C200.228 62.472 200.798 63.0267 201.524 63.432C202.249 63.8373 203.065 64.04 203.972 64.04C205.124 64.04 206.1 63.752 206.9 63.176V59.4ZM219.307 63.976V65H211.387V53.8H219.067V54.824H212.571V58.808H218.363V59.816H212.571V63.976H219.307ZM229.738 65L227.178 61.4C226.89 61.432 226.591 61.448 226.282 61.448H223.274V65H222.09V53.8H226.282C227.711 53.8 228.831 54.1413 229.642 54.824C230.452 55.5067 230.858 56.4453 230.858 57.64C230.858 58.5147 230.634 59.256 230.186 59.864C229.748 60.4613 229.119 60.8933 228.298 61.16L231.034 65H229.738ZM226.25 60.44C227.359 60.44 228.207 60.1947 228.794 59.704C229.38 59.2133 229.674 58.5253 229.674 57.64C229.674 56.7333 229.38 56.04 228.794 55.56C228.207 55.0693 227.359 54.824 226.25 54.824H223.274V60.44H226.25ZM244.864 62.008H238.624L237.28 65H236.048L241.168 53.8H242.336L247.456 65H246.208L244.864 62.008ZM244.432 61.048L241.744 55.032L239.056 61.048H244.432ZM258.668 53.8V65H257.692L250.492 55.912V65H249.308V53.8H250.284L257.5 62.888V53.8H258.668ZM262.324 53.8H266.884C268.068 53.8 269.113 54.04 270.02 54.52C270.927 54.9893 271.631 55.6507 272.132 56.504C272.633 57.3467 272.884 58.312 272.884 59.4C272.884 60.488 272.633 61.4587 272.132 62.312C271.631 63.1547 270.927 63.816 270.02 64.296C269.113 64.7653 268.068 65 266.884 65H262.324V53.8ZM266.82 63.976C267.801 63.976 268.66 63.784 269.396 63.4C270.132 63.0053 270.703 62.4667 271.108 61.784C271.513 61.0907 271.716 60.296 271.716 59.4C271.716 58.504 271.513 57.7147 271.108 57.032C270.703 56.3387 270.132 55.8 269.396 55.416C268.66 55.0213 267.801 54.824 266.82 54.824H263.508V63.976H266.82ZM54.9568 73.8H56.1408V83.976H62.4128V85H54.9568V73.8ZM69.0559 85.096C67.9466 85.096 66.9386 84.8507 66.0319 84.36C65.1359 83.8587 64.4319 83.176 63.9199 82.312C63.4186 81.448 63.1679 80.4773 63.1679 79.4C63.1679 78.3227 63.4186 77.352 63.9199 76.488C64.4319 75.624 65.1359 74.9467 66.0319 74.456C66.9386 73.9547 67.9466 73.704 69.0559 73.704C70.1653 73.704 71.1626 73.9493 72.0479 74.44C72.9439 74.9307 73.6479 75.6133 74.1599 76.488C74.6719 77.352 74.9279 78.3227 74.9279 79.4C74.9279 80.4773 74.6719 81.4533 74.1599 82.328C73.6479 83.192 72.9439 83.8693 72.0479 84.36C71.1626 84.8507 70.1653 85.096 69.0559 85.096ZM69.0559 84.04C69.9413 84.04 70.7413 83.8427 71.4559 83.448C72.1706 83.0427 72.7306 82.488 73.1359 81.784C73.5413 81.0693 73.7439 80.2747 73.7439 79.4C73.7439 78.5253 73.5413 77.736 73.1359 77.032C72.7306 76.3173 72.1706 75.7627 71.4559 75.368C70.7413 74.9627 69.9413 74.76 69.0559 74.76C68.1706 74.76 67.3653 74.9627 66.6399 75.368C65.9253 75.7627 65.3599 76.3173 64.9439 77.032C64.5386 77.736 64.3359 78.5253 64.3359 79.4C64.3359 80.2747 64.5386 81.0693 64.9439 81.784C65.3599 82.488 65.9253 83.0427 66.6399 83.448C67.3653 83.8427 68.1706 84.04 69.0559 84.04ZM86.5501 73.8L81.5901 85H80.4221L75.4621 73.8H76.7421L81.0301 83.528L85.3501 73.8H86.5501ZM96.0956 83.976V85H88.1756V73.8H95.8556V74.824H89.3596V78.808H95.1516V79.816H89.3596V83.976H96.0956ZM110.09 82.008H103.85L102.506 85H101.274L106.394 73.8H107.562L112.682 85H111.434L110.09 82.008ZM109.658 81.048L106.97 75.032L104.282 81.048H109.658ZM122.455 83.976V85H114.535V73.8H122.215V74.824H115.719V78.808H121.511V79.816H115.719V83.976H122.455ZM128.326 85.096C127.494 85.096 126.694 84.9627 125.926 84.696C125.169 84.4293 124.582 84.0773 124.166 83.64L124.63 82.728C125.035 83.1333 125.574 83.464 126.246 83.72C126.918 83.9653 127.611 84.088 128.326 84.088C129.329 84.088 130.081 83.9067 130.582 83.544C131.083 83.1707 131.334 82.6907 131.334 82.104C131.334 81.656 131.195 81.2987 130.918 81.032C130.651 80.7653 130.321 80.5627 129.926 80.424C129.531 80.2747 128.982 80.1147 128.278 79.944C127.435 79.7307 126.763 79.528 126.262 79.336C125.761 79.1333 125.329 78.8293 124.966 78.424C124.614 78.0187 124.438 77.4693 124.438 76.776C124.438 76.2107 124.587 75.6987 124.886 75.24C125.185 74.7707 125.643 74.3973 126.262 74.12C126.881 73.8427 127.649 73.704 128.566 73.704C129.206 73.704 129.83 73.7947 130.438 73.976C131.057 74.1467 131.59 74.3867 132.038 74.696L131.638 75.64C131.169 75.3307 130.667 75.1013 130.134 74.952C129.601 74.792 129.078 74.712 128.566 74.712C127.585 74.712 126.843 74.904 126.342 75.288C125.851 75.6613 125.606 76.1467 125.606 76.744C125.606 77.192 125.739 77.5547 126.006 77.832C126.283 78.0987 126.625 78.3067 127.03 78.456C127.446 78.5947 128.001 78.7493 128.694 78.92C129.515 79.1227 130.177 79.3253 130.678 79.528C131.19 79.72 131.622 80.0187 131.974 80.424C132.326 80.8187 132.502 81.3573 132.502 82.04C132.502 82.6053 132.347 83.1227 132.038 83.592C131.739 84.0507 131.275 84.4187 130.646 84.696C130.017 84.9627 129.243 85.096 128.326 85.096ZM137.102 74.824H133.166V73.8H142.222V74.824H138.286V85H137.102V74.824ZM153.473 73.8V85H152.305V79.832H145.297V85H144.113V73.8H145.297V78.792H152.305V73.8H153.473ZM165.049 83.976V85H157.129V73.8H164.809V74.824H158.313V78.808H164.105V79.816H158.313V83.976H165.049ZM170.008 74.824H166.072V73.8H175.128V74.824H171.192V85H170.008V74.824ZM177.019 73.8H178.203V85H177.019V73.8ZM186.711 85.096C185.602 85.096 184.599 84.8507 183.703 84.36C182.818 83.8693 182.119 83.192 181.607 82.328C181.106 81.4533 180.855 80.4773 180.855 79.4C180.855 78.3227 181.106 77.352 181.607 76.488C182.119 75.6133 182.823 74.9307 183.719 74.44C184.615 73.9493 185.618 73.704 186.727 73.704C187.559 73.704 188.327 73.8427 189.031 74.12C189.735 74.3973 190.333 74.8027 190.823 75.336L190.071 76.088C189.197 75.2027 188.093 74.76 186.759 74.76C185.874 74.76 185.069 74.9627 184.343 75.368C183.618 75.7733 183.047 76.328 182.631 77.032C182.226 77.736 182.023 78.5253 182.023 79.4C182.023 80.2747 182.226 81.064 182.631 81.768C183.047 82.472 183.618 83.0267 184.343 83.432C185.069 83.8373 185.874 84.04 186.759 84.04C188.103 84.04 189.207 83.592 190.071 82.696L190.823 83.448C190.333 83.9813 189.73 84.392 189.015 84.68C188.311 84.9573 187.543 85.096 186.711 85.096ZM197.535 73.8H202.095C203.279 73.8 204.324 74.04 205.231 74.52C206.138 74.9893 206.842 75.6507 207.343 76.504C207.844 77.3467 208.095 78.312 208.095 79.4C208.095 80.488 207.844 81.4587 207.343 82.312C206.842 83.1547 206.138 83.816 205.231 84.296C204.324 84.7653 203.279 85 202.095 85H197.535V73.8ZM202.031 83.976C203.012 83.976 203.871 83.784 204.607 83.4C205.343 83.0053 205.914 82.4667 206.319 81.784C206.724 81.0907 206.927 80.296 206.927 79.4C206.927 78.504 206.724 77.7147 206.319 77.032C205.914 76.3387 205.343 75.8 204.607 75.416C203.871 75.0213 203.012 74.824 202.031 74.824H198.719V83.976H202.031ZM210.754 73.8H211.938V85H210.754V73.8ZM218.67 85.096C217.838 85.096 217.038 84.9627 216.27 84.696C215.512 84.4293 214.926 84.0773 214.51 83.64L214.974 82.728C215.379 83.1333 215.918 83.464 216.59 83.72C217.262 83.9653 217.955 84.088 218.67 84.088C219.672 84.088 220.424 83.9067 220.926 83.544C221.427 83.1707 221.678 82.6907 221.678 82.104C221.678 81.656 221.539 81.2987 221.262 81.032C220.995 80.7653 220.664 80.5627 220.27 80.424C219.875 80.2747 219.326 80.1147 218.622 79.944C217.779 79.7307 217.107 79.528 216.606 79.336C216.104 79.1333 215.672 78.8293 215.31 78.424C214.958 78.0187 214.782 77.4693 214.782 76.776C214.782 76.2107 214.931 75.6987 215.23 75.24C215.528 74.7707 215.987 74.3973 216.606 74.12C217.224 73.8427 217.992 73.704 218.91 73.704C219.55 73.704 220.174 73.7947 220.782 73.976C221.4 74.1467 221.934 74.3867 222.382 74.696L221.982 75.64C221.512 75.3307 221.011 75.1013 220.478 74.952C219.944 74.792 219.422 74.712 218.91 74.712C217.928 74.712 217.187 74.904 216.686 75.288C216.195 75.6613 215.95 76.1467 215.95 76.744C215.95 77.192 216.083 77.5547 216.35 77.832C216.627 78.0987 216.968 78.3067 217.374 78.456C217.79 78.5947 218.344 78.7493 219.038 78.92C219.859 79.1227 220.52 79.3253 221.022 79.528C221.534 79.72 221.966 80.0187 222.318 80.424C222.67 80.8187 222.846 81.3573 222.846 82.04C222.846 82.6053 222.691 83.1227 222.382 83.592C222.083 84.0507 221.619 84.4187 220.99 84.696C220.36 84.9627 219.587 85.096 218.67 85.096ZM234.786 73.8V85H233.618V79.832H226.61V85H225.426V73.8H226.61V78.792H233.618V73.8H234.786ZM246.361 83.976V85H238.441V73.8H246.121V74.824H239.625V78.808H245.417V79.816H239.625V83.976H246.361ZM252.232 85.096C251.4 85.096 250.6 84.9627 249.832 84.696C249.075 84.4293 248.488 84.0773 248.072 83.64L248.536 82.728C248.942 83.1333 249.48 83.464 250.152 83.72C250.824 83.9653 251.518 84.088 252.232 84.088C253.235 84.088 253.987 83.9067 254.488 83.544C254.99 83.1707 255.24 82.6907 255.24 82.104C255.24 81.656 255.102 81.2987 254.824 81.032C254.558 80.7653 254.227 80.5627 253.832 80.424C253.438 80.2747 252.888 80.1147 252.184 79.944C251.342 79.7307 250.67 79.528 250.168 79.336C249.667 79.1333 249.235 78.8293 248.872 78.424C248.52 78.0187 248.344 77.4693 248.344 76.776C248.344 76.2107 248.494 75.6987 248.792 75.24C249.091 74.7707 249.55 74.3973 250.168 74.12C250.787 73.8427 251.555 73.704 252.472 73.704C253.112 73.704 253.736 73.7947 254.344 73.976C254.963 74.1467 255.496 74.3867 255.944 74.696L255.544 75.64C255.075 75.3307 254.574 75.1013 254.04 74.952C253.507 74.792 252.984 74.712 252.472 74.712C251.491 74.712 250.75 74.904 250.248 75.288C249.758 75.6613 249.512 76.1467 249.512 76.744C249.512 77.192 249.646 77.5547 249.912 77.832C250.19 78.0987 250.531 78.3067 250.936 78.456C251.352 78.5947 251.907 78.7493 252.6 78.92C253.422 79.1227 254.083 79.3253 254.584 79.528C255.096 79.72 255.528 80.0187 255.88 80.424C256.232 80.8187 256.408 81.3573 256.408 82.04C256.408 82.6053 256.254 83.1227 255.944 83.592C255.646 84.0507 255.182 84.4187 254.552 84.696C253.923 84.9627 253.15 85.096 252.232 85.096ZM259.173 85.08C258.938 85.08 258.735 84.9947 258.565 84.824C258.405 84.6533 258.325 84.4453 258.325 84.2C258.325 83.9547 258.405 83.752 258.565 83.592C258.735 83.4213 258.938 83.336 259.173 83.336C259.407 83.336 259.61 83.4213 259.781 83.592C259.951 83.752 260.037 83.9547 260.037 84.2C260.037 84.4453 259.951 84.6533 259.781 84.824C259.61 84.9947 259.407 85.08 259.173 85.08ZM54.5193 93.8H55.7033V103.976H61.9753V105H54.5193V93.8ZM71.8612 103.976V105H63.9412V93.8H71.6212V94.824H65.1252V98.808H70.9172V99.816H65.1252V103.976H71.8612ZM76.8203 94.824H72.8843V93.8H81.9403V94.824H78.0043V105H76.8203V94.824ZM83.1899 93.8H84.1979L84.1179 98.024H83.2699L83.1899 93.8ZM90.2323 105.096C89.4003 105.096 88.6003 104.963 87.8323 104.696C87.075 104.429 86.4883 104.077 86.0723 103.64L86.5363 102.728C86.9416 103.133 87.4803 103.464 88.1523 103.72C88.8243 103.965 89.5176 104.088 90.2323 104.088C91.235 104.088 91.987 103.907 92.4883 103.544C92.9896 103.171 93.2403 102.691 93.2403 102.104C93.2403 101.656 93.1016 101.299 92.8243 101.032C92.5576 100.765 92.227 100.563 91.8323 100.424C91.4376 100.275 90.8883 100.115 90.1843 99.944C89.3416 99.7307 88.6696 99.528 88.1683 99.336C87.667 99.1333 87.235 98.8293 86.8723 98.424C86.5203 98.0187 86.3443 97.4693 86.3443 96.776C86.3443 96.2107 86.4936 95.6987 86.7923 95.24C87.091 94.7707 87.5496 94.3973 88.1683 94.12C88.787 93.8427 89.555 93.704 90.4723 93.704C91.1123 93.704 91.7363 93.7947 92.3443 93.976C92.963 94.1467 93.4963 94.3867 93.9443 94.696L93.5443 95.64C93.075 95.3307 92.5736 95.1013 92.0403 94.952C91.507 94.792 90.9843 94.712 90.4723 94.712C89.491 94.712 88.7496 94.904 88.2483 95.288C87.7576 95.6613 87.5123 96.1467 87.5123 96.744C87.5123 97.192 87.6456 97.5547 87.9123 97.832C88.1896 98.0987 88.531 98.3067 88.9363 98.456C89.3523 98.5947 89.907 98.7493 90.6003 98.92C91.4216 99.1227 92.083 99.3253 92.5843 99.528C93.0963 99.72 93.5283 100.019 93.8803 100.424C94.2323 100.819 94.4083 101.357 94.4083 102.04C94.4083 102.605 94.2536 103.123 93.9443 103.592C93.6456 104.051 93.1816 104.419 92.5523 104.696C91.923 104.963 91.1496 105.096 90.2323 105.096ZM106.04 105.096C104.93 105.096 103.928 104.851 103.032 104.36C102.146 103.869 101.448 103.192 100.936 102.328C100.434 101.453 100.184 100.477 100.184 99.4C100.184 98.3227 100.434 97.352 100.936 96.488C101.448 95.6133 102.152 94.9307 103.048 94.44C103.944 93.9493 104.946 93.704 106.056 93.704C106.888 93.704 107.656 93.8427 108.36 94.12C109.064 94.3973 109.661 94.8027 110.152 95.336L109.4 96.088C108.525 95.2027 107.421 94.76 106.088 94.76C105.202 94.76 104.397 94.9627 103.672 95.368C102.946 95.7733 102.376 96.328 101.96 97.032C101.554 97.736 101.352 98.5253 101.352 99.4C101.352 100.275 101.554 101.064 101.96 101.768C102.376 102.472 102.946 103.027 103.672 103.432C104.397 103.837 105.202 104.04 106.088 104.04C107.432 104.04 108.536 103.592 109.4 102.696L110.152 103.448C109.661 103.981 109.058 104.392 108.344 104.68C107.64 104.957 106.872 105.096 106.04 105.096ZM117.337 105.096C116.228 105.096 115.22 104.851 114.313 104.36C113.417 103.859 112.713 103.176 112.201 102.312C111.7 101.448 111.449 100.477 111.449 99.4C111.449 98.3227 111.7 97.352 112.201 96.488C112.713 95.624 113.417 94.9467 114.313 94.456C115.22 93.9547 116.228 93.704 117.337 93.704C118.447 93.704 119.444 93.9493 120.329 94.44C121.225 94.9307 121.929 95.6133 122.441 96.488C122.953 97.352 123.209 98.3227 123.209 99.4C123.209 100.477 122.953 101.453 122.441 102.328C121.929 103.192 121.225 103.869 120.329 104.36C119.444 104.851 118.447 105.096 117.337 105.096ZM117.337 104.04C118.223 104.04 119.023 103.843 119.737 103.448C120.452 103.043 121.012 102.488 121.417 101.784C121.823 101.069 122.025 100.275 122.025 99.4C122.025 98.5253 121.823 97.736 121.417 97.032C121.012 96.3173 120.452 95.7627 119.737 95.368C119.023 94.9627 118.223 94.76 117.337 94.76C116.452 94.76 115.647 94.9627 114.921 95.368C114.207 95.7627 113.641 96.3173 113.225 97.032C112.82 97.736 112.617 98.5253 112.617 99.4C112.617 100.275 112.82 101.069 113.225 101.784C113.641 102.488 114.207 103.043 114.921 103.448C115.647 103.843 116.452 104.04 117.337 104.04ZM130.759 105.096C129.65 105.096 128.642 104.851 127.735 104.36C126.839 103.859 126.135 103.176 125.623 102.312C125.122 101.448 124.871 100.477 124.871 99.4C124.871 98.3227 125.122 97.352 125.623 96.488C126.135 95.624 126.839 94.9467 127.735 94.456C128.642 93.9547 129.65 93.704 130.759 93.704C131.868 93.704 132.866 93.9493 133.751 94.44C134.647 94.9307 135.351 95.6133 135.863 96.488C136.375 97.352 136.631 98.3227 136.631 99.4C136.631 100.477 136.375 101.453 135.863 102.328C135.351 103.192 134.647 103.869 133.751 104.36C132.866 104.851 131.868 105.096 130.759 105.096ZM130.759 104.04C131.644 104.04 132.444 103.843 133.159 103.448C133.874 103.043 134.434 102.488 134.839 101.784C135.244 101.069 135.447 100.275 135.447 99.4C135.447 98.5253 135.244 97.736 134.839 97.032C134.434 96.3173 133.874 95.7627 133.159 95.368C132.444 94.9627 131.644 94.76 130.759 94.76C129.874 94.76 129.068 94.9627 128.343 95.368C127.628 95.7627 127.063 96.3173 126.647 97.032C126.242 97.736 126.039 98.5253 126.039 99.4C126.039 100.275 126.242 101.069 126.647 101.784C127.063 102.488 127.628 103.043 128.343 103.448C129.068 103.843 129.874 104.04 130.759 104.04ZM142.757 99.736L140.469 102.056V105H139.285V93.8H140.469V100.568L147.045 93.8H148.405L143.557 98.872L148.741 105H147.333L142.757 99.736ZM161.871 102.008H155.631L154.287 105H153.055L158.175 93.8H159.343L164.463 105H163.215L161.871 102.008ZM161.439 101.048L158.751 95.032L156.063 101.048H161.439ZM175.368 105.096C174.258 105.096 173.256 104.851 172.36 104.36C171.474 103.869 170.776 103.192 170.264 102.328C169.762 101.453 169.512 100.477 169.512 99.4C169.512 98.3227 169.762 97.352 170.264 96.488C170.776 95.6133 171.48 94.9307 172.376 94.44C173.272 93.9493 174.274 93.704 175.384 93.704C176.216 93.704 176.984 93.8427 177.688 94.12C178.392 94.3973 178.989 94.8027 179.48 95.336L178.728 96.088C177.853 95.2027 176.749 94.76 175.416 94.76C174.53 94.76 173.725 94.9627 173 95.368C172.274 95.7733 171.704 96.328 171.288 97.032C170.882 97.736 170.68 98.5253 170.68 99.4C170.68 100.275 170.882 101.064 171.288 101.768C171.704 102.472 172.274 103.027 173 103.432C173.725 103.837 174.53 104.04 175.416 104.04C176.76 104.04 177.864 103.592 178.728 102.696L179.48 103.448C178.989 103.981 178.386 104.392 177.672 104.68C176.968 104.957 176.2 105.096 175.368 105.096ZM186.665 105.096C185.556 105.096 184.548 104.851 183.641 104.36C182.745 103.859 182.041 103.176 181.529 102.312C181.028 101.448 180.777 100.477 180.777 99.4C180.777 98.3227 181.028 97.352 181.529 96.488C182.041 95.624 182.745 94.9467 183.641 94.456C184.548 93.9547 185.556 93.704 186.665 93.704C187.775 93.704 188.772 93.9493 189.657 94.44C190.553 94.9307 191.257 95.6133 191.769 96.488C192.281 97.352 192.537 98.3227 192.537 99.4C192.537 100.477 192.281 101.453 191.769 102.328C191.257 103.192 190.553 103.869 189.657 104.36C188.772 104.851 187.775 105.096 186.665 105.096ZM186.665 104.04C187.551 104.04 188.351 103.843 189.065 103.448C189.78 103.043 190.34 102.488 190.745 101.784C191.151 101.069 191.353 100.275 191.353 99.4C191.353 98.5253 191.151 97.736 190.745 97.032C190.34 96.3173 189.78 95.7627 189.065 95.368C188.351 94.9627 187.551 94.76 186.665 94.76C185.78 94.76 184.975 94.9627 184.249 95.368C183.535 95.7627 182.969 96.3173 182.553 97.032C182.148 97.736 181.945 98.5253 181.945 99.4C181.945 100.275 182.148 101.069 182.553 101.784C182.969 102.488 183.535 103.043 184.249 103.448C184.975 103.843 185.78 104.04 186.665 104.04ZM200.087 105.096C198.978 105.096 197.97 104.851 197.063 104.36C196.167 103.859 195.463 103.176 194.951 102.312C194.45 101.448 194.199 100.477 194.199 99.4C194.199 98.3227 194.45 97.352 194.951 96.488C195.463 95.624 196.167 94.9467 197.063 94.456C197.97 93.9547 198.978 93.704 200.087 93.704C201.197 93.704 202.194 93.9493 203.079 94.44C203.975 94.9307 204.679 95.6133 205.191 96.488C205.703 97.352 205.959 98.3227 205.959 99.4C205.959 100.477 205.703 101.453 205.191 102.328C204.679 103.192 203.975 103.869 203.079 104.36C202.194 104.851 201.197 105.096 200.087 105.096ZM200.087 104.04C200.973 104.04 201.773 103.843 202.487 103.448C203.202 103.043 203.762 102.488 204.167 101.784C204.573 101.069 204.775 100.275 204.775 99.4C204.775 98.5253 204.573 97.736 204.167 97.032C203.762 96.3173 203.202 95.7627 202.487 95.368C201.773 94.9627 200.973 94.76 200.087 94.76C199.202 94.76 198.397 94.9627 197.671 95.368C196.957 95.7627 196.391 96.3173 195.975 97.032C195.57 97.736 195.367 98.5253 195.367 99.4C195.367 100.275 195.57 101.069 195.975 101.784C196.391 102.488 196.957 103.043 197.671 103.448C198.397 103.843 199.202 104.04 200.087 104.04ZM208.613 93.8H209.797V103.976H216.069V105H208.613V93.8ZM222.222 93.8H226.782C227.966 93.8 229.012 94.04 229.918 94.52C230.825 94.9893 231.529 95.6507 232.03 96.504C232.532 97.3467 232.782 98.312 232.782 99.4C232.782 100.488 232.532 101.459 232.03 102.312C231.529 103.155 230.825 103.816 229.918 104.296C229.012 104.765 227.966 105 226.782 105H222.222V93.8ZM226.718 103.976C227.7 103.976 228.558 103.784 229.294 103.4C230.03 103.005 230.601 102.467 231.006 101.784C231.412 101.091 231.614 100.296 231.614 99.4C231.614 98.504 231.412 97.7147 231.006 97.032C230.601 96.3387 230.03 95.8 229.294 95.416C228.558 95.0213 227.7 94.824 226.718 94.824H223.406V103.976H226.718ZM235.441 93.8H236.625V105H235.441V93.8ZM243.357 105.096C242.525 105.096 241.725 104.963 240.957 104.696C240.2 104.429 239.613 104.077 239.197 103.64L239.661 102.728C240.067 103.133 240.605 103.464 241.277 103.72C241.949 103.965 242.643 104.088 243.357 104.088C244.36 104.088 245.112 103.907 245.613 103.544C246.115 103.171 246.365 102.691 246.365 102.104C246.365 101.656 246.227 101.299 245.949 101.032C245.683 100.765 245.352 100.563 244.957 100.424C244.563 100.275 244.013 100.115 243.309 99.944C242.467 99.7307 241.795 99.528 241.293 99.336C240.792 99.1333 240.36 98.8293 239.997 98.424C239.645 98.0187 239.469 97.4693 239.469 96.776C239.469 96.2107 239.619 95.6987 239.917 95.24C240.216 94.7707 240.675 94.3973 241.293 94.12C241.912 93.8427 242.68 93.704 243.597 93.704C244.237 93.704 244.861 93.7947 245.469 93.976C246.088 94.1467 246.621 94.3867 247.069 94.696L246.669 95.64C246.2 95.3307 245.699 95.1013 245.165 94.952C244.632 94.792 244.109 94.712 243.597 94.712C242.616 94.712 241.875 94.904 241.373 95.288C240.883 95.6613 240.637 96.1467 240.637 96.744C240.637 97.192 240.771 97.5547 241.037 97.832C241.315 98.0987 241.656 98.3067 242.061 98.456C242.477 98.5947 243.032 98.7493 243.725 98.92C244.547 99.1227 245.208 99.3253 245.709 99.528C246.221 99.72 246.653 100.019 247.005 100.424C247.357 100.819 247.533 101.357 247.533 102.04C247.533 102.605 247.379 103.123 247.069 103.592C246.771 104.051 246.307 104.419 245.677 104.696C245.048 104.963 244.275 105.096 243.357 105.096ZM259.473 93.8V105H258.305V99.832H251.297V105H250.113V93.8H251.297V98.792H258.305V93.8H259.473ZM113.922 114.824H109.986V113.8H119.042V114.824H115.106V125H113.922V114.824ZM125.673 125.096C124.564 125.096 123.556 124.851 122.649 124.36C121.753 123.859 121.049 123.176 120.537 122.312C120.036 121.448 119.785 120.477 119.785 119.4C119.785 118.323 120.036 117.352 120.537 116.488C121.049 115.624 121.753 114.947 122.649 114.456C123.556 113.955 124.564 113.704 125.673 113.704C126.782 113.704 127.78 113.949 128.665 114.44C129.561 114.931 130.265 115.613 130.777 116.488C131.289 117.352 131.545 118.323 131.545 119.4C131.545 120.477 131.289 121.453 130.777 122.328C130.265 123.192 129.561 123.869 128.665 124.36C127.78 124.851 126.782 125.096 125.673 125.096ZM125.673 124.04C126.558 124.04 127.358 123.843 128.073 123.448C128.788 123.043 129.348 122.488 129.753 121.784C130.158 121.069 130.361 120.275 130.361 119.4C130.361 118.525 130.158 117.736 129.753 117.032C129.348 116.317 128.788 115.763 128.073 115.368C127.358 114.963 126.558 114.76 125.673 114.76C124.788 114.76 123.982 114.963 123.257 115.368C122.542 115.763 121.977 116.317 121.561 117.032C121.156 117.736 120.953 118.525 120.953 119.4C120.953 120.275 121.156 121.069 121.561 121.784C121.977 122.488 122.542 123.043 123.257 123.448C123.982 123.843 124.788 124.04 125.673 124.04ZM142.087 119.4H143.223V123.672C142.7 124.131 142.082 124.483 141.367 124.728C140.652 124.973 139.9 125.096 139.111 125.096C137.991 125.096 136.983 124.851 136.087 124.36C135.191 123.869 134.487 123.192 133.975 122.328C133.463 121.453 133.207 120.477 133.207 119.4C133.207 118.323 133.463 117.352 133.975 116.488C134.487 115.613 135.191 114.931 136.087 114.44C136.983 113.949 137.996 113.704 139.127 113.704C139.98 113.704 140.764 113.843 141.479 114.12C142.194 114.387 142.796 114.787 143.287 115.32L142.551 116.072C141.666 115.197 140.54 114.76 139.175 114.76C138.268 114.76 137.447 114.963 136.711 115.368C135.986 115.763 135.415 116.317 134.999 117.032C134.583 117.736 134.375 118.525 134.375 119.4C134.375 120.275 134.583 121.064 134.999 121.768C135.415 122.472 135.986 123.027 136.711 123.432C137.436 123.837 138.252 124.04 139.159 124.04C140.311 124.04 141.287 123.752 142.087 123.176V119.4ZM154.494 123.976V125H146.574V113.8H154.254V114.824H147.758V118.808H153.55V119.816H147.758V123.976H154.494ZM159.453 114.824H155.517V113.8H164.573V114.824H160.637V125H159.453V114.824ZM175.825 113.8V125H174.657V119.832H167.649V125H166.465V113.8H167.649V118.792H174.657V113.8H175.825ZM187.4 123.976V125H179.48V113.8H187.16V114.824H180.664V118.808H186.456V119.816H180.664V123.976H187.4ZM197.831 125L195.271 121.4C194.983 121.432 194.685 121.448 194.375 121.448H191.367V125H190.183V113.8H194.375C195.805 113.8 196.925 114.141 197.735 114.824C198.546 115.507 198.951 116.445 198.951 117.64C198.951 118.515 198.727 119.256 198.279 119.864C197.842 120.461 197.213 120.893 196.391 121.16L199.127 125H197.831ZM194.343 120.44C195.453 120.44 196.301 120.195 196.887 119.704C197.474 119.213 197.767 118.525 197.767 117.64C197.767 116.733 197.474 116.04 196.887 115.56C196.301 115.069 195.453 114.824 194.343 114.824H191.367V120.44H194.343ZM201.33 113.8H202.674L202.434 121.64H201.554L201.33 113.8ZM202.002 125.08C201.767 125.08 201.565 125 201.394 124.84C201.234 124.669 201.154 124.472 201.154 124.248C201.154 124.013 201.234 123.821 201.394 123.672C201.554 123.512 201.757 123.432 202.002 123.432C202.237 123.432 202.434 123.512 202.594 123.672C202.754 123.821 202.834 124.013 202.834 124.248C202.834 124.472 202.754 124.669 202.594 124.84C202.434 125 202.237 125.08 202.002 125.08Z" fill="black"/>
</svg>
