<svg width="641" height="641" viewBox="0 0 641 641" fill="none" xmlns="http://www.w3.org/2000/svg">
<mask id="mask0_373:71146" style="mask-type:alpha" maskUnits="userSpaceOnUse" x="0" y="0" width="641" height="641">
<circle cx="320.5" cy="320.5" r="320.5" fill="#C4C4C4"/>
</mask>
<g mask="url(#mask0_373:71146)">
<g opacity="0.5">
<path d="M199.508 167.862H145.738V221.884H199.508V167.862Z" stroke="#F99D21" stroke-width="2" stroke-miterlimit="10"/>
<path d="M310.676 167.861H256.907V221.884H310.676V167.861Z" stroke="#F99D21" stroke-width="2" stroke-miterlimit="10"/>
<path d="M255.078 167.862H201.309V221.884H255.078V167.862Z" stroke="#F99D21" stroke-width="2" stroke-miterlimit="10"/>
<path d="M143.938 167.861H90.1687V221.884H143.938V167.861Z" stroke="#F99D21" stroke-width="2" stroke-miterlimit="10"/>
<path d="M88.3396 167.862H34.5704V221.884H88.3396V167.862Z" stroke="#F99D21" stroke-width="2" stroke-miterlimit="10"/>
<path d="M366.246 167.862H312.477V221.884H366.246V167.862Z" stroke="#F99D21" stroke-width="2" stroke-miterlimit="10"/>
<path d="M477.415 167.862H423.645V221.884H477.415V167.862Z" stroke="#F99D21" stroke-width="2" stroke-miterlimit="10"/>
<path d="M588.554 167.862H534.785V221.884H588.554V167.862Z" stroke="#F99D21" stroke-width="2" stroke-miterlimit="10"/>
<path d="M532.985 167.862H479.215V221.884H532.985V167.862Z" stroke="#F99D21" stroke-width="2" stroke-miterlimit="10"/>
<path d="M421.816 167.861H368.047V221.884H421.816V167.861Z" stroke="#F99D21" stroke-width="2" stroke-miterlimit="10"/>
<path d="M32.77 167.862H-20.9993V221.884H32.77V167.862Z" stroke="#F99D21" stroke-width="2" stroke-miterlimit="10"/>
<path d="M32.7701 112.038H-20.9991V166.061H32.7701V112.038Z" stroke="#F99D21" stroke-width="2" stroke-miterlimit="10"/>
<path d="M32.7693 0.36377L-21 0.36377V54.3862H32.7693V0.36377Z" stroke="#F99D21" stroke-width="2" stroke-miterlimit="10"/>
<path d="M32.7694 56.1875H-20.9999V110.21H32.7694V56.1875Z" stroke="#F99D21" stroke-width="2" stroke-miterlimit="10"/>
<path d="M644.153 167.862H590.384V221.884H644.153V167.862Z" stroke="#F99D21" stroke-width="2" stroke-miterlimit="10"/>
<path d="M421.816 0.36377L368.047 0.36377V54.3862H421.816V0.36377Z" stroke="#F99D21" stroke-width="2" stroke-miterlimit="10"/>
<path d="M421.816 56.1875H368.047V110.21H421.816V56.1875Z" stroke="#F99D21" stroke-width="2" stroke-miterlimit="10"/>
<path d="M477.414 56.187H423.645V110.209H477.414V56.187Z" stroke="#F99D21" stroke-width="2" stroke-miterlimit="10"/>
<path d="M310.676 56.1875H256.907V110.21H310.676V56.1875Z" stroke="#F99D21" stroke-width="2" stroke-miterlimit="10"/>
<path d="M366.247 56.1875H312.477V110.21H366.247V56.1875Z" stroke="#F99D21" stroke-width="2" stroke-miterlimit="10"/>
<path d="M532.984 56.187H479.215V110.209H532.984V56.187Z" stroke="#F99D21" stroke-width="2" stroke-miterlimit="10"/>
<path d="M255.078 56.1875H201.309V110.21H255.078V56.1875Z" stroke="#F99D21" stroke-width="2" stroke-miterlimit="10"/>
<path d="M366.246 0.364746L312.477 0.364746V54.3872H366.246V0.364746Z" stroke="#F99D21" stroke-width="2" stroke-miterlimit="10"/>
<path d="M588.555 0.36377L534.785 0.36377V54.3862H588.555V0.36377Z" stroke="#F99D21" stroke-width="2" stroke-miterlimit="10"/>
<path d="M532.985 0.36377L479.216 0.36377V54.3862H532.985V0.36377Z" stroke="#F99D21" stroke-width="2" stroke-miterlimit="10"/>
<path d="M588.554 56.187H534.785V110.209H588.554V56.187Z" stroke="#F99D21" stroke-width="2" stroke-miterlimit="10"/>
<path d="M199.508 56.187H145.739V110.209H199.508V56.187Z" stroke="#F99D21" stroke-width="2" stroke-miterlimit="10"/>
<path d="M143.938 56.1875H90.1687V110.21H143.938V56.1875Z" stroke="#F99D21" stroke-width="2" stroke-miterlimit="10"/>
<path d="M588.554 112.038H534.785V166.061H588.554V112.038Z" stroke="#F99D21" stroke-width="2" stroke-miterlimit="10"/>
<path d="M532.984 112.038H479.215V166.061H532.984V112.038Z" stroke="#F99D21" stroke-width="2" stroke-miterlimit="10"/>
<path d="M477.414 112.038H423.645V166.061H477.414V112.038Z" stroke="#F99D21" stroke-width="2" stroke-miterlimit="10"/>
<path d="M644.152 112.039H590.383V166.062H644.152V112.039Z" stroke="#F99D21" stroke-width="2" stroke-miterlimit="10"/>
<path d="M421.816 112.039H368.047V166.062H421.816V112.039Z" stroke="#F99D21" stroke-width="2" stroke-miterlimit="10"/>
<path d="M644.153 56.187H590.384V110.209H644.153V56.187Z" stroke="#F99D21" stroke-width="2" stroke-miterlimit="10"/>
<path d="M366.247 112.038H312.477V166.061H366.247V112.038Z" stroke="#F99D21" stroke-width="2" stroke-miterlimit="10"/>
<path d="M310.676 0.36377L256.907 0.36377V54.3862H310.676V0.36377Z" stroke="#F99D21" stroke-width="2" stroke-miterlimit="10"/>
<path d="M644.152 0.36377L590.383 0.36377V54.3862H644.152V0.36377Z" stroke="#F99D21" stroke-width="2" stroke-miterlimit="10"/>
<path d="M143.938 0.36377L90.1686 0.36377V54.3862H143.938V0.36377Z" stroke="#F99D21" stroke-width="2" stroke-miterlimit="10"/>
<path d="M88.3402 0.36377L34.5709 0.36377V54.3862H88.3402V0.36377Z" stroke="#F99D21" stroke-width="2" stroke-miterlimit="10"/>
<path d="M255.078 0.362793L201.309 0.362793V54.3853H255.078V0.362793Z" stroke="#F99D21" stroke-width="2" stroke-miterlimit="10"/>
<path d="M199.507 0.36377L145.738 0.36377V54.3862H199.507V0.36377Z" stroke="#F99D21" stroke-width="2" stroke-miterlimit="10"/>
<path d="M310.676 112.038H256.906V166.061H310.676V112.038Z" stroke="#F99D21" stroke-width="2" stroke-miterlimit="10"/>
<path d="M88.34 56.187H34.5707V110.209H88.34V56.187Z" stroke="#F99D21" stroke-width="2" stroke-miterlimit="10"/>
<path d="M88.3398 112.038H34.5706V166.061H88.3398V112.038Z" stroke="#F99D21" stroke-width="2" stroke-miterlimit="10"/>
<path d="M199.508 112.038H145.739V166.061H199.508V112.038Z" stroke="#F99D21" stroke-width="2" stroke-miterlimit="10"/>
<path d="M255.078 112.038H201.309V166.061H255.078V112.038Z" stroke="#F99D21" stroke-width="2" stroke-miterlimit="10"/>
<path d="M143.938 112.039H90.1689V166.062H143.938V112.039Z" stroke="#F99D21" stroke-width="2" stroke-miterlimit="10"/>
<path d="M644.152 279.536H590.383V333.559H644.152V279.536Z" stroke="#F99D21" stroke-width="2" stroke-miterlimit="10"/>
<path d="M532.984 279.536H479.215V333.559H532.984V279.536Z" stroke="#F99D21" stroke-width="2" stroke-miterlimit="10"/>
<path d="M588.555 279.536H534.786V333.559H588.555V279.536Z" stroke="#F99D21" stroke-width="2" stroke-miterlimit="10"/>
<path d="M477.414 279.536H423.645V333.559H477.414V279.536Z" stroke="#F99D21" stroke-width="2" stroke-miterlimit="10"/>
<path d="M366.246 279.536H312.477V333.559H366.246V279.536Z" stroke="#F99D21" stroke-width="2" stroke-miterlimit="10"/>
<path d="M32.7697 279.536H-20.9996V333.559H32.7697V279.536Z" stroke="#F99D21" stroke-width="2" stroke-miterlimit="10"/>
<path d="M88.3393 279.536H34.5701V333.559H88.3393V279.536Z" stroke="#F99D21" stroke-width="2" stroke-miterlimit="10"/>
<path d="M143.938 279.536H90.1689V333.559H143.938V279.536Z" stroke="#F99D21" stroke-width="2" stroke-miterlimit="10"/>
<path d="M255.078 279.537H201.308V333.56H255.078V279.537Z" stroke="#F99D21" stroke-width="2" stroke-miterlimit="10"/>
<path d="M199.508 279.536H145.739V333.559H199.508V279.536Z" stroke="#F99D21" stroke-width="2" stroke-miterlimit="10"/>
<path d="M310.676 279.536H256.907V333.559H310.676V279.536Z" stroke="#F99D21" stroke-width="2" stroke-miterlimit="10"/>
<path d="M421.816 279.537H368.047V333.56H421.816V279.537Z" stroke="#F99D21" stroke-width="2" stroke-miterlimit="10"/>
<path d="M310.676 223.684H256.907V277.707H310.676V223.684Z" stroke="#F99D21" stroke-width="2" stroke-miterlimit="10"/>
<path d="M644.153 223.685H590.383V277.707H644.153V223.685Z" stroke="#F99D21" stroke-width="2" stroke-miterlimit="10"/>
<path d="M477.414 223.684H423.645V277.707H477.414V223.684Z" stroke="#F99D21" stroke-width="2" stroke-miterlimit="10"/>
<path d="M532.984 223.684H479.215V277.707H532.984V223.684Z" stroke="#F99D21" stroke-width="2" stroke-miterlimit="10"/>
<path d="M588.555 223.684H534.785V277.707H588.555V223.684Z" stroke="#F99D21" stroke-width="2" stroke-miterlimit="10"/>
<path d="M88.3401 223.684H34.5709V277.707H88.3401V223.684Z" stroke="#F99D21" stroke-width="2" stroke-miterlimit="10"/>
<path d="M32.7698 223.685H-20.9995V277.707H32.7698V223.685Z" stroke="#F99D21" stroke-width="2" stroke-miterlimit="10"/>
<path d="M143.938 223.684H90.1686V277.707H143.938V223.684Z" stroke="#F99D21" stroke-width="2" stroke-miterlimit="10"/>
<path d="M421.816 223.684H368.047V277.706H421.816V223.684Z" stroke="#F99D21" stroke-width="2" stroke-miterlimit="10"/>
<path d="M366.246 223.684H312.477V277.707H366.246V223.684Z" stroke="#F99D21" stroke-width="2" stroke-miterlimit="10"/>
<path d="M199.508 223.685H145.739V277.707H199.508V223.685Z" stroke="#F99D21" stroke-width="2" stroke-miterlimit="10"/>
<path d="M255.078 223.685H201.309V277.707H255.078V223.685Z" stroke="#F99D21" stroke-width="2" stroke-miterlimit="10"/>
<path d="M477.415 0.364746L423.645 0.364746V54.3872H477.415V0.364746Z" stroke="#F99D21" stroke-width="2" stroke-miterlimit="10"/>
<path d="M644.153 502.857H590.384V556.88H644.153V502.857Z" stroke="#F99D21" stroke-width="2" stroke-miterlimit="10"/>
<path d="M588.554 502.857H534.785V556.88H588.554V502.857Z" stroke="#F99D21" stroke-width="2" stroke-miterlimit="10"/>
<path d="M199.508 502.857H145.739V556.88H199.508V502.857Z" stroke="#F99D21" stroke-width="2" stroke-miterlimit="10"/>
<path d="M143.938 502.857H90.1688V556.88H143.938V502.857Z" stroke="#F99D21" stroke-width="2" stroke-miterlimit="10"/>
<path d="M255.078 502.857H201.309V556.88H255.078V502.857Z" stroke="#F99D21" stroke-width="2" stroke-miterlimit="10"/>
<path d="M32.7701 502.857H-20.9991V556.88H32.7701V502.857Z" stroke="#F99D21" stroke-width="2" stroke-miterlimit="10"/>
<path d="M88.3401 502.856H34.5709V556.879H88.3401V502.856Z" stroke="#F99D21" stroke-width="2" stroke-miterlimit="10"/>
<path d="M366.246 502.856H312.477V556.879H366.246V502.856Z" stroke="#F99D21" stroke-width="2" stroke-miterlimit="10"/>
<path d="M421.817 502.857H368.047V556.88H421.817V502.857Z" stroke="#F99D21" stroke-width="2" stroke-miterlimit="10"/>
<path d="M310.676 502.857H256.906V556.88H310.676V502.857Z" stroke="#F99D21" stroke-width="2" stroke-miterlimit="10"/>
<path d="M477.414 502.857H423.645V556.88H477.414V502.857Z" stroke="#F99D21" stroke-width="2" stroke-miterlimit="10"/>
<path d="M532.985 502.856H479.215V556.879H532.985V502.856Z" stroke="#F99D21" stroke-width="2" stroke-miterlimit="10"/>
<path d="M477.414 558.68H423.645V612.702H477.414V558.68Z" stroke="#F99D21" stroke-width="2" stroke-miterlimit="10"/>
<path d="M588.554 558.68H534.785V612.702H588.554V558.68Z" stroke="#F99D21" stroke-width="2" stroke-miterlimit="10"/>
<path d="M532.985 558.68H479.215V612.702H532.985V558.68Z" stroke="#F99D21" stroke-width="2" stroke-miterlimit="10"/>
<path d="M366.246 558.68H312.477V612.702H366.246V558.68Z" stroke="#F99D21" stroke-width="2" stroke-miterlimit="10"/>
<path d="M644.153 558.68H590.384V612.702H644.153V558.68Z" stroke="#F99D21" stroke-width="2" stroke-miterlimit="10"/>
<path d="M310.676 558.68H256.907V612.702H310.676V558.68Z" stroke="#F99D21" stroke-width="2" stroke-miterlimit="10"/>
<path d="M421.816 558.68H368.047V612.702H421.816V558.68Z" stroke="#F99D21" stroke-width="2" stroke-miterlimit="10"/>
<path d="M143.938 558.681H90.169V612.703H143.938V558.681Z" stroke="#F99D21" stroke-width="2" stroke-miterlimit="10"/>
<path d="M255.078 558.68H201.309V612.702H255.078V558.68Z" stroke="#F99D21" stroke-width="2" stroke-miterlimit="10"/>
<path d="M199.508 558.681H145.739V612.703H199.508V558.681Z" stroke="#F99D21" stroke-width="2" stroke-miterlimit="10"/>
<path d="M32.7697 558.681H-20.9996V612.703H32.7697V558.681Z" stroke="#F99D21" stroke-width="2" stroke-miterlimit="10"/>
<path d="M88.3399 558.68H34.5707V612.702H88.3399V558.68Z" stroke="#F99D21" stroke-width="2" stroke-miterlimit="10"/>
<path d="M644.153 391.182H590.384V445.204H644.153V391.182Z" stroke="#F99D21" stroke-width="2" stroke-miterlimit="10"/>
<path d="M477.414 391.183H423.645V445.205H477.414V391.183Z" stroke="#F99D21" stroke-width="2" stroke-miterlimit="10"/>
<path d="M532.985 391.182H479.215V445.204H532.985V391.182Z" stroke="#F99D21" stroke-width="2" stroke-miterlimit="10"/>
<path d="M588.554 391.182H534.785V445.204H588.554V391.182Z" stroke="#F99D21" stroke-width="2" stroke-miterlimit="10"/>
<path d="M32.7696 391.183H-20.9996V445.205H32.7696V391.183Z" stroke="#F99D21" stroke-width="2" stroke-miterlimit="10"/>
<path d="M143.938 391.182H90.1683V445.204H143.938V391.182Z" stroke="#F99D21" stroke-width="2" stroke-miterlimit="10"/>
<path d="M88.3402 391.182H34.5709V445.204H88.3402V391.182Z" stroke="#F99D21" stroke-width="2" stroke-miterlimit="10"/>
<path d="M421.816 391.182H368.047V445.204H421.816V391.182Z" stroke="#F99D21" stroke-width="2" stroke-miterlimit="10"/>
<path d="M366.246 391.182H312.477V445.204H366.246V391.182Z" stroke="#F99D21" stroke-width="2" stroke-miterlimit="10"/>
<path d="M199.508 391.183H145.739V445.206H199.508V391.183Z" stroke="#F99D21" stroke-width="2" stroke-miterlimit="10"/>
<path d="M310.676 391.183H256.907V445.205H310.676V391.183Z" stroke="#F99D21" stroke-width="2" stroke-miterlimit="10"/>
<path d="M255.078 391.183H201.309V445.205H255.078V391.183Z" stroke="#F99D21" stroke-width="2" stroke-miterlimit="10"/>
<path d="M310.676 335.359H256.907V389.382H310.676V335.359Z" stroke="#F99D21" stroke-width="2" stroke-miterlimit="10"/>
<path d="M366.246 335.359H312.476V389.382H366.246V335.359Z" stroke="#F99D21" stroke-width="2" stroke-miterlimit="10"/>
<path d="M255.078 335.358H201.309V389.381H255.078V335.358Z" stroke="#F99D21" stroke-width="2" stroke-miterlimit="10"/>
<path d="M199.507 335.359H145.738V389.382H199.507V335.359Z" stroke="#F99D21" stroke-width="2" stroke-miterlimit="10"/>
<path d="M143.938 335.359H90.1685V389.382H143.938V335.359Z" stroke="#F99D21" stroke-width="2" stroke-miterlimit="10"/>
<path d="M88.3404 335.359H34.5711V389.382H88.3404V335.359Z" stroke="#F99D21" stroke-width="2" stroke-miterlimit="10"/>
<path d="M588.555 335.359H534.785V389.382H588.555V335.359Z" stroke="#F99D21" stroke-width="2" stroke-miterlimit="10"/>
<path d="M421.816 335.359H368.047V389.382H421.816V335.359Z" stroke="#F99D21" stroke-width="2" stroke-miterlimit="10"/>
<path d="M644.153 335.36H590.383V389.382H644.153V335.36Z" stroke="#F99D21" stroke-width="2" stroke-miterlimit="10"/>
<path d="M477.414 335.359H423.645V389.382H477.414V335.359Z" stroke="#F99D21" stroke-width="2" stroke-miterlimit="10"/>
<path d="M532.985 335.359H479.215V389.382H532.985V335.359Z" stroke="#F99D21" stroke-width="2" stroke-miterlimit="10"/>
<path d="M32.7701 335.359H-20.9992V389.382H32.7701V335.359Z" stroke="#F99D21" stroke-width="2" stroke-miterlimit="10"/>
<path d="M644.152 447.034H590.383V501.057H644.152V447.034Z" stroke="#F99D21" stroke-width="2" stroke-miterlimit="10"/>
<path d="M588.555 447.034H534.786V501.056H588.555V447.034Z" stroke="#F99D21" stroke-width="2" stroke-miterlimit="10"/>
<path d="M421.816 447.034H368.047V501.056H421.816V447.034Z" stroke="#F99D21" stroke-width="2" stroke-miterlimit="10"/>
<path d="M532.984 447.034H479.215V501.057H532.984V447.034Z" stroke="#F99D21" stroke-width="2" stroke-miterlimit="10"/>
<path d="M477.414 447.034H423.645V501.056H477.414V447.034Z" stroke="#F99D21" stroke-width="2" stroke-miterlimit="10"/>
<path d="M366.246 447.034H312.477V501.057H366.246V447.034Z" stroke="#F99D21" stroke-width="2" stroke-miterlimit="10"/>
<path d="M32.7697 447.034H-20.9996V501.056H32.7697V447.034Z" stroke="#F99D21" stroke-width="2" stroke-miterlimit="10"/>
<path d="M88.3397 447.034H34.5704V501.056H88.3397V447.034Z" stroke="#F99D21" stroke-width="2" stroke-miterlimit="10"/>
<path d="M310.676 447.034H256.907V501.057H310.676V447.034Z" stroke="#F99D21" stroke-width="2" stroke-miterlimit="10"/>
<path d="M255.078 447.034H201.309V501.056H255.078V447.034Z" stroke="#F99D21" stroke-width="2" stroke-miterlimit="10"/>
<path d="M143.938 447.034H90.1687V501.056H143.938V447.034Z" stroke="#F99D21" stroke-width="2" stroke-miterlimit="10"/>
<path d="M199.508 447.034H145.739V501.056H199.508V447.034Z" stroke="#F99D21" stroke-width="2" stroke-miterlimit="10"/>
<path d="M590.354 335.359H588.554V389.382H590.354V335.359Z" stroke="#F99D21" stroke-width="2" stroke-miterlimit="10"/>
<path d="M590.355 447.034H588.555V501.056H590.355V447.034Z" stroke="#F99D21" stroke-width="2" stroke-miterlimit="10"/>
<path d="M590.354 167.861H588.554V221.884H590.354V167.861Z" stroke="#F99D21" stroke-width="2" stroke-miterlimit="10"/>
<path d="M590.355 502.857H588.555V556.88H590.355V502.857Z" stroke="#F99D21" stroke-width="2" stroke-miterlimit="10"/>
<path d="M590.355 279.536H588.554V333.559H590.355V279.536Z" stroke="#F99D21" stroke-width="2" stroke-miterlimit="10"/>
<path d="M590.355 558.681H588.554V612.703H590.355V558.681Z" stroke="#F99D21" stroke-width="2" stroke-miterlimit="10"/>
<path d="M590.355 223.685H588.554V277.707H590.355V223.685Z" stroke="#F99D21" stroke-width="2" stroke-miterlimit="10"/>
<path d="M590.355 391.182H588.554V445.204H590.355V391.182Z" stroke="#F99D21" stroke-width="2" stroke-miterlimit="10"/>
<path d="M590.355 112.038H588.555V166.061H590.355V112.038Z" stroke="#F99D21" stroke-width="2" stroke-miterlimit="10"/>
<path d="M590.354 0.36377L588.554 0.36377V54.3862H590.354V0.36377Z" stroke="#F99D21" stroke-width="2" stroke-miterlimit="10"/>
<path d="M590.355 56.1875H588.554V110.21H590.355V56.1875Z" stroke="#F99D21" stroke-width="2" stroke-miterlimit="10"/>
<path d="M534.785 0.36377L532.984 0.36377V54.3862H534.785V0.36377Z" stroke="#F99D21" stroke-width="2" stroke-miterlimit="10"/>
<path d="M534.785 56.1875H532.984V110.21H534.785V56.1875Z" stroke="#F99D21" stroke-width="2" stroke-miterlimit="10"/>
<path d="M534.785 558.68H532.984V612.702H534.785V558.68Z" stroke="#F99D21" stroke-width="2" stroke-miterlimit="10"/>
<path d="M534.785 502.857H532.984V556.88H534.785V502.857Z" stroke="#F99D21" stroke-width="2" stroke-miterlimit="10"/>
<path d="M534.785 223.684H532.984V277.707H534.785V223.684Z" stroke="#F99D21" stroke-width="2" stroke-miterlimit="10"/>
<path d="M534.784 391.182H532.984V445.204H534.784V391.182Z" stroke="#F99D21" stroke-width="2" stroke-miterlimit="10"/>
<path d="M534.785 447.034H532.984V501.057H534.785V447.034Z" stroke="#F99D21" stroke-width="2" stroke-miterlimit="10"/>
<path d="M534.785 335.359H532.984V389.382H534.785V335.359Z" stroke="#F99D21" stroke-width="2" stroke-miterlimit="10"/>
<path d="M534.785 167.861H532.984V221.884H534.785V167.861Z" stroke="#F99D21" stroke-width="2" stroke-miterlimit="10"/>
<path d="M534.785 279.536H532.984V333.559H534.785V279.536Z" stroke="#F99D21" stroke-width="2" stroke-miterlimit="10"/>
<path d="M534.785 112.039H532.984V166.062H534.785V112.039Z" stroke="#F99D21" stroke-width="2" stroke-miterlimit="10"/>
<path d="M479.215 335.359H477.414V389.382H479.215V335.359Z" stroke="#F99D21" stroke-width="2" stroke-miterlimit="10"/>
<path d="M479.215 112.039H477.414V166.062H479.215V112.039Z" stroke="#F99D21" stroke-width="2" stroke-miterlimit="10"/>
<path d="M479.215 558.68H477.414V612.702H479.215V558.68Z" stroke="#F99D21" stroke-width="2" stroke-miterlimit="10"/>
<path d="M479.215 56.187H477.415V110.209H479.215V56.187Z" stroke="#F99D21" stroke-width="2" stroke-miterlimit="10"/>
<path d="M479.215 0.36377L477.414 0.36377V54.3862H479.215V0.36377Z" stroke="#F99D21" stroke-width="2" stroke-miterlimit="10"/>
<path d="M479.215 447.034H477.414V501.056H479.215V447.034Z" stroke="#F99D21" stroke-width="2" stroke-miterlimit="10"/>
<path d="M479.214 167.862H477.414V221.884H479.214V167.862Z" stroke="#F99D21" stroke-width="2" stroke-miterlimit="10"/>
<path d="M479.214 223.685H477.413V277.707H479.214V223.685Z" stroke="#F99D21" stroke-width="2" stroke-miterlimit="10"/>
<path d="M479.215 279.536H477.414V333.559H479.215V279.536Z" stroke="#F99D21" stroke-width="2" stroke-miterlimit="10"/>
<path d="M479.214 502.857H477.414V556.88H479.214V502.857Z" stroke="#F99D21" stroke-width="2" stroke-miterlimit="10"/>
<path d="M479.214 391.182H477.414V445.204H479.214V391.182Z" stroke="#F99D21" stroke-width="2" stroke-miterlimit="10"/>
<path d="M423.645 335.359H421.844V389.382H423.645V335.359Z" stroke="#F99D21" stroke-width="2" stroke-miterlimit="10"/>
<path d="M423.644 391.183H421.844V445.205H423.644V391.183Z" stroke="#F99D21" stroke-width="2" stroke-miterlimit="10"/>
<path d="M423.645 447.034H421.844V501.056H423.645V447.034Z" stroke="#F99D21" stroke-width="2" stroke-miterlimit="10"/>
<path d="M423.645 558.68H421.844V612.702H423.645V558.68Z" stroke="#F99D21" stroke-width="2" stroke-miterlimit="10"/>
<path d="M423.645 0.364746L421.844 0.364746V54.3872H423.645V0.364746Z" stroke="#F99D21" stroke-width="2" stroke-miterlimit="10"/>
<path d="M423.645 167.862H421.844V221.884H423.645V167.862Z" stroke="#F99D21" stroke-width="2" stroke-miterlimit="10"/>
<path d="M423.645 112.037H421.844V166.06H423.645V112.037Z" stroke="#F99D21" stroke-width="2" stroke-miterlimit="10"/>
<path d="M423.644 223.684H421.844V277.707H423.644V223.684Z" stroke="#F99D21" stroke-width="2" stroke-miterlimit="10"/>
<path d="M423.645 502.856H421.844V556.879H423.645V502.856Z" stroke="#F99D21" stroke-width="2" stroke-miterlimit="10"/>
<path d="M423.645 56.1875H421.844V110.21H423.645V56.1875Z" stroke="#F99D21" stroke-width="2" stroke-miterlimit="10"/>
<path d="M423.645 279.536H421.844V333.559H423.645V279.536Z" stroke="#F99D21" stroke-width="2" stroke-miterlimit="10"/>
<path d="M368.047 167.862H366.246V221.884H368.047V167.862Z" stroke="#F99D21" stroke-width="2" stroke-miterlimit="10"/>
<path d="M368.047 279.536H366.246V333.559H368.047V279.536Z" stroke="#F99D21" stroke-width="2" stroke-miterlimit="10"/>
<path d="M368.046 447.034H366.245V501.056H368.046V447.034Z" stroke="#F99D21" stroke-width="2" stroke-miterlimit="10"/>
<path d="M368.047 502.857H366.246V556.88H368.047V502.857Z" stroke="#F99D21" stroke-width="2" stroke-miterlimit="10"/>
<path d="M368.047 391.183H366.246V445.205H368.047V391.183Z" stroke="#F99D21" stroke-width="2" stroke-miterlimit="10"/>
<path d="M368.047 335.359H366.246V389.382H368.047V335.359Z" stroke="#F99D21" stroke-width="2" stroke-miterlimit="10"/>
<path d="M368.046 0.36377L366.245 0.36377V54.3862H368.046V0.36377Z" stroke="#F99D21" stroke-width="2" stroke-miterlimit="10"/>
<path d="M368.047 558.68H366.246V612.702H368.047V558.68Z" stroke="#F99D21" stroke-width="2" stroke-miterlimit="10"/>
<path d="M368.047 112.039H366.246V166.062H368.047V112.039Z" stroke="#F99D21" stroke-width="2" stroke-miterlimit="10"/>
<path d="M368.047 223.684H366.246V277.707H368.047V223.684Z" stroke="#F99D21" stroke-width="2" stroke-miterlimit="10"/>
<path d="M368.047 56.187H366.246V110.209H368.047V56.187Z" stroke="#F99D21" stroke-width="2" stroke-miterlimit="10"/>
<path d="M312.477 56.187H310.676V110.209H312.477V56.187Z" stroke="#F99D21" stroke-width="2" stroke-miterlimit="10"/>
<path d="M312.477 0.36377L310.676 0.36377V54.3862H312.477V0.36377Z" stroke="#F99D21" stroke-width="2" stroke-miterlimit="10"/>
<path d="M312.477 558.681H310.676V612.703H312.477V558.681Z" stroke="#F99D21" stroke-width="2" stroke-miterlimit="10"/>
<path d="M312.476 335.359H310.675V389.382H312.476V335.359Z" stroke="#F99D21" stroke-width="2" stroke-miterlimit="10"/>
<path d="M312.477 447.034H310.676V501.056H312.477V447.034Z" stroke="#F99D21" stroke-width="2" stroke-miterlimit="10"/>
<path d="M312.477 391.183H310.676V445.205H312.477V391.183Z" stroke="#F99D21" stroke-width="2" stroke-miterlimit="10"/>
<path d="M312.477 279.536H310.676V333.559H312.477V279.536Z" stroke="#F99D21" stroke-width="2" stroke-miterlimit="10"/>
<path d="M312.476 223.685H310.676V277.707H312.476V223.685Z" stroke="#F99D21" stroke-width="2" stroke-miterlimit="10"/>
<path d="M312.477 502.857H310.676V556.88H312.477V502.857Z" stroke="#F99D21" stroke-width="2" stroke-miterlimit="10"/>
<path d="M312.476 167.861H310.676V221.884H312.476V167.861Z" stroke="#F99D21" stroke-width="2" stroke-miterlimit="10"/>
<path d="M312.477 112.038H310.676V166.061H312.477V112.038Z" stroke="#F99D21" stroke-width="2" stroke-miterlimit="10"/>
<path d="M256.907 558.68H255.106V612.702H256.907V558.68Z" stroke="#F99D21" stroke-width="2" stroke-miterlimit="10"/>
<path d="M256.906 335.359H255.106V389.382H256.906V335.359Z" stroke="#F99D21" stroke-width="2" stroke-miterlimit="10"/>
<path d="M256.907 279.536H255.106V333.559H256.907V279.536Z" stroke="#F99D21" stroke-width="2" stroke-miterlimit="10"/>
<path d="M256.906 167.861H255.106V221.884H256.906V167.861Z" stroke="#F99D21" stroke-width="2" stroke-miterlimit="10"/>
<path d="M256.906 223.684H255.105V277.707H256.906V223.684Z" stroke="#F99D21" stroke-width="2" stroke-miterlimit="10"/>
<path d="M256.907 447.034H255.106V501.056H256.907V447.034Z" stroke="#F99D21" stroke-width="2" stroke-miterlimit="10"/>
<path d="M256.906 391.182H255.105V445.204H256.906V391.182Z" stroke="#F99D21" stroke-width="2" stroke-miterlimit="10"/>
<path d="M256.907 112.038H255.106V166.061H256.907V112.038Z" stroke="#F99D21" stroke-width="2" stroke-miterlimit="10"/>
<path d="M256.907 56.1875H255.106V110.21H256.907V56.1875Z" stroke="#F99D21" stroke-width="2" stroke-miterlimit="10"/>
<path d="M256.906 0.36377L255.106 0.36377V54.3862H256.906V0.36377Z" stroke="#F99D21" stroke-width="2" stroke-miterlimit="10"/>
<path d="M256.907 502.857H255.106V556.88H256.907V502.857Z" stroke="#F99D21" stroke-width="2" stroke-miterlimit="10"/>
<path d="M201.309 0.36377L199.508 0.36377V54.3862H201.309V0.36377Z" stroke="#F99D21" stroke-width="2" stroke-miterlimit="10"/>
<path d="M201.308 391.183H199.507V445.205H201.308V391.183Z" stroke="#F99D21" stroke-width="2" stroke-miterlimit="10"/>
<path d="M201.308 112.038H199.507V166.061H201.308V112.038Z" stroke="#F99D21" stroke-width="2" stroke-miterlimit="10"/>
<path d="M201.308 56.187H199.508V110.209H201.308V56.187Z" stroke="#F99D21" stroke-width="2" stroke-miterlimit="10"/>
<path d="M201.308 335.359H199.508V389.382H201.308V335.359Z" stroke="#F99D21" stroke-width="2" stroke-miterlimit="10"/>
<path d="M201.308 223.684H199.508V277.707H201.308V223.684Z" stroke="#F99D21" stroke-width="2" stroke-miterlimit="10"/>
<path d="M201.308 167.862H199.508V221.884H201.308V167.862Z" stroke="#F99D21" stroke-width="2" stroke-miterlimit="10"/>
<path d="M201.308 279.535H199.508V333.558H201.308V279.535Z" stroke="#F99D21" stroke-width="2" stroke-miterlimit="10"/>
<path d="M201.308 558.68H199.508V612.702H201.308V558.68Z" stroke="#F99D21" stroke-width="2" stroke-miterlimit="10"/>
<path d="M201.308 502.857H199.507V556.88H201.308V502.857Z" stroke="#F99D21" stroke-width="2" stroke-miterlimit="10"/>
<path d="M201.308 447.034H199.507V501.056H201.308V447.034Z" stroke="#F99D21" stroke-width="2" stroke-miterlimit="10"/>
<path d="M145.738 279.536H143.938V333.559H145.738V279.536Z" stroke="#F99D21" stroke-width="2" stroke-miterlimit="10"/>
<path d="M145.738 223.685H143.937V277.707H145.738V223.685Z" stroke="#F99D21" stroke-width="2" stroke-miterlimit="10"/>
<path d="M145.739 167.862H143.938V221.884H145.739V167.862Z" stroke="#F99D21" stroke-width="2" stroke-miterlimit="10"/>
<path d="M145.739 391.183H143.938V445.205H145.739V391.183Z" stroke="#F99D21" stroke-width="2" stroke-miterlimit="10"/>
<path d="M145.738 447.034H143.938V501.056H145.738V447.034Z" stroke="#F99D21" stroke-width="2" stroke-miterlimit="10"/>
<path d="M145.739 502.857H143.938V556.88H145.739V502.857Z" stroke="#F99D21" stroke-width="2" stroke-miterlimit="10"/>
<path d="M145.738 558.68H143.938V612.702H145.738V558.68Z" stroke="#F99D21" stroke-width="2" stroke-miterlimit="10"/>
<path d="M145.739 112.038H143.938V166.061H145.739V112.038Z" stroke="#F99D21" stroke-width="2" stroke-miterlimit="10"/>
<path d="M145.738 335.359H143.938V389.382H145.738V335.359Z" stroke="#F99D21" stroke-width="2" stroke-miterlimit="10"/>
<path d="M145.738 56.1875H143.937V110.21H145.738V56.1875Z" stroke="#F99D21" stroke-width="2" stroke-miterlimit="10"/>
<path d="M145.738 0.362793L143.938 0.362793V54.3853H145.738V0.362793Z" stroke="#F99D21" stroke-width="2" stroke-miterlimit="10"/>
<path d="M90.1409 167.862H88.3402V221.884H90.1409V167.862Z" stroke="#F99D21" stroke-width="2" stroke-miterlimit="10"/>
<path d="M90.1406 447.034H88.3399V501.056H90.1406V447.034Z" stroke="#F99D21" stroke-width="2" stroke-miterlimit="10"/>
<path d="M90.1409 279.535H88.3401V333.558H90.1409V279.535Z" stroke="#F99D21" stroke-width="2" stroke-miterlimit="10"/>
<path d="M90.141 335.359H88.3403V389.382H90.141V335.359Z" stroke="#F99D21" stroke-width="2" stroke-miterlimit="10"/>
<path d="M90.141 112.038H88.3403V166.061H90.141V112.038Z" stroke="#F99D21" stroke-width="2" stroke-miterlimit="10"/>
<path d="M90.1404 502.857H88.3397V556.88H90.1404V502.857Z" stroke="#F99D21" stroke-width="2" stroke-miterlimit="10"/>
<path d="M90.1408 391.183H88.3401V445.205H90.1408V391.183Z" stroke="#F99D21" stroke-width="2" stroke-miterlimit="10"/>
<path d="M90.168 0.36377L88.3672 0.36377V54.3862H90.168V0.36377Z" stroke="#F99D21" stroke-width="2" stroke-miterlimit="10"/>
<path d="M90.1409 558.68H88.3402V612.702H90.1409V558.68Z" stroke="#F99D21" stroke-width="2" stroke-miterlimit="10"/>
<path d="M90.1408 223.685H88.3401V277.707H90.1408V223.685Z" stroke="#F99D21" stroke-width="2" stroke-miterlimit="10"/>
<path d="M90.1682 56.1875H88.3674V110.21H90.1682V56.1875Z" stroke="#F99D21" stroke-width="2" stroke-miterlimit="10"/>
<path d="M34.571 447.034H32.7703V501.056H34.571V447.034Z" stroke="#F99D21" stroke-width="2" stroke-miterlimit="10"/>
<path d="M34.5709 391.183H32.7701V445.205H34.5709V391.183Z" stroke="#F99D21" stroke-width="2" stroke-miterlimit="10"/>
<path d="M34.5711 223.684H32.7704V277.707H34.5711V223.684Z" stroke="#F99D21" stroke-width="2" stroke-miterlimit="10"/>
<path d="M34.5709 279.536H32.7701V333.559H34.5709V279.536Z" stroke="#F99D21" stroke-width="2" stroke-miterlimit="10"/>
<path d="M34.5713 335.359H32.7706V389.382H34.5713V335.359Z" stroke="#F99D21" stroke-width="2" stroke-miterlimit="10"/>
<path d="M34.5706 0.36377L32.7698 0.36377V54.3862H34.5706V0.36377Z" stroke="#F99D21" stroke-width="2" stroke-miterlimit="10"/>
<path d="M34.5708 112.038H32.7701V166.061H34.5708V112.038Z" stroke="#F99D21" stroke-width="2" stroke-miterlimit="10"/>
<path d="M34.5707 56.1875H32.77V110.21H34.5707V56.1875Z" stroke="#F99D21" stroke-width="2" stroke-miterlimit="10"/>
<path d="M34.5707 558.681H32.77V612.703H34.5707V558.681Z" stroke="#F99D21" stroke-width="2" stroke-miterlimit="10"/>
<path d="M34.571 167.862H32.7702V221.884H34.571V167.862Z" stroke="#F99D21" stroke-width="2" stroke-miterlimit="10"/>
<path d="M34.5709 502.857H32.7701V556.88H34.5709V502.857Z" stroke="#F99D21" stroke-width="2" stroke-miterlimit="10"/>
<path d="M88.3402 -1.43652L34.5709 -1.43652V0.364225L88.3402 0.364225V-1.43652Z" stroke="#F99D21" stroke-width="2" stroke-miterlimit="10"/>
<path d="M588.554 -1.43652L534.785 -1.43652V0.364225L588.554 0.364225V-1.43652Z" stroke="#F99D21" stroke-width="2" stroke-miterlimit="10"/>
<path d="M255.078 -1.43701L201.309 -1.43701V0.363736L255.078 0.363736V-1.43701Z" stroke="#F99D21" stroke-width="2" stroke-miterlimit="10"/>
<path d="M199.507 -1.43652L145.738 -1.43652V0.364225L199.507 0.364225V-1.43652Z" stroke="#F99D21" stroke-width="2" stroke-miterlimit="10"/>
<path d="M644.153 -1.43701L590.384 -1.43701V0.363736L644.153 0.363736V-1.43701Z" stroke="#F99D21" stroke-width="2" stroke-miterlimit="10"/>
<path d="M310.676 -1.43652L256.907 -1.43652V0.364225L310.676 0.364225V-1.43652Z" stroke="#F99D21" stroke-width="2" stroke-miterlimit="10"/>
<path d="M366.246 -1.43701L312.477 -1.43701V0.363736L366.246 0.363736V-1.43701Z" stroke="#F99D21" stroke-width="2" stroke-miterlimit="10"/>
<path d="M532.985 -1.43701L479.215 -1.43701V0.363736L532.985 0.363736V-1.43701Z" stroke="#F99D21" stroke-width="2" stroke-miterlimit="10"/>
<path d="M477.414 -1.43652L423.645 -1.43652V0.364225L477.414 0.364225V-1.43652Z" stroke="#F99D21" stroke-width="2" stroke-miterlimit="10"/>
<path d="M421.816 -1.43701L368.047 -1.43701V0.363736L421.816 0.363736V-1.43701Z" stroke="#F99D21" stroke-width="2" stroke-miterlimit="10"/>
<path d="M143.938 -1.43701L90.1686 -1.43701V0.363736L143.938 0.363736V-1.43701Z" stroke="#F99D21" stroke-width="2" stroke-miterlimit="10"/>
<path d="M32.7699 -1.43652L-20.9994 -1.43652V0.364225L32.7699 0.364225V-1.43652Z" stroke="#F99D21" stroke-width="2" stroke-miterlimit="10"/>
<path d="M590.383 -1.43652H588.582V0.364225H590.383V-1.43652Z" stroke="#F99D21" stroke-width="2" stroke-miterlimit="10"/>
<path d="M534.785 -1.43701H532.984V0.363736H534.785V-1.43701Z" stroke="#F99D21" stroke-width="2" stroke-miterlimit="10"/>
<path d="M479.214 -1.43652H477.414V0.364225H479.214V-1.43652Z" stroke="#F99D21" stroke-width="2" stroke-miterlimit="10"/>
<path d="M423.645 -1.43652H421.844V0.364225H423.645V-1.43652Z" stroke="#F99D21" stroke-width="2" stroke-miterlimit="10"/>
<path d="M368.047 -1.43652H366.246V0.364225H368.047V-1.43652Z" stroke="#F99D21" stroke-width="2" stroke-miterlimit="10"/>
<path d="M312.476 -1.43652H310.675V0.364225H312.476V-1.43652Z" stroke="#F99D21" stroke-width="2" stroke-miterlimit="10"/>
<path d="M256.907 -1.43701H255.106V0.363736H256.907V-1.43701Z" stroke="#F99D21" stroke-width="2" stroke-miterlimit="10"/>
<path d="M201.308 -1.43652H199.507V0.364225H201.308V-1.43652Z" stroke="#F99D21" stroke-width="2" stroke-miterlimit="10"/>
<path d="M145.739 -1.43652H143.938V0.364225H145.739V-1.43652Z" stroke="#F99D21" stroke-width="2" stroke-miterlimit="10"/>
<path d="M90.169 -1.43652H88.3682V0.364225H90.169V-1.43652Z" stroke="#F99D21" stroke-width="2" stroke-miterlimit="10"/>
<path d="M34.5712 -1.43652H32.7704V0.364225H34.5712V-1.43652Z" stroke="#F99D21" stroke-width="2" stroke-miterlimit="10"/>
<path d="M255.078 54.3867H201.309V56.1875H255.078V54.3867Z" stroke="#F99D21" stroke-width="2" stroke-miterlimit="10"/>
<path d="M644.153 54.3857H590.384V56.1865H644.153V54.3857Z" stroke="#F99D21" stroke-width="2" stroke-miterlimit="10"/>
<path d="M199.508 54.3867H145.739V56.1875H199.508V54.3867Z" stroke="#F99D21" stroke-width="2" stroke-miterlimit="10"/>
<path d="M477.415 54.3857H423.645V56.1865H477.415V54.3857Z" stroke="#F99D21" stroke-width="2" stroke-miterlimit="10"/>
<path d="M532.985 54.3857H479.215V56.1865H532.985V54.3857Z" stroke="#F99D21" stroke-width="2" stroke-miterlimit="10"/>
<path d="M421.816 54.3857H368.047V56.1865H421.816V54.3857Z" stroke="#F99D21" stroke-width="2" stroke-miterlimit="10"/>
<path d="M310.676 54.3857H256.907V56.1865H310.676V54.3857Z" stroke="#F99D21" stroke-width="2" stroke-miterlimit="10"/>
<path d="M366.246 54.3857H312.477V56.1865H366.246V54.3857Z" stroke="#F99D21" stroke-width="2" stroke-miterlimit="10"/>
<path d="M143.937 54.3867H90.1681V56.1875H143.937V54.3867Z" stroke="#F99D21" stroke-width="2" stroke-miterlimit="10"/>
<path d="M32.77 54.3857H-20.9993V56.1865H32.77V54.3857Z" stroke="#F99D21" stroke-width="2" stroke-miterlimit="10"/>
<path d="M588.554 54.3857H534.785V56.1865H588.554V54.3857Z" stroke="#F99D21" stroke-width="2" stroke-miterlimit="10"/>
<path d="M88.34 54.3857H34.5707V56.1865H88.34V54.3857Z" stroke="#F99D21" stroke-width="2" stroke-miterlimit="10"/>
<path d="M590.355 54.3857H588.554V56.1865H590.355V54.3857Z" stroke="#F99D21" stroke-width="2" stroke-miterlimit="10"/>
<path d="M534.785 54.3853H532.984V56.186H534.785V54.3853Z" stroke="#F99D21" stroke-width="2" stroke-miterlimit="10"/>
<path d="M479.214 54.3857H477.414V56.1865H479.214V54.3857Z" stroke="#F99D21" stroke-width="2" stroke-miterlimit="10"/>
<path d="M423.645 54.3857H421.844V56.1865H423.645V54.3857Z" stroke="#F99D21" stroke-width="2" stroke-miterlimit="10"/>
<path d="M368.047 54.3857H366.246V56.1865H368.047V54.3857Z" stroke="#F99D21" stroke-width="2" stroke-miterlimit="10"/>
<path d="M312.477 54.3867H310.676V56.1875H312.477V54.3867Z" stroke="#F99D21" stroke-width="2" stroke-miterlimit="10"/>
<path d="M256.906 54.3857H255.106V56.1865H256.906V54.3857Z" stroke="#F99D21" stroke-width="2" stroke-miterlimit="10"/>
<path d="M201.308 54.3867H199.507V56.1875H201.308V54.3867Z" stroke="#F99D21" stroke-width="2" stroke-miterlimit="10"/>
<path d="M145.738 54.3867H143.938V56.1875H145.738V54.3867Z" stroke="#F99D21" stroke-width="2" stroke-miterlimit="10"/>
<path d="M90.1688 54.3857H88.368V56.1865H90.1688V54.3857Z" stroke="#F99D21" stroke-width="2" stroke-miterlimit="10"/>
<path d="M34.571 54.3857H32.7703V56.1865H34.571V54.3857Z" stroke="#F99D21" stroke-width="2" stroke-miterlimit="10"/>
<path d="M88.3395 110.238H34.5703V112.039H88.3395V110.238Z" stroke="#F99D21" stroke-width="2" stroke-miterlimit="10"/>
<path d="M588.555 110.238H534.785V112.039H588.555V110.238Z" stroke="#F99D21" stroke-width="2" stroke-miterlimit="10"/>
<path d="M644.153 110.238H590.383V112.039H644.153V110.238Z" stroke="#F99D21" stroke-width="2" stroke-miterlimit="10"/>
<path d="M310.677 110.238H256.907V112.039H310.677V110.238Z" stroke="#F99D21" stroke-width="2" stroke-miterlimit="10"/>
<path d="M366.246 110.238H312.477V112.039H366.246V110.238Z" stroke="#F99D21" stroke-width="2" stroke-miterlimit="10"/>
<path d="M199.508 110.238H145.739V112.039H199.508V110.238Z" stroke="#F99D21" stroke-width="2" stroke-miterlimit="10"/>
<path d="M255.078 110.238H201.309V112.039H255.078V110.238Z" stroke="#F99D21" stroke-width="2" stroke-miterlimit="10"/>
<path d="M477.414 110.237H423.645V112.038H477.414V110.237Z" stroke="#F99D21" stroke-width="2" stroke-miterlimit="10"/>
<path d="M143.938 110.238H90.1692V112.039H143.938V110.238Z" stroke="#F99D21" stroke-width="2" stroke-miterlimit="10"/>
<path d="M421.816 110.238H368.047V112.039H421.816V110.238Z" stroke="#F99D21" stroke-width="2" stroke-miterlimit="10"/>
<path d="M532.984 110.238H479.215V112.039H532.984V110.238Z" stroke="#F99D21" stroke-width="2" stroke-miterlimit="10"/>
<path d="M32.7698 110.238H-20.9995V112.039H32.7698V110.238Z" stroke="#F99D21" stroke-width="2" stroke-miterlimit="10"/>
<path d="M590.355 110.238H588.554V112.039H590.355V110.238Z" stroke="#F99D21" stroke-width="2" stroke-miterlimit="10"/>
<path d="M534.784 110.239H532.984V112.04H534.784V110.239Z" stroke="#F99D21" stroke-width="2" stroke-miterlimit="10"/>
<path d="M479.215 110.238H477.414V112.039H479.215V110.238Z" stroke="#F99D21" stroke-width="2" stroke-miterlimit="10"/>
<path d="M423.645 110.238H421.844V112.039H423.645V110.238Z" stroke="#F99D21" stroke-width="2" stroke-miterlimit="10"/>
<path d="M368.046 110.238H366.245V112.039H368.046V110.238Z" stroke="#F99D21" stroke-width="2" stroke-miterlimit="10"/>
<path d="M312.477 110.238H310.676V112.039H312.477V110.238Z" stroke="#F99D21" stroke-width="2" stroke-miterlimit="10"/>
<path d="M256.907 110.238H255.106V112.039H256.907V110.238Z" stroke="#F99D21" stroke-width="2" stroke-miterlimit="10"/>
<path d="M201.308 110.238H199.507V112.039H201.308V110.238Z" stroke="#F99D21" stroke-width="2" stroke-miterlimit="10"/>
<path d="M145.738 110.238H143.938V112.039H145.738V110.238Z" stroke="#F99D21" stroke-width="2" stroke-miterlimit="10"/>
<path d="M90.1408 110.238H88.3401V112.039H90.1408V110.238Z" stroke="#F99D21" stroke-width="2" stroke-miterlimit="10"/>
<path d="M34.5708 110.238H32.7701V112.039H34.5708V110.238Z" stroke="#F99D21" stroke-width="2" stroke-miterlimit="10"/>
<path d="M366.246 166.061H312.477V167.862H366.246V166.061Z" stroke="#F99D21" stroke-width="2" stroke-miterlimit="10"/>
<path d="M255.078 166.061H201.308V167.862H255.078V166.061Z" stroke="#F99D21" stroke-width="2" stroke-miterlimit="10"/>
<path d="M477.414 166.06H423.645V167.861H477.414V166.06Z" stroke="#F99D21" stroke-width="2" stroke-miterlimit="10"/>
<path d="M421.816 166.06H368.047V167.861H421.816V166.06Z" stroke="#F99D21" stroke-width="2" stroke-miterlimit="10"/>
<path d="M310.676 166.06H256.907V167.861H310.676V166.06Z" stroke="#F99D21" stroke-width="2" stroke-miterlimit="10"/>
<path d="M644.152 166.06H590.383V167.861H644.152V166.06Z" stroke="#F99D21" stroke-width="2" stroke-miterlimit="10"/>
<path d="M32.7697 166.06H-20.9996V167.861H32.7697V166.06Z" stroke="#F99D21" stroke-width="2" stroke-miterlimit="10"/>
<path d="M588.555 166.06H534.786V167.861H588.555V166.06Z" stroke="#F99D21" stroke-width="2" stroke-miterlimit="10"/>
<path d="M532.985 166.061H479.215V167.862H532.985V166.061Z" stroke="#F99D21" stroke-width="2" stroke-miterlimit="10"/>
<path d="M88.3393 166.06H34.5701V167.861H88.3393V166.06Z" stroke="#F99D21" stroke-width="2" stroke-miterlimit="10"/>
<path d="M199.508 166.06H145.739V167.861H199.508V166.06Z" stroke="#F99D21" stroke-width="2" stroke-miterlimit="10"/>
<path d="M143.938 166.06H90.169V167.861H143.938V166.06Z" stroke="#F99D21" stroke-width="2" stroke-miterlimit="10"/>
<path d="M590.355 166.06H588.554V167.861H590.355V166.06Z" stroke="#F99D21" stroke-width="2" stroke-miterlimit="10"/>
<path d="M534.784 166.061H532.984V167.862H534.784V166.061Z" stroke="#F99D21" stroke-width="2" stroke-miterlimit="10"/>
<path d="M479.215 166.061H477.414V167.862H479.215V166.061Z" stroke="#F99D21" stroke-width="2" stroke-miterlimit="10"/>
<path d="M423.645 166.061H421.844V167.862H423.645V166.061Z" stroke="#F99D21" stroke-width="2" stroke-miterlimit="10"/>
<path d="M368.047 166.06H366.246V167.861H368.047V166.06Z" stroke="#F99D21" stroke-width="2" stroke-miterlimit="10"/>
<path d="M312.476 166.061H310.676V167.862H312.476V166.061Z" stroke="#F99D21" stroke-width="2" stroke-miterlimit="10"/>
<path d="M256.907 166.06H255.106V167.861H256.907V166.06Z" stroke="#F99D21" stroke-width="2" stroke-miterlimit="10"/>
<path d="M201.308 166.06H199.508V167.861H201.308V166.06Z" stroke="#F99D21" stroke-width="2" stroke-miterlimit="10"/>
<path d="M145.738 166.06H143.937V167.861H145.738V166.06Z" stroke="#F99D21" stroke-width="2" stroke-miterlimit="10"/>
<path d="M90.1406 166.06H88.3399V167.861H90.1406V166.06Z" stroke="#F99D21" stroke-width="2" stroke-miterlimit="10"/>
<path d="M34.571 166.06H32.7703V167.861H34.571V166.06Z" stroke="#F99D21" stroke-width="2" stroke-miterlimit="10"/>
<path d="M32.7701 221.912H-20.9991V223.713H32.7701V221.912Z" stroke="#F99D21" stroke-width="2" stroke-miterlimit="10"/>
<path d="M88.3397 221.912H34.5704V223.713H88.3397V221.912Z" stroke="#F99D21" stroke-width="2" stroke-miterlimit="10"/>
<path d="M310.676 221.912H256.907V223.713H310.676V221.912Z" stroke="#F99D21" stroke-width="2" stroke-miterlimit="10"/>
<path d="M644.153 221.912H590.384V223.713H644.153V221.912Z" stroke="#F99D21" stroke-width="2" stroke-miterlimit="10"/>
<path d="M143.938 221.912H90.1688V223.713H143.938V221.912Z" stroke="#F99D21" stroke-width="2" stroke-miterlimit="10"/>
<path d="M532.984 221.912H479.215V223.713H532.984V221.912Z" stroke="#F99D21" stroke-width="2" stroke-miterlimit="10"/>
<path d="M588.554 221.912H534.785V223.713H588.554V221.912Z" stroke="#F99D21" stroke-width="2" stroke-miterlimit="10"/>
<path d="M477.415 221.912H423.645V223.713H477.415V221.912Z" stroke="#F99D21" stroke-width="2" stroke-miterlimit="10"/>
<path d="M255.078 221.913H201.309V223.714H255.078V221.913Z" stroke="#F99D21" stroke-width="2" stroke-miterlimit="10"/>
<path d="M199.508 221.912H145.739V223.713H199.508V221.912Z" stroke="#F99D21" stroke-width="2" stroke-miterlimit="10"/>
<path d="M366.246 221.912H312.477V223.713H366.246V221.912Z" stroke="#F99D21" stroke-width="2" stroke-miterlimit="10"/>
<path d="M421.816 221.912H368.046V223.713H421.816V221.912Z" stroke="#F99D21" stroke-width="2" stroke-miterlimit="10"/>
<path d="M590.354 221.912H588.554V223.713H590.354V221.912Z" stroke="#F99D21" stroke-width="2" stroke-miterlimit="10"/>
<path d="M534.785 221.912H532.985V223.713H534.785V221.912Z" stroke="#F99D21" stroke-width="2" stroke-miterlimit="10"/>
<path d="M479.214 221.912H477.414V223.713H479.214V221.912Z" stroke="#F99D21" stroke-width="2" stroke-miterlimit="10"/>
<path d="M423.645 221.912H421.844V223.713H423.645V221.912Z" stroke="#F99D21" stroke-width="2" stroke-miterlimit="10"/>
<path d="M368.047 221.912H366.246V223.713H368.047V221.912Z" stroke="#F99D21" stroke-width="2" stroke-miterlimit="10"/>
<path d="M312.477 221.913H310.676V223.714H312.477V221.913Z" stroke="#F99D21" stroke-width="2" stroke-miterlimit="10"/>
<path d="M256.906 221.912H255.105V223.713H256.906V221.912Z" stroke="#F99D21" stroke-width="2" stroke-miterlimit="10"/>
<path d="M201.309 221.912H199.508V223.713H201.309V221.912Z" stroke="#F99D21" stroke-width="2" stroke-miterlimit="10"/>
<path d="M145.739 221.912H143.938V223.713H145.739V221.912Z" stroke="#F99D21" stroke-width="2" stroke-miterlimit="10"/>
<path d="M90.141 221.912H88.3403V223.713H90.141V221.912Z" stroke="#F99D21" stroke-width="2" stroke-miterlimit="10"/>
<path d="M34.5711 221.912H32.7703V223.713H34.5711V221.912Z" stroke="#F99D21" stroke-width="2" stroke-miterlimit="10"/>
<path d="M32.7696 277.735H-20.9997V279.536H32.7696V277.735Z" stroke="#F99D21" stroke-width="2" stroke-miterlimit="10"/>
<path d="M88.3393 277.736H34.57V279.537H88.3393V277.736Z" stroke="#F99D21" stroke-width="2" stroke-miterlimit="10"/>
<path d="M366.246 277.736H312.477V279.537H366.246V277.736Z" stroke="#F99D21" stroke-width="2" stroke-miterlimit="10"/>
<path d="M421.816 277.735H368.047V279.536H421.816V277.735Z" stroke="#F99D21" stroke-width="2" stroke-miterlimit="10"/>
<path d="M310.676 277.736H256.907V279.537H310.676V277.736Z" stroke="#F99D21" stroke-width="2" stroke-miterlimit="10"/>
<path d="M255.077 277.736H201.308V279.537H255.077V277.736Z" stroke="#F99D21" stroke-width="2" stroke-miterlimit="10"/>
<path d="M199.508 277.736H145.739V279.537H199.508V277.736Z" stroke="#F99D21" stroke-width="2" stroke-miterlimit="10"/>
<path d="M588.555 277.736H534.785V279.537H588.555V277.736Z" stroke="#F99D21" stroke-width="2" stroke-miterlimit="10"/>
<path d="M644.152 277.736H590.383V279.537H644.152V277.736Z" stroke="#F99D21" stroke-width="2" stroke-miterlimit="10"/>
<path d="M143.938 277.735H90.1689V279.536H143.938V277.735Z" stroke="#F99D21" stroke-width="2" stroke-miterlimit="10"/>
<path d="M477.415 277.736H423.645V279.537H477.415V277.736Z" stroke="#F99D21" stroke-width="2" stroke-miterlimit="10"/>
<path d="M532.984 277.736H479.215V279.537H532.984V277.736Z" stroke="#F99D21" stroke-width="2" stroke-miterlimit="10"/>
<path d="M590.355 277.735H588.554V279.536H590.355V277.735Z" stroke="#F99D21" stroke-width="2" stroke-miterlimit="10"/>
<path d="M534.784 277.736H532.984V279.537H534.784V277.736Z" stroke="#F99D21" stroke-width="2" stroke-miterlimit="10"/>
<path d="M479.215 277.736H477.414V279.537H479.215V277.736Z" stroke="#F99D21" stroke-width="2" stroke-miterlimit="10"/>
<path d="M423.645 277.736H421.844V279.537H423.645V277.736Z" stroke="#F99D21" stroke-width="2" stroke-miterlimit="10"/>
<path d="M368.046 277.736H366.245V279.537H368.046V277.736Z" stroke="#F99D21" stroke-width="2" stroke-miterlimit="10"/>
<path d="M312.476 277.736H310.675V279.537H312.476V277.736Z" stroke="#F99D21" stroke-width="2" stroke-miterlimit="10"/>
<path d="M256.907 277.735H255.106V279.536H256.907V277.735Z" stroke="#F99D21" stroke-width="2" stroke-miterlimit="10"/>
<path d="M201.309 277.736H199.508V279.537H201.309V277.736Z" stroke="#F99D21" stroke-width="2" stroke-miterlimit="10"/>
<path d="M145.738 277.736H143.937V279.537H145.738V277.736Z" stroke="#F99D21" stroke-width="2" stroke-miterlimit="10"/>
<path d="M90.1405 277.735H88.3398V279.536H90.1405V277.735Z" stroke="#F99D21" stroke-width="2" stroke-miterlimit="10"/>
<path d="M34.5709 277.735H32.7701V279.536H34.5709V277.735Z" stroke="#F99D21" stroke-width="2" stroke-miterlimit="10"/>
<path d="M421.817 333.559H368.047V335.359H421.817V333.559Z" stroke="#F99D21" stroke-width="2" stroke-miterlimit="10"/>
<path d="M477.415 333.559H423.645V335.359H477.415V333.559Z" stroke="#F99D21" stroke-width="2" stroke-miterlimit="10"/>
<path d="M88.3397 333.558H34.5704V335.358H88.3397V333.558Z" stroke="#F99D21" stroke-width="2" stroke-miterlimit="10"/>
<path d="M366.246 333.559H312.477V335.359H366.246V333.559Z" stroke="#F99D21" stroke-width="2" stroke-miterlimit="10"/>
<path d="M199.508 333.559H145.738V335.359H199.508V333.559Z" stroke="#F99D21" stroke-width="2" stroke-miterlimit="10"/>
<path d="M143.938 333.559H90.1688V335.359H143.938V333.559Z" stroke="#F99D21" stroke-width="2" stroke-miterlimit="10"/>
<path d="M255.078 333.559H201.309V335.359H255.078V333.559Z" stroke="#F99D21" stroke-width="2" stroke-miterlimit="10"/>
<path d="M532.984 333.559H479.215V335.359H532.984V333.559Z" stroke="#F99D21" stroke-width="2" stroke-miterlimit="10"/>
<path d="M644.152 333.559H590.383V335.359H644.152V333.559Z" stroke="#F99D21" stroke-width="2" stroke-miterlimit="10"/>
<path d="M32.7694 333.559H-20.9999V335.359H32.7694V333.559Z" stroke="#F99D21" stroke-width="2" stroke-miterlimit="10"/>
<path d="M588.555 333.559H534.786V335.359H588.555V333.559Z" stroke="#F99D21" stroke-width="2" stroke-miterlimit="10"/>
<path d="M310.676 333.559H256.907V335.359H310.676V333.559Z" stroke="#F99D21" stroke-width="2" stroke-miterlimit="10"/>
<path d="M590.355 333.559H588.554V335.359H590.355V333.559Z" stroke="#F99D21" stroke-width="2" stroke-miterlimit="10"/>
<path d="M534.785 333.559H532.984V335.359H534.785V333.559Z" stroke="#F99D21" stroke-width="2" stroke-miterlimit="10"/>
<path d="M479.215 333.559H477.414V335.359H479.215V333.559Z" stroke="#F99D21" stroke-width="2" stroke-miterlimit="10"/>
<path d="M423.645 333.559H421.844V335.359H423.645V333.559Z" stroke="#F99D21" stroke-width="2" stroke-miterlimit="10"/>
<path d="M368.046 333.559H366.246V335.359H368.046V333.559Z" stroke="#F99D21" stroke-width="2" stroke-miterlimit="10"/>
<path d="M312.477 333.559H310.676V335.359H312.477V333.559Z" stroke="#F99D21" stroke-width="2" stroke-miterlimit="10"/>
<path d="M256.906 333.559H255.106V335.359H256.906V333.559Z" stroke="#F99D21" stroke-width="2" stroke-miterlimit="10"/>
<path d="M201.308 333.559H199.507V335.359H201.308V333.559Z" stroke="#F99D21" stroke-width="2" stroke-miterlimit="10"/>
<path d="M145.738 333.558H143.938V335.358H145.738V333.558Z" stroke="#F99D21" stroke-width="2" stroke-miterlimit="10"/>
<path d="M90.1404 333.559H88.3397V335.359H90.1404V333.559Z" stroke="#F99D21" stroke-width="2" stroke-miterlimit="10"/>
<path d="M34.5708 333.559H32.77V335.359H34.5708V333.559Z" stroke="#F99D21" stroke-width="2" stroke-miterlimit="10"/>
<path d="M310.676 389.382H256.906V391.183H310.676V389.382Z" stroke="#F99D21" stroke-width="2" stroke-miterlimit="10"/>
<path d="M255.078 389.382H201.309V391.183H255.078V389.382Z" stroke="#F99D21" stroke-width="2" stroke-miterlimit="10"/>
<path d="M199.508 389.382H145.739V391.183H199.508V389.382Z" stroke="#F99D21" stroke-width="2" stroke-miterlimit="10"/>
<path d="M88.3402 389.382H34.5709V391.183H88.3402V389.382Z" stroke="#F99D21" stroke-width="2" stroke-miterlimit="10"/>
<path d="M32.7699 389.382H-20.9994V391.183H32.7699V389.382Z" stroke="#F99D21" stroke-width="2" stroke-miterlimit="10"/>
<path d="M143.938 389.382H90.1689V391.183H143.938V389.382Z" stroke="#F99D21" stroke-width="2" stroke-miterlimit="10"/>
<path d="M532.984 389.382H479.215V391.183H532.984V389.382Z" stroke="#F99D21" stroke-width="2" stroke-miterlimit="10"/>
<path d="M588.554 389.382H534.785V391.183H588.554V389.382Z" stroke="#F99D21" stroke-width="2" stroke-miterlimit="10"/>
<path d="M644.153 389.382H590.384V391.183H644.153V389.382Z" stroke="#F99D21" stroke-width="2" stroke-miterlimit="10"/>
<path d="M421.816 389.382H368.047V391.183H421.816V389.382Z" stroke="#F99D21" stroke-width="2" stroke-miterlimit="10"/>
<path d="M366.246 389.382H312.477V391.183H366.246V389.382Z" stroke="#F99D21" stroke-width="2" stroke-miterlimit="10"/>
<path d="M477.415 389.382H423.645V391.183H477.415V389.382Z" stroke="#F99D21" stroke-width="2" stroke-miterlimit="10"/>
<path d="M590.355 389.382H588.554V391.183H590.355V389.382Z" stroke="#F99D21" stroke-width="2" stroke-miterlimit="10"/>
<path d="M534.785 389.382H532.984V391.183H534.785V389.382Z" stroke="#F99D21" stroke-width="2" stroke-miterlimit="10"/>
<path d="M479.215 389.381H477.414V391.182H479.215V389.381Z" stroke="#F99D21" stroke-width="2" stroke-miterlimit="10"/>
<path d="M423.644 389.382H421.844V391.183H423.644V389.382Z" stroke="#F99D21" stroke-width="2" stroke-miterlimit="10"/>
<path d="M368.047 389.382H366.246V391.183H368.047V389.382Z" stroke="#F99D21" stroke-width="2" stroke-miterlimit="10"/>
<path d="M312.477 389.382H310.676V391.183H312.477V389.382Z" stroke="#F99D21" stroke-width="2" stroke-miterlimit="10"/>
<path d="M256.907 389.382H255.106V391.183H256.907V389.382Z" stroke="#F99D21" stroke-width="2" stroke-miterlimit="10"/>
<path d="M201.309 389.382H199.508V391.183H201.309V389.382Z" stroke="#F99D21" stroke-width="2" stroke-miterlimit="10"/>
<path d="M145.738 389.382H143.938V391.183H145.738V389.382Z" stroke="#F99D21" stroke-width="2" stroke-miterlimit="10"/>
<path d="M90.1409 389.382H88.3401V391.183H90.1409V389.382Z" stroke="#F99D21" stroke-width="2" stroke-miterlimit="10"/>
<path d="M34.5709 389.382H32.7701V391.183H34.5709V389.382Z" stroke="#F99D21" stroke-width="2" stroke-miterlimit="10"/>
<path d="M255.078 445.233H201.308V447.034H255.078V445.233Z" stroke="#F99D21" stroke-width="2" stroke-miterlimit="10"/>
<path d="M588.555 445.233H534.785V447.034H588.555V445.233Z" stroke="#F99D21" stroke-width="2" stroke-miterlimit="10"/>
<path d="M199.508 445.233H145.739V447.034H199.508V445.233Z" stroke="#F99D21" stroke-width="2" stroke-miterlimit="10"/>
<path d="M532.985 445.233H479.215V447.034H532.985V445.233Z" stroke="#F99D21" stroke-width="2" stroke-miterlimit="10"/>
<path d="M366.246 445.233H312.477V447.034H366.246V445.233Z" stroke="#F99D21" stroke-width="2" stroke-miterlimit="10"/>
<path d="M421.817 445.232H368.047V447.033H421.817V445.232Z" stroke="#F99D21" stroke-width="2" stroke-miterlimit="10"/>
<path d="M88.3396 445.232H34.5704V447.033H88.3396V445.232Z" stroke="#F99D21" stroke-width="2" stroke-miterlimit="10"/>
<path d="M477.415 445.233H423.645V447.034H477.415V445.233Z" stroke="#F99D21" stroke-width="2" stroke-miterlimit="10"/>
<path d="M310.676 445.233H256.907V447.034H310.676V445.233Z" stroke="#F99D21" stroke-width="2" stroke-miterlimit="10"/>
<path d="M32.7694 445.233H-20.9999V447.034H32.7694V445.233Z" stroke="#F99D21" stroke-width="2" stroke-miterlimit="10"/>
<path d="M644.152 445.233H590.383V447.034H644.152V445.233Z" stroke="#F99D21" stroke-width="2" stroke-miterlimit="10"/>
<path d="M143.938 445.233H90.1687V447.034H143.938V445.233Z" stroke="#F99D21" stroke-width="2" stroke-miterlimit="10"/>
<path d="M590.355 445.232H588.554V447.033H590.355V445.232Z" stroke="#F99D21" stroke-width="2" stroke-miterlimit="10"/>
<path d="M534.785 445.233H532.984V447.034H534.785V445.233Z" stroke="#F99D21" stroke-width="2" stroke-miterlimit="10"/>
<path d="M479.215 445.233H477.414V447.034H479.215V445.233Z" stroke="#F99D21" stroke-width="2" stroke-miterlimit="10"/>
<path d="M423.645 445.233H421.844V447.034H423.645V445.233Z" stroke="#F99D21" stroke-width="2" stroke-miterlimit="10"/>
<path d="M368.046 445.233H366.246V447.034H368.046V445.233Z" stroke="#F99D21" stroke-width="2" stroke-miterlimit="10"/>
<path d="M312.476 445.233H310.676V447.034H312.476V445.233Z" stroke="#F99D21" stroke-width="2" stroke-miterlimit="10"/>
<path d="M256.907 445.233H255.106V447.034H256.907V445.233Z" stroke="#F99D21" stroke-width="2" stroke-miterlimit="10"/>
<path d="M201.308 445.233H199.507V447.034H201.308V445.233Z" stroke="#F99D21" stroke-width="2" stroke-miterlimit="10"/>
<path d="M145.738 445.232H143.938V447.033H145.738V445.232Z" stroke="#F99D21" stroke-width="2" stroke-miterlimit="10"/>
<path d="M90.1403 445.233H88.3396V447.034H90.1403V445.233Z" stroke="#F99D21" stroke-width="2" stroke-miterlimit="10"/>
<path d="M34.5707 445.232H32.77V447.033H34.5707V445.232Z" stroke="#F99D21" stroke-width="2" stroke-miterlimit="10"/>
<path d="M588.554 501.057H534.785V502.857H588.554V501.057Z" stroke="#F99D21" stroke-width="2" stroke-miterlimit="10"/>
<path d="M532.985 501.057H479.215V502.857H532.985V501.057Z" stroke="#F99D21" stroke-width="2" stroke-miterlimit="10"/>
<path d="M143.938 501.056H90.1689V502.856H143.938V501.056Z" stroke="#F99D21" stroke-width="2" stroke-miterlimit="10"/>
<path d="M88.3398 501.057H34.5706V502.857H88.3398V501.057Z" stroke="#F99D21" stroke-width="2" stroke-miterlimit="10"/>
<path d="M32.7695 501.056H-20.9998V502.856H32.7695V501.056Z" stroke="#F99D21" stroke-width="2" stroke-miterlimit="10"/>
<path d="M477.415 501.057H423.645V502.857H477.415V501.057Z" stroke="#F99D21" stroke-width="2" stroke-miterlimit="10"/>
<path d="M421.816 501.057H368.047V502.857H421.816V501.057Z" stroke="#F99D21" stroke-width="2" stroke-miterlimit="10"/>
<path d="M310.676 501.056H256.907V502.856H310.676V501.056Z" stroke="#F99D21" stroke-width="2" stroke-miterlimit="10"/>
<path d="M255.078 501.056H201.309V502.856H255.078V501.056Z" stroke="#F99D21" stroke-width="2" stroke-miterlimit="10"/>
<path d="M644.152 501.056H590.383V502.856H644.152V501.056Z" stroke="#F99D21" stroke-width="2" stroke-miterlimit="10"/>
<path d="M199.508 501.056H145.739V502.856H199.508V501.056Z" stroke="#F99D21" stroke-width="2" stroke-miterlimit="10"/>
<path d="M366.246 501.057H312.477V502.857H366.246V501.057Z" stroke="#F99D21" stroke-width="2" stroke-miterlimit="10"/>
<path d="M590.355 501.056H588.554V502.856H590.355V501.056Z" stroke="#F99D21" stroke-width="2" stroke-miterlimit="10"/>
<path d="M534.785 501.056H532.984V502.856H534.785V501.056Z" stroke="#F99D21" stroke-width="2" stroke-miterlimit="10"/>
<path d="M479.214 501.057H477.414V502.857H479.214V501.057Z" stroke="#F99D21" stroke-width="2" stroke-miterlimit="10"/>
<path d="M423.645 501.057H421.844V502.857H423.645V501.057Z" stroke="#F99D21" stroke-width="2" stroke-miterlimit="10"/>
<path d="M368.046 501.057H366.245V502.857H368.046V501.057Z" stroke="#F99D21" stroke-width="2" stroke-miterlimit="10"/>
<path d="M312.476 501.057H310.675V502.857H312.476V501.057Z" stroke="#F99D21" stroke-width="2" stroke-miterlimit="10"/>
<path d="M256.907 501.056H255.106V502.856H256.907V501.056Z" stroke="#F99D21" stroke-width="2" stroke-miterlimit="10"/>
<path d="M201.308 501.057H199.508V502.857H201.308V501.057Z" stroke="#F99D21" stroke-width="2" stroke-miterlimit="10"/>
<path d="M145.738 501.056H143.937V502.856H145.738V501.056Z" stroke="#F99D21" stroke-width="2" stroke-miterlimit="10"/>
<path d="M90.1404 501.056H88.3397V502.856H90.1404V501.056Z" stroke="#F99D21" stroke-width="2" stroke-miterlimit="10"/>
<path d="M34.5706 501.056H32.7698V502.856H34.5706V501.056Z" stroke="#F99D21" stroke-width="2" stroke-miterlimit="10"/>
<path d="M88.3396 556.88H34.5704V558.681H88.3396V556.88Z" stroke="#F99D21" stroke-width="2" stroke-miterlimit="10"/>
<path d="M143.938 556.88H90.1689V558.681H143.938V556.88Z" stroke="#F99D21" stroke-width="2" stroke-miterlimit="10"/>
<path d="M32.7697 556.88H-20.9996V558.681H32.7697V556.88Z" stroke="#F99D21" stroke-width="2" stroke-miterlimit="10"/>
<path d="M366.246 556.88H312.477V558.681H366.246V556.88Z" stroke="#F99D21" stroke-width="2" stroke-miterlimit="10"/>
<path d="M310.676 556.88H256.907V558.681H310.676V556.88Z" stroke="#F99D21" stroke-width="2" stroke-miterlimit="10"/>
<path d="M255.078 556.88H201.309V558.681H255.078V556.88Z" stroke="#F99D21" stroke-width="2" stroke-miterlimit="10"/>
<path d="M644.153 556.879H590.383V558.68H644.153V556.879Z" stroke="#F99D21" stroke-width="2" stroke-miterlimit="10"/>
<path d="M532.984 556.88H479.215V558.681H532.984V556.88Z" stroke="#F99D21" stroke-width="2" stroke-miterlimit="10"/>
<path d="M199.508 556.88H145.739V558.681H199.508V556.88Z" stroke="#F99D21" stroke-width="2" stroke-miterlimit="10"/>
<path d="M421.816 556.88H368.047V558.681H421.816V556.88Z" stroke="#F99D21" stroke-width="2" stroke-miterlimit="10"/>
<path d="M477.415 556.879H423.645V558.68H477.415V556.879Z" stroke="#F99D21" stroke-width="2" stroke-miterlimit="10"/>
<path d="M588.555 556.88H534.785V558.681H588.555V556.88Z" stroke="#F99D21" stroke-width="2" stroke-miterlimit="10"/>
<path d="M590.355 556.88H588.554V558.681H590.355V556.88Z" stroke="#F99D21" stroke-width="2" stroke-miterlimit="10"/>
<path d="M534.785 556.88H532.984V558.681H534.785V556.88Z" stroke="#F99D21" stroke-width="2" stroke-miterlimit="10"/>
<path d="M479.215 556.88H477.414V558.681H479.215V556.88Z" stroke="#F99D21" stroke-width="2" stroke-miterlimit="10"/>
<path d="M423.645 556.88H421.844V558.681H423.645V556.88Z" stroke="#F99D21" stroke-width="2" stroke-miterlimit="10"/>
<path d="M368.047 556.879H366.246V558.68H368.047V556.879Z" stroke="#F99D21" stroke-width="2" stroke-miterlimit="10"/>
<path d="M312.476 556.88H310.676V558.681H312.476V556.88Z" stroke="#F99D21" stroke-width="2" stroke-miterlimit="10"/>
<path d="M256.907 556.88H255.106V558.681H256.907V556.88Z" stroke="#F99D21" stroke-width="2" stroke-miterlimit="10"/>
<path d="M201.309 556.879H199.508V558.68H201.309V556.879Z" stroke="#F99D21" stroke-width="2" stroke-miterlimit="10"/>
<path d="M145.738 556.88H143.937V558.681H145.738V556.88Z" stroke="#F99D21" stroke-width="2" stroke-miterlimit="10"/>
<path d="M90.1406 556.88H88.3399V558.681H90.1406V556.88Z" stroke="#F99D21" stroke-width="2" stroke-miterlimit="10"/>
<path d="M34.571 556.88H32.7702V558.681H34.571V556.88Z" stroke="#F99D21" stroke-width="2" stroke-miterlimit="10"/>
<path d="M588.554 612.703H534.785V614.503H588.554V612.703Z" stroke="#F99D21" stroke-width="2" stroke-miterlimit="10"/>
<path d="M644.152 612.703H590.383V614.503H644.152V612.703Z" stroke="#F99D21" stroke-width="2" stroke-miterlimit="10"/>
<path d="M532.985 612.703H479.215V614.503H532.985V612.703Z" stroke="#F99D21" stroke-width="2" stroke-miterlimit="10"/>
<path d="M366.246 612.703H312.477V614.503H366.246V612.703Z" stroke="#F99D21" stroke-width="2" stroke-miterlimit="10"/>
<path d="M199.508 612.703H145.738V614.503H199.508V612.703Z" stroke="#F99D21" stroke-width="2" stroke-miterlimit="10"/>
<path d="M310.676 612.703H256.907V614.503H310.676V612.703Z" stroke="#F99D21" stroke-width="2" stroke-miterlimit="10"/>
<path d="M421.816 612.703H368.047V614.503H421.816V612.703Z" stroke="#F99D21" stroke-width="2" stroke-miterlimit="10"/>
<path d="M88.3401 612.703H34.5708V614.503H88.3401V612.703Z" stroke="#F99D21" stroke-width="2" stroke-miterlimit="10"/>
<path d="M477.414 612.704H423.645V614.504H477.414V612.704Z" stroke="#F99D21" stroke-width="2" stroke-miterlimit="10"/>
<path d="M255.078 612.703H201.308V614.503H255.078V612.703Z" stroke="#F99D21" stroke-width="2" stroke-miterlimit="10"/>
<path d="M143.938 612.703H90.1688V614.503H143.938V612.703Z" stroke="#F99D21" stroke-width="2" stroke-miterlimit="10"/>
<path d="M32.7695 612.703H-20.9998V614.503H32.7695V612.703Z" stroke="#F99D21" stroke-width="2" stroke-miterlimit="10"/>
<path d="M590.355 612.702H588.554V614.503H590.355V612.702Z" stroke="#F99D21" stroke-width="2" stroke-miterlimit="10"/>
<path d="M534.784 612.703H532.984V614.503H534.784V612.703Z" stroke="#F99D21" stroke-width="2" stroke-miterlimit="10"/>
<path d="M479.215 612.703H477.414V614.503H479.215V612.703Z" stroke="#F99D21" stroke-width="2" stroke-miterlimit="10"/>
<path d="M423.645 612.703H421.844V614.503H423.645V612.703Z" stroke="#F99D21" stroke-width="2" stroke-miterlimit="10"/>
<path d="M368.046 612.703H366.245V614.503H368.046V612.703Z" stroke="#F99D21" stroke-width="2" stroke-miterlimit="10"/>
<path d="M312.476 612.703H310.676V614.503H312.476V612.703Z" stroke="#F99D21" stroke-width="2" stroke-miterlimit="10"/>
<path d="M256.907 612.702H255.106V614.503H256.907V612.702Z" stroke="#F99D21" stroke-width="2" stroke-miterlimit="10"/>
<path d="M201.308 612.703H199.508V614.503H201.308V612.703Z" stroke="#F99D21" stroke-width="2" stroke-miterlimit="10"/>
<path d="M145.739 612.703H143.938V614.503H145.739V612.703Z" stroke="#F99D21" stroke-width="2" stroke-miterlimit="10"/>
<path d="M90.141 612.703H88.3403V614.503H90.141V612.703Z" stroke="#F99D21" stroke-width="2" stroke-miterlimit="10"/>
<path d="M34.5708 612.702H32.77V614.503H34.5708V612.702Z" stroke="#F99D21" stroke-width="2" stroke-miterlimit="10"/>
</g>
</g>
</svg>
