<svg width="124" height="124" fill="none"
  xmlns="http://www.w3.org/2000/svg">
  <path fill-rule="evenodd" clip-rule="evenodd" d="M62 123c33.69 0 61-27.31 61-61S95.69 1 62 1 1 28.31 1 62s27.31 61 61 61zm22.847-58.579c1.334-.77 1.334-2.694 0-3.464l-32.77-18.92c-1.334-.77-3 .192-3 1.732v37.84c0 1.54 1.666 2.503 3 1.733l32.77-18.92z" fill="#F99D21"/>
  <path d="M84.847 60.957l.5-.866-.5.866zm0 3.464l.5.866-.5-.866zm-32.77-22.384l.5-.866-.5.866zm-3 1.732h1-1zm0 37.84h-1 1zm3 1.733l-.5-.866.5.866zM122 62c0 33.137-26.863 60-60 60v2c34.242 0 62-27.758 62-62h-2zM62 2c33.137 0 60 26.863 60 60h2c0-34.242-27.758-62-62-62v2zM2 62C2 28.863 28.863 2 62 2V0C27.758 0 0 27.758 0 62h2zm60 60C28.863 122 2 95.137 2 62H0c0 34.242 27.758 62 62 62v-2zm22.347-60.177a1 1 0 010 1.732l1 1.732c2-1.154 2-4.041 0-5.196l-1 1.732zm-32.77-18.92l32.77 18.92 1-1.732-32.77-18.92-1 1.732zm-1.5.866a1 1 0 011.5-.866l1-1.732c-2-1.155-4.5.288-4.5 2.598h2zm0 37.84V43.77h-2v37.84h2zm1.5.867a1 1 0 01-1.5-.866h-2c0 2.31 2.5 3.753 4.5 2.598l-1-1.732zm32.77-18.92l-32.77 18.92 1 1.732 32.77-18.92-1-1.733z" fill="#F99D21"/>
</svg>