<?xml version="1.0" encoding="utf-8"?>
<!-- Generator: Adobe Illustrator 21.1.0, SVG Export Plug-In . SVG Version: 6.00 Build 0)  -->
<svg version="1.1"
	 id="Layer_1" shape-rendering="geometricPrecision" text-rendering="geometricPrecision" image-rendering="optimizeQuality" xmlns:xodm="http://www.corel.com/coreldraw/odm/2003"
	 xmlns="http://www.w3.org/2000/svg" xmlns:xlink="http://www.w3.org/1999/xlink" x="0px" y="0px" viewBox="0 0 24 15"
	 style="enable-background:new 0 0 24 15;" xml:space="preserve">
<style type="text/css">
	.st0{fill:#FFFFFF;}
	.st1{fill:#F7931A;}
</style>
<polygon id="path0_fill" class="st0" points="0,0 24,0 24,15 0,15 "/>
<path id="path1_fill" class="st1" d="M0,0h6.9C5.7,0.8,4.7,2,4,3.3C3.3,4.6,3,6,3,7.5s0.3,2.9,1,4.2C4.7,13,5.7,14.2,6.9,15H0V0L0,0
	z M12,0c-2,0-3.8,0.8-5.2,2.2C5.4,3.6,4.6,5.5,4.6,7.5s0.8,3.9,2.2,5.3S10,15,12,15c2,0,3.8-0.8,5.2-2.2c1.4-1.4,2.2-3.3,2.2-5.3
	c0-2-0.8-3.9-2.2-5.3S14,0,12,0L12,0z M24,0h-6.9c1.2,0.8,2.2,2,2.8,3.3c0.7,1.3,1,2.8,1,4.2c0,1.5-0.3,2.9-1,4.2
	c-0.7,1.3-1.6,2.4-2.8,3.3H24V0L24,0z"/>
<path id="path2_fill" class="st0" d="M14.5,5c-0.3-1-1.2-1.1-2.3-0.9l-0.3-1.3L11,3l0.3,1.3c-0.2,0.1-0.4,0.1-0.6,0.2l-0.3-1.3
	L9.6,3.3l0.3,1.3c-0.2,0-0.3,0.1-0.5,0.1v0L8.3,5.1L8.5,6c0,0,0.6-0.2,0.6-0.1c0.3-0.1,0.5,0.1,0.6,0.2L10,7.6c0,0,0.1,0,0.1,0
	l-0.1,0l0.5,2.2c0,0.1,0,0.3-0.2,0.3c0,0-0.6,0.1-0.6,0.1l0.1,1l1.1-0.3c0.2,0,0.4-0.1,0.6-0.1l0.3,1.4l0.8-0.2l-0.3-1.4
	c0.2,0,0.4-0.1,0.6-0.2l0.3,1.3l0.8-0.2l-0.3-1.4c1.3-0.4,2.2-1,2-2.3c-0.2-1.1-0.8-1.4-1.6-1.4C14.5,6.2,14.7,5.7,14.5,5L14.5,5
	L14.5,5z M14.1,8.2c0.3,1-1.5,1.3-2,1.5l-0.4-1.8C12.1,7.7,13.8,7.2,14.1,8.2L14.1,8.2z M13.1,5.8c0.2,0.9-1.2,1.2-1.7,1.3L11,5.4
	C11.4,5.3,12.8,4.8,13.1,5.8L13.1,5.8z"/>
</svg>
