<?xml version="1.0" encoding="utf-8"?>
<!-- Generator: Adobe Illustrator 21.1.0, SVG Export Plug-In . SVG Version: 6.00 Build 0)  -->
<svg version="1.1" id="Layer_1" xmlns="http://www.w3.org/2000/svg" xmlns:xlink="http://www.w3.org/1999/xlink" x="0px" y="0px"
	 viewBox="0 0 16.8 24" style="enable-background:new 0 0 16.8 24;" xml:space="preserve">
<style type="text/css">
	.st0{fill:#31CB9E;}
</style>
<title>kyber-network-knc-logo</title>
<path class="st0" d="M7.2,12l8.9,5.1c0.2,0.1,0.5,0.1,0.6-0.2c0-0.1,0.1-0.2,0.1-0.2V7.3c0-0.3-0.2-0.5-0.5-0.5
	c-0.1,0-0.2,0-0.3,0.1L7.2,12z"/>
<path class="st0" d="M15.9,4.6L9.8,0.1C9.6-0.1,9.3,0,9.1,0.2c0,0.1-0.1,0.1-0.1,0.2l-2.2,10l9.1-5c0.2-0.1,0.3-0.4,0.2-0.6
	C16,4.7,16,4.6,15.9,4.6"/>
<path class="st0" d="M9.8,23.9l6.1-4.5c0.2-0.1,0.3-0.4,0.1-0.6c0-0.1-0.1-0.1-0.2-0.1l-9.1-5l2.2,10C9.1,23.9,9.4,24,9.6,24
	C9.7,24,9.7,23.9,9.8,23.9"/>
<path class="st0" d="M4.8,11.8L7.2,0.9c0-0.3-0.1-0.5-0.4-0.5c-0.1,0-0.2,0-0.4,0.1L0.5,5C0.2,5.3,0,5.6,0,6v11.6
	c0,0.4,0.2,0.8,0.5,1l5.9,4.6c0.2,0.1,0.5,0.1,0.6-0.1c0.1-0.1,0.1-0.2,0.1-0.4L4.8,11.8z"/>
</svg>
