<?xml version="1.0" encoding="utf-8"?>
<!-- Generator: Adobe Illustrator 21.1.0, SVG Export Plug-In . SVG Version: 6.00 Build 0)  -->
<svg version="1.1" id="Layer_1" xmlns="http://www.w3.org/2000/svg" xmlns:xlink="http://www.w3.org/1999/xlink" x="0px" y="0px"
	 viewBox="0 0 23.636 24" style="enable-background:new 0 0 23.636 24;" xml:space="preserve">
<style type="text/css">
	.st0{fill:#3AB03E;}
</style>
<path class="st0" d="M13.192,12.934c0.964-0.474,1.574-1.454,1.573-2.528c0-1.553-1.256-2.811-2.803-2.811s-2.804,1.258-2.804,2.811
	c-0.001,1.074,0.61,2.055,1.574,2.528v3.472h2.46L13.192,12.934 M11.962,21c-4.947,0-8.972-4.037-8.972-9s4.025-8.999,8.972-8.999
	c4.037,0,7.459,2.688,8.582,6.374h3.092C22.443,4.01,17.669,0,11.962,0C5.356,0,0,5.373,0,12s5.356,12,11.962,12
	c5.707,0,10.481-4.01,11.674-9.375h-3.092C19.42,18.312,15.999,21,11.962,21"/>
</svg>
