<?xml version="1.0" encoding="utf-8"?>
<!-- Generator: Adobe Illustrator 21.1.0, SVG Export Plug-In . SVG Version: 6.00 Build 0)  -->
<svg version="1.1" id="Layer_1" xmlns="http://www.w3.org/2000/svg" xmlns:xlink="http://www.w3.org/1999/xlink" x="0px" y="0px"
	 viewBox="0 0 24 18.7" style="enable-background:new 0 0 24 18.7;" xml:space="preserve">
<style type="text/css">
	.st0{fill:#2BBDF7;}
	.st1{fill:#2891F9;}
	.st2{fill:#2B6DEF;}
</style>
<title>matic-network-matic-logo</title>
<g id="Group-6">
	<polygon id="Path" class="st0" points="9.3,7.8 12,13.6 16,11.4 16,11.4 16,6.8 	"/>
	<polygon id="Path-2" class="st1" points="21.2,3.4 18.7,2.5 16,2.3 16,6.8 16,6.8 16,16.4 16,16.4 20,18.7 23.2,12.3 21.2,6.1 	"/>
	<polygon id="Path-3" class="st0" points="20.9,2.3 20,4.5 20,4.5 20,18.7 24,16.4 24,2.3 	"/>
	<polygon id="Path-4" class="st2" points="20,0 16,2.3 20,4.5 24,2.3 	"/>
	<polygon id="Path-5" class="st1" points="12,9.1 12,9.1 8,4.7 0,2.3 0,16.4 0,16.4 4,18.7 5.1,10.8 8,11.4 8,11.4 12,13.6 12,9.1 	
		"/>
	<polygon id="Path-6" class="st2" points="4,0 0,2.3 12,9.1 13.8,8.1 16,6.8 	"/>
	<polygon id="Path-7" class="st0" points="4,9.1 4,9.1 4,18.7 8,16.4 8,16.4 8,11.4 8,11.4 	"/>
</g>
</svg>
